<?xml version="1.0" encoding="utf-8"?>
<!-- Generator: Adobe Illustrator 27.0.1, SVG Export Plug-In . SVG Version: 6.00 Build 0)  -->
<svg version="1.1" id="Capa_1" xmlns="http://www.w3.org/2000/svg" xmlns:xlink="http://www.w3.org/1999/xlink" x="0px" y="0px"
	 viewBox="0 0 177.4 125.4" style="enable-background:new 0 0 177.4 125.4;" xml:space="preserve">
<style type="text/css">
	.st0{opacity:0.48;fill:#FFFFFF;}
	.st1{opacity:0.66;fill:#FFFFFF;}
	.st2{fill:#FFFFFF;}
	.st3{opacity:0.74;fill:#FFFFFF;}
	.st4{fill-rule:evenodd;clip-rule:evenodd;fill:#FFFFFF;}
	.st5{fill:#1D2A4C;}
</style>
<g>
	<path class="st2" d="M88.5,45.7c2,1.2,3.9,2.3,5.9,3.5c1,0.6,2.1,1.2,3.2,1.8c0.2,0.1,0.5,0.2,0.8,0.2c1.7,0,3.4,0,5.1,0
		c-0.8,0.7-1.5,1.3-2.2,1.9c0.5,0.3,1,0.6,1.5,0.9c0.3,0.2,0.4,0.4,0.4,0.7c0,0.7,0,1.5,0,2.2c0.2,0,0.3,0,0.5,0c1.4,0,2.8,0,4.2,0
		c0.3,0,0.5,0.1,0.6,0.4c1.3,2.4,2.7,4.7,4,7.1c0,0.1,0.1,0.1,0.2,0.3c0.5-0.9,1.1-1.8,1.6-2.7c0.9-1.6,1.8-3.1,2.7-4.7
		c0.1-0.2,0.3-0.3,0.4-0.3c1.7,0,3.5,0,5.2,0c0,4.1,0,8.2,0,12.3c-1.2,0-2.4,0-3.6,0c0-2.8,0-5.7,0-8.7c-0.1,0.2-0.2,0.3-0.3,0.3
		c-1.6,2.7-3.1,5.4-4.7,8.1c-0.1,0.2-0.3,0.3-0.6,0.3c-0.6,0-1.1,0-1.7,0c-0.3,0-0.5-0.1-0.7-0.4c-1.5-2.7-3-5.3-4.6-8
		c-0.1-0.1-0.1-0.2-0.2-0.4c0,2.9,0,5.8,0,8.7c-1.1,0-2.2,0-3.4,0c0,0.6,0,1.1,0,1.6c0,0.5-0.1,0.7-0.5,0.9
		c-0.1,0.1-0.3,0.2-0.5,0.3c1,0.8,2,1.6,3.1,2.5c-0.2,0-0.3,0-0.4,0c-2.2,0-4.5,0-6.7,0c-0.3,0-0.6,0.1-0.8,0.2
		c-2.9,1.6-5.7,3.2-8.6,4.8c-0.4,0.2-0.7,0.2-1.2,0c-2.7-1.6-5.4-3.2-8.1-4.8c-0.2-0.1-0.4-0.2-0.7-0.2c-1.9,0-3.8,0-5.8,0
		c-0.2,0-0.3,0-0.6,0c0-1.8,0-3.5,0-5.3c-0.6,0-1.2,0-1.8,0c-0.9,0-1.8,0-2.7,0c-0.3,0-0.5-0.1-0.7-0.3c-2.3-2.8-4.5-5.5-6.8-8.3
		c-0.1-0.1-0.1-0.1-0.3-0.3c0,3,0,5.9,0,8.9c-1.3,0-2.5,0-3.8,0c0-4.1,0-8.2,0-12.3c0.2,0,0.3,0,0.5,0c1.5,0,3.1,0,4.6,0
		c0.3,0,0.5,0.1,0.7,0.3c2.3,2.9,4.6,5.7,6.9,8.5c0,0,0,0,0.1,0.1c0-3,0-6,0-9c1.1,0,2.1,0,3.2,0c0-1.9,0-3.7,0-5.6
		c0.2,0,0.4,0,0.5,0c1.5,0,3,0,4.6,0c0.2,0,0.4,0,0.5-0.1c3.3-1.9,6.6-3.7,9.9-5.6C88.2,45.7,88.3,45.7,88.5,45.7z M100.1,52.5
		c-0.1,0-0.1-0.1-0.1-0.1c-2.3,0-4.6,0-6.9,0c-0.2,0-0.4,0.1-0.5,0.2c-2.7,2.4-5.4,4.7-8.1,7.1c-0.7,0.6-1.4,1-2.4,0.9
		c-0.9-0.1-1.8,0-2.7,0c0-2.7,0-5.4,0-8.1c-1.9,0-3.8,0-5.7,0c0,6.9,0,13.8,0,20.8c1.9,0,3.9,0,5.8,0c0-2.8,0-5.6,0-8.3
		c1.1,0,2.2,0,3.3,0c0.4,0,0.7,0.1,0.9,0.3c3.3,2.6,6.5,5.1,9.8,7.7c0.2,0.2,0.5,0.3,0.8,0.3c2.3,0,4.5,0,6.8,0c0.1,0,0.3,0,0.5,0
		c-4.5-3.5-8.9-7-13.3-10.5C92.3,59.3,96.2,55.9,100.1,52.5z"/>
	<path class="st2" d="M46.4,69.4c-1.5,0-3,0-4.6,0c-0.5,0-0.9-0.1-1.3-0.2c-1.5-0.5-2.4-1.6-2.4-3.2c0-1.8-0.1-3.6,0-5.4
		c0.1-2.1,1.3-3.5,3.4-3.5c3.2-0.1,6.5-0.1,9.7,0c2.5,0.1,3.4,1.4,3.5,3.8c0.1,1.6,0.1,3.2,0,4.8c0,0.6-0.2,1.3-0.4,1.9
		c-0.5,1.1-1.5,1.7-2.6,1.8c-1.7,0.2-3.5,0.2-5.3,0.3C46.4,69.5,46.4,69.5,46.4,69.4z M46.4,66.4C46.4,66.4,46.4,66.4,46.4,66.4
		c0.8-0.1,1.5,0,2.3-0.1c1.5-0.1,2.3-0.4,2.3-2.4c0-0.6,0-1.2,0-1.8c0-1.5-0.6-2.1-2.1-2.2c-1.6-0.1-3.3,0-4.9,0
		c-1.3,0-1.9,0.6-2,1.8c-0.1,0.9-0.1,1.8,0,2.7c0.1,1.1,0.6,1.6,1.7,1.7C44.5,66.4,45.5,66.4,46.4,66.4z"/>
	<path class="st2" d="M124.5,57c4.5,0,8.9,0,13.4,0c0,1,0,2,0,3c-3.2,0-6.4,0-9.7,0c0,0.6,0,1.2,0,1.9c3,0,6,0,9.1,0
		c0,0.9,0,1.7,0,2.6c-3,0-6,0-9.1,0c0,0.7,0,1.3,0,1.9c3.3,0,6.5,0,9.8,0c0,1,0,2,0,2.9c-4.5,0-9,0-13.6,0
		C124.5,65.2,124.5,61.1,124.5,57z"/>
	<path class="st2" d="M36.9,61.4c-1.3,0-2.6,0-3.8,0c-0.2-1-0.4-1.4-1.5-1.4c-1.7-0.1-3.4,0-5.2,0.1c-1,0.1-1.3,0.6-1.4,1.5
		c0,1,0,2,0,3c0,1,0.5,1.6,1.8,1.7c1.6,0.1,3.2,0.1,4.7,0c1.3-0.1,1.5-0.4,1.6-1.7c1.2,0,2.5,0,3.7,0c0.7,2.1-0.6,4.4-2.8,4.7
		c-0.7,0.1-1.5,0.2-2.2,0.2c-2.2,0-4.5,0-6.7-0.1c-2.7-0.1-3.9-1.5-4-4.1c0-1.6-0.1-3.3,0.1-4.9c0.2-2.2,1.3-2.9,3.2-3.3
		c0.8-0.2,1.7-0.2,2.5-0.2c1.9,0,3.7,0,5.6,0c0.6,0,1.2,0.1,1.7,0.2c1.5,0.3,2.3,1.1,2.5,2.6C36.9,60.2,36.9,60.8,36.9,61.4z"/>
	<path class="st2" d="M155.7,57c-1.9,2.1-3.7,4.1-5.5,6.1c2,2.1,3.9,4.1,5.9,6.2c-0.4,0-0.7,0-1.1,0c-1.1,0-2.3,0-3.4,0
		c-0.2,0-0.5-0.1-0.7-0.3c-1.2-1.2-2.3-2.5-3.5-3.7c-0.1-0.1-0.1-0.2-0.2-0.3c-0.7,0.7-1.3,1.4-2,2.1c-0.6,0.7-1.3,1.4-1.9,2
		c-0.1,0.1-0.3,0.2-0.5,0.2c-1.5,0-3,0-4.6,0c2.1-2.1,4-4.2,6.1-6.3c-1.9-2-3.7-4-5.6-6.1c1.6,0,3,0,4.5,0c0.2,0,0.3,0.2,0.5,0.3
		c1.2,1.3,2.4,2.7,3.6,4c0.8-0.9,1.5-1.7,2.3-2.6c0.5-0.5,0.9-1,1.4-1.5c0.1-0.1,0.3-0.2,0.4-0.2C152.8,57,154.2,57,155.7,57z"/>
	<path class="st2" d="M147,72.8c0.5,0,0.9,0,1.4,0c0.7,0,1,0.3,1.1,1c0,0.6,0,1.3,0,1.9c0,0.4-0.3,0.7-0.7,0.7c-1.2,0-2.3,0-3.5,0
		c-0.4,0-0.7-0.3-0.7-0.8c0-0.7,0-1.4,0-2.1c0-0.5,0.4-0.7,1-0.8c0.1,0,0.1,0,0.2,0C146.1,72.8,146.5,72.8,147,72.8
		C147,72.8,147,72.8,147,72.8z M147,75.8C147,75.8,147,75.8,147,75.8c0.2,0,0.4,0,0.6,0c0.6-0.1,0.8-0.3,0.8-0.9c0-0.1,0-0.2,0-0.3
		c0-0.6-0.2-0.8-0.8-0.9c-0.4,0-0.9,0-1.3,0c-0.6,0-0.8,0.3-0.8,0.8c0,1.1,0.1,1.3,1.2,1.3C146.8,75.8,146.9,75.8,147,75.8z"/>
	<path class="st2" d="M122.2,75.5c0-0.9,0-1.7,0-2.6c0.4,0,0.7,0,1,0c0,0.1,0,0.2,0,0.3c0,0.9,0,1.9,0,2.8c0,0.3-0.1,0.5-0.4,0.4
		c0,0-0.1,0-0.1,0c-0.8,0.1-1.4-0.2-1.9-0.9c-0.4-0.6-1-1.2-1.5-1.9c0,1,0,1.8,0,2.7c-0.4,0-0.7,0-1.1,0c0-1.2,0-2.4,0-3.6
		c0.5,0,1.1,0,1.6,0c0.1,0,0.3,0.2,0.4,0.4c0.6,0.8,1.3,1.5,1.9,2.3C122.2,75.6,122.2,75.5,122.2,75.5z"/>
	<path class="st2" d="M115,76.6c-0.5,0-1,0.1-1.6,0c-0.7-0.1-1-0.4-1-1.1c0-0.5,0-1,0-1.6c0-0.7,0.3-1,0.9-1c1,0,2.1,0,3.1,0
		c0.7,0,0.9,0.4,1,1.1c0,0.5,0,1,0,1.5c0,0.8-0.4,1.1-1.1,1.2c0,0-0.1,0-0.1,0C115.8,76.6,115.4,76.6,115,76.6
		C115,76.6,115,76.6,115,76.6z M114.9,73.7c-1.4,0-1.6,0.2-1.4,1.4c0,0,0,0.1,0,0.1c0.2,0.2,0.3,0.5,0.5,0.5c0.6,0.1,1.3,0.1,1.9,0
		c0.2,0,0.4-0.3,0.4-0.6C116.5,73.8,116.3,73.7,114.9,73.7C115,73.7,114.9,73.7,114.9,73.7z"/>
	<path class="st2" d="M150.2,75.4c0.4,0,0.9-0.2,1.2,0.3c0,0.1,0.3,0.1,0.4,0.1c0.5,0,1,0,1.4,0c0.2,0,0.5,0,0.5-0.4
		c0-0.3-0.3-0.4-0.5-0.4c-0.7,0-1.3,0-2-0.1c-0.8,0-1-0.3-1-1.1c0-0.7,0.3-1.1,1-1.1c0.9,0,1.7,0,2.6,0c0.7,0,0.9,0.3,0.9,1.1
		c-0.4,0-0.9,0.2-1.2-0.3c0-0.1-0.2-0.1-0.3-0.1c-0.5,0-0.9,0-1.4,0c-0.2,0-0.4,0.2-0.5,0.3c-0.1,0.3,0.2,0.4,0.5,0.4
		c0.7,0,1.4,0,2,0.1c0.7,0,0.9,0.2,1,0.9c0.1,0.9-0.1,1.2-0.9,1.3c-1,0.1-1.9,0.1-2.9,0C150.3,76.5,150.2,76.2,150.2,75.4z"/>
	<path class="st2" d="M129.7,72.9c1.2,0,2.3,0,3.4,0c0.5,0,0.9,0.2,1,0.7c0.2,0.6,0,1.2-0.5,1.5c0.4,0.2,0.5,0.6,0.5,1
		c0,0.3-0.1,0.5-0.5,0.4c-0.3,0-0.7,0.1-0.6-0.4c0-0.4-0.2-0.6-0.6-0.6c-0.6,0-1.1,0-1.8,0c0,0.3,0,0.6,0,0.9c-0.3,0-0.7,0-1,0
		C129.7,75.3,129.7,74.1,129.7,72.9z M130.8,74.7c0.7,0,1.3,0,1.9,0c0.2,0,0.4-0.2,0.4-0.4c0-0.2-0.1-0.5-0.3-0.5
		c-0.7-0.1-1.4,0-2,0C130.8,74.1,130.8,74.4,130.8,74.7z"/>
	<path class="st2" d="M128.9,75.2c0.1,1-0.1,1.3-1,1.4c-0.9,0.1-1.8,0.1-2.7,0c-0.8-0.1-1.1-0.5-1.1-1.2c0-0.4,0-0.8,0-1.2
		c0-0.8,0.3-1.2,1.1-1.2c0.9-0.1,1.8-0.1,2.7,0c0.7,0,1,0.4,0.9,1.2c-0.4,0-0.9,0.2-1.2-0.3c-0.1-0.1-0.3-0.1-0.4-0.1
		c-0.4,0-0.9,0-1.3,0c-0.5,0-0.7,0.2-0.7,0.7c-0.1,1.2,0.1,1.4,1.3,1.4c0.5,0,1,0.1,1.3-0.5C128,75.1,128.5,75.2,128.9,75.2z"/>
	<path class="st2" d="M139.1,75.8c0,0.3,0,0.5,0,0.8c-1.3,0-2.5,0-3.8,0c-0.1,0-0.3-0.2-0.3-0.3c0-1,0-2,0-3c0-0.1,0.2-0.3,0.3-0.3
		c1.2,0,2.5,0,3.7,0c0,0.3,0,0.5,0,0.8c-1,0-1.9,0-2.9,0c-0.2,0.6-0.1,0.7,0.4,0.7c0.7,0,1.5,0,2.3,0c0,0.2,0,0.4,0,0.7
		c-0.5,0-0.9,0-1.4,0c-0.3,0-0.5,0-0.8,0c-0.2,0-0.7-0.2-0.6,0.3c0,0.5,0.4,0.3,0.7,0.3C137.5,75.8,138.3,75.8,139.1,75.8z"/>
	<path class="st2" d="M111.7,74.1c-0.4-0.1-0.9,0.2-1.2-0.3c-0.1-0.1-0.3-0.1-0.4-0.1c-0.4,0-0.9,0-1.3,0c-0.4,0-0.7,0.2-0.7,0.7
		c0,0,0,0.1,0,0.1c-0.1,1.1,0.1,1.3,1.3,1.3c0.3,0,0.6,0,0.9-0.1c0.1,0,0.3,0,0.3-0.1c0.3-0.6,0.7-0.4,1.2-0.4
		c0.2,0.7,0,1.2-0.7,1.3c-1,0.1-2,0.1-3,0c-0.6,0-0.9-0.4-0.9-1.1c0-0.5,0-1.1,0-1.6c0-0.5,0.3-0.8,0.8-0.9c0.5-0.1,1.1-0.1,1.6-0.1
		c0.4,0,0.8,0,1.2,0C111.4,72.9,111.7,73.2,111.7,74.1z"/>
	<path class="st2" d="M143.9,72.9c0,0.3,0,0.5,0,0.8c-0.4,0-0.8,0-1.1,0c-0.3,0-0.4,0.1-0.4,0.5c0,0.8,0,1.6,0,2.4c-0.3,0-0.7,0-1,0
		c0-0.8,0-1.5,0-2.3c0-0.4-0.1-0.6-0.5-0.5c-0.3,0-0.7,0-1.1,0c0-0.3,0-0.5,0-0.8C141.1,72.9,142.4,72.9,143.9,72.9z"/>
</g>
</svg>
