<?xml version="1.0" encoding="UTF-8"?>
<svg id="Capa_7" data-name="Capa 7" xmlns="http://www.w3.org/2000/svg" viewBox="0 0 177.4 125.4">
  <defs>
    <style>
      .cls-1 {
        fill: #fff;
        stroke-width: 0px;
      }
    </style>
  </defs>
  <path class="cls-1" d="M117.62,79.97c-.08.64-.03,1.29-.04,1.94,0,.69,0,1.38,0,2.07v2c0,.66,0,1.33,0,1.95-.21.18-.38.17-.58.06v-10.23c.46-.16.9-.09,1.33-.08.3,0,.4.27.54.48.74,1.19,1.47,2.38,2.22,3.57.29.46.53.95.93,1.37.28-.24.4-.54.55-.81.8-1.37,1.61-2.73,2.38-4.12.22-.4.48-.57.93-.52.31.03.64,0,.94,0,.17.53.2,9.57.06,10.36-.54.08-1.08.06-1.71,0v-8.6c-.31.06-.34.27-.43.41-.84,1.42-1.68,2.85-2.51,4.27-.51.87-1.2.86-1.75,0-.84-1.32-1.68-2.63-2.53-3.94-.06-.09-.1-.21-.32-.2Z"/>
  <path class="cls-1" d="M44.95,88.26c-.34-.04-.73-.05-1.11-.13-1.83-.37-2.95-1.49-3.4-3.28-.32-1.29-.32-2.6,0-3.89.64-2.62,2.66-3.55,5.01-3.42,1.05.06,2.03.36,2.84,1.08.85.75,1.26,1.73,1.45,2.82.18,1.05.18,2.1-.05,3.14-.48,2.23-1.88,3.45-4.14,3.63-.18.01-.37.03-.6.05ZM42.21,82.88c0,.46-.02.92,0,1.38.03.74.17,1.45.51,2.12.27.51.66.88,1.19,1.09,1.67.65,3.24-.13,3.71-1.86.04-.15.08-.31.11-.47.22-1.32.14-2.65.08-3.98-.03-.52-.15-1.04-.37-1.53-.33-.74-.87-1.23-1.67-1.4-1.56-.32-2.98.2-3.42,2.19-.18.82-.15,1.64-.14,2.47Z"/>
  <path class="cls-1" d="M87.73,77.65c1.82.08,3.62-.2,5.38.2,1.97.44,2.87,2.53,1.91,4.33-.23.43-.56.76-1.03.97-.73.33-1.48.47-2.27.47-.71,0-1.42,0-2.2,0v4.39c-.63.13-1.19.09-1.79.04v-10.39ZM89.53,82.97c.25.15.49.09.71.1.64,0,1.29.03,1.92-.03.58-.06.94-.43,1.08-1.01.19-.77.17-1.55.07-2.32-.12-.96-.58-1.36-1.56-1.41-.59-.03-1.19-.01-1.79,0-.16,0-.33-.03-.45.14v4.54Z"/>
  <path class="cls-1" d="M147.45,79.83c-.3.15-.52.08-.67-.23-.35-.73-.99-1.06-1.72-1.27-.68-.2-1.37-.21-2.05-.1-1.11.18-1.75.99-1.69,2.07.03.62.34,1.04.9,1.27.34.14.7.2,1.08.2.51,0,1.01-.01,1.52,0,1.26.05,2.33.52,2.84,1.72.53,1.28.22,2.48-.7,3.52-.31.35-.68.62-1.11.8-1.56.65-3.09.58-4.59-.19-.66-.34-1.1-.88-1.25-1.65.28-.13.51-.15.64.15.39.87,1.16,1.2,2.01,1.39.72.16,1.45.21,2.18,0,1.29-.36,1.99-1.81,1.44-3.02-.31-.69-.92-.94-1.62-.99-.53-.04-1.06-.01-1.59-.01-.63,0-1.22-.13-1.81-.35-.71-.25-1.07-.77-1.25-1.44-.34-1.24.16-2.59,1.19-3.37,1.45-1.09,3.78-1.1,5.25-.03.56.41.83.83.98,1.52Z"/>
  <path class="cls-1" d="M59.52,79.82c-.34.12-.56.1-.69-.19-.39-.83-1.13-1.17-1.96-1.36-.61-.14-1.23-.14-1.85-.04-1.08.18-1.71.96-1.67,2.03.02.67.34,1.11.98,1.35.33.12.67.17,1.01.17.51,0,1.01-.01,1.51,0,1.22.06,2.29.49,2.8,1.66.55,1.27.26,2.48-.64,3.52-.3.35-.67.63-1.1.82-1.57.68-3.13.62-4.64-.17-.65-.34-1.1-.88-1.26-1.64.25-.15.49-.17.61.08.5,1.09,1.48,1.38,2.52,1.54.61.09,1.24.09,1.84-.11,1.24-.4,1.88-1.95,1.27-3.1-.34-.64-.94-.85-1.61-.89-.55-.03-1.1-.01-1.65-.01-.49,0-.96-.08-1.42-.25-1.2-.42-1.78-1.34-1.63-2.6.18-1.48,1.03-2.43,2.41-2.89,1.43-.47,2.81-.31,4.08.53.53.35.9.84,1.06,1.53Z"/>
  <path class="cls-1" d="M95.47,64.23c-.25-.17-.25-.42-.31-.62-.83-2.83-2.2-5.36-4.29-7.44-2.07-2.06-4.53-3.35-7.53-3.37-4.09-.03-7.56,1.42-10.47,4.29-.89.88-1.62,1.85-2.26,2.91-.16.26-.17.26-.47.41-.14-.13-.05-.25,0-.37,2.39-4.27,5.89-7.03,10.76-7.92,1.71-.31,3.42-.38,5.12.06,3.43.88,5.89,2.98,7.65,5.98,1,1.7,1.64,3.54,1.92,5.49.03.19.15.41-.13.58Z"/>
  <path class="cls-1" d="M96.24,88c1.3-3.46,2.59-6.88,3.86-10.24.11-.05.15-.08.19-.09.98-.05.98-.05,1.33.85,1.11,2.92,2.21,5.84,3.31,8.77.08.21.19.42.19.76-.57.07-1.15.03-1.76.01-.37-.67-.57-1.4-.84-2.1-.5-1.29-.25-1.05-1.54-1.07-.94-.01-1.88,0-2.83,0-.3.44-.4.94-.59,1.4-.19.44-.35.9-.5,1.36-.12.38-.34.51-.81.35ZM100.19,79.77c-.05,0-.1,0-.16,0-.57,1.5-1.14,2.99-1.72,4.51h3.57c-.58-1.55-1.14-3.03-1.69-4.51Z"/>
  <path class="cls-1" d="M76.67,84.92h-4.04c-.34.9-.67,1.8-1.01,2.7-.18.47-.18.47-.75.39-.05-.17.05-.31.11-.45,1.17-3.12,2.34-6.23,3.5-9.35.14-.36.29-.58.73-.56.6.03.64.01.83.52,1.22,3.22,2.43,6.44,3.64,9.67.02.04.02.09.04.21-.61.08-1.21.04-1.85.03-.4-1.06-.79-2.08-1.2-3.15ZM76.45,84.3c-.58-1.56-1.15-3.07-1.78-4.75-.64,1.67-1.21,3.19-1.8,4.75h3.58Z"/>
  <path class="cls-1" d="M138.12,88.02c-.17.04-.21.07-.26.06-.53-.01-1.13.18-1.56-.08-.41-.25-.42-.88-.61-1.35-.23-.57-.44-1.15-.67-1.73h-3.92c-.3.55-.46,1.15-.68,1.72-.13.34-.28.68-.38,1.03-.12.4-.36.49-.73.35-.01-.28.12-.5.2-.73.69-1.85,1.42-3.69,2.08-5.55.4-1.12.76-2.26,1.19-3.37.29-.74.16-.71,1.02-.71.11,0,.22.02.4.03,1.29,3.42,2.59,6.85,3.9,10.32ZM134.81,84.3c-.6-1.59-1.16-3.09-1.78-4.74-.67,1.65-1.19,3.17-1.7,4.74h3.48Z"/>
  <path class="cls-1" d="M37.81,85.89c-.21.91-.76,1.52-1.55,1.91-2.71,1.35-5.93-.17-6.58-3.12-.26-1.16-.25-2.33-.02-3.49.55-2.83,2.85-3.88,5.25-3.63.75.08,1.43.34,2,.84.46.4.8.87.88,1.5-.29.15-.5.13-.64-.17-.74-1.55-2.42-1.72-3.59-1.5-.83.16-1.37.7-1.68,1.48-.3.74-.35,1.52-.39,2.3-.04.96-.03,1.93.09,2.89.02.16.05.32.08.47.24,1.04.72,1.91,1.86,2.16,1.19.26,2.28.07,3.18-.83.18-.18.33-.39.42-.62.14-.33.36-.36.69-.2Z"/>
  <path class="cls-1" d="M65.12,88v-9.67h-3.18c-.25-.23-.19-.41-.13-.58.07-.03.14-.08.2-.08,2.62,0,5.24,0,7.85,0,.24,0,.48.02.47.35-.01.29-.23.3-.44.3-.69,0-1.38,0-2.07,0-.25,0-.5-.04-.84.11-.06,1.02-.02,2.09-.03,3.16,0,1.06,0,2.11,0,3.17v3.22c-.6.14-1.1.15-1.83.02Z"/>
  <path class="cls-1" d="M107.53,77.71c.61-.08,1.13-.04,1.75-.04.05.83.02,1.63.02,2.42,0,.83,0,1.65,0,2.48v2.41c0,.8,0,1.6,0,2.49h4.78c.15.23.14.38.04.57h-6.59v-10.34Z"/>
  <path class="cls-1" d="M73.44,57.73c-.07-.29.18-.4.34-.52,2.13-1.63,4.49-2.65,7.22-2.61,2.95.04,5.56,1.06,7.91,2.81,1.46,1.09,2.58,2.46,3.42,4.08.19.37.34.75.42,1.16.03.17.12.36-.05.5-.12.05-.21,0-.24-.08-.89-1.96-2.37-3.41-4.05-4.68-1.8-1.36-3.73-2.42-5.98-2.83-2.19-.4-4.3-.12-6.31.8-.78.36-1.58.71-2.24,1.29-.11.1-.25.23-.44.08Z"/>
  <path class="cls-1" d="M71.17,60.61c-.26-.33-.04-.46.09-.59.6-.62,1.31-1.08,2.06-1.48,1.48-.78,3.05-1.26,4.71-1.45,2.42-.27,4.52.55,6.43,1.94,1.29.95,2.37,2.1,3.03,3.59.2.46.2.46.11.89-.22.04-.26-.15-.35-.27-1.56-2.23-3.69-3.74-6.12-4.87-1.21-.56-2.5-.59-3.79-.41-1.72.24-3.37.71-4.86,1.64-.46.29-.88.63-1.32,1Z"/>
  <path class="cls-1" d="M76.54,52.24c-.13-.28.09-.34.23-.44.83-.58,1.74-1.02,2.69-1.38,2.63-1,5.31-1.39,8.1-.8,2.59.55,4.42,2.12,5.8,4.3.06.09.14.19.11.31,0,.04-.05.08-.08.12-.28.06-.39-.19-.54-.34-.66-.65-1.34-1.26-2.1-1.77-2.33-1.57-4.89-2.26-7.7-1.96-2.17.23-4.23.83-6.14,1.88-.1.05-.2.13-.36.07Z"/>
  <path class="cls-1" d="M85.73,36.54c.58-1.03,2.02-1.04,2.64-.02.39.64.43,1.35.32,2.07-.11.73-.37,1.42-.7,2.08-.1.19-.27.37-.2.62.27.03.34-.16.44-.3,1.1-1.46,1.77-3.1,2.01-4.91.17-1.3.29-2.6.29-3.91,0-.17-.05-.38.14-.49.18-.03.25.08.29.22.44,1.36.57,2.71.25,4.13-.39,1.78-1.08,3.4-2.26,4.8-.25.3-.51.58-.8.81-.25.09-.31-.19-.53-.2-.46.3-.74.9-1.34,1.03-.18-.17-.11-.27,0-.38,1.19-1.08,1.6-2.48,1.61-4.02,0-.86-.59-1.38-1.46-1.42-.2-.01-.41.08-.61-.02-.04-.02-.07-.06-.1-.09Z"/>
  <path class="cls-1" d="M93.81,38.11c-.16-.3.01-.5.08-.7.84-2.62,1.14-5.29.71-8.02-.2-1.3-.59-2.55-1.08-3.77-.3-.74-.84-1.31-1.44-1.82-.44-.37-.9-.71-1.35-1.06-.11-.08-.25-.14-.22-.31.09-.18.22-.12.35-.06.29.13.59.26.88.39,2.03.94,3.1,2.6,3.51,4.72.68,3.47.39,6.85-1.02,10.11-.08.19-.09.46-.43.52Z"/>
  <path class="cls-1" d="M72.73,54.86c-.22-.18-.05-.39,0-.56.45-1.83.77-3.68.91-5.56.12-1.54.04-3.07-.35-4.58-.49-1.91-1.7-3.04-3.62-3.42-.14-.03-.28-.03-.33-.2.01-.19.16-.19.3-.21,1.62-.27,3.49.72,4.21,2.24.52,1.1.66,2.29.69,3.49.06,2.93-.56,5.74-1.48,8.5-.05.14-.06.34-.31.29Z"/>
  <path class="cls-1" d="M94.8,46.92c.35.05.59.29.84.5,1.21,1.04,2.04,2.36,2.65,3.81.67,1.59,1.17,3.23,1.34,4.96.14,1.46-.06,2.88-.56,4.26-.19.52-.56.93-.78,1.45-.36-.19-.2-.39-.1-.58.48-.98.71-2.03.76-3.12.05-1.01-.04-2.02-.32-3-.67-2.35-1.65-4.57-2.91-6.66-.25-.41-.56-.78-.84-1.17-.09-.13-.22-.24-.06-.45Z"/>
  <path class="cls-1" d="M98.12,48.78c.26.09.46.32.66.52,1.94,1.85,3.05,4.16,3.68,6.73.3,1.23.48,2.48.27,3.75-.17,1.04-.5,2.01-1.2,2.81-.32.37-.67.74-1.18.82-.17-.17-.09-.29.01-.39.81-.86,1.16-1.92,1.28-3.06.4-3.74-.59-7.09-2.9-10.06-.21-.27-.47-.5-.7-.76-.1-.11-.15-.23.06-.37Z"/>
  <path class="cls-1" d="M94.12,21.93c.35-.18.55.08.75.22,1.32.92,2.25,2.15,2.8,3.67.57,1.59.6,3.25.48,4.9-.14,1.88-.6,3.67-1.62,5.28-.14.22-.24.49-.5.59-.26-.14-.14-.29-.07-.42,1.39-2.45,1.61-5.1,1.25-7.82-.28-2.12-1.18-4-2.55-5.64-.2-.24-.47-.43-.55-.78Z"/>
  <path class="cls-1" d="M84.87,44.21c-.08.25-.26.21-.42.2-2.12-.02-3.73,1.01-5.06,2.54-1.1,1.27-1.92,2.75-2.82,4.16-.58.91-1.15,1.82-1.73,2.73-.09.14-.17.34-.4.29-.15-.13-.06-.25,0-.37,1.23-2.33,2.4-4.7,3.82-6.93.51-.8,1.1-1.53,1.89-2.07,1.23-.83,2.56-1.24,4.04-.9.24.06.56.04.67.34Z"/>
  <path class="cls-1" d="M79.15,37.76c-.37-.06-.31-.31-.36-.49-.87-3.33-2.98-5.51-6.19-6.64-.76-.27-1.55-.4-2.37-.36-.83.04-1.57.28-2.21.82-.1.09-.22.17-.33.25-.01,0-.04,0-.12,0-.08-.55.19-.94.59-1.26.91-.72,1.98-.94,3.11-.82,1.48.15,2.77.8,3.95,1.66,2.06,1.51,3.45,3.47,3.92,6.01.05.26.14.53.01.83Z"/>
  <path class="cls-1" d="M89.27,25.05c.27-.18.47-.02.66.07,1.35.63,2.33,1.62,2.89,2.99.49,1.18.65,2.44.66,3.71.01,2.22-.32,4.39-1.06,6.49-.12.35-.29.68-.43,1.01-.05.12-.14.17-.28.17-.18-.24,0-.44.07-.64.85-2.62,1.13-5.3.74-8.02-.31-2.1-1.23-3.93-2.89-5.33-.14-.11-.31-.21-.35-.47Z"/>
  <path class="cls-1" d="M71.15,61.98c-.22-.34-.02-.45.11-.56,1.69-1.34,3.58-2.12,5.77-2,1.4.08,2.68.61,3.9,1.26,1.24.66,2.36,1.5,3.43,2.4.13.11.32.21.27.43-.17.21-.35.07-.5,0-.75-.35-1.49-.71-2.23-1.08-.92-.46-1.84-.94-2.75-1.42-2-1.05-4.02-.94-6.05-.12-.69.28-1.36.58-1.96,1.09Z"/>
  <path class="cls-1" d="M68.48,43.91c.85.06,1.55.45,2.13,1,1.09,1.01,1.7,2.26,1.71,3.78.03,2.16-.45,4.24-1.02,6.3-.21.77-.47,1.54-.72,2.3-.06.18-.06.42-.31.51-.27-.09-.16-.29-.13-.45.23-1.05.5-2.1.7-3.16.32-1.62.58-3.25.51-4.92-.08-1.98-.91-3.57-2.5-4.76q-.32-.23-.38-.59Z"/>
  <path class="cls-1" d="M94.7,56.67c-.21-.21-.04-.42.02-.63.47-1.7.41-3.36-.28-4.99-.85-1.99-2.25-3.38-4.37-3.98-.53-.15-1.05-.32-1.57-.5-.16-.06-.38-.11-.27-.43.41-.07.83.04,1.25.07,1.13.07,2.23.3,3.21.92.47.3.92.63,1.24,1.08,1.74,2.44,2.32,5.06,1.2,7.93-.08.19-.09.46-.41.52Z"/>
  <path class="cls-1" d="M79.17,33.82c-.21-.03-.23-.18-.29-.3-.3-.68-.68-1.31-1.16-1.86-1.49-1.71-3.09-3.27-5.25-4.12-1.35-.53-2.7-.68-4.08-.13-.14.06-.3.17-.44-.08.13-.29.4-.45.67-.61,1.15-.71,2.38-.76,3.64-.39.67.2,1.27.53,1.84.92,1.76,1.22,3.21,2.73,4.38,4.51.32.48.57,1,.75,1.54.05.16.19.34-.05.52Z"/>
  <path class="cls-1" d="M107.83,43.9c-.19.19-.34.1-.49.05-.87-.3-1.75-.29-2.65-.11-1.42.27-2.8.72-4.16,1.2-1.17.41-2.34.81-3.58.96-.37.04-.73.06-1.1.02-.15-.02-.33-.01-.39-.2,0-.13.07-.19.16-.19,1.67-.05,3.16-.73,4.66-1.36.89-.38,1.77-.76,2.67-1.11,1.09-.41,2.22-.57,3.37-.27.72.19,1.15.49,1.5,1.02Z"/>
  <path class="cls-1" d="M90.03,30.02c-.21.17-.32.13-.43.09-1.7-.6-3.21-.13-4.61.85-.92.64-1.62,1.48-2.19,2.44-.81,1.36-1.53,2.77-2.41,4.09-.14.21-.23.5-.52.52-.14-.09-.13-.19-.09-.27.85-1.39,1.5-2.89,2.24-4.34.77-1.49,1.76-2.8,3.16-3.75,1.27-.86,2.63-1.03,4.04-.33.32.16.61.37.81.7Z"/>
  <path class="cls-1" d="M88.81,27.57c-.22.3-.43.17-.62.14-.73-.1-1.46-.13-2.2-.09-.47.03-.89.18-1.29.42-1.03.62-1.77,1.52-2.4,2.52-.86,1.37-1.5,2.84-1.96,4.39-.06.21-.04.46-.3.61-.29-.19-.15-.46-.11-.67.18-1,.46-1.97.83-2.91.52-1.31,1.17-2.55,2.06-3.64,1.39-1.69,2.84-2.1,4.9-1.36.38.14.77.27,1.09.6Z"/>
  <path class="cls-1" d="M98.51,35.07c-.2-.25-.01-.45.06-.65.38-1.13.74-2.27,1.02-3.43.5-2.04.39-4.05-.21-6.05-.19-.64-.41-1.27-.59-1.9-.07-.23-.21-.46-.11-.72.24-.12.33.07.44.21,1.46,1.98,2.05,4.16,1.64,6.61-.33,1.99-1.06,3.84-1.91,5.65-.06.12-.1.27-.33.28Z"/>
  <path class="cls-1" d="M105.82,63.77c-.29-.22-.16-.48-.16-.72,0-3.74-.8-7.24-3-10.34-.2-.28-.41-.55-.62-.83-.07-.1-.09-.21.06-.34.37.11.58.46.83.73,1.29,1.47,2.23,3.14,2.91,4.97.46,1.24.8,2.49.74,3.83-.03.72-.14,1.42-.38,2.09-.07.21-.1.46-.38.61Z"/>
  <path class="cls-1" d="M79.1,30.66c-.31.04-.34-.11-.38-.24-.27-.95-.81-1.75-1.4-2.52-.36-.47-.75-.93-1.13-1.39-.86-1.05-1.98-1.68-3.29-2.03-1.12-.3-2.25-.45-3.4-.48-.21,0-.47.09-.64-.19.1-.24.34-.26.55-.33,2.57-.76,5.21,0,7.02,2.13.8.95,1.51,1.97,2.08,3.08.31.61.59,1.23.59,1.95Z"/>
  <path class="cls-1" d="M70.74,37.78c1.28-1.06,3.31-.96,4.54.19.75.7,1.18,1.57,1.32,2.58.17,1.22,0,2.43-.18,3.63-.09.64-.24,1.26-.37,1.89-.03.17-.03.39-.3.38-.2-.12-.13-.32-.15-.49-.12-1.28-.05-2.57,0-3.85.01-.44,0-.87,0-1.31.03-1.88-1.55-3.72-4.02-3.08-.24.06-.49.25-.84.06Z"/>
  <path class="cls-1" d="M78.32,40.14c-.28-.12-.21-.33-.24-.5-.35-1.96-1.15-3.67-2.67-5.01-.3-.26-.61-.48-.95-.68-.71-.42-1.46-.5-2.26-.3-.56.15-1.08.38-1.62.57-.32.11-.63.27-.96.24-.15-.18-.05-.29.05-.38.47-.44.98-.83,1.54-1.15.95-.54,1.92-.57,2.91-.12,1.46.67,2.5,1.77,3.28,3.14.63,1.12.96,2.33,1.06,3.61.02.22.01.22-.14.58Z"/>
  <path class="cls-1" d="M87.12,24.57c-.11.25-.32.17-.49.19-.87.1-1.71.32-2.51.69-1.35.63-2.35,1.59-2.91,2.98-.48,1.19-.94,2.39-1.42,3.59-.09.21-.09.5-.38.57-.17-.08-.16-.19-.12-.3.41-1.46.76-2.93,1.29-4.35.45-1.19,1.13-2.21,2.19-2.93,1.14-.78,2.39-1.03,3.74-.76.22.04.51.03.61.33Z"/>
  <path class="cls-1" d="M108.45,47.09c-1.18-.95-2.57-.78-3.94-.68-1.56.12-3.06.6-4.57.97-.6.15-1.2.3-1.78.45-.23-.22-.12-.35.09-.42.62-.24,1.24-.47,1.87-.7,1.68-.62,3.38-1.18,5.16-1.42.87-.12,1.69,0,2.46.42.41.23.73.55.87,1.02.03.12.04.22-.16.37Z"/>
  <path class="cls-1" d="M102.26,22.79c.44.14.58.44.73.72.74,1.34.91,2.77.64,4.26-.38,2.15-1.33,4.03-2.67,5.74-.11.14-.19.41-.51.17.35-.66.71-1.31,1.04-1.98.35-.7.62-1.43.83-2.18.21-.73.34-1.48.35-2.24.02-.78-.02-1.56-.09-2.34-.07-.72-.3-1.43-.32-2.16Z"/>
  <path class="cls-1" d="M87.53,34.46c-.37-.12-.61-.36-.95-.37-.58-.02-1.08.14-1.53.49-1.14.88-2.09,1.93-2.96,3.06-.63.82-1.22,1.67-1.83,2.5-.11.15-.17.39-.43.37-.19-.15-.07-.3,0-.43,1.05-2.05,2.28-3.98,3.82-5.7.38-.43.84-.77,1.38-1,.63-.27,1.26-.21,1.87.06.46.21.59.43.62,1.02Z"/>
  <path class="cls-1" d="M107.77,40.02c-.28-1.25-1.18-1.8-2.06-2.38-1.7-1.12-3.57-1.64-5.6-1.56-.43.02-.86.1-1.3.14-.13.01-.28.09-.36-.1,0-.26.24-.24.39-.29,1.64-.49,3.29-.5,4.95-.08.82.21,1.63.48,2.36.92.6.36,1.11.81,1.51,1.39.21.31.37.64.43,1,.05.31.07.63-.33.97Z"/>
  <path class="cls-1" d="M95.31,37.71c.31-.32.69-.33,1.03-.37,1.96-.23,3.89-.04,5.75.66.81.31,1.49.81,1.91,1.59.37.7.43,1.42.05,2.12-.29.01-.3-.16-.31-.32-.06-.94-.61-1.56-1.35-2.04-1.95-1.26-4.12-1.59-6.38-1.53-.18,0-.36.02-.54.01-.03,0-.06-.06-.15-.14Z"/>
  <path class="cls-1" d="M85.99,43.9c.03-.29.21-.32.35-.38,1.75-.68,3.53-.97,5.4-.53,1.37.32,2.36,1.18,3.33,2.11.09.09.09.2,0,.34-.31.06-.6-.1-.89-.23-.57-.25-1.14-.5-1.68-.79-1.75-.93-3.59-1.01-5.5-.62-.31.06-.64.27-1.01.09Z"/>
  <path class="cls-1" d="M96.11,44.52c-.26-.22-.14-.47-.14-.68,0-.89-.25-1.32-1.08-1.64-1.21-.47-2.47-.7-3.78-.58-.64.06-1.28.11-1.9.29-.11.03-.22.06-.35-.04-.03-.34.29-.36.49-.43,1.57-.59,3.19-.83,4.87-.54.74.13,1.39.46,1.92,1.01.7.72.71,1.81-.03,2.61Z"/>
  <path class="cls-1" d="M74.33,102.45c.18-.06.27-.02.35.08.52.69,1.25.71,1.99.56.54-.11.8-.55.76-1.14-.04-.5-.33-.76-.94-.8-.3-.02-.6,0-.89-.02-.72-.07-1.12-.39-1.26-.98-.15-.62.12-1.25.7-1.58.79-.44,1.59-.4,2.36.03.27.15.51.37.52.71-.22.1-.29-.03-.38-.14-.53-.65-1.24-.63-1.95-.48-.42.09-.66.53-.62.96.04.42.28.65.79.7.3.03.6.01.89.03.77.06,1.27.45,1.43,1.08.16.67-.15,1.39-.81,1.74-.81.44-1.64.38-2.44-.05-.26-.14-.48-.35-.52-.72Z"/>
  <path class="cls-1" d="M107.02,22.37c.59,1.8.2,3.44-.53,5.04-.71,1.56-1.9,3.18-2.51,3.39-.15-.17,0-.3.07-.42.39-.62.76-1.26,1.08-1.92.44-.89.75-1.82.92-2.8.17-.93.36-1.85.55-2.77.04-.2.01-.48.42-.52Z"/>
  <path class="cls-1" d="M67.08,103.49c.67-1.79,1.28-3.43,1.89-5.05.23-.14.43-.1.7-.04.61,1.61,1.23,3.26,1.85,4.93-.27.17-.51.1-.77.07-.2-.29-.27-.63-.39-.94-.21-.53-.21-.53-.8-.54-.09,0-.18,0-.28,0-.39.02-.82-.13-1.15.08-.34.21-.33.68-.49,1.03-.1.22-.09.22-.56.45ZM69.98,101.54c-.25-.83-.54-1.56-.92-2.33-.31.82-.59,1.56-.88,2.34.62.04,1.17.05,1.8,0Z"/>
  <path class="cls-1" d="M107.69,49.85c-.42.06-.79-.07-1.17-.13-1.29-.2-2.53-.67-3.83-.81-.85-.09-1.69-.09-2.54-.09-.22,0-.46.11-.65-.09-.04-.24.13-.27.29-.31,1.86-.43,3.73-.45,5.6-.07.7.14,1.34.47,1.93.89.18.13.41.23.38.6Z"/>
  <path class="cls-1" d="M64.56,103.14c0,.17-.02.25-.09.26-1.03.09-2.05.02-3.13.05v-5c.63-.17,2.69-.15,3.18.07-.39.28-.8.11-1.18.15-.39.04-.78-.04-1.2.07-.05.61-.07,1.22.02,1.84.62.27,1.31-.05,2.05.26-.41.27-.73.15-1.03.18-.32.03-.64-.04-1,.06-.13.64-.05,1.29-.05,1.97.83.13,1.64-.02,2.44.1Z"/>
  <path class="cls-1" d="M105.86,98.38c.85-.04,1.67-.09,2.49.04.72.11,1.13.63,1.16,1.33.02.75-.31,1.21-1.02,1.44-.29.09-.58.1-.88.1-.31,0-.63,0-1,0v1.99c-.25.25-.48.14-.75.14v-5.04ZM106.58,98.68c.04.8-.06,1.52.07,2.29.37,0,.7.02,1.04,0,.71-.05.95-.31.97-1.04,0-.18,0-.37-.03-.54-.09-.47-.31-.67-.79-.7-.38-.02-.77,0-1.27,0Z"/>
  <path class="cls-1" d="M85.69,48.51c-.25.05-.38-.14-.55-.25-1.03-.64-2.1-.72-3.22-.29-.99.38-1.89.92-2.68,1.64-.14.13-.23.36-.49.3-.17-.2-.01-.36.09-.49,1-1.32,2.27-2.27,3.85-2.74,1.12-.34,2.57.4,3.04,1.47.06.14.08.26-.04.37Z"/>
  <path class="cls-1" d="M100.29,98.4c.37-.09.64-.09.78.29.57,1.55,1.15,3.09,1.73,4.64-.73.19-.75.18-.99-.43-.38-.97-.38-.98-1.39-.97-.39,0-.78-.05-1.18.06-.04.41-.32.74-.35,1.15-.02.19-.13.35-.46.22.62-1.64,1.24-3.28,1.86-4.95ZM101.23,101.54c-.19-.89-.55-1.8-.89-2.21-.34.71-.58,1.44-.84,2.2.6.06,1.14.05,1.72,0Z"/>
  <path class="cls-1" d="M100.01,42.19c-.2-.06-.27-.16-.31-.27-.24-.72-.79-1.08-1.44-1.38-1.42-.65-2.92-.72-4.44-.66-.45.02-.89.07-1.37.1,0-.41.31-.4.52-.46,1.36-.37,2.74-.5,4.15-.33.71.09,1.4.21,2.01.62.56.37.94.86,1.06,1.54.05.3.05.58-.18.84Z"/>
  <path class="cls-1" d="M76.58,47.31c-.12-.11-.12-.2-.08-.29.59-1.57,1.24-3.1,2.29-4.44.51-.65,1.2-.98,2-1.07.49-.06.95.06,1.3.42-.04.26-.22.23-.37.23-.6,0-1.1.25-1.57.6-.67.5-1.23,1.1-1.68,1.79-.49.75-.94,1.52-1.42,2.27-.11.18-.16.44-.46.48Z"/>
  <path class="cls-1" d="M115.95,103.23c-.42.25-2.29.29-3.2.13v-4.92c.75-.17,2.74-.13,3.2.1-.41.23-.82.11-1.21.13-.39.02-.77,0-1.2,0-.09.68-.07,1.3-.01,1.95.66.18,1.34-.07,2.05.19-.38.32-.73.17-1.04.2-.32.03-.64-.03-1,.05-.11.64-.06,1.29-.02,1.98.82.16,1.65-.06,2.43.19Z"/>
  <path class="cls-1" d="M95.61,99.39c-.26.07-.33-.07-.4-.18-.46-.64-1.12-.67-1.8-.53-.5.1-.76.49-.87.97-.18.77-.17,1.55-.03,2.32.1.52.32.97.88,1.12.63.16,1.23.09,1.73-.4.12-.12.14-.36.46-.3.01.39-.25.61-.52.79-1.17.78-2.92.17-3.34-1.17-.24-.77-.23-1.55.01-2.31.51-1.61,2.52-1.74,3.42-1.07.24.18.44.39.47.74Z"/>
  <path class="cls-1" d="M101.74,50.32c.08-.14.19-.12.31-.09,1.29.31,2.59.59,3.82,1.12.57.24,1.15.49,1.54.99.33.42.61.87.49,1.44-.02.09-.06.17-.21.22-.36-.32-.69-.72-1.11-1.04-1.2-.93-2.58-1.47-3.95-2.05-.23-.1-.47-.19-.69-.3-.12-.06-.25-.13-.19-.3Z"/>
  <path class="cls-1" d="M108.21,36.56c-.27.14-.39-.03-.5-.16-.45-.5-1.02-.85-1.59-1.18-.61-.35-1.26-.55-1.96-.55-.71,0-1.42,0-2.13,0-.17,0-.38.07-.43-.2.02-.04.04-.11.07-.12,1.34-.29,2.68-.64,4.06-.33.9.2,1.68.6,2.17,1.43.21.35.37.72.31,1.12Z"/>
  <path class="cls-1" d="M103.16,32.78c-.03-.22.14-.25.29-.3,1.3-.45,2.62-.8,4.01-.85.63-.02,1.24.05,1.76.43.62.45.78,1.07.44,1.7-.17.02-.24-.1-.3-.23-.19-.48-.6-.66-1.06-.77-1.11-.26-2.23-.2-3.35-.08-.45.05-.91.13-1.36.18-.15.02-.32.1-.44-.08Z"/>
  <path class="cls-1" d="M79.55,29c-.26-.02-.27-.21-.31-.35-.33-1.23-.45-2.48-.28-3.74.13-.96.63-1.66,1.55-2.01.31-.12.65-.21.95,0,.04.21-.1.27-.21.35-.89.67-1.38,1.56-1.54,2.66-.12.84-.09,1.69-.08,2.54,0,.17.09.36-.09.54Z"/>
  <path class="cls-1" d="M84.28,43.15c.16-.45.5-.74.75-1.08.35-.47.58-.99.66-1.56.13-1.02-.68-1.71-1.67-1.45-.15.04-.3.14-.44,0,.17-.76.81-1.16,1.57-.98.96.23,1.58,1.27,1.37,2.38-.24,1.22-1.03,2.06-2.01,2.75-.02.02-.08-.02-.22-.06Z"/>
  <path class="cls-1" d="M82.65,98.74c-.64-.17-1.2.05-1.85-.22.57-.26,1.05-.13,1.5-.15.46-.02.92-.02,1.37,0,.46.02.93-.08,1.37.15-.5.25-1.05.07-1.65.21v4.56c-.28.19-.47.16-.75.07v-4.62Z"/>
  <path class="cls-1" d="M105.38,30.9c-.08-.12-.01-.21.07-.3.53-.6,1.19-1,1.94-1.25.6-.2,1.11-.01,1.48.48-.31.25-2.89,1.04-3.49,1.06Z"/>
</svg>