<?xml version="1.0" encoding="UTF-8"?>
<svg id="Capa_22" data-name="Capa 22" xmlns="http://www.w3.org/2000/svg" viewBox="0 0 177.4 125.4">
  <defs>
    <style>
      .cls-1 {
        fill: #fff;
        stroke-width: 0px;
      }
    </style>
  </defs>
  <g>
    <path class="cls-1" d="M49.49,50.68c-.39-.94-1.1-1.61-1.79-2.25-.18-.16-.35-.33-.52-.5-.91-.91-1.83-1.54-2.88-1.98-.21-.09-.43-.19-.65-.29-.82-.38-1.75-.8-2.79-.8-.88,0-1.32.09-1.75.17-.39.08-.76.15-1.52.15-.82,0-1.22,0-1.63,0-.41,0-.82,0-1.64,0s-1.18-.03-1.58-.07c-.41-.03-.84-.07-1.68-.07-1.18,0-2.19.42-3.16.83l-.27.11c-1.2.5-2.13,1.11-2.93,1.91-.76.76-1.61,1.67-2.11,2.85-.47,1.13-.71,2.31-.71,3.51,0,.78-.04,1.16-.09,1.57-.05.42-.09.85-.09,1.7s.07,1.3.13,1.72c.06.4.12.77.12,1.54,0,.83.01,1.25.03,1.66.01.41.03.81.03,1.61,0,1.21.23,2.34.7,3.46.48,1.14,1.12,2.1,1.96,2.94.69.69,1.4,1.23,2.17,1.64-.25.03-.51.08-.75.17-.52.2-1.02.52-1.42.93-.43.43-.67.98-.85,1.45-.18.49-.36,1.03-.36,1.61s.21,1.06.4,1.49l.05.1c.2.46.42.97.84,1.39.42.42.89.74,1.36.93.37.15.75.18,1.13.18.09,0,.17,0,.26,0,.08,0,.16,0,.24,0h.19c.47,0,.95,0,1.42-.18.46-.18.9-.49,1.35-.94.36-.36.67-.81.92-1.34.11-.24.19-.47.26-.7.04.23.1.47.2.7.23.54.63.93.99,1.3.39.39.82.68,1.34.9.45.19.98.39,1.59.39s1.16-.1,1.63-.31c.53-.23.92-.62,1.27-.97l.02-.02c.31-.31.7-.74.96-1.29.1-.21.17-.43.23-.67.06.24.13.48.23.69.21.45.55.78.85,1.07.06.06.13.12.19.18.34.34.76.72,1.3.95.46.2,1,.41,1.6.41s1.1-.21,1.55-.39l.05-.02c.51-.21.97-.51,1.35-.9.37-.37.66-.82.87-1.37l.02-.06c.17-.44.37-.93.37-1.51,0-.53-.1-1.07-.3-1.61-.2-.52-.51-1.01-.9-1.4-.36-.36-.81-.63-1.42-.85-.22-.08-.46-.14-.69-.19.95-.46,1.72-.99,2.32-1.59.87-.87,1.35-2,1.8-3.1.48-1.16.72-2.29.72-3.47,0-.84-.03-1.27-.07-1.68-.03-.41-.06-.79-.06-1.59,0-.74.09-1.08.2-1.47.11-.42.24-.9.24-1.79,0-.81,0-1.22.01-1.62,0-.41.01-.82.01-1.64,0-1.09-.27-2.29-.81-3.58ZM30.48,77.38c-.19.4-.41.73-.68,1-.33.33-.64.55-.94.67-.25.1-.6.1-.96.09h-.2c-.09,0-.17,0-.26,0-.35,0-.67.01-.9-.08-.32-.13-.66-.36-.96-.67-.25-.25-.41-.62-.58-1.02l-.04-.1c-.15-.35-.3-.68-.3-1,0-.4.14-.82.28-1.18.13-.35.31-.75.57-1.02.28-.28.63-.51.99-.65.28-.11.62-.13.99-.14.07.03.14.04.22.04.3,0,.55.11.78.34.16.16.28.31.35.44.06.12.09.24.09.36,0,.1-.02.19-.04.27-.07.16-.19.34-.38.52-.26.25-.52.38-.8.38-.4,0-.68-.08-.85-.25h0c-.24-.24-.62-.24-.86,0-.12.12-.18.27-.18.43s.06.31.18.43c.43.43,1.02.65,1.71.65.6,0,1.2-.27,1.68-.75.28-.28.5-.6.62-.94.1-.23.15-.46.15-.7.12.18.23.39.33.61.19.46.28.81.28,1.15s-.09.7-.28,1.11ZM31.85,75.38c-.07-.28-.17-.53-.25-.73-.23-.54-.53-1.01-.91-1.38-.07-.07-.15-.14-.23-.21.19,0,.38.01.58.01.75,0,1.11.08,1.5.17.14.03.28.06.45.1-.29.29-.68.73-.93,1.32-.09.23-.16.47-.21.72ZM38.73,77.38c-.14.3-.37.59-.72.95l-.02.02c-.3.3-.58.58-.9.72-.31.14-.7.21-1.14.21-.38,0-.74-.14-1.11-.3-.37-.16-.68-.37-.96-.65-.3-.3-.58-.58-.72-.9-.12-.28-.17-.63-.17-1.14,0-.43.07-.8.21-1.15.06-.15.15-.29.25-.44.05,1.01.68,1.86,1.57,2.22.3.13.61.2.93.2.7,0,1.37-.26,1.83-.71.32-.32.54-.76.64-1.25.04-.15.06-.3.06-.46.09.16.16.32.23.47.16.35.24.71.24,1.11,0,.42-.07.78-.23,1.1ZM34.7,74.57c0-.53.28-.95.75-1.15.21-.01.39-.03.56-.05.06,0,.12-.01.18-.02,0,0,.02,0,.03,0,.17.03.31.08.43.13.31.18.53.48.6.83,0,.08.01.16.01.25,0,.1,0,.19-.02.28-.14.58-.67,1.02-1.29,1.02-.16,0-.31-.03-.45-.09-.18-.08-.33-.21-.44-.32-.24-.24-.36-.54-.36-.9ZM40.29,74.64c-.1.22-.17.46-.23.71-.06-.23-.13-.46-.23-.69-.2-.43-.44-.92-.83-1.33.06,0,.13,0,.19,0,.41.02.83.04,1.66.04.11,0,.22,0,.33-.01-.43.44-.71.84-.9,1.27ZM45.39,73.56c.44.16.76.34.98.57.27.27.49.61.62.97.15.4.22.79.22,1.18,0,.35-.14.7-.28,1.07l-.03.06c-.16.4-.35.7-.6.96-.28.28-.59.49-.95.63l-.05.02c-.38.15-.73.3-1.08.3-.37,0-.74-.15-1.12-.31-.35-.15-.65-.42-.92-.69-.07-.07-.14-.13-.2-.2-.25-.23-.48-.46-.59-.7-.15-.32-.22-.71-.22-1.14,0-.4.08-.8.23-1.15.08-.19.21-.39.38-.6,0,.38.12.76.33,1.1.11.2.24.38.41.55.15.15.32.27.49.38.39.26.79.39,1.21.39.65,0,1.26-.25,1.7-.69.12-.12.18-.27.18-.43s-.06-.31-.18-.43c-.24-.24-.62-.24-.86,0-.18.18-.46.27-.84.27-.22,0-.41-.06-.55-.14-.09-.06-.18-.14-.27-.23-.09-.09-.16-.17-.22-.26-.08-.16-.12-.35-.12-.55,0-.5.24-.91.63-1.1.12-.01.25-.01.39,0h.15c.41,0,.8.07,1.16.2ZM49.06,55.89c0,.41-.01.82-.01,1.64,0,.74-.09,1.08-.2,1.47-.11.42-.24.9-.24,1.79,0,.84.03,1.27.07,1.68.03.41.06.79.06,1.59,0,1.02-.2,2-.63,3.01-.43,1.03-.83,2-1.54,2.7-.63.63-1.51,1.18-2.66,1.66-1.18.49-2.15.72-3.05.72-.8,0-1.19-.02-1.6-.04-.41-.02-.83-.04-1.66-.04-.24,0-.46,0-.67.01-.01,0-.03,0-.04-.01-.06-.01-.12-.02-.17-.02-.05,0-.09.01-.13.02-.52-.03-1.45.03-1.92.15-.1,0-.21,0-.33,0-.75,0-1.11-.08-1.5-.17-.41-.1-.89-.21-1.77-.21-1.24,0-2.17-.16-3.02-.51-.91-.38-1.74-.95-2.53-1.74-.73-.73-1.28-1.56-1.69-2.55-.4-.97-.6-1.95-.6-2.99,0-.83-.01-1.25-.03-1.66-.01-.41-.03-.81-.03-1.61,0-.86-.07-1.3-.13-1.72-.06-.4-.12-.77-.12-1.54s.04-1.16.09-1.57c.05-.42.09-.85.09-1.7,0-1.03.21-2.06.62-3.04.41-.98,1.13-1.75,1.84-2.46.69-.69,1.49-1.21,2.54-1.65l.27-.11c.9-.38,1.75-.74,2.69-.74.79,0,1.18.03,1.58.07.41.03.84.07,1.68.07s1.22,0,1.63,0c.41,0,.82,0,1.64,0,.88,0,1.32-.09,1.75-.17.39-.08.76-.15,1.52-.15s1.51.34,2.29.69c.23.1.46.21.68.3.9.38,1.7.92,2.49,1.72.18.18.36.35.55.52.62.58,1.21,1.13,1.5,1.83.47,1.13.71,2.18.71,3.11,0,.81,0,1.22-.01,1.62Z"/>
    <path class="cls-1" d="M46.92,60.89c0-.87,0-1.3,0-1.73,0-.43,0-.86,0-1.72s-.05-1.35-.1-1.79c-.05-.43-.1-.83-.1-1.66,0-.11,0-.22,0-.33,0-.04,0-.07,0-.11,0-.07-.01-.14-.02-.22,0-.04-.01-.09-.02-.13,0-.06-.02-.13-.03-.19,0-.05-.02-.09-.03-.14-.01-.06-.02-.12-.04-.18-.01-.05-.02-.09-.04-.14-.02-.06-.03-.12-.05-.17-.01-.05-.03-.09-.05-.14-.02-.06-.04-.11-.06-.17-.02-.05-.04-.09-.05-.14-.02-.06-.04-.11-.07-.16-.02-.05-.04-.09-.06-.13-.01-.03-.02-.05-.04-.08-.02-.11-.08-.22-.16-.31,0-.02-.02-.04-.03-.05-.58-1-1.23-1.7-1.99-2.14-.06-.04-.13-.07-.19-.1-.02-.01-.04-.02-.06-.03-.05-.02-.09-.04-.14-.06-.03-.01-.06-.02-.09-.03-.04-.02-.09-.03-.13-.05-.03-.01-.07-.02-.1-.03-.04-.01-.07-.02-.11-.03-.09-.04-.19-.07-.28-.11-.07-.03-.14-.06-.21-.08-.11-.03-.21-.06-.32-.09-.07-.02-.13-.04-.2-.05-.11-.03-.23-.04-.34-.06-.06,0-.11-.02-.17-.03-.17-.02-.34-.03-.5-.03-.86,0-1.29,0-1.72-.02-.08,0-.17,0-.26,0-.17,0-.35,0-.56,0-.09,0-.18-.01-.28-.02-.05,0-.1,0-.15,0-.15,0-.31,0-.48,0-.88,0-1.32.02-1.75.04-.44.02-.85.03-1.7.03-.19,0-.37,0-.52,0-.45,0-.76,0-1.05,0h-.13c-.43-.02-.88-.04-1.75-.04-.09,0-.18,0-.27.02-.03,0-.06,0-.09.01-.06,0-.12.02-.19.03-.05,0-.11.01-.16.02-.04,0-.09,0-.13.02-.06,0-.11.02-.17.03-.05,0-.1.02-.14.02-.05.01-.1.02-.16.04-.05.01-.1.02-.15.03-.05.01-.1.03-.15.04-.05.01-.1.03-.15.04-.05.02-.1.03-.14.05-.05.02-.1.03-.15.05-.05.02-.1.04-.14.06-.05.02-.09.04-.14.06-.05.02-.1.05-.15.07-.04.02-.08.04-.12.06-.09.05-.18.09-.26.14-.82.48-1.56,1.23-2.07,2.11-.02.04-.04.07-.06.11-.02.04-.04.08-.06.13,0,0,0,0,0,0,0,0,0,0,0,0-.35.71-.53,1.59-.53,2.6,0,.85-.02,1.26-.04,1.7-.02.43-.04.88-.04,1.75v3.45c0,.84-.02,1.25-.05,1.69,0,.07,0,.13-.01.2-.01.2-.02.41-.03.68h0c0,.24-.01.52-.01.88,0,.09,0,.17.01.26,0,.03,0,.05.01.08,0,.06.01.12.02.18,0,.03.01.07.02.1.01.06.02.11.04.17,0,.03.02.07.03.11.01.05.02.09.04.14.01.1.03.19.05.29.01.07.02.15.04.22.02.11.05.2.08.31.02.06.03.13.05.19.03.11.07.21.11.31.02.05.03.1.05.15.06.14.13.28.2.41.53.91,1.46,1.53,2.21,1.96.95.55,1.9.83,2.81.83.09,0,.17,0,.24,0,.03,0,.05,0,.08,0,.05,0,.1,0,.15,0,.02,0,.05,0,.07,0,.04,0,.09,0,.13,0,.03,0,.05,0,.07,0,.04,0,.07,0,.11,0,.02,0,.04,0,.07,0,.03,0,.07,0,.1,0,.02,0,.04,0,.07,0,.03,0,.05,0,.08,0,.03,0,.05,0,.07,0,.02,0,.04,0,.05,0,.03,0,.06,0,.09-.01,0,0,0,0,.01,0,.02,0,.03,0,.05,0,.11,0,.22-.01.33-.02.43-.03.84-.05,1.69-.05.1,0,.19,0,.28,0,.02,0,.04,0,.05,0,.07,0,.13,0,.19,0,.02,0,.04,0,.06,0,.05,0,.11,0,.16,0,.02,0,.03,0,.05,0,.05,0,.1,0,.15,0,.01,0,.03,0,.04,0,.05,0,.09,0,.14,0,.01,0,.03,0,.04,0,.04,0,.08,0,.11,0,.02,0,.05,0,.07,0s.05,0,.07,0c.04,0,.08,0,.12,0h.14c.44.05.89.09,1.78.09.11,0,.21,0,.31,0,.03,0,.06,0,.09,0,.06,0,.13,0,.18,0,.03,0,.06,0,.09,0,.05,0,.11,0,.16,0,.03,0,.05,0,.08,0,.05,0,.09,0,.14,0,.02,0,.05,0,.07,0,.04,0,.09,0,.13,0,.02,0,.04,0,.06,0,.04,0,.09,0,.13,0,0,0,.02,0,.03,0,.09,0,.17-.01.26-.02.08,0,.17.02.26.03.01,0,.03,0,.04,0,.04,0,.08,0,.13.01.02,0,.04,0,.06,0,.04,0,.08,0,.13,0,.03,0,.05,0,.08,0,.04,0,.09,0,.13,0,.03,0,.06,0,.09,0,.05,0,.1,0,.15,0,.03,0,.06,0,.09,0,.06,0,.12,0,.19,0,.03,0,.06,0,.09,0,.1,0,.2,0,.31,0,.12,0,.24,0,.37-.01.04,0,.08,0,.12-.01.08,0,.16-.01.24-.02.05,0,.1-.02.15-.02.07-.01.14-.02.21-.03.05,0,.1-.02.15-.03.06-.01.12-.02.18-.04.08,0,.16-.02.23-.03.06,0,.13-.01.18-.02.09-.01.17-.03.25-.05.05-.01.1-.02.15-.03.09-.02.17-.05.25-.08.04-.01.08-.02.11-.04.11-.05.22-.1.33-.16.78-.46,1.52-1.22,2.06-2.17.04-.07.08-.15.11-.22.01-.02.02-.05.03-.07.02-.05.04-.1.06-.15.01-.03.02-.06.03-.09.02-.04.03-.09.04-.13,0-.03.02-.06.02-.09.01-.04.02-.09.03-.13,0-.03.01-.06.02-.09,0-.04.02-.08.02-.12,0-.03,0-.06.01-.09,0-.04.01-.08.02-.12,0-.03,0-.06,0-.08,0-.04,0-.08.01-.12,0-.03,0-.05,0-.08,0-.02,0-.04,0-.06.02-.05.03-.1.04-.14.01-.05.03-.09.04-.14.02-.06.03-.13.04-.19,0-.04.02-.08.03-.13.01-.07.02-.14.03-.21,0-.03.01-.07.01-.1,0-.1.01-.21.01-.31,0-.16,0-.29,0-.42,0-.12,0-.23,0-.34,0-.03,0-.05,0-.08,0-.07,0-.14,0-.21,0-.04,0-.07,0-.11,0-.05,0-.11,0-.16,0-.04,0-.08,0-.13,0-.03,0-.06,0-.09v-.07c.11-.46.21-.93.21-1.85ZM42.62,51.64c0-.22.09-.43.26-.6.27-.27.4-.42.52-.56.05-.06.1-.11.15-.17,0,0,.01,0,.02.01.09.07.18.14.27.21.02.02.05.04.07.06.09.08.18.17.27.26.01.01.02.02.03.04.08.09.16.18.23.27.02.02.04.05.05.07.08.11.16.22.24.34,0,0,0,.01.01.02-.02.02-.04.03-.05.05-.02.02-.05.04-.07.06-.03.03-.05.05-.08.08-.12.11-.25.23-.46.45,0,0,0,0,0,0-.3.3-.77.34-1.11.12-.03-.05-.06-.09-.1-.13-.16-.16-.25-.37-.25-.59h0ZM27.16,51.39s.04-.04.05-.06c.04-.04.09-.08.13-.12.01-.01.03-.03.04-.04.06-.05.12-.1.19-.15.02-.01.03-.02.05-.04.05-.04.1-.07.15-.11.03-.02.05-.03.08-.05.05-.03.09-.06.14-.09.03-.02.05-.03.08-.05.05-.03.11-.06.16-.1.02-.01.04-.03.07-.04.07-.04.15-.09.22-.13h0s.07.07.11.1c.13.12.26.25.51.5.17.17.25.4.25.62,0,.23-.08.45-.25.62-.03.03-.05.06-.07.09-.34.25-.84.21-1.15-.1-.27-.27-.41-.39-.54-.52-.08-.08-.17-.15-.28-.27.02-.02.04-.04.06-.07ZM44.3,67.21c-.06.08-.11.16-.17.24-.02.02-.04.05-.06.07-.07.08-.13.16-.2.23,0,0-.01.01-.02.02-.07.07-.13.13-.2.19-.02.02-.04.03-.06.05-.08.06-.16.12-.24.17-.08.05-.16.09-.24.13-.03.01-.06.03-.09.04-.05.03-.11.05-.16.07-.04.01-.07.03-.11.04-.05.02-.1.04-.15.06-.04.01-.08.02-.12.04-.04.01-.08.02-.12.04-.1,0-.2,0-.31,0-.02,0-.05,0-.07,0-.14,0-.29,0-.44,0-.13,0-.27,0-.4,0-.11,0-.21,0-.31,0-.03,0-.05,0-.08,0-.07,0-.13,0-.19,0-.02,0-.05,0-.07,0-.06,0-.12,0-.17,0-.02,0-.04,0-.06,0-.05,0-.11,0-.16,0-.02,0-.03,0-.05,0-.05,0-.1,0-.15,0-.01,0-.02,0-.03,0-.16,0-.3.02-.44.03-.02,0-.05,0-.07,0-.02,0-.04,0-.05,0-.03,0-.07,0-.1,0-.03,0-.05,0-.08,0-.03,0-.06,0-.1,0-.03,0-.06,0-.09,0-.03,0-.07,0-.1,0-.03,0-.06,0-.1,0-.04,0-.08,0-.11,0-.03,0-.07,0-.1,0-.04,0-.09,0-.13,0-.04,0-.07,0-.11,0-.05,0-.11,0-.17,0-.03,0-.06,0-.1,0-.1,0-.2,0-.31,0-.88,0-1.33.03-1.77.05h-.13s-.02,0-.03,0c-.03,0-.06,0-.09,0-.02,0-.03,0-.05,0-.03,0-.07,0-.1,0-.02,0-.04,0-.06,0-.03,0-.07,0-.1,0-.02,0-.05,0-.07,0-.04,0-.07,0-.11,0-.03,0-.06,0-.09,0-.04,0-.07,0-.11,0-.04,0-.08,0-.11,0-.04,0-.07,0-.11,0-.05,0-.1,0-.15,0-.03,0-.06,0-.09,0-.09,0-.18,0-.28,0-.91,0-1.37.07-1.82.13-.1.02-.21.03-.32.05-.01,0-.02,0-.04,0-.07,0-.14,0-.23.01,0,0-.01,0-.01,0-.04,0-.07,0-.11,0-.02,0-.04,0-.05,0-.03,0-.06,0-.09,0-.02,0-.05,0-.08,0-.03,0-.06,0-.09,0-.03,0-.07,0-.11,0-.03,0-.05,0-.08,0-.04,0-.09,0-.13,0-.02,0-.05,0-.07,0-.07,0-.15,0-.22,0-.09,0-.18,0-.27-.01-.63-.05-1.27-.26-1.92-.64-.57-.33-1.03-.84-1.51-1.66l-.05-.09s.07-.06.11-.09c0,0,.01,0,.02-.01.04-.03.07-.05.11-.08.01,0,.03-.02.04-.02.04-.02.07-.04.11-.06,0,0,.02,0,.03-.01.05-.02.1-.04.15-.05.01,0,.03,0,.04,0,.04-.01.08-.02.13-.02.02,0,.03,0,.05,0,.06,0,.12-.01.19-.01.67,0,.98.27,1.4.65.48.42,1.08.95,2.21.95s1.66-.37,2.13-.67c.42-.27.75-.48,1.48-.48s1.03.24,1.45.54c.47.35,1.06.78,2.17.78s1.74-.56,2.22-1.02c.42-.4.73-.69,1.39-.69.58,0,.89.22,1.24.55.05.05.1.09.15.15.07.07.15.14.22.21.03.03.06.05.09.08.05.04.1.09.15.13,0,0,0,0,0,0,0,0-.01.02-.02.03ZM45.34,65.1c0,.08,0,.15,0,.23,0,.03-.02.05-.03.08-.04.09-.08.18-.12.28-.02.04-.03.07-.05.11-.05.1-.1.2-.16.3,0,.01-.01.02-.02.04-.01-.01-.03-.02-.04-.04-.07-.07-.15-.14-.23-.21-.48-.46-1.08-1.03-2.23-1.03s-1.74.56-2.22,1.02c-.42.4-.73.69-1.39.69-.7,0-1.03-.24-1.45-.54-.47-.35-1.06-.78-2.17-.78s-1.66.37-2.13.67c-.42.27-.75.48-1.48.48-.67,0-.98-.27-1.4-.65-.48-.42-1.08-.95-2.21-.95-.08,0-.16,0-.23,0-.02,0-.05,0-.07,0-.05,0-.1.01-.15.02-.03,0-.05,0-.08.01-.04,0-.09.02-.13.03-.02,0-.05.01-.07.02-.04.01-.08.02-.12.04-.02,0-.04.01-.06.02-.05.02-.1.04-.14.06,0,0-.02,0-.03.01-.06.03-.11.05-.16.08-.01,0-.03.02-.04.02-.04.02-.07.04-.11.06-.02.01-.03.02-.05.03-.03.02-.06.04-.09.06,0,0-.02.01-.02.02-.03-.06-.05-.12-.07-.18,0-.07-.01-.15-.02-.23,0-.04,0-.09-.01-.13,0-.13-.01-.27-.01-.41,0-.1,0-.19,0-.28,0-.04,0-.07,0-.1,0-.07,0-.13,0-.19,0,0,0,0,0,0,.07-.05.14-.09.21-.14.42-.29.75-.52,1.46-.52s.99.26,1.41.62c.48.41,1.07.91,2.2.91,1.03,0,1.63-.51,2.07-.88l.11-.09c.29-.23.57-.51.87-.81.36-.36.73-.73,1.16-1.06.73-.56,1.4-.81,2.16-.81,1.17,0,2.17.91,2.17,1.97,0,0,0,.02,0,.03,0,0,0,0,0,0,0,0,0,.01,0,.01,0,0,0,0,0,0,0,0,0,0,0,0,0,0,0,0,0,0-.02.54-.63.91-1.18.91-.59,0-1.02-.4-1.02-.94,0-.19.12-.35.23-.41,0,0,0,0,0,0,.29-.17.39-.54.22-.83-.17-.29-.54-.39-.83-.22-.52.3-.84.85-.84,1.47,0,1.23.96,2.16,2.24,2.16,1.15,0,2.14-.77,2.35-1.77.01,0,.02-.02.03-.02.01,0,.03-.02.04-.03.03-.02.06-.04.09-.05.01,0,.02-.01.04-.02.04-.02.09-.05.14-.07,0,0,.01,0,.02,0,.04-.02.08-.03.13-.05.02,0,.03,0,.05-.01.04-.01.08-.02.11-.03.02,0,.04,0,.06-.01.04,0,.09-.01.13-.02.02,0,.04,0,.06,0,.07,0,.14,0,.21,0,.69,0,.99.26,1.42.61.05.04.1.08.15.13.02.01.04.03.05.04.04.03.08.06.12.09.02.02.04.03.07.05.04.03.09.06.14.09.02.01.04.03.06.04.07.04.14.08.21.12.01,0,.02.01.04.02.06.03.13.06.2.09.03.01.05.02.08.03.06.02.12.04.19.06.03,0,.06.02.09.03.02,0,.04.01.06.02v.17c0,.13,0,.26,0,.38,0,.03,0,.07,0,.1ZM45.45,62.93s0,.02,0,.04c-.01.07-.02.15-.03.23,0,0,0,0,0,0,0,0,0,0,0,0-.06-.02-.13-.05-.18-.09-.02,0-.03-.02-.05-.03-.04-.03-.09-.05-.13-.08-.02-.01-.04-.03-.06-.04-.04-.03-.08-.06-.12-.09-.02-.01-.03-.02-.05-.04-.05-.04-.11-.09-.17-.14-.48-.39-1.07-.89-2.2-.89-.5,0-.9.09-1.23.23-.43-1.3-1.74-2.27-3.23-2.27-1.04,0-1.96.34-2.91,1.06-.49.37-.91.79-1.28,1.16-.28.28-.54.54-.78.73l-.13.11c-.38.32-.7.59-1.29.59-.68,0-.99-.26-1.41-.62-.48-.41-1.07-.91-2.2-.91-.12,0-.24,0-.35.02-.03,0-.06,0-.08,0-.1.01-.2.02-.29.04,0,0-.01,0-.02,0-.1.02-.19.04-.27.07-.02,0-.04.01-.07.02-.08.02-.15.05-.22.08,0,0-.02,0-.03,0-.08.03-.15.07-.22.1-.02,0-.04.02-.05.03-.02.01-.04.02-.06.03,0-.09,0-.18,0-.27,0,0,0,0,0,0,0-.04,0-.09,0-.13,0-.04,0-.09,0-.13,0-.02,0-.04,0-.05,0-.07,0-.13,0-.21,0-.02,0-.05,0-.07,0-.06,0-.12,0-.18,0-.02,0-.05,0-.08,0-.09,0-.18,0-.28,0-.1,0-.2,0-.29,0-.04,0-.08,0-.12,0-.05,0-.09,0-.14,0-.05,0-.1,0-.14,0-.03,0-.06,0-.08,0-.05,0-.1,0-.15,0-.02,0-.03,0-.05,0-.05,0-.1,0-.15,0-.01,0-.02,0-.03,0-.05,0-.1,0-.15,0,0,0,0,0-.01,0-.11,0-.21,0-.31.33.01.56.03.8.05.37.03.75.07,1.51.07s1.09,0,1.45.01c.37,0,.73.01,1.47.01s1.09,0,1.46,0c.36,0,.73,0,1.45,0,.76,0,1.15-.05,1.53-.09.36-.04.69-.08,1.38-.08s1.02.05,1.37.1c.38.05.77.11,1.54.11s1.17-.06,1.55-.11c.35-.05.69-.1,1.37-.1s1.03.04,1.38.09c.24.03.49.06.84.08,0,.08,0,.17,0,.26,0,0,0,.01,0,.02,0,.06,0,.12,0,.18,0,.02,0,.05,0,.07,0,.04,0,.08,0,.12,0,.03,0,.06,0,.09,0,.04,0,.08,0,.13,0,.03,0,.07,0,.1,0,.05,0,.11,0,.16,0,.03,0,.06,0,.09,0,.09,0,.18,0,.28,0,.88.03,1.33.05,1.76v.07c0,.07-.02.14-.04.21ZM35.95,55.05c-.99,0-1.9.37-2.56,1.03-.58.58-.94,1.31-1.04,2.09-.21,0-.46,0-.77,0-.36,0-.63,0-.85,0,.07-.77.29-1.49.68-2.15.51-.87,1.14-1.54,1.89-1.97.69-.4,1.55-.59,2.65-.59,1,0,1.85.21,2.62.66.88.51,1.54,1.14,1.97,1.88.37.64.59,1.37.65,2.17-.23.02-.5.04-.87.04-.34,0-.6-.01-.81-.03-.09-.85-.42-1.59-.96-2.13-.64-.64-1.57-1-2.6-1ZM38.26,58.04c-.23-.02-.5-.03-.85-.03-.76,0-1.15.05-1.53.09-.36.04-.69.08-1.38.08-.39,0-.67,0-.91,0,.09-.46.32-.89.66-1.23.44-.44,1.03-.68,1.7-.68.71,0,1.33.23,1.74.64.28.28.48.67.57,1.12ZM45.49,57.67s0,.02,0,.03c0,.06,0,.12,0,.18,0,.01,0,.02,0,.04,0,.05,0,.1,0,.14,0,.02,0,.05,0,.07,0,.02,0,.03,0,.05-.29-.02-.5-.04-.72-.07-.38-.05-.77-.1-1.54-.1-.34,0-.61.01-.83.03-.08-.96-.35-1.84-.81-2.63-.54-.93-1.35-1.71-2.42-2.33-.94-.54-2.02-.82-3.23-.82-1.32,0-2.39.25-3.26.75-.03.02-.05.03-.08.05-.9.54-1.66,1.34-2.26,2.37-.49.85-.77,1.77-.84,2.75-.22,0-.49,0-.84,0-.7,0-1.04-.03-1.4-.06-.26-.02-.53-.05-.92-.06,0,0,0-.02,0-.02,0-.01,0-.03,0-.04,0-.16,0-.33,0-.53,0-.84.03-1.25.07-1.68.04-.44.07-.89.07-1.78,0-.1,0-.21,0-.31,0-.03,0-.06,0-.09,0-.08,0-.15,0-.23,0-.03,0-.06,0-.1,0-.08.01-.16.02-.25,0-.02,0-.04,0-.07.01-.11.03-.21.05-.31.12.11.25.23.49.47.82.82,2.15.84,2.96.03.04-.04.07-.09.1-.14.33-.39.5-.87.5-1.35,0-.54-.2-1.07-.61-1.48-.17-.17-.28-.28-.38-.37,0,0,.01,0,.02,0,.03-.01.06-.03.09-.04.03-.02.07-.03.1-.05.03-.01.06-.03.09-.04.03-.01.06-.03.1-.04.03-.01.06-.02.09-.03.03-.01.06-.02.1-.03.03,0,.06-.02.09-.02.03,0,.06-.02.09-.02.04,0,.08,0,.12,0,.02,0,.05,0,.07,0,.07,0,.13,0,.19,0,.86,0,1.29,0,1.72.01h.14c.38.02.82.03,1.59.03.87,0,1.32-.01,1.75-.03.42-.01.85-.03,1.71-.03.34,0,.61,0,.85,0,.04,0,.08,0,.12.01.03,0,.06,0,.08,0,.05,0,.09.01.13.02.02,0,.04,0,.06,0,.05,0,.1.02.15.03,0,0,.02,0,.03,0,.06.01.12.02.18.03.45.09.92.18,1.87.18.2,0,.39,0,.58,0,.05,0,.09,0,.14,0,.06,0,.12,0,.18,0,.11,0,.21.02.32.03-.09.09-.19.2-.35.37-.41.41-.62.94-.62,1.46,0,.44.15.89.44,1.26.03.08.08.15.14.22,0,0,0,0,0,0,0,0,0,0,0,0,0,0,0,0,0,0,0,0,0,0,0,0,0,0,0,0,0,0,0,0,0,0,0,0h0s0,0,0,0c0,0,0,0,0,0,0,0,0,0,0,0,0,0,0,0,0,0,0,0,0,0,0,0,0,0,0,0,0,0,0,0,0,0,0,0,0,0,0,0,0,0,0,0,0,0,0,0,0,0,0,0,0,0,.12.12.25.22.39.3.69.41,1.57.38,2.24-.08.11-.07.21-.16.3-.25.13-.13.23-.22.31-.3,0,0,0,.02,0,.03,0,.05.02.09.02.14,0,.04.01.08.02.12,0,.05.01.1.02.16,0,.04,0,.08.01.12,0,.06,0,.13.01.19,0,.04,0,.07,0,.11,0,.1,0,.21,0,.32,0,.89.04,1.34.07,1.77.03.43.07.84.07,1.68,0,.08,0,.16,0,.23Z"/>
  </g>
  <g>
    <g>
      <path class="cls-1" d="M62.76,58.38c1.31-.47,2.77.11,4.01,1.6.04.05.1.08.16.08.06,0,.12-.02.17-.07l.33-.34c.07-.07.08-.18.03-.26-.21-.37-1.4-2.19-4.25-2.19s-5.01,2.22-5.01,5.39,2.06,5.39,5.01,5.39c3.11,0,4.23-2.16,4.24-2.18.04-.09.02-.19-.04-.26l-.34-.33s-.1-.06-.16-.06c-.06,0-.12.03-.16.08-1.2,1.44-2.58,1.98-3.89,1.51-1.47-.53-2.5-2.24-2.5-4.15s.97-3.69,2.41-4.21Z"/>
      <path class="cls-1" d="M71.97,58.89c-2.54,0-4.19,1.76-4.19,4.49s1.57,4.5,4.19,4.5,4.19-1.68,4.19-4.5c0-3.31-2.16-4.49-4.19-4.49ZM71.97,67.06c-1.5,0-2.4-1.38-2.4-3.68s.92-3.68,2.4-3.68,2.4,1.41,2.4,3.68-.9,3.68-2.4,3.68Z"/>
      <path class="cls-1" d="M83.76,59.07h-.51c-.12,0-.22.1-.22.22v5.57c0,2-1.97,2.11-2.38,2.11,0,0-.74.05-1.27-.46-.38-.36-.58-.91-.58-1.65v-5.57c0-.12-.1-.22-.22-.22h-2.24c-.12,0-.22.1-.22.22v.06c0,.1.07.19.16.21.54.15.84.46.84.88v4.43c0,.9.28,1.62.83,2.15.87.83,2.15.89,2.51.89.05,0,.09,0,.1,0,3.18,0,3.42-2.33,3.42-3.04v-5.57c0-.12-.1-.22-.22-.22Z"/>
      <path class="cls-1" d="M92.04,59.07h-.51c-.12,0-.22.1-.22.22v5.36l-4.95-4.81s-.03-.03-.03-.03c-.31-.26-.88-.74-1.76-.74-.12,0-.22.1-.22.22v.06c0,.1.06.18.16.21.57.16.82.66.82,1.62v6.34c0,.12.1.22.22.22h.51c.12,0,.22-.1.22-.22v-5.35l5.61,5.51s.1.06.15.06c.03,0,.06,0,.09-.02.08-.03.14-.11.14-.2v-8.23c0-.12-.1-.22-.22-.22Z"/>
      <path class="cls-1" d="M99.56,59.07h-6.69c-.12,0-.22.1-.22.22v.51c0,.12.1.22.22.22h2.51v7.5c0,.12.1.22.22.22h1.24c.12,0,.22-.1.22-.22v-7.5h2.5c.12,0,.22-.1.22-.22v-.51c0-.12-.1-.22-.22-.22Z"/>
      <path class="cls-1" d="M105.11,63.83c1.04-.37,1.57-1.12,1.57-2.23s-.53-1.85-1.58-2.22c-.83-.3-1.83-.3-2.49-.3h-2.29c-.12,0-.22.1-.22.22v.06c0,.11.08.21.19.22.53.07.81.49.81.88v7.07c0,.12.1.22.22.22h1.24c.12,0,.22-.1.22-.22v-3.48c.18,0,.38,0,.59,0l2.55,3.61c.04.06.11.09.18.09h1.39c.08,0,.16-.05.2-.12.04-.07.03-.16-.02-.23l-2.56-3.56ZM104.87,62.12c-.03.15-.08.27-.14.39-.03.08-.09.17-.16.25,0,0,0,0,0,0-.06.07-.12.12-.2.18-.14.09-.32.15-.52.18-.14.02-.27.03-.41.03h-.67v-3.26h.67c.14,0,1.41.05,1.47,1.69,0,.21-.01.39-.04.52Z"/>
      <path class="cls-1" d="M115.15,59.07h-.6c-.08,0-.15.04-.19.1l-2.43,3.82c-2.07-3.11-2.13-3.2-2.13-3.2h0c-.33-.45-.86-.72-1.41-.72h-1.23c-.12,0-.22.1-.22.22v.06c0,.1.07.19.17.22l.19.04c.13.04.26.1.38.18.12.09.22.2.3.31l2.74,4.09v3.34c0,.12.1.22.22.22h1.24c.12,0,.22-.1.22-.22v-3.49l2.93-4.62c.04-.07.05-.15,0-.22-.04-.07-.11-.11-.19-.11Z"/>
      <path class="cls-1" d="M128.94,59.2c-.04-.08-.11-.13-.2-.13-.09.02-.17.05-.2.13l-3.4,7.59s0,0,0,0h-3.94v-7.5c0-.12-.1-.22-.22-.22h-2.11c-.12,0-.22.1-.22.22v.06c0,.1.07.19.16.21.38.11.83.34.83.88v7.08c0,.12.1.22.22.22h5.76c.09,0,.17-.05.2-.13l.64-1.42h3.86l.65,1.42c.04.08.11.13.2.13h1.36c.08,0,.14-.04.19-.1.04-.06.05-.14.01-.21l-3.78-8.23ZM126.83,65.32l1.52-3.38,1.55,3.38h-3.07Z"/>
      <path class="cls-1" d="M141.4,67.25l-.09-.02c-.18-.05-.36-.12-.53-.22-.15-.08-.3-.19-.43-.32l-3.88-3.76,3.57-3.47c.06-.06.08-.16.05-.24-.03-.08-.11-.14-.2-.14h-.72c-.06,0-.11.02-.15.06l-3.72,3.61v-3.46c0-.12-.1-.22-.22-.22h-2.24c-.12,0-.22.1-.22.22v.06c0,.1.07.19.16.21.38.1.84.34.84.88v7.08c0,.12.1.22.22.22h1.24c.12,0,.22-.1.22-.22v-3.55c2.26,2.19,2.92,2.83,3.15,3.02h-.01c.47.48,1.13.75,1.82.75h1.1c.12,0,.22-.1.22-.22v-.06c0-.1-.07-.19-.17-.22Z"/>
      <path class="cls-1" d="M147.86,59.07h-6.18c-.12,0-.22.1-.22.22v.06c0,.1.07.19.16.21.54.15.84.46.84.88v7.08c0,.12.1.22.22.22h5.18c.12,0,.22-.1.22-.22v-.43c0-.12-.1-.22-.22-.22h-3.72v-3.17h3.07c.12,0,.22-.1.22-.22v-.51c0-.12-.1-.22-.22-.22h-3.07v-2.82h3.72c.12,0,.22-.1.22-.22v-.43c0-.12-.1-.22-.22-.22Z"/>
      <path class="cls-1" d="M152.57,61.41c-1.13-.58-2.41-1.23-2.41-2.15,0-.76.84-1.36,1.57-1.36,1.22,0,2,.59,2.32,1.77.03.1.11.16.21.16h.5c.07,0,.13-.03.17-.08.04-.05.06-.12.05-.18-.34-1.8-1.41-2.68-3.26-2.68-.89,0-3.2.52-3.2,2.89,0,1.85,1.83,2.79,2.93,3.35l.05.03c1.72.89,2.44,1.41,2.44,2.33,0,.01-.02,1.43-1.81,1.43-.38,0-2.28-.1-2.6-2.15-.02-.11-.11-.19-.22-.19h-.46c-.06,0-.12.03-.17.08-.04.05-.06.11-.05.18.29,2.09,1.49,3.11,3.66,3.11,2.51,0,3.42-1.82,3.42-3.04,0-1.42-.82-2.34-3.14-3.49Z"/>
    </g>
    <g>
      <path class="cls-1" d="M99.28,72.31c.12-.05.22-.09.32-.13.1-.04.19-.07.27-.1.09-.03.17-.06.26-.08.09-.03.19-.05.29-.08.07-.02.12-.05.15-.1.03-.04.05-.1.05-.15,0-.08-.04-.17-.11-.26-.08-.09-.19-.17-.35-.22l-.95.87s-.04.06-.04.1c0,.02,0,.05.02.08.01.03.04.06.09.1Z"/>
      <path class="cls-1" d="M95.13,72.65s-.08.01-.1.05l-1.67,3.07-.96-1.82s-.05-.09-.08-.14c-.21-.41-.53-1.04-1.31-1.06-.02,0-.05,0-.07.03-.02.02-.03.04-.03.07v.03s.03.09.08.1c.51.12.43.9.39,1.27l-.3,2.66s0,.06.02.08c.02.02.05.03.07.03h.26c.05,0,.09-.04.1-.09l.27-2.35,1.27,2.38s.05.05.09.05h0s.07-.02.09-.05l1.41-2.6.45,2.57s.05.08.1.08h.61s.04,0,.05,0c.05-.01.08-.06.07-.11l-.72-4.16s-.04-.07-.08-.08Z"/>
      <path class="cls-1" d="M101.17,72.65h-3.13c-.06,0-.1.04-.1.1v.03s.03.08.07.1c.28.08.43.24.43.46v3.58c0,.05.04.1.1.1h2.62c.06,0,.1-.04.1-.1v-.22c0-.05-.04-.1-.1-.1h-1.9v-1.63h1.57c.06,0,.1-.04.1-.1v-.26c0-.05-.04-.1-.1-.1h-1.57v-1.45h1.9c.06,0,.1-.04.1-.1v-.22c0-.05-.04-.1-.1-.1Z"/>
      <path class="cls-1" d="M105.98,75.04c.53-.18.8-.56.8-1.13s-.27-.93-.79-1.11c-.42-.15-.93-.15-1.26-.15h-1.16c-.06,0-.1.04-.1.1v.03c0,.05.04.09.09.1.28.03.42.26.42.46v3.58c0,.05.04.1.1.1h.63c.06,0,.1-.04.1-.1v-1.77c.1,0,.2,0,.32,0l1.29,1.83s.05.04.08.04h.71s.07-.02.09-.05c.02-.03.01-.07,0-.1l-1.31-1.81ZM105.89,74.18c-.02.08-.04.14-.07.2-.02.04-.05.09-.08.13-.03.03-.06.06-.11.1-.07.04-.16.08-.27.09-.07.01-.14.02-.21.02h-.35v-1.67h.35c.07,0,.73.02.75.87,0,.11,0,.2-.02.27Z"/>
      <path class="cls-1" d="M110.47,72.65h-1.08c-.06,0-.1.04-.1.1v.03s.03.08.07.1c.2.05.43.18.43.46v3.58c0,.05.04.1.1.1h.57c.06,0,.1-.04.1-.1v-4.16c0-.05-.04-.1-.1-.1Z"/>
      <path class="cls-1" d="M114.73,72.65s-.02,0-.03,0h-1.83c-.06,0-.1.04-.1.1v.03c0,.05.04.09.09.1.27.03.42.25.42.45v3.58c0,.05.04.1.1.1h1.33s.03,0,.04,0c.26,0,1.17-.05,1.77-.64.38-.37.58-.89.58-1.54s-.19-1.18-.57-1.55c-.57-.57-1.42-.63-1.8-.63ZM115.75,76.2c-.26.26-.63.4-1.06.4h-.6v-3.54h.6c.98,0,1.5.61,1.5,1.78,0,.61-.15,1.07-.44,1.37Z"/>
      <path class="cls-1" d="M121.07,72.71s-.05-.06-.09-.06h0s-.07.02-.09.06l-1.87,4.16s-.01.07,0,.1.05.05.08.05h.28s.07-.02.09-.06l.33-.73h1.97l.33.73s.05.06.09.06h.69s.07-.02.08-.05c.02-.03.02-.06,0-.1l-1.91-4.16ZM120,75.81l.79-1.75.8,1.75h-1.59Z"/>
    </g>
  </g>
</svg>