<?xml version="1.0" encoding="UTF-8"?>
<svg id="Capa_4" data-name="Capa 4" xmlns="http://www.w3.org/2000/svg" viewBox="0 0 177.4 125.4">
  <defs>
    <style>
      .cls-1 {
        fill: #fff;
        stroke-width: 0px;
      }
    </style>
  </defs>
  <path class="cls-1" d="M81.98,75.46h-1.67c.29.3.44.71.44,1.13v1.21h-2.14v-1.21c0-.42.16-.82.44-1.13h-1.67c.28.31.44.71.44,1.13v3.21c0,.42-.16.82-.44,1.12h1.67c-.29-.3-.44-.71-.44-1.13v-1.59h2.14v1.59c0,.42-.16.82-.44,1.13h1.67c-.28-.3-.44-.7-.44-1.12v-3.23c0-.41.15-.81.44-1.12Z"/>
  <path class="cls-1" d="M85.75,76.81h-.47l-1.21,3.07c-.15.39-.39.75-.68,1.05h1.34c-.25-.28-.32-.68-.18-1.02l.05-.12h1.48l.05.12c.13.35.06.74-.18,1.02h1.67c-.29-.3-.52-.66-.67-1.05l-1.2-3.08ZM84.75,79.41l.61-1.54.58,1.54h-1.19Z"/>
  <path class="cls-1" d="M71.83,76.81h-.47l-1.2,3.06c-.15.39-.39.75-.68,1.05h1.32c-.25-.28-.32-.68-.18-1.02l.05-.12h1.48l.05.12c.14.35.07.74-.18,1.02h1.67c-.29-.3-.52-.66-.67-1.05l-1.18-3.07ZM70.83,79.41l.6-1.55.58,1.54h-1.18Z"/>
  <path class="cls-1" d="M88.71,77.7c.34-.33.8-.52,1.27-.52h.03v2.66c0,.4-.15.79-.43,1.08h1.59c-.27-.29-.42-.68-.42-1.08v-2.67h.03c.47,0,.93.19,1.27.52v-.88h-3.33v.88Z"/>
  <path class="cls-1" d="M94.16,77.89v1.96c0,.4-.15.79-.43,1.08h1.59c-.27-.29-.42-.68-.42-1.08v-.95h.32c.37,0,.72.14.99.39v-1.15c-.27.25-.62.39-.99.38h-.32v-1.35h.49c.49,0,.95.18,1.3.52v-.87h-2.97c.28.29.43.67.44,1.07Z"/>
  <path class="cls-1" d="M99.78,76.81h-1.59c.27.29.42.68.42,1.08v1.97c0,.4-.15.79-.42,1.08h1.59c-.27-.29-.42-.68-.42-1.08v-1.97c0-.4.15-.79.42-1.08Z"/>
  <path class="cls-1" d="M101.97,77.89v1.96c0,.4-.15.79-.43,1.08h2.97v-.89c-.35.33-.82.51-1.3.52h-.49v-1.64h.32c.37,0,.72.14.99.39v-1.15c-.27.25-.62.38-.99.38h-.32v-1.35h.51c.49,0,.95.18,1.3.52v-.88h-2.97c.27.29.41.68.41,1.07Z"/>
  <path class="cls-1" d="M107.41,80.55v-2.67c0-.4.15-.79.42-1.08h-1.59c.28.29.43.68.43,1.09v1.96c0,.4-.16.79-.43,1.08h2.81v-.89c-.36.33-.83.52-1.32.52h-.32Z"/>
  <path class="cls-1" d="M112.38,76.81h-1.95c.28.29.43.68.43,1.09v1.96c0,.4-.16.79-.43,1.08h1.95c1.12-.02,2.01-.94,2-2.06.03-1.11-.85-2.04-1.96-2.07-.01,0-.03,0-.04,0ZM112.21,80.56h-.6v-3.37h.6c.87,0,1.27.88,1.27,1.69s-.41,1.67-1.27,1.67h0Z"/>
  <path class="cls-1" d="M119.88,75.39c-1.45,0-2.35,1.46-2.35,2.81,0,1.76,1.2,2.81,2.35,2.81.48.03.95-.08,1.37-.32v-1.07l-.71.71c-.17.18-.41.28-.65.27-1,0-1.36-1.24-1.36-2.41,0-.72.13-2.41,1.36-2.41.25,0,.49.09.65.27l.71.71v-1.06h-.02c-.41-.24-.88-.35-1.35-.31Z"/>
  <path class="cls-1" d="M125.01,76.72c-1.19.08-2.08,1.1-2,2.29.07,1.08.93,1.93,2,2,1.25,0,2-1.09,2-2.14s-.75-2.15-2-2.15ZM125.01,80.63c-.32,0-1.1-.17-1.1-1.76s.77-1.77,1.1-1.77,1.09.17,1.09,1.77-.76,1.76-1.09,1.76h0Z"/>
  <path class="cls-1" d="M133.66,76.81h-1.14l-1.22,1.91-1.22-1.91h-1.34c.28.29.43.68.43,1.09v1.95c0,.4-.15.79-.43,1.09h1.32c-.26-.29-.41-.66-.4-1.05v-2.31l1.42,2.23,1.43-2.23v2.28c0,.4-.15.79-.42,1.08h1.59c-.27-.29-.42-.68-.42-1.08v-1.97c0-.4.15-.78.42-1.08Z"/>
  <path class="cls-1" d="M138.55,77.1c-.37-.21-.79-.32-1.21-.32h-1.78c.28.29.43.68.43,1.09v1.96c0,.4-.16.79-.43,1.08h1.59c-.27-.36-.42-.79-.43-1.24v-.48h.6c.42,0,.84-.11,1.21-.32.49-.24.7-.83.47-1.32-.1-.2-.26-.37-.47-.47v.02ZM137.34,78.82h-.6v-1.64h.6c.45-.06.87.26.92.72s-.26.87-.72.92c-.07,0-.14,0-.2,0Z"/>
  <path class="cls-1" d="M142.38,76.81h-.47l-1.22,3.07c-.15.39-.39.75-.68,1.05h1.34c-.25-.28-.32-.67-.18-1.02l.05-.12h1.48l.05.12c.14.35.06.74-.18,1.02h1.67c-.29-.3-.52-.66-.67-1.05l-1.19-3.08ZM141.37,79.4l.61-1.54.58,1.54h-1.19Z"/>
  <path class="cls-1" d="M148.75,77.87v1.59l-1.89-2.65h-1.21c.28.29.43.68.43,1.09v1.95c0,.4-.15.79-.43,1.09h1.33c-.27-.29-.41-.66-.41-1.06v-2.16l.04.06,2.64,3.59v-3.5c0-.4.15-.78.41-1.07h-1.32c.27.29.41.67.41,1.07Z"/>
  <path class="cls-1" d="M153.67,77.77l-.5.81-.52-.81c-.19-.3-.16-.69.07-.95h-1.65l.12.12c.21.21.39.43.55.68l.91,1.41v.83c0,.4-.16.79-.43,1.09h1.59c-.27-.29-.42-.68-.42-1.08v-.83l.77-1.23c.22-.36.48-.69.78-.99h-1.34c.23.27.26.65.09.95Z"/>
  <path class="cls-1" d="M81.4,62.58c0-3.86-2.46-7.54-6.16-7.54h-5.89c.8.84,1.24,1.95,1.24,3.11v8.87c0,1.16-.44,2.28-1.24,3.12h5.9c3.7,0,6.16-3.69,6.16-7.55ZM74.72,68.9h-1.95v-12.63h1.95c2.75,0,3.97,3.35,3.97,6.31s-1.23,6.32-3.97,6.32h0Z"/>
  <path class="cls-1" d="M85.45,70.14h9.01v-2.54c-1.05.96-2.42,1.49-3.84,1.49h-1.74v-5.36h1.15c1.08,0,2.11.4,2.91,1.12v-3.29c-.8.72-1.84,1.12-2.91,1.12h-1.15v-4.43h1.74c1.42,0,2.79.53,3.84,1.49v-2.54h-9.01c.79.71,1.24,1.73,1.24,2.79v7.35c0,1.07-.45,2.08-1.24,2.8Z"/>
  <path class="cls-1" d="M98.52,70.14h8.5v-2.54c-1.05.96-2.42,1.49-3.84,1.49h-1.23v-9.1c0-1.06.45-2.08,1.24-2.79h-4.67c.79.71,1.24,1.73,1.24,2.79v7.35c0,1.07-.45,2.08-1.24,2.8Z"/>
  <path class="cls-1" d="M125.53,55.04h-3.39l-3.82,7.19-3.82-7.19h-4.01c.8.84,1.24,1.95,1.24,3.1v8.88c0,1.16-.44,2.28-1.24,3.12h3.88c-.8-.84-1.24-1.95-1.24-3.11v-9.48l4.48,8.39,4.48-8.39v9.47c0,1.16-.44,2.28-1.24,3.12h4.68c-.8-.84-1.24-1.95-1.24-3.11v-8.89c0-1.16.45-2.27,1.24-3.1Z"/>
  <path class="cls-1" d="M131.27,67.49l.38-1.03h4.7l.38,1.03c.35.93.09,1.97-.64,2.63h4.87c-.83-.75-1.47-1.69-1.87-2.73l-3.87-10.2h-1.34l-3.97,10.21c-.4,1.05-1.05,1.99-1.88,2.74h3.87c-.74-.66-1-1.71-.65-2.64ZM134.04,60.24l1.93,5.17h-3.9l1.97-5.17Z"/>
  <path class="cls-1" d="M153.64,68.08l-2.6-4.27c1.59-.46,2.68-1.73,2.68-3.07,0-2.23-2.54-3.55-4.97-3.55h-4.87c.79.71,1.24,1.73,1.24,2.79v7.35c0,1.07-.45,2.08-1.24,2.8h4.68c-.79-.71-1.24-1.72-1.24-2.79v-3.16h1.61l3.43,5.95h3.09l-.44-.39c-.54-.49-1-1.05-1.37-1.67ZM148.75,63.14h-1.44v-4.9h1.44c1.35,0,2.45,1.09,2.45,2.44,0,1.35-1.09,2.45-2.44,2.45h0Z"/>
  <path class="cls-1" d="M30.73,61.89h-.03l-.03.02s.04.01.05,0h0v-.02Z"/>
  <path class="cls-1" d="M30.96,61.65h0s0,.02,0,.03c0,0,0,.01,0,.02.01-.01.01-.03,0-.04,0,0,0,0,0,0Z"/>
  <path class="cls-1" d="M30.9,61.68s.03.01.04,0c0,0,0,0,0,0h0s0-.01,0-.02c0,0,0-.02,0-.03l-.05.04Z"/>
  <path class="cls-1" d="M30.94,61.69s0-.01,0-.02c0,0,0,.01,0,.02h0Z"/>
  <path class="cls-1" d="M41.93,74.51s0-.03-.03-.03h0s.03.01.03.03Z"/>
  <path class="cls-1" d="M41.91,74.56s.03-.03.03-.04c0-.02-.02-.03-.03-.03v.07Z"/>
  <path class="cls-1" d="M41.9,74.48h0s.03.01.03.03h0s-.02-.03-.03-.03Z"/>
  <path class="cls-1" d="M42.24,75.02h0s.03,0,.04,0h0s-.03,0-.04,0Z"/>
  <path class="cls-1" d="M42.29,75.02h0s-.03,0-.04,0l.05.05h0s0-.04-.01-.05Z"/>
  <path class="cls-1" d="M43.92,70.27v-10.58h-1.36v6.53h-2.38v1.37h2.38v2.7c0,.69-.23,1.36-.64,1.91h2.6c-.4-.56-.62-1.23-.61-1.92Z"/>
  <path class="cls-1" d="M33.52,67.59h4.63v2.7c0,.69-.23,1.36-.64,1.91h2.6c-.41-.55-.63-1.22-.64-1.91v-15.8h1.88c.64,0,1.17.52,1.17,1.17v2.08h-2.35v1.36h6.79v7.12h-2.37v1.37h2.37v2.7c0,.69-.22,1.35-.62,1.91h2.6c-.41-.55-.63-1.22-.64-1.91v-15.25c0-.69.23-1.36.64-1.91h-3.87c-.64,0-1.25.24-1.72.68l-.13.12-.13-.12c-.45-.41-1.03-.65-1.63-.67h-3.94c.41.55.63,1.22.64,1.91v2.69h-4.64c.41.55.63,1.22.64,1.91v6.02c0,.69-.22,1.37-.64,1.93ZM43.93,55.65c0-.64.52-1.16,1.16-1.16h1.86v3.22h-3.02v-2.06ZM35.5,59.1h2.65v7.12h-2.65v-7.12Z"/>
  <path class="cls-1" d="M50.23,66.22h-1.23v1.37l1.51-.02c1.29-.14,2.26-1.23,2.25-2.52v-4.77c0-1.4-1.14-2.54-2.54-2.54h-1.22v1.36h1.23c.64,0,1.16.53,1.16,1.17,0,0,0,0,0,0v4.77c0,.64-.52,1.16-1.16,1.17Z"/>
  <path class="cls-1" d="M42.92,50.65s.03.03.05.02c.02,0,.03-.02.02-.04-.38-2.35-.86-4.66-1.44-7.01l-2.02-1.85.07,2.51c1.3,2.02,2.41,4.15,3.32,6.37Z"/>
  <path class="cls-1" d="M42.1,51.45s.04-.02.04-.04-.02-.04-.04-.04c-2.27-.73-4.6-1.26-6.96-1.59l-2.54.81c.73.25,1.89.7,2.3.86h7.2Z"/>
  <path class="cls-1" d="M42.67,50.74s.03.02.05.01.02-.03.01-.05c-1-2.17-2.22-4.24-3.64-6.16l-2.52-1.12,1.03,2.21c1.9,1.47,3.61,3.19,5.06,5.11Z"/>
  <path class="cls-1" d="M42.44,50.91s.08-.02.05-.05c-1.53-1.84-3.3-3.48-5.27-4.86l-2.68-.45,1.64,1.77c2.23.93,4.33,2.13,6.25,3.59Z"/>
  <path class="cls-1" d="M42.23,51.16s.04,0,.05-.02c0-.02,0-.03-.01-.04-1.96-1.38-4.09-2.5-6.33-3.33l-2.68.18,2.03,1.32c2.38.4,4.7,1.03,6.95,1.89Z"/>
  <path class="cls-1" d="M43.54,50.65c.91-2.22,2.02-4.34,3.32-6.36l.08-2.53-2.03,1.85c-.58,2.35-1.06,4.66-1.44,7.01,0,.04.05.06.07.02Z"/>
  <path class="cls-1" d="M44.36,51.38s-.04.02-.04.04.02.04.04.04h7.22c.41-.16,1.59-.61,2.3-.86l-2.54-.81c-2.37.32-4.7.86-6.98,1.59Z"/>
  <path class="cls-1" d="M43.79,50.74c1.46-1.91,3.16-3.63,5.06-5.11,0,0,.95-2.03,1.03-2.21l-2.52,1.12c-1.42,1.93-2.64,3.99-3.63,6.17,0,.02.01.04.03.04.01,0,.02,0,.03-.01Z"/>
  <path class="cls-1" d="M43.97,50.86s-.01.04,0,.05c.01.01.04.01.05,0,1.92-1.46,4.03-2.66,6.26-3.59l1.64-1.77-2.68.45c-1.96,1.38-3.73,3.02-5.26,4.86Z"/>
  <path class="cls-1" d="M44.2,51.09s-.02.04,0,.05c0,.01.03.02.04.01,2.25-.87,4.58-1.51,6.95-1.91l2.03-1.32-2.68-.18c-2.25.83-4.38,1.96-6.34,3.34Z"/>
  <path class="cls-1" d="M43.23,50.64s.04-.02.04-.03c.28-2.36.64-4.77,1.04-7.09l-1.08-2.42-1.08,2.42c.42,2.33.77,4.73,1.05,7.09,0,.02.02.04.04.03Z"/>
  <path class="cls-1" d="M55.24,62.34s-.03.03-.02.05c0,.02.02.03.04.02,2.35-.38,4.67-.86,7.01-1.44l1.85-2.02-2.51.07c-2.02,1.3-4.15,2.41-6.37,3.32Z"/>
  <path class="cls-1" d="M54.52,61.53c.73-2.27,1.27-4.6,1.59-6.96l-.8-2.55c-.25.73-.7,1.91-.86,2.3v7.2s.02.04.04.04c.01,0,.03,0,.03-.02Z"/>
  <path class="cls-1" d="M55.14,62.09s-.02.03,0,.05c0,.01.03.02.04.01,2.18-.99,4.25-2.21,6.17-3.63l1.12-2.52-2.21,1.03c-1.48,1.9-3.2,3.6-5.12,5.06Z"/>
  <path class="cls-1" d="M55.03,61.91c1.84-1.53,3.48-3.3,4.86-5.26,0,0,.36-2.11.45-2.68l-1.77,1.64c-.93,2.23-2.13,4.34-3.59,6.27,0,.02,0,.04.03.04,0,0,.02,0,.02,0Z"/>
  <path class="cls-1" d="M54.8,61.69c1.38-1.96,2.5-4.09,3.33-6.33l-.18-2.69-1.32,2.03c-.4,2.38-1.04,4.71-1.91,6.95,0,.02,0,.05.02.06s.05,0,.06-.02Z"/>
  <path class="cls-1" d="M62.28,64.33c-2.34-.58-4.66-1.06-7.01-1.44-.02,0-.04.01-.04.03,0,.02,0,.03.02.04,2.21.91,4.34,2.02,6.36,3.32l2.51.07-1.84-2.02Z"/>
  <path class="cls-1" d="M56.11,70.74c-.32-2.36-.85-4.69-1.59-6.96,0-.02-.03-.03-.05-.03-.01,0-.02.01-.03.03v7.22c.16.41.61,1.59.86,2.3l.8-2.56Z"/>
  <path class="cls-1" d="M61.35,66.78c-1.93-1.42-3.99-2.64-6.17-3.64-.02,0-.04,0-.05.01s0,.04.01.05c1.92,1.46,3.64,3.16,5.12,5.06l2.21,1.03-1.12-2.51Z"/>
  <path class="cls-1" d="M60.35,71.34c-.1-.57-.45-2.68-.45-2.68-1.38-1.96-3.02-3.73-4.86-5.26-.02-.01-.04,0-.05.01,0,.01,0,.03,0,.04,1.46,1.92,2.67,4.03,3.59,6.25l1.77,1.64Z"/>
  <path class="cls-1" d="M58.13,69.95c-.83-2.25-1.95-4.38-3.33-6.33-.01-.02-.04-.02-.05,0-.01,0-.02.03-.01.04.87,2.25,1.51,4.58,1.91,6.95l1.32,2.03.17-2.69Z"/>
  <path class="cls-1" d="M62.38,61.57c-2.33.42-4.73.77-7.09,1.05-.02,0-.03.02-.03.03h0s.02.04.03.04c2.36.28,4.77.64,7.09,1.05l2.41-1.08-2.41-1.08Z"/>
  <path class="cls-1" d="M43.48,74.68c.38,2.35.86,4.67,1.44,7.01l2.03,1.85-.07-2.51c-1.3-2.02-2.41-4.14-3.32-6.36,0-.02-.02-.04-.04-.04s-.04.02-.04.04Z"/>
  <path class="cls-1" d="M44.38,73.86s-.03.03-.03.05c0,.01.01.02.03.03,2.27.73,4.6,1.27,6.96,1.59.59-.19,2.13-.67,2.54-.81-.72-.25-1.91-.7-2.3-.86h-7.21Z"/>
  <path class="cls-1" d="M49.89,81.9l-1.04-2.23c-1.9-1.48-3.6-3.2-5.06-5.12-.02-.01-.04-.01-.05,0,0,0-.01.02,0,.03,1,2.18,2.22,4.25,3.64,6.17l2.53,1.14Z"/>
  <path class="cls-1" d="M50.29,77.99c-2.23-.92-4.33-2.13-6.26-3.59-.02-.01-.04,0-.05.01,0,.01,0,.03,0,.04,1.53,1.84,3.3,3.48,5.26,4.86l2.68.45-1.64-1.78Z"/>
  <path class="cls-1" d="M51.19,76.05c-2.38-.4-4.7-1.04-6.95-1.91-.02,0-.04,0-.05.01s0,.04.01.05c1.96,1.38,4.09,2.5,6.33,3.34l2.69-.18-2.03-1.31Z"/>
  <path class="cls-1" d="M43,74.68s-.01-.04-.03-.04c-.02,0-.03,0-.04.02-.91,2.22-2.02,4.34-3.32,6.36l-.07,2.51,2.02-1.85c.58-2.33,1.06-4.65,1.44-7Z"/>
  <path class="cls-1" d="M35.15,75.54c2.36-.32,4.69-.85,6.96-1.59.02,0,.03-.03.03-.05,0-.01-.01-.02-.03-.03h-7.22c-.41.16-1.59.61-2.3.86.42.12,1.96.6,2.56.8Z"/>
  <path class="cls-1" d="M42.75,74.59s0-.04-.03-.04c-.01,0-.02,0-.03,0-.13.17-.25.32-.38.5h0c-1.38,1.72-2.95,3.27-4.68,4.62l-1.03,2.23,2.52-1.12c1.42-1.93,2.64-4.01,3.64-6.19Z"/>
  <path class="cls-1" d="M42.3,75.06h0s0,0,0,0Z"/>
  <path class="cls-1" d="M34.54,79.77l2.68-.45c1.96-1.38,3.73-3.02,5.27-4.86.01-.02,0-.04-.01-.05-.01,0-.03,0-.04,0-1.92,1.46-4.02,2.66-6.25,3.59l-1.65,1.78ZM42.07,74.78h0s.01.03,0,.05l-.03-.06s.02,0,.03,0c0,0-.02,0-.03,0h0s.04,0,.05.01c0,0,0,0,0,0h0Z"/>
  <path class="cls-1" d="M42.06,74.77h0s-.03,0-.04,0h0s.03-.01.04,0c0,0,0,0,0,0Z"/>
  <path class="cls-1" d="M42.06,74.77s-.02,0-.03,0l.03.06s.01-.03,0-.05h0s0-.01,0-.02Z"/>
  <path class="cls-1" d="M42.06,74.77s.01,0,.02,0h-.02Z"/>
  <path class="cls-1" d="M42.24,74.15c-2.25.87-4.58,1.5-6.95,1.91l-2.02,1.31,2.69.18c2.25-.83,4.38-1.95,6.33-3.34.02-.01.02-.04,0-.06-.01-.02-.04-.02-.06,0Z"/>
  <path class="cls-1" d="M43.24,84.21l1.08-2.42c-.42-2.33-.77-4.73-1.05-7.09,0-.02-.02-.04-.03-.04,0,0,0,0,0,0-.02,0-.03.01-.03.03,0,0,0,0,0,0-.28,2.36-.64,4.77-1.05,7.09l1.08,2.42Z"/>
  <path class="cls-1" d="M31.21,62.9c-2.35.38-4.67.86-7.01,1.44l-1.85,2.02,2.51-.07c2.02-1.29,4.14-2.4,6.36-3.32.02,0,.03-.03.02-.05,0-.01-.02-.02-.03-.02Z"/>
  <path class="cls-1" d="M31.17,73.31c.25-.73.7-1.91.86-2.3v-7.22s-.03-.03-.05-.03c-.01,0-.02.01-.03.03-.73,2.27-1.27,4.6-1.59,6.96.19.58.68,2.12.8,2.56Z"/>
  <path class="cls-1" d="M31.33,63.22s0-.08-.03-.06c-2.18,1-4.25,2.22-6.17,3.64l-1.12,2.52,2.21-1.03c1.48-1.9,3.2-3.61,5.12-5.07Z"/>
  <path class="cls-1" d="M31.49,63.46s-.02-.08-.05-.05c-1.84,1.53-3.47,3.3-4.85,5.26,0,0-.36,2.11-.45,2.68l1.78-1.64c.92-2.23,2.12-4.33,3.57-6.25Z"/>
  <path class="cls-1" d="M31.68,63.62c-1.38,1.96-2.51,4.09-3.34,6.34l.18,2.68,1.32-2.03c.4-2.38,1.04-4.71,1.91-6.96,0-.02,0-.04-.02-.05-.02,0-.04,0-.05.02Z"/>
  <path class="cls-1" d="M31.21,62.42s.04,0,.04-.03c0-.02,0-.04-.03-.04-2.21-.91-4.34-2.02-6.36-3.32l-2.51-.07,1.85,2.02c2.33.57,4.65,1.06,7,1.44ZM30.55,62.1s.01.03,0,.05c.01-.01.01-.03,0-.05h0Z"/>
  <path class="cls-1" d="M30.56,62.14s.01-.03,0-.05h0s.01.03,0,.05Z"/>
  <path class="cls-1" d="M32.03,61.53v-7.21c-.16-.41-.61-1.59-.86-2.3-.13.43-.62,1.97-.81,2.56.32,2.36.86,4.69,1.59,6.96,0,.02.02.04.04.03.02,0,.04-.02.03-.04Z"/>
  <path class="cls-1" d="M30.69,61.87h.04s0,.03,0,.04c.19.09.39.18.58.27.04.02.07-.03.03-.06-1.93-1.47-3.65-3.18-5.13-5.09l-2.21-1.03,1.12,2.52c1.75,1.28,3.61,2.4,5.56,3.34Z"/>
  <path class="cls-1" d="M30.73,61.85h0s0,.02,0,.03h0s0-.02,0-.03Z"/>
  <path class="cls-1" d="M30.73,61.87h0l-.03.03h.03s0-.02,0-.03Z"/>
  <path class="cls-1" d="M30.73,61.89h0s0-.02,0-.03c0,0,0,.02,0,.03Z"/>
  <path class="cls-1" d="M31.44,61.92s.04,0,.05-.01c0-.01,0-.03,0-.04-.09-.11-.17-.23-.26-.34h0s-.03,0-.04,0h-.02.05c-1.33-1.83-2.45-3.82-3.32-5.91l-1.78-1.64.47,2.68c1.38,1.96,3.01,3.73,4.85,5.26Z"/>
  <path class="cls-1" d="M31.2,61.55s.03,0,.04,0h0s-.03,0-.04,0c.01,0,.03,0,.04,0h-.05s0-.02.01,0Z"/>
  <path class="cls-1" d="M31.74,61.66c-.86-2.25-1.5-4.58-1.91-6.95l-1.32-2.03-.18,2.68c.84,2.25,1.97,4.38,3.35,6.34.01.01.04.01.05,0,0,0,.01-.02,0-.03Z"/>
  <path class="cls-1" d="M31.19,62.7s.04-.02.03-.04c0-.02-.02-.04-.03-.04-2.36-.28-4.77-.64-7.09-1.04l-2.42,1.08,2.42,1.08c2.33-.42,4.72-.77,7.09-1.05Z"/>
</svg>