<?xml version="1.0" encoding="UTF-8"?>
<svg id="Capa_3" data-name="Capa 3" xmlns="http://www.w3.org/2000/svg" viewBox="0 0 177.4 125.4">
  <defs>
    <style>
      .cls-1 {
        fill: #fff;
        stroke-width: 0px;
      }
    </style>
  </defs>
  <path class="cls-1" d="M96.19,33.94c.18.18.36.27.45.36,4.37,3.66,8.74,7.31,13.11,10.88.45.36.45.53,0,.89-4.37,3.66-8.65,7.4-13.02,11.06-.18.18-.71.18-.89,0-2.05-1.69-4.1-3.48-6.24-5.17-.45-.45-.36-.62.09-.89,2.05-1.6,4.01-3.21,5.97-4.73.45-.36.45-.53,0-.89-2.05-1.78-4.1-3.57-6.15-5.26-.36-.27-.45-.45,0-.8,2.05-1.69,4.19-3.39,6.24-5.08.18-.18.27-.27.45-.36Z"/>
  <path class="cls-1" d="M82.01,32.61v-9.9c0-.18.09-.45.09-.62.18.09.36.18.45.36,3.92,3.21,7.85,6.42,11.77,9.63.45.36.45.53,0,.89-3.92,3.3-7.76,6.6-11.68,9.9-.18.18-.36.27-.53.36,0-.27-.09-.45-.09-.71v-9.9Z"/>
  <path class="cls-1" d="M82.1,48.57c.27.18.45.36.53.45,3.92,3.21,7.85,6.42,11.77,9.63.45.36.45.53,0,.89-3.92,3.3-7.85,6.6-11.77,9.9-.18.09-.36.18-.45.36,0-.18-.09-.45-.09-.62v-19.88c-.09-.27-.09-.45,0-.71Z"/>
  <path class="cls-1" d="M98.06,95.2c-3.03-.09-5.53-.53-7.94-1.6-.45-.18-.53-.36-.27-.8.36-.62.53-1.6,1.07-1.87.53-.27,1.34.36,2.05.53,1.96.62,4.01,1.07,6.15.8.62-.09,1.25-.27,1.78-.53.89-.45.8-1.34-.09-1.69-1.16-.45-2.41-.62-3.57-.89-1.6-.36-3.21-.62-4.73-1.25-2.85-1.16-3.12-4.1-.62-5.97,1.87-1.34,4.01-1.69,6.24-1.69,2.41,0,4.73.53,6.95,1.6.45.18.53.36.27.8-.45.62-.62,1.52-1.16,1.69-.45.18-1.25-.36-1.96-.53-1.87-.62-3.66-.98-5.62-.71-.53.09-1.16.27-1.6.53-.8.45-.8,1.34.09,1.69.98.36,1.96.53,2.94.71,1.6.36,3.3.62,4.9,1.07,1.43.45,2.67,1.25,2.85,2.94.18,1.78-.89,2.85-2.32,3.66-1.78,1.25-3.83,1.52-5.44,1.52Z"/>
  <path class="cls-1" d="M117.68,94.67h-6.33c-.53,0-.71-.09-.71-.71v-12.48c0-.53.18-.71.71-.71h12.75c.53,0,.62.18.71.71q0,2.5-2.41,2.5h-6.51c-.62,0-.8.09-.8.8q0,1.87,1.87,1.87h4.19c.8,0,.98.18.98.98s-.27,1.07-1.07.98c-1.78-.09-3.57,0-5.35,0-.45,0-.62.09-.62.62q-.09,2.14,2.05,2.14h7.67v3.3h-2.59s-3.03,0-4.55,0Z"/>
  <path class="cls-1" d="M83.8,94.67c-1.52.53-2.5-.36-2.94-2.05-.18-.71-.62-.89-1.43-.89-1.78.09-3.57,0-5.35,0-.27,0-.8.27-.89.53-.53,2.05-1.87,2.59-3.83,2.32-1.43-.18-1.43,0-.8-1.34,1.96-4.01,4.01-7.94,5.97-11.95.27-.53.53-.71,1.07-.62,1.07.09,2.14,0,3.3,0,.27,0,.62.27.8.45,2.23,4.28,4.37,8.47,6.51,12.75.27.53.09.62-.45.62-.45.18-1.07.18-1.96.18ZM77.02,89.14h1.69c.45,0,.53-.09.36-.53-.62-1.25-1.16-2.5-1.78-3.66-.09-.09-.18-.27-.27-.36-.09.09-.18.18-.27.36-.36.71-.71,1.43-1.07,2.23-.98,2.05-.98,1.96,1.34,1.96Z"/>
  <path class="cls-1" d="M59.45,80.76h6.33c.53,0,.71.09.71.62v1.87c0,.53-.18.62-.71.62h-8.2c-.53,0-.71.18-.71.71q0,2.14,2.14,2.14h3.39c.53,0,.62.18.62.62,0,1.87.09,1.87-1.78,1.87h-3.48c-.62,0-.8.18-.8.8v3.83c0,.53-.09.71-.71.71-.98-.09-2.05,0-3.03,0-.45,0-.62-.09-.62-.62v-12.66c0-.53.18-.62.62-.62,2.05.18,4.19.09,6.24.09Z"/>
  <g>
    <path class="cls-1" d="M68.01,103.22l-.36-.98h-1.34l-.36.98h-.27l1.25-3.21h.27l1.25,3.21h-.45ZM66.94,100.28h0q0,.09-.09.18c0,.09-.18.53-.53,1.52h1.25l-.53-1.43c0-.09,0-.18-.09-.27Z"/>
    <path class="cls-1" d="M72.29,102.78c.09.09.27.18.36.18.18,0,.27.09.36.09.27,0,.45-.09.53-.18s.18-.27.18-.45c0-.09,0-.18-.09-.27,0-.09-.09-.18-.18-.18-.09-.09-.27-.18-.53-.27-.27-.09-.36-.27-.45-.36s-.18-.18-.18-.27-.09-.18-.09-.36c0-.27.09-.45.27-.62.18-.18.45-.27.71-.27s.45,0,.62.09v.27c-.18-.09-.45-.18-.62-.18s-.36.09-.53.18c-.09.09-.18.27-.18.36s0,.18.09.27c0,.09.09.18.18.18s.27.18.45.27c.27.18.53.27.62.45s.18.27.18.45c0,.27-.09.45-.27.62-.18.18-.45.27-.8.27-.09,0-.27,0-.45-.09-.18,0-.27-.09-.36-.09v-.09h.18Z"/>
    <path class="cls-1" d="M78.36,103.22v-3.21h1.52v.27h-1.25v1.25h1.16v.27h-1.16v1.25h1.34v.27h-1.6v-.09Z"/>
    <path class="cls-1" d="M84.06,102.78c.09.09.27.18.36.18.18,0,.27.09.36.09.27,0,.45-.09.53-.18s.18-.27.18-.45c0-.09,0-.18-.09-.27,0-.09-.09-.18-.18-.18-.09-.09-.27-.18-.53-.27-.27-.09-.36-.27-.45-.36s-.18-.18-.18-.27-.09-.18-.09-.36c0-.27.09-.45.27-.62.18-.18.45-.27.71-.27s.45,0,.62.09v.27c-.18-.09-.45-.18-.62-.18s-.36.09-.53.18c-.09.09-.18.27-.18.36s0,.18.09.27c0,.09.09.18.18.18s.27.18.45.27c.27.18.53.27.62.45s.18.27.18.45c0,.27-.09.45-.27.62-.18.18-.45.27-.8.27-.09,0-.27,0-.45-.09-.18,0-.27-.09-.36-.09v-.09h.18Z"/>
    <path class="cls-1" d="M91.37,103.22c-.27,0-.53-.09-.8-.18-.27-.18-.45-.36-.53-.53-.09-.27-.18-.53-.18-.8,0-.36.09-.62.18-.89s.27-.45.53-.62c.27-.18.53-.18.8-.18s.53.09.8.18.36.36.53.53c.09.27.18.53.18.8,0,.36-.09.62-.18.89s-.27.45-.53.62-.45.18-.8.18ZM91.46,100.19c-.27,0-.45.09-.62.18s-.36.27-.45.53c-.09.18-.18.45-.18.71s.09.53.18.71.27.36.45.53c.18.09.36.18.62.18.36,0,.71-.09.89-.36s.36-.62.36-1.07c0-.27-.09-.53-.18-.71-.09-.18-.27-.36-.45-.45-.18-.18-.45-.27-.62-.27Z"/>
    <path class="cls-1" d="M98.86,103.22l-.45-.89c-.09-.18-.18-.27-.27-.36s-.27-.18-.36-.18h-.36v1.43h-.27v-3.21h.89c.18,0,.36,0,.45.09.18.09.27.18.36.27s.09.27.09.45c0,.27-.09.45-.18.53-.09.18-.27.27-.53.27h0c.09,0,.18.09.18.18.09.09.09.18.18.36l.53.98h-.27v.09ZM97.44,100.28v1.34h.53c.18,0,.45-.09.53-.18.18-.09.18-.27.18-.53,0-.18-.09-.36-.18-.45s-.27-.18-.53-.18c0,0-.53,0-.53,0Z"/>
    <path class="cls-1" d="M103.32,103.22v-3.21h1.52v.27h-1.25v1.25h1.16v.27h-1.16v1.25h1.34v.27h-1.6v-.09Z"/>
    <path class="cls-1" d="M109.03,102.78c.09.09.27.18.36.18.18,0,.27.09.36.09.27,0,.45-.09.53-.18s.18-.27.18-.45c0-.09,0-.18-.09-.27,0-.09-.09-.18-.18-.18-.09-.09-.27-.18-.53-.27-.27-.09-.36-.27-.45-.36s-.18-.18-.18-.27-.09-.18-.09-.36c0-.27.09-.45.27-.62.18-.18.45-.27.71-.27s.45,0,.62.09v.27c-.18-.09-.45-.18-.62-.18s-.36.09-.53.18c-.09.09-.18.27-.18.36s0,.18.09.27c0,.09.09.18.18.18s.27.18.45.27c.27.18.53.27.62.45s.18.27.18.45c0,.27-.09.45-.27.62-.18.18-.45.27-.8.27-.09,0-.27,0-.45-.09-.18,0-.27-.09-.36-.09v-.09h.18Z"/>
  </g>
</svg>