<?xml version="1.0" encoding="utf-8"?>
<!-- Generator: Adobe Illustrator 28.3.0, SVG Export Plug-In . SVG Version: 6.00 Build 0)  -->
<svg version="1.1" id="Capa_1" xmlns="http://www.w3.org/2000/svg" xmlns:xlink="http://www.w3.org/1999/xlink" x="0px" y="0px"
	 viewBox="0 0 177.4 125.4" style="enable-background:new 0 0 177.4 125.4;" xml:space="preserve">
<style type="text/css">
	.st0{fill:#FFFFFF;}
</style>
<g>
	<path class="st0" d="M97.1,29.9c0.2,0.2,0.4,0.3,0.5,0.4c4.9,4.1,9.8,8.2,14.7,12.2c0.5,0.4,0.5,0.6,0,1
		c-4.9,4.1-9.7,8.3-14.6,12.4c-0.2,0.2-0.8,0.2-1,0c-2.3-1.9-4.6-3.9-7-5.8c-0.5-0.5-0.4-0.7,0.1-1c2.3-1.8,4.5-3.6,6.7-5.3
		c0.5-0.4,0.5-0.6,0-1c-2.3-2-4.6-4-6.9-5.9c-0.4-0.3-0.5-0.5,0-0.9c2.3-1.9,4.7-3.8,7-5.7C96.8,30.1,96.9,30,97.1,29.9z"/>
	<path class="st0" d="M81.2,28.4c0-3.7,0-7.4,0-11.1c0-0.2,0.1-0.5,0.1-0.7c0.2,0.1,0.4,0.2,0.5,0.4c4.4,3.6,8.8,7.2,13.2,10.8
		c0.5,0.4,0.5,0.6,0,1c-4.4,3.7-8.7,7.4-13.1,11.1c-0.2,0.2-0.4,0.3-0.6,0.4c0-0.3-0.1-0.5-0.1-0.8C81.2,35.8,81.2,32.1,81.2,28.4z"
		/>
	<path class="st0" d="M81.3,46.3c0.3,0.2,0.5,0.4,0.6,0.5c4.4,3.6,8.8,7.2,13.2,10.8c0.5,0.4,0.5,0.6,0,1
		c-4.4,3.7-8.8,7.4-13.2,11.1c-0.2,0.1-0.4,0.2-0.5,0.4c0-0.2-0.1-0.5-0.1-0.7c0-7.4,0-14.8,0-22.3C81.2,46.8,81.2,46.6,81.3,46.3z"
		/>
	<path class="st0" d="M99.2,98.6c-3.4-0.1-6.2-0.6-8.9-1.8c-0.5-0.2-0.6-0.4-0.3-0.9c0.4-0.7,0.6-1.8,1.2-2.1
		c0.6-0.3,1.5,0.4,2.3,0.6c2.2,0.7,4.5,1.2,6.9,0.9c0.7-0.1,1.4-0.3,2-0.6c1-0.5,0.9-1.5-0.1-1.9c-1.3-0.5-2.7-0.7-4-1
		c-1.8-0.4-3.6-0.7-5.3-1.4c-3.2-1.3-3.5-4.6-0.7-6.7c2.1-1.5,4.5-1.9,7-1.9c2.7,0,5.3,0.6,7.8,1.8c0.5,0.2,0.6,0.4,0.3,0.9
		c-0.5,0.7-0.7,1.7-1.3,1.9c-0.5,0.2-1.4-0.4-2.2-0.6c-2.1-0.7-4.1-1.1-6.3-0.8c-0.6,0.1-1.3,0.3-1.8,0.6c-0.9,0.5-0.9,1.5,0.1,1.9
		c1.1,0.4,2.2,0.6,3.3,0.8c1.8,0.4,3.7,0.7,5.5,1.2c1.6,0.5,3,1.4,3.2,3.3c0.2,2-1,3.2-2.6,4.1C103.3,98.3,101,98.6,99.2,98.6z"/>
	<path class="st0" d="M121.2,98c-2.4,0-4.7,0-7.1,0c-0.6,0-0.8-0.1-0.8-0.8c0-4.7,0-9.3,0-14c0-0.6,0.2-0.8,0.8-0.8
		c4.8,0,9.6,0,14.3,0c0.6,0,0.7,0.2,0.8,0.8c0,2.8,0,2.8-2.7,2.8c-2.4,0-4.9,0-7.3,0c-0.7,0-0.9,0.1-0.9,0.9c0,2.1,0,2.1,2.1,2.1
		c1.6,0,3.1,0,4.7,0c0.9,0,1.1,0.2,1.1,1.1c0,0.9-0.3,1.2-1.2,1.1c-2-0.1-4,0-6,0c-0.5,0-0.7,0.1-0.7,0.7c-0.1,2.4-0.1,2.4,2.3,2.4
		c2.6,0,8.6,0,8.6,0V98l-2.9,0C126.3,98,122.9,98,121.2,98z"/>
	<path class="st0" d="M83.2,98c-1.7,0.6-2.8-0.4-3.3-2.3c-0.2-0.8-0.7-1-1.6-1c-2,0.1-4,0-6,0c-0.3,0-0.9,0.3-1,0.6
		c-0.6,2.3-2.1,2.9-4.3,2.6c-1.6-0.2-1.6,0-0.9-1.5c2.2-4.5,4.5-8.9,6.7-13.4c0.3-0.6,0.6-0.8,1.2-0.7c1.2,0.1,2.4,0,3.7,0
		c0.3,0,0.7,0.3,0.9,0.5c2.5,4.8,4.9,9.5,7.3,14.3c0.3,0.6,0.1,0.7-0.5,0.7C84.9,98,84.2,98,83.2,98z M75.6,91.8c0.6,0,1.3,0,1.9,0
		c0.5,0,0.6-0.1,0.4-0.6c-0.7-1.4-1.3-2.8-2-4.1c-0.1-0.1-0.2-0.3-0.3-0.4c-0.1,0.1-0.2,0.2-0.3,0.4c-0.4,0.8-0.8,1.6-1.2,2.5
		C73,91.9,73,91.8,75.6,91.8z"/>
	<path class="st0" d="M55.9,82.4c2.4,0,4.7,0,7.1,0c0.6,0,0.8,0.1,0.8,0.7c0,0.7,0,1.4,0,2.1c0,0.6-0.2,0.7-0.8,0.7
		c-3.1,0-6.1,0-9.2,0c-0.6,0-0.8,0.2-0.8,0.8c0,2.4,0,2.4,2.4,2.4c1.3,0,2.5,0,3.8,0c0.6,0,0.7,0.2,0.7,0.7c0,2.1,0.1,2.1-2,2.1
		c-1.3,0-2.6,0-3.9,0c-0.7,0-0.9,0.2-0.9,0.9c0,1.4,0,2.8,0,4.3c0,0.6-0.1,0.8-0.8,0.8c-1.1-0.1-2.3,0-3.4,0c-0.5,0-0.7-0.1-0.7-0.7
		c0-4.7,0-9.5,0-14.2c0-0.6,0.2-0.7,0.7-0.7C51.2,82.5,53.6,82.4,55.9,82.4z"/>
	<g>
		<path class="st0" d="M65.5,107.6l-0.4-1.1h-1.5l-0.4,1.1h-0.3l1.4-3.6h0.3l1.4,3.6H65.5z M64.3,104.3L64.3,104.3
			c0,0.1,0,0.1-0.1,0.2c0,0.1-0.2,0.6-0.6,1.7H65l-0.6-1.6C64.4,104.5,64.4,104.4,64.3,104.3z"/>
		<path class="st0" d="M70.3,107.1c0.1,0.1,0.3,0.2,0.4,0.2c0.2,0,0.3,0.1,0.4,0.1c0.3,0,0.5-0.1,0.6-0.2s0.2-0.3,0.2-0.5
			c0-0.1,0-0.2-0.1-0.3c0-0.1-0.1-0.2-0.2-0.2c-0.1-0.1-0.3-0.2-0.6-0.3c-0.3-0.1-0.4-0.3-0.5-0.4c-0.1-0.1-0.2-0.2-0.2-0.3
			c0-0.1-0.1-0.2-0.1-0.4c0-0.3,0.1-0.5,0.3-0.7c0.2-0.2,0.5-0.3,0.8-0.3c0.3,0,0.5,0,0.7,0.1v0.3c-0.2-0.1-0.5-0.2-0.7-0.2
			c-0.2,0-0.4,0.1-0.6,0.2c-0.1,0.1-0.2,0.3-0.2,0.4c0,0.1,0,0.2,0.1,0.3c0,0.1,0.1,0.2,0.2,0.2s0.3,0.2,0.5,0.3
			c0.3,0.2,0.6,0.3,0.7,0.5s0.2,0.3,0.2,0.5c0,0.3-0.1,0.5-0.3,0.7c-0.2,0.2-0.5,0.3-0.9,0.3c-0.1,0-0.3,0-0.5-0.1
			c-0.2,0-0.3-0.1-0.4-0.1V107.1z"/>
		<path class="st0" d="M77.1,107.6V104h1.7v0.3h-1.4v1.4h1.3v0.3h-1.3v1.4h1.5v0.3H77.1z"/>
		<path class="st0" d="M83.5,107.1c0.1,0.1,0.3,0.2,0.4,0.2c0.2,0,0.3,0.1,0.4,0.1c0.3,0,0.5-0.1,0.6-0.2s0.2-0.3,0.2-0.5
			c0-0.1,0-0.2-0.1-0.3c0-0.1-0.1-0.2-0.2-0.2c-0.1-0.1-0.3-0.2-0.6-0.3c-0.3-0.1-0.4-0.3-0.5-0.4c-0.1-0.1-0.2-0.2-0.2-0.3
			c0-0.1-0.1-0.2-0.1-0.4c0-0.3,0.1-0.5,0.3-0.7c0.2-0.2,0.5-0.3,0.8-0.3c0.3,0,0.5,0,0.7,0.1v0.3c-0.2-0.1-0.5-0.2-0.7-0.2
			c-0.2,0-0.4,0.1-0.6,0.2c-0.1,0.1-0.2,0.3-0.2,0.4c0,0.1,0,0.2,0.1,0.3c0,0.1,0.1,0.2,0.2,0.2s0.3,0.2,0.5,0.3
			c0.3,0.2,0.6,0.3,0.7,0.5s0.2,0.3,0.2,0.5c0,0.3-0.1,0.5-0.3,0.7c-0.2,0.2-0.5,0.3-0.9,0.3c-0.1,0-0.3,0-0.5-0.1
			c-0.2,0-0.3-0.1-0.4-0.1V107.1z"/>
		<path class="st0" d="M91.7,107.6c-0.3,0-0.6-0.1-0.9-0.2c-0.3-0.2-0.5-0.4-0.6-0.6c-0.1-0.3-0.2-0.6-0.2-0.9c0-0.4,0.1-0.7,0.2-1
			c0.1-0.3,0.3-0.5,0.6-0.7c0.3-0.2,0.6-0.2,0.9-0.2c0.3,0,0.6,0.1,0.9,0.2s0.4,0.4,0.6,0.6c0.1,0.3,0.2,0.6,0.2,0.9
			c0,0.4-0.1,0.7-0.2,1c-0.1,0.3-0.3,0.5-0.6,0.7S92.1,107.6,91.7,107.6z M91.8,104.2c-0.3,0-0.5,0.1-0.7,0.2
			c-0.2,0.1-0.4,0.3-0.5,0.6c-0.1,0.2-0.2,0.5-0.2,0.8c0,0.3,0.1,0.6,0.2,0.8s0.3,0.4,0.5,0.6c0.2,0.1,0.4,0.2,0.7,0.2
			c0.4,0,0.8-0.1,1-0.4c0.2-0.3,0.4-0.7,0.4-1.2c0-0.3-0.1-0.6-0.2-0.8c-0.1-0.2-0.3-0.4-0.5-0.5C92.3,104.3,92,104.2,91.8,104.2z"
			/>
		<path class="st0" d="M100.1,107.6l-0.5-1c-0.1-0.2-0.2-0.3-0.3-0.4S99,106,98.9,106h-0.4v1.6h-0.3V104h1c0.2,0,0.4,0,0.5,0.1
			c0.2,0.1,0.3,0.2,0.4,0.3s0.1,0.3,0.1,0.5c0,0.3-0.1,0.5-0.2,0.6c-0.1,0.2-0.3,0.3-0.6,0.3v0c0.1,0,0.2,0.1,0.2,0.2
			c0.1,0.1,0.1,0.2,0.2,0.4l0.6,1.1H100.1z M98.5,104.3v1.5h0.6c0.2,0,0.5-0.1,0.6-0.2c0.2-0.1,0.2-0.3,0.2-0.6
			c0-0.2-0.1-0.4-0.2-0.5c-0.1-0.1-0.3-0.2-0.6-0.2H98.5z"/>
		<path class="st0" d="M105.1,107.6V104h1.7v0.3h-1.4v1.4h1.3v0.3h-1.3v1.4h1.5v0.3H105.1z"/>
		<path class="st0" d="M111.5,107.1c0.1,0.1,0.3,0.2,0.4,0.2c0.2,0,0.3,0.1,0.4,0.1c0.3,0,0.5-0.1,0.6-0.2s0.2-0.3,0.2-0.5
			c0-0.1,0-0.2-0.1-0.3c0-0.1-0.1-0.2-0.2-0.2c-0.1-0.1-0.3-0.2-0.6-0.3c-0.3-0.1-0.4-0.3-0.5-0.4c-0.1-0.1-0.2-0.2-0.2-0.3
			c0-0.1-0.1-0.2-0.1-0.4c0-0.3,0.1-0.5,0.3-0.7c0.2-0.2,0.5-0.3,0.8-0.3c0.3,0,0.5,0,0.7,0.1v0.3c-0.2-0.1-0.5-0.2-0.7-0.2
			c-0.2,0-0.4,0.1-0.6,0.2c-0.1,0.1-0.2,0.3-0.2,0.4c0,0.1,0,0.2,0.1,0.3c0,0.1,0.1,0.2,0.2,0.2s0.3,0.2,0.5,0.3
			c0.3,0.2,0.6,0.3,0.7,0.5s0.2,0.3,0.2,0.5c0,0.3-0.1,0.5-0.3,0.7c-0.2,0.2-0.5,0.3-0.9,0.3c-0.1,0-0.3,0-0.5-0.1
			c-0.2,0-0.3-0.1-0.4-0.1V107.1z"/>
	</g>
</g>
</svg>
