<?xml version="1.0" encoding="UTF-8"?>
<svg id="Capa_6" data-name="Capa 6" xmlns="http://www.w3.org/2000/svg" viewBox="0 0 177.4 125.4">
  <defs>
    <style>
      .cls-1 {
        fill: #fff;
        stroke-width: 0px;
      }
    </style>
  </defs>
  <g id="Grupo_5" data-name="Grupo 5">
    <g id="Grupo_4" data-name="Grupo 4">
      <path id="Trazado_1" data-name="Trazado 1" class="cls-1" d="M26.38,62.74v.84h-3.68v6.36h-.92v-13.98h5.36v.84h-4.44v6.03l3.68-.08h0Z"/>
      <path id="Trazado_2" data-name="Trazado 2" class="cls-1" d="M21.94,69.86h.67v-6.36h3.6v-.59h-3.6v-6.36h4.44v-.59h-5.02v13.9h-.08ZM22.86,70.19h-1.26v-14.4h5.69v1.17h-4.44v5.69h3.6v1.09h-3.6v6.45Z"/>
      <g id="Grupo_1" data-name="Grupo 1">
        <path id="Trazado_3" data-name="Trazado 3" class="cls-1" d="M31.82,66.68c0,1.51.59,2.68,2.18,2.68s2.18-1.09,2.18-2.68v-7.37c0-1.51-.67-2.68-2.18-2.68-1.59,0-2.18,1.09-2.18,2.68v7.37ZM30.98,59.31c0-2.09.92-3.6,3.1-3.6s3.1,1.51,3.1,3.6v7.2c0,2.09-.92,3.6-3.1,3.6s-3.1-1.51-3.1-3.6v-7.2Z"/>
        <path id="Trazado_4" data-name="Trazado 4" class="cls-1" d="M34,56.8c-1.67,0-2.01,1.42-2.01,2.51v7.37c0,1.17.33,2.51,2.01,2.51s2.09-1.34,2.09-2.51v-7.37c-.08-1.17-.42-2.51-2.09-2.51M34,69.44c-1.51,0-2.34-1-2.34-2.85v-7.28c0-1.76.84-2.85,2.34-2.85s2.34,1,2.34,2.85v7.37c0,1.76-.84,2.76-2.34,2.76M34,55.96c-1.84,0-2.93,1.26-2.93,3.43v7.2c0,2.18,1.09,3.43,2.93,3.43,2.59,0,2.93-2.18,2.93-3.43v-7.2c.08-1.34-.33-3.43-2.93-3.43M34,70.28c-2.09,0-3.26-1.34-3.26-3.68v-7.2c0-2.34,1.17-3.68,3.26-3.68s3.26,1.34,3.26,3.68v7.2c0,2.34-1.17,3.68-3.26,3.68"/>
        <path id="Trazado_5" data-name="Trazado 5" class="cls-1" d="M43.54,62.83c1.67,0,2.59-.42,2.59-2.34v-1.34c0-1.51-.59-2.43-2.18-2.43h-2.01v6.11h1.59ZM44.04,55.96c2.18,0,3.01,1.17,3.01,3.18v1.26c0,1.67-.67,2.59-2.01,2.93,1.42.33,2.01,1.34,2.01,2.85v2.18c0,.59.08,1.17.33,1.67h-1c-.25-.5-.33-1.09-.33-1.67v-2.18c0-1.84-1-2.43-2.59-2.43h-1.51v6.28h-.92v-14.06h3.01Z"/>
        <path id="Trazado_6" data-name="Trazado 6" class="cls-1" d="M42.12,62.74h1.34c1.51,0,2.51-.33,2.51-2.18v-1.34c0-1.51-.67-2.26-1.93-2.26h-1.84l-.08,5.78h0ZM43.54,62.99h-1.67v-6.45h2.18c1.51,0,2.26.84,2.26,2.51v1.42c0,2.26-1.34,2.51-2.76,2.51M46.47,69.86h.67c-.17-.5-.25-1-.25-1.51v-2.18c0-1.51-.67-2.43-1.93-2.76l-.67-.17.67-.17c1.34-.33,1.93-1.17,1.93-2.76v-1.26c0-2.09-.92-3.01-2.85-3.01h-2.76v13.81h.67v-6.28h1.59c1.34,0,2.76.33,2.76,2.51v2.18c-.08.59,0,1.09.17,1.59M47.64,70.19h-1.34v-.08c-.25-.59-.33-1.17-.33-1.76v-2.18c0-1.59-.75-2.26-2.51-2.26h-1.34v6.28h-1.26v-14.4h3.1c2.09,0,3.18,1.09,3.18,3.35v1.26c0,1.51-.59,2.51-1.67,2.93,1.09.42,1.67,1.42,1.67,2.85v2.18c0,.59.08,1.09.33,1.59l.17.25Z"/>
      </g>
      <path id="Trazado_7" data-name="Trazado 7" class="cls-1" d="M53.67,70.02v-13.31h-2.85v-.84h6.7v.84h-2.85v13.31h-1Z"/>
      <path id="Trazado_8" data-name="Trazado 8" class="cls-1" d="M53.84,69.86h.67v-13.23h2.85v-.59h-6.36v.59h2.93l-.08,13.23ZM54.76,70.19h-1.26v-13.31h-2.85v-1.17h6.95v1.17h-2.85v13.31Z"/>
      <path id="Trazado_9" data-name="Trazado 9" class="cls-1" d="M65.89,62.41v.84h-3.85v5.86h4.69v.84h-5.52v-13.98h5.52v.84h-4.69v5.69l3.85-.08h0Z"/>
      <path id="Trazado_10" data-name="Trazado 10" class="cls-1" d="M61.29,69.86h5.27v-.59h-4.6v-6.19h3.85v-.5h-3.85v-6.03h4.69v-.5h-5.27l-.08,13.81ZM66.89,70.19h-5.86v-14.4h5.86v1.17h-4.69v5.36h3.85v1.17h-3.85v5.61h4.69v1.09Z"/>
      <path id="Trazado_11" data-name="Trazado 11" class="cls-1" d="M75.35,69.94h-.92l-3.01-12.47v12.47h-.84v-13.98h1.34l2.93,12.47,2.93-12.47h1.34v14.06h-.92v-12.56l-2.85,12.47Z"/>
      <path id="Trazado_12" data-name="Trazado 12" class="cls-1" d="M78.45,69.86h.59v-13.81h-1.09l-3.1,12.97-3.1-12.97h-1.09v13.81h.5v-13.56l3.26,13.56h.67l3.26-13.64v13.64h.08ZM79.37,70.19h-1.26v-11.38l-2.68,11.38h-1.17l-2.68-11.38v11.38h-1.09v-14.4h1.59l2.85,11.97,2.85-11.97h1.59v14.4Z"/>
      <g id="Grupo_2" data-name="Grupo 2">
        <path id="Trazado_13" data-name="Trazado 13" class="cls-1" d="M100.29,59.31v1.17h-.92v-1.26c0-1.51-.59-2.68-2.18-2.68-1.51,0-2.18,1.17-2.18,2.68v7.37c0,1.51.59,2.59,2.18,2.59,1.51,0,2.18-1.09,2.18-2.59v-1.67h.92v1.59c0,2.01-.92,3.6-3.01,3.6s-3.01-1.51-3.01-3.6v-7.2c0-2.01.92-3.6,3.01-3.6s3.01,1.59,3.01,3.6"/>
      </g>
      <path id="Trazado_14" data-name="Trazado 14" class="cls-1" d="M105.73,66.09h4.1l-2.09-9.12-2.01,9.12ZM105.57,66.93l-.75,3.1h-.84l3.1-14.15h1.34l3.18,14.15h-.92l-.75-3.1h-4.35Z"/>
      <g id="Grupo_3" data-name="Grupo 3">
        <path id="Trazado_15" data-name="Trazado 15" class="cls-1" d="M118.12,63.33c1.67,0,2.34-.75,2.34-2.43v-1.67c0-1.51-.5-2.51-2.09-2.51h-2.01v6.61h1.76ZM118.37,55.96c2.18,0,3.01,1.42,3.01,3.43v1.51c0,2.26-1,3.35-3.26,3.35h-1.76v5.78h-.92v-14.06h2.93Z"/>
      </g>
      <rect id="Rect치ngulo_2" data-name="Rect치ngulo 2" class="cls-1" x="125.24" y="55.96" width=".92" height="14.06"/>
      <path id="Trazado_16" data-name="Trazado 16" class="cls-1" d="M132.6,70.02v-13.31h-2.85v-.84h6.7v.84h-2.85v13.31h-1Z"/>
      <path id="Trazado_17" data-name="Trazado 17" class="cls-1" d="M140.81,66.09h4.1l-2.09-9.12-2.01,9.12ZM140.64,66.93l-.75,3.1h-.84l3.1-14.15h1.34l3.18,14.15h-.92l-.75-3.1h-4.35Z"/>
      <path id="Trazado_18" data-name="Trazado 18" class="cls-1" d="M150.43,70.02v-14.06h.92v13.31h4.44v.84l-5.36-.08h0Z"/>
      <rect id="Rect치ngulo_3" data-name="Rect치ngulo 3" class="cls-1" x="86.9" y="50.19" width=".42" height="25.03"/>
    </g>
  </g>
</svg>