<?xml version="1.0" encoding="UTF-8"?>
<svg id="Capa_4" data-name="Capa 4" xmlns="http://www.w3.org/2000/svg" viewBox="0 0 177.4 125.4">
  <defs>
    <style>
      .cls-1 {
        fill: #fff;
        stroke-width: 0px;
      }
    </style>
  </defs>
  <path class="cls-1" d="M108.54,41.98s-3.62.93-4.03,4.65,3.31,3.93,3.31,3.93c0,0,3.72-.21,6.3-4.34,0,0-.52,9.3,7.03,8.58,7.54-.62,10.02-7.65,10.02-7.65,0,0-9.2-6.72-22.63-5.17Z"/>
  <g>
    <path class="cls-1" d="M113.81,46.01l1.03-1.65-.1,1.96s-.21,4.44,2.17,6.72c1.03,1.03,2.58,1.45,4.34,1.34,6.3-.52,8.89-5.58,9.51-7.03-1.55-1.03-8.27-4.96-17.57-5.17l-6.3,7.54c.62.31,1.14.31,1.24.31-.1,0,3.2-.31,5.68-4.03Z"/>
    <path class="cls-1" d="M128.59,28.54c-3.82-.83-6.41,2.48-7.13,5.06-.72,2.69-7.44,7.54-7.44,7.54l-.1.1c10.54.41,17.67,5.48,17.67,5.48l.31.21-.1.41c0,.1-2.69,7.34-10.54,8.06h-.72c-1.76,0-3.31-.52-4.44-1.65-1.76-1.76-2.27-4.34-2.38-5.99-2.58,3.1-5.68,3.31-5.79,3.31s-.93-.1-1.86-.52l-.52.62s-1.96,6.61-1.65,9.82c.31,3.31,6.61,10.95,14.06,11.57,7.44.52,21.39.62,26.97-17.67,5.58-18.19-12.61-25.53-16.33-26.35ZM138.51,55.31c-.1.1-.21.21-.41.21-.1,0-.21,0-.31-.1-.41-.41-.72-.62-1.14-.83-2.79,5.89-6.61,9.51-11.26,10.75-1.34.41-2.79.52-4.03.52-6.3,0-11.57-3.62-11.88-3.82-.21-.21-.31-.52-.1-.72.21-.21.52-.31.72-.1.1.1,7.54,5.17,15.09,3.1,4.44-1.24,7.96-4.65,10.64-10.23-.83-.31-1.34-.41-1.34-.41-.31,0-.52-.21-.52-.52s.21-.52.52-.52c.1,0,1.96.1,4.03,2.07.21.1.21.41,0,.62Z"/>
  </g>
  <path class="cls-1" d="M32.07,84.66s-10.23-10.23-10.23-10.02,8.58,17.57,16.54,18.09c0,0-6.41-27.8-5.48-32.86,0,0,4.86,18.19,10.54,18.81,0,0,.52-30.8,2.07-34.62,0,0,7.44,36.69,16.02,39.89,0,0-13.33-41.96-13.54-57.36,0,0-10.75,8.68-7.54,41.13,0,0-7.75-16.33-7.13-26.56-.72-1.24-8.47,28.94-1.24,43.51Z"/>
  <path class="cls-1" d="M64.93,47.04s-5.68,16.02-.93,19.33c4.75,3.31,1.45-10.75,1.45-10.75,0,0-1.24-4.44,1.14-5.06s3.41,6.41,3.41,6.41c0,0,3.1,9.71,6.1,12.09,0,0-5.79-1.65-6.92-7.13,0,0,0,11.47-5.37,10.02-5.27-1.45-7.65-8.06-5.27-16.23,2.27-8.27,6.41-8.68,6.41-8.68Z"/>
  <path class="cls-1" d="M74.44,48.28s-1.65,20.26,4.24,20.88c5.79.52,4.44-13.85,4.44-13.85,0,0,.72,10.95,8.78,12.61,0,0-5.17-9.3-5.27-15.71s-.62-9.51-2.38-9.09c-1.86.52-3.62,2.89-4.13,7.44s0,12.19-1.45,12.09-2.58-14.26-2.58-14.26c0,0-.83-2.48-1.65-.1Z"/>
  <path class="cls-1" d="M96.97,41.77s-9.82,8.78-7.34,18.71,8.58,3.62,8.58,3.62c0,0-.72,16.85,7.85,18.91,0,0-4.55-10.64-4.65-23.46s-.1-11.78-.1-11.78c0,0,.1-3.31-1.76-2.89s-1.86,5.68-1.86,5.68c0,0-.52,11.57-2.07,10.44-1.55-1.03-3-9.51,1.34-19.22Z"/>
  <path class="cls-1" d="M120.94,80.01s-1.65,4.44-1.86,7.44c-.21,3-.72,5.89-.72,5.89,0,0-.83.62-.62,1.45.21.83.83,2.17,4.34,1.65,3.51-.41,6.82-5.48,7.65-9.82.72-4.34-1.03-11.57-8.99-12.4,0,0,5.79,5.06,5.58,9.61-.21,4.65-4.03,9.51-4.75,9.51-.93-.1-.62-13.33-.62-13.33Z"/>
  <path class="cls-1" d="M134.38,87.45s-2.27,3.62-1.76,3.51,6.3-4.13,3.82-8.06c-2.48-3.93-6.51,6.41-6.82,7.65-.41,1.96-.62,6.61,2.38,5.58,3-1.03,4.44-6.2,4.44-6.2,0,0-5.06,5.68-5.48,3.2-.52-2.38,3.51-10.23,3.41-5.68Z"/>
  <path class="cls-1" d="M142.34,88.07s2.89-3.2,2.48-3.93-4.24-3.1-7.03,1.96c-2.69,5.06.31,11.26,2.69,9.4,2.48-1.86,3.82-6.1,3.82-6.1,0,0-7.85,6.51-4.65-1.34.1,0,2.79-5.58,2.69,0Z"/>
  <path class="cls-1" d="M148.85,73.71c-.1.31-4.55,19.95-4.55,19.95,0,0-.1,2.89,1.14,2.27s2.79-8.27,2.79-8.27c0,0,2.27,10.13,6.72,11.16,0,0-3.82-7.54-3.62-10.02.21-2.48,4.24-6.61,4.24-6.61,0,0-.83-1.76-5.99,2.07,0,0,.41-11.47.31-11.37-.1-.1-.52-1.24-1.03.83Z"/>
</svg>