<?xml version="1.0" encoding="utf-8"?>
<!-- Generator: Adobe Illustrator 27.0.1, SVG Export Plug-In . SVG Version: 6.00 Build 0)  -->
<svg version="1.1" id="Capa_1" xmlns="http://www.w3.org/2000/svg" xmlns:xlink="http://www.w3.org/1999/xlink" x="0px" y="0px"
	 viewBox="0 0 177.4 125.4" style="enable-background:new 0 0 177.4 125.4;" xml:space="preserve">
<style type="text/css">
	.st0{opacity:0.48;fill:#FFFFFF;}
	.st1{opacity:0.66;fill:#FFFFFF;}
	.st2{fill:#FFFFFF;}
	.st3{opacity:0.74;fill:#FFFFFF;}
	.st4{fill-rule:evenodd;clip-rule:evenodd;fill:#FFFFFF;}
	.st5{fill:#1D2A4C;}
</style>
<g>
	<path class="st2" d="M107.9,42.7c0,0-3.5,0.9-3.9,4.5c-0.4,3.6,3.2,3.8,3.2,3.8s3.6-0.2,6.1-4.2c0,0-0.5,9,6.8,8.3
		c7.3-0.6,9.7-7.4,9.7-7.4S120.9,41.2,107.9,42.7z"/>
	<g>
		<path class="st2" d="M113,46.6l1-1.6l-0.1,1.9c0,0-0.2,4.3,2.1,6.5c1,1,2.5,1.4,4.2,1.3c6.1-0.5,8.6-5.4,9.2-6.8
			c-1.5-1-8-4.8-17-5l-6.1,7.3c0.6,0.3,1.1,0.3,1.2,0.3C107.4,50.5,110.6,50.2,113,46.6z"/>
		<path class="st2" d="M127.3,29.7c-3.7-0.8-6.2,2.4-6.9,4.9c-0.7,2.6-7.2,7.3-7.2,7.3l-0.1,0.1c10.2,0.4,17.1,5.3,17.1,5.3l0.3,0.2
			l-0.1,0.4c0,0.1-2.6,7.1-10.2,7.8c-0.3,0-0.5,0-0.7,0c-1.7,0-3.2-0.5-4.3-1.6c-1.7-1.7-2.2-4.2-2.3-5.8c-2.5,3-5.5,3.2-5.6,3.2
			c-0.1,0-0.9-0.1-1.8-0.5l-0.5,0.6c0,0-1.9,6.4-1.6,9.5c0.3,3.2,6.4,10.6,13.6,11.2c7.2,0.5,20.7,0.6,26.1-17.1
			C148.5,37.6,130.9,30.5,127.3,29.7z M136.9,55.6c-0.1,0.1-0.2,0.2-0.4,0.2c-0.1,0-0.2,0-0.3-0.1c-0.4-0.4-0.7-0.6-1.1-0.8
			c-2.7,5.7-6.4,9.2-10.9,10.4c-1.3,0.4-2.7,0.5-3.9,0.5c-6.1,0-11.2-3.5-11.5-3.7c-0.2-0.2-0.3-0.5-0.1-0.7
			c0.2-0.2,0.5-0.3,0.7-0.1c0.1,0.1,7.3,5,14.6,3c4.3-1.2,7.7-4.5,10.3-9.9c-0.8-0.3-1.3-0.4-1.3-0.4c-0.3,0-0.5-0.2-0.5-0.5
			s0.2-0.5,0.5-0.5c0.1,0,1.9,0.1,3.9,2C137.1,55.1,137.1,55.4,136.9,55.6z"/>
	</g>
	<path class="st2" d="M33.9,84c0,0-9.9-9.9-9.9-9.7c0,0.2,8.3,17,16,17.5c0,0-6.2-26.9-5.3-31.8c0,0,4.7,17.6,10.2,18.2
		c0,0,0.5-29.8,2-33.5c0,0,7.2,35.5,15.5,38.6c0,0-12.9-40.6-13.1-55.5c0,0-10.4,8.4-7.3,39.8c0,0-7.5-15.8-6.9-25.7
		C34.4,40.7,26.9,69.9,33.9,84z"/>
	<path class="st2" d="M65.7,47.6c0,0-5.5,15.5-0.9,18.7c4.6,3.2,1.4-10.4,1.4-10.4S65,51.6,67.3,51c2.3-0.6,3.3,6.2,3.3,6.2
		s3,9.4,5.9,11.7c0,0-5.6-1.6-6.7-6.9c0,0,0,11.1-5.2,9.7c-5.1-1.4-7.4-7.8-5.1-15.7C61.7,48,65.7,47.6,65.7,47.6z"/>
	<path class="st2" d="M74.9,48.8c0,0-1.6,19.6,4.1,20.2c5.6,0.5,4.3-13.4,4.3-13.4s0.7,10.6,8.5,12.2c0,0-5-9-5.1-15.2
		s-0.6-9.2-2.3-8.8c-1.8,0.5-3.5,2.8-4,7.2s0,11.8-1.4,11.7s-2.5-13.8-2.5-13.8S75.7,46.5,74.9,48.8z"/>
	<path class="st2" d="M96.7,42.5c0,0-9.5,8.5-7.1,18.1c2.4,9.6,8.3,3.5,8.3,3.5s-0.7,16.3,7.6,18.3c0,0-4.4-10.3-4.5-22.7
		s-0.1-11.4-0.1-11.4s0.1-3.2-1.7-2.8S97.4,51,97.4,51s-0.5,11.2-2,10.1C93.9,60.1,92.5,51.9,96.7,42.5z"/>
	<path class="st2" d="M119.9,79.5c0,0-1.6,4.3-1.8,7.2c-0.2,2.9-0.7,5.7-0.7,5.7s-0.8,0.6-0.6,1.4c0.2,0.8,0.8,2.1,4.2,1.6
		c3.4-0.4,6.6-5.3,7.4-9.5c0.7-4.2-1-11.2-8.7-12c0,0,5.6,4.9,5.4,9.3c-0.2,4.5-3.9,9.2-4.6,9.2C119.6,92.3,119.9,79.5,119.9,79.5z"
		/>
	<path class="st2" d="M132.9,86.7c0,0-2.2,3.5-1.7,3.4c0.5-0.1,6.1-4,3.7-7.8s-6.3,6.2-6.6,7.4c-0.4,1.9-0.6,6.4,2.3,5.4
		c2.9-1,4.3-6,4.3-6s-4.9,5.5-5.3,3.1C129.1,89.9,133,82.3,132.9,86.7z"/>
	<path class="st2" d="M140.6,87.3c0,0,2.8-3.1,2.4-3.8s-4.1-3-6.8,1.9c-2.6,4.9,0.3,10.9,2.6,9.1c2.4-1.8,3.7-5.9,3.7-5.9
		s-7.6,6.3-4.5-1.3C138.1,87.3,140.7,81.9,140.6,87.3z"/>
	<path class="st2" d="M146.9,73.4c-0.1,0.3-4.4,19.3-4.4,19.3s-0.1,2.8,1.1,2.2c1.2-0.6,2.7-8,2.7-8s2.2,9.8,6.5,10.8
		c0,0-3.7-7.3-3.5-9.7c0.2-2.4,4.1-6.4,4.1-6.4s-0.8-1.7-5.8,2c0,0,0.4-11.1,0.3-11C147.8,72.5,147.4,71.4,146.9,73.4z"/>
</g>
</svg>
