<?xml version="1.0" encoding="UTF-8"?>
<svg id="Capa_10" data-name="Capa 10" xmlns="http://www.w3.org/2000/svg" viewBox="0 0 177.4 125.4">
  <defs>
    <style>
      .cls-1 {
        fill: #fff;
        stroke-width: 0px;
      }
    </style>
  </defs>
  <g>
    <path class="cls-1" d="M61.36,63.12c0-.09,0-.19-.09-.28s-.46-.56-5.84-.83c.46-3.43-.37-6.67-2.41-9.09-2.04-2.41-5.1-3.8-8.62-3.8-5.1,0-10.29,2.78-13.63,7.23-.37,0-1.3.09-2.5.19-.74.09-1.39.09-1.95.19-3.06.37-3.24.74-3.43.83h0c-1.21,2.22-1.21,5.93-1.21,6.03h0v.19c.09.19.28.74,5.38.74h.37v.19h0v1.39c0,.28,0,.46.09.65v.28c0,.19,0,.28.09.46v.19c0,.19.09.37.09.46v.19h0c0,.19.09.28.09.46h0l.09.19h0c1.48,4.54,5.47,7.32,10.57,7.32,4.82,0,9.83-2.6,13.16-6.67,4.91-.19,6.95-.46,7.69-.74v.65l.56-1.02v-.09c1.39-1.67,1.48-5.01,1.48-5.28ZM59.79,68.4c-.19-.09-.56-.09-1.11-.09h-1.11c-1.85-.09-2.5-.09-4.36-.19h-13.91c-.09,0-1.58.09-1.67.09-.74,0-1.58.09-2.32.09h-.09c-.28,0-.56,0-.83.09h-1.58c-.19,0-.46,0-.65.09h-.46c-.19,0-.46,0-.65.09h-.46c-.28,0-.46,0-.74.09h-.46c-.28,0-.46,0-.74.09h-.28c0-.09-.09-.19-.09-.28h0v-.09c0-.09-.09-.28-.09-.46v-.19c0-.19,0-.28-.09-.46h0v-2.04h0v-.74c0-.37.09-.65.19-1.02v-.09c2.69-.28,7.32-.56,9.92-.65,6.3-.19,12.24-.19,16.78.09h0c3.8.19,5.28.46,5.66.56.19.37,0,3.15-.83,5.01ZM23.54,58.11c.19-.19,1.39-.37,2.97-.56h.09c.46-.09.93-.09,1.39-.19,4.08-.37,10.2-.56,10.2-.56.19,0,.28-.09.28-.28s-.09-.28-.28-.28h0c-.09,0-3.24.09-6.58.28,3.24-4.08,8.07-6.58,12.79-6.58,3.34,0,6.3,1.3,8.25,3.52,1.95,2.32,2.69,5.38,2.22,8.62h0c-4.54-.19-10.38-.19-16.5,0-2.78.09-7.6.46-10.2.65h-.19c-.19,0-.46,0-.74.09-.65.09-1.39.09-2.04.19-1.58.19-2.41.37-2.78.46,0-1.21.19-3.71,1.11-5.38ZM22.8,63.86c.74-.09,1.95-.28,2.5-.37.56-.09,1.3-.19,1.95-.19.19,0,.37,0,.56-.09v.56c0,.09,0,.28-.09.37h-.46c-2.32,0-3.8-.09-4.45-.28ZM38.74,76.1c-4.82,0-8.62-2.6-10.01-6.77.19,0,.37,0,.56-.09h.37c.28,0,.46,0,.74-.09h.37c.28,0,.46,0,.74-.09h.46c.28,0,.46,0,.74-.09h.37c.28,0,.56,0,.83-.09h.28c.37,0,.65,0,1.02-.09h.09c.83,0,1.58-.09,2.41-.09,0,0,.83,0,1.39-.09h1.48c3.52-.09,9.36,0,11.5,0l-.09.09c0,.09-.09.09-.09.19-.09.09-.09.19-.19.19,0,.09-.09.09-.09.19-.09.09-.09.19-.19.19-3.15,4.08-7.97,6.67-12.7,6.67ZM52.46,69.24c.09-.09.09-.19.19-.28,0-.09.09-.09.09-.19s.09-.09.09-.19h.37c1.76,0,2.5,0,4.26.19h.28c.28,0,.74,0,1.11.09-.93.19-2.97.37-6.58.56q.09-.09.19-.19Z"/>
    <path class="cls-1" d="M83.24,57.81c-.48-.39-1.06-.58-1.06-.58-.48-.1-.1-.19-.1-.19.39,0,2.03-.1,3.19-.77,1.26-.87,1.93-1.84,1.84-3.38,0-.58-.1-.97-.48-1.55-.29-.48-.68-.77-1.16-.97-.48-.29-1.06-.48-1.74-.58-.68-.1-1.45-.19-2.32-.19h-6.09c-.58,0-1.16.48-1.35,1.16l-2.22,10.73c-.19,1.06.77,1.16,1.06,1.16h3.67l1.06-5.41c.29,0,.97-.1,1.35.58,1.93,2.9,2.9,4.83,2.9,4.83h5.41c-2.22-3.09-3-3.96-3.96-4.83ZM81.6,54.72c-.58.39-1.35.58-2.32.58h-1.16l.77-3.48h1.16c.77,0,1.35.1,1.74.29s.58.58.68,1.16c-.1.58-.29,1.06-.87,1.45Z"/>
    <path class="cls-1" d="M151.37,60.23l2.22-10.53h-3.77c-.58,0-1.16.48-1.35,1.16l-2.22,10.73c-.19,1.06.77,1.16,1.06,1.16h6.86c.58,0,1.16-.48,1.26-1.06l.29-1.45h-4.35Z"/>
    <path class="cls-1" d="M135.52,49.41c-4.16,1.16-7.54,5.31-6.86,9.08.77,3.77,5.03,5.41,9.57,4.54,4.74-1.16,7.54-5.12,7.05-8.89-.77-3.87-4.83-5.8-9.76-4.74ZM139,58.2c-1.64,1.93-3.87,2.51-4.93,1.35-1.16-1.16-.68-3.67.97-5.6s3.87-2.51,4.93-1.35c1.06,1.16.68,3.67-.97,5.6Z"/>
    <path class="cls-1" d="M90.78,50.76l-2.22,10.73c-.19,1.06.77,1.16,1.06,1.16h8.21c.58,0,1.16-.48,1.26-1.06l.29-1.45h-5.7l.58-2.71h4.64c.58,0,1.16-.48,1.35-1.16l.29-1.35h-5.7l.58-2.8h4.64c.58,0,1.16-.48,1.35-1.16l.29-1.35h-9.57c-.68.1-1.26.58-1.35,1.16Z"/>
    <path class="cls-1" d="M129.63,51.05l.29-1.35h-4.45c-.68,0-4.83.1-5.6,4.06l-.68,3.09c-.48,2.61-.68,3.38-3.38,3.38h-1.64c-.68.1-1.16.39-1.35,1.16l-.29,1.35h6.86c.29,0,3.77-.1,4.54-4.06l.68-3.09c.48-2.61.68-3.38,3.38-3.38h.29c.68,0,1.16-.48,1.35-1.16Z"/>
    <path class="cls-1" d="M117.16,53.27c0-.68-.19-1.35-.48-1.74-.29-.48-.77-.77-1.26-1.06-.58-.29-1.16-.48-1.93-.58s-1.55-.19-2.61-.19h-5.41c-.58,0-1.16.48-1.35,1.16l-2.22,10.73c-.19,1.26,1.06,1.16,1.06,1.16h3.58l.97-4.54h1.45c2.71,0,4.74-.39,6.09-1.26,1.55-.87,2.13-2.13,2.13-3.67ZM111.46,55.01c-.68.39-1.55.58-2.71.58h-.68l.77-3.87h.87c.87,0,1.45.1,1.93.39.48.29.68.58.68,1.16.1.68-.19,1.35-.87,1.74Z"/>
  </g>
  <g>
    <path class="cls-1" d="M77.25,70.88l-2.37,4.2h-1.66l-.79-4.22-1.18,5.29h-1.5l1.87-8.21h1.63l1.07,5.56,3.11-5.56h1.68l-1.04,8.21h-1.53l.72-5.28Z"/>
    <path class="cls-1" d="M84.72,74.41h-3.05l-.83,1.75h-1.65l4.03-8.21h2.07l1.23,8.21h-1.59l-.22-1.75ZM82.27,73.13h2.29l-.44-3.96-1.85,3.96Z"/>
    <path class="cls-1" d="M91.27,73.43h-1.54l-.47,2.72h-1.53l1.44-8.21h3.09c1.68,0,2.45.65,2.45,1.76,0,.16-.01.3-.05.51l-.2,1.11c-.18,1.05-.54,1.59-1.59,1.91l1.57,2.92h-1.7l-1.48-2.72ZM93.12,70.35c.02-.14.04-.26.04-.35,0-.53-.32-.72-1.01-.72h-1.69l-.48,2.82h1.71c.94,0,1.17-.31,1.29-1l.14-.76Z"/>
    <path class="cls-1" d="M98.31,76.16l1.45-8.21h3.01c1.73,0,2.38.91,2.38,1.96,0,.17-.01.32-.05.52l-.63,3.56c-.22,1.26-.8,2.17-2.96,2.17h-3.21ZM103.56,70.49c.02-.14.04-.27.04-.37,0-.53-.28-.83-1.17-.83h-1.38l-.97,5.52h1.45c1.07,0,1.34-.41,1.49-1.25l.54-3.08Z"/>
    <path class="cls-1" d="M107.2,67.95h5.04l-.25,1.34h-3.5l-.35,1.96h3.24l-.23,1.34h-3.24l-.39,2.22h3.5l-.22,1.34h-5.04l1.44-8.21Z"/>
    <path class="cls-1" d="M115.12,74.3c0-.21.02-.38.05-.52l.63-3.56c.31-1.75,1.28-2.39,3.28-2.39.76,0,1.48.12,2.22.32l-.32,1.31c-.65-.14-1.48-.25-2.05-.25-1.04,0-1.47.23-1.65,1.29l-.54,3.07c-.02.15-.05.31-.05.44,0,.62.33.89,1.23.89.58,0,1.37-.07,2.07-.21l.05,1.31c-.67.19-1.54.28-2.38.28-1.76,0-2.54-.84-2.54-1.98Z"/>
    <path class="cls-1" d="M121.34,74.25c0-.17.01-.36.05-.54l.6-3.42c.28-1.62,1.2-2.47,3.45-2.47,1.87,0,2.75.96,2.75,2.17,0,.15-.01.28-.04.43l-.59,3.35c-.3,1.66-1.16,2.5-3.54,2.5-1.87,0-2.69-.84-2.69-2.03ZM126.63,70.43c.01-.1.02-.2.02-.28,0-.62-.36-.97-1.37-.97-1.1,0-1.64.42-1.79,1.26l-.57,3.22c-.02.15-.04.28-.04.41,0,.58.33.89,1.38.89,1.12,0,1.64-.46,1.79-1.28l.57-3.23Z"/>
    <path class="cls-1" d="M132.35,73.43h-1.54l-.47,2.72h-1.53l1.44-8.21h3.09c1.68,0,2.45.65,2.45,1.76,0,.16-.01.3-.05.51l-.2,1.11c-.19,1.05-.54,1.59-1.59,1.91l1.57,2.92h-1.7l-1.48-2.72ZM134.2,70.35c.02-.14.04-.26.04-.35,0-.53-.32-.72-1.01-.72h-1.69l-.48,2.82h1.71c.94,0,1.17-.31,1.29-1l.14-.76Z"/>
    <path class="cls-1" d="M139.44,76.16h-1.53l1.21-6.87h-2.31l.23-1.34h6.14l-.25,1.34h-2.29l-1.21,6.87Z"/>
    <path class="cls-1" d="M144.4,67.95h5.04l-.25,1.34h-3.5l-.35,1.96h3.24l-.23,1.34h-3.24l-.39,2.22h3.5l-.22,1.34h-5.04l1.44-8.21ZM146.17,66.6c.62-.36,1.01-.59,1.64-1.05l.51.89c-.54.38-1.02.67-1.69.96l-.46-.8Z"/>
    <path class="cls-1" d="M149.39,75.78l.33-1.18c.79.23,1.47.39,2.23.39,1.16,0,1.36-.25,1.5-1.06.04-.21.06-.38.06-.52,0-.43-.27-.53-1.36-.81-1.43-.36-1.85-.92-1.85-1.8,0-.25.04-.52.09-.81.31-1.73.86-2.16,3.02-2.16.73,0,1.52.09,2.29.32l-.26,1.27c-.78-.19-1.48-.28-2.16-.28-1.07,0-1.28.15-1.42.95-.04.21-.06.38-.06.52,0,.41.27.54,1.31.81,1.48.38,1.94.81,1.94,1.71,0,.23-.04.49-.09.8-.3,1.66-.78,2.35-3.13,2.35-.69,0-1.78-.17-2.45-.51Z"/>
  </g>
</svg>