<?xml version="1.0" encoding="UTF-8"?>
<svg id="Capa_5" data-name="Capa 5" xmlns="http://www.w3.org/2000/svg" viewBox="0 0 177.4 125.4">
  <defs>
    <style>
      .cls-1 {
        fill: #fff;
        stroke-width: 0px;
      }
    </style>
  </defs>
  <path class="cls-1" d="M21.68,51.84h128.44s1.78.08,2.54.42c2.12,1.02,3.05,2.8,3.05,5.09v16.2H21.68v-21.72ZM35.77,68.89s0,.08,0,0c1.7.08,3.48.08,5.17.08,2.38,0,4.07-1.7,4.07-4.16v-8.57c0-.51-.17-.59-.59-.59h-5.77c-.76,0-1.61.25-2.38.42-.25.08-.51.08-.85,0-.68-.17-1.36-.42-2.04-.42-2.12-.08-4.16,0-6.28,0-.42,0-.51.17-.51.59v4.07c0,1.7,0,3.48.08,5.17.08,1.61,1.61,3.22,3.22,3.22,1.95.25,3.9.17,5.85.17ZM120.43,62.62c-.08,0-.08.08-.17.08,0-.08-.08-.17-.08-.25-1.19-2.04-2.29-4.07-3.48-6.11-.34-.59-.85-.85-1.53-.85h-4.92c-.34,0-.51.17-.51.51v1.87c0,.34.17.51.51.51h1.19v10.94c0,.51.08.68.68.68h3.05c.42,0,.59-.17.59-.59v-6.7c.08.08.17.17.17.17,1.27,2.12,2.54,4.24,3.73,6.45.25.42.51.59,1.02.59h3.31c.59,0,.76-.17.76-.76v-12.98q0-.76-.85-.76h-2.71c-.51,0-.76.08-.68.68v4.58c-.08.59-.08,1.27-.08,1.95ZM53.49,59.9v.68c0,1.53,0,3.05.08,4.5.08,1.87.93,3.22,2.54,4.16,1.78,1.02,3.73,1.19,5.68.76,2.8-.68,4.33-2.88,4.33-5.6v-8.4c0-.51-.17-.59-.68-.59-1.02,0-2.04.08-3.05,0-.59,0-.68.17-.68.68v7.38c0,.59-.08,1.19-.17,1.78-.17.93-.85,1.36-1.95,1.27-.93-.08-1.44-.51-1.53-1.44-.08-.51-.08-1.1-.08-1.61v-7.38c0-.51-.17-.68-.68-.68h-7.13c-.51,0-.59.17-.59.68,0,1.02.08,2.04,0,3.05,0,.59.17.76.76.76,1.02,0,2.04,0,3.14,0ZM77.93,62.95c.08,0,.17-.17.25-.17,2.21-1.53,2.12-4.92-.17-6.36-1.02-.59-2.12-.93-3.31-.93h-5.51c-.51,0-.68.17-.68.68v13.15c0,.51.17.68.68.68h3.22c.51,0,.68-.17.68-.68v-4.07c0-.68.17-.85.76-.51.25.08.42.34.51.59.59,1.36,1.1,2.71,1.61,4.07.17.51.42.68,1.02.68h2.97q1.1,0,.68-1.02c0-.08-.08-.17-.08-.25-.93-1.95-1.78-3.9-2.63-5.85ZM109.82,62.78c0-4.16-3.22-7.55-7.38-7.63-4.07-.08-7.47,3.31-7.55,7.3-.08,4.41,3.39,7.55,7.04,7.72,4.41.25,7.89-3.39,7.89-7.38ZM136.8,69.91h4.24c.17,0,.42-.25.51-.42.25-.68.51-1.36.76-2.04.08-.17.42-.42.59-.42h3.9c.17,0,.42.17.51.34.34.68.59,1.36.85,2.12.17.42.42.59.85.59h3.56c.51,0,.59-.17.42-.59-.25-.59-.51-1.27-.76-1.87-1.44-3.56-2.88-7.13-4.41-10.6-.34-.76-.76-1.44-1.7-1.44h-5.77c-.34,0-.51.17-.51.51v2.04c0,.34.17.51.51.51h1.1c-1.44,3.65-2.97,7.38-4.67,11.28ZM80.9,62.36c0,3.22,1.19,5.51,3.82,6.87,2.88,1.53,5.85,1.19,8.82.25.42-.17.51-.42.42-.76-.17-.85-.25-1.7-.34-2.63-.08-.42-.17-.51-.59-.42-.93.34-1.87.59-2.8.76-1.7.34-3.14-.25-4.16-1.7-.93-1.36-.68-2.88.08-4.24s2.21-1.7,3.65-1.61c1.1.08,2.12.51,3.22.85.34.08.59.17.68-.25.08-1.02.17-2.04.25-3.05,0-.17-.25-.42-.42-.51-.85-.25-1.7-.42-2.54-.59-1.87-.42-3.73-.34-5.51.51-2.97,1.44-4.58,3.65-4.58,6.53ZM130.27,70.25c1.87-.08,3.14-.42,4.24-1.1,2.46-1.44,2.88-4.84.93-6.62-.68-.68-1.61-1.1-2.46-1.61-.59-.34-1.27-.59-1.87-1.02-.25-.17-.34-.51-.51-.76.25-.17.51-.34.76-.34,1.36-.17,2.63.17,3.82.76.42.17.59.17.68-.25.08-1.02.17-1.95.25-2.97,0-.17-.17-.42-.34-.51-.68-.25-1.44-.34-2.12-.51-1.78-.51-3.56-.25-5.17.59-2.21,1.1-2.97,3.56-1.78,5.68.51,1.02,1.53,1.53,2.46,2.12.85.51,1.78.93,2.63,1.53.51.34.51.76-.08,1.1-.68.42-1.44.34-2.21.08-.68-.25-1.27-.51-1.95-.76-.25-.08-.51-.08-.51.25-.08,1.02-.25,2.12-.25,3.14,0,.17.17.42.34.51,1.19.25,2.46.51,3.14.68Z"/>
  <path class="cls-1" d="M33.14,58.46c-.34,1.19-.76,2.21-.93,3.31-.17,1.27-.08,2.54-.08,3.82,0,.51-.17.68-.59.59h-.85c-.85,0-1.36-.51-1.36-1.27v-5.94c0-.17.25-.42.34-.42,1.19-.08,2.38-.08,3.48-.08Z"/>
  <path class="cls-1" d="M38.39,58.46h3.56c.08,0,.34.25.34.42v6.02c0,.76-.59,1.19-1.27,1.27q-1.53.08-1.53-1.44c0-1.53.17-3.05-.34-4.5-.25-.59-.51-1.1-.76-1.78Z"/>
  <path class="cls-1" d="M35.77,59.73c.76.85,1.02,1.7,1.02,2.54v3.31c0,.34-.08.51-.51.51-1.78,0-1.53.25-1.44-1.44,0-1.19.08-2.38.25-3.56.08-.34.42-.76.68-1.36Z"/>
  <path class="cls-1" d="M73.01,61.09v-1.87q0-.08.08-.25c.76-.08,1.53-.08,2.04.51.17.25.17.85,0,1.1-.59.68-1.36.51-2.12.51Z"/>
  <path class="cls-1" d="M105.41,62.78c0,1.44-.51,2.54-1.78,3.31-1.1.68-2.29.42-3.31-.42-1.53-1.44-1.53-4.33,0-5.85,1.36-1.27,3.39-1.1,4.41.42.51.76.68,1.44.68,2.54Z"/>
  <path class="cls-1" d="M144.01,63.29c.34-.85.59-1.53.93-2.46.34.93.68,1.61.93,2.46h-1.87Z"/>
</svg>