<?xml version="1.0" encoding="utf-8"?>
<!-- Generator: Adobe Illustrator 27.0.1, SVG Export Plug-In . SVG Version: 6.00 Build 0)  -->
<svg version="1.1" id="Capa_1" xmlns="http://www.w3.org/2000/svg" xmlns:xlink="http://www.w3.org/1999/xlink" x="0px" y="0px"
	 viewBox="0 0 177.4 125.4" style="enable-background:new 0 0 177.4 125.4;" xml:space="preserve">
<style type="text/css">
	.st0{opacity:0.48;fill:#FFFFFF;}
	.st1{opacity:0.66;fill:#FFFFFF;}
	.st2{fill:#FFFFFF;}
	.st3{opacity:0.74;fill:#FFFFFF;}
	.st4{fill-rule:evenodd;clip-rule:evenodd;fill:#FFFFFF;}
	.st5{fill:#1D2A4C;}
</style>
<g>
	<path class="st2" d="M9.6,49.9h151.4c0,0,2.1,0.1,3,0.5c2.5,1.2,3.6,3.3,3.6,6c0,6.1,0,12.2,0,18.4c0,0.2,0,0.7,0,0.7H9.6V49.9z
		 M26.2,70C26.2,70,26.2,70.1,26.2,70c2,0.1,4.1,0.1,6.1,0.1c2.8,0,4.8-2,4.8-4.9c0-3.4,0-6.7,0-10.1c0-0.6-0.2-0.7-0.7-0.7
		c-2.3,0-4.6,0-6.8,0c-0.9,0-1.9,0.3-2.8,0.5c-0.3,0.1-0.6,0.1-1,0c-0.8-0.2-1.6-0.5-2.4-0.5c-2.5-0.1-4.9,0-7.4,0
		c-0.5,0-0.6,0.2-0.6,0.7c0,1.6,0,3.2,0,4.8c0,2,0,4.1,0.1,6.1c0.1,1.9,1.9,3.8,3.8,3.8C21.6,70.1,23.9,70,26.2,70z M126,62.6
		c-0.1,0-0.1,0.1-0.2,0.1c0-0.1-0.1-0.2-0.1-0.3c-1.4-2.4-2.7-4.8-4.1-7.2c-0.4-0.7-1-1-1.8-1c-1.9,0-3.9,0-5.8,0
		c-0.4,0-0.6,0.2-0.6,0.6c0,0.7,0,1.4,0,2.2c0,0.4,0.2,0.6,0.6,0.6c0.5,0,0.9,0,1.4,0c0,0.3,0,0.6,0,0.9c0,4,0,8,0,12
		c0,0.6,0.1,0.8,0.8,0.8c1.2,0,2.4,0,3.6,0c0.5,0,0.7-0.2,0.7-0.7c0-2.3,0-4.6,0-6.9c0-0.3,0-0.6,0-1c0.1,0.1,0.2,0.2,0.2,0.2
		c1.5,2.5,3,5,4.4,7.6c0.3,0.5,0.6,0.7,1.2,0.7c1.3,0,2.6,0,3.9,0c0.7,0,0.9-0.2,0.9-0.9c0-2.4,0-4.7,0-7.1c0-2.7,0-5.5,0-8.2
		c0-0.9,0-0.9-1-0.9c-1.1,0-2.1,0-3.2,0c-0.6,0-0.9,0.1-0.8,0.8c0,1.8,0,3.6,0,5.4C126,61,126,61.8,126,62.6z M47.1,59.4
		c0,0.3,0,0.5,0,0.8c0,1.8,0,3.6,0.1,5.3c0.1,2.2,1.1,3.8,3,4.9c2.1,1.2,4.4,1.4,6.7,0.9c3.3-0.8,5.1-3.4,5.1-6.6c0-3.3,0-6.6,0-9.9
		c0-0.6-0.2-0.7-0.8-0.7c-1.2,0-2.4,0.1-3.6,0c-0.7,0-0.8,0.2-0.8,0.8c0,2.9,0,5.8,0,8.7c0,0.7-0.1,1.4-0.2,2.1
		c-0.2,1.1-1,1.6-2.3,1.5c-1.1-0.1-1.7-0.6-1.8-1.7c-0.1-0.6-0.1-1.3-0.1-1.9c0-2.9,0-5.8,0-8.7c0-0.6-0.2-0.8-0.8-0.8
		c-2.8,0-5.6,0-8.4,0c-0.6,0-0.7,0.2-0.7,0.8c0,1.2,0.1,2.4,0,3.6c0,0.7,0.2,0.9,0.9,0.9C44.6,59.4,45.8,59.4,47.1,59.4z M75.9,63
		c0.1,0,0.2-0.2,0.3-0.2c2.6-1.8,2.5-5.8-0.2-7.5c-1.2-0.7-2.5-1.1-3.9-1.1c-2.2,0-4.4,0-6.5,0c-0.6,0-0.8,0.2-0.8,0.8
		c0,5.2,0,10.4,0,15.5c0,0.6,0.2,0.8,0.8,0.8c1.3,0,2.6,0,3.8,0c0.6,0,0.8-0.2,0.8-0.8c0-1.6,0-3.2,0-4.8c0-0.8,0.2-1,0.9-0.6
		c0.3,0.1,0.5,0.4,0.6,0.7c0.7,1.6,1.3,3.2,1.9,4.8c0.2,0.6,0.5,0.8,1.2,0.8c1.2,0,2.3,0,3.5,0c1.3,0,1.3,0,0.8-1.2
		c0-0.1-0.1-0.2-0.1-0.3C77.9,67.6,76.9,65.3,75.9,63z M113.5,62.8c0-4.9-3.8-8.9-8.7-9c-4.8-0.1-8.8,3.9-8.9,8.6
		c-0.1,5.2,4,8.9,8.3,9.1C109.4,71.8,113.5,67.5,113.5,62.8z M145.3,71.2c1.8,0,3.4,0,5,0c0.2,0,0.5-0.3,0.6-0.5
		c0.3-0.8,0.6-1.6,0.9-2.4c0.1-0.2,0.5-0.5,0.7-0.5c1.5,0,3.1,0,4.6,0c0.2,0,0.5,0.2,0.6,0.4c0.4,0.8,0.7,1.6,1,2.5
		c0.2,0.5,0.5,0.7,1,0.7c1.4,0,2.8,0,4.2,0c0.6,0,0.7-0.2,0.5-0.7c-0.3-0.7-0.6-1.5-0.9-2.2c-1.7-4.2-3.4-8.4-5.2-12.5
		c-0.4-0.9-0.9-1.7-2-1.7c-2.3,0-4.5,0-6.8,0c-0.4,0-0.6,0.2-0.6,0.6c0,0.8,0,1.6,0,2.4c0,0.4,0.2,0.6,0.6,0.6c0.4,0,0.8,0,1.3,0
		C149.1,62.2,147.3,66.6,145.3,71.2z M79.4,62.3c0,3.8,1.4,6.5,4.5,8.1c3.4,1.8,6.9,1.4,10.4,0.3c0.5-0.2,0.6-0.5,0.5-0.9
		c-0.2-1-0.3-2-0.4-3.1c-0.1-0.5-0.2-0.6-0.7-0.5c-1.1,0.4-2.2,0.7-3.3,0.9c-2,0.4-3.7-0.3-4.9-2c-1.1-1.6-0.8-3.4,0.1-5
		c0.9-1.6,2.6-2,4.3-1.9c1.3,0.1,2.5,0.6,3.8,1c0.4,0.1,0.7,0.2,0.8-0.3c0.1-1.2,0.2-2.4,0.3-3.6c0-0.2-0.3-0.5-0.5-0.6
		c-1-0.3-2-0.5-3-0.7c-2.2-0.5-4.4-0.4-6.5,0.6C81.3,56.3,79.4,58.9,79.4,62.3z M137.6,71.6c2.2-0.1,3.7-0.5,5-1.3
		c2.9-1.7,3.4-5.7,1.1-7.8c-0.8-0.8-1.9-1.3-2.9-1.9c-0.7-0.4-1.5-0.7-2.2-1.2c-0.3-0.2-0.4-0.6-0.6-0.9c0.3-0.2,0.6-0.4,0.9-0.4
		c1.6-0.2,3.1,0.2,4.5,0.9c0.5,0.2,0.7,0.2,0.8-0.3c0.1-1.2,0.2-2.3,0.3-3.5c0-0.2-0.2-0.5-0.4-0.6c-0.8-0.3-1.7-0.4-2.5-0.6
		c-2.1-0.6-4.2-0.3-6.1,0.7c-2.6,1.3-3.5,4.2-2.1,6.7c0.6,1.2,1.8,1.8,2.9,2.5c1,0.6,2.1,1.1,3.1,1.8c0.6,0.4,0.6,0.9-0.1,1.3
		c-0.8,0.5-1.7,0.4-2.6,0.1c-0.8-0.3-1.5-0.6-2.3-0.9c-0.3-0.1-0.6-0.1-0.6,0.3c-0.1,1.2-0.3,2.5-0.3,3.7c0,0.2,0.2,0.5,0.4,0.6
		C135.3,71.1,136.8,71.4,137.6,71.6z"/>
	<path class="st2" d="M23.1,57.7c-0.4,1.4-0.9,2.6-1.1,3.9c-0.2,1.5-0.1,3-0.1,4.5c0,0.6-0.2,0.8-0.7,0.7c-0.3,0-0.7,0-1,0
		c-1,0-1.6-0.6-1.6-1.5c0-2.3,0-4.7,0-7c0-0.2,0.3-0.5,0.4-0.5C20.4,57.7,21.8,57.7,23.1,57.7z"/>
	<path class="st2" d="M29.3,57.7c1.5,0,2.8,0,4.2,0c0.1,0,0.4,0.3,0.4,0.5c0,2.4,0,4.7,0,7.1c0,0.9-0.7,1.4-1.5,1.5
		c-1.8,0.1-1.8,0.1-1.8-1.7c0-1.8,0.2-3.6-0.4-5.3C29.9,59.1,29.6,58.5,29.3,57.7z"/>
	<path class="st2" d="M26.2,59.2c0.9,1,1.2,2,1.2,3c0,1.3,0,2.6,0,3.9c0,0.4-0.1,0.6-0.6,0.6c-2.1,0-1.8,0.3-1.7-1.7
		c0-1.4,0.1-2.8,0.3-4.2C25.5,60.4,25.9,59.9,26.2,59.2z"/>
	<path class="st2" d="M70.1,60.8c0-0.8,0-1.5,0-2.2c0-0.1,0-0.1,0.1-0.3c0.9-0.1,1.8-0.1,2.4,0.6c0.2,0.3,0.2,1,0,1.3
		C71.9,61,71,60.8,70.1,60.8z"/>
	<path class="st2" d="M108.3,62.8c0,1.7-0.6,3-2.1,3.9c-1.3,0.8-2.7,0.5-3.9-0.5c-1.8-1.7-1.8-5.1,0-6.9c1.6-1.5,4-1.3,5.2,0.5
		C108.1,60.7,108.3,61.5,108.3,62.8z"/>
	<path class="st2" d="M153.8,63.4c0.4-1,0.7-1.8,1.1-2.9c0.4,1.1,0.8,1.9,1.1,2.9C155.3,63.4,154.7,63.4,153.8,63.4z"/>
</g>
</svg>
