<?xml version="1.0" encoding="utf-8"?>
<!-- Generator: Adobe Illustrator 27.0.1, SVG Export Plug-In . SVG Version: 6.00 Build 0)  -->
<svg version="1.1" id="Capa_1" xmlns="http://www.w3.org/2000/svg" xmlns:xlink="http://www.w3.org/1999/xlink" x="0px" y="0px"
	 viewBox="0 0 177.4 125.4" style="enable-background:new 0 0 177.4 125.4;" xml:space="preserve">
<style type="text/css">
	.st0{opacity:0.48;fill:#FFFFFF;}
	.st1{opacity:0.66;fill:#FFFFFF;}
	.st2{fill:#FFFFFF;}
	.st3{opacity:0.74;fill:#FFFFFF;}
	.st4{fill-rule:evenodd;clip-rule:evenodd;fill:#FFFFFF;}
	.st5{fill:#1D2A4C;}
</style>
<g>
	<g>
		<path class="st2" d="M88.5,89.3c-14.8,0-26.7-12-26.7-26.7c0-14.9,12.1-26.5,26.4-26.7c14.8-0.1,27,11.8,27,26.7
			C115.2,77.4,103.3,89.3,88.5,89.3z M86.6,60.5c0.4,0,0.8,0,1.2,0c1.3-0.1,1.2,0,1.2-1.3c0,0,0,0-0.1-0.1c0,0.2,0,0.4,0,0.6
			c0,0.7-0.5,0.4-0.8,0.5c-0.4,0-0.4-0.3-0.4-0.6c0.1-0.8,0.2-1.5,0.3-2.3c0.2,0,0.5-0.1,0.7-0.1c0,0,0-0.1,0-0.1
			c-0.9,0-1.7,0-2.7,0c0,0.9,0.1,1.8,0.1,2.7C86.1,60.2,86.2,60.4,86.6,60.5c-0.2,0-0.5,0-0.7-0.1c-0.1,0.2-0.1,0.4-0.1,0.4
			c1.2,0.4,2.4,0.5,3.4-0.2C88.3,60.6,87.4,60.5,86.6,60.5z M86.9,65.4c0.8-0.5,1.5,0,2.3,0.3c0.6-0.5,0.8-1.5,0.4-2.2
			c-0.1-0.1-0.2-0.2-0.3-0.2c-1.1,0-2.2,0-3.3,0c-0.1,0-0.4,0.2-0.4,0.3c-0.1,0.4-0.1,0.8-0.1,1.1c0,0,0.1,0,0.1,0
			c0.1-0.3,0.2-0.7,0.3-1c0,0,0.1,0,0.1,0c0,0.3,0,0.6,0.1,1c0.7-0.4,1.5-0.5,2.2,0c-0.9-0.1-1.7,0-2.2,0.8c0.3-0.1,0.5-0.2,0.7-0.3
			c-0.8,0.5-1.1,1.2-0.9,2.2c0,0.2,0,0.4,0,0.6c0-0.6-0.2-1.2-0.1-1.8c0-0.4-0.1-0.6-0.4-0.7c-0.5,1.2-0.4,2,0.3,2.7
			c0-0.1,0.1-0.2,0.1-0.3c0,0.3,0.1,0.5,0.1,0.8c0.1,1.6,0.3,3.1,0.4,4.7c0,0.2,0.1,0.4,0.2,0.4c0.4,0.3,1.5,0.3,2,0
			c-0.8-0.1-0.9-0.2-0.8-1c0-0.2,0-0.5,0.1-0.7c0.2-1.1,0.4-2.1,0.5-3.2c0.1-1.2,0.4-2.5-0.7-3.6c0.4,0,0.7,0.1,1.1,0.1
			C88.1,65.4,87.5,65.2,86.9,65.4z M74.7,66.3c0.2-0.8,0.7-1.4,1.1-2c1-1.3,1.9-2.7,2.8-4c0.4-0.5,0.2-1.3-0.1-1.6
			c-0.5-0.4-1-0.3-1.5-0.1c-0.4,0.2-0.8,0.4-1.2,0.6c0.2-0.3,0.4-0.6,0.6-0.9c0.4-0.4,0.9-0.8,1.4-1.1c0.7-0.6,1.3-1.2,1.6-2.1
			c0.5-1.6-0.3-2.9-1.9-3c0.5-0.8,0.9-1.5,1.4-2.2c0.5-0.8,1-1.6,1.4-2.5c0.4-1,0.1-1.8-0.8-2.3c-0.8-0.4-1.7-0.2-2.3,0.6
			c-0.6,0.7-0.8,1.6-0.9,2.5c-0.1,0.9-0.3,1.8-0.8,2.7c-0.1-0.7-0.1-1.2-0.2-1.8c-0.2-0.6-0.6-1-1.1-0.9c-0.6,0.1-0.8,0.5-0.9,1
			c0,0.1-0.1,0.3-0.1,0.5c0.1,1,0.2,1.9,0.3,2.9c0.2,1.4,0.4,2.8,0.6,4.3c0.1,1.6-0.3,3.3-0.7,4.8c-0.2,0.9-0.5,1.9-0.8,2.8
			c-0.1,0.4-0.4,0.7-0.9,0.6C71,65,71,64.5,71,64.2c-0.1-0.8-0.1-1.7-0.3-2.5c-0.1-0.6-0.3-1.3-0.6-1.8c-0.6-0.9-1.6-0.8-2.1,0.1
			c-0.3,0.5-0.4,1-0.4,1.5c-0.1,1.4,0.5,2.6,1.2,3.7c0.6,0.9,1.1,1.9,1.3,3c0,0.1,0.1,0.3,0.1,0.4c0.1,0.5,0.3,1.1,0.3,1.6
			c0,0.2-0.2,0.5-0.3,0.5c-0.2,0-0.4-0.1-0.6-0.3c-0.2-0.3-0.4-0.6-0.6-0.9c-0.2-0.3-0.5-0.3-0.6,0.1c-0.1,0.4-0.1,0.8,0,1.2
			c0.2,1.1,1.1,1.9,1.9,2.5c0.7,0.5,1.1,1.1,1.3,1.8c0.2,0.6,0.5,1,1.1,1.2c0.8,0.3,1.4,0.9,1.7,1.7c0.4,0.9,1,1.4,1.9,1.5
			c0.7,0.1,1.1,0.5,1.6,1c0.4,0.5,0.3,0.8-0.3,1.1c-0.3,0.1-0.6,0.2-0.9,0.4c-0.4,0.2-0.4,0.4-0.1,0.7c0.4,0.5,1,0.6,1.6,0.5
			c0.8-0.1,1.6-0.3,2.3-0.4c0.7,0,1.4-0.1,2,0.2c0.6,0.2,1.1,0.4,1.7,0.4c0.7,0,1.5-0.1,2.2-0.2c1-0.1,2.1-0.2,3.1,0.1
			c0.7,0.2,1.4,0.2,2.1,0.2c0.3,0,0.7-0.2,0.7-0.6c0-0.4-0.1-0.8-0.6-0.8c-0.2,0-0.4-0.2-0.6-0.3c0.1-0.1,0.2-0.1,0.3-0.1
			c0.9,0,1.8-0.1,2.7,0c1.5,0.3,3,0,4.4-0.6c0.3-0.1,0.6-0.3,0.8-0.5c0.4-0.4,0.7-0.9,0.5-1.4c0-0.1-0.5-0.1-0.8-0.2
			c-0.2-0.1-0.4-0.2-0.5-0.3c-0.1-0.1,0.1-0.4,0.2-0.5c0.7-0.8,1.7-1.1,2.8-1.2c1.1-0.1,2.2-0.1,3.3-0.2c2.1-0.1,3.1-1,3.4-2.8
			c0.1-0.6-0.3-1.4-0.9-1.6c-0.4-0.2-0.9,0-1.4,0.6c-0.3,0.3-0.6,0.7-0.9,1c-0.4,0.3-0.7,0.2-0.9-0.2c-0.5-1.1,0-3.2,0.9-4.1
			c0.6-0.6,1.1-1.2,1.5-1.8c0.9-1.2,1.5-2.5,2-3.9c0.2-0.5-0.2-1-0.7-0.9c-0.4,0.1-0.7,0.3-1,0.5c-0.3,0.3-0.5,0.7-0.9,0.9
			c-0.2,0.2-0.5,0.4-0.7,0.3c-0.2-0.1-0.4-0.4-0.5-0.7c-0.1-1,0.2-1.8,1-2.6c0.3-0.3,0.5-0.7,0.6-1.1c0.1-0.4-0.1-0.8-0.5-0.9
			c-0.3-0.1-0.7,0-1,0.2c-0.4,0.2-0.5,0.6-0.5,1c0,0.3-0.1,0.5-0.1,0.8c-0.2-0.1-0.3-0.2-0.3-0.3c0-0.5-0.1-1,0.5-1.5
			c0.3-0.3,0.4-0.8,0.6-1.2c0.6-1.3,1.1-2.6,1.3-4c0-0.5-0.1-1-0.5-1.3c-0.6-0.5-0.9-1.2-0.9-2c0-0.6,0.1-1.2,0-1.7
			c-0.1-0.8-0.1-1.6-0.4-2.3c-0.2-0.8-1.2-1.1-2.2-0.8c-0.8,0.2-1.3,0.9-1.1,1.7c0.2,0.8,0.6,1.6,1,2.4c0.1,0.3,0.3,0.6,0.5,0.9
			c-0.1,0-0.1,0.1-0.2,0.1c-0.3-0.3-0.6-0.6-0.8-1c-0.4-0.9-0.8-1.7-1.1-2.6c-0.6-1.7-2.3-3-4-3.1c-1.2-0.1-1.9,0.8-1.6,2
			c0.2,0.6,0.5,1.1,1.1,1.4c0.5,0.3,1.1,0.5,1.6,0.9c0.5,0.3,0.8,0.7,0.7,1.3c-0.3-0.1-0.5-0.3-0.7-0.5c-0.4-0.5-1-0.6-1.6-0.2
			c-0.4,0.3-0.6,0.8-0.2,1.3c0.2,0.4,0.6,0.8,1,1c0.8,0.4,1.2,1.1,1.4,1.9c0.2,0.8,0,1.1-0.8,1.2c-0.6,0.1-1,0.5-1.1,1
			c-0.1,0.6,0.2,0.9,0.7,1.2c0.3,0.2,0.7,0.3,1.1,0.4c0.7,0.1,1.4,0.1,2.2,0.1c0.8,0,1.5,0.8,1.3,1.6c-0.1,0.4-0.3,0.5-0.6,0.3
			c-0.3-0.1-0.5-0.3-0.7-0.4c-0.4-0.2-0.7-0.1-0.9,0.3c-0.3,0.6,0.1,1.7,0.7,2.1c0.3,0.2,0.5,0.5,0.7,0.7c0.9,1.6,1.1,3.3,1.1,5.1
			c0,1.6-0.4,3.2-1.2,4.6c-0.1,0.2-0.3,0.4-0.5,0.6c-0.1-0.2-0.2-0.3-0.2-0.5c-0.1-0.6-0.1-1.2-0.1-1.7c0-0.5-0.4-1-0.8-1
			c-0.4,0-0.7,0.4-0.8,0.9c0,0.6,0,1.1,0.1,1.7c0.2,1.1-0.1,2.1-0.7,2.9c-1,1.3-2.5,1.9-3.9,2.6c-0.3,0.1-0.7,0.2-1.1,0.2
			c-0.4,0-0.6-0.3-0.7-0.7c-0.1-0.4,0.2-0.5,0.5-0.6c0.6-0.1,0.8-0.5,0.7-1.3c-0.4,0.1-0.8,0.2-1.2,0.4c-0.6,0.4-1.2,0.9-1.7,1.3
			c-0.7,0.7-1.5,0.1-1.6-0.8c0-0.5-0.1-1-0.1-1.5c0-0.5-0.2-0.6-0.7-0.5c-0.5,0.1-0.9,0.1-1.4,0c-0.4-0.1-0.6,0-0.7,0.4
			c-0.2,0.8-0.3,1.7-0.5,2.5c-0.2,0.6-0.4,1.2-1.1,1.4c-1.1,0.5-2.1,0-2.5-1.2c-0.3-0.9-0.7-1.8-1-2.7c-0.2-0.4-0.4-0.9-0.7-1.3
			c-0.2-0.4-0.5-0.3-0.7,0c-0.1,0.2-0.2,0.4-0.3,0.6c-0.1,0.3-0.2,0.6-0.3,0.9c-0.2,0.4-0.4,0.4-0.7,0.1c-0.1-0.1-0.2-0.2-0.3-0.4
			c-0.5-0.7-0.7-1.5-0.7-2.3c-0.1-1.6-0.2-3.2,0.3-4.8c0.1-0.3,0.4-0.6,0.3-0.8c-0.1-0.7-0.2-1.4-0.5-2c-0.5-1-1.4-1-2.1-0.2
			C75.3,65.2,75,65.8,74.7,66.3z M88.3,56.8c0,0,0-0.1,0-0.1c-0.3,0-0.6-0.1-0.9-0.1c-0.5-0.1-0.7-0.3-0.7-0.8c0-3.2,0-6.3,0-9.5
			c0-0.7,0.3-1.1,0.8-1.3c0.6-0.2,1.2,0,1.6,0.4c0.1,0.1,0.2,0.3,0.3,0.4c-0.1-0.6-0.5-0.9-1.1-1.1c-1.2-0.4-2.9,0-2.6,2
			c0.1,0.4,0.1,0.8,0.1,1.3c0.1,2.8,0.3,5.6,0.4,8.4c0,0.2,0.2,0.4,0.3,0.5C87.2,56.9,87.8,56.8,88.3,56.8z M73,54.6
			c0-0.2-0.1-0.3-0.1-0.5c-0.1-0.3-0.1-0.6-0.5-0.7c-0.4,0-0.6,0.2-0.8,0.5c-0.1,0.2-0.3,0.3-0.5,0.3c-1,0.1-1.4,0.7-1.3,1.6
			c0,0.2,0,0.4,0,0.6c0,0.1-0.1,0.3-0.1,0.4c0.1,0.1,0.3,0.2,0.4,0.1c0.4-0.2,0.9-0.5,1.3-0.8c0.3-0.2,0.5-0.5,0.8-0.6
			C72.7,55.4,73,55.2,73,54.6z M90.4,63.8c-0.1,0-0.1,0-0.2,0c0,0.8-0.2,1.6-0.7,2.3c-0.2,0.2,0.2,0.9,0.5,0.9c0.8,0,1.6,0,2.4,0
			c0.2,0,0.6-0.3,0.6-0.4c0.1-0.9,0.2-1.8-0.3-2.8c-0.4,0.3-0.7,0.5-1.1,0.7c0.1,0,0.2,0.1,0.3,0.1c-0.2,0.2-0.3,0.3-0.5,0.5
			c0.1,0,0.2,0,0.4,0.1c-0.2,0.1-0.3,0.1-0.5,0.1c0.1,0.1,0.2,0.1,0.3,0.2c-0.2,0-0.3,0.1-0.5,0.1c0.3,0,0.4,0.1,0.6,0.1
			c-0.2,0.1-0.3,0.1-0.5,0.1c0.1,0.1,0.2,0.1,0.3,0.2c-0.1,0-0.2,0.1-0.3,0.1c0.1,0,0.2,0.1,0.4,0.1c-0.2,0.1-0.3,0.1-0.5,0.2
			c0.2,0,0.3,0.1,0.5,0.1c-0.2,0-0.3,0.1-0.5,0.1c0.1,0,0.2,0.1,0.3,0.1c0,0,0,0.1,0,0.1c-0.3,0-0.6,0-1,0.1c0-0.7,0-1.3,0-1.9
			c-0.1,0.4-0.1,0.9-0.1,1.3c0,0.2,0.1,0.5-0.3,0.6c-0.4,0.1-0.5-0.2-0.5-0.6c0.6,0.1,0.6-0.2,0.7-0.6c0-0.4,0.1-0.9,0.1-1.3
			C90.5,64.1,90.4,63.9,90.4,63.8z M89.6,61.4c-1.4,0.2-2.8,0.4-4.1-0.3c-0.3,0.5-0.2,1.7,0.1,2c0.1-0.3,0.1-0.7,0.2-1
			c0,0,0.1,0,0.1,0c0,0.2,0.1,0.3,0.1,0.6c0.1-0.2,0.1-0.4,0.2-0.5c0,0,0.1,0,0.1,0c0,0.2,0,0.4,0.1,0.7c0.1-0.3,0.1-0.5,0.2-0.8
			c0.1,0.3,0.1,0.4,0.2,0.7c0.1-0.3,0.1-0.5,0.2-0.6c0,0,0.1,0,0.1,0c0,0.2,0,0.4,0,0.6c0,0,0,0,0.1,0c0.1-0.2,0.1-0.4,0.2-0.6
			c0.1,0.3,0.1,0.5,0.2,0.7c0.1-0.3,0.1-0.5,0.2-0.8c0.1,0.3,0.1,0.4,0.1,0.5c0.1-0.1,0.1-0.3,0.2-0.5c0.1,0.3,0.1,0.5,0.1,0.6
			c0,0,0,0,0.1,0c0-0.2,0.1-0.4,0.1-0.7c0.1,0.3,0.2,0.5,0.2,0.7c0-0.2,0.1-0.5,0.1-0.7c0,0,0.1,0,0.1,0c0,0.1,0.1,0.3,0.2,0.5
			c0.1-0.3,0.1-0.4,0.2-0.7c0.1,0.3,0.1,0.4,0.2,0.5C89.4,62.1,89.5,61.8,89.6,61.4z M94,63.5c0,0-0.1,0-0.1,0
			c0-0.4,0.1-0.9,0.1-1.3c0-0.9,0.3-1.9-0.5-2.8c-0.5,0.1-0.6,0.4-0.6,0.9c0.1,0.7,0.2,1.4,0.2,2.1c0.1,0.5,0.1,1,0.2,1.5
			c0,0.1,0.3,0.3,0.3,0.2c0.1,0,0.3-0.2,0.3-0.4c0.1-0.2,0-0.4,0-0.6c0,0,0,0,0,0C94.1,63.3,94.1,63.4,94,63.5z M99.9,45
			c0,0.6,1,1.2,1.5,0.9c0.3-0.2,0.5-0.4,0.6-0.7c0.2-0.2,0.1-0.5-0.2-0.6c-0.4-0.1-0.7-0.2-1.1-0.3C100.3,44.2,99.9,44.5,99.9,45z
			 M71.6,59.1c1,0,1.5-0.7,1.2-1.6c-0.1-0.3-0.2-0.4-0.5-0.3c-0.6,0.2-1.2,0.3-1,1.2c0,0,0,0.1,0,0.1C70.9,59.1,70.9,59.2,71.6,59.1
			z M94.6,64.9c0-0.3,0.2-0.7-0.5-0.7c-0.8,0-0.8,0-0.8,0.6c0,0.9,0,0.9,0.8,1C94.7,65.8,94.7,65.4,94.6,64.9z"/>
		<path class="st2" d="M75,96.4c-0.5-0.2-0.9-0.4-1.3-0.6c0.4-1.4,0.8-2.7,1.2-4.1c0,0-0.1,0-0.1-0.1c-0.8,1.2-1.6,2.3-2.4,3.5
			c-0.5-0.2-0.9-0.4-1.3-0.6c0.5-1.8,1-3.6,1.4-5.5c0.4,0.2,0.7,0.3,1.1,0.5c-0.4,1.3-0.8,2.6-1.1,3.9c0,0,0.1,0,0.1,0.1
			c0.8-1.1,1.5-2.2,2.3-3.3c0.1,0,0.1,0,0.1,0c1.3,0.6,1.3,0.6,0.9,1.9c-0.3,0.9-0.5,1.7-0.7,2.6c0.8-1.1,1.6-2.2,2.4-3.3
			c0.3,0.2,0.6,0.3,1,0.5C77.2,93.4,76.1,94.9,75,96.4z"/>
		<path class="st2" d="M116.5,41.5c-1.4,0.6-2.7,1.2-4.1,1.8c-0.2-0.2-0.3-0.4-0.5-0.6c0.9-1.3,1.7-2.5,2.6-3.7c0,0-0.1,0-0.1-0.1
			c-1.1,0.9-2.2,1.8-3.3,2.7c-0.2-0.3-0.4-0.5-0.7-0.8c1.4-1.2,2.8-2.4,4.3-3.6c0.4,0.5,0.7,0.9,1.1,1.4c-0.7,1-1.4,2-2.1,3
			c0,0,0,0.1,0.1,0.1c0.8-0.4,1.6-0.7,2.4-1.1c1-0.4,1-0.5,1.7,0.4c0.1,0.2,0.3,0.3,0.5,0.6c-1.4,1.2-2.8,2.4-4.3,3.6
			c-0.2-0.3-0.4-0.5-0.7-0.8c1.1-0.9,2.2-1.8,3.3-2.8C116.5,41.5,116.5,41.5,116.5,41.5z"/>
		<path class="st2" d="M69.1,31.9c0.3-0.2,0.6-0.4,0.9-0.6c1,1.5,2.1,3.1,3.1,4.6C73.1,36,73,36,73,36c-1,0.8-1,0.8-2.1,0.1
			c-0.8-0.5-1.7-1.1-2.6-1.6c0.4,0.5,0.7,1,1.1,1.6c0.4,0.5,0.7,1.1,1.1,1.6c-0.3,0.2-0.5,0.4-0.9,0.6c-1-1.5-2.1-3.1-3.1-4.6
			c0-0.1,0.1-0.1,0.1-0.1c1.1-0.8,1.1-0.7,2.1,0c0.8,0.5,1.6,1.1,2.5,1.5C70.6,34.1,69.9,33,69.1,31.9z"/>
		<path class="st2" d="M93,98.8c-0.4,0-0.8,0.1-1.2,0.1c-0.2,0-0.3-0.2-0.4-0.4c-0.5-1-1-2.1-1.6-3.1c0-0.1-0.1-0.2-0.2-0.2
			c0.1,1.2,0.2,2.5,0.2,3.8c-0.3,0-0.7,0.1-1,0.1c-0.1-1.9-0.2-3.7-0.4-5.5c0.1,0,0.1-0.1,0.1-0.1c1.3-0.1,1.3-0.1,1.9,1
			c0.4,0.9,0.9,1.7,1.4,2.6c0-0.6-0.1-1.2-0.1-1.9c0-0.6-0.1-1.3-0.1-1.9c0.3,0,0.7,0,1.1-0.1C92.7,95.1,92.9,96.9,93,98.8z"/>
		<path class="st2" d="M118.3,80.7c-1-0.1-2-0.5-2.7-1.4c-0.6-0.7-0.7-1.5-0.3-2.4c0.4-0.9,1.1-1.3,2-1.3c1.2,0.1,2.2,0.6,2.9,1.5
			c0.6,0.7,0.5,1.6,0.1,2.4C120,80.3,119.3,80.7,118.3,80.7z M116.8,76.8c-0.2,0.1-0.5,0.3-0.7,0.5c-0.3,0.4-0.1,0.7,0.2,1
			c0.6,0.7,1.4,1.1,2.3,1.2c0.3,0,0.7-0.2,0.9-0.4c0.1-0.2,0.1-0.7-0.1-0.9C118.9,77.3,118,77,116.8,76.8z"/>
		<path class="st2" d="M59.3,70.4c0.2,0.8,0.4,1.5,0.6,2.2c0.1,0.8-0.1,1.2-0.6,1.5c-0.6,0.3-1.2,0.2-1.7-0.4
			c-0.1,0.6-0.3,1-0.8,1.3c-0.9,0.4-1.6,0.1-2-0.8c-0.3-0.7-0.5-1.4-0.7-2.2C55.7,71.4,57.5,70.9,59.3,70.4z M56.8,73.3
			c0-0.9-0.1-0.9-0.8-0.7c-0.2,0.1-0.4,0.1-0.5,0.2c-0.1,0-0.3,0.2-0.3,0.2c0.1,0.3,0.1,0.6,0.3,0.8c0.2,0.1,0.6,0.1,0.8,0.1
			C56.6,73.7,56.7,73.4,56.8,73.3z M57.5,72.2c0,0.1-0.1,0.1-0.1,0.2c0.2,0.3,0.4,0.6,0.7,0.8c0.2,0.1,0.6-0.1,0.7-0.3
			c0.1-0.3,0.1-0.7,0.1-1.1C58.3,71.9,57.9,72,57.5,72.2z"/>
		<path class="st2" d="M60,80.6c-0.6,0.4-1.3,0.8-1.9,1.2c-0.2-0.3-0.4-0.7-0.6-1c1.6-1,3.1-1.9,4.7-3c0.4,0.8,0.9,1.5,1.2,2.2
			c0.3,0.6,0.1,1.1-0.3,1.5c-0.5,0.5-1,0.5-1.6,0.2c-0.1,0-0.1-0.1-0.1,0c-0.6,0.8-1.2,1.5-1.8,2.4c-0.3-0.4-0.5-0.8-0.7-1.1
			c0.4-0.4,0.8-0.9,1.2-1.3C60.3,81.4,60.3,81,60,80.6z M60.7,80.2c0.4,0.3,0.7,0.6,1,0.7c0.2,0,0.7-0.3,0.7-0.5
			c0.1-0.3-0.2-0.7-0.3-1.1C61.6,79.6,61.2,79.9,60.7,80.2z"/>
		<path class="st2" d="M100.8,90.9c0.1,0.4,0.2,0.7,0.3,1c-0.4,0.1-0.9,0.1-1.2,0.3c-0.8,0.3-1.2,0.9-1,1.8c0.1,0.5,0.4,1.1,0.7,1.6
			c0.2,0.3,0.6,0.5,1,0.5c0.7,0.1,1-0.3,0.7-0.9c-0.1-0.2-0.1-0.4-0.2-0.6c-0.2,0.1-0.4,0.1-0.7,0.2c-0.1-0.3-0.2-0.5-0.3-0.8
			c0.6-0.2,1.1-0.4,1.8-0.7c0.3,0.9,0.7,1.7,1,2.6c0,0.1-0.1,0.3-0.2,0.4c-0.7,0.5-1.4,0.8-2.3,0.9c-0.6,0-1.2-0.2-1.7-0.6
			c-0.7-0.7-1.1-1.7-1-2.7c0-0.9,0.4-1.6,1.3-2.1C99.5,91.3,100.2,91.1,100.8,90.9z"/>
		<path class="st2" d="M91.8,29.7c-0.1,0.8-0.2,1.5-0.3,2.3c-0.4,0-0.8-0.1-1.2-0.1c0.2-1.8,0.4-3.7,0.6-5.5c0.4,0,0.8,0.1,1.2,0.1
			c-0.1,0.7-0.2,1.4-0.2,2.1c0,0,0.1,0,0.1,0.1c0.3-0.4,0.6-0.7,0.9-1.1c0.7-0.9,0.7-0.9,2-0.7c-0.5,0.6-1,1.2-1.5,1.8
			c-0.4,0.4-0.4,0.7-0.2,1.1c0.4,0.8,0.8,1.6,1.2,2.5c-0.4,0-0.8,0-1.1-0.1c-0.2,0-0.4-0.2-0.5-0.4c-0.3-0.7-0.6-1.5-1-2.2
			C91.9,29.7,91.9,29.7,91.8,29.7z"/>
		<path class="st2" d="M122.6,50c0.1,0.4,0.2,0.8,0.4,1.2c-1.1,0.3-2.1,0.7-3.2,1c-0.2,0.1-0.4,0.1-0.6,0.2
			c-0.4,0.2-0.6,0.4-0.5,0.9c0.2,0.5,0.5,0.6,0.9,0.5c1-0.3,2.1-0.6,3.1-0.9c0.2-0.1,0.4-0.1,0.7-0.2c0.1,0.4,0.2,0.7,0.4,1.1
			c-1.3,0.4-2.5,0.8-3.7,1.1c-1.5,0.3-2.8-1-2.4-2.6c0.2-0.6,0.6-1,1.2-1.2C120.1,50.8,121.3,50.4,122.6,50z"/>
		<path class="st2" d="M101.7,34.8c-0.3-0.2-0.7-0.3-1-0.5c1.4-1.4,2.8-2.7,4.2-4.1c0.4,0.2,0.9,0.5,1.3,0.7
			c-0.4,1.9-0.7,3.8-1.1,5.7c-0.1-0.1-0.3-0.1-0.4-0.2c-0.8-0.4-0.8-0.4-0.6-1.2c0.1-0.3,0-0.5-0.3-0.7c-0.4-0.2-0.8-0.6-1.2-0.5
			C102.4,34.1,102.1,34.5,101.7,34.8z M104.5,33.9c0.2-0.7,0.3-1.4,0.5-2.1c0,0-0.1,0-0.1,0c-0.5,0.5-1,1-1.6,1.5
			C103.7,33.4,104.1,33.6,104.5,33.9z"/>
		<path class="st2" d="M66.1,90c-0.2,0.2-0.4,0.4-0.7,0.6c-0.8-0.7-1.5-1.4-2.3-2.2c1.3-1.4,2.5-2.7,3.8-4.1
			c0.8,0.7,1.5,1.4,2.3,2.1c-0.2,0.2-0.4,0.4-0.6,0.7c-0.5-0.4-0.9-0.8-1.4-1.2c-0.3,0.3-0.7,0.6-1,0.9c0.5,0.5,0.9,0.9,1.4,1.3
			c-0.2,0.2-0.4,0.4-0.7,0.6c-0.4-0.4-0.8-0.7-1.3-1.1c-0.3,0.3-0.6,0.7-1,1.1C65.1,89,65.6,89.5,66.1,90z"/>
		<path class="st2" d="M62.6,46.1c-1.5-1.1-3-2.1-4.5-3.2c0.6-0.9,1.2-1.7,1.8-2.6c0.2,0.2,0.5,0.3,0.7,0.5c-0.4,0.5-0.7,1-1.1,1.5
			c0.4,0.3,0.7,0.5,1.1,0.8c0.4-0.5,0.7-1,1.1-1.5c0.2,0.2,0.5,0.3,0.7,0.5c-0.3,0.5-0.7,1-1,1.5c0.4,0.3,0.8,0.5,1.2,0.8
			c0.4-0.5,0.8-1.1,1.2-1.6c0.3,0.2,0.5,0.3,0.7,0.5C63.9,44.3,63.3,45.2,62.6,46.1z"/>
		<path class="st2" d="M80.6,30.5c0.1,0.5,0.2,0.9,0.3,1.4c0.6-0.1,1.3-0.3,1.9-0.4c0.1,0.3,0.1,0.5,0.2,0.9c-1,0.2-2.1,0.5-3.1,0.7
			c-0.4-1.8-0.9-3.6-1.3-5.4c1-0.2,2-0.5,3-0.7c0.1,0.3,0.1,0.5,0.2,0.9c-0.6,0.2-1.2,0.3-1.8,0.5c0.1,0.5,0.2,0.9,0.3,1.3
			c0.6-0.1,1.1-0.3,1.7-0.4c0.1,0.3,0.1,0.5,0.2,0.8C81.8,30.2,81.2,30.3,80.6,30.5z"/>
		<path class="st2" d="M112.7,83.1c-1,0.5-1.4,1.1-1.2,1.8c0.2,0.8,1.4,1.8,2.1,1.8c0.9-0.1,1.3-0.6,1.5-1.5
			c0.3,0.2,0.5,0.4,0.7,0.6c-0.2,1.1-1.4,2-2.5,2c-1.7,0-3.3-1.8-3.1-3.4c0.2-0.9,0.7-1.5,1.5-2c0.1-0.1,0.3,0,0.4,0.1
			C112.4,82.7,112.6,82.9,112.7,83.1z"/>
		<path class="st2" d="M59.2,53.7c-0.1,0.4-0.2,0.8-0.4,1.3c-1.9-1.1-3.8-0.2-5.7,0c0-0.1,0-0.1,0-0.1c0.3-1.2,0.3-1.2,1.6-1.3
			c0.4,0,0.8-0.1,1.3-0.1c-0.6-0.4-1-0.8-1.5-1.1c-0.5-0.3-0.6-0.6-0.4-1.1c0.1-0.2,0.1-0.3,0.2-0.6c0.1,0.1,0.2,0.1,0.3,0.2
			c0.6,0.6,1.3,1.1,1.9,1.7c0.6,0.6,1.4,0.8,2.2,1C58.8,53.6,59,53.6,59.2,53.7z"/>
		<path class="st2" d="M83.7,93.1c-0.3,1.9-0.7,3.6-1,5.5c-0.4-0.1-0.8-0.1-1.2-0.2c0.3-1.8,0.7-3.6,1-5.5
			C82.9,93,83.3,93,83.7,93.1z"/>
		<path class="st2" d="M56.9,61.5c0,0.1,0,0.3-0.1,0.4c-0.4,0.4-0.8,0.8-1.3,1.3c0.5,0.4,1,0.9,1.6,1.4c-0.2,0.2-0.3,0.3-0.5,0.4
			c-0.5-0.5-1-1-1.5-1.6c-0.5,0.6-0.9,1.1-1.3,1.6c-0.4-0.2-0.5-0.3-0.2-0.6c0.4-0.4,0.8-0.8,1.3-1.3c-0.5-0.4-0.9-0.8-1.3-1.2
			c-0.2-0.2-0.2-0.2,0.1-0.5c0.5,0.5,0.9,1,1.5,1.5c0.5-0.6,0.9-1.1,1.4-1.6C56.7,61.4,56.8,61.4,56.9,61.5z"/>
		<path class="st2" d="M121.9,63c0.5-0.6,1-1.1,1.4-1.6c0.4,0.2,0.4,0.3,0.2,0.5c-0.4,0.4-0.8,0.8-1.3,1.3c0.4,0.4,0.9,0.8,1.3,1.2
			c0.3,0.2,0.2,0.4-0.2,0.5c-0.4-0.5-0.9-1-1.3-1.5c-0.5,0.6-1,1-1.4,1.5c-0.4-0.2-0.5-0.4-0.2-0.6c0.4-0.4,0.8-0.8,1.3-1.2
			c-0.5-0.5-0.9-0.8-1.4-1.2c-0.2-0.2-0.2-0.2,0.1-0.5C120.9,61.9,121.4,62.4,121.9,63z"/>
		<path class="st2" d="M121.9,71.9c0.1-0.4,0.2-0.7,0.2-1c0.4,0.1,0.7,0.2,1.1,0.3c-0.1,0.4-0.1,0.7-0.2,1
			C122.7,72,122.3,71.9,121.9,71.9z"/>
	</g>
	<path class="st2" d="M88.7,104c-5.6,0-11-1.1-16.1-3.2c-4.9-2.1-9.3-5.1-13.1-8.9c-3.8-3.8-6.8-8.2-8.9-13.1
		c-2.2-5.1-3.2-10.5-3.2-16.1s1.1-11,3.2-16.1c2.1-4.9,5.1-9.3,8.9-13.1c3.8-3.8,8.2-6.8,13.1-8.9c5.1-2.2,10.5-3.2,16.1-3.2
		s11,1.1,16.1,3.2c4.9,2.1,9.3,5.1,13.1,8.9c3.8,3.8,6.8,8.2,8.9,13.1c2.2,5.1,3.2,10.5,3.2,16.1s-1.1,11-3.2,16.1
		c-2.1,4.9-5.1,9.3-8.9,13.1c-3.8,3.8-8.2,6.8-13.1,8.9C99.7,102.9,94.3,104,88.7,104z M88.7,22.3c-22.3,0-40.4,18.1-40.4,40.4
		s18.1,40.4,40.4,40.4s40.4-18.1,40.4-40.4S110.9,22.3,88.7,22.3z"/>
</g>
</svg>
