<?xml version="1.0" encoding="UTF-8"?>
<svg id="Capa_20" data-name="Capa 20" xmlns="http://www.w3.org/2000/svg" viewBox="0 0 177.4 125.4">
  <defs>
    <style>
      .cls-1 {
        fill: #fff;
        stroke-width: 0px;
      }
    </style>
  </defs>
  <path class="cls-1" d="M70.03,86.81h-.05c-.02.3-.08.86-.15,1.26l-.53,3.5h1.42l-.54-3.5c-.05-.41-.13-.96-.15-1.26Z"/>
  <path class="cls-1" d="M66.12,60.87c0-.95-.28-1.71-1.46-1.71h-.48v3.45h.63c.97,0,1.31-.74,1.31-1.7v-.04Z"/>
  <path class="cls-1" d="M105.73,86.3h-.61v7.49h.61c.36,0,.67-.12.88-.3.34-.3.47-.88.47-1.66v-3.57c0-.78-.13-1.36-.47-1.66-.21-.18-.52-.3-.88-.3Z"/>
  <path class="cls-1" d="M71.63,59.06c-.97,0-.97.96-.97,1.92v3.83c0,.96,0,1.92.97,1.92s.98-.96.98-1.92v-3.83c0-.96,0-1.92-.98-1.92Z"/>
  <path class="cls-1" d="M99.35,86.81h-.05c-.02.3-.08.86-.15,1.26l-.53,3.5h1.42l-.54-3.5c-.05-.41-.13-.96-.15-1.26Z"/>
  <path class="cls-1" d="M106.62,31.67c-.97,0-.97.96-.97,1.92v3.83c0,.96,0,1.92.97,1.92s.98-.96.98-1.92v-3.83c0-.96,0-1.92-.98-1.92Z"/>
  <path class="cls-1" d="M82.26,86.21c-.97,0-.97.96-.97,1.92v3.83c0,.96,0,1.92.97,1.92s.98-.96.98-1.92v-3.83c0-.96,0-1.92-.98-1.92Z"/>
  <path class="cls-1" d="M82.74,32.26h-.05c-.02.3-.08.86-.15,1.26l-.53,3.5h1.42l-.54-3.5c-.05-.41-.13-.96-.15-1.26Z"/>
  <path class="cls-1" d="M58.69,32.26h-.05c-.02.3-.08.86-.15,1.26l-.53,3.5h1.42l-.54-3.5c-.05-.41-.13-.96-.15-1.26Z"/>
  <path class="cls-1" d="M112.51,86.21c-.97,0-.97.96-.97,1.92v3.83c0,.96,0,1.92.97,1.92s.98-.96.98-1.92v-3.83c0-.96,0-1.92-.98-1.92Z"/>
  <path class="cls-1" d="M112.38,66.74c.98,0,.98-.96.98-1.92v-3.83c0-.96,0-1.92-.98-1.92s-.97.96-.97,1.92v3.83c0,.96,0,1.92.97,1.92Z"/>
  <path class="cls-1" d="M58.69,59.66h-.05c-.02.3-.08.86-.15,1.26l-.53,3.5h1.42l-.54-3.5c-.05-.41-.13-.96-.15-1.26Z"/>
  <path class="cls-1" d="M47.55,21.55v82.3h82.3V21.55H47.55ZM69.5,30.8l1.02,6.12c.06.41.14.96.16,1.33h.05c.02-.37.09-.92.15-1.33l1.02-6.12h.98l-1.64,9.41h-1.1l-1.64-9.41h.99ZM59.11,94.76h-1.01v-.96s.01-2.9.01-2.9l-1.7-5.56h.99l1.18,4.12h.04l1.18-4.12h.97l-1.69,5.56v3.86ZM59.87,67.61l-.34-2.2h-1.72l-.33,2.2h-1.01l1.53-9.41h1.32l1.52,9.41h-.98ZM59.87,40.22l-.34-2.2h-1.72l-.33,2.2h-1.01l1.53-9.41h1.32l1.52,9.41h-.98ZM66.27,67.61l-1.28-4.07h-.82v4.07s-.98,0-.98,0v-.96s.01-7.49.01-7.49v-.96s1.56,0,1.56,0c1.9,0,2.36,1.21,2.36,2.67v.03c0,1.09-.33,2.03-1.19,2.44l1.38,4.28h-1.04ZM71.21,94.76l-.34-2.2h-1.72l-.33,2.2h-1.01l1.53-9.41h1.32l1.52,9.41h-.98ZM74.07,68.31c-.73,0-1.25-.26-1.58-.7-.25.09-.53.16-.85.16-.56,0-1.02-.17-1.32-.47-.44-.42-.63-1.15-.63-2.71v-3.36c0-1.57.19-2.29.63-2.71.3-.29.76-.47,1.32-.47s1.02.18,1.32.47c.44.42.64,1.15.64,2.71v3.36c0,1.22-.13,1.94-.39,2.4.19.2.48.29.85.29v1.04ZM76.33,94.92c-1.28,0-2.07-.92-2.19-2.58l.95-.15c.09,1.19.56,1.7,1.25,1.7.62,0,.99-.42.99-1.17,0-.67-.3-1.25-.95-1.84l-.95-.95c-.78-.74-1.11-1.57-1.11-2.46,0-1.44.82-2.28,1.97-2.28,1.21,0,1.87.93,1.98,2.36l-.96.13c-.05-.86-.37-1.46-1.04-1.46-.55,0-.95.4-.95,1.2,0,.62.29,1.15.9,1.74l.94.93c.8.72,1.18,1.59,1.18,2.58,0,1.41-.8,2.25-2.01,2.25ZM80.22,59.16v6.35c0,1.45-.75,2.26-1.95,2.26s-1.94-.82-1.94-2.26v-7.31s.98,0,.98,0v.96s-.01,6.23-.01,6.23c0,.88.32,1.36.97,1.36s.98-.47.98-1.36v-7.19s.98,0,.98,0v.96ZM84.23,91.73c0,1.57-.2,2.29-.64,2.71-.3.3-.75.47-1.32.47s-1.02-.17-1.32-.47c-.44-.42-.63-1.15-.63-2.71v-3.36c0-1.57.19-2.29.63-2.71.3-.29.76-.47,1.32-.47s1.02.18,1.32.47c.44.42.64,1.15.64,2.71v3.36ZM83.12,58.2h.99v.96s-.01,7.49-.01,7.49v.96s-.98,0-.98,0v-.96s.01-7.49.01-7.49v-.96ZM83.92,40.22l-.34-2.2h-1.72l-.33,2.2h-1.01l1.53-9.41h1.32l1.52,9.41h-.98ZM86.42,58.2h3.98v.96h-1.51v8.45s-.97,0-.97,0v-.96s.01-7.49.01-7.49h-1.51v-.96ZM90.66,91.72c0,1.58-.2,2.29-.66,2.73-.26.25-.66.47-1.32.47-.6,0-1.02-.18-1.32-.47-.44-.42-.63-1.12-.63-2.71v-3.36c0-1.54.19-2.29.63-2.71.29-.29.75-.47,1.32-.47s1.03.18,1.32.47c.46.43.63,1.2.63,2.53v.03h-.98v-.03c0-1.03,0-1.97-.97-1.97s-.97.95-.97,1.92v3.82c0,1.03,0,1.94.97,1.94s.99-.93.99-2.17v-.04h.98v.04ZM94.52,94.76h-.99v-.96s.01-7.49.01-7.49v-.96s.98,0,.98,0v.96s-.01,7.49-.01,7.49v.96ZM96.11,67.61h-3.41v-.96s.01-7.49.01-7.49v-.96s3.35,0,3.35,0v.96h-2.38v3.05h1.94v.97h-1.94v3.46h2.42v.96ZM96.49,40.22h-3.2v-.96s.01-7.49.01-7.49v-.96s.98,0,.98,0v.96s-.01,7.49-.01,7.49h2.21v.96ZM100.53,94.76l-.34-2.2h-1.72l-.33,2.2h-1.01l1.53-9.41h1.32l1.52,9.41h-.98ZM102.49,64.57c0,1.58-.2,2.29-.66,2.73-.26.25-.66.47-1.32.47-.6,0-1.02-.18-1.32-.47-.44-.42-.63-1.12-.63-2.71v-3.36c0-1.54.19-2.29.63-2.71.29-.29.75-.47,1.32-.47s1.03.18,1.32.47c.46.43.63,1.2.63,2.53v.03h-.98v-.03c0-1.03,0-1.97-.97-1.97s-.97.95-.97,1.92v3.82c0,1.03,0,1.94.97,1.94s.99-.93.99-2.17v-.04h.98v.04ZM108.06,91.55c0,1.51-.22,2.2-.73,2.67-.39.37-.88.54-1.46.54h-1.73v-.96s.01-7.49.01-7.49v-.96s1.72,0,1.72,0c.59,0,1.08.17,1.46.54.5.47.73,1.16.73,2.67v2.99ZM108.36,59.16h-1.51v8.45s-.97,0-.97,0v-.96s.01-7.49.01-7.49h-1.51v-.96h3.98v.96ZM108.59,37.19c0,1.57-.2,2.29-.64,2.71-.3.3-.75.47-1.32.47s-1.02-.17-1.32-.47c-.44-.42-.63-1.15-.63-2.71v-3.36c0-1.57.19-2.29.63-2.71.3-.29.76-.47,1.32-.47s1.02.18,1.32.47c.44.42.64,1.15.64,2.71v3.36ZM110.42,61.22c0-1.57.19-2.29.63-2.71.3-.29.76-.47,1.32-.47s1.02.18,1.32.47c.44.42.64,1.15.64,2.71v3.36c0,1.57-.2,2.29-.64,2.71-.3.3-.75.47-1.32.47s-1.02-.17-1.32-.47c-.44-.42-.63-1.15-.63-2.71v-3.36ZM114.47,91.73c0,1.57-.2,2.29-.64,2.71-.3.3-.75.47-1.32.47s-1.02-.17-1.32-.47c-.44-.42-.63-1.15-.63-2.71v-3.36c0-1.57.19-2.29.63-2.71.3-.29.76-.47,1.32-.47s1.02.18,1.32.47c.44.42.64,1.15.64,2.71v3.36ZM118.8,94.92c-1.28,0-2.07-.92-2.19-2.58l.95-.15c.09,1.19.56,1.7,1.25,1.7.62,0,.99-.42.99-1.17,0-.67-.3-1.25-.95-1.84l-.95-.95c-.78-.74-1.11-1.57-1.11-2.46,0-1.44.82-2.28,1.97-2.28,1.21,0,1.87.93,1.98,2.36l-.96.13c-.05-.86-.37-1.46-1.04-1.46-.55,0-.95.4-.95,1.2,0,.62.29,1.15.9,1.74l.94.93c.8.72,1.18,1.59,1.18,2.58,0,1.41-.8,2.25-2.01,2.25ZM118.86,67.77c-1.28,0-2.07-.92-2.19-2.58l.95-.15c.09,1.19.56,1.7,1.25,1.7.62,0,.99-.42.99-1.17,0-.67-.3-1.25-.95-1.84l-.95-.95c-.78-.74-1.11-1.57-1.11-2.46,0-1.44.82-2.28,1.97-2.28,1.21,0,1.87.93,1.98,2.36l-.96.13c-.05-.86-.37-1.46-1.04-1.46-.55,0-.95.4-.95,1.2,0,.62.29,1.15.9,1.74l.94.93c.8.72,1.18,1.59,1.18,2.58,0,1.41-.8,2.25-2.01,2.25ZM118.92,40.37c-1.28,0-2.07-.92-2.19-2.58l.95-.15c.09,1.19.56,1.7,1.25,1.7.62,0,.99-.42.99-1.17,0-.67-.3-1.25-.95-1.84l-.95-.95c-.78-.74-1.11-1.57-1.11-2.46,0-1.44.82-2.28,1.97-2.28,1.21,0,1.87.93,1.98,2.36l-.96.13c-.05-.86-.37-1.46-1.04-1.46-.55,0-.95.4-.95,1.2,0,.62.29,1.15.9,1.74l.94.93c.8.72,1.18,1.59,1.18,2.58,0,1.41-.8,2.25-2.01,2.25Z"/>
</svg>