<?xml version="1.0" encoding="UTF-8"?>
<svg xmlns="http://www.w3.org/2000/svg" xmlns:xlink="http://www.w3.org/1999/xlink" width="427.9pt" height="213.1pt" viewBox="0 0 427.9 213.1" version="1.1">
<defs>
<clipPath id="clip1">
  <path d="M 0 99 L 427.898438 99 L 427.898438 213.101563 L 0 213.101563 Z M 0 99 "/>
</clipPath>
</defs>
<g id="surface1">
<g clip-path="url(#clip1)" clip-rule="nonzero">
<path style=" stroke:none;fill-rule:evenodd;fill:rgb(0%,31.762695%,56.443787%);fill-opacity:1;" d="M 38.730469 104.316406 C 39.25 103.671875 39.792969 102.941406 40.359375 102.132813 C 41.027344 101.15625 41.582031 100.667969 42.023438 100.667969 C 42.515625 100.667969 42.828125 100.792969 42.980469 101.050781 C 43.132813 101.296875 43.246094 102.078125 43.347656 103.378906 L 44.089844 115.121094 L 44.167969 116.625 C 44.167969 117.640625 43.761719 118.140625 42.980469 118.140625 C 42.464844 118.140625 42.046875 117.71875 41.71875 116.894531 C 40.710938 114.234375 38.894531 111.28125 36.273438 108.03125 C 33.652344 104.777344 30.347656 103.160156 26.363281 103.160156 C 23.398438 103.160156 20.914063 104.019531 18.910156 105.769531 C 16.90625 107.515625 15.34375 109.90625 14.21875 112.9375 C 13.097656 115.984375 12.542969 119.621094 12.542969 123.859375 C 12.542969 131.109375 14.105469 136.878906 17.234375 141.15625 C 20.359375 145.4375 24.257813 147.582031 28.910156 147.582031 C 33.953125 147.582031 38.582031 144.460938 42.792969 138.238281 C 43.308594 137.480469 43.800781 137.109375 44.28125 137.109375 C 45.0625 137.109375 45.453125 137.507813 45.453125 138.316406 C 45.453125 139.976563 43.511719 142.609375 39.640625 146.21875 C 35.757813 149.832031 30.902344 151.644531 25.0625 151.644531 C 17.335938 151.644531 11.21875 149.214844 6.742188 144.34375 C 2.253906 139.472656 0.0234375 133.484375 0.0234375 126.378906 C 0.0234375 119.296875 2.28125 113.15625 6.792969 107.953125 C 11.320313 102.75 17.019531 100.140625 23.917969 100.140625 C 28.769531 100.140625 33.714844 101.539063 38.730469 104.316406 Z M 71.539063 99.535156 L 74.085938 99.535156 C 77.339844 106.71875 81.929688 118.015625 87.867188 133.421875 C 90.59375 140.5 92.484375 144.78125 93.515625 146.285156 C 94.550781 147.773438 96.191406 148.6875 98.421875 149.007813 C 99.167969 149.109375 99.53125 149.433594 99.53125 149.984375 C 99.53125 150.769531 99.050781 151.152344 98.09375 151.152344 C 97.578125 151.152344 96.242188 151.0625 94.070313 150.882813 C 91.511719 150.664063 89.355469 150.550781 87.605469 150.550781 C 85.902344 150.550781 83.683594 150.652344 80.960938 150.859375 C 78.917969 151 77.566406 151.078125 76.925781 151.078125 C 75.789063 151.078125 75.234375 150.71875 75.234375 149.984375 C 75.234375 149.433594 75.625 149.125 76.40625 149.046875 C 79.445313 148.765625 80.960938 147.570313 80.960938 145.4375 C 80.960938 144.421875 80.519531 142.570313 79.621094 139.871094 C 78.738281 137.1875 77.792969 134.730469 76.785156 132.523438 C 75.183594 132.496094 73.9375 132.484375 73.054688 132.484375 C 68.097656 132.484375 64.238281 132.496094 61.492188 132.523438 C 59.347656 138.472656 58.277344 142.402344 58.277344 144.34375 C 58.277344 145.71875 58.804688 146.796875 59.863281 147.554688 C 60.921875 148.328125 62.070313 148.765625 63.292969 148.894531 C 64.238281 148.996094 64.707031 149.382813 64.707031 150.0625 C 64.707031 150.742188 64.203125 151.078125 63.179688 151.078125 C 62.789063 151.078125 61.753906 151.011719 60.078125 150.882813 C 57.921875 150.71875 56.347656 150.628906 55.351563 150.628906 C 53.410156 150.628906 51.566406 150.757813 49.816406 151 C 49.375 151.078125 48.996094 151.117188 48.707031 151.117188 C 47.796875 151.117188 47.34375 150.742188 47.34375 149.984375 C 47.34375 149.433594 47.632813 149.074219 48.226563 148.894531 C 49.703125 148.46875 50.863281 147.941406 51.695313 147.3125 C 52.539063 146.683594 53.445313 145.488281 54.417969 143.703125 C 55.386719 141.914063 56.546875 139.074219 57.910156 135.15625 C 60.960938 126.367188 65.5 114.492188 71.539063 99.535156 Z M 68.957031 112.679688 L 62.601563 129.464844 L 75.601563 129.285156 C 74.90625 127.316406 73.847656 124.632813 72.421875 121.226563 C 70.871094 117.511719 69.710938 114.660156 68.957031 112.679688 Z M 129.277344 123.746094 C 134.371094 124.851563 138.191406 126.535156 140.726563 128.808594 C 143.273438 131.082031 144.53125 133.949219 144.53125 137.417969 C 144.53125 140.296875 143.601563 142.890625 141.746094 145.203125 C 139.878906 147.519531 137.609375 149.058594 134.914063 149.855469 C 132.214844 150.640625 128.292969 151.039063 123.148438 151.039063 C 121.886719 151.039063 119.921875 150.960938 117.234375 150.820313 C 115.015625 150.691406 113.289063 150.628906 112.027344 150.628906 C 110.351563 150.628906 108.09375 150.742188 105.269531 150.960938 C 104.109375 151.0625 103.300781 151.117188 102.835938 151.117188 C 101.863281 151.117188 101.386719 150.757813 101.386719 150.023438 C 101.386719 149.472656 101.777344 149.148438 102.53125 149.046875 C 104.082031 148.839844 105.207031 148.570313 105.910156 148.238281 C 106.617188 147.902344 107.183594 147.324219 107.613281 146.527344 C 108.042969 145.71875 108.257813 144.421875 108.257813 142.609375 L 108.558594 125.03125 C 108.558594 119.554688 108.496094 115.1875 108.371094 111.910156 C 108.246094 108.632813 108.03125 106.511719 107.726563 105.5625 C 107.414063 104.609375 106.984375 103.941406 106.429688 103.570313 C 105.875 103.199219 105.042969 102.964844 103.933594 102.890625 C 102.949219 102.835938 102.316406 102.722656 102.039063 102.554688 C 101.75 102.375 101.613281 102.09375 101.613281 101.679688 C 101.613281 101.15625 101.902344 100.832031 102.480469 100.703125 C 103.0625 100.578125 104.6875 100.523438 107.375 100.523438 C 112.304688 100.523438 116.90625 100.34375 121.195313 99.984375 C 123.726563 99.792969 125.757813 99.691406 127.285156 99.691406 C 131.808594 99.691406 135.429688 100.71875 138.140625 102.761719 C 140.851563 104.804688 142.210938 107.542969 142.210938 110.984375 C 142.210938 116.910156 137.902344 121.160156 129.277344 123.746094 Z M 119.125 123.179688 C 127.585938 123.179688 131.824219 119.453125 131.824219 112 C 131.824219 108.710938 131.078125 106.257813 129.578125 104.636719 C 128.066406 103.019531 126.324219 102.207031 124.332031 102.207031 C 122.894531 102.207031 121.167969 102.566406 119.125 103.261719 C 118.925781 105.804688 118.824219 108.453125 118.824219 111.214844 C 118.824219 113.542969 118.925781 117.539063 119.125 123.179688 Z M 119.125 126.082031 C 118.925781 131.378906 118.824219 135.796875 118.824219 139.332031 C 118.824219 143.996094 119.011719 146.667969 119.378906 147.351563 C 119.742188 148.03125 120.917969 148.367188 122.882813 148.367188 C 126.4375 148.367188 129.085938 147.402344 130.851563 145.476563 C 132.605469 143.535156 133.488281 140.875 133.488281 137.480469 C 133.488281 134.101563 132.578125 131.3125 130.75 129.15625 C 128.9375 126.984375 126.160156 125.890625 122.441406 125.890625 C 121.636719 125.890625 120.527344 125.957031 119.125 126.082031 Z M 177.746094 100.214844 C 182.726563 100.214844 187.074219 101.230469 190.808594 103.261719 C 194.539063 105.304688 197.527344 108.246094 199.785156 112.089844 C 202.042969 115.945313 203.164063 120.148438 203.164063 124.683594 C 203.164063 131.710938 200.589844 137.945313 195.449219 143.378906 C 190.304688 148.816406 183.921875 151.527344 176.308594 151.527344 C 169.386719 151.527344 163.472656 149.277344 158.554688 144.792969 C 153.648438 140.296875 151.191406 134.230469 151.191406 126.570313 C 151.191406 119.335938 153.738281 113.144531 158.820313 107.976563 C 163.898438 102.800781 170.21875 100.214844 177.746094 100.214844 Z M 190.644531 125.8125 C 190.644531 118.207031 189.371094 112.488281 186.835938 108.644531 C 184.300781 104.804688 181.085938 102.890625 177.191406 102.890625 C 173.332031 102.890625 170.128906 104.816406 167.59375 108.671875 C 165.058594 112.527344 163.785156 118.230469 163.785156 125.8125 C 163.785156 133.101563 164.996094 138.742188 167.429688 142.761719 C 169.851563 146.773438 173.105469 148.777344 177.191406 148.777344 C 180.820313 148.777344 183.960938 146.964844 186.632813 143.339844 C 189.308594 139.71875 190.644531 133.871094 190.644531 125.8125 Z M 321.789063 101.269531 C 322.582031 105.1875 323.351563 109.097656 324.121094 113.015625 C 324.121094 113.746094 323.753906 114.109375 323.046875 114.109375 C 322.644531 114.109375 322.203125 113.761719 321.710938 113.054688 C 319.179688 109.289063 316.859375 106.808594 314.753906 105.601563 C 312.648438 104.394531 309.609375 103.789063 305.648438 103.789063 C 303.429688 103.789063 301.285156 103.980469 299.21875 104.355469 C 298.777344 108.800781 298.550781 113.671875 298.550781 118.964844 C 298.550781 119.863281 298.574219 121.394531 298.625 123.527344 L 301.4375 123.550781 C 303.175781 123.550781 304.691406 123.308594 305.964844 122.820313 C 307.222656 122.332031 308.308594 121.289063 309.191406 119.699219 C 310.074219 118.105469 310.578125 117.089844 310.703125 116.625 C 310.929688 115.828125 311.308594 115.429688 311.851563 115.429688 C 312.546875 115.429688 312.886719 115.726563 312.886719 116.332031 C 312.886719 116.511719 312.859375 116.703125 312.808594 116.933594 C 312.519531 118.488281 312.367188 123.140625 312.367188 130.902344 C 312.367188 131.980469 312.457031 132.957031 312.621094 133.832031 C 312.671875 134.089844 312.695313 134.296875 312.695313 134.476563 C 312.695313 135.183594 312.304688 135.527344 311.523438 135.527344 C 310.980469 135.527344 310.554688 134.859375 310.261719 133.535156 C 309.773438 131.199219 308.648438 129.425781 306.898438 128.203125 C 305.15625 126.996094 302.394531 126.355469 298.625 126.300781 C 298.5 130.515625 298.4375 133.292969 298.4375 134.628906 C 298.4375 140.347656 298.523438 143.753906 298.699219 144.832031 C 298.878906 145.910156 299.496094 146.785156 300.578125 147.441406 C 301.664063 148.109375 303.503906 148.441406 306.089844 148.441406 C 315.472656 148.441406 321.636719 145.410156 324.597656 139.332031 C 325.015625 138.484375 325.46875 138.046875 325.960938 138.046875 C 326.679688 138.046875 327.03125 138.355469 327.03125 138.960938 C 327.03125 139.359375 326.957031 139.871094 326.804688 140.5 L 324.410156 151.308594 L 311.03125 151.269531 C 307.273438 151.246094 303.757813 151.152344 300.492188 151 C 297.226563 150.859375 294.679688 150.78125 292.824219 150.78125 C 290.757813 150.78125 287.644531 150.898438 283.480469 151.152344 C 282.964844 151.207031 282.585938 151.230469 282.335938 151.230469 C 281.175781 151.230469 280.59375 150.847656 280.59375 150.0625 C 280.59375 149.355469 281.074219 149.007813 282.007813 149.007813 C 284.390625 149.007813 286.003906 148.351563 286.824219 147.03125 C 287.644531 145.71875 288.058594 143.019531 288.058594 138.960938 L 288.285156 119.570313 C 288.285156 112.9375 288.199219 108.863281 288.046875 107.347656 C 287.882813 105.832031 287.453125 104.804688 286.773438 104.265625 C 286.078125 103.726563 284.78125 103.3125 282.890625 103.042969 C 282.109375 102.941406 281.703125 102.59375 281.703125 101.988281 C 281.703125 101.230469 282.15625 100.859375 283.078125 100.859375 L 291.980469 101.15625 Z M 353.273438 99.535156 L 355.820313 99.535156 C 359.070313 106.71875 363.660156 118.015625 369.601563 133.421875 C 372.324219 140.5 374.214844 144.78125 375.25 146.285156 C 376.28125 147.773438 377.921875 148.6875 380.152344 149.007813 C 380.898438 149.109375 381.265625 149.433594 381.265625 149.984375 C 381.265625 150.769531 380.785156 151.152344 379.828125 151.152344 C 379.308594 151.152344 377.972656 151.0625 375.804688 150.882813 C 373.246094 150.664063 371.089844 150.550781 369.335938 150.550781 C 367.632813 150.550781 365.414063 150.652344 362.691406 150.859375 C 360.648438 151 359.300781 151.078125 358.65625 151.078125 C 357.519531 151.078125 356.964844 150.71875 356.964844 149.984375 C 356.964844 149.433594 357.355469 149.125 358.140625 149.046875 C 361.179688 148.765625 362.691406 147.570313 362.691406 145.4375 C 362.691406 144.421875 362.25 142.570313 361.355469 139.871094 C 360.472656 137.1875 359.527344 134.730469 358.515625 132.523438 C 356.917969 132.496094 355.667969 132.484375 354.785156 132.484375 C 349.828125 132.484375 345.972656 132.496094 343.222656 132.523438 C 341.078125 138.472656 340.007813 142.402344 340.007813 144.34375 C 340.007813 145.71875 340.535156 146.796875 341.597656 147.554688 C 342.65625 148.328125 343.804688 148.765625 345.027344 148.894531 C 345.972656 148.996094 346.4375 149.382813 346.4375 150.0625 C 346.4375 150.742188 345.933594 151.078125 344.914063 151.078125 C 344.523438 151.078125 343.488281 151.011719 341.8125 150.882813 C 339.65625 150.71875 338.078125 150.628906 337.082031 150.628906 C 335.140625 150.628906 333.300781 150.757813 331.546875 151 C 331.105469 151.078125 330.726563 151.117188 330.4375 151.117188 C 329.53125 151.117188 329.074219 150.742188 329.074219 149.984375 C 329.074219 149.433594 329.367188 149.074219 329.957031 148.894531 C 331.433594 148.46875 332.59375 147.941406 333.425781 147.3125 C 334.269531 146.683594 335.179688 145.488281 336.148438 143.703125 C 337.121094 141.914063 338.28125 139.074219 339.640625 135.15625 C 342.691406 126.367188 347.234375 114.492188 353.273438 99.535156 Z M 350.6875 112.679688 L 344.332031 129.464844 L 357.332031 129.285156 C 356.636719 127.316406 355.578125 124.632813 354.15625 121.226563 C 352.605469 117.511719 351.445313 114.660156 350.6875 112.679688 Z M 425.382813 151.039063 C 419.230469 150.71875 409.644531 150.550781 396.644531 150.550781 C 392.105469 150.550781 388.425781 150.691406 385.601563 150.960938 C 384.90625 151.011719 384.402344 151.039063 384.074219 151.039063 C 383.140625 151.039063 382.675781 150.664063 382.675781 149.90625 C 382.675781 149.5625 382.800781 149.316406 383.042969 149.175781 C 383.292969 149.035156 383.898438 148.894531 384.855469 148.738281 C 386.382813 148.519531 387.554688 148.058594 388.363281 147.375 C 389.183594 146.683594 389.75 145.65625 390.089844 144.28125 C 390.417969 142.917969 390.605469 139.421875 390.65625 133.820313 C 390.707031 128.203125 390.734375 121.535156 390.734375 113.8125 C 390.734375 110.714844 390.507813 108.480469 390.066406 107.089844 C 389.625 105.691406 388.992188 104.675781 388.160156 104.03125 C 387.339844 103.402344 386.167969 103.042969 384.667969 102.964844 C 383.609375 102.914063 383.078125 102.515625 383.078125 101.757813 C 383.078125 101.011719 383.683594 100.628906 384.894531 100.628906 L 397.164063 100.972656 C 399.054688 100.972656 401.703125 100.886719 405.09375 100.703125 C 406.328125 100.652344 407.164063 100.628906 407.617188 100.628906 C 408.648438 100.628906 409.167969 101 409.167969 101.71875 C 409.167969 102.132813 409.003906 102.402344 408.664063 102.566406 C 408.335938 102.734375 407.503906 102.914063 406.167969 103.121094 C 404.527344 103.339844 403.355469 103.761719 402.6875 104.394531 C 402.003906 105.023438 401.550781 106.113281 401.3125 107.667969 C 401.085938 109.222656 400.957031 112.71875 400.957031 118.140625 L 400.957031 140.988281 C 400.984375 144.496094 401.300781 146.59375 401.890625 147.261719 C 402.472656 147.914063 403.59375 148.25 405.246094 148.25 C 409.28125 148.25 412.292969 147.929688 414.261719 147.300781 C 416.226563 146.65625 418.105469 145.5 419.898438 143.816406 C 421.675781 142.132813 423.589844 139.304688 425.632813 135.335938 C 426.0625 134.539063 426.492188 134.140625 426.933594 134.140625 C 427.601563 134.140625 427.929688 134.5 427.929688 135.234375 C 427.929688 136.863281 427.085938 142.132813 425.382813 151.039063 Z M 263.972656 142.246094 C 266.628906 150.242188 271.863281 160.75 276.589844 168.4375 C 267.570313 170.804688 258.339844 173.511719 249.105469 175.414063 C 244.207031 166.65625 234.339844 162.027344 224.035156 161.765625 C 217.671875 161.605469 211.203125 163.289063 205.636719 166.339844 C 202.414063 168.109375 195.425781 172.664063 194.597656 176.644531 C 194.394531 177.628906 194.457031 178.6875 195.089844 179.152344 C 196.429688 179.152344 197.621094 179.265625 199.074219 178.707031 C 198.925781 173.882813 200.847656 171.101563 205.5625 168.429688 C 209.390625 166.257813 215.476563 163.863281 222.671875 163.628906 C 232.03125 163.324219 242.507813 167.90625 247.222656 176.375 C 228.433594 181.941406 210.640625 187.867188 192 194.039063 C 172.527344 181.300781 147.648438 169.542969 123.9375 169.570313 C 113.636719 169.582031 103.160156 170.789063 94.429688 176.882813 C 89.703125 180.179688 86.453125 184.832031 86.308594 191.769531 C 85.925781 210.675781 114.808594 212.332031 127.136719 213.09375 C 148.832031 212.832031 169.472656 209.199219 189.078125 199.890625 C 193.523438 202.742188 198.433594 205.140625 203.164063 207.03125 C 211.625 210.417969 220.128906 212.753906 229.226563 211.777344 C 235.300781 211.128906 242.175781 208.613281 246.652344 203.636719 C 249.929688 199.996094 251.417969 196.414063 252.003906 192.640625 C 252.699219 188.144531 252.148438 184.117188 251.433594 179.710938 C 258.363281 178.066406 271.429688 173.871094 279.453125 172.121094 C 284.535156 179.234375 292.058594 186.714844 299.640625 191.320313 C 306.445313 195.449219 313.546875 197.679688 323.738281 198.503906 C 335.574219 199.464844 357.570313 195.792969 357.902344 182.632813 C 358.261719 168.339844 341.566406 165.824219 330.695313 164.378906 C 315.449219 163.371094 300.082031 163.683594 283.546875 166.796875 C 278.730469 156.925781 275.722656 146.679688 273.707031 137.75 C 272.625 133.085938 269.601563 129.964844 267.445313 128.398438 C 265.289063 126.828125 262.539063 125.800781 259.222656 125.324219 C 262.25 125.082031 264.898438 124.476563 267.140625 123.527344 C 269.398438 122.5625 271.277344 121.109375 272.777344 119.15625 C 274.277344 117.191406 275.035156 114.980469 275.035156 112.527344 C 275.035156 108.863281 273.445313 105.894531 270.269531 103.621094 C 267.089844 101.347656 262.703125 100.214844 257.117188 100.214844 C 255.390625 100.214844 253.460938 100.292969 251.316406 100.449219 C 246.488281 100.742188 240.597656 100.898438 233.652344 100.898438 C 232.277344 100.898438 231.585938 101.257813 231.585938 101.988281 C 231.585938 102.683594 232.101563 103.054688 233.136719 103.082031 C 235.769531 103.132813 237.398438 103.929688 238.003906 105.472656 C 238.605469 107.015625 238.898438 111.265625 238.898438 118.246094 L 238.871094 131.761719 L 238.898438 138.765625 C 238.898438 144.007813 238.316406 146.992188 237.144531 147.683594 C 235.984375 148.390625 234.699219 148.738281 233.324219 148.738281 C 232.441406 148.738281 232 149.097656 232 149.792969 C 232 150.523438 232.503906 150.882813 233.511719 150.882813 C 234.105469 150.882813 235.492188 150.832031 237.6875 150.703125 C 240.070313 150.574219 242.035156 150.511719 243.5625 150.511719 L 254.898438 150.820313 C 255.855469 150.820313 256.335938 150.472656 256.335938 149.792969 C 256.335938 149.125 255.78125 148.738281 254.671875 148.675781 C 252.601563 148.570313 251.203125 148.070313 250.460938 147.183594 C 249.726563 146.296875 249.324219 144.820313 249.261719 142.777344 C 249.199219 140.734375 249.171875 135.296875 249.171875 126.457031 C 250.15625 126.378906 250.9375 126.339844 251.507813 126.339844 C 253.449219 126.339844 255.160156 126.785156 256.636719 127.664063 C 260.011719 129.671875 262.417969 137.90625 263.972656 142.246094 Z M 249.171875 123.746094 C 249.816406 123.769531 250.296875 123.785156 250.609375 123.785156 C 252.753906 123.785156 254.921875 123.371094 257.09375 122.5625 C 259.273438 121.742188 260.8125 120.441406 261.71875 118.644531 C 262.613281 116.859375 263.070313 114.941406 263.070313 112.898438 C 263.070313 109.765625 262.148438 107.324219 260.332031 105.5625 C 258.503906 103.800781 256.160156 102.929688 253.273438 102.929688 C 252.0625 102.929688 250.699219 103.160156 249.171875 103.609375 Z M 332.1875 195.339844 C 321.664063 195.296875 307.742188 192.710938 297.066406 184.375 C 294.4375 182.320313 285.375 173.132813 285.855469 170.742188 C 298.09375 167.886719 314.148438 165.929688 326.402344 166.242188 C 339.019531 166.5625 357.492188 168.878906 356.429688 182.5625 C 355.632813 192.851563 341.875 195.382813 332.1875 195.339844 Z M 205.207031 202.433594 C 202.113281 200.863281 197.667969 198.433594 196.691406 197.425781 C 214.476563 191.15625 231.644531 185.71875 249.570313 180.457031 C 250.515625 183.296875 251.09375 189.953125 249.261719 195.554688 C 246.679688 203.4375 238.488281 208.277344 230.414063 209.015625 C 222.238281 209.765625 212.308594 206.042969 205.207031 202.433594 Z M 87.476563 192.828125 C 86.949219 178.101563 101.183594 175.164063 113.980469 174.910156 C 135.902344 174.480469 166.664063 184.5 183.910156 196.859375 C 178.398438 199.296875 172.203125 201.414063 165.808594 203.097656 C 151.796875 206.792969 139.320313 208.546875 124.644531 209.667969 C 113.582031 210.015625 88.085938 209.921875 87.476563 192.828125 Z M 87.476563 192.828125 "/>
</g>
<path style=" stroke:none;fill-rule:evenodd;fill:rgb(63.084412%,54.101563%,18.821716%);fill-opacity:1;" d="M 256.105469 52.65625 C 256.199219 48.976563 256.289063 47.335938 260.480469 47.902344 C 264.753906 49.816406 267.476563 51.125 270.527344 50.507813 C 274.289063 49.757813 277.808594 46.523438 277.984375 41.585938 C 278.171875 36.472656 274.730469 31.585938 269.304688 31.355469 C 267.324219 31.269531 265.273438 31.949219 263.53125 33.761719 C 262.414063 34.390625 259.921875 34.988281 258.769531 33.835938 C 259.699219 28.691406 258.449219 22.566406 253.035156 18.9375 C 250.578125 17.289063 247.503906 16.296875 244.898438 16.859375 C 244.0625 17.042969 243.589844 17.511719 244.292969 18.503906 C 247.734375 20.84375 247.875 24.519531 247.875 27.285156 C 247.878906 31.007813 246.144531 33.917969 243.890625 35.824219 C 241.277344 38.035156 237.6875 38.921875 234.308594 38.796875 C 232.023438 38.710938 229.710938 37.96875 228.140625 35.695313 C 227.324219 33.089844 227.101563 30.746094 227.621094 28.328125 C 228.566406 26.882813 230.117188 26.5625 231.773438 26.816406 C 234.195313 27.191406 236.839844 28.785156 238.152344 29.890625 C 239.417969 27.667969 238.523438 23.925781 237.316406 21.464844 C 235.554688 17.863281 231.25 16.105469 227.507813 15.675781 C 227.933594 14.101563 228.378906 10.910156 228.105469 8.070313 C 227.75 4.390625 226.304688 1.027344 222.613281 -0.0976563 C 218.921875 1.027344 217.476563 4.390625 217.121094 8.070313 C 216.84375 10.910156 217.292969 14.101563 217.714844 15.675781 C 213.976563 16.105469 209.671875 17.863281 207.910156 21.464844 C 206.703125 23.925781 205.808594 27.667969 207.074219 29.890625 C 208.382813 28.785156 211.03125 27.191406 213.453125 26.816406 C 215.109375 26.5625 216.660156 26.882813 217.605469 28.328125 C 218.125 30.746094 217.902344 33.089844 217.082031 35.695313 C 215.515625 37.96875 213.203125 38.710938 210.917969 38.796875 C 207.539063 38.921875 203.949219 38.035156 201.335938 35.824219 C 199.082031 33.917969 197.347656 31.007813 197.351563 27.285156 C 197.351563 24.519531 197.492188 20.84375 200.933594 18.503906 C 201.636719 17.511719 201.164063 17.042969 200.328125 16.859375 C 197.722656 16.296875 194.648438 17.289063 192.191406 18.9375 C 186.777344 22.566406 185.527344 28.691406 186.457031 33.835938 C 185.304688 34.988281 182.808594 34.390625 181.695313 33.761719 C 179.953125 31.949219 177.902344 31.269531 175.917969 31.355469 C 170.496094 31.585938 167.054688 36.472656 167.238281 41.585938 C 167.417969 46.523438 170.933594 49.757813 174.699219 50.507813 C 177.75 51.125 180.472656 49.816406 184.746094 47.902344 C 188.9375 47.335938 189.027344 48.976563 189.121094 52.65625 C 198.714844 45.828125 210.238281 41.835938 222.613281 41.835938 C 234.988281 41.835938 246.511719 45.828125 256.105469 52.65625 Z M 223.535156 47.800781 C 235.539063 47.800781 246.671875 51.894531 255.757813 58.828125 L 255.757813 64.046875 C 246.792969 57.234375 235.625 53.179688 223.535156 53.179688 C 210.605469 53.179688 198.722656 57.820313 189.46875 65.515625 L 189.46875 60.296875 C 198.875 52.472656 210.707031 47.800781 223.535156 47.800781 Z M 190.890625 71.820313 L 192.808594 75.644531 L 197.074219 75.917969 L 193.675781 78.765625 L 194.710938 82.550781 L 190.695313 80.484375 L 187.066406 82.550781 L 187.980469 78.425781 L 184.703125 75.917969 L 189.285156 75.4375 Z M 206.660156 64.621094 L 208.578125 68.445313 L 212.84375 68.71875 L 209.449219 71.566406 L 210.480469 75.351563 L 206.464844 73.285156 L 202.835938 75.351563 L 203.75 71.226563 L 200.472656 68.71875 L 205.054688 68.238281 Z M 222.613281 62.347656 L 224.53125 66.175781 L 228.796875 66.449219 L 225.402344 69.292969 L 226.4375 73.078125 L 222.417969 71.011719 L 218.789063 73.078125 L 219.703125 68.957031 L 216.425781 66.449219 L 221.007813 65.964844 Z M 254.335938 71.820313 L 252.417969 75.644531 L 248.152344 75.917969 L 251.546875 78.765625 L 250.515625 82.550781 L 254.53125 80.484375 L 258.160156 82.550781 L 257.246094 78.425781 L 260.523438 75.917969 L 255.941406 75.4375 Z M 238.566406 64.621094 L 236.648438 68.445313 L 232.378906 68.71875 L 235.777344 71.566406 L 234.742188 75.351563 L 238.761719 73.285156 L 242.390625 75.351563 L 241.472656 71.226563 L 244.75 68.71875 L 240.167969 68.238281 Z M 238.566406 64.621094 "/>
</g>
</svg>
