<?xml version="1.0" encoding="utf-8"?>
<!-- Generator: Adobe Illustrator 27.0.1, SVG Export Plug-In . SVG Version: 6.00 Build 0)  -->
<svg version="1.1" id="Capa_1" xmlns="http://www.w3.org/2000/svg" xmlns:xlink="http://www.w3.org/1999/xlink" x="0px" y="0px"
	 viewBox="0 0 177.4 125.4" style="enable-background:new 0 0 177.4 125.4;" xml:space="preserve">
<style type="text/css">
	.st0{opacity:0.48;fill:#FFFFFF;}
	.st1{opacity:0.66;fill:#FFFFFF;}
	.st2{fill:#FFFFFF;}
	.st3{opacity:0.74;fill:#FFFFFF;}
	.st4{fill-rule:evenodd;clip-rule:evenodd;fill:#FFFFFF;}
	.st5{fill:#1D2A4C;}
</style>
<g>
	<g>
		<path class="st2" d="M103.3,81.5c0.7,0.3,1.2,0,1.3-0.7c0.1-0.3,0.2-0.6,0.3-0.9c-0.1-0.1-0.3-0.1-0.4-0.2c0-0.1,0.1-0.3,0.1-0.3
			c0.2,0,0.4,0,0.6,0c0.2-0.3,0.5-0.6,0.9-1c-0.1,0-0.1-0.1-0.1-0.1c-0.8,0-0.8-0.7-1-1.3c0-0.1-0.1-0.2-0.2-0.3
			c-0.4-0.2-0.4-0.5-0.2-0.9c0.1-0.3,0.1-0.7,0.2-1.1c0.1-0.2,0.2-0.4,0.3-0.7c-0.1,0-0.2,0-0.3,0.1c-0.1-0.3-0.1-0.7-0.3-0.8
			c-0.2-0.1-0.6-0.1-0.9-0.1c-0.2,0-0.5,0.1-0.7,0.2c-0.1-0.2-0.1-0.3-0.2-0.5c0.7,0,1.3,0,2,0.1c0.4,0,0.8,0,1-0.4
			c0-0.1,0.2-0.2,0.3-0.3c0,0,0,0,0,0c0.1,0,0.2-0.1,0.3-0.1c0,0,0.1,0.1,0.1,0.1c-0.4,0.4-0.8,0.9-1.2,1.3c0,0,0,0.1,0,0.1
			c0.3-0.1,0.6-0.1,0.7-0.3c0.3-0.3,0.5-0.2,0.8-0.1c0.6,0.2,1.2,0.3,1.9,0.4c0.1-0.8,0-1.5-0.4-2.2c-0.4-0.6-0.8-1.2-1.1-1.9
			c0.5-0.4,0.8-0.8,0.9-1.3c0.1-0.2,0.3-0.4,0.4-0.5c0.1,0.2,0.3,0.3,0.3,0.5c0.2,0.6,0.3,1.2,0.5,1.8c0,0,0,0,0,0
			c0.2-0.1,0.3-0.2,0.5-0.3c0.1,0.2,0.2,0.4,0.2,0.6c0,0.5,0,1,0,1.4c-0.1,0-0.1,0-0.2,0c0-0.6,0-1.1,0-1.7
			c-0.4,0.2-0.7,0.4-0.5,0.9c0.1,0.3,0.1,0.6,0.1,1c-0.3-1.4-0.6-2.7-0.8-4.1c-0.1,0-0.2,0-0.2,0c-0.1,0.5-0.3,1-0.2,1.4
			c0.1,0.5,0.4,0.9,0.6,1.3c0,0-0.1,0.1-0.1,0.1c-0.2-0.4-0.4-0.8-0.7-1.2c-0.1,0-0.1,0-0.2,0c0,0.2-0.1,0.4,0,0.5
			c0.2,0.4,0.4,0.9,0.8,1.2c0.7,0.5,0.5,1.1,0.4,1.7c0,0.2,0.2,0.4,0.3,0.7c0.8,0.5,1.8,1,2.7,1.5c0,0,0-0.1,0-0.1
			c-0.4-0.4-0.9-0.7-1.3-1.1c-0.1-0.1-0.2-0.3-0.2-0.5c0.1-0.6,0.2-1.2,0.5-1.7c0.7-1.3,1.4-2.6,2.9-3.1c0.6-0.2,1.1-0.3,1.6,0
			c0.1-0.8,0.5-1.1,1.2-1.3c0.6-0.1,1.1,0.3,1.4,0.7c0.4,0.6,0.6,1.4,0.8,2c-0.1,0.1-0.2,0.1-0.2,0.2c-0.1-0.3-0.2-0.5-0.3-0.7
			c-0.6,0.6-1.1,1.1-1.6,1.6c0.5,0.2,1,0.4,1.5,0.7c0.1,0.1,0.3,0.3,0.3,0.4c0.3,0.5,0.5,0.5,0.9,0c-0.1,0-0.2,0-0.3,0
			c-0.1,0-0.2,0-0.3,0c0.1-0.3,0.1-0.6,0.3-0.8c0.1-0.1,0.3-0.2,0.4-0.1c0.1,0,0.3,0.3,0.2,0.4c-0.1,0.4,0,0.5,0.4,0.8
			c0.4,0.3,0.5,1,0.7,1.5c0.1,0.4,0.2,0.8,0.3,1.3c0.6-0.6,1.2-0.4,1.7-0.3c0.7,0.2,1.5,0.3,2.2,0.6c0.6,0.2,1.1,0.5,1.2,1.2
			c0.1,0.9,0.6,1.4,1.4,1.8c0.1,0,0.2,0.1,0.2,0.3c-0.4-0.2-0.7-0.4-1.1-0.6c-0.1,0.4-0.2,0.7,0.3,0.9c-0.1-0.2-0.1-0.3-0.2-0.5
			c0.6,0.4,1.2,0.7,1.7,1c0,0,0,0.1,0,0.1c-0.2,0-0.4,0.1-0.6,0c-0.4-0.3-0.8-0.3-1.1-0.1c-0.2-0.2-0.3-0.4-0.4-0.5
			c-0.1,0-0.1,0.1-0.2,0.1c-0.6,0.6-0.6,0.6-0.2,1.3c0.9,1.6,0.8,3.2-0.4,4.9c0.4,0,0.8,0.1,1.1,0c1.2-0.4,2.2,0.1,3.1,0.6
			c0.7,0.4,1.5,0.8,2.3,1.1c0.4,0.1,0.8,0.2,1.2,0.2c1.4-0.3,2.7,0.1,4,0.6c0.7,0.3,1.5,0.3,2.2,0.3c0.4,0,0.8,0,1.2,0.1
			c1.1,0.2,2.1,0.6,3.1,0.6c0.9,0.1,1.7,0.5,2.5,0.6c0.9,0.1,1.7,0.4,2.6,0.6c0.2,0,0.4,0,0.6,0.1c0,0,0-0.1,0.1-0.1
			c-0.2-0.2-0.4-0.4-0.6-0.6c0,0,0.1-0.1,0.1-0.2c0.5,0.5,1,1,1.4,1.6c0,0-0.1,0-0.3,0c-0.5,0-1.1,0-1.6,0c-31.7,0-63.4,0-95.1,0
			c-5,0-10.1,0.2-15.1,0.1c-3.8-0.1-7.1-1.4-9.7-4.3c-1.8-2-2.6-4.5-2.6-7.2c0-1.3,0.3-2.6,0.6-4c0.8-4.1,1.6-8.2,2.4-12.4
			c0.4-2.2,0.7-4.4,1.5-6.5c0.7-1.7,1.5-3.2,3.1-4.2c0.9-0.6,1.9-0.9,3-0.8c1.4,0.2,2.3,1,2.8,2.2c0.7,1.4,0.8,2.9,0.7,4.4
			c-0.3,2.9-0.8,5.8-1.2,8.6c-0.5,3.3-0.9,6.5-1.4,9.8c-0.1,0.7-0.2,1.5-0.2,2.2c-0.1,1.3,1,2.7,2.6,2.5c0.1-0.7,0.3-1.4,0.4-2.1
			c0.6-3.5,1.2-7,1.8-10.5c0.8-4.6,1.7-9.2,2.5-13.9c0.5-2.9,0.9-5.9,1.4-8.8c0.5-2.8,1.2-5.6,2.6-8.1c0.7-1.3,1.6-2.4,3-3.2
			c2.8-1.5,5.6-0.8,6.8,2.5c0.7,2,0.7,4.1,0.5,6.2c-0.1,1.6-0.5,3.1-0.7,4.7c-0.3,2.5-0.6,5-1,7.5c-0.3,2.5-0.7,5-1,7.5
			c-0.3,2.5-0.7,4.9-1,7.4c-0.3,2.1-0.6,4.2-0.8,6.4c0,0.1,0,0.2,0,0.4c1.1,0.3,2.1-0.4,2.2-1.5c0.4-3,0.8-6,1.2-8.9
			c0.4-3,0.7-6.1,1.2-9.1c0.2-1.1,0.6-2.3,1.2-3.3c1.5-2.7,4.4-2.8,6.2-0.3c0.8,1.2,1.3,2.5,1.5,3.9c0.2,1.3,0.3,2.7,0.3,4
			c0,1.7-0.3,3.3-0.4,5c-0.1,0.9-0.2,1.8-0.3,2.8c0,0.2,0.1,0.4,0.2,0.8c0.2-0.2,0.3-0.3,0.3-0.4c0.8-1.6,2.2-2.5,3.3-3.8
			c0.1-0.2,0.4-0.3,0.7-0.3c1.4,0,2.9,0,4.3,0.1c0.3,0,0.6,0.1,0.8,0.3c1.2,0.9,2.4,1.9,3.5,2.9c0.2,0.1,0.3,0.3,0.4,0.5
			c0.3,0.6,0.7,1,1.4,1.1c0.1,0,0.2,0.1,0.3,0c1-0.5,2,0.1,2.9,0.2c0.7,0.1,1.5,0.2,1.9,1c0,0.1,0.2,0.1,0.3,0.1
			c1.2-0.1,1.2-0.2,1.5-1.4c0.6-2.5,1.2-5.1,1.8-7.6c0.1-0.4,0.3-0.8,0.4-1.3c0,0,0.1,0,0.1,0c0,0.1,0,0.3,0,0.4l0,0
			c-0.2,0.5-0.4,1.1-0.6,1.6c0,0,0.1,0.1,0.1,0.1c0.1-0.1,0.1-0.2,0.2-0.4c0,0,0,0,0.1,0c-0.2,0.8-0.4,1.6-0.7,2.5
			c-0.1-0.2-0.2-0.2-0.2-0.3c-0.1,0.8-0.1,1.6-0.2,2.5c-0.1,0-0.2,0-0.2,0c0.1-0.5,0.2-1,0.3-1.5c0,0-0.1,0-0.1,0
			c-0.2,0.9-0.4,1.7-0.5,2.6c0,0,0.1,0,0.1,0c0.1-0.2,0.1-0.3,0.2-0.5c0,0,0,0,0.1,0c-0.1,0.7-0.2,1.5-0.3,2.2
			c-0.1,0.6-0.1,0.5,0.5,0.5c1.4,0,2.7,0,4.1,0.1c1.3,0.1,2.6,0.2,4,0.3c-0.5-1.1-0.4-2.1,0.7-2.9c-0.2,0.3-0.4,0.7-0.6,1
			c-0.2,0.3-0.5,0.6,0,0.9c0,0,0.1,0.1,0.1,0.1c0,1.2,1,1,1.7,1.3l0,0c0,0.2,0,0.4,0.1,0.6c-0.3,0-0.7,0-1.1-0.1c0,0,0-0.1,0-0.1
			c0.2-0.1,0.4-0.2,0.6-0.3c-0.6-0.3-0.6-0.3-1.3,0.4c0-0.2,0.1-0.4,0.1-0.6c-1.2-0.2-2.5-0.3-3.7-0.5c-0.2,0.4-0.3,0.7-0.4,0.9
			c-0.4-0.2-0.6-0.4-0.9-0.4c-0.8-0.1-1.7-0.1-2.5-0.1c-0.1,0-0.3-0.1-0.4-0.2c-0.2-0.4-0.5-0.3-0.7-0.1c-0.1,0.1-0.1,0.4-0.1,0.6
			c0,0.1,0,0.3-0.1,0.4c0,0-0.2,0.1-0.2,0c-0.1-0.1-0.1-0.2-0.1-0.4c0-0.2,0.3-0.5-0.1-0.6c-0.4-0.1-0.5,0.3-0.5,0.6
			c0,0.1,0,0.2,0,0.3c-0.2,0-0.4,0-0.6,0c0.1-0.2,0.2-0.5,0.3-0.8c-0.3,0.1-0.5,0.2-0.8,0.3c0.1,0.3,0.3,0.6,0.3,0.9
			c0,0.5,0,1.1-0.1,1.6c-0.1,0.2-0.4,0.4-0.6,0.6c-0.1,0.2-0.2,0.5-0.1,0.7c0.1,0.5,0.2,1.1,0.3,1.6c0,0.2,0.2,0.4,0.3,0.5
			c1,0.3,1.9,0.7,2.9,0.8c0.7,0.1,1.4,0,2.1,0.1c0.4,0,0.7,0.1,1.1,0.2c1.8,0.3,3.7,0.7,5.5,1c0.2,0,0.4,0,0.5-0.1
			c0.6-0.6,1.3-0.2,1.9,0C102.3,81,102.8,81.3,103.3,81.5L103.3,81.5z M27.3,78.5c0.1-0.1,0.1-0.2,0.2-0.3c0.1-0.5,0.4-0.6,0.9-0.5
			c0.1,1,0.1,2,0.2,3.1c0.2,1.6,0.7,3.1,1.7,4.3c0.1,0.1,0.3,0.2,0.5,0.3c0,0,0.1-0.1,0.1-0.1c-0.1-0.2-0.3-0.3-0.4-0.6
			c0.2-0.1,0.3-0.1,0.4-0.2c0.1,0.2,0.2,0.4,0.3,0.6c0.1,0.1,0.3-0.1,0.4-0.1c-0.4-0.9-1-1.6-1.3-2.5c-0.7-1.9-0.6-4-0.2-6
			c0.3-2,0.6-4,0.9-6c0.2-1.7,0.5-3.4,0.7-5c0.2-1.5,0.4-3,0.6-4.6c0.2-1.8,0.6-3.6,1.3-5.2c0.4-1,1-2,1.6-3c-0.5,0.4-1.1,0.7-1.5,1
			c-1.1,0.9-1.7,2.1-2.1,3.4c-0.5,1.5-0.8,3.1-1.1,4.7c-0.5,2.4-1,4.8-1.4,7.2c-0.4,2.3-0.9,4.5-1.3,6.8
			C27.6,76.7,27.4,77.6,27.3,78.5c-0.3,0.7-0.1,1.5,0,2.2C27.3,79.9,27.3,79.2,27.3,78.5z M48.5,83.4C48.5,83.4,48.5,83.4,48.5,83.4
			c0.2-0.4,0.2-0.7,0.3-1.1c0.3-1.9,0.5-3.8,0.8-5.7c0.3-2.1,0.6-4.1,0.9-6.2c0.3-2.1,0.6-4.2,0.9-6.2c0.2-1.7,0.5-3.5,0.7-5.2
			c0.3-1.7,0.5-3.5,0.8-5.2c0.2-1.7,0.5-3.3,0.7-5c0.2-1.6,0.5-3.2,0.7-4.8c0.3-2,0.8-3.9,0.5-5.9c-0.1-0.8-0.3-1.5-0.5-2.2
			c-0.3,0.2-0.4,0.3-0.5,0.5c-1.3,1.8-2.2,3.8-2.7,6c-0.4,1.5-0.6,3-0.8,4.6c-0.3,1.7-0.5,3.4-0.8,5.1c-0.3,2.1-0.6,4.2-0.9,6.4
			c-0.4,2.8-0.9,5.7-1.3,8.5c-0.4,2.9-0.9,5.7-1.3,8.6c-0.1,0.4-0.1,0.7-0.1,1.1c0,0,0.1,0,0.1,0c0.1-0.2,0.2-0.4,0.2-0.7
			c0,0,0.1,0,0.1,0c-0.1,0.2-0.1,0.5-0.2,0.7c0.1,0,0.2-0.1,0.2-0.1c0,0.3-0.1,0.7-0.1,1c0,0.2,0,0.5,0.1,0.7c0,0.4-0.2,0.9,0.3,1.2
			c0.1,0,0,0.3,0,0.5c-0.1,0.3-0.3,0.6-0.3,0.9c-0.1,1.2-0.2,2.4-0.3,3.5c0,0.3-0.1,0.6-0.1,0.9c0.1,0,0.1,0,0.2,0
			c1.2-6.9,2.4-13.8,3.6-20.8c0.2,0.5,0.1,1,0,1.5c-0.2,0.8-0.3,1.7-0.5,2.6c-0.2,1.1-0.5,2.1-0.2,3.2c0,0.2-0.1,0.3-0.1,0.5
			c0,0.2-0.2,0.3-0.1,0.4c0.1,0.7,0.1,1.4,0.2,2.2c0,0.4,0,0.8,0.1,1.2c0,0.5,0.2,1,0.2,1.4c-0.1,1.2-0.3,2.4-0.4,3.6
			C48.6,81.8,48.5,82.6,48.5,83.4z M54.9,35.1c1,2.6,0.9,5.2,0.4,7.9c-0.4,2.1-0.7,4.1-1,6.2c-0.3,2-0.6,4.1-0.9,6.1
			c-0.2,1.7-0.5,3.5-0.7,5.2c-0.2,1.7-0.5,3.3-0.7,5c-0.2,1.7-0.5,3.5-0.7,5.2c-0.2,1.8-0.5,3.5-0.7,5.3c-0.1,1.1-0.3,2.2-0.5,3.2
			c-0.1,0.4,0.1,0.6,0.4,0.7c0.6,0.1,0.5,0.4,0.3,0.8c-0.1,0.5-0.2,1-0.2,1.5c0,1.4,0,2.9,0,4.3c0,0.3-0.1,0.7-0.1,1
			c0.1,0,0.1,0,0.2,0c1-7.3,2.1-14.7,3.1-22c0.1,0,0.1,0,0.2,0c-0.1,0.4-0.2,0.7-0.2,1.1c-0.1,0.9-0.2,1.7-0.3,2.6
			c-0.1,0.7-0.2,1.4-0.2,2.1c0,0.3,0,0.6-0.1,0.9c-0.1,0.6-0.3,1.2-0.1,1.8c0.2,0.6,0.3,1.4-0.1,2c0,0.1,0,0.2,0,0.3
			c0.2-0.1,0.3-0.1,0.5-0.3c-0.4,2.8-0.7,5.4-1,8.1c0.2-0.2,0.2-0.4,0.2-0.5c0.2-1.5,0.4-3,0.6-4.6c0.3-1.8,0.5-3.7,0.8-5.5
			c0.2-1.4,0.4-2.9,0.6-4.3c0.2-1.8,0.5-3.6,0.8-5.4c0.2-1.5,0.4-3,0.6-4.5c0.3-1.9,0.5-3.7,0.8-5.6c0.3-2.3,0.6-4.7,1-7
			c0.4-2.4,0.7-4.7,0.4-7.1c-0.2-1.2-0.4-2.3-1.2-3.3C56.5,35.7,55.9,35.2,54.9,35.1z M45.4,71.6c0.1,0,0.1,0,0.2,0
			c0.1-0.5,0.1-0.9,0.2-1.4c0.3-2.2,0.7-4.4,1.1-6.6c0.3-2.2,0.7-4.4,1-6.6c0.4-2.5,0.8-5,1.2-7.4c0.4-2.3,0.7-4.7,1.1-7
			c0.4-2.2,1.2-4.3,2.5-6.1c0.3-0.5,0.6-0.9,1-1.4c-1.6,0.4-2.7,1.3-3.6,2.6c-2.1,3.1-2.7,6.7-3.3,10.3c-0.3,1.9-0.5,3.8-0.8,5.7
			c-0.4,2.7-0.9,5.4-1.4,8.1c-0.6,3.3-1.1,6.6-1.7,10c-0.1,0.6-0.2,1.1-0.3,1.7c0,0,0.1,0,0.1,0c0.1-0.3,0.1-0.5,0.2-0.8
			c0.1,0.1,0.1,0.2,0.1,0.2c0,0.5-0.1,1.1-0.2,1.6c0,0.5,0.1,1,0.1,1.5c0,0.5,0,0.9,0,1.4c-0.1,0.8-0.2,1.7-0.3,2.5c0,0,0.1,0,0.1,0
			c0-0.1,0.1-0.2,0.1-0.3c0.2-1.1,0.4-2.2,0.6-3.3c0-0.3,0-0.6-0.1-0.9c-0.2-0.6-0.2-1.1,0.2-1.6c0,0.2,0,0.4,0,0.6
			c0,0.2,0,0.4,0,0.6c0,0,0.1,0,0.1,0c1-6,2-12,3-18c0.1,0,0.2,0,0.2,0c-0.1,0.5-0.2,1-0.3,1.5c-0.1,0.6-0.1,1.3-0.2,1.9
			c0,0.1,0.2,0.2,0.2,0.2c0.2,0.2,0.4,0.4,0.1,0.6c-0.1,0.1,0,0.3-0.1,0.4c0,0.1,0,0.3,0,0.4c-0.1-0.1-0.2-0.1-0.3-0.2
			c0,0-0.1-0.1-0.2-0.2c-0.1,1.1-0.3,2,0,3c0.2-0.2,0.3-0.5,0.4-0.8c0.1-0.3,0.1-0.6,0.2-0.8c0,0,0.1,0,0.1,0
			C46.3,65.9,45.9,68.8,45.4,71.6z M34.4,82.6C34.4,82.6,34.4,82.6,34.4,82.6c0.1-0.1,0.1-0.2,0-0.2c-0.6-1-1-2.2-0.9-3.4
			c0-1.1,0.2-2.1,0.3-3.2c0.2-1.5,0.4-3,0.6-4.4c0.3-2,0.6-4,0.9-6c0.4-2.4,0.8-4.8,1.1-7.2c0.2-1.1,0.2-2.3,0.2-3.4
			c0-0.5-0.2-1.1-0.3-1.6c-0.1,0-0.1,0-0.2,0c-0.2,0.3-0.5,0.6-0.7,0.9c-0.9,1.4-1.6,2.9-1.9,4.5c-0.5,2.6-0.8,5.3-1.2,8
			c-0.2,1.7-0.5,3.4-0.7,5.1c-0.2,1.7-0.5,3.3-0.7,5c-0.1,0.5-0.1,0.9-0.1,1.4c0,0,0.1,0,0.1,0c0.2-1.2,0.4-2.5,0.5-3.7
			c0.1,0,0.1,0,0.2,0c0.1,0.3,0.1,0.7,0.2,1c0.8-0.8,0.5-2,0.9-2.9c0.1,0.2,0.1,0.5,0.1,0.7c-0.2,1.3-0.3,2.7-0.5,4
			c-0.2,1.6-0.4,3.1,0.3,4.6c0.1,0.3,0.3,0.6,0.5,0.8c0.2-0.4-0.2-1.1,0.5-1.1C33.9,81.9,34.1,82.3,34.4,82.6z M61.6,72.7
			c0.1,0,0.1,0,0.2,0.1c-0.2,1.6-0.3,3.3-0.5,4.9c-0.1,0.5-0.2,1-0.5,1.4c-0.5,0.6-1.1,1.2-1.7,1.8c0.3,0.2,0.6,0.5,0.2,0.9
			c-0.3,0.3-0.6,0.4-1.1,0.7c0.4-0.1,0.8-0.2,1-0.3c1.8-0.8,2.9-2.2,3.2-4.2c0.3-2.1,0.6-4.1,0.8-6.2c0.3-2.6,0.7-5.1,1-7.7
			c0.3-2.5,0.8-4.9,0.5-7.4c-0.1-0.8-0.3-1.6-0.5-2.5c0-0.2-0.2-0.3-0.3-0.5c-0.2,0.1-0.4,0.2-0.5,0.4c-0.2,0.2-0.3,0.5-0.4,0.8
			c-0.3,1.5-0.7,2.9-0.9,4.4c-0.3,2.4-0.6,4.8-0.9,7.2c-0.3,2.5-0.6,4.9-0.9,7.4c-0.1,0.5-0.1,1.1-0.1,1.6c0,0,0.1,0,0.1,0
			c0.1-0.5,0.2-1,0.3-1.5c0.1,0,0.1-0.1,0.2-0.1c0.1,0.2,0.1,0.3,0.2,0.5c0,0,0.1-0.1,0.1-0.1C61.3,73.8,61.5,73.3,61.6,72.7z
			 M37,52.7c0.1,1,0.3,2,0.3,3c0.1,2.3-0.6,4.5-0.9,6.8c-0.2,1.4-0.4,2.9-0.6,4.3c-0.2,1.4-0.4,2.9-0.6,4.3
			c-0.1,0.8-0.2,1.6-0.3,2.4c0.3-0.6,0.5-1.1,0.7-1.7c0.1-0.3,0-0.9,0.2-0.9c0.6-0.2,0.4-0.7,0.5-1c0-0.1,0.1-0.2,0.2-0.4
			c0.1,0.2,0.1,0.3,0.1,0.4c-0.1,1-0.2,1.9-0.4,2.9c-0.2,1.7-0.5,3.4-0.7,5.1c-0.1,0.4,0,0.9,0.1,1.3c0.1,0,0.1,0,0.2,0
			c0-0.3,0.1-0.6,0.1-0.9c0.2,0,0.4,0,0.6,0c-0.1,0.3-0.1,0.5-0.2,0.9c0.2-0.1,0.2-0.2,0.4-0.3c0,0.3,0,0.6,0,0.9
			c0.2-1.7,0.4-3.5,0.7-5.2c0.4-2.9,0.9-5.7,1.3-8.6c0.3-2.1,0.7-4.1,0.9-6.2c0.2-1.5,0.3-3.1-0.2-4.6C38.9,53.9,38.3,52.9,37,52.7z
			 M61.3,84.5c0.3-0.1,0.5-0.1,0.7-0.2c1.8-0.9,3-2.4,3.5-4.4c0.4-1.4,0.5-2.9,0.7-4.3c0.4-3.8,0.8-7.6,1.3-11.4
			c0.3-2.4,0.1-4.7-0.5-7.1c-0.3-1-0.7-1.9-1.5-2.7c0.1,0.5,0.2,1,0.2,1.4c0.1,1.4,0.3,2.8,0.1,4.1c-0.2,2.5-0.6,4.9-1,7.4
			c-0.4,2.9-0.7,5.7-1.1,8.6c0,0.3-0.1,0.7-0.1,1c0,0,0.1,0,0.1,0c0.1-0.5,0.2-1,0.3-1.5c0,0,0.1,0,0.1,0c0.1,0.6,0.1,1.1,0.2,1.7
			c0.1,0,0.1,0,0.2,0c0.1-1.1,0.3-2.3,0.4-3.4c0,0,0.1,0,0.1,0c-0.1,1.1-0.3,2.2-0.4,3.3c-0.1,0.6-0.1,1.2-0.2,1.8
			c-0.5,1.9-1.6,3.4-3.1,4.6c-0.1,0.1-0.2,0.2-0.3,0.3c0.2,0.1,0.4,0.1,0.6,0.2C61.5,84.1,61.4,84.2,61.3,84.5z M62.6,53.7
			c-0.3,0.2-0.5,0.3-0.8,0.5c-1,0.9-1.5,2.1-1.7,3.3c-0.4,2.1-0.7,4.2-0.9,6.3c-0.3,2.3-0.6,4.7-0.9,7C58.2,71.9,58.1,73,58,74
			c0.3-0.5,0.1-1.1,0.8-1.5c0,0.3,0,0.5,0,0.6c-0.2,1.4-0.4,2.9-0.5,4.3c0,0.1,0,0.3,0,0.3c0.3,0.3,0.1,0.5-0.1,0.7
			c-0.1,0.1-0.2,0.2-0.4,0.5c1-0.6,1.4-1.3,1.5-2.2c0.3-2.3,0.6-4.5,0.8-6.8c0.4-3.3,0.8-6.5,1.2-9.8C61.6,57.9,61.7,55.7,62.6,53.7
			z M81.2,71.2c-0.4-1-0.9-1.7-2.1-1.6c-0.2,0-0.4-0.1-0.5-0.2c-0.6-0.5-1.2-0.9-1.7-1.4c-0.1-0.1-0.2-0.4-0.2-0.5
			c0-0.4-0.2-0.4-0.5-0.4c-0.8,0-1.5,0-2.3,0c-1,0-1,0-1.2,0.9c0,0.2-0.1,0.3-0.1,0.5c-0.3,1-0.6,2.1-0.9,3.1
			c-0.2,0.6,0,0.8,0.6,0.7c0.1,0,0.2,0,0.3-0.1c-0.1-0.7-0.2-1.3-0.3-2c0.1,0,0.2-0.1,0.2-0.1c0.2,0.2,0.5,0.3,0.7,0.5
			c0.1-0.2,0.3-0.4,0.5-0.6c0.2-0.3,0.4-0.4,0.1-0.8c-0.4-0.6,0-1.5,0.8-1.5c0.6,0,1.2,0.2,1.7,0.3c-0.2,0.2-0.4,0.4-0.5,0.6
			c0,0.5,0.4,1.1-0.2,1.5c0,0,0,0.2,0,0.2c0.1,0.5,0.4,0.8,0.9,0.9c0.7,0.1,1.1-0.1,1.4-0.7c0-0.1,0.1-0.2,0.2-0.2
			c0,0,0.1,0,0.1,0.1c0,0.2-0.1,0.3-0.1,0.5c-0.1,0.5,0,0.6,0.5,0.5c0.1,0,0.3,0,0.4,0c0.3,0.1,0.5,0.1,0.8-0.1
			c0.1-0.1,0.3-0.1,0.4-0.1C80.4,71.1,80.7,71.1,81.2,71.2z M69.2,69.5c0.7,0.7,1.3,1.4,1.9,2.2c0.5-1.6,0.9-3.2,1.3-4.7
			c-0.6-0.2-0.6-0.2-1,0.2C70.6,68,69.9,68.8,69.2,69.5z M68.8,69.9c-0.2,0.4-0.4,0.7-0.6,0.9c-0.3,0.4,0.1,1.4,0.6,1.5
			c0.7,0,1.4,0,2.2-0.1C70.3,71.4,69.6,70.7,68.8,69.9z M118.3,74.4c-0.3,0-0.5-0.1-0.8-0.1c-1-0.1-2-0.1-2.7-0.9
			c-0.1-0.1-0.4,0-0.5,0c0,0.2,0,0.4,0.1,0.5c0.5,0.5,1,0.9,1.5,1.4c0.3,0.3,0.7,0.3,0.9-0.1C117.2,74.8,117.7,74.6,118.3,74.4z
			 M72.4,79.4c2.6,0.3,3.1,0.5,3.8,0c-0.2-0.1-0.3-0.2-0.5-0.3c-0.6-0.2-1.1-0.6-1.8-0.3c-0.1,0-0.2,0-0.4,0c-0.4,0-0.8,0.1-1.2,0.1
			C72.3,79.1,72.3,79.3,72.4,79.4z M78.9,72.7c-0.3-0.4-0.5-0.7-0.8-1c-0.2-0.2-0.4-0.2-0.6,0.1c-0.1,0.2-0.2,0.4-0.3,0.6
			c-0.1,0-0.1,0-0.2,0c0-0.2,0-0.4,0.1-0.7c-0.4,0.1-0.8,0.2-1.1,0.2c0,0.2,0,0.5,0,0.7C77,72.7,77.9,72.7,78.9,72.7z M118,73.3
			c-0.1-0.1-0.2-0.1-0.2-0.1c-0.1,0-0.3,0-0.4,0c-0.2,0-0.4-0.1-0.5-0.1c0.1-0.2,0.2-0.3,0.2-0.5c-0.2-0.2-0.3-0.4-0.5-0.5
			c-0.2-0.1-0.5-0.1-0.7-0.1c-0.1,0.7,0.1,1,0.8,1.4C117.1,73.4,117.5,73.7,118,73.3z M66.6,78.1c0.3-0.3,0.4-0.5,0.6-0.7
			c0.4-0.2,0.4-0.5,0.3-0.8c-0.1-0.2-0.3-0.4-0.5-0.6c0,0-0.1,0.1-0.1,0.1C66.8,76.7,66.7,77.3,66.6,78.1z M79.3,69.1
			c-0.8-0.6-1.6-1.3-2.4-1.9C76.9,67.8,78.7,69.2,79.3,69.1z M118.2,83.2c-0.9-0.1-1.9-0.2-3.1-0.3c0.7,0.2,1.3,0.3,1.8,0.6
			C117.5,83.7,117.8,83.3,118.2,83.2z M91.5,72.3c2.4,0.4,2.4,0.4,2.9,0C93.3,72.3,92.4,72.3,91.5,72.3z M84.1,71.5
			c0,0.1,0,0.2-0.1,0.2c0.4,0.1,0.8,0.3,1.1,0.4c0.1,0,0.2-0.1,0.3-0.2c0-0.1-0.1-0.2-0.1-0.2C84.9,71.7,84.5,71.6,84.1,71.5z
			 M118.5,83.7c-0.2-0.1-0.4-0.1-0.6-0.1c0,0.1,0,0.1,0,0.2c0.3,0.1,0.7,0.3,1.1,0.4c-0.1-0.3-0.1-0.6-0.2-0.9c0,0-0.1,0-0.1,0
			C118.6,83.4,118.6,83.5,118.5,83.7z M69,76.9c0.2-0.1,0.3-0.2,0.4-0.2c-0.1-0.1-0.3-0.2-0.4-0.2c-0.1,0-0.3,0.1-0.4,0.2
			C68.7,76.6,68.8,76.7,69,76.9z M86.7,72.8c0.1,0,0.2,0,0.3-0.1c0-0.2,0-0.4-0.1-0.5c-0.1-0.1-0.3,0-0.4,0
			C86.6,72.4,86.6,72.6,86.7,72.8z M89.8,70.7c-0.1,0-0.1,0-0.2,0c0,0.3-0.1,0.7-0.1,1c0.1,0,0.1,0,0.2,0
			C89.8,71.4,89.8,71.1,89.8,70.7z M41.8,77.1c0.1,0,0.1,0,0.2,0c0.1-0.5,0.1-1,0.2-1.5c0,0-0.1,0-0.1,0
			C42,76.1,41.9,76.6,41.8,77.1z M54.7,83.5c-0.3,0-0.6,0-0.9,0.1c0,0,0,0.3,0,0.5C53.9,83.4,54.5,83.8,54.7,83.5z M48.5,84
			c0,0-0.1,0-0.1,0c-0.1,0.5-0.1,1-0.2,1.5c0,0,0.1,0,0.1,0C48.3,85,48.4,84.5,48.5,84z"/>
		<path class="st2" d="M90.7,43.3c-0.3-0.7-1-1.2-1.8-1.2c-2.2,0-4.3,0-6.5-0.1c-0.3,0-0.6,0-0.9-0.1c-0.8-0.2-1-0.5-1-1.3
			c0-0.8,0.3-1.2,1-1.3c0.5-0.1,1.1-0.1,1.6-0.1c1.9,0,3.9,0,5.8,0c2.1,0,3.7,1.1,4.4,3c0.1,0.4,0.2,0.8,0.2,1.3c0,1.6,0,3.2,0,4.8
			c0,1.1,0.2,1.2,1.2,1.2c0.2,0,0.4,0,0.6,0c0.9,0,1.4,0.6,1.1,1.5c-0.2,0.8-0.7,1.2-1.6,1.2c-3.7,0-7.4,0.1-11,0
			c-2.6-0.1-4.3-2.3-4-4.9c0.3-2.4,1.9-3.8,4.3-3.9c1.8,0,3.6,0,5.4,0C90,43.4,90.4,43.3,90.7,43.3z M87.4,46.3c-1,0-2,0-3,0
			c-0.9,0-1.4,0.5-1.5,1.3c-0.1,1.1,0.5,1.7,1.7,1.7c1.9,0,3.7,0,5.6,0c0.5,0,0.7-0.3,0.8-0.8c0-0.6,0-1.2,0-1.8
			c0-0.4-0.1-0.5-0.5-0.5C89.4,46.3,88.4,46.3,87.4,46.3z"/>
		<path class="st2" d="M73.2,35.7c1.5,0,2.9,0,4.4,0c0.9,0,1.4,0.5,1.4,1.4c0,0.9-0.5,1.3-1.4,1.3c-2.7,0-5.3,0-8,0
			c-2.8,0-4.7,1.4-5.3,4c-0.7,2.9,0.8,5.8,3.5,6.6c0.4,0.1,0.9,0.2,1.4,0.2c2.8,0.1,5.7,0.1,8.5,0.1c1,0,1.5,0.4,1.5,1.2
			c0,0.9-0.5,1.5-1.5,1.5c-3.3,0-6.5,0.1-9.8-0.1c-3.3-0.2-6-2.9-6.6-6.1c-0.3-1.8-0.4-3.6,0.4-5.4c1.2-2.7,3.1-4.4,6.1-4.7
			c1.7-0.2,3.5,0,5.2,0C73.2,35.7,73.2,35.7,73.2,35.7z"/>
		<path class="st2" d="M142.8,52.1c-1.5,0-2.9,0-4.4,0c-0.9,0-1.3-0.6-1.3-1.4c0-0.8,0.6-1.3,1.5-1.3c0.4,0,0.8,0,1.1,0
			c2,0,4.1-0.1,6.1-0.1c1,0,1.5-0.5,1.3-1.3c-0.1-0.5-0.5-0.8-1-0.9c-1.4,0-2.8-0.1-4.2-0.1c-2.2,0.1-3.5-1.6-3.8-3.4
			c-0.3-1.9,1-3.9,2.8-4.3c0.7-0.2,1.3-0.2,2-0.2c2,0,4.1,0,6.1,0c0.5,0,1,0.2,1.4,0.5c0.7,0.5,0.7,1.5,0,1.9
			c-0.4,0.3-0.9,0.5-1.4,0.5c-2.2,0-4.4,0-6.5,0c-0.2,0-0.4,0-0.6,0.1c-0.6,0.1-0.9,0.6-0.9,1.1c0,0.6,0.5,1,1.1,1
			c0.8,0,1.6-0.1,2.5,0c0.9,0,1.7,0,2.6,0.2c1.7,0.4,2.7,1.7,2.9,3.7c0.1,1.4-0.8,3.1-2.1,3.7c-0.4,0.2-0.8,0.3-1.2,0.3
			c-0.6,0.1-1.3,0-1.9,0C144.1,52.1,143.5,52.1,142.8,52.1C142.8,52.1,142.8,52.1,142.8,52.1z"/>
		<path class="st2" d="M118.9,43.4c-0.7,0-1.5,0-2.2,0c-0.5,0-0.7,0.2-0.7,0.7c0,1.3,0,2.6,0,3.9c0,0.9,0.4,1.3,1.2,1.3
			c1.3,0.1,2.6,0,3.9,0.1c0.3,0,0.6,0,0.9,0.1c0.7,0.1,1.1,0.6,1.1,1.2c0,0.6-0.4,1.3-1.1,1.3c-0.7,0.1-1.5,0.1-2.2,0.1
			c-1.3,0-2.6,0-3.8-0.2c-1.6-0.3-2.7-1.8-2.7-3.4c0-1.4,0-2.8,0-4.1c0-0.9-0.2-1.1-1.1-1.1c-0.3,0-0.6,0-0.9,0
			c-0.8,0-1.5-0.6-1.5-1.5c0-0.7,0.6-1.3,1.5-1.3c0.4,0,0.8,0,1.2,0c0.6,0,0.8-0.2,0.8-0.8c0-0.9-0.1-1.9-0.1-2.8
			c0-0.4,0.1-0.7,0.2-1c0.2-0.7,0.8-1,1.5-0.9c0.6,0.1,1.1,0.7,1.2,1.4c0,1.1,0,2.1,0,3.2c0,0.7,0.1,0.8,0.8,0.8c1.4,0,2.7,0,4.1,0
			c0.3,0,0.6,0.1,0.9,0.2c0.7,0.3,0.9,0.7,0.8,1.4c-0.1,0.6-0.7,1.1-1.3,1.1C120.4,43.4,119.6,43.4,118.9,43.4
			C118.9,43.4,118.9,43.4,118.9,43.4z"/>
		<path class="st2" d="M126.7,43.1c0,0.9,0,1.9,0,2.8c0,1.9,1.3,3.3,3.3,3.5c1.9,0.2,3.5-1,3.8-2.9c0.1-1,0.1-2.1,0.1-3.2
			c0-1.1,0-2.3,0-3.4c0-0.6,0.2-1.2,0.8-1.4c0.5-0.2,1.1-0.2,1.5,0.2c0.3,0.2,0.5,0.7,0.5,1c0,2.4,0,4.8-0.1,7.2
			c-0.1,2.5-1.8,4.4-4.4,5.1c-3,0.9-6-0.2-7.5-2.7c-0.6-0.9-0.8-1.9-0.9-3c-0.1-2.2,0-4.4,0-6.5c0-0.8,0.5-1.2,1.2-1.3
			c0.7-0.1,1.4,0.4,1.5,1.1c0.1,0.7,0.1,1.4,0.1,2.1C126.8,42.1,126.7,42.6,126.7,43.1C126.7,43.1,126.7,43.1,126.7,43.1z"/>
		<path class="st2" d="M105.7,52.4c-1.7-0.2-3.4-0.2-5-0.5c-2.4-0.4-4.3-2.8-4.5-5.2c-0.1-1.3-0.1-2.6,0.5-3.8
			c1.1-2.4,3-3.6,5.6-3.7c1.5-0.1,3.1-0.1,4.6,0c0.5,0,1,0.3,1.4,0.5c0.4,0.3,0.5,0.8,0.3,1.3c-0.2,0.6-0.7,1-1.3,1
			c-1.5,0-3,0.1-4.5,0c-1.4-0.1-2.6,0.4-3.4,1.6c-1.6,2.4,0,5.5,2.9,5.7c1.9,0.1,3.9,0.1,5.8,0.1c0.2,0,0.3,0,0.5,0
			c0.8,0,1.3,0.4,1.3,1.1c0.1,0.8-0.3,1.5-1.1,1.6c-0.8,0.1-1.6,0.1-2.4,0.2c-0.3,0-0.6,0-0.9,0C105.7,52.3,105.7,52.4,105.7,52.4z"
			/>
		<path class="st2" d="M129.4,64.1c-2.8,0-4.8-2-4.8-4.7c0-2.7,2.1-4.7,4.8-4.7c2.8,0.1,4.8,2,4.8,4.8
			C134.1,62,132.1,64.2,129.4,64.1z M132.5,59.4c0-1.6-1.2-3.1-3.1-3.2c-1.9,0-3.1,1.6-3.2,3.2c0,1.8,1.3,3.2,3.1,3.1
			C131.1,62.5,132.4,61.5,132.5,59.4z"/>
		<path class="st2" d="M144.8,60.3c0.6,0.9,1,1.8,0.9,2.9c-0.1,0.6-0.3,0.9-0.8,0.9c-0.6,0-0.8-0.2-0.8-0.9c0-0.3,0-0.6,0-0.9
			c0-0.3-0.1-0.5-0.3-0.7c-0.1-0.1-0.4-0.2-0.5-0.1c-0.1,0-0.2,0.3-0.2,0.5c0,0.5,0,1,0,1.4c0,0.6-0.4,0.7-0.9,0.6
			c-0.4,0-0.9,0-0.9-0.6c0-1.2,0-2.4,0-3.6c0-1.4,0-2.8,0-4.2c0-0.7,0.1-0.8,0.9-0.7c1,0.1,1.9,0.4,2.7,1c1.1,0.9,1.6,3.2,0.2,4.2
			C145,60.1,144.9,60.2,144.8,60.3z M143,59.8c0.8-0.5,1.3-1,1.2-1.8c-0.1-0.7-0.5-1.2-1.2-1.6C143,57.6,143,58.6,143,59.8z"/>
		<path class="st2" d="M135.5,58.9c0-1.1,0-2.3,0-3.4c0-0.4,0.1-0.6,0.5-0.6c0.4,0,0.9-0.1,0.9,0.5c0,1,0.1,2,0.1,2.9c0,1,0,2,0,3.1
			c0,0.6,0.3,1.1,0.6,1.1c0.4,0,0.7-0.5,0.7-1.1c0-1.9,0-3.9,0-5.8c0-0.7,0.1-0.7,0.7-0.7c0.7,0,0.9,0.1,0.9,0.8c0,2,0,4,0,6
			c0,1.1-0.5,1.9-1.5,2.3c-0.9,0.4-1.8,0.1-2.5-0.6c-0.3-0.3-0.5-0.8-0.5-1.2C135.4,61.1,135.5,60,135.5,58.9
			C135.5,58.9,135.5,58.9,135.5,58.9z"/>
		<path class="st2" d="M121.2,56.4c-0.6,0-1.1,0-1.5,0c-0.2-1,0.1-1.5,1-1.5c1.1,0,2.1,0,3.2,0c0.4,0,0.6,0.2,0.6,0.6
			c0,0.4,0.1,0.8-0.5,0.9c-1,0.1-1,0.1-1,1.2c0,1.8,0,3.7,0,5.5c0,0.7-0.2,0.9-0.9,0.9c-0.7,0-0.8-0.2-0.8-0.9c0-2,0-4,0-6
			C121.2,56.9,121.2,56.7,121.2,56.4z"/>
		<path class="st2" d="M148.4,64c-0.1,0-0.3,0-0.4,0c-0.4,0-0.4-0.2-0.2-0.5c0.1-0.2,0.3-0.4,0.4-0.6c0.5-0.7,0.5-1.1,0.1-1.8
			c-0.4-0.6-0.8-1.3-1.3-1.9c-0.4-0.6-0.4-1.1-0.1-1.7c0.3-0.8,0.9-1.5,1.6-2.1c0.6-0.5,1.3-0.5,2-0.5c0.4,0,0.3,0.3,0.2,0.5
			c-0.1,0.2-0.3,0.4-0.5,0.6c-0.5,0.5-1,1-1.4,1.5c-0.3,0.4-0.3,0.9-0.1,1.3c0.4,0.6,0.7,1.2,1.1,1.7c0.8,1.2,0.6,2.1-0.5,3.2
			C149.1,63.9,148.8,63.9,148.4,64C148.5,64.1,148.4,64,148.4,64z"/>
		<path class="st2" d="M144.9,81.4c0.1-0.1,0.1-0.3,0.2-0.4c0.1,0.1,0.3,0.2,0.5,0.3c-0.8,0.4-0.3,1.1-0.6,1.7
			c-0.1,0.2-0.1,0.4-0.2,0.7c0.3,0.1,0.2,0.4,0,0.7c0,0-0.1,0.1-0.1,0.1c-0.2,0.7-0.7,1.1-1.3,1.4c-0.2,0.1-0.3,0.2-0.6,0.4
			c0.3,0.1,0.5,0.2,0.7,0.3c0.3,0.1,0.7,0.1,1,0.3c0.5,0.2,0.6,0,0.8-0.4c0.4-0.8,0.3-1.7,0.1-2.6c0-0.1,0.1-0.2,0.1-0.3
			c-0.3-0.6-0.3-0.6,0.2-0.8c0,0.2,0.1,0.3,0.1,0.6c0.2-0.3,0.4-0.5,0.6-0.8c-0.2-0.1-0.3-0.1-0.5-0.1c0.8-0.5,1.1-1.3,1.3-2.1
			c0.1-0.3-0.4-0.9-0.7-1.2c-0.3-0.3-0.7-0.5-1.1-0.8c0.3-0.2,0.6-0.4,0.9-0.6c0.4-0.2,0.8-0.4,1.2-0.7c0.2-0.1,0.1-0.6-0.2-0.7
			c-0.4-0.2-0.4-0.4-0.1-0.6c0.4-0.3,0.4-0.7,0.2-1.1c-0.2-0.1-0.4-0.1-0.4-0.1c-0.2,0.1-0.4,0.2-0.6,0.4c0,0-0.1-0.1-0.1-0.1
			c0.1-0.2,0.1-0.4,0.3-0.6c0.1-0.2,0.4-0.4,0.6-0.3c0.2,0,0.5,0.3,0.5,0.5c0.1,0.9,0.1,1.9,0.2,2.8c-0.6,0.3-1.1,0.6-1.8,0.9
			c0.1,0.1,0.1,0.2,0.2,0.3c0.3,0.4,0.6,0.8,0.9,1.2c0.5,0.8,0.5,1.5-0.1,2.2c-0.3,0.4-0.6,0.8-0.8,1.2c-0.3,0.5-0.5,1-0.3,1.6
			c0.1,0.5,0,0.9-0.3,1.3c-0.2,0.2-0.3,0.4-0.4,0.6c-0.1,0.5-0.4,0.5-0.8,0.4c-0.4-0.1-0.8-0.1-1.2-0.2c-0.4-0.1-0.8-0.3-1.2-0.5
			l0,0c0.6-0.1,1-0.5,1.4-1c0.2-0.3,0.4-0.4,0.5-0.3c0.1-0.3,0.1-0.6,0.2-0.8C144.7,83.2,145.1,82.4,144.9,81.4L144.9,81.4z"/>
		<path class="st2" d="M99.8,64.6c0.4-0.3,0.7-0.6,1.1-0.7c0.4-0.2,0.9-0.2,1.3-0.2c-0.1-0.5,0.1-1,0.6-1.3c0.1-0.1,0.1-0.3,0-0.5
			c0-0.2-0.2-0.3-0.2-0.5c0.1-0.3,0.3-0.8,0.5-0.9c0.4-0.2,0.6,0.3,0.7,0.6c0,0.1,0.1,0.3,0,0.5c-0.1-0.3-0.3-0.6-0.4-1
			c-0.3,1.4-0.1,2,0.7,2.4c-0.1,0.4-0.2,0.8-0.2,1.2c-0.1,0.4-0.1,0.9-0.1,1.3c0,0.1,0.2,0.2,0.2,0.2c0.4,0,0.8-0.1,1.2-0.2
			c0.5-0.1,1.1-0.1,1.6-0.1c0.5,0,1.1,0,1.6,0.2c0.4,0.1,0.9,0.4,1.1,0.8c0.3,0.5,0.4,1.2,0.4,1.8c0-0.1-0.1-0.2-0.1-0.3
			c0,0-0.1,0-0.1,0c0,0.4,0.1,0.8,0.1,1.3c-0.1,0-0.1,0.1-0.2,0.1c-0.1-0.2-0.3-0.3-0.3-0.5c0-0.2,0.1-0.5,0.1-0.7
			c0-0.1-0.2-0.3-0.2-0.4c-0.1-0.2-0.2-0.4-0.1-0.5c0.4-0.6,0.4-0.7-0.2-1c-0.3,0.4-0.5,0.8-0.8,1.1c-0.7-0.2-1.4-0.5-2.1-0.7
			c-0.1,0-0.2-0.2-0.3-0.4c0.1-0.1,0.3-0.2,0.4-0.2c0.2,0,0.4,0.1,0.4,0.2c0.3,0.5,0.9,0.3,1.3,0.5c0.1,0.1,0.5-0.2,0.6-0.4
			c0.1-0.3-0.1-0.4-0.4-0.4c-0.5,0-0.9-0.2-1.4-0.3c-0.7-0.2-1.2,0-1.8,0.3c-0.6,0.3-1.1,0.2-1.3-0.5c-0.1-0.4,0.1-1-0.4-1.3
			c0,0,0.1-0.3,0.2-0.4c0.4-0.3,0.3-0.6-0.1-0.9c-0.1-0.1-0.2-0.2-0.4-0.5c-0.1,0.3-0.2,0.5-0.2,0.7c0,0.6-0.4,0.8-0.8,1
			c-0.2,0.1-0.6-0.1-0.9,0c-0.2,0-0.5,0.2-0.7,0.4c-0.1,0.1,0.2,0.4,0.3,0.6C100.4,65,100.1,64.8,99.8,64.6z"/>
		<path class="st2" d="M91.7,58.5c-0.3-0.4-0.5-0.2-0.9,0.2c-0.1-0.3-0.2-0.5-0.3-0.8c-0.3,0.1-0.6,0.2-0.5,0.7
			c0.1,0.1,0,0.3-0.1,0.5c0,0.1-0.2,0.1-0.3,0.1c-0.1,0-0.1-0.2-0.1-0.3c0-0.3,0.1-0.5,0.1-0.9c0.2-0.2,0.4-0.4,0.6-0.6
			c0,0-0.1-0.1-0.1-0.1c-0.2,0.1-0.5,0.2-0.9,0.4c0.3-0.6,1.1-0.5,1.1-1.4c-0.2,0.2-0.3,0.3-0.5,0.4c-0.1,0.1-0.5,0.1-0.5,0
			c-0.1-0.5-0.6-0.3-0.9-0.4c-0.1-0.1-0.2-0.1-0.4-0.2c-0.4,0.4-0.9,1-1.3,1.5c-0.1-0.1-0.2-0.2-0.2-0.2c0.4-0.3,0.8-0.5,1.2-0.8
			c-0.1-0.1-0.1-0.1-0.2-0.2c-0.2,0.1-0.4,0.2-0.7,0.3c0.9-1,2.1-1.1,3.3-1.3c0-0.1,0-0.1,0-0.2c-0.1,0-0.2-0.1-0.3-0.2
			c0.4-0.2,0.8-0.3,1.2-0.5c0-0.1,0-0.2,0-0.2c-0.4,0-0.9,0-1.3,0c-0.1-0.5,0.2-0.5,0.4-0.4c0.8,0.3,1.6,0.5,2.5,0.9
			c-0.8,0.6-1.5,0.8-2.4,0.8c-0.4,0-0.7,0.1-1.1,0.2c0.5,0.3,1.4-0.3,1.6,0.8c-0.2,0.1-0.3,0.2-0.5,0.2c0.3,0.6,0.7,1,1.4,1
			c0.3-0.6,1.2-1.1,1.5-0.9C92.8,57.5,92.3,57.9,91.7,58.5z"/>
		<path class="st2" d="M99.2,67.6c-0.1-0.1-0.2-0.2-0.3-0.4c0-0.3,0-0.6,0-0.9c0-0.9-0.2-1.1-1.3-1.1c0.4,0.6,0.8,1.2,1,1.8
			c0.2,0.6,0.3,1.3,0.3,2c-0.1-0.3-0.4-0.5-0.4-0.8c-0.1-0.9-0.3-1.6-0.9-2.3c-0.1-0.1-0.3-0.2-0.4-0.2c0,0.2-0.1,0.3-0.1,0.5
			c-0.1,0.2-0.3,0.5-0.4,0.7c-0.1,0.4-0.3,0.5-0.6,0.5c-0.3,0-0.5-0.2-0.5-0.5c0-0.9,0-1.8,0-2.7c0-0.2-0.1-0.4-0.1-0.6
			c0.5,0,1.1,0,1.6,0c0.8-0.1,1.6,0.1,2.2,0.8c-0.3-0.1-0.6-0.3-1-0.4c-0.4-0.1-0.7-0.1-0.9,0.2c-0.3,0.4-0.6,0.4-0.9,0
			c-0.1-0.1-0.3-0.2-0.4-0.4c-0.1,0.2-0.2,0.3-0.2,0.5c0,0.7-0.1,1.4-0.1,2.1c0,0.2,0.1,0.4,0.2,0.6c0-0.6,0-1.1,0-1.7
			c0-0.1,0.1-0.2,0.2-0.3c0.1,0.1,0.3,0.2,0.3,0.3c0,0.2-0.2,0.5-0.2,0.7c0,0.2,0,0.4,0,0.6c0.1-0.1,0.4-0.2,0.4-0.3
			c0.2-0.4,0.3-0.8,0.4-1.1c0.2-0.1,0.5-0.2,0.7-0.3c0.4-0.2,0.9-0.1,1,0.4c0,0.1,0.1,0.2,0.1,0.3c0.4,0.5,0.6,1.6,0.3,2.2
			C99.3,67.5,99.3,67.5,99.2,67.6z"/>
		<path class="st2" d="M91.7,62.8c0.2-0.5,0.4-1,0-1.6c-0.2-0.3-0.5-0.8,0.2-1.1C92,60,92,59.8,92,59.7c0.1-0.2,0.2-0.3,0.4-0.6
			c0.1,0.3,0.2,0.5,0.3,0.8c0.3-0.7,0.5-1.4,0.7-2c-0.1,0-0.1-0.1-0.2-0.1c-0.1,0.2-0.3,0.4-0.4,0.6c-0.1,0.3-0.3,0.4-0.6,0.1
			c0.3-0.3,0.5-0.8,0.9-0.9c0.3-0.2,0.8-0.1,1.2,0c0.2,0.1,0.2,0.5,0.3,0.8c0.1,0.2,0.1,0.4,0.2,0.6l0,0c0,0.3-0.1,0.6-0.1,0.9l0,0
			c-0.1,0.1-0.2,0.1-0.3,0.2c0-0.6,0-1.2,0-1.7c0-0.2-0.1-0.3-0.1-0.5c-0.2,0.1-0.5,0.1-0.6,0.3c-0.2,0.5-0.4,1.1-0.6,1.6
			c-0.1,0.3-0.2,0.6-0.7,0.6c-0.5,0-0.4,0.5-0.4,1.1c0.3-0.3,0.4-0.5,0.6-0.7c0,0,0.1,0,0.1,0c-0.3,1-0.7,2-1,3c0,0-0.1,0-0.1,0
			C91.6,63.3,91.7,63,91.7,62.8C91.8,62.8,91.7,62.8,91.7,62.8z"/>
		<path class="st2" d="M94.9,59c0.1-0.4,0.1-0.8,0.2-1.2c0-0.1,0-0.2-0.1-0.4c0.3,0,0.6,0,0.9,0.1c0,0.3-0.1,0.7-0.1,1.1
			c-0.2-0.3-0.2-0.4-0.3-0.5c-0.3,0.5-0.1,0.8,0,1.2c0.3,1,0.3,2,0.1,2.9c-0.4-0.2-0.7-0.4-1.1-0.6c-0.2,0.1-0.4,0.3-0.6,0.5
			c0.1-0.5,0.9-0.7,0.4-1.3c0.2-0.3,0.4-0.7,0.5-1c0,0,0,0,0,0c0.1,0.2,0.2,0.4,0.3,0.6C95.4,60,95.4,59.4,94.9,59L94.9,59z"/>
		<path class="st2" d="M140.3,82.3c-0.1-0.2-0.2-0.3-0.3-0.6c-0.8,0.4-0.8,1.2-0.7,2c-0.2-0.3-0.4-0.6-0.6-1
			c-0.1-0.2,0.1-0.4,0.2-0.6c0.1-0.1,0.3-0.1,0.4-0.2c0.5-0.2,0.8-0.6,0.7-1.1c-0.1-0.5,0-0.9,0.1-1.4c0,0.4,0.1,0.7,0.1,1.1
			c-0.1,0.7,0,0.9,0.8,1.1c-0.2-0.1-0.3-0.3-0.4-0.3c0.7-0.1,1.6-0.2,2.4-0.2c0.5,0,1,0.1,1.5,0.2c0.1,0,0.2,0.2,0.3,0.3
			c0,0,0,0,0,0C143.3,81.2,141.7,81.2,140.3,82.3L140.3,82.3z"/>
		<path class="st2" d="M140.1,73.2c-0.2,0.5-0.3,0.5-0.8,0.1c0.2,0,0.3,0.1,0.5,0.1c-0.1-0.1-0.1-0.2-0.1-0.2
			c-0.3,0-0.6-0.1-0.9-0.1c-0.4,0-0.7,0.2-0.8-0.4c0-0.1-0.4-0.1-0.6-0.1c-0.1,0-0.3,0.2-0.3,0.3c0,0.1,0.1,0.3,0.2,0.3
			c0.2,0.1,0.5,0.1,0.6,0.3c0.2,0.5,0.2,1,0.3,1.5c0.1,0.3,0.1,0.5,0.2,0.8c0,0.1-0.1,0.3-0.1,0.4c0.3,0.1,0.4,0.2,0.3,0.6
			c-0.1,0.4,0.2,0.8,0.6,1c0.5,0.2,0.9,0.5,0.9,1.3c-0.4-0.3-0.9-0.5-1.1-0.9c-0.7-1-1.2-2-0.9-3.3c0.1-0.2-0.1-0.6-0.2-0.8
			c-0.3-0.3-0.7-0.6-1-0.9c-0.1-0.1-0.1-0.4,0-0.5c0.3-0.4,0.9-0.5,1.4-0.2c0.3,0.1,0.6,0.1,0.9,0.2C139.5,73,139.8,73.1,140.1,73.2
			z"/>
		<path class="st2" d="M100.3,57.1c-0.2-0.2-0.3-0.4-0.6-0.7c-0.1,0.2-0.2,0.4-0.3,0.5c-0.2-0.2-0.4-0.5-0.6-0.7
			c-0.1-0.1-0.4-0.1-0.5-0.1c0,0.2,0.1,0.3,0.2,0.6c-0.2,0-0.5,0-0.6-0.1c-0.3-0.2,0-0.4,0.2-0.6c0.2-0.2,0.4-0.4,0.6-0.6
			c0.5-0.4,0.7-0.4,0.9,0.1c0.5,0.1,1,0.3,1.5,0.4c0,0.1,0,0.1,0,0.2c-0.3-0.1-0.7-0.2-1-0.3c0,0.1-0.1,0.1-0.1,0.2
			c0.2,0.1,0.4,0.3,0.7,0.4C100.4,56.6,100.4,56.9,100.3,57.1z"/>
		<path class="st2" d="M138.5,84.9c-0.9-0.3-1.7-0.7-2.6-0.9c-0.5-0.1-0.7-0.4-1.1-0.5c-0.7-0.2-1,0-1.3,0.6c-0.1,0-0.1,0-0.2,0
			c0-0.4,0.1-0.8,0-1.1c-0.1-0.4-0.5-0.6-0.7-0.8c1.9,0.9,3.9,1.8,5.9,2.7C138.5,84.8,138.5,84.9,138.5,84.9z"/>
		<path class="st2" d="M146.9,88.3c-0.1,0.1-0.3,0.2-0.4,0.4c-0.3,0.5-0.6,0.5-1,0.1c-0.3-0.3-0.6-0.5-0.9-0.8
			c-0.1-0.1-0.1-0.2-0.2-0.3c0.1-0.1,0.2-0.1,0.3-0.2c0.1-0.1,0.2-0.2,0.3-0.3C145.4,87.1,146.8,87.9,146.9,88.3
			C146.9,88.3,146.9,88.3,146.9,88.3z"/>
		<path class="st2" d="M134.3,73.6c0.1-0.1,0.3-0.2,0.4-0.3c0,0,0,0.1,0,0.1c-0.9,0.6-0.2,1.3-0.2,1.9c0,0.3,0,0.6,0,0.9
			c-0.1,0-0.1,0-0.2,0c-0.1-0.1-0.2-0.1-0.3-0.3c0.1,0.4,0.1,0.7,0.1,1c-0.6-0.4-0.6-0.4-0.3-1.2c-0.1,0-0.3,0-0.3-0.1
			c-0.1-0.1-0.2-0.2-0.3-0.4c0.1-0.1,0.3-0.2,0.4-0.2c0.5,0,0.6-0.2,0.4-0.7c-0.1-0.3-0.3-0.5-0.4-0.8c-0.1-0.2,0-0.4,0-0.6
			c0,0,0.3-0.1,0.3-0.1C134.1,73.2,134.2,73.4,134.3,73.6z"/>
		<path class="st2" d="M142.3,86.2c-0.7,0-1.4,0-2-0.1c-0.8-0.1-1.5-1.5-0.8-2.1c0.6-0.6,0.4-1.2,0.4-1.8c0.2,0,0.3,0,0.5,0
			c0,0,0,0,0,0c-0.2,0.5-0.3,1-0.5,1.5c0,0.2-0.1,0.4-0.1,0.5c0,0.4,0.1,0.8,0.1,1.3C140.6,85.8,141.4,86,142.3,86.2L142.3,86.2z"/>
		<path class="st2" d="M99,60c-0.3-0.3-0.7-0.6-1.1-1c-0.3,0.5-0.4,0.9-0.1,1.2c0.3,0.4,0.3,0.9-0.2,1.4c0-0.4,0.1-0.7,0-0.9
			c-0.1-0.4-0.2-0.8-0.4-1.1c-0.2-0.2-0.2-0.5-0.2-0.7c0-0.1,0-0.1-0.1-0.3c-0.1,0.3-0.2,0.5-0.3,0.7c0,0,0,0-0.1,0
			c0-0.2,0-0.4,0.1-0.6c0-0.1,0.2-0.2,0.3-0.2c0.3,0.3,0.8,0.2,1.2,0.4c0.4,0.3,0.6,0.7,0.9,1c0,0,0,0.1,0,0.2
			C98.9,60.1,98.9,60,99,60z"/>
		<path class="st2" d="M96.7,53.5c0.2,0.3,0.5,0.5,0.7,0.8c-0.3,0.2-0.6,0.4-0.8,0.6c0.3,0.6,1-0.4,1.3,0.2
			c-0.4,0.3-0.8,0.6-1.2,0.9C96.1,55.1,96.1,54.6,96.7,53.5z"/>
		<path class="st2" d="M100.4,72.9c-0.1-0.8-0.3-1.5-0.4-2.3c0-0.3,0.2-0.7,0.3-1c0.1,0,0.2,0,0.2,0c0,0.6,0.1,1.1,0.1,1.7
			c-0.2,0-0.3,0-0.4,0c0,0.1,0,0.3,0,0.4c0,0.1,0.2,0.1,0.2,0.2c0,0.9,0.6,0.9,1.3,1c-0.3,0.2-0.5,0.3-0.8,0.5c0-0.1,0-0.1,0-0.2
			C100.8,73.2,100.6,73.1,100.4,72.9C100.4,72.9,100.4,72.9,100.4,72.9z"/>
		<path class="st2" d="M106,72.4C106,72.4,106,72.4,106,72.4c0-1.2-0.1-2.3-0.1-3.5l0,0c1,0.4,1,0.4,1,1.6c0,0.3,0.1,0.6,0,0.9
			c0,0.2-0.2,0.4-0.3,0.6c0-0.7,0.1-1.2,0.1-1.8c0-0.1-0.2-0.2-0.2-0.3c-0.1,0.1-0.2,0.3-0.2,0.4C106.4,71,106.3,71.7,106,72.4z"/>
		<path class="st2" d="M105.8,69c-0.2,0-0.3,0-0.5,0.1c-1,0.6-2,0.6-3.1,0.5c-0.4,0-0.9,0-1.3,0c-0.1,0-0.2-0.1-0.3-0.2
			c0.1-0.1,0.2-0.2,0.3-0.2c0.6,0,1.3,0,1.9,0.1c0.9,0.1,1.7,0.1,2.3-0.7c0.1-0.1,0.3-0.1,0.4-0.1C105.7,68.6,105.7,68.8,105.8,69
			C105.8,69,105.8,69,105.8,69z"/>
		<path class="st2" d="M139.8,75c0.2,0.5,0.3,1.1,0.5,1.7c0,0-0.1,0-0.2-0.1c0,0.4-0.1,0.9-0.1,1.3c-0.2-0.1-0.3-0.2-0.5-0.3
			C139.7,76.8,139.1,75.8,139.8,75z"/>
		<path class="st2" d="M145.4,75.2c0.1-1,0.1-2,0.2-3c-0.7,0.2-0.7,0.7-0.7,1.3c-0.5-0.6-0.4-1.1,0-1.4c0.2-0.1,0.4-0.1,0.6-0.1
			c0.1,0.1,0.3,0.3,0.3,0.5c0,0.9-0.1,1.8-0.2,2.6C145.5,75.1,145.5,75.2,145.4,75.2C145.4,75.2,145.4,75.2,145.4,75.2z"/>
		<path class="st2" d="M96,53.7c-0.3,0.5-0.7,0.6-1.1,0.2c-0.1-0.1-0.4-0.2-0.6-0.2c-1,0-1.9,0-3,0c0.2-0.1,0.4-0.2,0.5-0.2
			c1.1,0,2.1,0,3.2,0c0,0.2,0.1,0.4,0.1,0.7c0.1-0.2,0.2-0.4,0.2-0.5C95.6,53.7,95.8,53.7,96,53.7z"/>
		<path class="st2" d="M87.7,60.5c0.2-0.6,0.2-1.3,0.9-1.7c0.1-0.1,0.1-0.4,0.2-0.5c0.1-0.1,0.2-0.1,0.4-0.2c0,0.2,0.1,0.4,0.1,0.5
			C88.8,59.2,88.3,59.9,87.7,60.5z"/>
		<path class="st2" d="M131.1,77c0.1,0.3,0.2,0.6,0.3,0.9c-0.5,0-1-0.1-1.4,0c-0.2,0-0.3,0.4-0.5,0.6c-0.1-0.2-0.1-0.5,0.2-0.8
			C130.1,77.5,130.6,77.2,131.1,77z"/>
		<path class="st2" d="M133.2,74.4c-0.2,0.2-0.5,0.4-0.7,0.6c-0.1,0.3-0.1,0.6-0.2,0.9c-0.6-0.2-0.6,0.4-0.8,0.7
			c-0.1-0.6,0.6-1.7,1.6-2.3C133.1,74.4,133.2,74.4,133.2,74.4z"/>
		<path class="st2" d="M132,81.6c0,0.4-0.1,0.7-0.1,1c0,0.3,0,0.6-0.1,0.9c-0.1,0-0.2,0-0.2,0c0-0.5-0.1-1-0.1-1.5
			c0-0.1,0.1-0.4,0.1-0.4C131.8,81.5,132,81.6,132,81.6z"/>
		<path class="st2" d="M146.9,88.3C146.9,88.3,146.9,88.3,146.9,88.3c0.3,0,0.6,0,0.8,0.1c0.4,0.1,0.8,0.3,1.1,0.4
			c0,0.1,0,0.1,0,0.2c-0.3-0.1-0.5-0.1-0.9-0.2c0.2,0.2,0.4,0.4,0.5,0.6c0,0-0.1,0.1-0.1,0.1c-0.2-0.1-0.4-0.2-0.5-0.4
			c-0.2-0.4-0.4-0.7-0.9-0.5C147,88.5,147,88.4,146.9,88.3z"/>
		<path class="st2" d="M131.8,80.8c-0.3-0.5-1.1-1-0.1-1.6C132,79.6,132.1,80.5,131.8,80.8z"/>
		<path class="st2" d="M98.6,70.9c0.2-0.2,0.4-0.4,0.5-0.7c0.2-0.2,0.2-0.5,0.4-0.8c0.1-0.1,0.1-0.2,0.2-0.3
			c0.1,0.1,0.1,0.2,0.1,0.3c0,0.8-0.7,1-1.2,1.5C98.6,71,98.6,71,98.6,70.9z"/>
		<path class="st2" d="M144.8,74.3c-0.1,0.4-0.1,0.8-0.2,1.2c0,0.1-0.3,0.1-0.4,0.1c-0.1,0-0.2-0.3-0.1-0.3c0.1-0.3,0.3-0.6,0.5-1
			C144.7,74.3,144.7,74.3,144.8,74.3z"/>
		<path class="st2" d="M89,61.5c0.1-0.8-0.2-1.5,0.5-2.1C89.4,60,89.2,60.9,89,61.5z"/>
		<path class="st2" d="M92.7,73.3c-0.6,0.4-1.9,0.3-2.2,0C91.2,73.3,91.9,73.3,92.7,73.3z"/>
		<path class="st2" d="M105.6,66.9c-0.4,0.2-0.6,0.4-0.9,0.5c0,0-0.2-0.1-0.2-0.2c0.2-0.2,0.5-0.5,0.7-0.7
			C105.2,66.6,105.4,66.7,105.6,66.9z"/>
		<path class="st2" d="M99.1,52.5c-0.4,0.4-0.6,0.7-1,1.1c0,0-0.1-0.4-0.4,0.1C98,53,98.3,52.6,99.1,52.5z"/>
		<path class="st2" d="M133.9,77.5c-0.4,0.7-0.8,1.4-1.2,2c0,0-0.1-0.1-0.1-0.1c0.4-0.7,0.7-1.4,1.1-2.1
			C133.7,77.5,133.8,77.5,133.9,77.5z"/>
		<path class="st2" d="M91.3,60.1c-0.2,0.4-0.3,0.8-0.5,1.3c-0.2-0.1-0.4-0.2-0.5-0.2C90.6,60.8,91,60.4,91.3,60.1z"/>
		<path class="st2" d="M140.2,74.3c-0.2,0.2-0.3,0.3-0.4,0.4c-0.1-0.1-0.3-0.3-0.3-0.3c0.1-0.2,0.2-0.4,0.3-0.5
			C139.9,73.9,140,74.1,140.2,74.3z"/>
		<path class="st2" d="M98.4,58.6c-0.2-0.1-0.4-0.1-0.6-0.2c0.2-0.3,0.4-0.5,0.6-0.8c0.1,0,0.1,0.1,0.2,0.1
			C98.6,58,98.5,58.3,98.4,58.6z"/>
		<path class="st2" d="M142,76.1c0.1,0,0.2,0,0.3,0.1c-0.2,0.1-0.3,0.2-0.6,0.3c0.2,0.1,0.3,0.1,0.4,0.1c0,0,0,0-0.1,0.1
			c-0.3,0-0.5,0-0.8,0C141.3,76.2,141.3,76.2,142,76.1C142,76.1,142,76.1,142,76.1z"/>
		<path class="st2" d="M142,76.1C142,76.1,142,76.1,142,76.1c-0.1-0.7,0.2-0.9,0.9-0.8C142.6,75.5,142.3,75.8,142,76.1z"/>
		<path class="st2" d="M103.3,81.5c0.1-0.1,0.3-0.2,0.4-0.3c0.3-0.4,0.3-0.4,0.7,0.1C104,81.3,103.7,81.4,103.3,81.5
			C103.3,81.5,103.3,81.5,103.3,81.5z"/>
		<path class="st2" d="M94.2,56.1c0.1,0.2,0.3,0.3,0.3,0.4c0,0.1-0.2,0.2-0.3,0.3c-0.1-0.1-0.3-0.2-0.3-0.3
			C93.9,56.4,94.1,56.3,94.2,56.1z"/>
		<path class="st2" d="M146.6,77.1c0-0.2,0-0.4,0-0.6c0,0,0.2,0,0.4,0c0,0.2-0.1,0.5-0.1,0.7C146.8,77.2,146.7,77.1,146.6,77.1z"/>
		<path class="st2" d="M133.4,72.6c0,0.4-0.1,0.9-0.1,1.3c-0.1,0-0.1,0-0.2,0c0-0.1,0-0.3,0-0.4c0-0.3,0.1-0.6,0.1-0.9
			C133.3,72.6,133.3,72.6,133.4,72.6z"/>
		<path class="st2" d="M139.2,76c0-0.5-0.1-0.9-0.1-1.2C139.5,74.8,139.5,75.2,139.2,76z"/>
		<path class="st2" d="M97.8,73c0.1,0.1,0.2,0.3,0.2,0.3c-0.1,0.1-0.2,0.2-0.3,0.2c-0.1,0-0.3-0.1-0.3-0.2c0-0.2,0.1-0.3,0.2-0.5
			C97.6,72.9,97.7,73,97.8,73z"/>
		<path class="st2" d="M92,53.9c0.3,0,0.6,0.1,0.9,0.2c-0.5,0.7-0.6-0.1-0.9,0C92,54,92,54,92,53.9z"/>
		<path class="st2" d="M98.2,60.8c0-0.3,0-0.5-0.1-0.8c0.1,0,0.1,0,0.2,0c0,0.2,0.1,0.5,0.1,0.7C98.4,60.7,98.3,60.8,98.2,60.8z"/>
		<path class="st2" d="M143.6,74.4c0.2-0.3,0.4-0.7,0.6-1c0.1,0,0.1,0.1,0.2,0.1C144.1,73.9,143.9,74.2,143.6,74.4
			C143.6,74.5,143.6,74.5,143.6,74.4z"/>
		<path class="st2" d="M43.2,71.3c0,0.4,0,0.8,0,1.3C42.7,72.1,42.9,71.7,43.2,71.3z"/>
		<path class="st2" d="M28.3,77.2c0.1-0.6,0.1-1.2,0.2-1.9c0.1,0.1,0.2,0.3,0.2,0.4c-0.1,0.5-0.1,1-0.2,1.5
			C28.4,77.2,28.4,77.2,28.3,77.2z"/>
	</g>
	<path class="st2" d="M140.2,89.4h-0.6c0-28.1-22.9-51-51-51s-51,22.9-51,51H37C37,61,60.1,37.8,88.6,37.8S140.2,61,140.2,89.4z"/>
</g>
</svg>
