<?xml version="1.0" encoding="UTF-8"?>
<svg id="Capa_11" data-name="Capa 11" xmlns="http://www.w3.org/2000/svg" viewBox="0 0 177.4 125.4">
  <defs>
    <style>
      .cls-1 {
        fill: #fff;
        stroke-width: 0px;
      }
    </style>
  </defs>
  <g>
    <path class="cls-1" d="M104.57,82.99c.75.32,1.29,0,1.4-.75.11-.32.21-.64.32-.97-.11-.11-.32-.11-.43-.21,0-.11.11-.32.11-.32h.64c.21-.32.54-.64.97-1.07-.11,0-.11-.11-.11-.11-.86,0-.86-.75-1.07-1.4,0-.11-.11-.21-.21-.32-.43-.21-.43-.54-.21-.97.11-.32.11-.75.21-1.18.11-.21.21-.43.32-.75-.11,0-.21,0-.32.11-.11-.32-.11-.75-.32-.86-.21-.11-.64-.11-.97-.11-.21,0-.54.11-.75.21-.11-.21-.11-.32-.21-.54.75,0,1.4,0,2.15.11.43,0,.86,0,1.07-.43,0-.11.21-.21.32-.32h0c.11,0,.21-.11.32-.11l.11.11c-.43.43-.86.97-1.29,1.4v.11c.32-.11.64-.11.75-.32.32-.32.54-.21.86-.11.64.21,1.29.32,2.04.43.11-.86,0-1.61-.43-2.36-.43-.64-.86-1.29-1.18-2.04.54-.43.86-.86.97-1.4.11-.21.32-.43.43-.54.11.21.32.32.32.54.21.64.32,1.29.54,1.93h0c.21-.11.32-.21.54-.32.11.21.21.43.21.64v1.5h-.21v-1.82c-.43.21-.75.43-.54.97.11.32.11.64.11,1.07-.32-1.5-.64-2.9-.86-4.4h-.21c-.11.54-.32,1.07-.21,1.5.11.54.43.97.64,1.4l-.11.11c-.21-.43-.43-.86-.75-1.29h-.21c0,.21-.11.43,0,.54.21.43.43.97.86,1.29.75.54.54,1.18.43,1.82,0,.21.21.43.32.75.86.54,1.93,1.07,2.9,1.61v-.11c-.43-.43-.97-.75-1.4-1.18-.11-.11-.21-.32-.21-.54.11-.64.21-1.29.54-1.82.75-1.4,1.5-2.79,3.11-3.33.64-.21,1.18-.32,1.72,0,.11-.86.54-1.18,1.29-1.4.64-.11,1.18.32,1.5.75.43.64.64,1.5.86,2.15-.11.11-.21.11-.21.21-.11-.32-.21-.54-.32-.75l-1.72,1.72c.54.21,1.07.43,1.61.75.11.11.32.32.32.43.32.54.54.54.97,0h-.64c.11-.32.11-.64.32-.86.11-.11.32-.21.43-.11.11,0,.32.32.21.43-.11.43,0,.54.43.86s.54,1.07.75,1.61c.11.43.21.86.32,1.4.64-.64,1.29-.43,1.82-.32.75.21,1.61.32,2.36.64.64.21,1.18.54,1.29,1.29.11.97.64,1.5,1.5,1.93.11,0,.21.11.21.32-.43-.21-.75-.43-1.18-.64-.11.43-.21.75.32.97-.11-.21-.11-.32-.21-.54.64.43,1.29.75,1.82,1.07v.11c-.21,0-.43.11-.64,0-.43-.32-.86-.32-1.18-.11-.21-.21-.32-.43-.43-.54-.11,0-.11.11-.21.11q-.64.64-.21,1.4c.97,1.72.86,3.43-.43,5.26.43,0,.86.11,1.18,0,1.29-.43,2.36.11,3.33.64.75.43,1.61.86,2.47,1.18.43.11.86.21,1.29.21,1.5-.32,2.9.11,4.29.64.75.32,1.61.32,2.36.32.43,0,.86,0,1.29.11,1.18.21,2.25.64,3.33.64.97.11,1.82.54,2.68.64.97.11,1.82.43,2.79.64.21,0,.43,0,.64.11,0,0,0-.11.11-.11-.21-.21-.43-.43-.64-.64,0,0,.11-.11.11-.21.54.54,1.07,1.07,1.5,1.72H51.13c-5.37,0-10.84.21-16.2.11-4.08-.11-7.62-1.5-10.41-4.61-1.93-2.15-2.79-4.83-2.79-7.73,0-1.4.32-2.79.64-4.29.86-4.4,1.72-8.8,2.58-13.31.43-2.36.75-4.72,1.61-6.98.75-1.82,1.61-3.43,3.33-4.51.97-.64,2.04-.97,3.22-.86,1.5.21,2.47,1.07,3,2.36.75,1.5.86,3.11.75,4.72-.32,3.11-.86,6.22-1.29,9.23-.54,3.54-.97,6.98-1.5,10.52-.11.75-.21,1.61-.21,2.36-.11,1.4,1.07,2.9,2.79,2.68.11-.75.32-1.5.43-2.25.64-3.76,1.29-7.51,1.93-11.27.86-4.94,1.82-9.87,2.68-14.92.54-3.11.97-6.33,1.5-9.44.54-3,1.29-6.01,2.79-8.69.75-1.4,1.72-2.58,3.22-3.43,3-1.61,6.01-.86,7.3,2.68.75,2.15.75,4.4.54,6.65-.11,1.72-.54,3.33-.75,5.04-.32,2.68-.64,5.37-1.07,8.05-.32,2.68-.75,5.37-1.07,8.05-.32,2.68-.75,5.26-1.07,7.94-.32,2.25-.64,4.51-.86,6.87v.43c1.18.32,2.25-.43,2.36-1.61.43-3.22.86-6.44,1.29-9.55.43-3.22.75-6.55,1.29-9.77.21-1.18.64-2.47,1.29-3.54,1.61-2.9,4.72-3,6.65-.32.86,1.29,1.4,2.68,1.61,4.19.21,1.4.32,2.9.32,4.29,0,1.82-.32,3.54-.43,5.37-.11.97-.21,1.93-.32,3,0,.21.11.43.21.86.21-.21.32-.32.32-.43.86-1.72,2.36-2.68,3.54-4.08.11-.21.43-.32.75-.32,1.5,0,3.11,0,4.61.11.32,0,.64.11.86.32,1.29.97,2.58,2.04,3.76,3.11.21.11.32.32.43.54.32.64.75,1.07,1.5,1.18.11,0,.21.11.32,0,1.07-.54,2.15.11,3.11.21.75.11,1.61.21,2.04,1.07,0,.11.21.11.32.11,1.29-.11,1.29-.21,1.61-1.5.64-2.68,1.29-5.47,1.93-8.16.11-.43.32-.86.43-1.4h.11v.43h0c-.21.54-.43,1.18-.64,1.72l.11.11c.11-.11.11-.21.21-.43h.11c-.21.86-.43,1.72-.75,2.68-.11-.21-.21-.21-.21-.32-.11.86-.11,1.72-.21,2.68h-.21c.11-.54.21-1.07.32-1.61h-.11c-.21.97-.43,1.82-.54,2.79h.11c.11-.21.11-.32.21-.54h.11c-.11.75-.21,1.61-.32,2.36-.11.64-.11.54.54.54,1.5,0,2.9,0,4.4.11,1.4.11,2.79.21,4.29.32-.54-1.18-.43-2.25.75-3.11-.21.32-.43.75-.64,1.07s-.54.64,0,.97l.11.11c0,1.29,1.07,1.07,1.82,1.4h0c0,.21,0,.43.11.64-.32,0-.75,0-1.18-.11v-.11c.21-.11.43-.21.64-.32q-.64-.32-1.4.43c0-.21.11-.43.11-.64-1.29-.21-2.68-.32-3.97-.54-.21.43-.32.75-.43.97-.43-.21-.64-.43-.97-.43-.86-.11-1.82-.11-2.68-.11-.11,0-.32-.11-.43-.21-.21-.43-.54-.32-.75-.11-.11.11-.11.43-.11.64,0,.11,0,.32-.11.43,0,0-.21.11-.21,0-.11-.11-.11-.21-.11-.43s.32-.54-.11-.64-.54.32-.54.64v.32h-.64c.11-.21.21-.54.32-.86-.32.11-.54.21-.86.32.11.32.32.64.32.97,0,.54,0,1.18-.11,1.72-.11.21-.43.43-.64.64-.11.21-.21.54-.11.75.11.54.21,1.18.32,1.72,0,.21.21.43.32.54,1.07.32,2.04.75,3.11.86.75.11,1.5,0,2.25.11.43,0,.75.11,1.18.21,1.93.32,3.97.75,5.9,1.07.21,0,.43,0,.54-.11.64-.64,1.4-.21,2.04,0,.11.54.64.86,1.18,1.07h0ZM23.01,79.78c.11-.11.11-.21.21-.32.11-.54.43-.64.97-.54.11,1.07.11,2.15.21,3.33.21,1.72.75,3.33,1.82,4.61.11.11.32.21.54.32l.11-.11c-.11-.21-.32-.32-.43-.64.21-.11.32-.11.43-.21.11.21.21.43.32.64.11.11.32-.11.43-.11-.43-.97-1.07-1.72-1.4-2.68-.75-2.04-.64-4.29-.21-6.44.32-2.15.64-4.29.97-6.44.21-1.82.54-3.65.75-5.37.21-1.61.43-3.22.64-4.94.21-1.93.64-3.86,1.4-5.58.43-1.07,1.07-2.15,1.72-3.22-.54.43-1.18.75-1.61,1.07-1.18.97-1.82,2.25-2.25,3.65-.54,1.61-.86,3.33-1.18,5.04-.54,2.58-1.07,5.15-1.5,7.73-.43,2.47-.97,4.83-1.4,7.3-.21.97-.43,1.93-.54,2.9-.32.75-.11,1.61,0,2.36v-2.36ZM45.76,85.03h0c.21-.43.21-.75.32-1.18.32-2.04.54-4.08.86-6.12.32-2.25.64-4.4.97-6.65.32-2.25.64-4.51.97-6.65.21-1.82.54-3.76.75-5.58.32-1.82.54-3.76.86-5.58.21-1.82.54-3.54.75-5.37.21-1.72.54-3.43.75-5.15.32-2.15.86-4.19.54-6.33-.11-.86-.32-1.61-.54-2.36-.32.21-.43.32-.54.54-1.4,1.93-2.36,4.08-2.9,6.44-.43,1.61-.64,3.22-.86,4.94-.32,1.82-.54,3.65-.86,5.47-.32,2.25-.64,4.51-.97,6.87-.43,3-.97,6.12-1.4,9.12-.43,3.11-.97,6.12-1.4,9.23-.11.43-.11.75-.11,1.18h.11c.11-.21.21-.43.21-.75h.11c-.11.21-.11.54-.21.75.11,0,.21-.11.21-.11,0,.32-.11.75-.11,1.07,0,.21,0,.54.11.75,0,.43-.21.97.32,1.29.11,0,0,.32,0,.54-.11.32-.32.64-.32.97-.11,1.29-.21,2.58-.32,3.76,0,.32-.11.64-.11.97h.21c1.29-7.4,2.58-14.81,3.86-22.32.21.54.11,1.07,0,1.61-.21.86-.32,1.82-.54,2.79-.21,1.18-.54,2.25-.21,3.43,0,.21-.11.32-.11.54s-.21.32-.11.43c.11.75.11,1.5.21,2.36,0,.43,0,.86.11,1.29,0,.54.21,1.07.21,1.5-.11,1.29-.32,2.58-.43,3.86-.32.75-.43,1.61-.43,2.47ZM52.63,33.2c1.07,2.79.97,5.58.43,8.48-.43,2.25-.75,4.4-1.07,6.65-.32,2.15-.64,4.4-.97,6.55-.21,1.82-.54,3.76-.75,5.58s-.54,3.54-.75,5.37c-.21,1.82-.54,3.76-.75,5.58-.21,1.93-.54,3.76-.75,5.69-.11,1.18-.32,2.36-.54,3.43-.11.43.11.64.43.75.64.11.54.43.32.86-.11.54-.21,1.07-.21,1.61v4.61c0,.32-.11.75-.11,1.07h.21c1.07-7.83,2.25-15.78,3.33-23.61h.21c-.11.43-.21.75-.21,1.18-.11.97-.21,1.82-.32,2.79-.11.75-.21,1.5-.21,2.25,0,.32,0,.64-.11.97-.11.64-.32,1.29-.11,1.93.21.64.32,1.5-.11,2.15v.32c.21-.11.32-.11.54-.32-.43,3-.75,5.79-1.07,8.69.21-.21.21-.43.21-.54.21-1.61.43-3.22.64-4.94.32-1.93.54-3.97.86-5.9.21-1.5.43-3.11.64-4.61.21-1.93.54-3.86.86-5.79.21-1.61.43-3.22.64-4.83.32-2.04.54-3.97.86-6.01.32-2.47.64-5.04,1.07-7.51.43-2.58.75-5.04.43-7.62-.21-1.29-.43-2.47-1.29-3.54-.64-.64-1.29-1.18-2.36-1.29ZM42.43,72.37h.21c.11-.54.11-.97.21-1.5.32-2.36.75-4.72,1.18-7.08.32-2.36.75-4.72,1.07-7.08.43-2.68.86-5.37,1.29-7.94.43-2.47.75-5.04,1.18-7.51.43-2.36,1.29-4.61,2.68-6.55.32-.54.64-.97,1.07-1.5-1.72.43-2.9,1.4-3.86,2.79-2.25,3.33-2.9,7.19-3.54,11.05-.32,2.04-.54,4.08-.86,6.12-.43,2.9-.97,5.79-1.5,8.69-.64,3.54-1.18,7.08-1.82,10.73-.11.64-.21,1.18-.32,1.82h.11c.11-.32.11-.54.21-.86.11.11.11.21.11.21,0,.54-.11,1.18-.21,1.72,0,.54.11,1.07.11,1.61v1.5c-.11.86-.21,1.82-.32,2.68h.11c0-.11.11-.21.11-.32.21-1.18.43-2.36.64-3.54,0-.32,0-.64-.11-.97-.21-.64-.21-1.18.21-1.72v1.29h.11c1.07-6.44,2.15-12.88,3.22-19.32h.21c-.11.54-.21,1.07-.32,1.61-.11.64-.11,1.4-.21,2.04,0,.11.21.21.21.21.21.21.43.43.11.64-.11.11,0,.32-.11.43v.43c-.11-.11-.21-.11-.32-.21l-.21-.21c-.11,1.18-.32,2.15,0,3.22.21-.21.32-.54.43-.86.11-.32.11-.64.21-.86h.11c-.43,3.11-.86,6.22-1.4,9.23ZM30.63,84.18h0c.11-.11.11-.21,0-.21-.64-1.07-1.07-2.36-.97-3.65,0-1.18.21-2.25.32-3.43.21-1.61.43-3.22.64-4.72.32-2.15.64-4.29.97-6.44.43-2.58.86-5.15,1.18-7.73.21-1.18.21-2.47.21-3.65,0-.54-.21-1.18-.32-1.72h-.21c-.21.32-.54.64-.75.97-.97,1.5-1.72,3.11-2.04,4.83-.54,2.79-.86,5.69-1.29,8.59-.21,1.82-.54,3.65-.75,5.47s-.54,3.54-.75,5.37c-.11.54-.11.97-.11,1.5h.11c.21-1.29.43-2.68.54-3.97h.21c.11.32.11.75.21,1.07.86-.86.54-2.15.97-3.11.11.21.11.54.11.75-.21,1.4-.32,2.9-.54,4.29-.21,1.72-.43,3.33.32,4.94.11.32.32.64.54.86.21-.43-.21-1.18.54-1.18.32.43.54.86.86,1.18ZM59.82,73.55q.11,0,.21.11c-.21,1.72-.32,3.54-.54,5.26-.11.54-.21,1.07-.54,1.5-.54.64-1.18,1.29-1.82,1.93.32.21.64.54.21.97-.32.32-.64.43-1.18.75.43-.11.86-.21,1.07-.32,1.93-.86,3.11-2.36,3.43-4.51.32-2.25.64-4.4.86-6.65.32-2.79.75-5.47,1.07-8.26.32-2.68.86-5.26.54-7.94-.11-.86-.32-1.72-.54-2.68,0-.21-.21-.32-.32-.54-.21.11-.43.21-.54.43-.21.21-.32.54-.43.86-.32,1.61-.75,3.11-.97,4.72-.32,2.58-.64,5.15-.97,7.73-.32,2.68-.64,5.26-.97,7.94-.11.54-.11,1.18-.11,1.72h.11c.11-.54.21-1.07.32-1.61.11,0,.11-.11.21-.11.11.21.11.32.21.54l.11-.11c.21-.54.43-1.07.54-1.72ZM33.42,52.09c.11,1.07.32,2.15.32,3.22.11,2.47-.64,4.83-.97,7.3-.21,1.5-.43,3.11-.64,4.61-.21,1.5-.43,3.11-.64,4.61-.11.86-.21,1.72-.32,2.58.32-.64.54-1.18.75-1.82.11-.32,0-.97.21-.97.64-.21.43-.75.54-1.07,0-.11.11-.21.21-.43.11.21.11.32.11.43-.11,1.07-.21,2.04-.43,3.11-.21,1.82-.54,3.65-.75,5.47-.11.43,0,.97.11,1.4h.21c0-.32.11-.64.11-.97h.64c-.11.32-.11.54-.21.97.21-.11.21-.21.43-.32v.97c.21-1.82.43-3.76.75-5.58.43-3.11.97-6.12,1.4-9.23.32-2.25.75-4.4.97-6.65.21-1.61.32-3.33-.21-4.94-.54-1.4-1.18-2.47-2.58-2.68ZM59.5,86.21c.32-.11.54-.11.75-.21,1.93-.97,3.22-2.58,3.76-4.72.43-1.5.54-3.11.75-4.61.43-4.08.86-8.16,1.4-12.23.32-2.58.11-5.04-.54-7.62-.32-1.07-.75-2.04-1.61-2.9.11.54.21,1.07.21,1.5.11,1.5.32,3,.11,4.4-.21,2.68-.64,5.26-1.07,7.94-.43,3.11-.75,6.12-1.18,9.23,0,.32-.11.75-.11,1.07h.11c.11-.54.21-1.07.32-1.61h.11c.11.64.11,1.18.21,1.82h.21c.11-1.18.32-2.47.43-3.65h.11c-.11,1.18-.32,2.36-.43,3.54-.11.64-.11,1.29-.21,1.93-.54,2.04-1.72,3.65-3.33,4.94-.11.11-.21.21-.32.32.21.11.43.11.64.21-.11.21-.21.32-.32.64ZM60.89,53.16c-.32.21-.54.32-.86.54-1.07.97-1.61,2.25-1.82,3.54-.43,2.25-.75,4.51-.97,6.76-.32,2.47-.64,5.04-.97,7.51-.11,1.18-.21,2.36-.32,3.43.32-.54.11-1.18.86-1.61v.64c-.21,1.5-.43,3.11-.54,4.61v.32c.32.32.11.54-.11.75-.11.11-.21.21-.43.54,1.07-.64,1.5-1.4,1.61-2.36.32-2.47.64-4.83.86-7.3.43-3.54.86-6.98,1.29-10.52.32-2.36.43-4.72,1.4-6.87ZM80.85,71.94c-.43-1.07-.97-1.82-2.25-1.72-.21,0-.43-.11-.54-.21-.64-.54-1.29-.97-1.82-1.5-.11-.11-.21-.43-.21-.54,0-.43-.21-.43-.54-.43h-2.47q-1.07,0-1.29.97c0,.21-.11.32-.11.54-.32,1.07-.64,2.25-.97,3.33-.21.64,0,.86.64.75.11,0,.21,0,.32-.11-.11-.75-.21-1.4-.32-2.15.11,0,.21-.11.21-.11.21.21.54.32.75.54.11-.21.32-.43.54-.64.21-.32.43-.43.11-.86-.43-.64,0-1.61.86-1.61.64,0,1.29.21,1.82.32-.21.21-.43.43-.54.64,0,.54.43,1.18-.21,1.61v.21c.11.54.43.86.97.97.75.11,1.18-.11,1.5-.75,0-.11.11-.21.21-.21,0,0,.11,0,.11.11,0,.21-.11.32-.11.54-.11.54,0,.64.54.54h.43c.32.11.54.11.86-.11.11-.11.32-.11.43-.11.21-.11.54-.11,1.07,0ZM67.98,70.12c.75.75,1.4,1.5,2.04,2.36.54-1.72.97-3.43,1.4-5.04q-.64-.21-1.07.21c-.86.86-1.61,1.72-2.36,2.47ZM67.55,70.55c-.21.43-.43.75-.64.97-.32.43.11,1.5.64,1.61.75,0,1.5,0,2.36-.11-.75-.86-1.5-1.61-2.36-2.47ZM120.67,75.38c-.32,0-.54-.11-.86-.11-1.07-.11-2.15-.11-2.9-.97-.11-.11-.43,0-.54,0,0,.21,0,.43.11.54.54.54,1.07.97,1.61,1.5.32.32.75.32.97-.11.43-.43.97-.64,1.61-.86ZM71.41,80.74c2.79.32,3.33.54,4.08,0-.21-.11-.32-.21-.54-.32-.64-.21-1.18-.64-1.93-.32h-.43c-.43,0-.86.11-1.29.11,0,.21,0,.43.11.54ZM78.38,73.55c-.32-.43-.54-.75-.86-1.07-.21-.21-.43-.21-.64.11-.11.21-.21.43-.32.64h-.21c0-.21,0-.43.11-.75-.43.11-.86.21-1.18.21v.75c1.07.11,2.04.11,3.11.11ZM120.34,74.2c-.11-.11-.21-.11-.21-.11h-.43c-.21,0-.43-.11-.54-.11.11-.21.21-.32.21-.54-.21-.21-.32-.43-.54-.54s-.54-.11-.75-.11c-.11.75.11,1.07.86,1.5.43,0,.86.32,1.4-.11ZM65.18,79.35c.32-.32.43-.54.64-.75.43-.21.43-.54.32-.86-.11-.21-.32-.43-.54-.64l-.11.11c-.11.64-.21,1.29-.32,2.15ZM78.81,69.69c-.86-.64-1.72-1.4-2.58-2.04,0,.64,1.93,2.15,2.58,2.04ZM120.56,84.82c-.97-.11-2.04-.21-3.33-.32.75.21,1.4.32,1.93.64.64.21.97-.21,1.4-.32ZM91.91,73.12q2.58.43,3.11,0h-3.11ZM83.96,72.26c0,.11,0,.21-.11.21.43.11.86.32,1.18.43.11,0,.21-.11.32-.21,0-.11-.11-.21-.11-.21-.43,0-.86-.11-1.29-.21ZM120.88,85.36c-.21-.11-.43-.11-.64-.11v.21c.32.11.75.32,1.18.43-.11-.32-.11-.64-.21-.97h-.11c-.11.11-.11.21-.21.43ZM67.76,78.06c.21-.11.32-.21.43-.21-.11-.11-.32-.21-.43-.21s-.32.11-.43.21c.11-.11.21,0,.43.21ZM86.75,73.66c.11,0,.21,0,.32-.11,0-.21,0-.43-.11-.54s-.32,0-.43,0c.11.21.11.43.21.64ZM90.08,71.41h-.21c0,.32-.11.75-.11,1.07h.21c.11-.32.11-.64.11-1.07ZM38.57,78.27h.21c.11-.54.11-1.07.21-1.61h-.11c-.11.54-.21,1.07-.32,1.61ZM52.41,85.14c-.32,0-.64,0-.97.11v.54c.11-.75.75-.32.97-.64ZM45.76,85.68h-.11c-.11.54-.11,1.07-.21,1.61h.11c0-.54.11-1.07.21-1.61Z"/>
    <path class="cls-1" d="M91.05,42c-.32-.75-1.07-1.29-1.93-1.29-2.36,0-4.61,0-6.98-.11-.32,0-.64,0-.97-.11-.86-.21-1.07-.54-1.07-1.4s.32-1.29,1.07-1.4c.54-.11,1.18-.11,1.72-.11h6.22c2.25,0,3.97,1.18,4.72,3.22.11.43.21.86.21,1.4v5.15c0,1.18.21,1.29,1.29,1.29h.64c.97,0,1.5.64,1.18,1.61-.21.86-.75,1.29-1.72,1.29-3.97,0-7.94.11-11.8,0-2.79-.11-4.61-2.47-4.29-5.26.32-2.58,2.04-4.08,4.61-4.19h5.79c.54,0,.97-.11,1.29-.11ZM87.51,45.22h-3.22c-.97,0-1.5.54-1.61,1.4-.11,1.18.54,1.82,1.82,1.82h6.01c.54,0,.75-.32.86-.86v-1.93c0-.43-.11-.54-.54-.54-1.18.11-2.25.11-3.33.11Z"/>
    <path class="cls-1" d="M72.27,33.85h4.72c.97,0,1.5.54,1.5,1.5s-.54,1.4-1.5,1.4h-8.59c-3,0-5.04,1.5-5.69,4.29-.75,3.11.86,6.22,3.76,7.08.43.11.97.21,1.5.21,3,.11,6.12.11,9.12.11,1.07,0,1.61.43,1.61,1.29,0,.97-.54,1.61-1.61,1.61-3.54,0-6.98.11-10.52-.11-3.54-.21-6.44-3.11-7.08-6.55-.32-1.93-.43-3.86.43-5.79,1.29-2.9,3.33-4.72,6.55-5.04,1.82-.21,3.76,0,5.58,0h.21Z"/>
    <path class="cls-1" d="M146.96,51.44h-4.72c-.97,0-1.4-.64-1.4-1.5s.64-1.4,1.61-1.4h1.18c2.15,0,4.4-.11,6.55-.11,1.07,0,1.61-.54,1.4-1.4-.11-.54-.54-.86-1.07-.97-1.5,0-3-.11-4.51-.11-2.36.11-3.76-1.72-4.08-3.65-.32-2.04,1.07-4.19,3-4.61.75-.21,1.4-.21,2.15-.21h6.55c.54,0,1.07.21,1.5.54.75.54.75,1.61,0,2.04-.43.32-.97.54-1.5.54h-6.98c-.21,0-.43,0-.64.11-.64.11-.97.64-.97,1.18,0,.64.54,1.07,1.18,1.07.86,0,1.72-.11,2.68,0,.97,0,1.82,0,2.79.21,1.82.43,2.9,1.82,3.11,3.97.11,1.5-.86,3.33-2.25,3.97-.43.21-.86.32-1.29.32-.64.11-1.4,0-2.04,0h-2.25Z"/>
    <path class="cls-1" d="M121.31,42.11h-2.36c-.54,0-.75.21-.75.75v4.19c0,.97.43,1.4,1.29,1.4,1.4.11,2.79,0,4.19.11.32,0,.64,0,.97.11.75.11,1.18.64,1.18,1.29s-.43,1.4-1.18,1.4c-.75.11-1.61.11-2.36.11-1.4,0-2.79,0-4.08-.21-1.72-.32-2.9-1.93-2.9-3.65v-4.4c0-.97-.21-1.18-1.18-1.18h-.97c-.86,0-1.61-.64-1.61-1.61,0-.75.64-1.4,1.61-1.4h1.29c.64,0,.86-.21.86-.86,0-.97-.11-2.04-.11-3,0-.43.11-.75.21-1.07.21-.75.86-1.07,1.61-.97.64.11,1.18.75,1.29,1.5v3.43c0,.75.11.86.86.86h4.4c.32,0,.64.11.97.21.75.32.97.75.86,1.5-.11.64-.75,1.18-1.4,1.18-1.07.32-1.93.32-2.68.32h0Z"/>
    <path class="cls-1" d="M129.68,41.79v3c0,2.04,1.4,3.54,3.54,3.76,2.04.21,3.76-1.07,4.08-3.11.11-1.07.11-2.25.11-3.43v-3.65c0-.64.21-1.29.86-1.5.54-.21,1.18-.21,1.61.21.32.21.54.75.54,1.07,0,2.58,0,5.15-.11,7.73-.11,2.68-1.93,4.72-4.72,5.47-3.22.97-6.44-.21-8.05-2.9-.64-.97-.86-2.04-.97-3.22-.11-2.36,0-4.72,0-6.98,0-.86.54-1.29,1.29-1.4s1.5.43,1.61,1.18c.11.75.11,1.5.11,2.25.21.43.11.97.11,1.5h0Z"/>
    <path class="cls-1" d="M107.14,51.77c-1.82-.21-3.65-.21-5.37-.54-2.58-.43-4.61-3-4.83-5.58-.11-1.4-.11-2.79.54-4.08,1.18-2.58,3.22-3.86,6.01-3.97,1.61-.11,3.33-.11,4.94,0,.54,0,1.07.32,1.5.54.43.32.54.86.32,1.4-.21.64-.75,1.07-1.4,1.07-1.61,0-3.22.11-4.83,0-1.5-.11-2.79.43-3.65,1.72-1.72,2.58,0,5.9,3.11,6.12,2.04.11,4.19.11,6.22.11h.54c.86,0,1.4.43,1.4,1.18.11.86-.32,1.61-1.18,1.72-.86.11-1.72.11-2.58.21h-.97c.21,0,.21.11.21.11Z"/>
    <path class="cls-1" d="M132.58,64.32c-3,0-5.15-2.15-5.15-5.04s2.25-5.04,5.15-5.04c3,.11,5.15,2.15,5.15,5.15-.11,2.68-2.25,5.04-5.15,4.94ZM135.9,59.28c0-1.72-1.29-3.33-3.33-3.43-2.04,0-3.33,1.72-3.43,3.43,0,1.93,1.4,3.43,3.33,3.33,1.93,0,3.33-1.07,3.43-3.33Z"/>
    <path class="cls-1" d="M149.1,60.24c.64.97,1.07,1.93.97,3.11-.11.64-.32.97-.86.97-.64,0-.86-.21-.86-.97v-.97c0-.32-.11-.54-.32-.75-.11-.11-.43-.21-.54-.11-.11,0-.21.32-.21.54v1.5c0,.64-.43.75-.97.64-.43,0-.97,0-.97-.64v-8.37c0-.75.11-.86.97-.75,1.07.11,2.04.43,2.9,1.07,1.18.97,1.72,3.43.21,4.51-.11,0-.21.11-.32.21ZM147.17,59.71c.86-.54,1.4-1.07,1.29-1.93-.11-.75-.54-1.29-1.29-1.72v3.65Z"/>
    <path class="cls-1" d="M139.12,58.74v-3.65c0-.43.11-.64.54-.64s.97-.11.97.54c0,1.07.11,2.15.11,3.11v3.33c0,.64.32,1.18.64,1.18.43,0,.75-.54.75-1.18v-6.22c0-.75.11-.75.75-.75.75,0,.97.11.97.86v6.44c0,1.18-.54,2.04-1.61,2.47-.97.43-1.93.11-2.68-.64-.32-.32-.54-.86-.54-1.29,0-1.18.11-2.36.11-3.54h0Z"/>
    <path class="cls-1" d="M123.78,56.06h-1.61c-.21-1.07.11-1.61,1.07-1.61h3.43c.43,0,.64.21.64.64s.11.86-.54.97q-1.07.11-1.07,1.29v5.9c0,.75-.21.97-.97.97s-.86-.21-.86-.97v-6.44c-.11-.21-.11-.43-.11-.75Z"/>
    <path class="cls-1" d="M152.97,64.22h-.43c-.43,0-.43-.21-.21-.54.11-.21.32-.43.43-.64.54-.75.54-1.18.11-1.93-.43-.64-.86-1.4-1.4-2.04-.43-.64-.43-1.18-.11-1.82.32-.86.97-1.61,1.72-2.25.64-.54,1.4-.54,2.15-.54.43,0,.32.32.21.54s-.32.43-.54.64c-.54.54-1.07,1.07-1.5,1.61-.32.43-.32.97-.11,1.4.43.64.75,1.29,1.18,1.82.86,1.29.64,2.25-.54,3.43-.21.21-.54.21-.97.32.11.11,0,0,0,0Z"/>
    <path class="cls-1" d="M149.21,82.89c.11-.11.11-.32.21-.43.11.11.32.21.54.32-.86.43-.32,1.18-.64,1.82-.11.21-.11.43-.21.75.32.11.21.43,0,.75l-.11.11c-.21.75-.75,1.18-1.4,1.5-.21.11-.32.21-.64.43.32.11.54.21.75.32.32.11.75.11,1.07.32.54.21.64,0,.86-.43.43-.86.32-1.82.11-2.79,0-.11.11-.21.11-.32q-.32-.64.21-.86c0,.21.11.32.11.64.21-.32.43-.54.64-.86-.21-.11-.32-.11-.54-.11.86-.54,1.18-1.4,1.4-2.25.11-.32-.43-.97-.75-1.29-.32-.32-.75-.54-1.18-.86.32-.21.64-.43.97-.64.43-.21.86-.43,1.29-.75.21-.11.11-.64-.21-.75-.43-.21-.43-.43-.11-.64.43-.32.43-.75.21-1.18-.21-.11-.43-.11-.43-.11-.21.11-.43.21-.64.43l-.11-.11c.11-.21.11-.43.32-.64.11-.21.43-.43.64-.32.21,0,.54.32.54.54.11.97.11,2.04.21,3-.64.32-1.18.64-1.93.97.11.11.11.21.21.32.32.43.64.86.97,1.29.54.86.54,1.61-.11,2.36-.32.43-.64.86-.86,1.29-.32.54-.54,1.07-.32,1.72.11.54,0,.97-.32,1.4-.21.21-.32.43-.43.64-.11.54-.43.54-.86.43-.43-.11-.86-.11-1.29-.21s-.86-.32-1.29-.54h0c.64-.11,1.07-.54,1.5-1.07.21-.32.43-.43.54-.32.11-.32.11-.64.21-.86.54-1.07.97-1.93.75-3h0Z"/>
    <path class="cls-1" d="M100.81,64.86c.43-.32.75-.64,1.18-.75.43-.21.97-.21,1.4-.21-.11-.54.11-1.07.64-1.4.11-.11.11-.32,0-.54,0-.21-.21-.32-.21-.54.11-.32.32-.86.54-.97.43-.21.64.32.75.64,0,.11.11.32,0,.54-.11-.32-.32-.64-.43-1.07-.32,1.5-.11,2.15.75,2.58-.11.43-.21.86-.21,1.29-.11.43-.11.97-.11,1.4,0,.11.21.21.21.21.43,0,.86-.11,1.29-.21.54-.11,1.18-.11,1.72-.11s1.18,0,1.72.21c.43.11.97.43,1.18.86.32.54.43,1.29.43,1.93,0-.11-.11-.21-.11-.32h-.11c0,.43.11.86.11,1.4-.11,0-.11.11-.21.11-.11-.21-.32-.32-.32-.54s.11-.54.11-.75c0-.11-.21-.32-.21-.43-.11-.21-.21-.43-.11-.54.43-.64.43-.75-.21-1.07-.32.43-.54.86-.86,1.18-.75-.21-1.5-.54-2.25-.75-.11,0-.21-.21-.32-.43.11-.11.32-.21.43-.21.21,0,.43.11.43.21.32.54.97.32,1.4.54.11.11.54-.21.64-.43.11-.32-.11-.43-.43-.43-.54,0-.97-.21-1.5-.32-.75-.21-1.29,0-1.93.32-.64.32-1.18.21-1.4-.54-.11-.43.11-1.07-.43-1.4,0,0,.11-.32.21-.43.43-.32.32-.64-.11-.97-.11-.11-.21-.21-.43-.54-.11.32-.21.54-.21.75,0,.64-.43.86-.86,1.07-.21.11-.64-.11-.97,0-.21,0-.54.21-.75.43-.11.11.21.43.32.64-.11,0-.43-.21-.75-.43Z"/>
    <path class="cls-1" d="M92.12,58.31c-.32-.43-.54-.21-.97.21-.11-.32-.21-.54-.32-.86-.32.11-.64.21-.54.75.11.11,0,.32-.11.54,0,.11-.21.11-.32.11s-.11-.21-.11-.32c0-.32.11-.54.11-.97.21-.21.43-.43.64-.64l-.11-.11c-.21.11-.54.21-.97.43.32-.64,1.18-.54,1.18-1.5-.21.21-.32.32-.54.43-.11.11-.54.11-.54,0-.11-.54-.64-.32-.97-.43-.11-.11-.21-.11-.43-.21-.43.43-.97,1.07-1.4,1.61-.11-.11-.21-.21-.21-.21.43-.32.86-.54,1.29-.86q-.11-.11-.21-.21c-.21.11-.43.21-.75.32.97-1.07,2.25-1.18,3.54-1.4v-.21c-.11,0-.21-.11-.32-.21.43-.21.86-.32,1.29-.54v-.21h-1.4c-.11-.54.21-.54.43-.43.86.32,1.72.54,2.68.97-.86.64-1.61.86-2.58.86-.43,0-.75.11-1.18.21.54.32,1.5-.32,1.72.86-.21.11-.32.21-.54.21.32.64.75,1.07,1.5,1.07.32-.64,1.29-1.18,1.61-.97-.32.64-.86,1.07-1.5,1.72Z"/>
    <path class="cls-1" d="M100.17,68.08c-.11-.11-.21-.21-.32-.43v-.97c0-.97-.21-1.18-1.4-1.18.43.64.86,1.29,1.07,1.93.21.64.32,1.4.32,2.15-.11-.32-.43-.54-.43-.86-.11-.97-.32-1.72-.97-2.47-.11-.11-.32-.21-.43-.21,0,.21-.11.32-.11.54-.11.21-.32.54-.43.75-.11.43-.32.54-.64.54s-.54-.21-.54-.54v-2.9c0-.21-.11-.43-.11-.64h1.72c.86-.11,1.72.11,2.36.86-.32-.11-.64-.32-1.07-.43s-.75-.11-.97.21c-.32.43-.64.43-.97,0-.11-.11-.32-.21-.43-.43-.11.21-.21.32-.21.54,0,.75-.11,1.5-.11,2.25,0,.21.11.43.21.64v-1.82c0-.11.11-.21.21-.32.11.11.32.21.32.32,0,.21-.21.54-.21.75v.64c.11-.11.43-.21.43-.32.21-.43.32-.86.43-1.18.21-.11.54-.21.75-.32.43-.21.97-.11,1.07.43,0,.11.11.21.11.32.43.54.64,1.72.32,2.36q.11-.32,0-.21Z"/>
    <path class="cls-1" d="M92.12,62.93c.21-.54.43-1.07,0-1.72-.21-.32-.54-.86.21-1.18.11-.11.11-.32.11-.43.11-.21.21-.32.43-.64.11.32.21.54.32.86.32-.75.54-1.5.75-2.15-.11,0-.11-.11-.21-.11-.11.21-.32.43-.43.64-.11.32-.32.43-.64.11.32-.32.54-.86.97-.97.32-.21.86-.11,1.29,0,.21.11.21.54.32.86.11.21.11.43.21.64h0c0,.32-.11.64-.11.97h0c-.11.11-.21.11-.32.21v-1.82c0-.21-.11-.32-.11-.54-.21.11-.54.11-.64.32-.21.54-.43,1.18-.64,1.72-.11.32-.21.64-.75.64s-.43.54-.43,1.18c.32-.32.43-.54.64-.75h.11c-.32,1.07-.75,2.15-1.07,3.22h-.11c0-.54.11-.86.11-1.07.11,0,0,0,0,0Z"/>
    <path class="cls-1" d="M95.55,58.85c.11-.43.11-.86.21-1.29,0-.11,0-.21-.11-.43.32,0,.64,0,.97.11,0,.32-.11.75-.11,1.18-.21-.32-.21-.43-.32-.54-.32.54-.11.86,0,1.29.32,1.07.32,2.15.11,3.11-.43-.21-.75-.43-1.18-.64-.21.11-.43.32-.64.54.11-.54.97-.75.43-1.4.21-.32.43-.75.54-1.07h0c.11.21.21.43.32.64.32-.43.32-1.07-.21-1.5h0Z"/>
    <path class="cls-1" d="M144.27,83.85c-.11-.21-.21-.32-.32-.64-.86.43-.86,1.29-.75,2.15-.21-.32-.43-.64-.64-1.07-.11-.21.11-.43.21-.64.11-.11.32-.11.43-.21.54-.21.86-.64.75-1.18s0-.97.11-1.5c0,.43.11.75.11,1.18-.11.75,0,.97.86,1.18-.21-.11-.32-.32-.43-.32.75-.11,1.72-.21,2.58-.21.54,0,1.07.11,1.61.21.11,0,.21.21.32.32h0c-1.61-.43-3.33-.43-4.83.75h0Z"/>
    <path class="cls-1" d="M144.06,74.09c-.21.54-.32.54-.86.11.21,0,.32.11.54.11-.11-.11-.11-.21-.11-.21-.32,0-.64-.11-.97-.11-.43,0-.75.21-.86-.43,0-.11-.43-.11-.64-.11-.11,0-.32.21-.32.32s.11.32.21.32c.21.11.54.11.64.32.21.54.21,1.07.32,1.61.11.32.11.54.21.86,0,.11-.11.32-.11.43.32.11.43.21.32.64-.11.43.21.86.64,1.07.54.21.97.54.97,1.4-.43-.32-.97-.54-1.18-.97-.75-1.07-1.29-2.15-.97-3.54.11-.21-.11-.64-.21-.86-.32-.32-.75-.64-1.07-.97-.11-.11-.11-.43,0-.54.32-.43.97-.54,1.5-.21.32.11.64.11.97.21.32.32.64.43.97.54Z"/>
    <path class="cls-1" d="M101.35,56.81c-.21-.21-.32-.43-.64-.75-.11.21-.21.43-.32.54-.21-.21-.43-.54-.64-.75-.11-.11-.43-.11-.54-.11,0,.21.11.32.21.64-.21,0-.54,0-.64-.11-.32-.21,0-.43.21-.64.21-.21.43-.43.64-.64.54-.43.75-.43.97.11.54.11,1.07.32,1.61.43v.21c-.32-.11-.75-.21-1.07-.32,0,.11-.11.11-.11.21.21.11.43.32.75.43-.32.21-.32.54-.43.75Z"/>
    <path class="cls-1" d="M142.34,86.64c-.97-.32-1.82-.75-2.79-.97-.54-.11-.75-.43-1.18-.54-.75-.21-1.07,0-1.4.64h-.21c0-.43.11-.86,0-1.18-.11-.43-.54-.64-.75-.86,2.04.97,4.19,1.93,6.33,2.9,0-.11,0,0,0,0Z"/>
    <path class="cls-1" d="M151.36,90.29c-.11.11-.32.21-.43.43-.32.54-.64.54-1.07.11-.32-.32-.64-.54-.97-.86-.11-.11-.11-.21-.21-.32.11-.11.21-.11.32-.21s.21-.21.32-.32c.43-.11,1.93.75,2.04,1.18h0Z"/>
    <path class="cls-1" d="M137.84,74.52c.11-.11.32-.21.43-.32v.11c-.97.64-.21,1.4-.21,2.04v.97h-.21c-.11-.11-.21-.11-.32-.32.11.43.11.75.11,1.07q-.64-.43-.32-1.29c-.11,0-.32,0-.32-.11-.11-.11-.21-.21-.32-.43.11-.11.32-.21.43-.21.54,0,.64-.21.43-.75-.11-.32-.32-.54-.43-.86-.11-.21,0-.43,0-.64l.32-.11c.21.43.32.64.43.86Z"/>
    <path class="cls-1" d="M146.42,88.04c-.75,0-1.5,0-2.15-.11-.86-.11-1.61-1.61-.86-2.25.64-.64.43-1.29.43-1.93h.54c-.21.54-.32,1.07-.54,1.61,0,.21-.11.43-.11.54,0,.43.11.86.11,1.4.75.32,1.61.54,2.58.75h0Z"/>
    <path class="cls-1" d="M99.95,59.92c-.32-.32-.75-.64-1.18-1.07-.32.54-.43.97-.11,1.29.32.43.32.97-.21,1.5,0-.43.11-.75,0-.97-.11-.43-.21-.86-.43-1.18-.21-.21-.21-.54-.21-.75q0-.11-.11-.32c-.11.32-.21.54-.32.75h-.11c0-.21,0-.43.11-.64,0-.11.21-.21.32-.21.32.32.86.21,1.29.43.43.32.64.75.97,1.07v.21c-.11,0-.11-.11,0-.11Z"/>
    <path class="cls-1" d="M97.49,52.95c.21.32.54.54.75.86-.32.21-.64.43-.86.64.32.64,1.07-.43,1.4.21-.43.32-.86.64-1.29.97-.64-.97-.64-1.5,0-2.68Z"/>
    <path class="cls-1" d="M101.46,73.77c-.11-.86-.32-1.61-.43-2.47,0-.32.21-.75.32-1.07h.21c0,.64.11,1.18.11,1.82h-.43v.43c0,.11.21.11.21.21,0,.97.64.97,1.4,1.07-.32.21-.54.32-.86.54v-.21c-.11,0-.32-.11-.54-.32h0Z"/>
    <path class="cls-1" d="M107.47,73.23h0c0-1.29-.11-2.47-.11-3.76h0q1.07.43,1.07,1.72c0,.32.11.64,0,.97,0,.21-.21.43-.32.64,0-.75.11-1.29.11-1.93,0-.11-.21-.21-.21-.32-.11.11-.21.32-.21.43.11.75,0,1.5-.32,2.25Z"/>
    <path class="cls-1" d="M107.25,69.58c-.21,0-.32,0-.54.11-1.07.64-2.15.64-3.33.54h-1.4c-.11,0-.21-.11-.32-.21.11-.11.21-.21.32-.21.64,0,1.4,0,2.04.11.97.11,1.82.11,2.47-.75.11-.11.32-.11.43-.11.21.11.21.32.32.54h0Z"/>
    <path class="cls-1" d="M143.74,76.02c.21.54.32,1.18.54,1.82,0,0-.11,0-.21-.11,0,.43-.11.97-.11,1.4-.21-.11-.32-.21-.54-.32.21-.86-.43-1.93.32-2.79Z"/>
    <path class="cls-1" d="M149.75,76.23c.11-1.07.11-2.15.21-3.22-.75.21-.75.75-.75,1.4-.54-.64-.43-1.18,0-1.5.21-.11.43-.11.64-.11.11.11.32.32.32.54,0,.97-.11,1.93-.21,2.79-.11,0-.11.11-.21.11h0Z"/>
    <path class="cls-1" d="M96.74,53.16c-.32.54-.75.64-1.18.21-.11-.11-.43-.21-.64-.21h-3.22c.21-.11.43-.21.54-.21h3.43c0,.21.11.43.11.75.11-.21.21-.43.21-.54h.75Z"/>
    <path class="cls-1" d="M87.83,60.46c.21-.64.21-1.4.97-1.82.11-.11.11-.43.21-.54s.21-.11.43-.21c0,.21.11.43.11.54-.54.64-1.07,1.4-1.72,2.04Z"/>
    <path class="cls-1" d="M134.4,78.17c.11.32.21.64.32.97-.54,0-1.07-.11-1.5,0-.21,0-.32.43-.54.64-.11-.21-.11-.54.21-.86.43-.21.97-.54,1.5-.75Z"/>
    <path class="cls-1" d="M136.66,75.38c-.21.21-.54.43-.75.64-.11.32-.11.64-.21.97-.64-.21-.64.43-.86.75-.11-.64.64-1.82,1.72-2.47,0,.11.11.11.11.11Z"/>
    <path class="cls-1" d="M135.37,83.1c0,.43-.11.75-.11,1.07s0,.64-.11.97h-.21c0-.54-.11-1.07-.11-1.61,0-.11.11-.43.11-.43.21-.11.43,0,.43,0Z"/>
    <path class="cls-1" d="M151.36,90.29h0c.32,0,.64,0,.86.11.43.11.86.32,1.18.43v.21c-.32-.11-.54-.11-.97-.21.21.21.43.43.54.64l-.11.11c-.21-.11-.43-.21-.54-.43-.21-.43-.43-.75-.97-.54.11-.11.11-.21,0-.32Z"/>
    <path class="cls-1" d="M135.15,82.24c-.32-.54-1.18-1.07-.11-1.72.32.43.43,1.4.11,1.72Z"/>
    <path class="cls-1" d="M99.53,71.62c.21-.21.43-.43.54-.75.21-.21.21-.54.43-.86.11-.11.11-.21.21-.32.11.11.11.21.11.32,0,.86-.75,1.07-1.29,1.61q0,.11,0,0Z"/>
    <path class="cls-1" d="M149.1,75.27c-.11.43-.11.86-.21,1.29,0,.11-.32.11-.43.11s-.21-.32-.11-.32c.11-.32.32-.64.54-1.07q.11,0,.21,0Z"/>
    <path class="cls-1" d="M89.22,61.53c.11-.86-.21-1.61.54-2.25-.11.64-.32,1.61-.54,2.25Z"/>
    <path class="cls-1" d="M93.19,74.2c-.64.43-2.04.32-2.36,0h2.36Z"/>
    <path class="cls-1" d="M107.04,67.33c-.43.21-.64.43-.97.54,0,0-.21-.11-.21-.21l.75-.75c0,.11.21.21.43.43Z"/>
    <path class="cls-1" d="M100.06,51.87c-.43.43-.64.75-1.07,1.18,0,0-.11-.43-.43.11.32-.75.64-1.18,1.5-1.29Z"/>
    <path class="cls-1" d="M137.41,78.7c-.43.75-.86,1.5-1.29,2.15l-.11-.11c.43-.75.75-1.5,1.18-2.25,0,.21.11.21.21.21Z"/>
    <path class="cls-1" d="M91.69,60.03c-.21.43-.32.86-.54,1.4-.21-.11-.43-.21-.54-.21.32-.43.75-.86,1.07-1.18Z"/>
    <path class="cls-1" d="M144.17,75.27c-.21.21-.32.32-.43.43-.11-.11-.32-.32-.32-.32.11-.21.21-.43.32-.54.11,0,.21.21.43.43Z"/>
    <path class="cls-1" d="M99.31,58.42c-.21-.11-.43-.11-.64-.21.21-.32.43-.54.64-.86.11,0,.11.11.21.11,0,.32-.11.64-.21.97Z"/>
    <path class="cls-1" d="M146.1,77.2c.11,0,.21,0,.32.11-.21.11-.32.21-.64.32.21.11.32.11.43.11l-.11.11h-.86q.11-.54.86-.64h0Z"/>
    <path class="cls-1" d="M146.1,77.2h0c-.11-.75.21-.97.97-.86-.32.21-.64.54-.97.86Z"/>
    <path class="cls-1" d="M104.57,82.99c.11-.11.32-.21.43-.32q.32-.43.75.11c-.43,0-.75.11-1.18.21h0Z"/>
    <path class="cls-1" d="M94.8,55.74c.11.21.32.32.32.43s-.21.21-.32.32c-.11-.11-.32-.21-.32-.32,0-.11.21-.21.32-.43Z"/>
    <path class="cls-1" d="M151.04,78.27v-.64h.43c0,.21-.11.54-.11.75-.11,0-.21-.11-.32-.11Z"/>
    <path class="cls-1" d="M136.87,73.44c0,.43-.11.97-.11,1.4h-.21v-.43c0-.32.11-.64.11-.97h.21Z"/>
    <path class="cls-1" d="M143.09,77.09c0-.54-.11-.97-.11-1.29.43,0,.43.43.11,1.29Z"/>
    <path class="cls-1" d="M98.67,73.87c.11.11.21.32.21.32-.11.11-.21.21-.32.21s-.32-.11-.32-.21c0-.21.11-.32.21-.54,0,.11.11.21.21.21Z"/>
    <path class="cls-1" d="M92.44,53.38c.32,0,.64.11.97.21-.54.75-.64-.11-.97,0v-.21Z"/>
    <path class="cls-1" d="M99.1,60.78c0-.32,0-.54-.11-.86h.21c0,.21.11.54.11.75,0,0-.11.11-.21.11Z"/>
    <path class="cls-1" d="M147.82,75.38c.21-.32.43-.75.64-1.07.11,0,.11.11.21.11-.32.43-.54.75-.86.97q0,.11,0,0Z"/>
    <path class="cls-1" d="M40.07,72.05v1.4c-.54-.54-.32-.97,0-1.4Z"/>
    <path class="cls-1" d="M24.08,78.38c.11-.64.11-1.29.21-2.04.11.11.21.32.21.43-.11.54-.11,1.07-.21,1.61h-.21Z"/>
  </g>
  <path class="cls-1" d="M144.17,91.47h-.64c0-30.15-24.57-54.73-54.73-54.73s-54.73,24.57-54.73,54.73h-.64c0-30.48,24.79-55.37,55.37-55.37s55.37,24.9,55.37,55.37Z"/>
</svg>