<?xml version="1.0" encoding="UTF-8"?>
<svg id="Capa_7" data-name="Capa 7" xmlns="http://www.w3.org/2000/svg" viewBox="0 0 177.4 125.4">
  <defs>
    <style>
      .cls-1 {
        fill: #fff;
        stroke-width: 0px;
      }
    </style>
  </defs>
  <path class="cls-1" d="M87.71,68.99c-.64-.02-1.23,0-1.81-.06-4.19-.33-8.05-1.64-11.52-4.02-4.48-3.07-7.56-7.19-9.25-12.35-.43-1.31-.73-2.66-.91-4.03-.13-1-.22-2.01-.2-3.02,0-.21,0-.43,0-.64-.02-.78.06-1.55.15-2.32.15-1.31.42-2.6.79-3.87,2.23-7.62,8.21-13.66,15.8-15.97,1.17-.36,2.36-.62,3.58-.79,1.44-.21,2.9-.28,4.36-.2,5.36.26,10.11,2.1,14.21,5.55,3.19,2.68,5.5,5.99,6.95,9.89.52,1.4.9,2.85,1.14,4.33.11.69.18,1.38.25,2.08.08.93.08,1.86.05,2.79-.02.64-.08,1.28-.16,1.91-.12.95-.29,1.88-.52,2.8-.9,3.56-2.53,6.75-4.9,9.55-2.18,2.57-4.78,4.59-7.82,6.05-1.76.85-3.59,1.46-5.5,1.85-.95.19-1.91.33-2.88.41-.62.05-1.24.05-1.8.07ZM77.3,38.28h.93c2.54,0,5.09,0,7.63,0,.14,0,.27,0,.41,0,.12,0,.2-.09.21-.23,0-.06,0-.12,0-.17,0-.5,0-1.01,0-1.51,0-.81.08-.71-.72-.71-1.98,0-3.96,0-5.94,0-.14,0-.27,0-.41-.02-.08,0,.02.02-.03-.04-.01-.01-.02-.04-.01-.05.03-.05.07-.1.11-.14.46-.42.94-.81,1.46-1.15,1.54-1.03,3.23-1.68,5.08-1.9.1-.01.19-.03.29-.05.1-.02.17-.1.17-.2,0-.41,0-.82,0-1.22,0-.45,0-.89,0-1.34,0-.18-.08-.26-.24-.24-.38.05-.77.08-1.16.14-1.53.26-2.97.75-4.33,1.48-1.97,1.05-3.61,2.47-4.97,4.24-.09.12-.19.25-.28.37-.06.08-.15.12-.25.12-.68,0-1.36,0-2.04-.01-.07,0-.12-.11-.09-.17.05-.09.09-.17.14-.25,1.77-2.75,4.1-4.91,7.04-6.37,1.7-.85,3.49-1.39,5.38-1.61.23-.03.46-.07.69-.11.03,0,.07-.04.08-.07.02-.05.03-.11.03-.17,0-.7,0-1.4,0-2.1,0-.06,0-.12-.03-.17-.01-.03-.05-.07-.08-.08-.05-.02-.11-.03-.17-.02-.48.05-.97.09-1.45.16-1.64.21-3.24.63-4.77,1.26-4.63,1.88-8.17,5.01-10.62,9.37-.47.83-.86,1.69-1.2,2.58-.03.09-.06.19-.07.28,0,.03.04.09.06.09.17.02.35.03.52.04,2.87,0,5.75,0,8.62,0ZM98.13,38.28c2.78,0,5.55,0,8.33,0,.16,0,.31,0,.47,0,.06,0,.12,0,.17,0,.1,0,.18-.1.14-.2-.19-.47-.37-.94-.58-1.4-2.58-5.65-7.53-9.8-13.31-11.43-1.37-.39-2.76-.63-4.18-.73-.04,0-.08-.01-.11,0-.04.03-.1.07-.11.11-.02.07-.02.15-.02.23,0,.64,0,1.28,0,1.92,0,.08,0,.16.02.23.01.05.04.11.11.12.21.03.42.06.63.09.38.06.77.1,1.15.17,2.14.42,4.12,1.23,5.94,2.42,1.96,1.28,3.59,2.89,4.92,4.82.13.19.26.39.39.58.04.06.08.13.12.2.06.1.01.21-.09.21-.83,0-1.67,0-2.5,0-.11,0-.19-.05-.25-.13-.22-.27-.42-.56-.64-.83-2.26-2.69-5.08-4.46-8.54-5.18-.34-.07-.69-.11-1.03-.16-.13-.02-.21.06-.21.21,0,.14,0,.27,0,.41,0,.58,0,1.16,0,1.75,0,.19-.07.41.05.57.13.19.39.13.59.17,1.49.28,2.86.84,4.14,1.65.59.38,1.14.8,1.66,1.27.06.05.09.12.14.18,0,0,0,.05-.02.05-.09.02-.19.04-.28.04-1.9,0-3.8,0-5.71,0-.15,0-.31.01-.46.02-.03,0-.07.04-.08.08-.02.05-.03.11-.03.17,0,.7,0,1.4,0,2.1,0,.04,0,.08.01.11,0,.07.09.14.16.14.19,0,.39.01.58.01,2.81,0,5.63,0,8.44,0ZM77.3,52.5h-1.11c-2.47,0-4.93,0-7.4,0-.19,0-.39.01-.58.02-.05,0-.11.08-.1.12.05.15.09.29.15.44,2.39,5.97,7.52,10.74,14.14,12.48,1.11.29,2.24.47,3.38.59.17.02.35.02.52.02.07,0,.15-.08.15-.15,0-.02,0-.04,0-.06,0-.74,0-1.48,0-2.21,0-.04,0-.08-.03-.11-.02-.03-.05-.07-.08-.08-.07-.02-.15-.04-.23-.05-1.4-.12-2.76-.42-4.08-.9-3.74-1.37-6.65-3.79-8.8-7.12-.06-.09-.15-.18-.13-.31.01-.07.04-.08.37-.08.25,0,.5,0,.76,0,.35,0,.7,0,1.05,0,.08,0,.15.03.2.09.11.14.21.28.32.41,1.02,1.31,2.22,2.44,3.6,3.37,1.97,1.33,4.14,2.12,6.49,2.39.13.02.27.02.41.01.04,0,.1-.06.12-.1.03-.05.02-.11.02-.17,0-.82,0-1.63,0-2.45,0-.04,0-.08,0-.12,0-.08-.07-.15-.14-.16-.06,0-.11-.02-.17-.02-1.09-.13-2.14-.39-3.15-.81-1.23-.51-2.34-1.21-3.34-2.09-.09-.08-.16-.17-.23-.26,0,0,0-.04.01-.05.05-.06-.05-.04.03-.04.17,0,.35-.02.52-.02,1.92,0,3.84,0,5.77,0,.17,0,.35,0,.52,0,.1,0,.18-.08.18-.19,0-.72,0-1.44,0-2.15,0-.14-.08-.23-.2-.23-.17,0-.35,0-.52,0-2.82,0-5.63,0-8.45,0ZM98.13,52.5c-2.84,0-5.67,0-8.51,0-.19,0-.39,0-.58.02-.03,0-.07.04-.08.07-.02.03-.02.07-.02.11,0,.72,0,1.44,0,2.16,0,.02,0,.04,0,.06,0,.08.07.15.14.16.17,0,.35.01.52.01,1.71,0,3.42,0,5.13,0,.16,0,.31,0,.47,0,.06,0,.12,0,.17.01.02,0,.03.02.04.03.03.04.03.07,0,.1-.32.35-.69.63-1.07.9-1.51,1.1-3.19,1.84-5.05,2.13-.09.02-.19.05-.28.08-.03.01-.06.05-.07.08-.02.03-.02.07-.02.11,0,.85,0,1.71,0,2.56,0,.02,0,.04,0,.06,0,.11.08.19.18.17.64-.08,1.27-.19,1.89-.36,2.84-.75,5.22-2.24,7.2-4.4.37-.4.7-.83,1.03-1.26.13-.17.28-.24.49-.23.33.01.66,0,.99,0,.43,0,.85,0,1.28,0,.23,0,.26.07.13.28-.04.07-.08.13-.12.2-.67,1.03-1.42,1.99-2.29,2.86-2.68,2.7-5.88,4.41-9.66,4.96-.31.05-.62.08-.92.11-.13.02-.2.09-.2.23,0,.74,0,1.48,0,2.21,0,.04,0,.08.02.11.02.03.05.07.08.08.1.01.19.02.29,0,.54-.06,1.08-.11,1.62-.2,1.74-.27,3.41-.75,5.02-1.46,3.27-1.43,6-3.55,8.19-6.36,1.23-1.57,2.2-3.29,2.94-5.14.05-.12.08-.26.12-.39.01-.05-.01-.08-.06-.08-.19-.01-.39-.03-.58-.03-2.82,0-5.63,0-8.45,0ZM76.63,44.04c2.76,0,5.51,0,8.27,0,.41,0,.82,0,1.22,0,.08,0,.15-.01.23-.02.06-.01.1-.07.11-.12.01-.1.02-.19.02-.29,0-.62,0-1.24,0-1.86,0-.79.06-.71-.72-.71-5.94,0-11.88,0-17.82,0-.14,0-.27,0-.41,0-.06,0-.12,0-.17.02-.05.02-.1.06-.13.11-.03.05-.04.11-.05.17-.16.76-.24,1.53-.33,2.3-.04.39-.02.41.41.42.14,0,.27,0,.41,0,2.99,0,5.98,0,8.97,0ZM98.7,44.04c3.05,0,6.09,0,9.14,0,.17,0,.35,0,.52-.01.08,0,.14-.08.14-.16-.01-.15-.04-.31-.05-.46-.04-.68-.16-1.35-.28-2.02-.01-.08-.04-.15-.06-.22-.03-.08-.09-.13-.17-.13-.19,0-.39,0-.58,0-5.88,0-11.76,0-17.64,0-.16,0-.31,0-.47,0-.06,0-.12,0-.17.01-.05.02-.11.04-.12.11,0,.06-.02.11-.02.17,0,.81,0,1.63,0,2.44,0,.06,0,.12.02.17.01.03.05.07.08.08.19.01.39.02.58.02,3.03,0,6.05,0,9.08,0ZM76.61,46.82c-3.01,0-6.01,0-9.02,0-.19,0-.39,0-.58.01-.1,0-.16.08-.16.2,0,.02,0,.04,0,.06.09.71.16,1.42.29,2.13.11.58.13.51.63.52.12,0,.23,0,.35,0,4.29,0,8.58,0,12.86,0,1.61,0,3.22,0,4.83,0,.17,0,.35-.01.52-.02.07,0,.1-.06.12-.11.02-.05.02-.11.02-.17,0-.78,0-1.55,0-2.33,0-.04,0-.08,0-.12,0-.08-.07-.15-.14-.16-.19,0-.39-.01-.58-.01-3.05,0-6.09,0-9.14,0ZM98.69,46.82c-3.01,0-6.02,0-9.02,0-.19,0-.39,0-.58.01-.07,0-.14.08-.14.15,0,.06-.01.12-.01.17,0,.54,0,1.09,0,1.63,0,.25,0,.5,0,.76,0,.1.08.18.18.18.19,0,.39,0,.58,0,5.88,0,11.76,0,17.64,0,.16,0,.31,0,.47,0,.06,0,.12,0,.17-.02.03,0,.08-.04.09-.06.04-.11.09-.22.11-.33.13-.73.25-1.45.3-2.19.01-.24-.01-.31-.28-.31-.17,0-.35,0-.52,0-2.99,0-5.98,0-8.97,0Z"/>
  <path class="cls-1" d="M51.47,84.25c1.24,0,2.48,0,3.73,0,.13,0,.27-.02.4-.03.03,0,.06-.04.08-.08.02-.03.02-.08.02-.11-.02-1.01-.04-2.02-.06-3.03-.02-.84-.14-1.66-.37-2.47-.09-.3-.21-.58-.31-.88-.03-.08.03-.16.1-.16.08,0,.15,0,.23,0,.99,0,1.98,0,2.97,0,.1,0,.19.01.29.02.05,0,.1.08.09.13-.08.46-.18.91-.25,1.37-.07.46-.13.92-.19,1.38-.11.75-.13,1.51-.18,2.26-.03.39-.03.78-.04,1.16-.01,1.11,0,2.21.06,3.32.07,1.2.12,2.4.17,3.61.02.57.12,1.12.33,1.65.08.22.15.44.22.66,0,.02-.03.08-.06.09-.05.02-.11.03-.17.03-1.13,0-2.25,0-3.38,0-.04,0-.08-.01-.11-.02-.05,0-.09-.09-.08-.13.02-.06.03-.11.05-.16.29-.79.45-1.6.54-2.44.08-.74.08-1.47.1-2.21.02-.68.03-1.36.04-2.04,0-.04,0-.08,0-.12,0-.06-.09-.16-.14-.16-.12,0-.23-.01-.35-.01-2.47,0-4.93,0-7.4,0-.12,0-.23,0-.35.01-.05,0-.14.11-.14.17,0,.02,0,.04,0,.06.02,1.09.03,2.17.05,3.26.02.93.14,1.86.4,2.76.09.3.2.59.29.88.02.05-.04.13-.08.14-.02,0-.04.02-.06.02-.08,0-.16,0-.23,0-.99,0-1.98,0-2.97,0-.1,0-.19-.02-.28-.04-.03,0-.06-.06-.06-.09,0-.06.01-.11.03-.17.24-.96.4-1.94.49-2.93.09-.97.15-1.93.15-2.91,0-1.16-.01-2.33-.07-3.49-.04-.95-.05-1.9-.06-2.85,0-.53-.07-1.04-.19-1.56-.12-.51-.24-1.02-.35-1.53-.01-.05.04-.12.09-.12.04,0,.08-.01.11-.02.06,0,.12,0,.17,0,.89,0,1.79,0,2.68,0,.1,0,.19,0,.29.02.03,0,.07.05.08.08.01.08.02.15.01.23-.09.97-.19,1.93-.29,2.9-.1,1.06-.2,2.13-.3,3.19,0,.08,0,.15,0,.23,0,.04.07.11.11.11.17,0,.35.01.52.01,1.2,0,2.41,0,3.61,0Z"/>
  <path class="cls-1" d="M68.99,85.04c-.04-1.72-.06-2.98-.09-4.25,0-.27-.04-.54-.08-.81-.09-.71-.43-1.29-1.04-1.68-.3-.19-.53-.45-.75-.72-.02-.02-.03-.08-.01-.1.02-.03.06-.05.1-.05.68-.01,1.36-.02,2.04-.03.54,0,1.09,0,1.63.01.08,0,.16,0,.23.02.1.01.19.05.25.13.06.07.13.14.19.22,2.63,3.26,5.29,6.51,8.02,9.7.13.15.26.28.4.43,0,.01.04.02.05.01.03-.02.06-.04.07-.07.01-.03.01-.08.01-.11-.02-1.16-.03-2.33-.06-3.49-.01-.58-.04-1.16-.08-1.75-.11-1.53-.31-3.05-.74-4.53-.03-.11-.05-.23-.08-.34-.01-.05.04-.13.08-.13.06,0,.11-.02.17-.02.91,0,1.83,0,2.74,0,.06,0,.12.01.17.02.05,0,.1.08.09.12-.02.07-.05.15-.07.22-.34,1.04-.54,2.1-.64,3.19-.06.72-.09,1.43-.09,2.15,0,.93.03,1.86.03,2.8,0,.78-.02,1.55-.02,2.33,0,.93,0,1.86,0,2.8,0,.37,0,.74.01,1.11.02.45-.09.89-.2,1.32,0,.03-.05.07-.08.07-.03,0-.07-.02-.1-.04-.08-.09-.15-.18-.23-.27-2.68-3.26-5.35-6.51-8.03-9.77-.7-.85-1.41-1.71-2.11-2.56-.05-.06-.11-.1-.17-.15-.01,0-.04,0-.05,0-.02.03-.04.07-.05.1-.03.23-.07.46-.08.69-.02.83-.02,1.67-.02,2.5,0,.97.08,1.94.16,2.91.12,1.49.29,2.98.58,4.44.08.44.21.87.32,1.3.02.09.04.19.05.28,0,.03-.04.07-.06.08-.05.02-.11.03-.17.03-.91,0-1.83,0-2.74,0-.08,0-.15-.01-.23-.02-.04,0-.11-.09-.11-.12.02-.11.04-.23.06-.34.26-1.12.44-2.24.55-3.39.15-1.57.16-3.14.16-4.25Z"/>
  <path class="cls-1" d="M127.6,77.48c.98-.02,1.97.04,2.96.13,1.64.15,2.85.96,3.56,2.45.83,1.74.2,3.53-1.14,4.52-.41.3-.87.51-1.34.69-.29.11-.58.22-.87.33-.03.01-.06.04-.09.07,0,0,0,.04,0,.05.03.05.06.1.1.14,1.04.91,1.96,1.94,2.86,2.98.51.59,1.02,1.17,1.54,1.75.81.89,1.68,1.72,2.66,2.43.05.03.09.07.12.12.02.02.01.09,0,.1-.14.11-.29.18-.47.2-1.18.11-2.28-.11-3.29-.74-.48-.3-.92-.65-1.3-1.07-.52-.57-1.04-1.15-1.55-1.74-.75-.87-1.48-1.75-2.22-2.62-.44-.52-.95-.97-1.51-1.35-.06-.04-.17,0-.17.07,0,.04,0,.08,0,.12-.02.78-.03,1.55-.04,2.33,0,.43,0,.85.01,1.28.03,1.1.23,2.16.64,3.18.02.05.04.11.06.16.01.04-.04.13-.08.13-.08,0-.15.02-.23.02-1.03,0-2.06,0-3.09,0-.06,0-.12,0-.17,0-.08,0-.15-.08-.14-.15,0-.06.01-.12.03-.17.22-.91.38-1.82.47-2.75.13-1.3.19-2.59.17-3.9-.02-1.46-.08-2.91-.1-4.37-.01-.6-.06-1.2-.12-1.8-.07-.6-.18-1.19-.27-1.78-.03-.23-.06-.46-.08-.69,0-.07.08-.15.15-.15.04,0,.08,0,.12,0,.95.01,1.9.03,2.86.04ZM127.43,81.94c0,.83,0,1.67,0,2.5,0,.15,0,.31,0,.46,0,.1.09.18.19.18.58,0,1.16-.04,1.73-.17.98-.23,1.71-.79,2.17-1.69.24-.48.38-.99.27-1.52-.3-1.35-1.05-2.31-2.41-2.71-.56-.16-1.14-.23-1.72-.22-.02,0-.04,0-.06,0-.08,0-.15.07-.16.14,0,.14-.01.27-.01.41,0,.87,0,1.74,0,2.61Z"/>
  <path class="cls-1" d="M113.75,81.41c-.13-.1-.16-.23-.22-.35-.16-.31-.34-.61-.56-.89-.57-.71-1.32-1.13-2.21-1.31-.69-.14-1.39-.13-2.09-.08-.44.03-.89.06-1.33.16-1.53.33-2.67,1.21-3.45,2.55-.39.68-.63,1.41-.75,2.19-.2,1.31-.09,2.6.39,3.83.75,1.89,2.07,3.21,4.01,3.87,1.27.43,2.55.41,3.84.05.11-.03.22-.08.32-.13.37-.18.54-.49.54-.89,0-.04,0-.08,0-.12-.11-.56-.09-1.12-.09-1.68,0-.33-.02-.66-.08-.98-.12-.67-.44-1.2-1.04-1.53-.18-.1-.31-.23-.38-.42-.03-.08.01-.17.08-.18.12,0,.23-.02.35-.02.74,0,1.48,0,2.21,0,.5,0,1.01,0,1.51,0,.1,0,.19,0,.29,0,.15,0,.26.21.17.35-.06.1-.13.19-.2.29-.43.62-.66,1.31-.73,2.06-.08.78,0,1.55.08,2.32.04.35.09.69.13,1.04,0,.06,0,.12,0,.17,0,.32-.13.57-.43.7-.16.07-.32.13-.49.18-.88.25-1.76.48-2.66.64-1,.18-2,.25-3.01.17-1.31-.1-2.56-.46-3.69-1.15-1.69-1.03-2.78-2.51-3.3-4.41-.3-1.07-.39-2.17-.28-3.29.09-.88.26-1.73.61-2.54,1.03-2.44,2.83-3.98,5.41-4.59,1.03-.24,2.07-.3,3.12-.25,1.31.06,2.57.34,3.82.73.44.14.89.27,1.33.41.09.03.18.07.27.11.03.01.05.07.04.1,0,.06-.03.11-.05.16-.44.8-.87,1.6-1.31,2.4-.06.1-.13.19-.19.29Z"/>
  <path class="cls-1" d="M96.9,93.21c-.54,0-1.09,0-1.63,0-.06,0-.12,0-.17-.01-.09,0-.14-.06-.17-.14-.16-.58-.33-1.16-.48-1.74-.23-.86-.46-1.72-.69-2.58-.04-.15-.08-.3-.13-.44-.11-.27-.31-.44-.61-.47-.12-.01-.23-.01-.35-.01-1.38,0-2.76.02-4.13.03-.12,0-.23,0-.35,0-.43.03-.72.25-.85.67-.28.93-.54,1.86-.81,2.79-.16.56-.31,1.12-.47,1.68-.03.11-.1.17-.2.17-.08,0-.15,0-.23,0-.78,0-1.55,0-2.33,0-.08,0-.15,0-.23-.01-.07,0-.13-.1-.12-.17.02-.08.03-.15.06-.22.04-.09.09-.17.15-.25,1.37-1.99,2.48-4.12,3.49-6.3.9-1.95,1.72-3.94,2.55-5.93.1-.23.19-.47.29-.7.07-.17.08-.34.03-.51-.14-.47-.3-.92-.66-1.27-.07-.06-.14-.13-.15-.24,0-.02,0-.05.02-.05.03-.02.07-.03.11-.03.97,0,1.94,0,2.91,0,.02,0,.04,0,.06,0,.08,0,.15.04.18.12.09.24.17.47.26.71,1.04,3.01,2.19,5.97,3.52,8.86.87,1.89,1.81,3.74,2.83,5.54.07.12.12.24.18.36,0,.02-.02.09-.04.1-.07.02-.15.03-.23.03-.52,0-1.05,0-1.57,0ZM90.48,85.95s0,0,0,0c.62,0,1.24,0,1.86,0,.1,0,.19-.01.29-.03.03,0,.07-.06.06-.09-.02-.09-.04-.19-.07-.28-.67-1.65-1.34-3.31-2.02-4.96-.04-.09-.09-.17-.13-.26,0-.02-.03-.03-.04-.04-.01,0-.03.01-.04.03-.05.1-.11.2-.15.31-.46,1.21-.93,2.43-1.39,3.64-.17.44-.33.87-.49,1.31-.03.07-.05.15-.07.22-.01.04.05.12.09.12.7,0,1.4.02,2.09.02Z"/>
  <path class="cls-1" d="M36.26,93.48c-1.54,0-2.84-.28-4.04-.93-2.01-1.09-3.27-2.75-3.75-4.99-.16-.75-.2-1.5-.16-2.26.05-1.07.25-2.12.64-3.12.61-1.54,1.58-2.8,2.97-3.71.91-.59,1.9-.96,2.97-1.12.37-.05.73-.09,1.1-.1.84-.02,1.66.1,2.48.3.77.18,1.54.4,2.31.58.57.13,1.12.33,1.65.54.07.03.14.07.21.1.04.02.06.11.04.16,0,.02-.01.04-.02.05-.42.83-.84,1.66-1.26,2.49-.03.05-.06.1-.1.15-.01.02-.04.04-.04.04-.03-.02-.07-.03-.08-.06-.06-.12-.12-.24-.18-.37-.11-.25-.25-.48-.41-.7-.49-.69-1.16-1.14-1.95-1.4-.42-.14-.86-.22-1.31-.26-.64-.06-1.28-.08-1.92,0-.68.09-1.33.29-1.92.64-.68.4-1.22.95-1.63,1.63-.34.57-.58,1.18-.76,1.82-.2.73-.32,1.48-.3,2.24.03,1.17.31,2.27.92,3.27.98,1.62,2.41,2.59,4.29,2.9.84.14,1.66.11,2.48-.1,1.23-.32,2.15-1.04,2.8-2.12.22-.36.46-.72.69-1.08.04-.06.13-.08.21-.06.05.02.11.04.16.07.02,0,.04.01.05.03.03.05.06.1.07.15,0,.03,0,.08,0,.11-.13.51-.23,1.03-.39,1.52-.4,1.19-1.15,2.1-2.25,2.72-.6.34-1.24.55-1.91.69-.61.13-1.23.17-1.68.17Z"/>
  <path class="cls-1" d="M139.08,85.1c-.03-1.34-.06-2.68-.08-4.02,0-.84-.14-1.66-.33-2.48-.06-.25-.12-.49-.17-.74-.02-.09-.02-.19-.01-.29,0-.03.04-.06.07-.07.05-.02.11-.03.17-.03.99,0,1.98,0,2.97,0,.06,0,.11.01.17.02.05,0,.09.08.09.13,0,.06-.01.12-.03.17-.14.72-.25,1.45-.34,2.19-.15,1.33-.22,2.67-.22,4.01,0,1.71.03,3.42.04,5.13,0,.6,0,1.2,0,1.81,0,.17.02.35.04.52.06.32.08.33.42.36,1.12.09,2.21-.07,3.27-.41,1.12-.35,2.16-.85,3.13-1.53.09-.07.2-.12.3-.17.02,0,.08.04.08.05-.03.25-.05.5-.09.75-.1.61-.2,1.22-.31,1.84-.04.21-.08.42-.12.63-.03.13-.12.19-.24.23-.21.06-.42.06-.64.06-.85,0-1.71,0-2.56,0-1.83,0-3.65,0-5.48,0-.17,0-.35,0-.52,0-.11,0-.17-.08-.16-.2.07-.54.12-1.08.21-1.62.18-1.13.26-2.28.28-3.42.02-.97.02-1.94.03-2.91,0,0,0,0,.01,0Z"/>
  <path class="cls-1" d="M63.13,77.47c.62,0,1.24.01,1.86.02.06,0,.1.06.1.12,0,.02,0,.04,0,.06,0,.04-.01.08-.02.11-.35,1.18-.48,2.39-.59,3.61-.12,1.34-.15,2.67-.15,4.01,0,1.46.05,2.91.2,4.36.11,1.06.24,2.12.55,3.15.01.04.01.08.02.11,0,.03-.07.12-.11.12-.04,0-.08.02-.11.02-1.09,0-2.17,0-3.26,0-.12,0-.18-.07-.17-.18,0-.04.01-.08.02-.11.02-.11.04-.23.06-.34.13-.69.24-1.37.32-2.07.19-1.64.23-3.29.22-4.94-.02-1.65-.11-3.3-.2-4.94-.02-.31-.04-.62-.04-.93.01-.58-.16-1.11-.41-1.62-.07-.14-.13-.28-.19-.42,0-.02.02-.09.05-.09.07-.02.15-.03.23-.03.54,0,1.09,0,1.63,0,0,0,0,0,0,0Z"/>
  <path class="cls-1" d="M119.32,77.44c.5,0,1.01,0,1.51,0,.06,0,.12,0,.17,0,.12,0,.18.08.17.18-.08.65-.17,1.31-.25,1.96-.05.44-.1.89-.13,1.33-.09,1.24-.17,2.48-.17,3.72,0,.91,0,1.82.03,2.73.02.93.1,1.86.19,2.79.09.95.21,1.89.33,2.83,0,.07-.06.16-.13.17-.06,0-.12.01-.17.01-.93,0-1.86,0-2.79,0-.08,0-.15-.01-.23-.02-.04,0-.11-.09-.1-.12.01-.08.02-.15.03-.23.21-.95.35-1.9.44-2.87.18-1.86.21-3.72.13-5.58-.06-1.45-.12-2.91-.18-4.36-.01-.25-.03-.5-.06-.75-.04-.41-.16-.8-.35-1.16-.08-.15-.17-.31-.25-.46-.04-.07.02-.15.11-.16.12,0,.23,0,.35,0,.45,0,.89,0,1.34,0Z"/>
  <path class="cls-1" d="M149.11,74.93c0,1.24-1.01,2.33-2.34,2.32-1.06,0-2.24-.82-2.3-2.31.05-1.35,1.05-2.3,2.35-2.33,1.56.08,2.31,1.33,2.29,2.32ZM148.63,74.95c.04-.83-.6-1.85-1.82-1.86-1.06-.01-1.85.83-1.84,1.84,0,1.14.95,1.82,1.79,1.83,1.05.02,1.88-.85,1.87-1.82Z"/>
  <path class="cls-1" d="M108.56,68.77c-1.12.02-2.28-.85-2.33-2.34.09-1.43,1.18-2.29,2.33-2.28,1.38,0,2.3,1.14,2.32,2.28.01,1.25-1,2.35-2.32,2.34ZM108.59,68.28c.97.02,1.83-.84,1.81-1.87-.02-.92-.79-1.79-1.84-1.79-.92,0-1.85.71-1.84,1.85.01,1.19,1,1.86,1.86,1.82Z"/>
  <path class="cls-1" d="M65.54,101.72c0,.56,0,1.12,0,1.69,0,.18-.06.23-.25.23-.08,0-.16,0-.23-.01-.05-.01-.11-.04-.15-.08-.07-.09-.13-.19-.19-.29-.44-.75-.88-1.51-1.32-2.26-.03-.04-.08-.07-.12-.1,0,0-.05,0-.05.02-.02.07-.04.14-.04.22,0,.6,0,1.2,0,1.8,0,.16,0,.31,0,.47,0,.18-.06.24-.24.24-.06,0-.12,0-.17-.02-.05-.02-.09-.07-.12-.11-.02-.03-.01-.08-.01-.11,0-1.12,0-2.25,0-3.37,0-.11.06-.18.18-.18.1,0,.19,0,.29,0,.16-.01.25.06.33.19.4.69.8,1.37,1.21,2.05.07.12.15.22.22.33,0,0,.04,0,.06,0,.07-.04.03.05.04-.02.01-.1.03-.19.03-.29,0-.62,0-1.24,0-1.86,0-.1,0-.19.02-.29,0-.03.05-.08.07-.08.11-.01.23-.01.34,0,.03,0,.08.04.08.07.02.08.02.15.02.23,0,.52,0,1.05,0,1.57h0Z"/>
  <path class="cls-1" d="M92.38,101.74c0,.52,0,1.05,0,1.57,0,.08,0,.15-.02.23,0,.03-.05.07-.08.07-.11.01-.23.02-.35.02-.08,0-.15-.04-.19-.11-.08-.13-.16-.27-.24-.4-.4-.69-.8-1.37-1.2-2.06-.04-.07-.09-.12-.14-.18,0,0-.03,0-.05,0-.02,0-.05.02-.05.03-.01.07-.03.15-.03.22,0,.68,0,1.36,0,2.04,0,.12,0,.23-.02.35,0,.06-.05.11-.11.11-.1,0-.19,0-.29-.01-.03,0-.06-.04-.08-.08-.02-.03-.02-.07-.02-.11,0-1.13,0-2.25,0-3.38,0-.04,0-.08.02-.11.01-.03.05-.07.07-.08.15-.01.31-.02.46-.02.08,0,.14.05.19.12.39.67.79,1.34,1.18,2,.08.13.17.26.26.38.01.02.06.01.1,0,.02,0,.04-.02.04-.04.01-.07.02-.15.02-.23,0-.54,0-1.09,0-1.63,0-.16,0-.31,0-.47,0-.11.06-.16.19-.16.06,0,.12,0,.17,0,.05.01.12.02.12.1,0,.1.02.19.02.29,0,.5,0,1.01,0,1.51Z"/>
  <path class="cls-1" d="M104.98,101.72c0,.56,0,1.13,0,1.69,0,.17-.07.23-.26.23-.08,0-.16,0-.23-.01-.05-.01-.11-.04-.14-.09-.09-.13-.16-.26-.24-.4-.39-.67-.78-1.34-1.17-2.01-.05-.08-.11-.16-.17-.23,0,0-.04,0-.06,0-.02,0-.04.01-.04.02-.01.09-.04.19-.04.29,0,.62,0,1.24,0,1.86,0,.14,0,.27,0,.41,0,.1-.07.16-.2.16-.06,0-.12,0-.17,0-.07,0-.1-.05-.12-.1-.02-.05-.02-.12-.02-.17,0-1.07,0-2.14,0-3.2,0-.06,0-.12,0-.17,0-.06.03-.12.1-.12.15,0,.31-.01.46,0,.05,0,.11.04.14.08.1.14.18.3.27.45.41.68.82,1.37,1.22,2.05.03.04.06.05.1.02.01,0,.03-.03.03-.04,0-.1,0-.19,0-.29,0-.6,0-1.2,0-1.81,0-.12,0-.23,0-.35,0-.04.07-.11.11-.11.08,0,.15,0,.23,0,.08,0,.16.07.16.14,0,.1,0,.19,0,.29,0,.49,0,.97,0,1.46h0Z"/>
  <path class="cls-1" d="M118.08,101.68c-.03.27-.06.54-.11.81-.02.13-.07.26-.12.39-.24.53-.65.8-1.23.83-.28.01-.54-.03-.8-.12-.22-.08-.22-.21-.13-.42.01-.03.06-.06.1-.05.1,0,.19.02.28.05.19.06.38.08.58.05.29-.03.51-.18.64-.44.1-.19.14-.4.13-.62,0-.05-.04-.07-.08-.06-.11.04-.21.09-.32.13-.24.1-.5.11-.74.05-.36-.09-.62-.31-.76-.66-.15-.41-.11-.8.08-1.18.19-.37.51-.57.93-.6.08,0,.16,0,.23,0,.55,0,1.04.31,1.21.98.07.28.11.57.11.87ZM116.7,100.29c-.21,0-.41.06-.54.26-.2.32-.22.66-.04.99.09.16.23.26.41.29.31.05.57-.04.8-.25.09-.08.15-.18.13-.31-.02-.17-.05-.35-.09-.51-.09-.29-.34-.47-.67-.47Z"/>
  <path class="cls-1" d="M93.26,101.74c0-.56,0-1.13,0-1.69,0-.17.05-.22.19-.22.64,0,1.28,0,1.92,0,.14,0,.2.06.2.22,0,.2-.05.26-.22.26-.37,0-.74,0-1.11,0-.1,0-.19,0-.29,0-.03,0-.1.09-.1.13,0,.27,0,.54,0,.81,0,.1.07.17.19.17.33,0,.66,0,.99,0,.07,0,.14.07.14.16,0,.04,0,.08,0,.12,0,.02,0,.04,0,.06-.01.08-.07.15-.15.15-.35,0-.7,0-1.05.01-.04,0-.12.07-.12.11,0,.33,0,.66,0,.99,0,.03.04.07.07.08.05.02.11.02.17.02.37,0,.74,0,1.11,0,.08,0,.15,0,.23,0,.07,0,.15.08.15.15,0,.08,0,.15-.02.23,0,.03-.04.06-.07.08-.03.02-.07.03-.11.03-.66,0-1.32,0-1.98,0-.08,0-.15-.06-.15-.14,0-.41,0-.82,0-1.22,0-.17,0-.35,0-.52h0Z"/>
  <path class="cls-1" d="M66.41,101.71c0-.58,0-1.16,0-1.75,0-.04.07-.12.1-.12.02,0,.04,0,.06,0,.66,0,1.32,0,1.98,0,.11,0,.16.06.16.19,0,.06,0,.12-.01.17-.01.06-.05.11-.11.11-.39,0-.78,0-1.16,0-.1,0-.2,0-.29,0-.05,0-.11.03-.12.1-.04.29-.03.58,0,.87,0,.04.07.1.11.11.09.02.19.02.29.02.23,0,.47,0,.7,0,.07,0,.16,0,.2.08.05.11.04.23,0,.34-.01.03-.06.06-.09.06-.29,0-.58,0-.87.01-.08,0-.15,0-.23.01-.03,0-.1.08-.1.12,0,.31,0,.62,0,.93,0,.07.08.13.16.14.41,0,.81,0,1.22,0,.08,0,.16,0,.23.01.05.01.09.07.11.11.02.05.02.11.02.17,0,.12-.07.2-.16.2-.66,0-1.32,0-1.98,0-.13,0-.2-.08-.2-.23,0-.41,0-.81,0-1.22,0-.16,0-.31,0-.47,0,0,0,0,.01,0Z"/>
  <path class="cls-1" d="M57.39,101.73c0-.52,0-1.05,0-1.57,0-.08,0-.15.02-.23,0-.03.05-.07.08-.08.13,0,.27,0,.4,0,.03,0,.07.05.07.08.01.15.01.31.02.46,0,.29,0,.58,0,.87,0,.07.07.15.15.15.46,0,.93,0,1.39,0,.1,0,.18-.08.18-.19,0-.37,0-.74,0-1.1,0-.08.02-.15.03-.23,0-.02.02-.04.03-.05.15-.06.3-.04.45,0,.03,0,.05.06.06.09.01.06.01.12.01.17,0,1.07,0,2.13,0,3.2,0,.06,0,.12-.01.17,0,.03-.03.08-.06.09-.15.06-.3.07-.44,0-.03-.01-.06-.06-.06-.09,0-.31-.01-.62-.02-.93,0-.74.09-.65-.65-.65-.31,0-.62,0-.93,0-.08,0-.15.07-.15.15,0,.39,0,.77,0,1.16,0,.1,0,.19-.02.29,0,.03-.04.07-.07.08-.13.04-.27.04-.4,0-.03,0-.07-.05-.07-.08-.02-.08-.02-.15-.02-.23,0-.52,0-1.05,0-1.57Z"/>
  <path class="cls-1" d="M109.02,101.74c0-.58,0-1.16,0-1.75,0-.08.07-.15.14-.15.33,0,.66,0,.99,0,.33,0,.66,0,.99,0,.15,0,.2.05.2.22,0,.06,0,.12-.02.17,0,.03-.05.07-.07.07-.13.01-.27.02-.4.02-.37,0-.74,0-1.1.01-.05,0-.11.03-.12.1,0,.04-.01.08-.01.11,0,.1,0,.19,0,.29,0,.62-.05.6.6.6.19,0,.39,0,.58,0,.13,0,.18.08.18.24,0,.04,0,.08-.01.11,0,.07-.07.11-.12.11-.25.01-.5.01-.76.02-.12,0-.23,0-.35.02-.05,0-.11.04-.11.11,0,.31,0,.62,0,.93,0,.08.07.14.15.14.37,0,.74,0,1.1.01.12,0,.23,0,.35,0,.07,0,.11.05.12.1.01.09,0,.19,0,.29,0,.03-.04.06-.07.09-.01.01-.04.01-.05.01-.66,0-1.32,0-1.98,0-.02,0-.04,0-.06,0-.08,0-.15-.07-.15-.14,0-.31,0-.62,0-.93,0-.27,0-.54,0-.81h0Z"/>
  <path class="cls-1" d="M72.3,101.72c0-.54,0-1.08,0-1.63,0-.06,0-.12.03-.17,0-.03.05-.05.08-.07.01-.01.04-.01.06-.01.68,0,1.35,0,2.03,0,.08,0,.12.06.13.16,0,.06,0,.12,0,.17,0,.06-.04.11-.1.12-.11.02-.23.02-.35.02-.37,0-.74,0-1.1,0-.11,0-.18.07-.18.18,0,.25,0,.5,0,.75,0,.1.07.17.19.17.31,0,.62,0,.93,0,.19,0,.26.1.23.31-.02.11-.08.17-.2.17-.27,0-.54,0-.81,0-.08,0-.16,0-.23.02-.03,0-.07.04-.08.07-.02.05-.02.11-.02.17-.02.7,0,.89.07.91.28.08.57.03.86.04.19,0,.39,0,.58,0,.25,0,.28.14.21.41,0,.03-.05.05-.08.07-.03.01-.07.02-.11.02-.62,0-1.24,0-1.86,0-.04,0-.08,0-.12-.01-.06,0-.14-.09-.14-.16,0-.58,0-1.16,0-1.74h0Z"/>
  <path class="cls-1" d="M98.61,103.7c-.27.02-.53-.04-.8-.12-.23-.07-.29-.17-.25-.44,0-.06.06-.11.11-.1.09.03.19.05.28.08.24.07.49.11.75.1.14,0,.27-.05.39-.1.15-.07.24-.2.26-.36,0-.06.01-.12.01-.17,0-.22-.1-.37-.29-.46-.16-.07-.33-.12-.49-.18-.16-.06-.33-.12-.48-.2-.32-.16-.48-.43-.51-.79,0-.08,0-.16,0-.23.02-.4.28-.74.67-.86.28-.09.57-.12.86-.07.13.02.27.05.4.09.29.09.29.18.27.43,0,.05-.07.11-.12.1-.04,0-.07-.02-.11-.02-.19-.04-.38-.07-.57-.11-.18-.03-.35,0-.51.06-.16.06-.26.17-.28.34-.01.08,0,.15,0,.23.01.15.09.26.21.33.1.06.21.1.32.14.15.05.3.08.44.14.14.06.28.13.41.21.22.14.35.35.39.62.02.17.02.35,0,.52-.05.33-.24.57-.54.71-.25.12-.52.16-.8.14Z"/>
  <path class="cls-1" d="M82.83,101.27c0,.31,0,.62,0,.93,0,.17,0,.35-.03.52-.07.44-.3.75-.74.89-.4.13-.8.13-1.2.01-.53-.15-.79-.52-.86-1.05,0-.06-.01-.12-.01-.17,0-.79,0-1.59,0-2.38,0-.12.06-.18.17-.18.08,0,.16,0,.23,0,.02,0,.04,0,.06,0,.04,0,.12.07.12.11,0,.14,0,.27,0,.41,0,.64,0,1.28,0,1.92,0,.19.02.38.1.57.1.21.26.34.49.37.19.02.39.02.58,0,.23-.03.38-.17.47-.39.07-.18.09-.37.09-.57,0-.6,0-1.2,0-1.8,0-.14,0-.27,0-.41,0-.18.05-.21.26-.21.02,0,.04,0,.06,0,.13,0,.2.06.2.16,0,.1,0,.19,0,.29,0,.33,0,.66,0,.99Z"/>
  <path class="cls-1" d="M85.99,103.7c-.25.01-.52-.04-.78-.13-.23-.07-.3-.18-.26-.44,0-.06.07-.11.12-.1.15.04.3.08.45.12.19.05.38.06.58.06.14,0,.27-.04.39-.1.15-.07.24-.2.26-.36,0-.06,0-.12.01-.17,0-.22-.1-.37-.29-.46-.16-.07-.33-.12-.49-.18-.18-.07-.37-.13-.53-.22-.29-.16-.43-.42-.46-.76-.05-.65.3-1.05.89-1.16.39-.07.77-.02,1.14.11.15.05.22.27.14.44-.01.03-.07.05-.1.04-.23-.04-.45-.09-.68-.13-.18-.03-.35,0-.51.06-.16.06-.26.17-.28.34,0,.08,0,.15,0,.23,0,.15.09.26.21.33.1.06.21.1.32.14.15.05.3.08.44.14.16.07.32.14.46.24.2.14.32.34.34.58.01.15.02.31,0,.46-.04.38-.25.64-.6.79-.24.1-.49.13-.76.12Z"/>
  <path class="cls-1" d="M70.3,103.72c-.3,0-.58-.07-.86-.17-.15-.05-.2-.13-.2-.31,0-.04,0-.08.01-.12,0-.06.07-.1.12-.08.19.05.37.11.56.15.25.04.5.06.75-.03.23-.08.35-.24.37-.47.03-.29-.08-.49-.35-.6-.14-.06-.29-.1-.44-.15-.16-.06-.33-.12-.48-.2-.4-.2-.57-.62-.49-1.09.06-.42.31-.69.73-.81.41-.12.81-.08,1.2.04.25.07.28.14.25.44,0,.05-.08.1-.13.09-.04,0-.07-.02-.11-.03-.19-.04-.38-.07-.57-.1-.16-.02-.31,0-.46.05-.18.05-.3.18-.33.37-.04.2,0,.39.18.52.09.07.2.11.31.15.15.05.3.09.44.14.07.02.14.06.21.09.5.2.71.61.64,1.17-.06.48-.33.78-.79.89-.19.05-.38.05-.57.08Z"/>
  <path class="cls-1" d="M123.08,101.64c.11.07.22.14.33.22.18.14.27.32.29.55.01.19.02.39-.06.57-.12.29-.33.47-.61.59-.35.14-.72.15-1.09.09-.13-.02-.26-.06-.39-.11-.21-.07-.26-.16-.19-.4.03-.1.07-.12.17-.1.15.04.3.09.45.13.27.06.54.04.8-.08.22-.11.35-.34.33-.62-.02-.23-.19-.45-.42-.5-.21-.04-.42-.04-.63-.07-.03,0-.07-.03-.09-.06-.05-.07-.06-.28-.01-.33.02-.03.06-.05.1-.05.1-.01.2,0,.29-.02.13-.03.26-.07.38-.12.2-.1.31-.36.26-.6-.05-.23-.22-.37-.44-.4-.23-.03-.46-.03-.69.06-.09.03-.18.05-.28.07-.02,0-.07-.04-.08-.06-.02-.07-.04-.15-.03-.23,0-.05.04-.12.09-.14.41-.21.86-.24,1.3-.16.23.04.44.16.58.36.23.32.22.83-.06,1.13-.09.1-.24.14-.28.29Z"/>
  <path class="cls-1" d="M56.32,100.32c-.3-.05-.54-.08-.8-.04-.43.08-.7.34-.8.74-.12.48-.11.97.02,1.44.12.44.43.68.88.73.21.03.43.02.63-.04.13-.04.26-.07.39-.11.05-.01.12.03.13.08,0,.06.01.12.01.17,0,.11-.06.19-.15.22-.14.05-.29.11-.44.14-.35.05-.69.06-1.04-.04-.53-.15-.86-.5-1.02-1.02-.17-.57-.18-1.15,0-1.72.17-.56.55-.92,1.12-1.06.41-.1.81-.08,1.21.03.24.07.32.17.24.48,0,.02-.06.05-.09.05-.04,0-.07-.01-.11-.02-.07-.02-.15-.04-.18-.05Z"/>
  <path class="cls-1" d="M76.63,101.71c-.02-.29.03-.56.11-.82.17-.56.54-.92,1.12-1.07.43-.11.85-.08,1.26.04.21.07.27.18.21.46,0,.03-.05.05-.09.06-.03,0-.07,0-.11-.02-.17-.03-.34-.07-.51-.1-.15-.03-.31-.02-.46.01-.44.08-.75.36-.83.78-.09.44-.08.89.01,1.33.1.46.43.74.89.8.21.03.43.02.63-.04.15-.04.3-.08.45-.12.02,0,.07.04.07.07.01.08.02.16,0,.23,0,.05-.04.12-.09.14-.12.06-.25.11-.38.14-.34.09-.69.1-1.04.03-.63-.13-1.02-.53-1.17-1.15-.06-.26-.11-.53-.09-.79Z"/>
  <path class="cls-1" d="M106.29,101.7c.01.17.02.31.03.44,0,.06,0,.12.02.17.12.58.46.84.99.89.17.01.35-.01.52-.04.15-.02.3-.08.45-.12.04-.01.11.05.11.1,0,.06,0,.12,0,.17,0,.09-.04.15-.12.18-.12.05-.25.1-.38.13-.36.08-.73.09-1.09,0-.56-.14-.91-.51-1.06-1.05-.16-.55-.17-1.11-.01-1.66.17-.59.55-.96,1.16-1.1.43-.1.85-.07,1.26.06.18.06.27.24.16.47-.01.02-.07.04-.1.04-.19-.03-.38-.08-.57-.12-.15-.03-.31-.02-.46,0-.49.08-.8.39-.87.88-.03.19-.03.39-.04.54Z"/>
  <path class="cls-1" d="M119.67,99.89c.35,0,.7,0,1.05,0,.09,0,.17.1.16.21,0,.04,0,.08,0,.12-.01.06-.03.11-.06.16-.43,1.04-.86,2.07-1.29,3.11-.04.1-.11.16-.22.16-.1,0-.19,0-.29,0-.02,0-.04,0-.06,0-.04,0-.1-.1-.09-.13.03-.09.07-.18.11-.27.34-.8.69-1.6,1.03-2.4.05-.11.09-.22.13-.32.01-.03-.05-.13-.08-.13-.1,0-.19-.02-.29-.03-.37,0-.74,0-1.11,0-.08,0-.17,0-.2-.07-.05-.11-.05-.23.01-.33.02-.03.06-.06.09-.06.37,0,.74,0,1.1,0h0Z"/>
  <path class="cls-1" d="M61.19,101.67c0-.56,0-1.12,0-1.69,0-.08.06-.15.14-.15.12,0,.23,0,.35.02.03,0,.07.04.08.07.02.03.01.08.01.11,0,1.12,0,2.25,0,3.37,0,.04,0,.08-.02.11-.02.03-.05.06-.08.08-.13.05-.26.05-.4,0-.03-.01-.07-.05-.08-.08-.02-.07-.02-.15-.02-.23,0-.54,0-1.09,0-1.63h0Z"/>
  <path class="cls-1" d="M101.22,101.75c0,.58,0,1.16,0,1.75,0,.05-.07.12-.11.12-.02,0-.04.01-.06.01-.1,0-.19,0-.29-.01-.06,0-.1-.05-.12-.11-.01-.04-.01-.08-.01-.12,0-1.13,0-2.25,0-3.38,0-.05,0-.12.06-.15.15-.06.3-.05.45-.01.03,0,.06.06.06.09,0,.25,0,.5,0,.76,0,.35,0,.7,0,1.05h0Z"/>
  <path class="cls-1" d="M114.6,101.77c0,.52,0,1.05,0,1.57,0,.08,0,.16-.02.23,0,.03-.05.07-.08.08-.11.01-.23,0-.35.01-.07,0-.11-.05-.12-.1-.02-.11-.02-.23-.02-.35,0-.77,0-1.55,0-2.32,0-.1,0-.19-.02-.29,0-.03-.05-.07-.08-.07-.13,0-.27.03-.4.04-.09,0-.17-.04-.17-.11,0-.08.01-.15.07-.21.01-.01.03-.02.05-.03.25-.11.49-.23.74-.33.08-.03.19-.02.28-.02.03,0,.07.03.08.06.02.07.03.15.03.23,0,.54,0,1.08,0,1.63Z"/>
  <path class="cls-1" d="M83.72,101.74c0-.56,0-1.12,0-1.69,0-.18.06-.23.25-.23.08,0,.16,0,.23.02.03,0,.07.04.08.07.02.05.03.11.03.17,0,1.1,0,2.21,0,3.31,0,.04,0,.09-.02.11-.03.04-.08.1-.12.1-.11.01-.23,0-.35,0-.03,0-.08-.04-.08-.07-.02-.07-.02-.15-.02-.23,0-.52,0-1.05,0-1.57h0Z"/>
  <path class="cls-1" d="M88.03,101.66c0-.5,0-1.01,0-1.51,0-.08,0-.15.02-.23,0-.03.05-.07.08-.07.13,0,.27,0,.4,0,.03,0,.06.05.07.08.01.03.01.08.01.11,0,1.12,0,2.25,0,3.37,0,.04,0,.08-.02.11-.02.03-.05.07-.08.07-.11.01-.23.02-.35,0-.04,0-.11-.06-.12-.1-.02-.07-.02-.15-.02-.23,0-.54,0-1.08,0-1.63Z"/>
  <path class="cls-1" d="M147.31,74.97c.28.29.43.65.58,1,.02.05-.03.11-.1.11-.08,0-.15,0-.23,0-.2.02-.32-.07-.39-.26-.06-.16-.15-.31-.24-.46-.07-.12-.19-.18-.34-.19-.08,0-.17.04-.17.11,0,.15,0,.31-.01.46,0,.08,0,.16-.02.23,0,.03-.05.08-.07.08-.13.01-.27.02-.4,0-.04,0-.08-.07-.11-.11-.01-.01,0-.04,0-.06,0-.68,0-1.35,0-2.03,0-.02,0-.04,0-.06,0-.07.08-.16.14-.16.33,0,.66,0,.99,0,.08,0,.15.03.23.04.46.08.65.6.39,1-.06.09-.15.17-.23.25ZM146.41,74.41c0,.07,0,.15.02.22.01.06.06.09.12.1.12.02.23,0,.33-.04.08-.03.12-.09.13-.17.04-.23-.05-.36-.29-.39-.06,0-.11,0-.17,0-.07,0-.1.05-.12.1-.01.05-.02.11-.02.17Z"/>
  <path class="cls-1" d="M107.56,66.39c0-.35,0-.7,0-1.05,0-.07.08-.14.15-.14.31,0,.62,0,.93,0,.06,0,.12.01.17.02.25.03.45.12.55.37.11.28.07.53-.15.75-.01.01-.03.03-.04.04-.08.09-.09.12-.03.19.23.25.34.56.48.86.01.03,0,.07,0,.11,0,.01-.02.03-.03.04-.15.06-.31.04-.46.02-.05,0-.1-.04-.13-.1-.11-.21-.21-.42-.33-.61-.09-.15-.24-.18-.41-.15-.03,0-.07.05-.08.07-.01.19-.01.39-.02.58,0,.17-.06.23-.25.23-.1,0-.19,0-.29-.03-.03,0-.07-.05-.07-.08-.01-.21-.01-.43-.02-.64,0-.16,0-.31,0-.47,0,0,0,0,.01,0ZM108.18,65.92c0,.07,0,.15.02.22,0,.06.05.1.11.11.11.02.23.01.33-.04.07-.04.12-.09.13-.17,0-.06,0-.11,0-.17,0-.11-.07-.18-.17-.19-.09-.02-.19-.02-.28-.03-.06,0-.11.04-.12.09-.02.05-.02.11-.02.17Z"/>
</svg>