<?xml version="1.0" encoding="UTF-8"?>
<svg id="Capa_11" data-name="Capa 11" xmlns="http://www.w3.org/2000/svg" viewBox="0 0 177.4 125.4">
  <defs>
    <style>
      .cls-1 {
        fill-rule: evenodd;
      }

      .cls-1, .cls-2 {
        fill: #fff;
        stroke-width: 0px;
      }
    </style>
  </defs>
  <path class="cls-2" d="M55.84,95.13c-.03.06-.09.1-.16.12-.07.02-.14.02-.2-.02-.07-.05-.11-.11-.14-.18-.02-.07-.01-.14.03-.2.24-.43.42-.81.55-1.14.13-.33.2-.6.22-.83.02-.23,0-.41-.07-.56-.07-.14-.17-.25-.29-.33-.19-.09-.44-.15-.74-.17-.37.01-.79.1-1.26.26-.47.16-.94.37-1.38.63-.45.26-.85.55-1.2.88s-.59.67-.72,1.01c-.13.32-.11.64.06.94.17.31.56.58,1.18.81.46.17.82.36,1.1.57.27.21.48.44.61.67.13.23.2.47.2.71s-.05.48-.14.72c-.1.27-.28.55-.53.84-.25.29-.54.54-.86.77-.32.23-.66.42-1.01.56s-.69.21-.99.21c-.24,0-.44-.06-.6-.19-.11-.09-.19-.22-.21-.39-.03-.17,0-.39.08-.64.08-.26.23-.57.44-.93.21-.36.5-.77.87-1.23l.07-.09c.06-.06.12-.09.2-.1.07-.01.14.01.2.07.06.05.09.11.1.18.01.07-.01.14-.07.2l-.12.15c-.58.72-.95,1.27-1.1,1.64-.15.37-.16.6-.03.69.05.05.11.07.21.07.22-.01.45-.08.71-.21.26-.13.5-.28.74-.47.23-.19.44-.39.63-.62.18-.22.31-.43.39-.63.14-.34.11-.7-.09-1.07-.2-.37-.67-.7-1.42-.99-.77-.3-1.26-.66-1.48-1.08-.22-.42-.23-.86-.05-1.32.09-.24.23-.48.43-.71.19-.23.42-.46.69-.68.26-.22.55-.42.86-.62.31-.19.63-.37.96-.51.45-.21.89-.37,1.34-.49.45-.12.86-.17,1.25-.16.42,0,.77.07,1.03.22.19.11.35.27.45.45.11.19.16.43.15.72,0,.29-.08.64-.21,1.04-.14.4-.35.87-.65,1.41"/>
  <path class="cls-2" d="M56.23,95.56c.11-.11.3-.17.55-.17.16,0,.29.04.39.13.1.09.07.23-.09.42-.09.09-.21.27-.36.53-.15.26-.27.54-.38.82-.07.21-.11.38-.14.52-.02.14-.01.24.03.29.04.05.11.05.21,0s.25-.19.43-.41c.17-.21.33-.44.48-.7.15-.26.27-.54.36-.84.02-.06.09-.11.2-.15.11-.04.23-.06.35-.06s.24.03.33.08c.1.05.13.13.11.25l-.02.05v.02c-.08.37-.06.62.07.76s.3.21.52.21c.25,0,.52-.06.8-.19.28-.13.5-.27.66-.43.06-.06.12-.08.2-.08.07,0,.14.04.2.1.06.06.08.12.08.19,0,.07-.04.13-.09.19-.21.21-.51.39-.9.56-.39.17-.79.25-1.18.25-.26,0-.5-.05-.71-.14-.21-.09-.38-.25-.51-.46-.1.16-.22.33-.35.52-.13.18-.27.35-.43.51-.15.15-.32.28-.51.39-.18.1-.38.15-.58.15-.29,0-.49-.14-.63-.42-.13-.28-.1-.71.09-1.28.1-.33.24-.65.4-.95.17-.3.3-.51.4-.63"/>
  <path class="cls-2" d="M61.12,96.12c.1-.14.26-.21.48-.21.08,0,.15.01.22.03.07.02.12.06.16.1.04.05.06.1.06.16s-.03.14-.09.23c-.33.47-.65.95-.97,1.45-.31.5-.57,1.02-.76,1.57.1-.09.22-.2.34-.33.13-.13.26-.28.41-.44.19-.2.4-.42.63-.65.22-.23.45-.45.69-.66.23-.21.47-.41.7-.6.23-.19.45-.35.67-.47l.03-.02c.19-.1.37-.17.52-.21.26-.06.46-.01.58.14.13.15.22.35.27.62.02.09.04.19.05.29.01.1.02.21.03.31.02.15.04.29.06.43.02.14.04.26.08.36.08.26.23.39.45.39.16,0,.36-.08.61-.25.25-.17.49-.36.75-.57.25-.22.49-.43.7-.65.22-.22.38-.38.48-.48.06-.06.12-.09.2-.09s.14.03.2.09c.06.06.09.12.09.2s-.03.14-.09.2c-.17.18-.39.4-.66.65-.27.25-.56.49-.86.72-.3.23-.61.43-.93.59-.32.17-.61.25-.88.25-.16,0-.31-.04-.45-.12-.14-.08-.27-.22-.37-.41-.08-.16-.14-.33-.18-.51-.04-.18-.08-.36-.11-.56-.01-.08-.02-.17-.03-.27-.01-.1-.03-.19-.05-.27-.02-.09-.05-.16-.09-.21-.03-.06-.09-.09-.15-.09-.1,0-.27.1-.52.3-.24.2-.49.43-.76.69-.27.26-.52.51-.76.75-.24.24-.4.41-.49.5-.16.16-.31.31-.45.45-.14.14-.26.27-.38.37v.02c-.14.14-.29.25-.45.33-.16.08-.31.11-.45.09-.08,0-.17-.02-.26-.07-.09-.05-.15-.11-.17-.19-.08-.16-.08-.37,0-.63.07-.26.19-.55.35-.87.21-.4.45-.83.75-1.28.29-.45.56-.84.8-1.18"/>
  <path class="cls-2" d="M69.38,96.69c.22.23.42.45.62.68.19.22.35.49.48.8.02-.02.04-.04.06-.04.02,0,.04-.01.06-.03.8-.46,1.41-.93,1.82-1.42.05-.06.11-.09.18-.09.07,0,.14.01.2.06.06.06.09.12.1.2.01.07-.01.14-.07.2-.46.55-1.12,1.06-1.97,1.54-.03.02-.07.05-.11.07-.04.02-.08.05-.13.07.02.21,0,.43-.06.66-.06.24-.18.48-.35.75-.24.37-.54.65-.89.84-.35.19-.75.29-1.18.29-.39,0-.73-.08-1.02-.24-.29-.16-.47-.35-.55-.58-.07-.22,0-.46.21-.7.21-.25.63-.45,1.24-.61.59-.16,1.11-.34,1.54-.53-.06-.29-.17-.54-.34-.75-.17-.22-.34-.41-.5-.57-.11-.13-.22-.25-.31-.38-.09-.13-.15-.26-.18-.39-.03-.13-.01-.27.04-.4.06-.14.17-.27.34-.39.09-.07.21-.13.35-.18.14-.05.29-.08.44-.08.22,0,.38.07.5.22.08.11.08.25,0,.4-.07.15-.25.36-.52.61M68.78,100.34c.19-.13.36-.3.5-.52.15-.21.24-.42.27-.63-.45.18-.91.33-1.41.45-.4.1-.68.21-.83.33-.15.12-.23.23-.21.33.01.1.09.18.23.24.14.06.31.09.51.09.16,0,.32-.02.48-.07.16-.05.31-.12.46-.22"/>
  <path class="cls-2" d="M76.96,92.83c-.08,0-.11-.04-.09-.12.02-.08.07-.17.15-.27.07-.1.17-.19.27-.27.11-.08.2-.12.28-.12h1.56c.37-.54.69-1.01.96-1.41.27-.4.47-.69.58-.86.06-.09.11-.17.15-.24.04-.07.08-.13.11-.17.02-.02.08-.04.18-.06.1-.02.2-.03.32-.03.16,0,.3.03.41.09.11.06.11.17,0,.33-.23.31-.46.66-.7,1.06-.23.39-.48.82-.75,1.28l3.91-.02c.09,0,.15.02.18.06.03.04.03.09.02.14-.02.05-.05.1-.1.14-.05.04-.12.06-.21.06l-4.12.24c-.43.82-.87,1.7-1.32,2.63-.45.93-.87,1.86-1.28,2.77-.41.91-.78,1.8-1.13,2.64-.35.85-.64,1.59-.88,2.23-.06.16-.07.28-.03.36.04.08.06.14.06.19s-.04.07-.12.07c-.12,0-.26-.05-.43-.15-.17-.1-.26-.25-.27-.45-.01-.1.04-.33.16-.67.12-.34.29-.77.5-1.29.21-.52.46-1.09.74-1.72.28-.63.58-1.3.89-1.99.31-.69.64-1.39.98-2.08.34-.7.66-1.37.97-2.01-.47.65-.97,1.32-1.51,2.02-.54.69-1.08,1.32-1.61,1.89-.54.57-1.05,1.03-1.55,1.39-.5.36-.94.52-1.33.49-.3-.02-.52-.11-.66-.27-.14-.16-.23-.35-.26-.57-.03-.22,0-.46.07-.7.07-.25.18-.47.32-.68.21-.33.48-.63.82-.88.34-.26.71-.39,1.12-.39.24,0,.44.05.59.16.15.11.25.24.28.39.03.15,0,.31-.11.48-.11.17-.31.31-.61.44-.16.06-.35.11-.56.15-.21.05-.45.08-.73.1-.03.07-.08.17-.13.31-.05.14-.08.27-.09.4-.01.13,0,.25.04.35.04.1.13.17.27.19.16.02.36-.04.61-.2.25-.15.52-.37.81-.65.29-.28.6-.61.93-.99.33-.38.67-.78,1.02-1.22.35-.43.69-.88,1.03-1.33.34-.45.66-.9.97-1.33l-1.68.1ZM73.62,96.6c.29-.06.49-.11.62-.17.26-.1.4-.19.42-.27.02-.07-.04-.11-.16-.11-.16,0-.32.06-.49.18-.17.12-.29.24-.39.37"/>
  <path class="cls-2" d="M91.79,92.83c-.06.35-.19.72-.39,1.1-.21.38-.5.7-.88.98-.06.05-.12.06-.2.05-.07-.01-.13-.05-.18-.1-.05-.06-.06-.12-.05-.2.01-.07.05-.14.1-.2.32-.23.56-.5.73-.81.17-.31.28-.62.33-.92.06-.37.05-.63-.03-.78-.08-.15-.21-.23-.38-.23s-.37.06-.6.18c-.23.12-.47.28-.72.47-.41.32-.83.75-1.25,1.29-.42.54-.81,1.11-1.16,1.73-.35.62-.64,1.25-.88,1.9-.23.65-.38,1.24-.42,1.79-.06.59,0,1.01.15,1.24.16.23.37.34.64.34s.54-.07.86-.22c.32-.15.66-.34,1.01-.58s.71-.51,1.06-.8c.35-.29.69-.59,1.01-.88.32-.3.61-.58.87-.84.26-.26.47-.48.63-.65.06-.06.12-.09.19-.09s.13.02.19.07c.06.06.09.12.09.2,0,.07-.02.14-.08.2-.32.35-.72.77-1.21,1.25-.49.48-1.01.94-1.57,1.37-.56.43-1.13.8-1.72,1.11-.58.3-1.13.45-1.65.45-.23,0-.44-.04-.64-.12-.19-.08-.36-.21-.5-.39-.14-.18-.24-.41-.31-.69-.07-.28-.09-.62-.05-1.02.05-.58.18-1.21.41-1.89.23-.67.52-1.33.88-1.97.35-.64.75-1.24,1.17-1.81.43-.57.86-1.03,1.3-1.4.3-.23.63-.43.99-.61.36-.18.73-.27,1.12-.27s.71.14.93.41c.22.27.28.72.18,1.34"/>
  <path class="cls-2" d="M91.92,96.84c.16-.24.36-.45.59-.63.23-.18.49-.27.76-.27.21,0,.39.06.55.17.16.11.3.25.43.41l.02-.02c0-.11.05-.2.15-.26.1-.06.22-.09.34-.09s.24.03.34.1c.1.07.15.18.15.34-.07.35-.06.63.02.82.05.16.17.24.36.24.15,0,.32-.04.51-.13.19-.09.37-.19.56-.3.18-.11.35-.23.5-.33.15-.11.25-.19.29-.23.06-.05.12-.07.2-.06s.13.04.18.09c.06.06.08.12.07.2-.01.07-.05.14-.1.2-.34.29-.73.55-1.17.8-.44.25-.89.37-1.37.37-.32,0-.58-.1-.77-.29-.11-.13-.19-.28-.24-.46-.25.25-.55.49-.9.72-.35.23-.71.34-1.07.34-.21,0-.37-.05-.48-.15-.11-.1-.19-.24-.22-.39-.03-.16-.03-.34.03-.55.05-.21.15-.42.28-.63M94.02,96.98c-.07,0-.13-.04-.19-.12-.11-.18-.25-.27-.39-.27-.09,0-.18.03-.27.09-.09.06-.17.14-.24.24-.07.1-.14.2-.2.31-.06.11-.1.21-.14.3-.09.25-.06.38.1.38s.33-.07.52-.2c.19-.13.34-.24.45-.33.13-.13.24-.26.34-.39"/>
  <path class="cls-2" d="M97.88,96.12c.1-.14.26-.21.48-.21.08,0,.15.01.22.03.07.02.12.06.16.1.04.05.06.1.06.16s-.03.14-.09.23c-.33.47-.65.95-.97,1.45-.31.5-.57,1.02-.76,1.57.1-.09.22-.2.34-.33.13-.13.26-.28.41-.44.19-.2.4-.42.63-.65.22-.23.45-.45.69-.66.23-.21.47-.41.7-.6.23-.19.45-.35.67-.47l.03-.02c.19-.1.37-.17.52-.21.26-.06.46-.01.58.14.13.15.22.35.27.62.02.09.04.19.05.29.01.1.02.21.03.31.02.15.04.29.06.43.02.14.04.26.08.36.08.26.23.39.45.39.16,0,.36-.08.61-.25.25-.17.49-.36.75-.57.25-.22.49-.43.7-.65.22-.22.38-.38.48-.48.06-.06.12-.09.2-.09s.14.03.2.09c.06.06.09.12.09.2s-.03.14-.09.2c-.17.18-.39.4-.66.65-.27.25-.56.49-.86.72-.3.23-.61.43-.93.59-.32.17-.61.25-.88.25-.16,0-.31-.04-.45-.12-.14-.08-.27-.22-.37-.41-.08-.16-.14-.33-.18-.51-.04-.18-.08-.36-.11-.56-.01-.08-.02-.17-.03-.27-.01-.1-.03-.19-.05-.27-.02-.09-.05-.16-.09-.21-.03-.06-.09-.09-.15-.09-.1,0-.27.1-.52.3-.24.2-.49.43-.76.69-.27.26-.52.51-.76.75-.24.24-.4.41-.49.5-.16.16-.31.31-.45.45-.14.14-.26.27-.38.37v.02c-.14.14-.29.25-.45.33-.16.08-.31.11-.45.09-.08,0-.17-.02-.26-.07-.09-.05-.15-.11-.17-.19-.08-.16-.08-.37,0-.63.07-.26.19-.55.35-.87.21-.4.45-.83.75-1.28.29-.45.56-.84.8-1.18"/>
  <path class="cls-2" d="M105.63,92.57c-.18,0-.27-.09-.27-.27-.01-.07,0-.13.06-.19.05-.06.12-.09.2-.09l2.08-.05c.21-.33.39-.63.57-.9.17-.27.32-.5.45-.7.13-.2.27-.41.42-.63.03-.06.1-.1.19-.12.09-.02.19-.03.29-.03.16,0,.3.03.42.1.12.07.12.18,0,.34,0,.01-.12.19-.35.54-.24.35-.53.81-.88,1.38l1.53-.05c.18,0,.27.09.27.27.01.08,0,.15-.06.2-.05.05-.12.08-.2.08l-1.89.05c-.25.41-.52.85-.79,1.31-.27.46-.54.93-.81,1.41-.26.47-.51.95-.75,1.42-.23.47-.44.91-.61,1.32-.3.71-.44,1.21-.44,1.5,0,.29.12.44.35.44.18,0,.41-.06.69-.19.27-.13.59-.3.96-.52.31-.18.62-.39.93-.61.31-.22.59-.45.86-.67.26-.22.5-.44.71-.66.21-.22.38-.41.49-.58.03-.06.09-.09.16-.11.07-.02.15,0,.21.04.06.05.09.11.11.18.02.07,0,.14-.04.2-.21.31-.53.67-.97,1.07-.44.41-.93.79-1.46,1.15-.53.36-1.07.66-1.61.91-.54.25-1.02.37-1.42.37-.23,0-.42-.05-.58-.15-.16-.1-.27-.25-.33-.47-.06-.22-.06-.5,0-.85.06-.35.19-.77.39-1.26.17-.4.37-.82.59-1.26.22-.44.46-.89.7-1.34.25-.45.5-.9.76-1.35.26-.45.52-.87.76-1.29l-1.72.05Z"/>
  <path class="cls-2" d="M111.76,95.74c-.25.33-.51.71-.78,1.14-.27.43-.47.83-.61,1.21-.08.22-.11.37-.08.45.03.08.09.12.18.12.14,0,.35-.09.65-.26.3-.17.61-.37.93-.59.32-.22.62-.45.89-.67.27-.22.46-.38.55-.47.06-.05.12-.07.19-.06.07,0,.13.04.19.09.06.06.08.12.07.2-.01.07-.05.14-.1.2-.25.21-.52.41-.79.62-.23.17-.49.35-.78.55-.29.19-.58.37-.87.52-.19.09-.41.17-.64.25-.23.07-.44.11-.63.11-.26,0-.47-.09-.61-.27-.14-.18-.13-.51.04-.99.09-.26.18-.5.26-.7.08-.21.17-.4.27-.59.1-.19.21-.37.33-.56.12-.18.27-.38.44-.6.05-.07.11-.12.2-.15.09-.03.18-.04.28-.04.17,0,.32.04.44.13.12.09.12.21,0,.39M112.61,94.41l-.41.31c-.13.09-.27.14-.43.14-.09,0-.16-.03-.2-.1-.04-.07-.01-.18.08-.34l.14-.26c.1-.18.26-.27.48-.27.09,0,.18.02.26.05.08.03.14.08.19.13.05.05.06.11.05.17-.01.06-.06.12-.15.18"/>
  <path class="cls-2" d="M113.87,96.12c.1-.14.26-.21.48-.21.08,0,.15.01.22.03.07.02.12.06.16.1.04.05.06.1.06.16s-.03.14-.09.23c-.33.47-.65.95-.97,1.45-.31.5-.57,1.02-.76,1.57.1-.09.22-.2.34-.33.13-.13.26-.28.41-.44.19-.2.4-.42.63-.65.22-.23.45-.45.69-.66.23-.21.47-.41.7-.6.23-.19.45-.35.67-.47l.03-.02c.19-.1.37-.17.52-.21.26-.06.46-.01.58.14.13.15.22.35.27.62.02.09.04.19.05.29.01.1.02.21.03.31.02.15.04.29.06.43.02.14.04.26.08.36.08.26.23.39.45.39.16,0,.36-.08.61-.25.25-.17.49-.36.75-.57.25-.22.49-.43.7-.65.22-.22.38-.38.48-.48.06-.06.12-.09.2-.09s.14.03.2.09c.06.06.09.12.09.2s-.03.14-.09.2c-.17.18-.39.4-.66.65-.27.25-.55.49-.86.72-.3.23-.61.43-.93.59-.32.17-.61.25-.88.25-.16,0-.31-.04-.45-.12-.14-.08-.27-.22-.37-.41-.08-.16-.14-.33-.18-.51-.04-.18-.08-.36-.11-.56-.01-.08-.02-.17-.03-.27-.01-.1-.03-.19-.05-.27-.02-.09-.05-.16-.09-.21-.03-.06-.09-.09-.15-.09-.1,0-.27.1-.52.3-.24.2-.49.43-.76.69-.27.26-.52.51-.76.75-.24.24-.4.41-.49.5-.16.16-.31.31-.45.45-.14.14-.26.27-.38.37v.02c-.14.14-.29.25-.45.33-.16.08-.31.11-.45.09-.08,0-.17-.02-.26-.07-.09-.05-.15-.11-.17-.19-.08-.16-.08-.37,0-.63.07-.26.19-.55.35-.87.21-.4.45-.83.75-1.28.29-.45.56-.84.8-1.18"/>
  <path class="cls-2" d="M120.9,96.84c.16-.24.36-.45.59-.63.23-.18.49-.27.76-.27.21,0,.39.06.55.17.16.11.3.25.43.41l.02-.02c0-.11.05-.2.15-.26.1-.06.22-.09.34-.09s.24.03.34.1c.1.07.15.18.15.34-.07.35-.06.63.02.82.05.16.17.24.36.24.15,0,.32-.04.51-.13.19-.09.37-.19.56-.3.18-.11.35-.23.5-.33.15-.11.25-.19.29-.23.06-.05.12-.07.2-.06s.13.04.18.09c.06.06.08.12.07.2-.01.07-.05.14-.1.2-.34.29-.73.55-1.17.8-.44.25-.89.37-1.37.37-.32,0-.58-.1-.77-.29-.11-.13-.19-.28-.24-.46-.25.25-.55.49-.9.72-.35.23-.71.34-1.07.34-.21,0-.37-.05-.48-.15-.11-.1-.19-.24-.22-.39-.03-.16-.03-.34.03-.55.05-.21.15-.42.28-.63M122.99,96.98c-.07,0-.13-.04-.19-.12-.11-.18-.25-.27-.39-.27-.09,0-.18.03-.27.09-.09.06-.17.14-.24.24-.07.1-.14.2-.2.31-.06.11-.1.21-.14.3-.09.25-.06.38.1.38s.33-.07.52-.2c.19-.13.34-.24.45-.33.13-.13.24-.26.34-.39"/>
  <path class="cls-2" d="M62.03,49.69c-1.19-.77-2.65-.99-4.06-.97-1.41.02-2.81.26-4.23.32-.06,0-.11-.04-.13-.09.29-.22.81-.28,1.17-.42.4-.16.78-.34,1.16-.54.76-.4,1.48-.88,2.19-1.37.53-.37,1.05-.75,1.64-1.01.61-.27,1.28-.4,1.94-.42,1.37-.05,2.76.35,3.89,1.13,2.33,1.6,3.36,4.52,5.37,6.51.2.19.41.39.51.65.1.26.05.6-.19.74-.22.13-.5.03-.73-.09-1.24-.68-1.88-2.07-2.68-3.23-.55-.81-1.21-1.55-1.96-2.18-.42-.36-.94-.7-1.49-.6.65.43,1.3.86,1.84,1.41,1.55,1.61,2.03,4.14,3.88,5.39.3.21.65.4.81.72h1.53c.75-3.76,2.86-7.24,6.01-9.48,2.57-1.83,5.74-2.81,8.89-2.81,1.91,0,3.81.35,5.58,1.08,4.64,1.91,8.09,6.26,9.08,11.16l1.45.05c-.01-.2.03-.39.17-.57.5-.63,1.89-.4,2.53-.24.73.18,1.43.46,2.09.81h.85c-.85-.62-1.94-.99-2.82-1.6-.19-.13-.4-.39-.25-.58.06-.08.17-.1.27-.11.47-.05.95.1,1.37.33.88.47,1.55,1.23,2.24,1.96h1.22c-.46-.25-.83-.65-1.21-1.01-.48-.46-1.01-.86-1.52-1.27-.05-.04-.14-.07-.1-.16.98-.14,1.96.22,2.96.14.99-.08,1.97-.37,2.84-.86,1.6-.9,2.81-2.45,3.29-4.21.35-1.29.33-2.65.54-3.97.19-1.19.88-3.42,2.31-3.69.06-.01.12-.07.17-.11-.09-.26-.3-.32-.49-.39-1.46-.58-3.14-.66-4.6-.05-1.2.5-2.21,1.41-2.84,2.54-.45.79-.71,1.67-1.14,2.46-.43.8-1.09,1.54-1.97,1.74-1.12.26-2.19-.39-3.22-.74-.86-.29-1.87-.39-2.37-1.25-.38-.65-.3-1.59.28-2.07.58-.49,1.5-.47,2-1.05.4-.48.37-1.17.57-1.76.32-.91,1.17-1.39,2.08-1.54.18-.03.3-.11.41-.26-.05-.05-.08-.11-.12-.14-.23-.14-.46-.28-.71-.4-1.7-.81-3.81.01-5.21,1.08-.52.4-1.01.86-1.63,1.09-1.09.4-2.25-.14-3.31.41-.06.03-.13.04-.21.07,0-.05,0-.06,0-.07,1.12-1.33,2.45-2.48,3.22-4.07.61-1.26.89-2.72.59-4.09-.36-1.66-1.49-3.03-2.46-4.43-.58-.83-1.12-1.73-1.42-2.71-.19-.62-.54-2.22,0-2.74.03-.03.02-.13,0-.16-.04-.05-.13-.11-.18-.09-.26.08-.53.15-.75.29-.95.61-1.83,1.39-2.5,2.3-.62.85-1.05,1.88-1.05,2.93,0,1.97,1.43,3.84,1.02,5.77-.06.27-.15.54-.32.77-.15.21-.36.38-.57.55-1.38,1.1-2.85,2.05-4.33,3.01-.07.05-.16.08-.25.09-2.04.2-.36-2.78-.39-3.62-.03-.71-.35-1.38-.56-2.06-.29-.91-.18-1.6.22-2.44.06-.12.09-.25-.04-.38-1.93.65-3.39,2.17-3.64,4.26-.1.87,0,1.82-.48,2.54-.33.49-.86.77-1.28,1.16-.42.39-.77.87-1.13,1.31,0-.15,0-.22,0-.29.01-.16.02-.33.04-.49.12-1.22.27-2.42.07-3.64-.17-1.06-.59-2.09-1.3-2.89-1.02-1.13-2.53-1.68-4.01-2.04-1.48-.36-3.02-.58-4.39-1.24-1.27-.62-2.28-1.55-2.98-2.76-.05-.09-.12-.16-.19-.26-.25.21-.39.45-.48.72-.09.27-.17.55-.25.82-.8,2.46.52,5.87,2.48,7.43.9.72,2,1.15,2.89,1.87.96.77,1.44,1.78,1.25,2.99-.21,1.33-.48,2.65-.84,3.95-.06.2-.12.4-.25.56-.36.44-1.05.32-1.6.15-.14-.04-.29-.09-.4-.19-.14-.13-.19-.31-.24-.49-.26-.92-.52-1.9-1.2-2.58-1.09-1.11-2.99-1.14-3.64-2.71-.24-.58-.52.8-.56.97-.12.57-.13,1.17-.05,1.75.15,1.13.67,2.23,1.5,3.02.24.23.49.43.7.68,1.02,1.25.35,2.87.76,4.29.02.06,0,.13,0,.21-.36-.16-.64-.37-.83-.57-1.03-1.12-1.94-2.22-3.38-2.83-1.29-.55-2.75-.7-4.12-.35-1.19.3-2.27.94-3.32,1.6-1.04.66-2.07,1.35-3.23,1.79-1.38.52-2.8.52-4.19.06-.15-.05-.26,0-.37.1.04.08.08.16.12.24.8,1.25,1.5,2.27,2.86,2.99,1.18.62,2.54.9,3.86.73,1.01-.13,1.97-.48,2.96-.68.99-.2,2.08-.23,2.97.27.95.53,1.49,1.56,1.93,2.56.22.51.43,1.04.69,1.53h1.49c-1.58-1.93-2.33-4.59-4.42-5.94M94.92,42.28c-.14.51-.35,1-.6,1.46-.04.07-.1.15-.18.15-.13,0-.16-.18-.14-.31.06-.39.16-.82.35-1.17.04-.07.47-.67.56-.54,0,0,0,0,0,0,.07.12.04.27,0,.4M96.38,41.73c-.2.69-.41,1.38-.63,2.06-.08.24-.17.5-.37.65-.1-.07-.1-.22-.09-.35.08-.65.21-1.29.39-1.91.07-.25.13-.57.29-.78.03-.04.47-.43.49-.33.04.22-.02.44-.08.65M102.22,52.94s-.02-.02-.03-.03c-.35-.46,1.33-1.03,1.6-1.1.11-.03.26-.04.31.07.06.12-.07.24-.19.31-.38.23-.76.46-1.14.68-.09.06-.19.11-.29.13-.09.02-.2,0-.26-.06M106.07,52.75c-1,.45-2,.9-3,1.36-.08.04-.17.07-.25.04-.09-.04-.12-.16-.1-.25.26-1.04,2.28-1.41,3.13-1.56.22-.04.48-.07.64.09-.07.17-.25.26-.42.33M111.88,46.21c.32-1.51,1.28-3.27,2.35-4.37.76-.78,1.82-1.33,2.9-1.23.03,0,.05,0,.08.02.13.07.03.27-.09.36-.8.68-1.48,1.49-2.01,2.39-.39.65-.69,1.35-1.15,1.95-.45.6-1.08,1.13-1.83,1.23-.05,0-.11.01-.15,0,0,0-.01,0-.02,0-.11-.06-.1-.21-.07-.33M105.07,46.56c1.36.39,2.7.9,4.1,1.12,1.4.21,2.92.1,4.11-.68,2.11-1.38,2.68-4.47,4.9-5.68-.44.91-.74,1.88-.89,2.88-.2,1.3-.14,2.65-.5,3.91-.67,2.37-2.89,4.23-5.34,4.45-3.05.27-5.97-1.75-9.01-1.45-.28.03-.66,0-.69-.28-.02-.15.09-.28.21-.37.58-.47,1.41-.48,2.15-.38,1.28.16,2.52.57,3.8.81,1.27.24,2.63.32,3.83-.17-.01,0-.03-.02-.04-.03-.35-.25-.85-.12-1.28-.05-2.26.4-4.43-.93-6.69-1.32-.8-.14-1.63-.15-2.43-.05-.27.03-.58.07-.77-.12-.2-.19-.16-.54,0-.75.17-.21.44-.32.71-.4,1.48-.43,3.07-.09,4.55.36,1.48.45,2.95,1.02,4.49,1.07,1,.03,2-.16,2.91-.56.25-.11.55-.36.42-.61-1.19.61-2.55.87-3.88.73-1.61-.17-3.1-.88-4.63-1.41-1.53-.52-3.24-.84-4.73-.22-.24.1-.5.23-.76.17-.52-.13-.21-.63.03-.84.35-.3.8-.46,1.25-.55,1.39-.27,2.83,0,4.2.39M103.26,44.26c.05.26.17.5.25.75,0,.03.02.07,0,.09-.02.05-.09.05-.15.05-.65-.06-1.31-.11-1.96-.17,0,0,0-.02,0-.02.34-.91.9-1.85,1.89-2.12.05-.01.1-.02.13.01.03.03.02.08,0,.13-.13.42-.27.85-.19,1.28M98.38,40.83c.57-.25,1.21-.33,1.82-.33,1.03,0,2.09.14,3.08-.17,1.45-.46,2.51-1.85,3.99-2.13.03,0,.06,0,.08-.01-.69.42-1.24,1.09-1.51,1.85-.13.36-.2.75-.43,1.06-.49.66-1.45.69-2.21,1.03-.59.27-1.06.74-1.47,1.23-.42.49-.8,1.02-1.28,1.45-.48.43-1.09.76-1.74.76-.65,0-1.31-.41-1.48-1.03-.12-.47.06-.97.37-1.34.31-.37.74-.62,1.17-.83,1.14-.53,2.4-.8,3.65-.76,0-.23-.28-.35-.51-.39-1.33-.21-2.67.26-3.94.7-.16.06-.33.11-.48.04-.59-.26.69-1.03.89-1.13M95.48,24.47s.01-.02.02-.03c.21.26.15.65.12.98-.22,1.96.66,3.96.2,5.87-.02.08-.05.17-.11.23-.11.1-.31.06-.41-.05-.11-.11-.16-.26-.2-.41-.69-2.3-1.2-4.58.39-6.61M92.71,36.16c1.48-1.01,2.96-2.2,3.61-3.87.73-1.86.3-3.95.12-5.94-.07-.81-.08-1.68.37-2.35.23,1.37.75,2.69,1.52,3.84.6.9,1.34,1.7,1.84,2.66.66,1.27.84,2.78.49,4.17-.46,1.86-1.79,3.38-3.27,4.59-1.48,1.21-3.14,2.19-4.61,3.41-.26.22-.62.46-.92.29-.34-.19-.25-.71-.04-1.03.32-.51.81-.88,1.3-1.23,1.98-1.43,4.2-2.78,5.24-4.97.01-.02.02-.05.03-.07-.32.02-.53.34-.71.61-.55.84-1.27,1.57-2.09,2.15-.28.2-.58.37-.87.55-.5.3-1,.6-1.5.9-.98.59-1.97,1.19-2.73,2.05-.14.16-.28.33-.47.4-.2.07-.47,0-.51-.21-.02-.07,0-.15.01-.22.18-.86.72-1.61,1.37-2.21.65-.6,1.4-1.07,2.13-1.57,2.08-1.41,4.1-3.16,4.95-5.53.05-.15-.02-.41-.16-.32-.8,1.92-2.18,3.6-3.9,4.76-1.61,1.09-3.58,1.78-4.74,3.34-.42.56-.71,1.22-1.23,1.69-.05.05-.11.09-.17.1-.21.02-.26-.29-.2-.5.7-2.67,2.98-4.03,5.12-5.48M82.59,38.45c.36-.62.91-1.12,1.44-1.61.53-.49,1.06-1.01,1.37-1.66.71-1.46.25-3.85,1.82-4.84-.06.57-.02,1.15.1,1.71.14.66.4,1.3.41,1.97.01,1.03-.56,1.96-.87,2.94-.4,1.26-.36,2.61-.7,3.88-.15.57-.46,1.19-1.03,1.34-.41.1-.85-.09-1.13-.41-.27-.32-.39-.75-.41-1.17-.05-.96.39-1.89.94-2.68.54-.78,1.2-1.47,1.72-2.26,0-.01.02-.03.03-.04-.11-.16-.35-.03-.49.1-1.31,1.31-2.32,2.91-2.94,4.64-.06.17-.22.39-.38.29-.04-.03-.07-.08-.09-.12-.3-.66-.15-1.45.21-2.07M83.32,42.76c.04.06.08.12.09.19,0,.02,0,.05,0,.07-.01.05-.04.09-.09.1-.06.01-.11-.01-.16-.04-.68-.4-1.11-1.12-1.47-1.82-.07-.14-.13-.26-.1-.42.62.09,1.4,1.42,1.74,1.92M81.99,42.87c.15.22.23.47.29.73,0,0,0,0,0,0-.37-.07-.82-.39-.9-.78-.13-.62.4-.26.61.05M69.88,27.39c.31.07.75.54,1.04.71.67.39,1.38.71,2.13.94,1.11.35,2.26.5,3.39.79,1.12.29,2.24.74,3.06,1.56.85.86,1.29,2.07,1.45,3.27.15,1.21.04,2.43-.07,3.64-.16,1.76-.32,3.51-.48,5.27,0,.06-.01.11-.03.16-.12.27-.54.13-.74-.1-.4-.45-.58-1.07-.62-1.67-.04-.6.06-1.21.14-1.81.14-1.05.24-2.11.31-3.17.05-.81.05-1.71-.49-2.31.24,2.17.06,4.38-.54,6.47-.21.73-.47,1.46-.45,2.22,0,.62.2,1.26,0,1.84-.02.06-.05.13-.1.18-.02.02-.04.03-.06.04-.19.09-.44-.1-.57-.3-.53-.85-.64-1.9-.54-2.89.1-.99.39-1.96.6-2.94.37-1.76.47-3.61.07-5.36-.19-.81-.48-1.6-.95-2.28-.16.17-.07.44.01.66.86,2.1,1.06,4.46.56,6.67-.41,1.81-1.28,3.62-.9,5.43.09.44.25.86.26,1.31,0,.1,0,.21-.08.27-.13.11-.33-.01-.45-.14-.57-.65-.78-1.55-.82-2.41-.07-1.47.28-2.92.62-4.35.27-1.1.54-2.21.52-3.33-.02-1.13-.37-2.3-1.19-3.07-.62-.59-1.43-.91-2.16-1.34-1.27-.76-2.3-1.92-2.91-3.27-.13-.29-.44-.76.01-.66M74.41,35.2c-1.36-.91-2.74-1.83-3.83-3.04-.63-.7-1.16-1.5-1.5-2.39-.17-.45-.29-.92-.35-1.4-.03-.29.02-.54.11-.53.06,0,.13.09.21.32.41,1.11.99,2.19,1.87,2.98,1.14,1.03,2.72,1.53,3.68,2.72.26.33.47.71.51,1.13,0,.08,0,.18-.04.25-.13.21-.46.1-.67-.04M72.93,51.77c-.14.19-.4.23-.63.22-.39-.01-1.11-.16-1.29-.54.2-.18.49-.17.74-.14.38.05.76.14,1.13.27.03.01.07.03.08.06.02.04,0,.09-.03.13M72.96,50.74c-.1,0-.21.01-.32,0-.78-.06-1.55-.18-2.25-.54-.27-.13-.51-.29-.74-.6.39-.03.7.02,1.01.09.51.13,1.01.28,1.53.35.37.05.73.17,1.09.26.12.03.15.13.17.26-.15.12-.31.18-.49.19M67.67,41.1c-.36-.55-1.16-1.69-.93-2.37.44.06,1.11.61,1.56.81.51.23,1.05.46,1.42.89.74.86.62,2.15,1.03,3.21.56,1.44,2.01,2.28,3.18,3.3.36.31.72.7.74,1.17.03.68-.73,1.2-1.41,1.13-.68-.07-1.24-.57-1.65-1.12-.65-.89-1.01-1.96-1.32-3.02-.02,0-.03.01-.04.02-.27.13-.26.55-.2.86.17.84.35,1.68.52,2.53-.4-.13-.65-.52-.8-.91-.51-1.32-.26-2.83-.73-4.17-.3-.85-.86-1.57-1.36-2.32M60.64,50.18c-.03.07-.12.09-.19.11-.74.12-1.47.25-2.21.37-.82.14-1.65.27-2.48.3-.51.02-1.02,0-1.52-.1-.29-.05-1.38-.21-1.52-.5-.02-.04-.03-.08-.03-.11,0-.31.85-.19,1.06-.2.57,0,1.14-.04,1.7-.1,1.67-.17,3.39-.55,4.98-.01.11.04.25.13.2.24"/>
  <path class="cls-2" d="M67.65,54.4c-.75-.79-1.36-1.71-1.99-2.61-1.33-1.88-2.9-3.75-5.05-4.57.13.38.51.6.86.82,1.14.7,2.14,1.61,2.95,2.68,1.2,1.58,1.98,3.51,3.33,4.92h1.43c-.56-.33-1.08-.76-1.53-1.24"/>
  <path class="cls-2" d="M94.03,54.71c-.05-.1-.11-.2-.21-.24-.09-.05-.23-.01-.26.08,0,0,0,0,0,.01.13.35.17.44.27.8h.54c-.13-.32-.18-.36-.34-.66"/>
  <path class="cls-2" d="M99.15,53.86c-.19-.49-.43-1.38-.82-1.74-.62-.57-.09.62.02.86.26.6.48,1.22.65,1.85.07.27.11.35.17.62h.52c-.15-.61-.31-1.01-.54-1.59"/>
  <path class="cls-2" d="M79.56,50.96c.48-.48,1.01-.92,1.43-1.46-1.82-.04-3.35,2.25-4.1,3.67-.41.78-.73,1.61-.94,2.47h.99c.46-1.76,1.35-3.39,2.63-4.68"/>
  <path class="cls-2" d="M94.87,52.53c-.11-.14-.55-.56-.72-.26-.01.02-.02.05-.02.08.01.19.3.47.38.57.68.79,1.05,1.46,1.34,2.46h.65c-.4-1.12-.89-1.92-1.64-2.85"/>
  <path class="cls-2" d="M76.69,49.33c-.59-.28-2.29,3.23-2.49,3.71-.36.84-.64,1.71-.84,2.6h.83c.42-2.24,1.25-4.4,2.5-6.3"/>
  <path class="cls-2" d="M87.89,44.84c2.57.14,5.09.91,7.4,2.05.26.13.57.27.84.18.03,0,.06-.02.08-.04-2.81-1.81-6.12-2.92-9.47-2.88-1.83.02-3.65.4-5.33,1.13-.85.37-1.66.83-2.4,1.37-.18.13-1.89,1.48-1.5,1.63.09.03.18-.03.25-.08.85-.64,1.71-1.26,2.64-1.77,2.26-1.24,4.89-1.73,7.47-1.59"/>
  <path class="cls-2" d="M95.09,48.34c-1.9-1.42-4.2-2.27-6.56-2.51-1.19-.12-2.4-.09-3.58.11-.59.1-1.17.24-1.74.42-.2.06-.69.14-.83.3-.16.18-.16.36.17.27,4.48-1.15,9.46-.15,13.14,2.65.33.25.67.52,1.07.62,0,0,.02,0,.03,0-.37-.77-1.01-1.36-1.69-1.87"/>
  <path class="cls-2" d="M92.43,50.58c-1.88-1.3-4.23-1.91-6.51-1.67-1.84.19-3.59.95-5.1,2.01-.58.41-1.36,1.18-1.27,1.96.66-.09,1.31-1.16,1.88-1.54.7-.47,1.47-.85,2.27-1.13,1.55-.55,3.23-.72,4.85-.45,1.45.24,2.82.8,4.17,1.35,0-.01,0-.02.01-.03.05-.19-.13-.37-.3-.49"/>
  <path class="cls-2" d="M78.85,54.39c-.44-.19-.79.68-.97,1.25h.57c.11-.42.24-.84.4-1.25"/>
  <path class="cls-2" d="M89.77,47.67c-1.31-.33-2.67-.43-4.01-.28-.69.07-1.36.21-2.02.41-.16.05-.78.15-.7.41.06.19.45.14.59.1,2.13-.54,4.39-.44,6.49.19,2.1.63,4.03,1.78,5.64,3.27,0-.01,0-.02,0-.03,0-.19-.13-.36-.26-.51-1.49-1.73-3.52-3-5.74-3.56"/>
  <path class="cls-2" d="M79.75,48.46s-.02,0-.03,0c-.96-.05-1.69.85-2.3,1.48-.69.71-1.27,1.56-1.73,2.44-.53,1.02-.9,2.13-1.1,3.27h.62c.76-2.77,2.35-5.32,4.54-7.18"/>
  <path class="cls-2" d="M81.97,53.07c.21-.26.45-.53.49-.86,0,0,0-.01,0-.02-1.28.53-2.26,2.05-2.78,3.46h.85c.33-.93.81-1.81,1.43-2.57"/>
  <path class="cls-2" d="M100.84,54.35c-.28-.89-.68-1.73-1.08-2.57-.58-1.21-1.31-2.33-2.18-3.35-.08-.09-.16-.19-.25-.26-.1-.07-.2-.05-.26.07.29.46.56.89.83,1.32.12.19.23.39.34.58.12.19.25.38.35.57.19.36.37.72.54,1.09.17.38.42.72.5,1.14,0,.01,0,.03.01.04.23.55.46,1.11.68,1.67.09.22.14.46.2.69.03.1.02.07.04.17h.57c-.1-.44-.18-.73-.31-1.16"/>
  <path class="cls-2" d="M97.33,53.66c-.34-.54-.53-.19-.34.28.17.41.33.82.46,1.24.05.15,0,.04.04.19h.68c-.23-.69-.45-1.09-.84-1.71"/>
  <path class="cls-2" d="M90.83,51.39c-1.1-.51-2.32-.81-3.53-.8-.6,0-1.2.09-1.77.26-.25.07-.68.17-.87.34-.04.04-.3.5-.14.46,2.48-.75,5.27-.38,7.48.98.11.07.23.14.35.12.02,0,.04,0,.07-.02-.28-.65-.93-1.05-1.57-1.35"/>
  <path class="cls-1" d="M136.32,58.7c-.64-.35-3.22-1.31-12.9-2.06-10.6-1.39-20.54-2.04-31.3-2.04-4.34,0-8.2.1-11.61.2l-1.43.04c-14.98.39-27.79,1.55-39.16,3.54-.43.07-.73.47-.68.9.05.43.43.74.86.73.17,0,16.91-.84,33.7-.84,3.49,0,6.79.04,9.82.11,18.78.06,39.81.25,44.48.53,4.37.2,7.77.46,7.8.46.02,0,.04,0,.07,0h0c.46,0,.83-.37.83-.82,0-.34-.2-.62-.49-.75M128.15,58.99c-4.43-.27-24.52-.47-44.51-.53-19.71-.47-43.57.73-43.57.73,14.43-2.53,28.76-3.26,39.04-3.53,10.19-.27,24.43-.8,44.23,1.8,11.13.87,12.64,2,12.64,2,0,0-3.39-.27-7.83-.47"/>
  <path class="cls-1" d="M88.9,52.89c0,.64-.52,1.16-1.16,1.16s-1.16-.52-1.16-1.16.52-1.16,1.16-1.16,1.16.52,1.16,1.16"/>
  <path class="cls-2" d="M30.05,66.99c1.86-1.41,4.11-1.81,6.13-1.81,1.79,0,3.77.32,4.4.48.14-.36.41-1.7.48-2.09l.41-.11c-.34,2.5-.48,4.86-.5,6.85l-.41-.11c0-.32-.07-2.22-.14-2.61-.41-.68-2.34-1.7-5.13-1.7-4.36,0-7.08,3.18-7.08,6.67,0,4.24,2.95,8.3,8.64,8.3,1.52,0,3.56-.27,5.13-1.23l-.11.77c-.66.45-2.97,1.38-6.19,1.38-.5,0-2.97-.09-4.81-1-2.95-1.45-4.38-4.04-4.38-6.87,0-3.2,1.61-5.44,3.56-6.92"/>
  <path class="cls-2" d="M46.57,72.01c0-.75-.02-5.1-.11-5.88-.45-.09-1.95-.27-2.38-.32l-.11-.36c.43.05,2.52.09,3.45.09,1.16,0,3.11-.05,3.49-.09l-.11.36c-.45.05-1.56.23-2.38.32-.09.23-.11,3.2-.11,5.99v1.41c0,2.95.02,6.85.11,7.31.57.14,1.93.27,2.38.32l.11.36c-.5-.05-2.86-.09-3.4-.09-.77,0-2.86.05-3.54.09l.09-.36c.39-.02,1.93-.23,2.4-.32.09-.95.11-5.26.11-7.49v-1.34Z"/>
  <path class="cls-2" d="M56.1,72.6c0-2.04-.07-5.76-.16-6.47-.43-.09-1.81-.25-2.36-.32l-.09-.36c.54.02,1.29.05,1.97.07.68,0,1.27.02,1.5.02.73,0,6.06,0,6.67-.16.07-.27.14-.66.18-1.07l.41-.09c-.11.48-.41,3.99-.45,4.7l-.39-.16c0-.16.02-1.29,0-1.75-.41-.66-3.9-.95-5.4-.95-.07.3-.16,4.81-.16,6.22v.5c2.25,0,4.45-.2,4.99-.41.09-.34.16-.66.23-.98l.36-.05c-.16.41-.48,3.45-.59,4.18l-.32-.18c.02-.48.05-1.11.05-1.57-.7-.36-2.47-.52-4.72-.52v.48c0,1.43.09,6.49.16,7.15,2.56,0,4.7-.18,5.74-.77.25-.79.36-1.61.5-2.11l.41-.14c-.16.66-.66,4.11-.75,5.24l-.36-.09c0-.61,0-1.02-.02-1.38-.66-.11-5.69-.2-6.56-.2-.77,0-2.56.05-3.45.09l.11-.36c.36-.02,1.72-.16,2.34-.32.09-.3.16-4.7.16-7.19v-1.04Z"/>
  <path class="cls-2" d="M70.44,71.78c0-1.29-.02-4.92-.11-5.65-.5-.09-1.84-.27-2.43-.32l-.07-.36c.57.05,2.54.09,3.43.09,1.16,0,3.36-.05,3.74-.09l-.11.36c-.48.05-1.7.23-2.61.32-.09.73-.11,4.11-.11,5.92v.82c0,2.97.02,7.49.11,7.99,3.58,0,4.92-.59,5.42-1.04.34-.88.64-2.06.82-2.7l.43-.09c-.45,1.86-.93,4.26-1.2,7.31l-.41-.11c0-.32.14-2.04.11-2.65-.5-.05-5.4-.14-6.13-.14-.77,0-2.86.05-3.49.09l.09-.36c.34-.02,1.93-.2,2.4-.32.09-1,.11-5.49.11-7.74v-1.32Z"/>
  <path class="cls-2" d="M83.3,72.01c0-.75-.02-5.1-.11-5.88-.45-.09-1.95-.27-2.38-.32l-.11-.36c.43.05,2.52.09,3.45.09,1.16,0,3.11-.05,3.49-.09l-.11.36c-.45.05-1.56.23-2.38.32-.09.23-.11,3.2-.11,5.99v1.41c0,2.95.02,6.85.11,7.31.57.14,1.93.27,2.38.32l.11.36c-.5-.05-2.86-.09-3.4-.09-.77,0-2.86.05-3.54.09l.09-.36c.39-.02,1.93-.23,2.4-.32.09-.95.11-5.26.11-7.49v-1.34Z"/>
  <path class="cls-2" d="M90.29,65.54c1.16-.05,3.29-.07,4.56-.16.5.77,4.99,6.53,5.38,7.01.68.82,5.19,6.47,5.49,6.87h.05c0-1.48-.02-11.84-.29-13.14-.45-.09-1.88-.27-2.52-.32l-.11-.36c.43.05,2.88.09,3.38.09s2.27-.05,2.75-.09l-.09.36c-.3.05-1.34.23-1.86.32-.18,1-.32,4.2-.34,4.92-.02,1.07-.2,10.6-.2,11.89-.39-.52-6.56-8.19-7.1-8.87-.32-.39-5.22-6.4-5.81-7.1-.05,1.02.11,13.05.3,13.86.34.11,2.27.27,2.7.32l.07.36c-.41-.05-2.77-.09-3.36-.09-.66,0-2.43.05-2.97.09l.07-.36c.52-.09,1.48-.16,2-.32.27-.95.52-13.91.52-14.66-.52-.11-1.75-.23-2.5-.27l-.09-.36Z"/>
  <path class="cls-2" d="M114.11,71.87c0-1.02-.05-5.29-.16-5.74-.59-.11-1.86-.27-2.41-.32l-.05-.36c.34.05,2.79.09,3.45.09.79,0,3.49-.09,4.95-.09,2.5,0,5.01.34,6.44,1.02,2.65,1.25,3.72,3.36,3.72,5.38,0,4.92-3.77,9.62-12.23,9.62-.98,0-5.79.02-6.33.05l.09-.36c.43-.02,1.81-.16,2.36-.32.11-.39.16-4.54.16-7.17v-1.79ZM115.84,73.87c0,1.23.07,5.65.16,6.47.91.32,2.47.41,2.88.41,4.9,0,9.37-2.84,9.37-7.6,0-1.88-.64-3.79-2.5-5.2-1.68-1.27-4.33-1.81-7.76-1.81-.52,0-1.52.05-2,.14-.07.34-.16,5.72-.16,6.72v.89Z"/>
  <path class="cls-2" d="M134.69,79.29c-1.61-1.7-2.13-3.4-2.13-5.49,0-4.54,3.83-8.62,9.23-8.62,2,0,4.13.2,6.31,1.84,1.77,1.32,2.81,3.49,2.81,5.63,0,5.54-4.17,9.14-9.46,9.14-2.06,0-4.76-.39-6.76-2.5M149.21,73.93c0-4.38-3.72-7.94-7.94-7.94-3.56,0-7.12,2.13-7.12,6.83,0,4.13,3.65,8.1,8.1,8.1s6.97-3.29,6.97-6.99"/>
</svg>