<?xml version="1.0" encoding="UTF-8"?>
<svg id="Capa_12" data-name="Capa 12" xmlns="http://www.w3.org/2000/svg" viewBox="0 0 177.4 125.4">
  <defs>
    <style>
      .cls-1 {
        fill: #fff;
        stroke-width: 0px;
      }
    </style>
  </defs>
  <g>
    <path class="cls-1" d="M21.98,73.57h1.51l-.09.36h-1.86l.53-2.57h1.86l-.09.36h-1.51l-.36,1.86ZM22.24,72.51h1.33l-.09.27h-1.33l.09-.27Z"/>
    <path class="cls-1" d="M25.62,73.93h-.36c-.09,0-.27-.09-.36-.09-.09-.09-.18-.09-.27-.18l.18-.27c.09.09.18.09.27.18.09,0,.18.09.27.09h.36c.18,0,.27,0,.36-.09.09,0,.18-.09.27-.18.09-.09.09-.18.09-.27s0-.18-.09-.18q-.09-.09-.18-.09c-.09,0-.18-.09-.27-.09s-.18-.09-.27-.09-.18-.09-.27-.09c-.09-.09-.18-.09-.18-.18-.09-.09-.09-.18-.09-.27,0-.18.09-.27.18-.44s.18-.18.36-.27c.18-.09.36-.09.53-.09s.36,0,.44.09c.18,0,.27.09.36.18l-.18.27c-.09-.09-.18-.09-.36-.18-.09,0-.27-.09-.36-.09-.18,0-.27,0-.36.09s-.18.09-.27.18c-.09.09-.09.18-.09.27s0,.18.09.18q.09.09.18.09c.09,0,.18.09.27.09s.18.09.27.09.18.09.27.09c.09.09.18.09.18.18.09.09.09.18.09.27,0,.18-.09.27-.18.44-.09.09-.27.18-.36.27-.09.09-.36.09-.53.09Z"/>
    <path class="cls-1" d="M27.84,73.93l.53-2.57h.98c.27,0,.53.09.71.18.18.09.27.36.27.53s-.09.44-.18.53c-.09.18-.27.27-.44.36s-.44.09-.62.09h-.89l.18-.18-.18.98h-.36v.09ZM28.46,73.04l-.09-.18h.8c.27,0,.44-.09.62-.18s.18-.27.18-.53c0-.18-.09-.27-.18-.36s-.27-.09-.44-.09h-.8l.18-.18-.27,1.51Z"/>
    <path class="cls-1" d="M31.66,73.57h1.51l-.09.36h-1.86l.53-2.57h1.86l-.09.36h-1.42l-.44,1.86ZM31.92,72.51h1.33l-.09.27h-1.33l.09-.27Z"/>
    <path class="cls-1" d="M35.74,73.93c-.27,0-.44-.09-.71-.18-.18-.09-.36-.18-.44-.36-.09-.18-.18-.36-.18-.53s0-.44.09-.62.18-.36.36-.53c.18-.18.27-.27.53-.36.18-.09.44-.09.62-.09s.44,0,.53.09c.18.09.27.18.36.27l-.27.27c-.09-.09-.18-.18-.27-.18-.09-.09-.27-.09-.44-.09s-.36,0-.53.09-.27.18-.36.27c-.09.09-.18.27-.27.36-.09.18-.09.27-.09.44s0,.27.09.44c.09.09.18.18.27.27.09.09.27.09.53.09.18,0,.27,0,.44-.09.09-.09.27-.09.36-.27l.18.27c-.09.09-.27.27-.44.27.09.18-.09.18-.36.18Z"/>
    <path class="cls-1" d="M37.96,73.93l.53-2.57h.36l-.53,2.57h-.36Z"/>
    <path class="cls-1" d="M39.47,73.93l1.69-2.57h.36l.62,2.57h-.36l-.53-2.4h.18l-1.51,2.31h-.44v.09ZM40.09,73.31l.18-.27h1.42l.09.27h-1.69Z"/>
    <path class="cls-1" d="M43.29,73.93l.53-2.57h.36l-.44,2.22h1.42l-.09.36h-1.78Z"/>
    <path class="cls-1" d="M46.22,73.93l.53-2.57h.36l-.53,2.57h-.36Z"/>
    <path class="cls-1" d="M48.97,73.93h-.36c-.09,0-.27-.09-.36-.09-.09-.09-.18-.09-.27-.18l.18-.27c.09.09.18.09.27.18.09,0,.18.09.27.09h.36c.18,0,.27,0,.36-.09.09,0,.18-.09.27-.18s.09-.18.09-.27,0-.18-.09-.18q-.09-.09-.18-.09c-.09,0-.18-.09-.27-.09s-.18-.09-.27-.09-.18-.09-.27-.09c-.09-.09-.18-.09-.18-.18-.09-.09-.09-.18-.09-.27,0-.18.09-.27.18-.44.09-.09.18-.18.36-.27.18-.09.36-.09.53-.09s.36,0,.44.09.27.09.36.18l-.18.27c-.09-.09-.18-.09-.36-.18-.09,0-.27-.09-.36-.09-.18,0-.27,0-.36.09-.09,0-.18.09-.27.18s-.09.18-.09.27,0,.18.09.18q.09.09.18.09c.09,0,.18.09.27.09s.18.09.27.09.18.09.27.09c.09.09.18.09.18.18.09.09.09.18.09.27,0,.18-.09.27-.18.44-.09.09-.27.18-.36.27-.18.09-.36.09-.53.09Z"/>
    <path class="cls-1" d="M51.72,73.93l.44-2.22h-.89l.09-.36h2.13l-.09.36h-.89l-.44,2.22h-.36Z"/>
    <path class="cls-1" d="M53.59,73.93l1.69-2.57h.36l.62,2.57h-.36l-.53-2.4h.18l-1.51,2.31h-.44v.09ZM54.21,73.31l.18-.27h1.42l.09.27h-1.69Z"/>
    <path class="cls-1" d="M58.2,73.93h-.36c-.09,0-.27-.09-.36-.09-.09-.09-.18-.09-.27-.18l.18-.27c.09.09.18.09.27.18.09,0,.18.09.27.09h.36c.18,0,.27,0,.36-.09s.18-.09.27-.18.09-.18.09-.27,0-.18-.09-.18q-.09-.09-.18-.09c-.09,0-.18-.09-.27-.09s-.18-.09-.27-.09-.18-.09-.27-.09c-.09-.09-.18-.09-.18-.18-.09-.09-.09-.18-.09-.27,0-.18.09-.27.18-.44.09-.09.18-.18.36-.27.18-.09.36-.09.53-.09s.36,0,.44.09.27.09.36.18l-.18.27c-.09-.09-.18-.09-.36-.18-.09,0-.27-.09-.36-.09-.18,0-.27,0-.36.09-.09,0-.18.09-.27.18s-.09.18-.09.27,0,.18.09.18q.09.09.18.09c.09,0,.18.09.27.09s.18.09.27.09.18.09.27.09c.09.09.18.09.18.18.09.09.09.18.09.27,0,.18-.09.27-.18.44-.09.09-.27.18-.36.27-.09.09-.27.09-.53.09Z"/>
    <path class="cls-1" d="M62.64,73.57h1.51l-.09.36h-1.86l.53-2.57h1.86l-.09.36h-1.51l-.36,1.86ZM62.91,72.51h1.33l-.09.27h-1.33l.09-.27Z"/>
    <path class="cls-1" d="M65.48,73.93l.53-2.57h.27l1.24,2.13h-.09l.44-2.13h.36l-.53,2.57h-.27l-1.24-2.13h.09l-.44,2.13h-.36Z"/>
    <path class="cls-1" d="M70.99,73.93l.53-2.57h.36l-.53,2.57h-.36Z"/>
    <path class="cls-1" d="M72.85,73.93l.53-2.57h.27l1.24,2.13h-.09l.44-2.13h.36l-.53,2.57h-.27l-1.24-2.13h.09l-.44,2.13h-.36Z"/>
    <path class="cls-1" d="M77.92,73.93c-.27,0-.44-.09-.62-.18s-.36-.18-.44-.36c-.09-.18-.18-.36-.18-.53s0-.44.09-.62.18-.36.36-.53c.18-.18.27-.27.53-.36.18-.09.44-.09.62-.09.27,0,.44,0,.62.09s.27.18.44.27l-.27.27c-.09-.09-.18-.18-.36-.18-.09-.09-.27-.09-.44-.09s-.36,0-.53.09-.27.18-.36.27c-.09.09-.18.27-.27.36-.09.18-.09.27-.09.44s0,.27.09.44l.27.27c.18.09.27.09.53.09.18,0,.27,0,.44-.09.09-.09.27-.09.36-.18l.18.27c-.09.09-.27.18-.44.27-.18.09-.36.09-.53.09ZM78.54,73.57l.18-.98h.36l-.18.98h-.36Z"/>
    <path class="cls-1" d="M80.67,73.57h1.51l-.09.36h-1.86l.53-2.57h1.86l-.09.36h-1.51l-.36,1.86ZM80.93,72.51h1.33l-.09.27h-1.33l.09-.27Z"/>
    <path class="cls-1" d="M83.51,73.93l.53-2.57h.27l1.24,2.13h-.09l.44-2.13h.36l-.53,2.57h-.27l-1.24-2.13h.09l-.44,2.13h-.36Z"/>
    <path class="cls-1" d="M87.24,73.93l.53-2.57h.36l-.53,2.57h-.36Z"/>
    <path class="cls-1" d="M89.64,73.57h1.51l-.09.36h-1.86l.53-2.57h1.86l-.09.36h-1.51l-.36,1.86ZM89.81,72.51h1.33l-.09.27h-1.33l.09-.27Z"/>
    <path class="cls-1" d="M92.39,73.93l.53-2.57h.98c.27,0,.53.09.71.18.18.09.27.36.27.53s-.09.36-.18.53-.27.27-.44.36-.44.09-.62.09h-.89l.18-.18-.18.98h-.36v.09ZM92.92,73.04l-.09-.18h.8c.27,0,.44-.09.62-.18s.18-.27.18-.53c0-.18-.09-.27-.18-.36s-.27-.09-.44-.09h-.8l.18-.18-.27,1.51ZM94.16,73.93l-.53-.89h.36l.53.89h-.36Z"/>
    <path class="cls-1" d="M95.85,73.93l.53-2.57h.36l-.53,2.57h-.36ZM96.3,71.18l.53-.44h.44l-.71.44h-.27Z"/>
    <path class="cls-1" d="M97.36,73.93l1.69-2.57h.36l.62,2.57h-.36l-.62-2.31h.18l-1.51,2.31h-.36ZM97.98,73.31l.18-.27h1.42l.09.27h-1.69Z"/>
    <path class="cls-1" d="M103.4,73.57h1.51l-.09.36h-1.86l.53-2.57h1.86l-.09.36h-1.51l-.36,1.86ZM103.58,72.51h1.33l-.09.27h-1.33l.09-.27Z"/>
    <path class="cls-1" d="M106.15,73.93l.53-2.57h.36l-.44,2.22h1.42l-.09.36h-1.78Z"/>
    <path class="cls-1" d="M109.61,73.57h1.51l-.09.36h-1.86l.53-2.57h1.86l-.09.36h-1.51l-.36,1.86ZM109.79,72.51h1.33l-.09.27h-1.33l.09-.27ZM110.32,71.18l.53-.44h.44l-.71.44h-.27Z"/>
    <path class="cls-1" d="M113.61,73.93c-.27,0-.44-.09-.71-.18-.18-.09-.36-.18-.44-.36-.09-.18-.18-.36-.18-.53s0-.44.09-.62.18-.36.36-.53c.18-.18.27-.27.53-.36.18-.09.44-.09.62-.09s.44,0,.53.09c.18.09.27.18.36.27l-.27.27c-.09-.09-.18-.18-.27-.18-.09-.09-.27-.09-.44-.09s-.36,0-.53.09-.27.18-.36.27c-.09.09-.18.27-.27.36-.09.18-.09.27-.09.44s0,.27.09.44l.27.27c.09.09.27.09.53.09.18,0,.27,0,.44-.09.09-.09.27-.09.36-.27l.18.27c-.09.09-.27.27-.44.27.09.18-.09.18-.36.18Z"/>
    <path class="cls-1" d="M116.27,73.93l.44-2.22h-.89l.09-.36h2.13l-.09.36h-.89l-.44,2.22h-.36Z"/>
    <path class="cls-1" d="M118.67,73.93l.53-2.57h.98c.27,0,.53.09.71.18.18.09.27.36.27.53s-.09.36-.18.53-.27.27-.44.36-.44.09-.62.09h-.89l.18-.18-.18.98h-.36v.09ZM119.29,73.04l-.09-.18h.8c.27,0,.44-.09.62-.18s.18-.27.18-.53c0-.18-.09-.27-.18-.36s-.27-.09-.44-.09h-.8l.18-.18-.27,1.51ZM120.45,73.93l-.53-.89h.36l.53.89h-.36Z"/>
    <path class="cls-1" d="M122.13,73.93l.53-2.57h.36l-.53,2.57h-.36Z"/>
    <path class="cls-1" d="M125.33,73.93c-.27,0-.44-.09-.71-.18-.18-.09-.36-.18-.44-.36-.09-.18-.18-.36-.18-.53s0-.44.09-.62.18-.36.36-.53.27-.27.53-.36c.18-.09.44-.09.62-.09s.44,0,.53.09c.18.09.27.18.36.27l-.27.27c-.09-.09-.18-.18-.27-.18-.09-.09-.27-.09-.44-.09s-.36,0-.53.09c-.18.09-.27.18-.36.27-.09.09-.18.27-.27.36-.09.18-.09.27-.09.44s0,.27.09.44c.09.09.18.18.27.27.09.09.27.09.53.09.18,0,.27,0,.44-.09.09-.09.27-.09.36-.27l.18.27c-.09.09-.27.27-.44.27.09.18-.18.18-.36.18Z"/>
    <path class="cls-1" d="M127.02,73.93l1.69-2.57h.36l.62,2.57h-.36l-.62-2.31h.18l-1.51,2.31h-.36ZM127.64,73.31l.18-.27h1.42l.09.27h-1.69Z"/>
  </g>
  <path class="cls-1" d="M143.09,75.26c-2.57,0-5.06-.89-6.93-2.75-4.08-4.08-3.55-11.1,1.07-15.72,2.22-2.22,5.06-3.55,8.08-3.82,3.02-.18,5.68.8,7.64,2.75,1.95,1.95,2.93,4.71,2.75,7.64-.18,2.93-1.51,5.77-3.82,8.08h0c-2.49,2.57-5.68,3.82-8.79,3.82ZM146.11,53.95h-.71c-2.75.18-5.33,1.42-7.46,3.46-4.26,4.26-4.71,10.65-1.07,14.38,3.64,3.64,10.12,3.2,14.38-1.07h0c2.04-2.04,3.29-4.71,3.46-7.46.18-2.66-.71-5.15-2.49-6.93-1.6-1.51-3.73-2.4-6.13-2.4Z"/>
  <path class="cls-1" d="M151.43,57.68c-.62-.62-1.24-1.07-1.95-1.42l-3.91,5.15,3.73-.8s-8.7,11.45-8.79,11.54c-.09.09,2.75-6.39,2.75-6.48s-2.31,1.15-2.31,1.15l4.26-9.77,4.35-.89c-3.37-1.69-7.9-.98-11.01,2.13-3.82,3.82-4.08,9.59-.71,12.96,3.37,3.37,9.15,3.02,12.96-.71,3.64-3.73,4-9.5.62-12.87Z"/>
  <path class="cls-1" d="M36.54,56.62l-3.37,11.99h7.55s.36-1.15.71-2.66h-4.44c.98-3.55,2.66-9.32,2.66-9.32,0,0-3.11,0-3.11,0Z"/>
  <polygon class="cls-1" points="89.1 68.6 92.48 56.62 89.37 56.62 86 68.6 89.1 68.6"/>
  <polygon class="cls-1" points="103.4 68.6 106.77 56.62 103.66 56.62 100.29 68.6 103.4 68.6"/>
  <path class="cls-1" d="M34.32,59.1l.62-2.4h-8.52c-.09.09-3.37,11.99-3.37,11.99h8.79l.71-2.57h-5.68l.62-2.13h4.97l.8-2.66h-4.97l.62-2.13h5.42v-.09Z"/>
  <path class="cls-1" d="M53.05,59.1l.62-2.4h-8.52c-.09.09-3.37,11.99-3.37,11.99h8.79l.71-2.57h-5.68l.62-2.13h4.97l.8-2.66h-4.97l.62-2.13h5.42v-.09Z"/>
  <path class="cls-1" d="M102.07,59.1l.62-2.4h-8.52c-.09.09-3.37,11.99-3.37,11.99h3.29l1.15-4.79h4.97l.8-2.66h-4.97l.62-2.13h5.42Z"/>
  <polygon class="cls-1" points="76.23 56.62 73.12 56.62 70.01 56.62 66.55 56.62 66.02 58.84 69.39 58.84 66.55 68.6 69.66 68.6 72.5 58.84 75.7 58.84 76.23 56.62"/>
  <path class="cls-1" d="M86.26,59.72c.44-2.4-1.78-3.11-1.78-3.11h-7.37l-3.37,11.99h3.11l.98-3.46h2.49l1.24,3.64h3.37l-1.42-4.97c.62-.18,2.31-1.69,2.75-4.08ZM82.89,60.52c-.27,1.15-1.86,1.86-1.86,1.86h-2.4l.98-3.29h2.57c-.09,0,.98.27.71,1.42Z"/>
  <path class="cls-1" d="M126.93,55.99c0,.09-10.12,12.79-10.12,12.79h3.46l1.15-1.78h4.53l.09,1.78h3.64c.09,0-2.75-12.96-2.75-12.79ZM123.02,64.43l1.95-2.4.36,2.4h-2.31Z"/>
  <path class="cls-1" d="M115.47,64.43l2.57.8s-2.22,3.82-6.13,3.82c0,0-4.88-.18-5.24-3.73s2.4-8.52,6.75-8.88,6.22,2.93,6.3,3.02-3.02,1.69-3.02,1.69c0,0-.62-1.69-2.49-1.78-1.51-.09-3.02.44-3.82,3.55-.8,3.11,2.75,4.26,5.06,1.51Z"/>
  <path class="cls-1" d="M61.31,64.43l2.57.8s-2.22,3.82-6.13,3.82c0,0-4.88-.18-5.24-3.73s2.4-8.52,6.75-8.88c4.35-.36,6.22,2.93,6.3,3.02,0,.09-3.02,1.69-3.02,1.69,0,0-.62-1.69-2.49-1.78-1.51-.09-3.02.44-3.82,3.55-.8,3.11,2.75,4.26,5.06,1.51Z"/>
</svg>