<?xml version="1.0" encoding="utf-8"?>
<!-- Generator: Adobe Illustrator 27.0.1, SVG Export Plug-In . SVG Version: 6.00 Build 0)  -->
<svg version="1.1" id="Capa_1" xmlns="http://www.w3.org/2000/svg" xmlns:xlink="http://www.w3.org/1999/xlink" x="0px" y="0px"
	 viewBox="0 0 177.4 125.4" style="enable-background:new 0 0 177.4 125.4;" xml:space="preserve">
<style type="text/css">
	.st0{opacity:0.48;fill:#FFFFFF;}
	.st1{opacity:0.66;fill:#FFFFFF;}
	.st2{fill:#FFFFFF;}
	.st3{opacity:0.74;fill:#FFFFFF;}
	.st4{fill-rule:evenodd;clip-rule:evenodd;fill:#FFFFFF;}
	.st5{fill:#1D2A4C;}
</style>
<g>
	<g>
		<path class="st2" d="M13.6,73.3h1.7l-0.1,0.4h-2.1l0.6-2.9h2.1l-0.1,0.4h-1.7L13.6,73.3z M13.9,72.1h1.5l-0.1,0.3h-1.5L13.9,72.1z
			"/>
		<path class="st2" d="M17.7,73.7c-0.1,0-0.3,0-0.4,0c-0.1,0-0.3-0.1-0.4-0.1c-0.1-0.1-0.2-0.1-0.3-0.2l0.2-0.3
			c0.1,0.1,0.2,0.1,0.3,0.2c0.1,0,0.2,0.1,0.3,0.1c0.1,0,0.2,0,0.4,0c0.2,0,0.3,0,0.4-0.1c0.1,0,0.2-0.1,0.3-0.2
			c0.1-0.1,0.1-0.2,0.1-0.3c0-0.1,0-0.2-0.1-0.2c-0.1-0.1-0.1-0.1-0.2-0.1c-0.1,0-0.2-0.1-0.3-0.1c-0.1,0-0.2-0.1-0.3-0.1
			c-0.1,0-0.2-0.1-0.3-0.1c-0.1-0.1-0.2-0.1-0.2-0.2c-0.1-0.1-0.1-0.2-0.1-0.3c0-0.2,0.1-0.3,0.2-0.5s0.2-0.2,0.4-0.3
			c0.2-0.1,0.4-0.1,0.6-0.1c0.2,0,0.4,0,0.5,0.1c0.2,0,0.3,0.1,0.4,0.2L19,71.4c-0.1-0.1-0.2-0.1-0.4-0.2c-0.1,0-0.3-0.1-0.4-0.1
			c-0.2,0-0.3,0-0.4,0.1s-0.2,0.1-0.3,0.2c-0.1,0.1-0.1,0.2-0.1,0.3c0,0.1,0,0.2,0.1,0.2c0.1,0.1,0.1,0.1,0.2,0.1
			c0.1,0,0.2,0.1,0.3,0.1c0.1,0,0.2,0.1,0.3,0.1c0.1,0,0.2,0.1,0.3,0.1c0.1,0.1,0.2,0.1,0.2,0.2c0.1,0.1,0.1,0.2,0.1,0.3
			c0,0.2-0.1,0.3-0.2,0.5c-0.1,0.1-0.3,0.2-0.4,0.3C18.2,73.7,17.9,73.7,17.7,73.7z"/>
		<path class="st2" d="M20.2,73.7l0.6-2.9h1.1c0.3,0,0.6,0.1,0.8,0.2c0.2,0.1,0.3,0.4,0.3,0.6c0,0.2-0.1,0.5-0.2,0.6
			c-0.1,0.2-0.3,0.3-0.5,0.4c-0.2,0.1-0.5,0.1-0.7,0.1h-1l0.2-0.2l-0.2,1.1H20.2z M20.9,72.7l-0.1-0.2h0.9c0.3,0,0.5-0.1,0.7-0.2
			c0.2-0.1,0.2-0.3,0.2-0.6c0-0.2-0.1-0.3-0.2-0.4c-0.1-0.1-0.3-0.1-0.5-0.1H21l0.2-0.2L20.9,72.7z"/>
		<path class="st2" d="M24.5,73.3h1.7l-0.1,0.4h-2.1l0.6-2.9h2.1l-0.1,0.4H25L24.5,73.3z M24.8,72.1h1.5l-0.1,0.3h-1.5L24.8,72.1z"
			/>
		<path class="st2" d="M29.1,73.7c-0.3,0-0.5-0.1-0.8-0.2c-0.2-0.1-0.4-0.2-0.5-0.4c-0.1-0.2-0.2-0.4-0.2-0.6c0-0.2,0-0.5,0.1-0.7
			c0.1-0.2,0.2-0.4,0.4-0.6c0.2-0.2,0.3-0.3,0.6-0.4c0.2-0.1,0.5-0.1,0.7-0.1c0.2,0,0.5,0,0.6,0.1c0.2,0.1,0.3,0.2,0.4,0.3l-0.3,0.3
			c-0.1-0.1-0.2-0.2-0.3-0.2c-0.1-0.1-0.3-0.1-0.5-0.1c-0.2,0-0.4,0-0.6,0.1c-0.2,0.1-0.3,0.2-0.4,0.3c-0.1,0.1-0.2,0.3-0.3,0.4
			c-0.1,0.2-0.1,0.3-0.1,0.5c0,0.2,0,0.3,0.1,0.5c0.1,0.1,0.2,0.2,0.3,0.3c0.1,0.1,0.3,0.1,0.6,0.1c0.2,0,0.3,0,0.5-0.1
			c0.1-0.1,0.3-0.1,0.4-0.3l0.2,0.3c-0.1,0.1-0.3,0.3-0.5,0.3C29.6,73.7,29.4,73.7,29.1,73.7z"/>
		<path class="st2" d="M31.6,73.7l0.6-2.9h0.4L32,73.7H31.6z"/>
		<path class="st2" d="M33.3,73.7l1.9-2.9h0.4l0.7,2.9h-0.4L35.3,71h0.2l-1.7,2.6H33.3z M34,73l0.2-0.3h1.6l0.1,0.3H34z"/>
		<path class="st2" d="M37.6,73.7l0.6-2.9h0.4l-0.5,2.5h1.6l-0.1,0.4H37.6z"/>
		<path class="st2" d="M40.9,73.7l0.6-2.9h0.4l-0.6,2.9H40.9z"/>
		<path class="st2" d="M44,73.7c-0.1,0-0.3,0-0.4,0c-0.1,0-0.3-0.1-0.4-0.1c-0.1-0.1-0.2-0.1-0.3-0.2l0.2-0.3
			c0.1,0.1,0.2,0.1,0.3,0.2c0.1,0,0.2,0.1,0.3,0.1c0.1,0,0.2,0,0.4,0c0.2,0,0.3,0,0.4-0.1c0.1,0,0.2-0.1,0.3-0.2
			c0.1-0.1,0.1-0.2,0.1-0.3c0-0.1,0-0.2-0.1-0.2c-0.1-0.1-0.1-0.1-0.2-0.1c-0.1,0-0.2-0.1-0.3-0.1c-0.1,0-0.2-0.1-0.3-0.1
			c-0.1,0-0.2-0.1-0.3-0.1c-0.1-0.1-0.2-0.1-0.2-0.2c-0.1-0.1-0.1-0.2-0.1-0.3c0-0.2,0.1-0.3,0.2-0.5c0.1-0.1,0.2-0.2,0.4-0.3
			c0.2-0.1,0.4-0.1,0.6-0.1c0.2,0,0.4,0,0.5,0.1s0.3,0.1,0.4,0.2l-0.2,0.3c-0.1-0.1-0.2-0.1-0.4-0.2c-0.1,0-0.3-0.1-0.4-0.1
			c-0.2,0-0.3,0-0.4,0.1c-0.1,0-0.2,0.1-0.3,0.2c-0.1,0.1-0.1,0.2-0.1,0.3c0,0.1,0,0.2,0.1,0.2c0.1,0.1,0.1,0.1,0.2,0.1
			c0.1,0,0.2,0.1,0.3,0.1c0.1,0,0.2,0.1,0.3,0.1c0.1,0,0.2,0.1,0.3,0.1c0.1,0.1,0.2,0.1,0.2,0.2c0.1,0.1,0.1,0.2,0.1,0.3
			c0,0.2-0.1,0.3-0.2,0.5c-0.1,0.1-0.3,0.2-0.4,0.3C44.4,73.7,44.2,73.7,44,73.7z"/>
		<path class="st2" d="M47.1,73.7l0.5-2.5h-1l0.1-0.4h2.4L49,71.2h-1l-0.5,2.5H47.1z"/>
		<path class="st2" d="M49.2,73.7l1.9-2.9h0.4l0.7,2.9h-0.4L51.2,71h0.2l-1.7,2.6H49.2z M49.9,73l0.2-0.3h1.6l0.1,0.3H49.9z"/>
		<path class="st2" d="M54.4,73.7c-0.1,0-0.3,0-0.4,0c-0.1,0-0.3-0.1-0.4-0.1c-0.1-0.1-0.2-0.1-0.3-0.2l0.2-0.3
			c0.1,0.1,0.2,0.1,0.3,0.2c0.1,0,0.2,0.1,0.3,0.1c0.1,0,0.2,0,0.4,0c0.2,0,0.3,0,0.4-0.1s0.2-0.1,0.3-0.2c0.1-0.1,0.1-0.2,0.1-0.3
			c0-0.1,0-0.2-0.1-0.2c-0.1-0.1-0.1-0.1-0.2-0.1c-0.1,0-0.2-0.1-0.3-0.1c-0.1,0-0.2-0.1-0.3-0.1c-0.1,0-0.2-0.1-0.3-0.1
			c-0.1-0.1-0.2-0.1-0.2-0.2c-0.1-0.1-0.1-0.2-0.1-0.3c0-0.2,0.1-0.3,0.2-0.5c0.1-0.1,0.2-0.2,0.4-0.3c0.2-0.1,0.4-0.1,0.6-0.1
			c0.2,0,0.4,0,0.5,0.1s0.3,0.1,0.4,0.2l-0.2,0.3c-0.1-0.1-0.2-0.1-0.4-0.2c-0.1,0-0.3-0.1-0.4-0.1c-0.2,0-0.3,0-0.4,0.1
			c-0.1,0-0.2,0.1-0.3,0.2c-0.1,0.1-0.1,0.2-0.1,0.3c0,0.1,0,0.2,0.1,0.2c0.1,0.1,0.1,0.1,0.2,0.1c0.1,0,0.2,0.1,0.3,0.1
			c0.1,0,0.2,0.1,0.3,0.1c0.1,0,0.2,0.1,0.3,0.1c0.1,0.1,0.2,0.1,0.2,0.2c0.1,0.1,0.1,0.2,0.1,0.3c0,0.2-0.1,0.3-0.2,0.5
			c-0.1,0.1-0.3,0.2-0.4,0.3C54.9,73.7,54.7,73.7,54.4,73.7z"/>
		<path class="st2" d="M59.4,73.3h1.7l-0.1,0.4h-2.1l0.6-2.9h2.1l-0.1,0.4h-1.7L59.4,73.3z M59.7,72.1h1.5l-0.1,0.3h-1.5L59.7,72.1z
			"/>
		<path class="st2" d="M62.6,73.7l0.6-2.9h0.3l1.4,2.4l-0.1,0l0.5-2.4h0.4l-0.6,2.9h-0.3l-1.4-2.4l0.1,0L63,73.7H62.6z"/>
		<path class="st2" d="M68.8,73.7l0.6-2.9h0.4l-0.6,2.9H68.8z"/>
		<path class="st2" d="M70.9,73.7l0.6-2.9h0.3l1.4,2.4l-0.1,0l0.5-2.4H74l-0.6,2.9h-0.3l-1.4-2.4l0.1,0l-0.5,2.4H70.9z"/>
		<path class="st2" d="M76.6,73.7c-0.3,0-0.5-0.1-0.7-0.2c-0.2-0.1-0.4-0.2-0.5-0.4c-0.1-0.2-0.2-0.4-0.2-0.6c0-0.2,0-0.5,0.1-0.7
			c0.1-0.2,0.2-0.4,0.4-0.6c0.2-0.2,0.3-0.3,0.6-0.4c0.2-0.1,0.5-0.1,0.7-0.1c0.3,0,0.5,0,0.7,0.1c0.2,0.1,0.3,0.2,0.5,0.3l-0.3,0.3
			c-0.1-0.1-0.2-0.2-0.4-0.2c-0.1-0.1-0.3-0.1-0.5-0.1c-0.2,0-0.4,0-0.6,0.1c-0.2,0.1-0.3,0.2-0.4,0.3c-0.1,0.1-0.2,0.3-0.3,0.4
			c-0.1,0.2-0.1,0.3-0.1,0.5c0,0.2,0,0.3,0.1,0.5c0.1,0.1,0.2,0.2,0.3,0.3c0.2,0.1,0.3,0.1,0.6,0.1c0.2,0,0.3,0,0.5-0.1
			c0.1-0.1,0.3-0.1,0.4-0.2l0.2,0.3c-0.1,0.1-0.3,0.2-0.5,0.3C77,73.7,76.8,73.7,76.6,73.7z M77.3,73.3l0.2-1.1h0.4l-0.2,1.1
			L77.3,73.3z"/>
		<path class="st2" d="M79.7,73.3h1.7l-0.1,0.4h-2.1l0.6-2.9h2.1l-0.1,0.4h-1.7L79.7,73.3z M80,72.1h1.5l-0.1,0.3h-1.5L80,72.1z"/>
		<path class="st2" d="M82.9,73.7l0.6-2.9h0.3l1.4,2.4l-0.1,0l0.5-2.4H86l-0.6,2.9h-0.3l-1.4-2.4l0.1,0l-0.5,2.4H82.9z"/>
		<path class="st2" d="M87.1,73.7l0.6-2.9h0.4l-0.6,2.9H87.1z"/>
		<path class="st2" d="M89.8,73.3h1.7l-0.1,0.4h-2.1l0.6-2.9h2.1l-0.1,0.4h-1.7L89.8,73.3z M90,72.1h1.5l-0.1,0.3h-1.5L90,72.1z"/>
		<path class="st2" d="M92.9,73.7l0.6-2.9h1.1c0.3,0,0.6,0.1,0.8,0.2c0.2,0.1,0.3,0.4,0.3,0.6c0,0.2-0.1,0.4-0.2,0.6
			c-0.1,0.2-0.3,0.3-0.5,0.4c-0.2,0.1-0.5,0.1-0.7,0.1h-1l0.2-0.2l-0.2,1.1H92.9z M93.5,72.7l-0.1-0.2h0.9c0.3,0,0.5-0.1,0.7-0.2
			c0.2-0.1,0.2-0.3,0.2-0.6c0-0.2-0.1-0.3-0.2-0.4c-0.1-0.1-0.3-0.1-0.5-0.1h-0.9l0.2-0.2L93.5,72.7z M94.9,73.7l-0.6-1h0.4l0.6,1
			H94.9z"/>
		<path class="st2" d="M96.8,73.7l0.6-2.9h0.4l-0.6,2.9H96.8z M97.3,70.6l0.6-0.5h0.5l-0.8,0.5H97.3z"/>
		<path class="st2" d="M98.5,73.7l1.9-2.9h0.4l0.7,2.9h-0.4l-0.7-2.6h0.2l-1.7,2.6H98.5z M99.2,73l0.2-0.3h1.6l0.1,0.3H99.2z"/>
		<path class="st2" d="M105.3,73.3h1.7l-0.1,0.4h-2.1l0.6-2.9h2.1l-0.1,0.4h-1.7L105.3,73.3z M105.5,72.1h1.5l-0.1,0.3h-1.5
			L105.5,72.1z"/>
		<path class="st2" d="M108.4,73.7l0.6-2.9h0.4l-0.5,2.5h1.6l-0.1,0.4H108.4z"/>
		<path class="st2" d="M112.3,73.3h1.7l-0.1,0.4h-2.1l0.6-2.9h2.1l-0.1,0.4h-1.7L112.3,73.3z M112.5,72.1h1.5l-0.1,0.3h-1.5
			L112.5,72.1z M113.1,70.6l0.6-0.5h0.5l-0.8,0.5H113.1z"/>
		<path class="st2" d="M116.8,73.7c-0.3,0-0.5-0.1-0.8-0.2c-0.2-0.1-0.4-0.2-0.5-0.4c-0.1-0.2-0.2-0.4-0.2-0.6c0-0.2,0-0.5,0.1-0.7
			c0.1-0.2,0.2-0.4,0.4-0.6c0.2-0.2,0.3-0.3,0.6-0.4c0.2-0.1,0.5-0.1,0.7-0.1c0.2,0,0.5,0,0.6,0.1c0.2,0.1,0.3,0.2,0.4,0.3l-0.3,0.3
			c-0.1-0.1-0.2-0.2-0.3-0.2c-0.1-0.1-0.3-0.1-0.5-0.1c-0.2,0-0.4,0-0.6,0.1c-0.2,0.1-0.3,0.2-0.4,0.3c-0.1,0.1-0.2,0.3-0.3,0.4
			c-0.1,0.2-0.1,0.3-0.1,0.5c0,0.2,0,0.3,0.1,0.5c0.1,0.1,0.2,0.2,0.3,0.3c0.1,0.1,0.3,0.1,0.6,0.1c0.2,0,0.3,0,0.5-0.1
			c0.1-0.1,0.3-0.1,0.4-0.3l0.2,0.3c-0.1,0.1-0.3,0.3-0.5,0.3C117.3,73.7,117.1,73.7,116.8,73.7z"/>
		<path class="st2" d="M119.8,73.7l0.5-2.5h-1l0.1-0.4h2.4l-0.1,0.4h-1l-0.5,2.5H119.8z"/>
		<path class="st2" d="M122.5,73.7l0.6-2.9h1.1c0.3,0,0.6,0.1,0.8,0.2c0.2,0.1,0.3,0.4,0.3,0.6c0,0.2-0.1,0.4-0.2,0.6
			c-0.1,0.2-0.3,0.3-0.5,0.4c-0.2,0.1-0.5,0.1-0.7,0.1h-1l0.2-0.2l-0.2,1.1H122.5z M123.2,72.7l-0.1-0.2h0.9c0.3,0,0.5-0.1,0.7-0.2
			c0.2-0.1,0.2-0.3,0.2-0.6c0-0.2-0.1-0.3-0.2-0.4c-0.1-0.1-0.3-0.1-0.5-0.1h-0.9l0.2-0.2L123.2,72.7z M124.5,73.7l-0.6-1h0.4l0.6,1
			H124.5z"/>
		<path class="st2" d="M126.4,73.7l0.6-2.9h0.4l-0.6,2.9H126.4z"/>
		<path class="st2" d="M130,73.7c-0.3,0-0.5-0.1-0.8-0.2c-0.2-0.1-0.4-0.2-0.5-0.4c-0.1-0.2-0.2-0.4-0.2-0.6c0-0.2,0-0.5,0.1-0.7
			c0.1-0.2,0.2-0.4,0.4-0.6c0.2-0.2,0.3-0.3,0.6-0.4c0.2-0.1,0.5-0.1,0.7-0.1c0.2,0,0.5,0,0.6,0.1c0.2,0.1,0.3,0.2,0.4,0.3l-0.3,0.3
			c-0.1-0.1-0.2-0.2-0.3-0.2c-0.1-0.1-0.3-0.1-0.5-0.1c-0.2,0-0.4,0-0.6,0.1c-0.2,0.1-0.3,0.2-0.4,0.3c-0.1,0.1-0.2,0.3-0.3,0.4
			c-0.1,0.2-0.1,0.3-0.1,0.5c0,0.2,0,0.3,0.1,0.5c0.1,0.1,0.2,0.2,0.3,0.3c0.1,0.1,0.3,0.1,0.6,0.1c0.2,0,0.3,0,0.5-0.1
			c0.1-0.1,0.3-0.1,0.4-0.3l0.2,0.3c-0.1,0.1-0.3,0.3-0.5,0.3C130.5,73.7,130.2,73.7,130,73.7z"/>
		<path class="st2" d="M131.9,73.7l1.9-2.9h0.4l0.7,2.9h-0.4l-0.7-2.6h0.2l-1.7,2.6H131.9z M132.6,73l0.2-0.3h1.6l0.1,0.3H132.6z"/>
	</g>
	<path class="st2" d="M150,75.2c-2.9,0-5.7-1-7.8-3.1c-4.6-4.6-4-12.5,1.2-17.7c2.5-2.5,5.7-4,9.1-4.3c3.4-0.2,6.4,0.9,8.6,3.1
		c2.2,2.2,3.3,5.3,3.1,8.6c-0.2,3.3-1.7,6.5-4.3,9.1l0,0C157.1,73.8,153.5,75.2,150,75.2z M153.4,51.2c-0.3,0-0.5,0-0.8,0
		c-3.1,0.2-6,1.6-8.4,3.9c-4.8,4.8-5.3,12-1.2,16.2c4.1,4.1,11.4,3.6,16.2-1.2l0,0c2.3-2.3,3.7-5.3,3.9-8.4c0.2-3-0.8-5.8-2.8-7.8
		C158.5,52.2,156.1,51.2,153.4,51.2z"/>
	<g>
		<path class="st2" d="M159.4,55.4c-0.7-0.7-1.4-1.2-2.2-1.6l-4.4,5.8l4.2-0.9c0,0-9.8,12.9-9.9,13c-0.1,0.1,3.1-7.2,3.1-7.3
			c0-0.1-2.6,1.3-2.6,1.3l4.8-11l4.9-1c-3.8-1.9-8.9-1.1-12.4,2.4c-4.3,4.3-4.6,10.8-0.8,14.6c3.8,3.8,10.3,3.4,14.6-0.8
			C162.8,65.7,163.2,59.2,159.4,55.4z"/>
		<polygon class="st2" points="157.2,53.8 157.1,53.8 157.1,53.8 		"/>
	</g>
	<path class="st2" d="M30,54.2l-3.8,13.5h8.5c0,0,0.4-1.3,0.8-3h-5c1.1-4,3-10.5,3-10.5H30z"/>
	<polygon class="st2" points="89.2,67.7 93,54.2 89.5,54.2 85.7,67.7 	"/>
	<polygon class="st2" points="105.3,67.7 109.1,54.2 105.6,54.2 101.8,67.7 	"/>
	<path class="st2" d="M27.5,57l0.7-2.7h-9.6c-0.1,0.1-3.8,13.5-3.8,13.5h9.9l0.8-2.9h-6.4l0.7-2.4h5.6l0.9-3h-5.6l0.7-2.4H27.5z"/>
	<path class="st2" d="M48.6,57l0.7-2.7h-9.6c-0.1,0.1-3.8,13.5-3.8,13.5h9.9l0.8-2.9h-6.4l0.7-2.4h5.6l0.9-3h-5.6l0.7-2.4H48.6z"/>
	<path class="st2" d="M103.8,57l0.7-2.7h-9.6c-0.1,0.1-3.8,13.5-3.8,13.5h3.7l1.3-5.4h5.6l0.9-3H97l0.7-2.4H103.8z"/>
	<polygon class="st2" points="74.7,54.2 71.2,54.2 67.7,54.2 63.8,54.2 63.2,56.7 67,56.7 63.8,67.7 67.3,67.7 70.5,56.7 74.1,56.7 
			"/>
	<path class="st2" d="M86,57.7c0.5-2.7-2-3.5-2-3.5h-4.8h-0.3h-3.2l-3.8,13.5h3.5l1.1-3.9h2.8l1.4,4.1h3.8l-1.6-5.6
		C83.6,62.1,85.5,60.4,86,57.7z M82.2,58.6c-0.3,1.3-2.1,2.1-2.1,2.1h-2.7l1.1-3.7h2.9C81.3,57,82.5,57.3,82.2,58.6z"/>
	<path class="st2" d="M131.8,53.5c0,0.1-11.4,14.4-11.4,14.4h3.9l1.3-2h5.1l0.1,2h4.1C135,67.9,131.8,53.3,131.8,53.5z M127.4,63
		l2.2-2.7L130,63H127.4z"/>
	<path class="st2" d="M118.9,63l2.9,0.9c0,0-2.5,4.3-6.9,4.3c0,0-5.5-0.2-5.9-4.2s2.7-9.6,7.6-10c4.9-0.4,7,3.3,7.1,3.4
		s-3.4,1.9-3.4,1.9s-0.7-1.9-2.8-2c-1.7-0.1-3.4,0.5-4.3,4C112.3,64.8,116.3,66.1,118.9,63z"/>
	<path class="st2" d="M57.9,63l2.9,0.9c0,0-2.5,4.3-6.9,4.3c0,0-5.5-0.2-5.9-4.2c-0.4-4,2.7-9.6,7.6-10c4.9-0.4,7,3.3,7.1,3.4
		c0,0.1-3.4,1.9-3.4,1.9s-0.7-1.9-2.8-2c-1.7-0.1-3.4,0.5-4.3,4C51.3,64.8,55.3,66.1,57.9,63z"/>
</g>
</svg>
