<?xml version="1.0" encoding="UTF-8"?>
<svg id="Capa_12" data-name="Capa 12" xmlns="http://www.w3.org/2000/svg" viewBox="0 0 177.4 125.4">
  <defs>
    <style>
      .cls-1 {
        fill: #fff;
        fill-rule: evenodd;
        stroke-width: 0px;
      }
    </style>
  </defs>
  <path class="cls-1" d="M91.85,68.24c-.87.06-1.49.09-1.86.09-4.1,0-7.64-1.44-10.63-4.32-2.98-2.88-4.47-6.3-4.47-10.27,0-2.1.38-4.23,1.13-6.37,2.03-2.06,4.54-3.88,7.51-5.44v-3.14l2.01-1.08c-.55,2.7-.82,5.35-.82,7.94v2.82c1.03-3.42,2.73-5.99,5.1-7.69,1.44.88,2.88,1.32,4.29,1.32.7,0,1.43-.11,2.19-.33.76-.22,1.54-.54,2.35-.98-.3,1.84-.95,3.26-1.96,4.25-.7.23-1.33.39-1.88.51-.55.11-1.03.17-1.44.17-1.15,0-2.48-.37-4-1.13-1.3,1-2.41,2.32-3.31,3.99-.9,1.67-1.35,3.21-1.35,4.63v.64c.81-1.65,1.88-2.89,3.21-3.72,1.34-.83,2.93-1.24,4.78-1.24,2.49,0,4.58.84,6.28,2.52,1.69,1.67,2.54,3.74,2.54,6.21-.97,2.58-2.82,4.87-5.54,6.85l-.92.67c-1.33.96-2.4,2-3.22,3.11M83.53,62.27v-19.16c-1.41,1.19-2.53,2.7-3.36,4.51-.84,1.82-1.26,3.65-1.26,5.51,0,1.69.39,3.29,1.16,4.82.77,1.52,1.93,2.96,3.46,4.32M84.72,63.01c2.22,1.27,4.21,1.91,5.96,1.91,2.03,0,3.67-.56,4.92-1.7,1.25-1.13,1.88-2.61,1.88-4.45,0-1.93-.67-3.61-2.01-5.03-1.34-1.42-2.92-2.13-4.75-2.13s-3.35.67-4.41,1.99c-1.06,1.33-1.59,3.16-1.59,5.51v3.91Z"/>
  <path class="cls-1" d="M72.67,39.21c.4,0,.76-.18,1.04-.45.27-.27.45-.63.45-1.02.02-.76-.58-1.33-1.33-1.27-.36.03-.68.19-.94.44-.25.25-.43.58-.47.94-.08.76.48,1.37,1.25,1.36"/>
  <path class="cls-1" d="M74.74,38.57l-.53.56-.57.53s2.04.7,1.6,5.02c0,0,1.81-.51,3.24-1.75,1.23-1.37,1.59-3,1.59-3-4.59.63-5.32-1.35-5.32-1.35"/>
  <path class="cls-1" d="M71.52,32.58c-.93.43-.12-1.75-.27-2.57-.23-1.34-3.19-.23-4.28,1.09.66.66,2.35-.22,2.31,1.15-.08,3.21,4.38,4.77,5.66,2.15,3.03-6.22,7.73-11.02,12.19-11.92-6.69-1.28-11.42,5.79-12.7,9.4-.12.34-.33.19-.71.02-.74-.32.29-2.74,1.11-3.98,1.41-2.13,1.78-2.52,4.86-3.69-2.07.11-4.28-.35-6.37,2.29-1.69,2.12-1.3,5.83-1.81,6.07"/>
  <path class="cls-1" d="M75.03,36.53c.24.46.79.62,1.24.35l2.34-1.37c.45-.27.61-.86.36-1.31-.25-.45-.81-.61-1.25-.34l-2.31,1.35c-.44.27-.61.86-.38,1.33"/>
  <path class="cls-1" d="M88.48,25.34c.17,0,.33,0,.5.01v.02c.23,0,.48-.01.72-.02,7.27.4,9.87,7.63,9.87,7.63l1.81.85c-2.66-8.18-9.52-9.86-11.55-9.91-.18,0-.39,0-.63,0h0c-.33-.03-.62-.03-.86-.02-2.02.04-8.89,1.73-11.55,9.91l1.81-.85s2.6-7.23,9.87-7.63"/>
  <path class="cls-1" d="M102.79,35.22l-2.31-1.35c-.44-.26-1-.11-1.25.34-.25.46-.09,1.04.36,1.31l2.34,1.37c.45.27,1.01.12,1.24-.35.24-.47.07-1.06-.38-1.33"/>
  <path class="cls-1" d="M93.36,36.43c-4.09-2.12-2.87-5.21-1.78-5.6.45-.17,2.31-.5,2.38.12.05.46-.54.85-.5,1.33.08.77.71,1.28,1.59,1.21.4-.04.88-.26,1.11-.66,1.17-2.09-1.54-3.63-3.55-3.85-.49-.05-.09-.46-.15-.96-.12-1.22-1.64-1.21-1.64-1.21.04,1.27-.78,2.34-1.35,3.42-.08-.26-.36.49-.46.23,0,0-.24-.5-.32-.24-.56-1.08-1.39-2.14-1.35-3.42,0,0-1.52,0-1.64,1.21-.05.5.34.91-.14.96-2.01.22-4.73,1.76-3.55,3.85.23.4.72.62,1.11.65.88.08,1.52-.43,1.59-1.21.05-.48-.55-.88-.5-1.34.07-.62,1.93-.29,2.38-.12,1.09.39,2.31,3.48-1.78,5.6-1.79.93-5.49,1.77-6.37-.27l-1.28.74c1.7,2.76,5.41,2.13,8.39.85,1.84-.79,3.07-2.28,3.52-3.25.44.97,1.68,2.47,3.53,3.27,2.98,1.28,6.69,1.91,8.39-.85l-1.28-.74c-.88,2.04-4.59,1.2-6.38.27"/>
  <path class="cls-1" d="M61.39,38.44c-2.63,2.1-2.18,4.3-2.28,6.37,1.17-3.08,1.56-3.45,3.69-4.86,1.25-.82,3.66-1.85,3.98-1.11.16.38.32.59-.02.71-3.61,1.27-10.68,6.01-9.4,12.7.9-4.46,5.71-9.16,11.93-12.2,2.62-1.28,1.07-5.74-2.15-5.66-1.37.03-.49-1.65-1.14-2.31-1.32,1.09-2.43,4.05-1.09,4.28.82.15,2.99-.67,2.56.27-.24.51-3.95.11-6.07,1.81"/>
  <path class="cls-1" d="M70.08,40.52l-1.35,2.31c-.27.44-.11,1,.34,1.25.45.25,1.04.09,1.31-.36l1.37-2.34c.27-.45.11-1.01-.35-1.24-.46-.24-1.06-.07-1.32.37"/>
  <path class="cls-1" d="M60.22,53.6c0,.17,0,.33.01.49h.02c-.01.24-.02.48-.02.73.4,7.27,7.63,9.87,7.63,9.87l.85,1.81c-8.18-2.66-9.86-9.52-9.9-11.55,0-.18,0-.39,0-.63h0c-.02-.33-.03-.62-.02-.86.04-2.02,1.72-8.89,9.9-11.55l-.85,1.81s-7.23,2.6-7.63,9.87"/>
  <path class="cls-1" d="M70.1,67.9l-1.35-2.31c-.26-.44-.11-1,.34-1.25.46-.25,1.04-.09,1.31.36l1.36,2.34c.27.45.12,1.01-.35,1.24-.47.24-1.06.07-1.32-.37"/>
  <path class="cls-1" d="M71.32,58.48c-2.13-4.09-5.21-2.87-5.6-1.78-.17.45-.5,2.31.13,2.38.45.05.85-.55,1.33-.5.77.08,1.29.71,1.21,1.59-.03.4-.26.88-.66,1.12-2.08,1.17-3.63-1.55-3.84-3.56-.05-.49-.46-.09-.96-.14-1.21-.12-1.21-1.64-1.21-1.64,1.28.05,2.34-.78,3.42-1.35-.26-.08.49-.36.23-.46,0,0-.5-.23-.24-.32-1.08-.56-2.14-1.39-3.42-1.35,0,0,0-1.52,1.21-1.64.5-.05.91.35.96-.14.22-2.01,1.76-4.72,3.85-3.55.4.23.62.71.65,1.11.08.88-.43,1.51-1.21,1.59-.48.05-.88-.55-1.33-.5-.62.07-.29,1.93-.13,2.38.39,1.09,3.48,2.32,5.6-1.78.93-1.79,1.77-5.49-.27-6.38l.74-1.27c2.76,1.7,2.13,5.41.85,8.39-.79,1.84-2.28,3.08-3.25,3.52.97.44,2.47,1.68,3.26,3.52,1.28,2.99,1.91,6.69-.85,8.4l-.74-1.27c2.04-.88,1.19-4.59.27-6.38"/>
  <path class="cls-1" d="M104.81,68.03c-.4,0-.77.18-1.04.45-.27.27-.45.63-.45,1.02-.01.76.59,1.33,1.34,1.27.36-.03.68-.2.94-.44.25-.25.43-.58.47-.94.08-.77-.47-1.38-1.24-1.36"/>
  <path class="cls-1" d="M102.75,68.66l.54-.56.57-.53s-2.04-.71-1.6-5.02c0,0-1.81.51-3.23,1.75-1.23,1.37-1.6,3-1.6,3,4.59-.63,5.33,1.35,5.33,1.35"/>
  <path class="cls-1" d="M105.96,74.65c.93-.43.12,1.74.26,2.56.23,1.34,3.19.23,4.28-1.09-.67-.66-2.35.22-2.31-1.15.08-3.21-4.38-4.77-5.66-2.15-3.03,6.21-7.73,11.02-12.19,11.93,6.7,1.28,11.42-5.79,12.7-9.4.12-.34.33-.18.71-.02.74.32-.29,2.74-1.11,3.98-1.41,2.13-1.78,2.52-4.86,3.69,2.07-.1,4.28.35,6.38-2.28,1.69-2.12,1.3-5.83,1.81-6.07"/>
  <path class="cls-1" d="M102.46,70.71c-.24-.47-.79-.62-1.24-.35l-2.34,1.37c-.45.27-.61.86-.36,1.31s.81.61,1.25.34l2.31-1.35c.45-.26.62-.86.38-1.33"/>
  <path class="cls-1" d="M89,81.9c-.17,0-.33,0-.5,0v-.02c-.23.01-.48.02-.73.02-7.27-.4-9.87-7.63-9.87-7.63l-1.81-.85c2.66,8.18,9.53,9.86,11.55,9.9.18,0,.39,0,.63,0,.33.02.62.03.86.02,2.02-.04,8.89-1.72,11.55-9.9l-1.81.85s-2.6,7.22-9.87,7.63"/>
  <path class="cls-1" d="M74.7,72.01l2.31,1.35c.44.27,1,.12,1.25-.34.25-.46.09-1.04-.36-1.31l-2.34-1.37c-.45-.27-1.01-.11-1.24.35-.23.46-.07,1.06.38,1.32"/>
  <path class="cls-1" d="M84.12,70.8c4.09,2.13,2.87,5.21,1.78,5.6-.45.17-2.31.5-2.38-.13-.05-.46.55-.85.5-1.33-.08-.77-.72-1.28-1.59-1.21-.4.04-.88.26-1.11.66-1.17,2.09,1.54,3.63,3.55,3.85.49.05.09.46.14.96.12,1.22,1.64,1.21,1.64,1.21-.04-1.27.78-2.34,1.35-3.41.08.25.36-.49.46-.23,0,0,.24.5.32.24.56,1.08,1.39,2.14,1.35,3.42,0,0,1.52,0,1.64-1.21.05-.5-.35-.91.14-.96,2.01-.22,4.72-1.76,3.55-3.85-.23-.39-.72-.62-1.11-.66-.88-.08-1.51.43-1.59,1.21-.05.48.55.88.5,1.33-.07.62-1.93.29-2.38.12-1.09-.39-2.31-3.47,1.78-5.6,1.79-.93,5.49-1.77,6.38.27l1.27-.74c-1.7-2.76-5.41-2.13-8.39-.85-1.84.79-3.08,2.28-3.52,3.25-.44-.97-1.68-2.47-3.52-3.27-2.98-1.28-6.7-1.92-8.4.85l1.28.74c.88-2.03,4.58-1.19,6.37-.27"/>
  <path class="cls-1" d="M116.09,68.79c2.63-2.1,2.18-4.31,2.28-6.38-1.17,3.08-1.56,3.45-3.69,4.86-1.25.82-3.66,1.85-3.98,1.11-.16-.38-.32-.59.02-.71,3.62-1.28,10.68-6,9.4-12.7-.9,4.46-5.71,9.17-11.92,12.2-2.62,1.27-1.06,5.74,2.15,5.66,1.37-.03.49,1.65,1.15,2.31,1.32-1.09,2.42-4.04,1.09-4.28-.82-.15-2.99.66-2.56-.27.24-.51,3.95-.11,6.07-1.81"/>
  <path class="cls-1" d="M107.4,66.72l1.35-2.31c.27-.44.11-1-.34-1.25-.45-.25-1.04-.09-1.31.36l-1.37,2.34c-.27.45-.11,1.01.35,1.24.47.24,1.06.07,1.32-.38"/>
  <path class="cls-1" d="M117.26,53.64c0-.17,0-.33-.01-.5h-.02c0-.23.01-.48.01-.72-.4-7.27-7.63-9.88-7.63-9.88l-.85-1.8c8.18,2.65,9.86,9.52,9.9,11.55,0,.18,0,.39,0,.63.03.34.03.62.02.86-.04,2.02-1.72,8.89-9.9,11.54l.85-1.8s7.23-2.6,7.63-9.87"/>
  <path class="cls-1" d="M107.38,39.33l1.35,2.31c.27.44.11,1-.34,1.25-.46.25-1.04.09-1.31-.36l-1.37-2.34c-.27-.45-.11-1.01.35-1.24.47-.23,1.06-.06,1.32.38"/>
  <path class="cls-1" d="M106.17,48.76c2.13,4.09,5.21,2.86,5.6,1.78.17-.45.5-2.31-.12-2.38-.46-.05-.85.55-1.33.5-.77-.08-1.28-.71-1.21-1.59.03-.4.26-.88.66-1.11,2.09-1.17,3.63,1.54,3.85,3.55.05.49.47.09.96.14,1.22.12,1.21,1.64,1.21,1.64-1.28-.04-2.34.79-3.42,1.35.26.08-.48.36-.23.46,0,0,.5.24.24.32,1.08.56,2.14,1.39,3.42,1.34,0,0,0,1.52-1.21,1.65-.5.05-.91-.35-.96.14-.22,2.01-1.76,4.72-3.85,3.55-.4-.23-.62-.71-.65-1.11-.08-.88.43-1.51,1.21-1.59.48-.05.88.55,1.33.5.62-.07.29-1.93.12-2.38-.39-1.09-3.48-2.31-5.6,1.78-.93,1.79-1.77,5.49.26,6.38l-.74,1.28c-2.76-1.7-2.13-5.41-.85-8.4.79-1.84,2.28-3.07,3.25-3.52-.97-.44-2.47-1.68-3.26-3.53-1.28-2.98-1.91-6.69.85-8.39l.75,1.28c-2.04.88-1.2,4.59-.27,6.38"/>
  <path class="cls-1" d="M73.7,69.65c0-.4-.18-.77-.45-1.04-.27-.27-.63-.44-1.02-.45-.76-.01-1.33.58-1.27,1.34.03.36.2.68.44.94.25.25.58.43.94.47.77.09,1.37-.48,1.36-1.24"/>
  <path class="cls-1" d="M73.07,67.59l.55.53.53.57s.7-2.03,5.01-1.6c0,0-.5-1.81-1.75-3.23-1.37-1.23-3-1.59-3-1.59.64,4.59-1.35,5.33-1.35,5.33"/>
  <path class="cls-1" d="M67.37,71.38c.43.93-1.74.12-2.56.27-1.34.23-.24,3.19,1.08,4.27.66-.66-.22-2.35,1.15-2.31,3.21.08,4.77-4.38,2.15-5.66-6.22-3.03-11.02-7.73-11.92-12.19-1.27,6.69,5.79,11.42,9.4,12.7.34.12.18.33.02.71-.32.74-2.73-.28-3.98-1.11-2.13-1.41-2.52-1.78-3.69-4.86.11,2.07-.35,4.28,2.28,6.38,2.12,1.69,5.83,1.3,6.07,1.81"/>
  <path class="cls-1" d="M72.94,80.93c2.1,2.63,4.3,2.18,6.38,2.28-3.08-1.17-3.45-1.56-4.86-3.69-.83-1.25-1.86-3.66-1.11-3.98.38-.16.59-.33.71.02,1.28,3.61,6,10.68,12.7,9.41-4.46-.9-9.16-5.71-12.2-11.93-1.28-2.62-5.74-1.07-5.65,2.15.03,1.37-1.65.49-2.32,1.14,1.09,1.32,4.05,2.42,4.28,1.09.15-.82-.67-2.99.27-2.56.51.24.12,3.95,1.81,6.07"/>
  <path class="cls-1" d="M103.4,37.21c0,.4.18.77.45,1.04.27.27.63.45,1.02.45.76.02,1.33-.58,1.27-1.34-.03-.36-.2-.68-.44-.94-.25-.25-.58-.43-.94-.47-.76-.08-1.37.48-1.36,1.24"/>
  <path class="cls-1" d="M104.04,39.27l-.56-.53-.53-.57s-.7,2.04-5.02,1.6c0,0,.5,1.81,1.75,3.23,1.37,1.23,3,1.59,3,1.59-.64-4.59,1.35-5.33,1.35-5.33"/>
  <path class="cls-1" d="M110.03,36.06c-.43-.93,1.74-.12,2.56-.27,1.34-.23.24-3.19-1.08-4.28-.66.66.22,2.35-1.15,2.31-3.21-.08-4.77,4.38-2.15,5.66,6.22,3.03,11.02,7.73,11.93,12.19,1.27-6.7-5.79-11.42-9.41-12.7-.34-.12-.18-.33-.02-.71.32-.74,2.74.29,3.98,1.11,2.13,1.41,2.52,1.78,3.69,4.86-.11-2.07.35-4.28-2.29-6.38-2.12-1.69-5.83-1.3-6.07-1.81"/>
  <path class="cls-1" d="M104.17,25.93c-2.1-2.64-4.3-2.18-6.37-2.29,3.08,1.17,3.45,1.56,4.86,3.69.82,1.25,1.85,3.66,1.11,3.98-.38.16-.59.32-.71-.02-1.27-3.61-6-10.68-12.7-9.4,4.46.9,9.16,5.71,12.19,11.93,1.28,2.62,5.74,1.06,5.66-2.15-.03-1.37,1.65-.49,2.31-1.15-1.09-1.32-4.05-2.42-4.28-1.09-.15.82.67,2.99-.27,2.56-.51-.24-.11-3.95-1.8-6.07"/>
  <path class="cls-1" d="M129.79,100.9c-.06,0-.08.02-.1.08l-.6,1.44c-.11.25-.17.49-.17.61,0,.18.1.31.45.31h.17c.14,0,.17.02.17.08,0,.08-.06.1-.19.1-.35,0-.83-.03-1.18-.03-.12,0-.73.03-1.31.03-.15,0-.21-.02-.21-.1,0-.06.04-.08.13-.08.1,0,.26-.01.35-.02.51-.06.72-.4.94-.9l2.79-6.3c.13-.29.2-.4.31-.4.1,0,.17.09.28.32.27.55,2.05,4.64,2.75,6.17.42.9.75,1.04.98,1.09.17.03.33.04.46.04.09,0,.15,0,.15.08,0,.08-.1.1-.51.1s-1.21,0-2.1-.02c-.2,0-.33,0-.33-.08,0-.06.04-.08.15-.09.08-.02.16-.11.1-.23l-.89-2.13s-.06-.07-.11-.07h-2.48M132.05,100.4c.05,0,.07-.03.05-.06l-1-2.48s-.02-.09-.05-.09c-.03,0-.06.05-.07.09l-1.02,2.47s0,.07.04.07h2.05ZM121.65,98.84c0-1.52,0-1.81-.02-2.13-.02-.34-.13-.51-.38-.56-.12-.03-.27-.04-.4-.04-.11,0-.18-.02-.18-.1,0-.06.08-.08.26-.08.42,0,1.12.03,1.44.03.28,0,.94-.03,1.36-.03.14,0,.23.02.23.08,0,.08-.07.1-.17.1-.11,0-.2,0-.34.03-.3.05-.39.22-.41.57-.02.32-.02.6-.02,2.13v1.76c0,.97,0,1.77.04,2.2.03.27.11.45.44.49.16.02.4.04.57.04.12,0,.18.03.18.08,0,.07-.09.1-.21.1-.73,0-1.44-.03-1.73-.03-.26,0-.96.03-1.4.03-.14,0-.22-.03-.22-.1,0-.05.05-.08.18-.08.17,0,.3-.02.4-.04.22-.04.29-.21.32-.5.05-.42.05-1.22.05-2.19v-1.76ZM110.59,98.84c0-1.52,0-1.81-.02-2.13-.02-.34-.11-.5-.48-.57-.09-.02-.28-.03-.43-.03-.12,0-.19-.02-.19-.09s.08-.09.25-.09c.59,0,1.29.03,1.52.03.38,0,1.22-.03,1.57-.03.7,0,1.44.06,2.04.43.31.19.75.7.75,1.38,0,.74-.34,1.42-1.47,2.25.99,1.12,1.76,2.01,2.41,2.64.62.58,1.08.65,1.25.68.12.02.22.03.31.03.09,0,.13.03.13.08,0,.08-.08.1-.21.1h-1.06c-.62,0-.9-.05-1.19-.19-.48-.23-.9-.7-1.52-1.47-.45-.55-.96-1.24-1.1-1.39-.06-.06-.12-.07-.2-.07l-.97-.02c-.06,0-.09.02-.09.08v.14c0,.93,0,1.72.06,2.15.03.29.1.51.43.55.17.02.41.04.54.04.09,0,.13.03.13.08,0,.07-.07.1-.22.1-.65,0-1.47-.03-1.64-.03-.21,0-.91.03-1.35.03-.14,0-.22-.03-.22-.1,0-.05.05-.08.18-.08.17,0,.3-.02.4-.04.22-.04.28-.26.32-.55.06-.43.06-1.21.06-2.14v-1.76ZM111.91,99.64c0,.11.02.15.1.18.23.07.57.1.85.1.44,0,.59-.04.79-.17.33-.22.65-.68.65-1.51,0-1.42-1.04-1.84-1.7-1.84-.28,0-.48.01-.59.04-.07.02-.1.06-.1.14v3.05ZM100.9,98.84c0-1.52,0-1.81-.02-2.13-.02-.34-.11-.5-.48-.57-.09-.02-.28-.03-.43-.03-.12,0-.19-.02-.19-.09s.08-.09.24-.09c.3,0,.62.01.9.01.29.01.54.02.7.02.36,0,2.57,0,2.78-.01.21-.02.39-.04.48-.06.06-.01.12-.04.18-.04.06,0,.07.04.07.09,0,.07-.06.19-.09.65-.01.1-.03.54-.05.66-.01.05-.04.11-.11.11s-.1-.05-.1-.14c0-.07-.01-.24-.07-.36-.08-.18-.19-.3-.74-.36-.19-.02-1.35-.04-1.58-.04-.06,0-.08.03-.08.1v2.54c0,.07.01.11.08.11.24,0,1.52,0,1.78-.02.27-.02.43-.05.53-.15.08-.08.12-.13.18-.13.04,0,.08.02.08.08s-.04.22-.09.73c-.01.2-.05.6-.05.67,0,.08,0,.19-.1.19-.08,0-.1-.04-.1-.09-.01-.1-.01-.23-.05-.36-.05-.2-.21-.35-.62-.39-.21-.02-1.31-.03-1.58-.03-.05,0-.06.04-.06.1v.79c0,.34-.01,1.26,0,1.56.02.69.2.84,1.33.84.29,0,.76,0,1.05-.12.29-.12.42-.33.5-.74.02-.11.04-.15.12-.15.09,0,.09.08.09.18,0,.23-.09.91-.14,1.11-.08.26-.18.26-.6.26-.83,0-1.44-.02-1.92-.03-.48-.02-.82-.03-1.15-.03-.12,0-.37,0-.64,0-.26,0-.54.02-.77.02-.15,0-.23-.03-.23-.1,0-.05.05-.08.18-.08.17,0,.3-.02.4-.04.22-.04.28-.26.32-.55.06-.43.06-1.21.06-2.14v-1.76ZM92.9,100.61c0,1.28,0,1.98.23,2.16.19.15.48.22,1.35.22.59,0,1.02,0,1.3-.28.13-.13.27-.41.29-.6,0-.09.04-.15.12-.15.08,0,.09.05.09.17,0,.11-.07.86-.16,1.15-.07.22-.12.27-.7.27-.8,0-1.38-.02-1.88-.03-.5-.02-.9-.03-1.36-.03-.12,0-.37,0-.64,0-.25,0-.54.02-.76.02-.14,0-.22-.03-.22-.1,0-.05.05-.08.18-.08.17,0,.3-.02.4-.04.22-.04.28-.26.33-.55.05-.43.05-1.21.05-2.14v-1.76c0-1.52,0-1.81-.02-2.13-.02-.34-.11-.5-.48-.57-.08-.02-.22-.03-.36-.03-.12,0-.19-.02-.19-.09s.08-.09.25-.09c.52,0,1.22.03,1.52.03.27,0,1.08-.03,1.51-.03.15,0,.23.02.23.09s-.07.09-.2.09c-.12,0-.3,0-.43.03-.3.05-.39.22-.41.57-.02.32-.02.6-.02,2.13v1.76ZM81.51,100.9c-.05,0-.08.02-.1.08l-.6,1.44c-.11.25-.17.49-.17.61,0,.18.1.31.45.31h.17c.13,0,.17.02.17.08,0,.08-.07.1-.19.1-.35,0-.83-.03-1.18-.03-.12,0-.73.03-1.31.03-.15,0-.21-.02-.21-.1,0-.06.05-.08.14-.08.1,0,.26-.01.34-.02.51-.06.72-.4.95-.9l2.79-6.3c.13-.29.2-.4.31-.4.1,0,.17.09.28.32.27.55,2.05,4.64,2.76,6.17.42.9.74,1.04.98,1.09.17.03.33.04.47.04.09,0,.14,0,.14.08,0,.08-.1.1-.51.1s-1.21,0-2.1-.02c-.2,0-.33,0-.33-.08,0-.06.05-.08.16-.09.08-.02.16-.11.1-.23l-.89-2.13s-.06-.07-.11-.07h-2.48ZM83.78,100.4c.06,0,.07-.03.06-.06l-1-2.48s-.02-.09-.06-.09c-.03,0-.06.05-.07.09l-1.02,2.47s0,.07.04.07h2.04ZM75.3,102.85c0,.27,0,.29-.14.36-.72.34-1.81.46-2.68.46-2.72,0-5.14-1.17-5.14-3.94,0-1.61.93-2.73,1.94-3.28,1.06-.58,2.05-.65,2.99-.65.76,0,1.74.12,1.96.16.24.04.62.1.88.11.13.01.16.05.16.12,0,.11-.08.39-.08,1.65,0,.16-.03.21-.12.21-.08,0-.1-.05-.11-.13-.03-.23-.09-.55-.38-.83-.33-.32-1.22-.78-2.48-.78-.61,0-1.42.04-2.2.62-.62.47-1.02,1.22-1.02,2.46,0,2.16,1.52,3.77,3.87,3.77.29,0,.68,0,.95-.11.16-.07.21-.2.21-.37v-.94c0-.5,0-.89,0-1.18-.01-.34-.11-.5-.48-.57-.09-.02-.28-.03-.44-.03-.1,0-.17-.02-.17-.08,0-.08.08-.1.23-.1.58,0,1.28.03,1.61.03s.93-.03,1.3-.03c.15,0,.22.02.22.1,0,.06-.07.08-.14.08-.09,0-.17.01-.3.03-.3.05-.41.22-.42.57-.01.3-.01.7-.01,1.2v1.11ZM52.56,100.9c-.05,0-.07.02-.1.08l-.6,1.44c-.11.25-.17.49-.17.61,0,.18.1.31.45.31h.16c.14,0,.17.02.17.08,0,.08-.07.1-.19.1-.35,0-.83-.03-1.17-.03-.13,0-.74.03-1.31.03-.15,0-.21-.02-.21-.1,0-.06.04-.08.13-.08.1,0,.26-.01.35-.02.51-.06.72-.4.94-.9l2.79-6.3c.13-.29.2-.4.31-.4.1,0,.16.09.27.32.27.55,2.05,4.64,2.76,6.17.42.9.75,1.04.98,1.09.17.03.33.04.47.04.09,0,.14,0,.14.08,0,.08-.1.1-.51.1s-1.21,0-2.1-.02c-.2,0-.33,0-.33-.08,0-.06.04-.08.15-.09.08-.02.16-.11.1-.23l-.89-2.13s-.05-.07-.11-.07h-2.48ZM54.83,100.4c.06,0,.07-.03.06-.06l-1-2.48s-.02-.09-.05-.09c-.04,0-.06.05-.07.09l-1.02,2.47s0,.07.04.07h2.05ZM43.89,100.61c0,1.28,0,1.98.23,2.16.19.15.48.22,1.34.22.59,0,1.03,0,1.3-.28.13-.13.27-.41.29-.6.01-.09.03-.15.12-.15.08,0,.09.05.09.17,0,.11-.08.86-.17,1.15-.07.22-.12.27-.7.27-.8,0-1.38-.02-1.88-.03-.5-.02-.9-.03-1.35-.03-.12,0-.37,0-.63,0-.25,0-.54.02-.77.02-.14,0-.22-.03-.22-.1,0-.05.05-.08.18-.08.17,0,.3-.02.4-.04.22-.04.28-.26.32-.55.06-.43.06-1.21.06-2.14v-1.76c0-1.52,0-1.81-.02-2.13-.02-.34-.11-.5-.48-.57-.09-.02-.22-.03-.37-.03-.12,0-.19-.02-.19-.09s.08-.09.25-.09c.52,0,1.22.03,1.52.03.27,0,1.08-.03,1.51-.03.16,0,.23.02.23.09s-.07.09-.2.09c-.12,0-.3,0-.43.03-.3.05-.39.22-.41.57-.02.32-.02.6-.02,2.13v1.76Z"/>
</svg>