<?xml version="1.0" encoding="UTF-8"?>
<svg id="Capa_14" data-name="Capa 14" xmlns="http://www.w3.org/2000/svg" viewBox="0 0 177.4 125.4">
  <defs>
    <style>
      .cls-1 {
        fill: #fff;
        stroke-width: 0px;
      }
    </style>
  </defs>
  <path class="cls-1" d="M96.72,62.2c-.66.17-1.33.33-1.99.5-1.49.41-2.9.91-4.39,1.41-1.49.5-2.98.91-4.47,1.33-.99.25-1.99.5-2.9.66-1.82.41-3.65.75-5.47,1.16-1.49.33-3.07.25-4.64.17-.83,0-1.33-.66-1.74-1.41-.25-.5-.5-.99-.66-1.49-.25-.75-.41-1.41-.25-2.24s.17-1.74.41-2.65c.17-.66.41-1.24.66-1.82.91.25,1.66.5,2.49.66,0-.08.08-.08.08-.17-.08-.08-.17-.25-.25-.33-.41-.25-.58-.58-.58-1.08,0-.33-.08-.58-.5-.66-.33-.08-.66-.25-.99-.33-.08,0-.17-.08-.25-.17v-.17c.33,0,.66.08.99.08,1.41.25,2.82.5,4.23.83.5.08.91.17,1.33.33.58.17.75.08.91-.41.5-1.08.99-2.15,1.49-3.31.17-.33.33-.66.58-.99.17-.25.08-.5-.17-.5-.66-.17-.99-.66-1.24-1.24q0-.08-.08-.25c-.17.17-.33.33-.5.41-.83.66-1.74.83-2.32-.25,0-.08-.08-.17-.08-.17-.17-.66-.17-.58-.83-.25-.33.17-.83.41-1.24.41-.91,0-1.49-.91-1.24-1.82,0-.08,0-.17.08-.33.17.25.33.41.5.58.33.33.66.58,1.24.58.41-.08.83-.08,1.24-.08.17,0,.41.17.5.33.5.58,1.16.66,1.82.41.33-.08.66-.17,1.08-.33.08.08.17.17.25.25.25.5.75.66,1.33.75.33.08.91-.58.83-.91,0-.08-.17-.17-.25-.17-2.73-.58-5.47-1.16-8.2-1.74-.33-.08-.58-.08-.91-.17v-.17h1.08c.33.08.58.17.91.25,1.08.25,2.24.41,3.31.58.75.17,1.49.25,2.24.41.41.08.66-.33.75-.83.17-1.08.33-2.24.5-3.31.17-.91.25-1.82.41-2.73v-.5c-.41,0-.75.08-1.08,0-.25-.08-.5-.41-.75-.66-.41.17-.83.41-1.33.41-.58,0-.83-.58-.99-1.08-.17.08-.41.17-.58.25-.5.25-.91.33-1.41,0-.41-.33-.5-.75-.33-1.24,0-.08-.17-.33-.25-.41-.17-.17-.33-.17-.5-.25,0-.08.08-.08.08-.17.5.08.99.17,1.49.25,1.66.41,3.4.75,5.05,1.16.25.08.41.08.58.08.41,0,.33-.33.41-.58.25-1.49.41-3.07.66-4.56,0-.25.08-.58.17-.83-.5-.17-.99-.41-.83-1.24-.25.08-.33.17-.5.25-.75.58-1.74.17-1.74-.83-.5.08-.99.41-1.41.33-.5-.08-.83-.5-.91-1.08-.25.17-.5.25-.75.33-.41.17-.83.08-1.24-.25-.33-.25-.58-.58-.33-.99.08-.08.17-.17.25-.33-.17-.08-.33-.17-.41-.25v-.17h.33c.91.25,1.91.58,2.82.83,1.41.41,2.73.75,4.14,1.08.33.08.5,0,.5-.33v-2.4c0-1.82.08-3.56.08-5.39,0-.33.08-.58.25-.91.08.25.25.58.25.83v7.95c0,.41.17.58.5.66,1.16.33,2.32.58,3.48.91.33.08.75.17,1.08.25.17.08.41.08.58.17v.17h-1.16c.17.5-.17.66-.5.83s-.83.08-1.08-.25c-.25-.41-.33-.33-.66-.08-.5.41-.99.25-1.41-.25-.08-.08-.25-.17-.33-.25-.08.17-.33.41-.25.58.08.99.25,1.91.41,2.9.17.99.33,1.91.5,2.9v.41c.08.17.17.33.33.41,1.33.25,2.65.5,3.98.75.41.08.83.17,1.24.33-.91.41-1.91,0-2.82,0,0,.5.41.41.66.5h.99c-.17.5-.5.75-.91.83s-.75-.08-.99-.41c-.17-.33-.33-.33-.66-.08-.33.17-.83.17-1.33.25.33,2.32.75,4.72,1.16,7.21-.5-.58-.33-1.33-.99-1.74-.08.5-.17.99-.25,1.41,0,.33.17.41.41.41.66.08,1.24.17,1.91.25s1.24.17,1.91.25,1.33.25,1.99.33c.25,0,.5.08.66.25-2.65.17-5.22-.41-7.95-.75.08.33.17.58.33.83q.17.17,1.08-.33h.08c.66.91,1.57.83,2.49.5.17,0,.33,0,.5.08.75.5,1.49.58,2.24.17.08-.08.25,0,.41-.08-.25.41-.41.75-.66,1.08,1.74.33,3.31.58,4.97.91.66-2.15,1.33-4.14,2.07-6.3-.75.17-1.24.66-1.99.41-.66-.25-.75-.91-1.08-1.49-.58.66-1.08,1.08-1.91.91s-.99-.91-1.33-1.57c-.91.75-1.82.99-2.32.58-.58-.5-.83-1.33-.41-2.07-.33-.17-.58-.25-.91-.41v-.17c.33,0,.66.08.99.08,1.41.25,2.9.5,4.31.83.83.17,1.66.33,2.49.5.58.08,1.08.25,1.66.33.33.08.66-.33.66-.75,0-.58,0-1.08-.08-1.66,0-.41-.08-.83-.17-1.24,0-.25-.17-.5-.33-.66-.41,1.24-.91,2.49-1.33,3.73h-.08c.41-2.4.83-4.72,1.33-7.13-.33.33-1.49.58-1.82.25-.17-.17-.33-.33-.41-.5-.08-.33-.25-.41-.58-.17-.41.33-.99.58-1.49.17-.25-.25-.41-.66-.66-.99-.58.25-1.16.75-1.82.25-.41-.33-.41-.83-.25-1.41.17.08.33.17.5.33.41.41.99.41,1.49.33.41-.08.58.08.75.33.41.5.83.66,1.49.41.41-.17.75-.08.99.25.33.41.91.41,1.41.41.17,0,.25-.17.41-.33-.08-.08-.25-.25-.33-.33-.75-.25-1.57-.33-2.32-.58-1.16-.33-2.32-.75-3.48-1.08-.33-.08-.66-.25-.99-.41v-.17c.08,0,.17-.08.25-.08,1.08.25,2.24.58,3.31.83,1.16.25,2.4.58,3.56.83.25.08.41,0,.41-.33.25-1.49.5-2.9.75-4.39.08-.41.08-.75.17-1.08-.33-.33-.66-.66-.99-.99,0-.08.08-.08.08-.17-.17.08-.33.08-.58.17-.83.41-1.49.08-1.74-.75-.5.08-.99.17-1.41.17-.58,0-.66-.58-.91-.91-.33.08-.75.25-1.08.25-.75,0-1.16-.41-1.16-1.24,0-.25-.25-.5-.41-.75,0,0,.17-.08.25-.08.91.25,1.91.5,2.82.75.99.25,1.91.58,2.9.83.66.17,1.33.33,1.99.58.41.17.58,0,.5-.41v-4.97c0-.25,0-.41.08-.66.25.25.41.58.41.91v4.64q0,.66.66.83c.91.25,1.91.5,2.82.75.5.17.99.25,1.57.5-.5.25-.91.08-1.41.08v.08c.25.08.41.08.66.17,0,.41-.33.5-.66.58-.33.17-.66,0-.83-.25-.25-.33-.41-.33-.75-.08-.41.33-.99.17-1.41-.25-.08-.08-.25-.17-.41-.25,0,.17-.08.33,0,.5.17.99.41,1.91.66,2.82.25,1.16.41,2.32.75,3.4.08.25.5.41.83.5.99.25,1.99.41,2.98.66.25.08.41.17.66.17,0,.08,0,.17-.08.17-.5,0-.99-.08-1.49-.08.17.41-.17.91-.66.99-.41.08-.75-.08-.99-.41-.08-.08-.25-.17-.41-.25-.08.17-.25.41-.25.58.08.58.25,1.08.33,1.66.41,1.91.83,3.81,1.33,5.63,0,.17.17.33.33.33,1.16.17,2.32.33,3.4.58.17,0,.25.17.5.25-.5.41-.91.08-1.33.08-.66,0-1.24-.17-1.91-.25-.08,0-.25.08-.25.17s0,.25.08.25c.5.5,1.16.5,1.82.5.17,0,.33-.08.58-.08-.25.5-.58.75-.99.91-.41.17-.83.25-1.16,0s-.58-.58-.91-.91c-.41.66-1.08.75-1.74.58-.5-.08-.75-.5-.83-.99-.5.08-.58.17-.33.66.66,1.24,1.24,2.49,1.91,3.65.5.91.99,1.91,1.49,2.82,0,.08.08.17.08.17,0,.5.41.58.83.66.75.17,1.57.33,2.32.5.41.08.83.08,1.16.08.41,0,.83-.08,1.24,0,.83.08,1.41-.25,2.07-.75.75-.66,1.57-1.24,2.32-1.82.83-.66,1.66-1.24,2.4-1.91.66-.58,1.41-1.08,2.15-1.66.91-.75,1.82-1.49,2.73-2.15.33-.25.58-.58,1.16-.5-.33.25-.58.5-.83.75-.83.66-1.57,1.33-2.4,1.99-.66.5-1.24,1.08-1.91,1.66-.83.66-1.66,1.33-2.4,1.99-.91.75-1.74,1.49-2.57,2.24-.17.17-.41.33-.58.5-.41.41-.33.99-.25,1.57.17,1.16-.08,2.32-.33,3.4-.33,1.24-.99,2.32-1.91,3.23-.91.91-1.82,1.82-2.82,2.73-.41.33-.83.66-1.24.91-.25.17-.66.17-.99.17-1.74,0-3.48.08-5.22.08-1.33,0-2.65.08-3.98.08-.41,0-.91.08-1.33.08-.17,0-.33-.08-.66-.08.33-.25.58-.33.83-.5,0,0,0-.08-.08-.08-.66.17-1.41.33-2.07.41-.75.08-1.49.08-2.24.08-.08,0-.17-.17-.25-.25.08-.08.25-.17.33-.17.41-.17.83-.25,1.33-.41-1.66.17-3.23,1.08-4.89.58,6.71-2.4,13.34-5.05,20.3-7.04-.17-.08-.25-.17-.33-.17-1.41.41-2.82.83-4.31,1.24-1.41.41-2.73.91-4.06,1.33-1.74.58-3.48,1.24-5.22,1.82-1.49.5-3.07.99-4.56,1.41-.83.25-1.57.58-2.4.75-.99.25-1.99.41-2.98.5-.83.08-1.57.08-2.4.17q0-.08-.08-.17c.08-.08.17-.17.25-.17.83-.17,1.66-.33,2.4-.5.99-.25,1.91-.5,2.82-.75,1.57-.41,3.15-.83,4.72-1.33,1.57-.5,3.07-1.08,4.64-1.57.41-.17.91-.25,1.33-.41.17-.08.25-.17.41-.25.08-.08.17-.08.33-.08.17-.08.25-.08.17-.41.5.25.75-.08,1.08-.33q0-.08-.08-.17c-.25.17-.58.33-.99.5ZM94.65,45.46c.17.17.33.41.58.58.75.58,1.57.5,2.4.25.08,0,.17-.17.17-.25s-.08-.17-.17-.25-.17-.08-.33-.08c-.66-.08-1.33-.17-1.99-.33-.25-.08-.41-.08-.66.08,0-.08,0-.25-.08-.25-.25-.08-.58-.17-.91-.17-.99-.25-1.99-.5-2.98-.75-.66-.17-1.33-.33-2.07-.5,0,.41.17.75.5.99.58.33,1.24.33,1.91.25.17,0,.41,0,.66.08.33.17.66.41.99.58.75.25,1.41,0,1.99-.25ZM88.43,51.68l-.08-.08c-.17.17-.33.25-.5.41-.83.75-1.74.5-2.24-.41-.08-.08-.25-.17-.33-.17-.33.08-.41.5-.33.83.33.66.66,1.41.99,2.07.66,1.41,1.33,2.73,1.91,4.14.25.5.66.58,1.08.66.91.17,1.91.25,2.82.41.5.08.91.25,1.33.17.83-.25,1.66-.58,2.49-.99.17-.08.25-.25.25-.41.08-.58.08-1.16.25-1.74.08-.33,0-.5-.33-.66-.41-.17-.5.17-.58.33-.33.66-.66,1.33-.91,1.99-.17.33-.33.66-.5.91,0,0-.08,0-.08-.08.33-.91.66-1.91.91-2.82.17-.41.25-.91.33-1.33,0-.08-.08-.25-.17-.41-.08.08-.25.08-.33.17-.17.17-.33.33-.5.5-.58.41-1.57.25-1.91-.41-.17-.33-.25-.66-.33-.99-1.24.91-1.99,1.08-2.57.58-.58-.58-.75-1.33-.33-1.91-.25-.08-.41-.17-.58-.25.08-.08.17-.25.25-.5ZM79.65,65.19s0,.08.08.08c.33,0,.66,0,.99-.08.91-.17,1.82-.33,2.73-.58,1.08-.25,2.15-.5,3.23-.83,1.33-.41,2.65-.83,4.06-1.24,1.49-.5,3.07-.99,4.56-1.49,1.24-.41,2.57-.91,3.81-1.33,1.16-.41,2.24-.75,3.4-1.08.66-.25,1.41-.33,2.07-.58s1.41-.25,2.07-.75h-.33c-.5.08-.99.25-1.49.33-.83.17-1.66.33-2.49.58-1.24.41-2.4.83-3.65,1.24-1.33.41-2.65.83-3.98,1.33-1.82.58-3.73,1.24-5.55,1.91-.58.17-1.24.41-1.82.58-.75.25-1.49.41-2.24.58-.83.25-1.66.5-2.49.66-.83.17-1.66.33-2.57.5-.33-.08-.33.08-.41.17ZM79.48,66.51c.99-.17,1.99-.33,2.9-.5,1.08-.25,2.07-.58,3.15-.91,1.66-.5,3.31-.99,4.97-1.49,1.24-.41,2.4-.83,3.65-1.16,1.49-.5,2.9-.83,4.39-1.33,1.33-.41,2.57-.91,3.81-1.33.66-.25,1.33-.41,2.07-.58.99-.25,1.91-.58,2.82-.83-.25-.08-.58-.17-.83-.17-1.24.33-2.4.58-3.56.99-2.07.66-4.06,1.33-6.13,1.99-1.82.58-3.65,1.24-5.47,1.82-.99.33-1.99.58-2.98.91-.91.33-1.82.66-2.73.91-.91.25-1.91.5-2.82.75-.75.17-1.57.33-2.4.5-.25-.08-.75-.25-.83.41ZM99.45,37.59c0,.08-.08.25-.08.41v5.39c0,.33.08.5.41.75.25.17.58.5.58.75.08.75,0,.66.75.83.33.08.41-.08.41-.41-.17-1.08-.33-2.15-.5-3.23-.17-1.16-.33-2.4-.58-3.56,0-.08-.17-.17-.25-.25-.25-.17-.5-.41-.75-.66ZM85.78,58.56c.41,0,.5-.17.41-.5-.25-.58-.5-1.24-.66-1.82-.41-1.24-.83-2.4-1.24-3.65-.08-.17-.25-.25-.33-.41-.08.17-.25.33-.25.5,0,.75.08,1.49.08,2.24,0,.91-.08,1.82-.08,2.73,0,.33.08.5.41.58.58.17,1.16.25,1.66.33ZM80.56,57.56c.58.08,1.08.17,1.57.33.41.08.5,0,.5-.41,0-.83.08-1.74.08-2.57v-3.31c0-.17-.17-.33-.17-.5-.17.17-.33.25-.41.5-.5,1.82-.99,3.73-1.49,5.55,0,.08,0,.25-.08.41ZM85.04,59.63c-.17.08-.33.25-.5.33-.83.25-.75.91-.75,1.57v.25c0,.66.33.91.91.75.91-.25,1.82-.58,2.73-.83-.08-.17-.08-.25-.08-.33-.33-.75-.17-.66-.99-.66-.33,0-.75,0-.91-.41-.17-.17-.33-.41-.41-.66ZM99.54,48.61q-.08,0-.17.08v5.22c0,.17.17.33.25.41.41.08.83.17,1.33.17.33,0,.41-.08.33-.41-.5-1.74-.99-3.4-1.49-5.14,0-.17-.17-.25-.25-.33ZM84.54,48.7q.08,0,.17-.08c0-.25.08-.41.08-.66-.08-.83-.17-1.57-.25-2.4-.08-.99-.08-2.07-.17-3.07,0-.08-.17-.25-.33-.33-.08,0-.25.08-.33.25-.08.08,0,.25,0,.33v4.14c0,.66,0,1.24.75,1.57,0,.08.08.17.08.25ZM79.9,59.97q-.08.08-.17.17c.08.25.17.58.33.66.66.41,1.33.75,1.99,1.08.17.08.33,0,.5,0v-.99c0-.25.08-.5.08-.75-.08-.33-.25-.58-.41-.91-.25.08-.41.25-.66.33-.33.08-.58.25-.91.25-.17.17-.5.17-.75.17ZM82.3,48.36c.5-.08.58-.41.58-.75,0-.41-.08-.83-.08-1.24,0-.91.08-1.74.08-2.65,0-.08-.08-.17-.08-.25h-.17c-.17,1.66-.25,3.23-.33,4.89ZM99.21,32.79v2.73c0,.5.25.66.66.75.25-.66-.17-3.31-.66-3.48ZM91.83,53.34c.75,1.41,2.24,1.24,3.07.66-.99-.17-1.99-.41-3.07-.66ZM91.66,53.59c-.08-.17-.08-.25-.17-.33-.83-.25-1.74-.41-2.57-.58.08.91.66,1.08,2.73.91ZM99.95,65.19c-1.16.33-2.24.66-3.31.99-1.08.33-2.07.83-3.15,1.24.66-.17,1.33-.41,1.99-.5.66-.17,1.16-.58,1.82-.58,0,0,0-.08.08-.08.25-.08.5-.25.75-.33.58-.17,1.08-.25,1.66-.41.08,0,.17-.17.17-.33ZM101.36,56.73c-.17-.25-.41-.58-.58-.83-.08-.08-.25,0-.33,0-.25.17-.5.25-.75.5-.17.17-.17.41-.25.58.17.08.41.17.58.17.41-.08.83-.25,1.33-.41ZM101.77,52.92c.08.58.17,1.08.25,1.57,0,.08.17.17.25.17.25.08.58.08.83.17.17-.33-.75-1.66-1.33-1.91ZM76,57.65c-.66.41-1.24.91-2.07.66v.25c.75.08,1.57.25,2.4.33-.08-.41-.17-.75-.33-1.24ZM79.24,58.31c-.33.33-.58.5-.75.75-.08.08-.17.17-.08.33.08.33.66.66,1.16.66-.17-.58-.25-1.16-.33-1.74ZM103.27,46.71c-.75-.08-1.49-.17-2.24-.25,0,.41.5.75,1.16.83.75,0,1.08-.17,1.08-.58ZM103.18,62.78q0-.08-.08-.17c-.99.33-1.91.66-2.9.91-.17.08-.33.17-.5.17-.41,0-1.24.41-1.33.66,1.66-.41,3.31-.83,4.81-1.57ZM97.8,55.74c0,.58-.08,1.16-.08,1.74,0,.08.17.25.25.33.17-.08.25-.17.33-.33.08-.08,0-.25.08-.41.17-.58,0-.91-.58-1.33ZM88.68,61.21c-.25-.33-.5-.58-.75-.83-.08-.08-.17-.17-.25-.25-.08.08-.25.25-.25.33,0,.33,0,.66.08.99.41,0,.91.08,1.16-.25ZM76.75,39.83c.08,0,.25-.08.5-.08.08,0,.17-.17.25-.25-.08-.08-.17-.17-.25-.25-.33-.17-.75-.25-1.08-.33-.08,0-.25,0-.33.08,0,0-.08.17,0,.17,0,.25.5.66.91.66ZM102.02,44.3c-.5.5-.17,1.08-.25,1.49.25.08.33.08.5.17.25,0,.41-.08.33-.33-.17-.41-.33-.83-.58-1.33ZM81.97,49.11c-.08-.41-.17-.91-.25-1.33-.25.08-.83.83-.75,1.08,0,.08.17.25.33.25h.66ZM77.99,39.5c.08.25.17.5.33.58.41.25.83.33,1.24.17.08,0,.17-.08.25-.17-.08-.08-.17-.17-.25-.25-.41-.08-.91-.17-1.57-.33ZM98.38,51.6q-.08,0-.17-.08c-.08.25-.17.41-.17.66-.08.33-.08.75-.08,1.16,0,.33.08.58.41.66,0-.83,0-1.66,0-2.4ZM97.05,56.4c-.41.17-.58,1.41-.41,1.99.17-.08.33-.25.33-.33.08-.5.08-1.08.08-1.66ZM84.12,40.08c-.08-.83-.08-1.66-.17-2.49h-.17v2.57h0c.17,0,.25,0,.33-.08ZM95.73,27.65c.25.75.83.91,1.91.5-.66-.17-1.33-.33-1.91-.5ZM99.29,61.29v.08c.17,0,.41.08.58.08.41-.08.83-.25,1.16-.41.08,0,.17-.17.25-.33l-.08-.08c-.66.25-1.24.41-1.91.66ZM77.33,30.55c-.58-.17-.99-.33-1.57-.5.33.75.99.91,1.57.5ZM80.06,56.24l-.08-.08c-.17.25-.41.5-.58.83-.08.08,0,.33.08.41.17.17.33.08.41-.17,0-.33.08-.66.17-.99ZM102.19,64.77c-.25-.41-.5-.17-.66-.08-.17.08-.41.25-.58.25-.33.08-.58.08-.91.08v.17c.83.25,1.41-.33,2.15-.41ZM98.54,42.56c-.08,0-.08-.08-.17-.08-.08.08-.25.25-.25.33,0,.41-.17.83.08,1.16h.17c.08-.41.08-.91.17-1.41ZM88.52,59.8v.17c.41.08.83.17,1.24.17.08,0,.17-.17.25-.41-.66.08-1.08.08-1.49.08ZM102.44,37.43l-.08.08c0,.08.08.17.17.25.25.25.58.08.91.08.08,0,.08-.08.08-.17s-.08-.17-.17-.17c-.33,0-.58-.08-.91-.08ZM91.83,60.13c-1.16-.25-1.41-.17-1.24.41.41-.08.83-.25,1.24-.41ZM81.64,58.89c-.33-.58-.83-.33-1.24-.5-.08.5.17.58,1.24.5ZM99.45,55.49c.66.08.99,0,.91-.41q-.91-.08-.91.41ZM73.93,56.98c0,.08,0,.17-.08.17.41.33.99.33,1.49.33v-.17c-.41-.17-.91-.25-1.41-.33ZM78.08,58.14c-.33-.41-.83-.33-1.33-.58.25.5.75.66,1.33.58ZM94.73,65.52v.08c.58-.17,1.16-.25,1.74-.41.08,0,.08-.17.17-.33-.75.25-1.33.41-1.91.66ZM93.57,26.99c.08.58.41.5.75.58.17,0,.33-.08.5-.08v-.08c-.5-.17-.83-.25-1.24-.41ZM92.33,26.82c-.08-.25-.66-.5-1.08-.5.08.41.41.5,1.08.5ZM87.44,58.72c-.25-.33-.41-.58-.66-.91v.91h.66ZM102.02,60.79c.33-.25.91-.08,1.08-.75-.25.17-.41.25-.66.33-.17.08-.33.08-.58.17,0-.08,0,0,0,0,0,.08.08.17.17.25ZM81.64,40.82c-.17-.58-.58-.66-.99-.25.25,0,.58.08.99.25ZM103.1,60.3c0,.08.08.17.08.17.33-.17.66-.33,1.08-.58,0-.08-.08-.17-.08-.17-.41.17-.75.33-1.08.58ZM85.7,59.3c.25.58.5.58.99.25-.33-.08-.66-.17-.99-.25ZM104.34,62.53c-.25-.33-.66-.17-1.16.33.5-.08.83-.17,1.16-.33ZM81.64,32.12v-.08c-.33-.08-.75-.25-1.16-.33.33.58.75.41,1.16.41ZM100.2,46.62l.08-.08c-.08-.08-.17-.25-.17-.25-.17,0-.33.08-.5.08v.17c.17,0,.41.08.58.08ZM98.13,61.62v.17c.25,0,.58,0,.83-.08.08,0,.08-.08.17-.17l-.08-.08c-.25.08-.58.08-.91.17ZM84.7,32.79c.25.41.41.66.91.33-.33-.08-.58-.25-.91-.33ZM95.89,55.08c.5-.17.5-.25.25-.75-.08.25-.17.5-.25.75Z"/>
  <path class="cls-1" d="M55.12,69.83c.17-.08.33-.08.5-.08.5,0,.91.08,1.41.17,1.08.33,2.24.25,3.31.25,1.16,0,2.32-.25,3.48-.25,1.74-.08,3.48-.08,5.22-.08.99,0,1.91,0,2.9.08,1.08.08,2.15.17,3.23.25,0,0,.08.08.25.17-2.73.33-5.39.25-7.95.66v.25h2.4c.91-.08,1.91-.08,2.82-.17.75-.08,1.49-.17,2.24-.25.41,0,.91-.08,1.33-.08h2.07c1.24,0,2.49,0,3.73.08,1.08.08,2.15.33,3.23.41,1.16.17,2.4.33,3.56.08.91-.17,1.91-.17,2.9-.17,2.15-.08,4.23-.17,6.38-.17.75,0,1.41.08,2.15.17.25,0,.58.17.66-.17-.41-.17-.75-.33-1.08-.5v-.08c.58.08,1.08.08,1.66.17s1.16.17,1.74.17c.83,0,1.57.08,2.4,0,1.41-.08,2.82-.25,4.23-.33,1.08-.08,2.15-.08,3.23,0,1.24.08,2.57.17,3.81.25.91.08,1.82.17,2.73.25v.08c-.08,0-.17.08-.25.08h-2.24c-1.41.08-2.73.17-4.14.25-.75.08-1.49.08-2.24.08-.83,0-1.57,0-2.4.08-3.48.25-6.88.17-10.36.17-1.41,0-2.9.17-4.31.25-1.41.08-2.73.25-4.14.33-1.16.08-2.24-.25-3.31-.58-1.41-.41-2.9-.66-4.47-.41-.83.08-1.74.08-2.65.08-1.24.08-2.49.08-3.81.17s-2.57.33-3.89.41c-1.41.08-2.73-.33-4.06-.75-.58-.17-1.24-.41-1.82-.41-1.57,0-3.07.08-4.64.17-.83.08-1.66-.17-2.4-.33-1.08-.33-2.07-.58-3.15-.91q-.17.25-.25.17Z"/>
  <path class="cls-1" d="M67.97,77.04c-.17.17-.33.17-.41.33-.5.66-1.08,1.24-1.57,1.91-.75.91-1.41,1.82-2.15,2.73q-.08.08-.17.17c-.33.75-.91.75-1.57.66-.08,0-.25-.08-.33-.17-.99-1.24-2.07-2.57-3.07-3.81-.41-.5-.75-.99-1.16-1.49-.08-.17-.25-.25-.5-.33v7.13c0,.25-.33.41-.66.41-.17,0-.41-.08-.66-.17v-8.45c0-.41.08-.58.58-.5h.08c.75-.17,1.16.25,1.57.75.58.75,1.16,1.49,1.74,2.24.5.66.99,1.33,1.49,1.99.33.5.66.91,1.08,1.33.08.08.25.17.33.25.91-1.16,1.82-2.4,2.82-3.56.75-.99,1.57-1.91,2.4-2.9.08-.17.33-.17.5-.17.08,0,.08.08.17.08.25.08.58,0,.75.17.17.17,0,.5,0,.75,0,.5.08.99.08,1.57s-.08,1.16-.08,1.74c0,.5.08,1.08.08,1.57,0,.25-.08.41-.08.66,0,.5,0,1.08.08,1.57.08.58-.08.99-.5,1.08-.58.08-.91-.17-.91-.66v-6.21c.08-.25.08-.41.08-.66Z"/>
  <path class="cls-1" d="M100.53,76.79v7.13c0,.5-.17.58-.66.5-.17-.08-.41-.08-.58-.08v-8.62c0-.41.08-.41.5-.41.66,0,1.08.25,1.49.66,2.15,2.07,4.31,4.14,6.46,6.13.33.25.58.58.83.91,0,0,.08,0,.08-.08,0-.17.08-.33.08-.5v-6.63c0-.41.08-.58.58-.58h.33c.5,0,.58.17.5.66,0,.17-.08.33-.08.5v7.95h-1.33c-.17,0-.25-.17-.33-.25-1.24-1.24-2.57-2.49-3.81-3.73-1.08-1.08-2.15-2.15-3.31-3.15-.25-.17-.5-.25-.75-.41Z"/>
  <path class="cls-1" d="M81.89,92.53v3.65c-.08,0-.17.08-.17.08q-1.16.08-1.16-1.08v-7.46c0-.41.08-.58.58-.58,1.41,0,2.73-.08,4.14,0,1.33.08,2.73.33,3.73,1.41.58.58.5,1.99,0,2.57-.75.75-1.57,1.08-2.57,1.33-.08,0-.08.08-.17.08s-.08,0-.25.08c1.41,1.24,2.82,2.4,4.14,3.56-.99.25-1.66,0-2.32-.66-.58-.58-1.33-1.08-1.91-1.66-.33-.33-.66-.66-.99-.91-.25-.17-.5-.33-.75-.33-.83-.17-1.57-.08-2.32-.08ZM81.97,91.7c1.49-.08,3.15-.17,4.64-.33.58-.08,1.16-.41,1.33-.99.41-.99.17-1.91-1.08-2.32-1.57-.5-3.15-.41-4.81-.41-.08,0-.25.25-.25.41,0,.33.08.66.08.91.08.99.08,1.82.08,2.73Z"/>
  <path class="cls-1" d="M85.45,84.41h-1.24v-8.78c0-.33.08-.41.41-.41h4.31c1.24.08,2.49.25,3.48,1.08.83.75,1.08,1.91.17,2.9-.75.83-1.74,1.08-2.9,1.33,1.24,1.41,2.82,2.4,4.14,3.73-.58-.08-1.16.33-1.74-.25-.75-.75-1.57-1.41-2.4-2.07-.41-.41-.83-.75-1.33-1.08-.08-.08-.25-.08-.41-.08h-2.07c-.33,0-.41.17-.41.41,0,1.08,0,2.07,0,3.23ZM87.52,79.94q0-.08,0,0h1.24c.75,0,1.49-.08,2.15-.58.41-.33.83-.66.91-1.24.08-.66-.41-1.24-1.08-1.57-.75-.41-1.57-.41-2.32-.41-.83-.08-1.66,0-2.49,0-.33,0-.5.17-.5.5v2.9c0,.33.17.5.5.5.5-.17.99-.08,1.57-.08Z"/>
  <path class="cls-1" d="M71.2,96.34c-1.33,0-2.73-.17-3.89-.91-1.16-.66-1.91-1.66-2.15-2.98-.25-1.16,0-2.24.66-3.23.58-.91,1.41-1.41,2.4-1.74,1.08-.41,2.24-.58,3.4-.58,1.57.08,3.15.41,4.39,1.41.91.75,1.41,1.82,1.49,3.07.08.99-.08,1.91-.75,2.82-.58.75-1.33,1.33-2.15,1.66-1.16.33-2.24.58-3.4.5ZM76.17,91.7c.08-1.91-.99-3.07-2.15-3.56-1.66-.66-3.4-.66-5.05-.08-2.15.75-2.9,2.49-2.49,4.56.41,1.82,2.15,2.73,3.73,2.9.83.08,1.66.08,2.49-.08,1.74-.17,3.65-1.66,3.48-3.73Z"/>
  <path class="cls-1" d="M101.36,102.06v-.91c0-.33.08-.41.41-.41h21.3c.33,0,.41.08.41.41q0,.91-.91.91h-20.63c-.25.08-.41.08-.58,0Z"/>
  <path class="cls-1" d="M75.92,100.82l.08.08q.17,1.16-.99,1.24h-21.21v-1.16c0-.08.17-.17.25-.17h21.88Z"/>
  <path class="cls-1" d="M82.88,84.41c-.41,0-.75.08-1.08,0-.17,0-.33-.25-.5-.41-.41-.66-.83-1.41-1.24-2.07-.17-.25-.33-.5-.75-.33-.08.08-.25,0-.41,0h-4.89c-.41,0-.75.17-.91.58-.33.66-.75,1.33-1.16,1.99-.17.17-.58.25-.83.25-.17,0-.33-.08-.5-.17.25-.5.58-.99.83-1.41.75-1.24,1.49-2.49,2.24-3.65.75-1.24,1.49-2.49,2.24-3.65.08-.17.25-.25.41-.25q1.08-.08,1.66.99c.75,1.16,1.49,2.4,2.15,3.56.83,1.41,1.74,2.82,2.57,4.23.08.08.08.17.17.33ZM79.32,80.85c-.08-.25-.17-.41-.25-.5-.08-.25-.25-.5-.41-.66-.58-.99-1.16-1.91-1.74-2.9-.17-.25-.33-.33-.58,0-.66,1.16-1.41,2.32-2.07,3.48-.08.17-.08.33-.17.5.17,0,.33.08.5.08h.33c1.41,0,2.82,0,4.39,0Z"/>
  <path class="cls-1" d="M111.39,84.41c.08-.17.08-.33.17-.5,1.08-1.74,2.07-3.4,3.15-5.14.66-1.08,1.24-2.15,1.91-3.23.08-.17.33-.25.5-.33.08-.08.25,0,.41,0,.41-.08.66.08.91.5.41.83.99,1.66,1.49,2.4.66,1.08,1.33,2.15,1.91,3.23.58.91,1.16,1.91,1.74,2.9-.41.08-.83.08-1.16.08-.08,0-.25-.17-.25-.25-.5-.75-.91-1.49-1.33-2.24-.25-.33-.5-.58-.91-.41-.17.08-.41,0-.58,0h-4.64c-.41-.08-.58.17-.83.5-.33.66-.75,1.33-1.16,1.99-.17.25-.33.41-.66.33-.17.08-.41.17-.66.17ZM120,80.85c-.08-.25-.08-.41-.17-.5-.66-1.16-1.41-2.4-2.07-3.56-.17-.33-.33-.33-.58,0-.25.41-.5.83-.75,1.16-.5.83-.99,1.66-1.49,2.49-.17.25-.17.41.17.41h4.89Z"/>
  <path class="cls-1" d="M112.21,87.14v.66h-6.63c-.17.99-.17,1.99-.08,2.98.08.33.25.41.5.41h5.3c.17.58,0,.75-.5.75h-5.3v3.07c0,.33.25.5.58.5h6.21c.25.66.17.75-.5.75h-6.96c-.66,0-.66.08-.66-.66v-7.95c0-.25,0-.5.41-.5h7.54c-.08-.08,0-.08.08,0Z"/>
  <path class="cls-1" d="M63.74,87.72q-.41.66-.99.41c-1.33-.41-2.65-.58-3.98-.5-1.41.17-2.73.5-3.56,1.82-.58.83-.66,1.74-.5,2.65.08.83.33,1.49.91,2.07.66.66,1.49,1.08,2.4,1.24,1.74.25,3.4.08,5.05-.5.25-.08.75.17.75.41,0,.08-.08.25-.25.25-1.66.58-3.31.83-5.05.75-.91-.08-1.91-.25-2.73-.75-1.24-.66-2.15-1.57-2.4-3.07-.25-1.49.08-2.82,1.08-3.98.58-.66,1.49-1.08,2.32-1.33.99-.33,2.07-.5,3.15-.41,1.33.17,2.65.41,3.81.91Z"/>
  <path class="cls-1" d="M115.94,95.43h7.46c.41,0,.58.17.41.5-.08.08-.25.25-.33.25h-9.11c.08-.25.17-.58.25-.66.91-.91,1.91-1.82,2.9-2.65,1.16-1.08,2.24-2.24,3.4-3.31.41-.41.83-.75,1.24-1.08.08-.08.17-.25.33-.41h-6.96c-.17,0-.5.08-.5-.25,0-.25,0-.58.5-.58h8.12c.17,0,.33.08.41.17s0,.33-.17.41c-.91.83-1.74,1.74-2.65,2.57-.41.41-.91.83-1.33,1.33-1.16,1.08-2.32,2.15-3.4,3.23-.33,0-.41.25-.58.5Z"/>
  <path class="cls-1" d="M95.48,87.89h-4.47c-.33,0-.5-.08-.5-.41,0-.41.25-.41.5-.41h10.19c.25,0,.58,0,.58.33s-.25.5-.58.5h-3.81c-.41,0-.58.08-.58.58v7.04q0,.66-.66.66h-.66v-8.29Z"/>
  <path class="cls-1" d="M96.22,84.41q-1.24.08-1.24-1.16v-7.37c0-.5.17-.58.58-.58h.66v9.11Z"/>
  <path class="cls-1" d="M93.65,103.55c.66-.5.66-.83.08-1.49-.17-.17-1.08-.25-1.24-.08-.41.33-.41,1.08.08,1.66h-1.49c1.08-.75,1.16-1.99,1.57-2.98.17-.41.41-.83.58-1.33h.17c.17.41.33.83.58,1.24.33.83.75,1.74,1.16,2.57.17.41.5.33.75,0,.75-.99,1.41-2.07,2.15-3.15.08-.08.08-.25.08-.41-.99-.17-1.74.08-2.32.99v-.91c0-.08.17-.25.25-.25h3.15c-.75,1.41-1.74,2.57-2.49,3.98,1.91.17,1.99,0,2.73-1.08-.08.41-.08.83-.17,1.24,0,.08-.17.17-.25.17h-5.22c-.08-.08-.08-.17-.17-.17ZM93.16,100.49h-.17c-.08.41-.25.75-.33,1.24h.99c-.17-.5-.33-.91-.5-1.24Z"/>
  <path class="cls-1" d="M82.96,103.55h-4.89c0-.08,0-.17.08-.17.58-.17.5-.58.5-.99v-2.24c0-.5-.08-.66-.5-.91h1.91c-.66.25-.5.83-.5,1.33v1.99c0,.33.33.66.66.66.5,0,.91.08,1.24-.41.17-.17.17-.41.33-.66h.08v1.08c.25-.17.41-.33.5-.41.41-1.08.83-2.15,1.24-3.15.08-.17.17-.33.41-.58.33.91.66,1.66.99,2.4.17.5.33.91.58,1.33.17.25.41.41.75.66h-2.15c.66-.5.66-.91.25-1.49-.17-.25-1.08-.41-1.33-.08-.17.25-.33.58-.33.83-.17.33.08.58.17.83ZM83.46,100.57c-.17.41-.33.75-.41,1.16h.99c0-.5-.17-.99-.58-1.16Z"/>
  <path class="cls-1" d="M89.26,101.48v1.49c0,.17.25.33.41.58h-1.82v-.08c.66-.17.58-.66.58-1.16v-1.82c0-.5.08-.99-.66-1.16,0-.08.08-.08.08-.17.83.08,1.74,0,2.57.17.5.08.91.75.83,1.16-.08.5-.5.91-1.08.91-.25.17-.58.08-.91.08ZM89.26,100.4v.5c0,.41.17.58.58.41.25-.08.5-.41.58-.66.08-.33.08-.83-.33-.99-.17-.08-.41-.17-.66-.08-.08,0-.08.33-.17.58-.08,0,0,.17,0,.25Z"/>
</svg>