<?xml version="1.0" encoding="utf-8"?>
<!-- Generator: Adobe Illustrator 27.0.1, SVG Export Plug-In . SVG Version: 6.00 Build 0)  -->
<svg version="1.1" id="Capa_1" xmlns="http://www.w3.org/2000/svg" xmlns:xlink="http://www.w3.org/1999/xlink" x="0px" y="0px"
	 viewBox="0 0 177.4 125.4" style="enable-background:new 0 0 177.4 125.4;" xml:space="preserve">
<style type="text/css">
	.st0{opacity:0.48;fill:#FFFFFF;}
	.st1{opacity:0.66;fill:#FFFFFF;}
	.st2{fill:#FFFFFF;}
	.st3{opacity:0.74;fill:#FFFFFF;}
	.st4{fill-rule:evenodd;clip-rule:evenodd;fill:#FFFFFF;}
	.st5{fill:#1D2A4C;}
</style>
<g>
	<path class="st2" d="M98.4,62.2c-0.8,0.2-1.6,0.4-2.4,0.6c-1.8,0.5-3.5,1.1-5.3,1.7c-1.8,0.6-3.6,1.1-5.4,1.6
		c-1.2,0.3-2.4,0.6-3.5,0.8c-2.2,0.5-4.4,0.9-6.6,1.4c-1.8,0.4-3.7,0.3-5.6,0.2c-1,0-1.6-0.8-2.1-1.7c-0.3-0.6-0.6-1.2-0.8-1.8
		c-0.3-0.9-0.5-1.7-0.3-2.7c0.2-1,0.2-2.1,0.5-3.2c0.2-0.8,0.5-1.5,0.8-2.2c1.1,0.3,2,0.6,3,0.8c0-0.1,0.1-0.1,0.1-0.2
		c-0.1-0.1-0.2-0.3-0.3-0.4c-0.5-0.3-0.7-0.7-0.7-1.3c0-0.4-0.1-0.7-0.6-0.8c-0.4-0.1-0.8-0.3-1.2-0.4c-0.1,0-0.2-0.1-0.3-0.2
		c0-0.1,0-0.1,0-0.2c0.4,0,0.8,0.1,1.2,0.1c1.7,0.3,3.4,0.6,5.1,1c0.6,0.1,1.1,0.2,1.6,0.4c0.7,0.2,0.9,0.1,1.1-0.5
		c0.6-1.3,1.2-2.6,1.8-4c0.2-0.4,0.4-0.8,0.7-1.2c0.2-0.3,0.1-0.6-0.2-0.6c-0.8-0.2-1.2-0.8-1.5-1.5c0-0.1,0-0.1-0.1-0.3
		c-0.2,0.2-0.4,0.4-0.6,0.5c-1,0.8-2.1,1-2.8-0.3c0-0.1-0.1-0.2-0.1-0.2c-0.2-0.8-0.2-0.7-1-0.3c-0.4,0.2-1,0.5-1.5,0.5
		c-1.1,0-1.8-1.1-1.5-2.2c0-0.1,0-0.2,0.1-0.4c0.2,0.3,0.4,0.5,0.6,0.7c0.4,0.4,0.8,0.7,1.5,0.7c0.5-0.1,1-0.1,1.5-0.1
		c0.2,0,0.5,0.2,0.6,0.4c0.6,0.7,1.4,0.8,2.2,0.5c0.4-0.1,0.8-0.2,1.3-0.4c0.1,0.1,0.2,0.2,0.3,0.3c0.3,0.6,0.9,0.8,1.6,0.9
		c0.4,0.1,1.1-0.7,1-1.1c0-0.1-0.2-0.2-0.3-0.2c-3.3-0.7-6.6-1.4-9.9-2.1c-0.4-0.1-0.7-0.1-1.1-0.2c0-0.1,0-0.2,0-0.2
		c0.4,0,0.9,0,1.3,0c0.4,0.1,0.7,0.2,1.1,0.3c1.3,0.3,2.7,0.5,4,0.7c0.9,0.2,1.8,0.3,2.7,0.5c0.5,0.1,0.8-0.4,0.9-1
		c0.2-1.3,0.4-2.7,0.6-4c0.2-1.1,0.3-2.2,0.5-3.3c0-0.2,0-0.4,0-0.6c-0.5,0-0.9,0.1-1.3,0c-0.3-0.1-0.6-0.5-0.9-0.8
		c-0.5,0.2-1,0.5-1.6,0.5c-0.7,0-1-0.7-1.2-1.3c-0.2,0.1-0.5,0.2-0.7,0.3c-0.6,0.3-1.1,0.4-1.7,0c-0.5-0.4-0.6-0.9-0.4-1.5
		c0-0.1-0.2-0.4-0.3-0.5c-0.2-0.2-0.4-0.2-0.6-0.3c0-0.1,0.1-0.1,0.1-0.2c0.6,0.1,1.2,0.2,1.8,0.3c2,0.5,4.1,0.9,6.1,1.4
		C80,35,80.2,35,80.4,35c0.5,0,0.4-0.4,0.5-0.7c0.3-1.8,0.5-3.7,0.8-5.5c0-0.3,0.1-0.7,0.2-1c-0.6-0.2-1.2-0.5-1-1.5
		c-0.3,0.1-0.4,0.2-0.6,0.3c-0.9,0.7-2.1,0.2-2.1-1c-0.6,0.1-1.2,0.5-1.7,0.4c-0.6-0.1-1-0.6-1.1-1.3c-0.3,0.2-0.6,0.3-0.9,0.4
		c-0.5,0.2-1,0.1-1.5-0.3c-0.4-0.3-0.7-0.7-0.4-1.2c0.1-0.1,0.2-0.2,0.3-0.4c-0.2-0.1-0.4-0.2-0.5-0.3c0-0.1,0-0.1,0-0.2
		c0.1,0,0.3,0,0.4,0c1.1,0.3,2.3,0.7,3.4,1c1.7,0.5,3.3,0.9,5,1.3c0.4,0.1,0.6,0,0.6-0.4c0-1,0-1.9,0-2.9c0-2.2,0.1-4.3,0.1-6.5
		c0-0.4,0.1-0.7,0.3-1.1c0.1,0.3,0.3,0.7,0.3,1c0,3.2,0,6.4,0,9.6c0,0.5,0.2,0.7,0.6,0.8c1.4,0.4,2.8,0.7,4.2,1.1
		c0.4,0.1,0.9,0.2,1.3,0.3c0.2,0.1,0.5,0.1,0.7,0.2c0,0.1,0,0.1,0,0.2c-0.5,0-1,0-1.4,0c0.2,0.6-0.2,0.8-0.6,1
		c-0.4,0.2-1,0.1-1.3-0.3c-0.3-0.5-0.4-0.4-0.8-0.1c-0.6,0.5-1.2,0.3-1.7-0.3c-0.1-0.1-0.3-0.2-0.4-0.3c-0.1,0.2-0.4,0.5-0.3,0.7
		c0.1,1.2,0.3,2.3,0.5,3.5c0.2,1.2,0.4,2.3,0.6,3.5c0,0.2,0,0.3,0,0.5c0.1,0.2,0.2,0.4,0.4,0.5c1.6,0.3,3.2,0.6,4.8,0.9
		c0.5,0.1,1,0.2,1.5,0.4c-1.1,0.5-2.3,0-3.4,0c0,0.6,0.5,0.5,0.8,0.6c0.4,0,0.7,0,1.2,0c-0.2,0.6-0.6,0.9-1.1,1
		c-0.5,0.1-0.9-0.1-1.2-0.5c-0.2-0.4-0.4-0.4-0.8-0.1c-0.4,0.2-1,0.2-1.6,0.3c0.4,2.8,0.9,5.7,1.4,8.7c-0.6-0.7-0.4-1.6-1.2-2.1
		c-0.1,0.6-0.2,1.2-0.3,1.7c0,0.4,0.2,0.5,0.5,0.5c0.8,0.1,1.5,0.2,2.3,0.3c0.8,0.1,1.5,0.2,2.3,0.3c0.8,0.1,1.6,0.3,2.4,0.4
		c0.3,0,0.6,0.1,0.8,0.3c-3.2,0.2-6.3-0.5-9.6-0.9c0.1,0.4,0.2,0.7,0.4,1c0.2,0.2,0.2,0.2,1.3-0.4c0,0,0.1,0,0.1,0
		c0.8,1.1,1.9,1,3,0.6c0.2,0,0.4,0,0.6,0.1c0.9,0.6,1.8,0.7,2.7,0.2c0.1-0.1,0.3,0,0.5-0.1c-0.3,0.5-0.5,0.9-0.8,1.3
		c2.1,0.4,4,0.7,6,1.1c0.8-2.6,1.6-5,2.5-7.6c-0.9,0.2-1.5,0.8-2.4,0.5c-0.8-0.3-0.9-1.1-1.3-1.8c-0.7,0.8-1.3,1.3-2.3,1.1
		c-1-0.2-1.2-1.1-1.6-1.9c-1.1,0.9-2.2,1.2-2.8,0.7c-0.7-0.6-1-1.6-0.5-2.5c-0.4-0.2-0.7-0.3-1.1-0.5c0-0.1,0-0.1,0-0.2
		c0.4,0,0.8,0.1,1.2,0.1c1.7,0.3,3.5,0.6,5.2,1c1,0.2,2,0.4,3,0.6c0.7,0.1,1.3,0.3,2,0.4c0.4,0.1,0.8-0.4,0.8-0.9c0-0.7,0-1.3-0.1-2
		c0-0.5-0.1-1-0.2-1.5c0-0.3-0.2-0.6-0.4-0.8c-0.5,1.5-1.1,3-1.6,4.5c0,0-0.1,0-0.1,0c0.5-2.9,1-5.7,1.6-8.6
		c-0.4,0.4-1.8,0.7-2.2,0.3c-0.2-0.2-0.4-0.4-0.5-0.6c-0.1-0.4-0.3-0.5-0.7-0.2c-0.5,0.4-1.2,0.7-1.8,0.2c-0.3-0.3-0.5-0.8-0.8-1.2
		c-0.7,0.3-1.4,0.9-2.2,0.3c-0.5-0.4-0.5-1-0.3-1.7c0.2,0.1,0.4,0.2,0.6,0.4c0.5,0.5,1.2,0.5,1.8,0.4c0.5-0.1,0.7,0.1,0.9,0.4
		c0.5,0.6,1,0.8,1.8,0.5c0.5-0.2,0.9-0.1,1.2,0.3c0.4,0.5,1.1,0.5,1.7,0.5c0.2,0,0.3-0.2,0.5-0.4c-0.1-0.1-0.3-0.3-0.4-0.4
		c-0.9-0.3-1.9-0.4-2.8-0.7c-1.4-0.4-2.8-0.9-4.2-1.3c-0.4-0.1-0.8-0.3-1.2-0.5c0-0.1,0-0.1,0-0.2c0.1,0,0.2-0.1,0.3-0.1
		c1.3,0.3,2.7,0.7,4,1c1.4,0.3,2.9,0.7,4.3,1c0.3,0.1,0.5,0,0.5-0.4c0.3-1.8,0.6-3.5,0.9-5.3c0.1-0.5,0.1-0.9,0.2-1.3
		c-0.4-0.4-0.8-0.8-1.2-1.2c0-0.1,0.1-0.1,0.1-0.2c-0.2,0.1-0.4,0.1-0.7,0.2c-1,0.5-1.8,0.1-2.1-0.9c-0.6,0.1-1.2,0.2-1.7,0.2
		c-0.7,0-0.8-0.7-1.1-1.1c-0.4,0.1-0.9,0.3-1.3,0.3c-0.9,0-1.4-0.5-1.4-1.5c0-0.3-0.3-0.6-0.5-0.9c0,0,0.2-0.1,0.3-0.1
		c1.1,0.3,2.3,0.6,3.4,0.9c1.2,0.3,2.3,0.7,3.5,1c0.8,0.2,1.6,0.4,2.4,0.7c0.5,0.2,0.7,0,0.6-0.5c0-2,0-4,0-6c0-0.3,0-0.5,0.1-0.8
		c0.3,0.3,0.5,0.7,0.5,1.1c0,1.9,0,3.7,0,5.6c0,0.8,0,0.8,0.8,1c1.1,0.3,2.3,0.6,3.4,0.9c0.6,0.2,1.2,0.3,1.9,0.6
		c-0.6,0.3-1.1,0.1-1.7,0.1c0,0,0,0.1,0,0.1c0.3,0.1,0.5,0.1,0.8,0.2c0,0.5-0.4,0.6-0.8,0.7c-0.4,0.2-0.8,0-1-0.3
		c-0.3-0.4-0.5-0.4-0.9-0.1c-0.5,0.4-1.2,0.2-1.7-0.3c-0.1-0.1-0.3-0.2-0.5-0.3c0,0.2-0.1,0.4,0,0.6c0.2,1.2,0.5,2.3,0.8,3.4
		c0.3,1.4,0.5,2.8,0.9,4.1c0.1,0.3,0.6,0.5,1,0.6c1.2,0.3,2.4,0.5,3.6,0.8c0.3,0.1,0.5,0.2,0.8,0.2c0,0.1,0,0.2-0.1,0.2
		c-0.6,0-1.2-0.1-1.8-0.1c0.2,0.5-0.2,1.1-0.8,1.2c-0.5,0.1-0.9-0.1-1.2-0.5c-0.1-0.1-0.3-0.2-0.5-0.3c-0.1,0.2-0.3,0.5-0.3,0.7
		c0.1,0.7,0.3,1.3,0.4,2c0.5,2.3,1,4.6,1.6,6.8c0,0.2,0.2,0.4,0.4,0.4c1.4,0.2,2.8,0.4,4.1,0.7c0.2,0,0.3,0.2,0.6,0.3
		c-0.6,0.5-1.1,0.1-1.6,0.1c-0.8,0-1.5-0.2-2.3-0.3c-0.1,0-0.3,0.1-0.3,0.2c0,0.1,0,0.3,0.1,0.3c0.6,0.6,1.4,0.6,2.2,0.6
		c0.2,0,0.4-0.1,0.7-0.1c-0.3,0.6-0.7,0.9-1.2,1.1c-0.5,0.2-1,0.3-1.4,0c-0.4-0.3-0.7-0.7-1.1-1.1c-0.5,0.8-1.3,0.9-2.1,0.7
		c-0.6-0.1-0.9-0.6-1-1.2c-0.6,0.1-0.7,0.2-0.4,0.8c0.8,1.5,1.5,3,2.3,4.4c0.6,1.1,1.2,2.3,1.8,3.4c0,0.1,0.1,0.2,0.1,0.2
		c0,0.6,0.5,0.7,1,0.8c0.9,0.2,1.9,0.4,2.8,0.6c0.5,0.1,1,0.1,1.4,0.1c0.5,0,1-0.1,1.5,0c1,0.1,1.7-0.3,2.5-0.9
		c0.9-0.8,1.9-1.5,2.8-2.2c1-0.8,2-1.5,2.9-2.3c0.8-0.7,1.7-1.3,2.6-2c1.1-0.9,2.2-1.8,3.3-2.6c0.4-0.3,0.7-0.7,1.4-0.6
		c-0.4,0.3-0.7,0.6-1,0.9c-1,0.8-1.9,1.6-2.9,2.4c-0.8,0.6-1.5,1.3-2.3,2c-1,0.8-2,1.6-2.9,2.4c-1.1,0.9-2.1,1.8-3.1,2.7
		c-0.2,0.2-0.5,0.4-0.7,0.6c-0.5,0.5-0.4,1.2-0.3,1.9c0.2,1.4-0.1,2.8-0.4,4.1c-0.4,1.5-1.2,2.8-2.3,3.9c-1.1,1.1-2.2,2.2-3.4,3.3
		c-0.5,0.4-1,0.8-1.5,1.1c-0.3,0.2-0.8,0.2-1.2,0.2c-2.1,0-4.2,0.1-6.3,0.1c-1.6,0-3.2,0.1-4.8,0.1c-0.5,0-1.1,0.1-1.6,0.1
		c-0.2,0-0.4-0.1-0.8-0.1c0.4-0.3,0.7-0.4,1-0.6c0,0,0-0.1-0.1-0.1c-0.8,0.2-1.7,0.4-2.5,0.5c-0.9,0.1-1.8,0.1-2.7,0.1
		c-0.1,0-0.2-0.2-0.3-0.3c0.1-0.1,0.3-0.2,0.4-0.2c0.5-0.2,1-0.3,1.6-0.5c-2,0.2-3.9,1.3-5.9,0.7c8.1-2.9,16.1-6.1,24.5-8.5
		c-0.2-0.1-0.3-0.2-0.4-0.2c-1.7,0.5-3.4,1-5.2,1.5c-1.7,0.5-3.3,1.1-4.9,1.6c-2.1,0.7-4.2,1.5-6.3,2.2c-1.8,0.6-3.7,1.2-5.5,1.7
		c-1,0.3-1.9,0.7-2.9,0.9c-1.2,0.3-2.4,0.5-3.6,0.6c-1,0.1-1.9,0.1-2.9,0.2c0-0.1,0-0.1-0.1-0.2c0.1-0.1,0.2-0.2,0.3-0.2
		c1-0.2,2-0.4,2.9-0.6c1.2-0.3,2.3-0.6,3.4-0.9c1.9-0.5,3.8-1,5.7-1.6c1.9-0.6,3.7-1.3,5.6-1.9c0.5-0.2,1.1-0.3,1.6-0.5
		c0.2-0.1,0.3-0.2,0.5-0.3c0.1-0.1,0.2-0.1,0.4-0.1C98.4,62.6,98.5,62.6,98.4,62.2c0.6,0.3,0.9-0.1,1.3-0.4c0-0.1,0-0.1-0.1-0.2
		C99.3,61.8,98.9,62,98.4,62.2z M95.9,42c0.2,0.2,0.4,0.5,0.7,0.7c0.9,0.7,1.9,0.6,2.9,0.3c0.1,0,0.2-0.2,0.2-0.3
		c0-0.1-0.1-0.2-0.2-0.3c-0.1-0.1-0.2-0.1-0.4-0.1c-0.8-0.1-1.6-0.2-2.4-0.4C96.4,41.8,96.2,41.8,95.9,42c0-0.1,0-0.3-0.1-0.3
		c-0.3-0.1-0.7-0.2-1.1-0.2c-1.2-0.3-2.4-0.6-3.6-0.9c-0.8-0.2-1.6-0.4-2.5-0.6c0,0.5,0.2,0.9,0.6,1.2c0.7,0.4,1.5,0.4,2.3,0.3
		c0.2,0,0.5,0,0.8,0.1c0.4,0.2,0.8,0.5,1.2,0.7C94.4,42.6,95.2,42.3,95.9,42z M88.4,49.5c0,0-0.1-0.1-0.1-0.1
		c-0.2,0.2-0.4,0.3-0.6,0.5c-1,0.9-2.1,0.6-2.7-0.5c-0.1-0.1-0.3-0.2-0.4-0.2c-0.4,0.1-0.5,0.6-0.4,1c0.4,0.8,0.8,1.7,1.2,2.5
		c0.8,1.7,1.6,3.3,2.3,5c0.3,0.6,0.8,0.7,1.3,0.8c1.1,0.2,2.3,0.3,3.4,0.5c0.6,0.1,1.1,0.3,1.6,0.2c1-0.3,2-0.7,3-1.2
		c0.2-0.1,0.3-0.3,0.3-0.5c0.1-0.7,0.1-1.4,0.3-2.1c0.1-0.4,0-0.6-0.4-0.8c-0.5-0.2-0.6,0.2-0.7,0.4c-0.4,0.8-0.8,1.6-1.1,2.4
		c-0.2,0.4-0.4,0.8-0.6,1.1c0,0-0.1,0-0.1-0.1c0.4-1.1,0.8-2.3,1.1-3.4c0.2-0.5,0.3-1.1,0.4-1.6c0-0.1-0.1-0.3-0.2-0.5
		c-0.1,0.1-0.3,0.1-0.4,0.2c-0.2,0.2-0.4,0.4-0.6,0.6c-0.7,0.5-1.9,0.3-2.3-0.5c-0.2-0.4-0.3-0.8-0.4-1.2c-1.5,1.1-2.4,1.3-3.1,0.7
		c-0.7-0.7-0.9-1.6-0.4-2.3c-0.3-0.1-0.5-0.2-0.7-0.3C88.2,50,88.3,49.8,88.4,49.5z M77.8,65.8c0,0,0,0.1,0.1,0.1
		c0.4,0,0.8,0,1.2-0.1c1.1-0.2,2.2-0.4,3.3-0.7c1.3-0.3,2.6-0.6,3.9-1c1.6-0.5,3.2-1,4.9-1.5c1.8-0.6,3.7-1.2,5.5-1.8
		c1.5-0.5,3.1-1.1,4.6-1.6c1.4-0.5,2.7-0.9,4.1-1.3c0.8-0.3,1.7-0.4,2.5-0.7c0.8-0.3,1.7-0.3,2.5-0.9c-0.2,0-0.3,0-0.4,0
		c-0.6,0.1-1.2,0.3-1.8,0.4c-1,0.2-2,0.4-3,0.7c-1.5,0.5-2.9,1-4.4,1.5c-1.6,0.5-3.2,1-4.8,1.6c-2.2,0.7-4.5,1.5-6.7,2.3
		c-0.7,0.2-1.5,0.5-2.2,0.7c-0.9,0.3-1.8,0.5-2.7,0.7c-1,0.3-2,0.6-3,0.8c-1,0.2-2,0.4-3.1,0.6C77.9,65.5,77.9,65.7,77.8,65.8z
		 M77.6,67.4c1.2-0.2,2.4-0.4,3.5-0.6c1.3-0.3,2.5-0.7,3.8-1.1c2-0.6,4-1.2,6-1.8c1.5-0.5,2.9-1,4.4-1.4c1.8-0.6,3.5-1,5.3-1.6
		c1.6-0.5,3.1-1.1,4.6-1.6c0.8-0.3,1.6-0.5,2.5-0.7c1.2-0.3,2.3-0.7,3.4-1c-0.3-0.1-0.7-0.2-1-0.2c-1.5,0.4-2.9,0.7-4.3,1.2
		c-2.5,0.8-4.9,1.6-7.4,2.4c-2.2,0.7-4.4,1.5-6.6,2.2c-1.2,0.4-2.4,0.7-3.6,1.1c-1.1,0.4-2.2,0.8-3.3,1.1c-1.1,0.3-2.3,0.6-3.4,0.9
		c-0.9,0.2-1.9,0.4-2.9,0.6C78.3,66.8,77.7,66.6,77.6,67.4z M101.7,32.5c0,0.1-0.1,0.3-0.1,0.5c0,2.2,0,4.4,0,6.5
		c0,0.4,0.1,0.6,0.5,0.9c0.3,0.2,0.7,0.6,0.7,0.9c0.1,0.9,0,0.8,0.9,1c0.4,0.1,0.5-0.1,0.5-0.5c-0.2-1.3-0.4-2.6-0.6-3.9
		c-0.2-1.4-0.4-2.9-0.7-4.3c0-0.1-0.2-0.2-0.3-0.3C102.3,33.1,102,32.8,101.7,32.5z M85.2,57.8c0.5,0,0.6-0.2,0.5-0.6
		c-0.3-0.7-0.6-1.5-0.8-2.2c-0.5-1.5-1-2.9-1.5-4.4c-0.1-0.2-0.3-0.3-0.4-0.5c-0.1,0.2-0.3,0.4-0.3,0.6c0,0.9,0.1,1.8,0.1,2.7
		c0,1.1-0.1,2.2-0.1,3.3c0,0.4,0.1,0.6,0.5,0.7C83.9,57.6,84.6,57.7,85.2,57.8z M78.9,56.6c0.7,0.1,1.3,0.2,1.9,0.4
		c0.5,0.1,0.6,0,0.6-0.5c0-1,0.1-2.1,0.1-3.1c0-1.3,0-2.7,0-4c0-0.2-0.2-0.4-0.2-0.6c-0.2,0.2-0.4,0.3-0.5,0.6
		c-0.6,2.2-1.2,4.5-1.8,6.7C79,56.2,79,56.4,78.9,56.6z M84.3,59.1c-0.2,0.1-0.4,0.3-0.6,0.4c-1,0.3-0.9,1.1-0.9,1.9
		c0,0.1,0,0.2,0,0.3c0,0.8,0.4,1.1,1.1,0.9c1.1-0.3,2.2-0.7,3.3-1c-0.1-0.2-0.1-0.3-0.1-0.4c-0.4-0.9-0.2-0.8-1.2-0.8
		c-0.4,0-0.9,0-1.1-0.5C84.6,59.7,84.4,59.4,84.3,59.1z M101.8,45.8c-0.1,0-0.1,0-0.2,0.1c0,2.1,0,4.2,0,6.3c0,0.2,0.2,0.4,0.3,0.5
		c0.5,0.1,1,0.2,1.6,0.2c0.4,0,0.5-0.1,0.4-0.5c-0.6-2.1-1.2-4.1-1.8-6.2C102.1,46,101.9,45.9,101.8,45.8z M83.7,45.9
		c0.1,0,0.1,0,0.2-0.1c0-0.3,0.1-0.5,0.1-0.8c-0.1-1-0.2-1.9-0.3-2.9c-0.1-1.2-0.1-2.5-0.2-3.7c0-0.1-0.2-0.3-0.4-0.4
		c-0.1,0-0.3,0.1-0.4,0.3c-0.1,0.1,0,0.3,0,0.4c0,1.7,0,3.3,0,5c0,0.8,0,1.5,0.9,1.9C83.6,45.7,83.7,45.8,83.7,45.9z M78.1,59.5
		c-0.1,0.1-0.1,0.1-0.2,0.2c0.1,0.3,0.2,0.7,0.4,0.8c0.8,0.5,1.6,0.9,2.4,1.3c0.2,0.1,0.4,0,0.6,0c0-0.2,0-0.4,0-0.5
		c0-0.2,0-0.4,0-0.7c0-0.3,0.1-0.6,0.1-0.9c-0.1-0.4-0.3-0.7-0.5-1.1c-0.3,0.1-0.5,0.3-0.8,0.4c-0.4,0.1-0.7,0.3-1.1,0.3
		C78.8,59.5,78.4,59.5,78.1,59.5z M81,45.5c0.6-0.1,0.7-0.5,0.7-0.9c0-0.5-0.1-1-0.1-1.5c0-1.1,0.1-2.1,0.1-3.2
		c0-0.1-0.1-0.2-0.1-0.3c-0.1,0-0.1,0-0.2,0C81.2,41.6,81.1,43.5,81,45.5z M101.4,26.7c0,1.2,0,2.2,0,3.3c0,0.6,0.3,0.8,0.8,0.9
		C102.5,30.1,102,26.9,101.4,26.7z M92.5,51.5c0.9,1.7,2.7,1.5,3.7,0.8C95,52.1,93.8,51.8,92.5,51.5z M92.3,51.8
		c-0.1-0.2-0.1-0.3-0.2-0.4c-1-0.3-2.1-0.5-3.1-0.7C89.1,51.8,89.8,52,92.3,51.8z M102.3,65.8c-1.4,0.4-2.7,0.8-4,1.2
		c-1.3,0.4-2.5,1-3.8,1.5c0.8-0.2,1.6-0.5,2.4-0.6c0.8-0.2,1.4-0.7,2.2-0.7c0,0,0-0.1,0.1-0.1c0.3-0.1,0.6-0.3,0.9-0.4
		c0.7-0.2,1.3-0.3,2-0.5C102.2,66.2,102.3,66,102.3,65.8z M104,55.6c-0.2-0.3-0.5-0.7-0.7-1c-0.1-0.1-0.3,0-0.4,0
		c-0.3,0.2-0.6,0.3-0.9,0.6c-0.2,0.2-0.2,0.5-0.3,0.7c0.2,0.1,0.5,0.2,0.7,0.2C102.9,56,103.4,55.8,104,55.6z M104.5,51
		c0.1,0.7,0.2,1.3,0.3,1.9c0,0.1,0.2,0.2,0.3,0.2c0.3,0.1,0.7,0.1,1,0.2C106.3,52.9,105.2,51.3,104.5,51z M73.4,56.7
		c-0.8,0.5-1.5,1.1-2.5,0.8c0,0.1,0,0.2,0,0.3c0.9,0.1,1.9,0.3,2.9,0.4C73.7,57.7,73.6,57.3,73.4,56.7z M77.3,57.5
		c-0.4,0.4-0.7,0.6-0.9,0.9c-0.1,0.1-0.2,0.2-0.1,0.4c0.1,0.4,0.8,0.8,1.4,0.8C77.5,58.9,77.4,58.2,77.3,57.5z M106.3,43.5
		c-0.9-0.1-1.8-0.2-2.7-0.3c0,0.5,0.6,0.9,1.4,1C105.9,44.2,106.3,44,106.3,43.5z M106.2,62.9c0-0.1,0-0.1-0.1-0.2
		c-1.2,0.4-2.3,0.8-3.5,1.1c-0.2,0.1-0.4,0.2-0.6,0.2c-0.5,0-1.5,0.5-1.6,0.8C102.4,64.3,104.4,63.8,106.2,62.9z M99.7,54.4
		c0,0.7-0.1,1.4-0.1,2.1c0,0.1,0.2,0.3,0.3,0.4c0.2-0.1,0.3-0.2,0.4-0.4c0.1-0.1,0-0.3,0.1-0.5C100.6,55.3,100.4,54.9,99.7,54.4z
		 M88.7,61c-0.3-0.4-0.6-0.7-0.9-1c-0.1-0.1-0.2-0.2-0.3-0.3c-0.1,0.1-0.3,0.3-0.3,0.4c0,0.4,0,0.8,0.1,1.2
		C87.8,61.3,88.4,61.4,88.7,61z M74.3,35.2c0.1,0,0.3-0.1,0.6-0.1c0.1,0,0.2-0.2,0.3-0.3c-0.1-0.1-0.2-0.2-0.3-0.3
		c-0.4-0.2-0.9-0.3-1.3-0.4c-0.1,0-0.3,0-0.4,0.1c0,0-0.1,0.2,0,0.2C73.2,34.7,73.8,35.2,74.3,35.2z M104.8,40.6
		c-0.6,0.6-0.2,1.3-0.3,1.8c0.3,0.1,0.4,0.1,0.6,0.2c0.3,0,0.5-0.1,0.4-0.4C105.3,41.7,105.1,41.2,104.8,40.6z M80.6,46.4
		c-0.1-0.5-0.2-1.1-0.3-1.6c-0.3,0.1-1,1-0.9,1.3c0,0.1,0.2,0.3,0.4,0.3C80,46.4,80.3,46.4,80.6,46.4z M75.8,34.8
		c0.1,0.3,0.2,0.6,0.4,0.7c0.5,0.3,1,0.4,1.5,0.2c0.1,0,0.2-0.1,0.3-0.2c-0.1-0.1-0.2-0.2-0.3-0.3C77.2,35.1,76.6,35,75.8,34.8z
		 M100.4,49.4c-0.1,0-0.1,0-0.2-0.1c-0.1,0.3-0.2,0.5-0.2,0.8c-0.1,0.4-0.1,0.9-0.1,1.4c0,0.4,0.1,0.7,0.5,0.8
		C100.4,51.3,100.4,50.3,100.4,49.4z M98.8,55.2c-0.5,0.2-0.7,1.7-0.5,2.4c0.2-0.1,0.4-0.3,0.4-0.4C98.8,56.6,98.8,55.9,98.8,55.2z
		 M83.2,35.5c-0.1-1-0.1-2-0.2-3c-0.1,0-0.1,0-0.2,0c0,1,0,2,0,3.1c0,0,0,0,0,0C83,35.6,83.1,35.6,83.2,35.5z M97.2,20.5
		c0.3,0.9,1,1.1,2.3,0.6C98.7,20.9,97.9,20.7,97.2,20.5z M101.5,61.1c0,0,0,0.1,0,0.1c0.2,0,0.5,0.1,0.7,0.1c0.5-0.1,1-0.3,1.4-0.5
		c0.1,0,0.2-0.2,0.3-0.4c0,0-0.1-0.1-0.1-0.1C103,60.6,102.3,60.8,101.5,61.1z M75,24c-0.7-0.2-1.2-0.4-1.9-0.6
		C73.5,24.3,74.3,24.5,75,24z M78.3,55c0,0-0.1-0.1-0.1-0.1c-0.2,0.3-0.5,0.6-0.7,1c-0.1,0.1,0,0.4,0.1,0.5c0.2,0.2,0.4,0.1,0.5-0.2
		C78.1,55.8,78.2,55.4,78.3,55z M105,65.3c-0.3-0.5-0.6-0.2-0.8-0.1c-0.2,0.1-0.5,0.3-0.7,0.3c-0.4,0.1-0.7,0.1-1.1,0.1
		c0,0.1,0,0.2,0,0.2C103.4,66.1,104.1,65.4,105,65.3z M100.6,38.5c-0.1,0-0.1-0.1-0.2-0.1c-0.1,0.1-0.3,0.3-0.3,0.4
		c0,0.5-0.2,1,0.1,1.4c0.1,0,0.1,0,0.2,0C100.5,39.7,100.5,39.1,100.6,38.5z M88.5,59.3c0,0.1,0,0.2,0,0.2c0.5,0.1,1,0.2,1.5,0.2
		c0.1,0,0.2-0.2,0.3-0.5C89.5,59.3,89,59.3,88.5,59.3z M105.3,32.3c0,0-0.1,0.1-0.1,0.1c0,0.1,0.1,0.2,0.2,0.3
		c0.3,0.3,0.7,0.1,1.1,0.1c0.1,0,0.1-0.1,0.1-0.2c0-0.1-0.1-0.2-0.2-0.2C106,32.4,105.7,32.3,105.3,32.3z M92.5,59.7
		c-1.4-0.3-1.7-0.2-1.5,0.5C91.5,60.1,92,59.9,92.5,59.7z M80.2,58.2c-0.4-0.7-1-0.4-1.5-0.6C78.6,58.2,78.9,58.3,80.2,58.2z
		 M101.7,54.1c0.8,0.1,1.2,0,1.1-0.5C101.7,53.5,101.7,53.5,101.7,54.1z M70.9,55.9c0,0.1,0,0.2-0.1,0.2c0.5,0.4,1.2,0.4,1.8,0.4
		c0-0.1,0-0.1,0-0.2C72.1,56.1,71.5,56,70.9,55.9z M75.9,57.3c-0.4-0.5-1-0.4-1.6-0.7C74.6,57.2,75.2,57.4,75.9,57.3z M96,66.2
		c0,0,0,0.1,0,0.1c0.7-0.2,1.4-0.3,2.1-0.5c0.1,0,0.1-0.2,0.2-0.4C97.4,65.7,96.7,65.9,96,66.2z M94.6,19.7c0.1,0.7,0.5,0.6,0.9,0.7
		c0.2,0,0.4-0.1,0.6-0.1c0,0,0-0.1,0-0.1C95.5,20,95.1,19.9,94.6,19.7z M93.1,19.5c-0.1-0.3-0.8-0.6-1.3-0.6
		C91.9,19.4,92.3,19.5,93.1,19.5z M87.2,58c-0.3-0.4-0.5-0.7-0.8-1.1c0,0.4,0,0.8,0,1.1C86.7,58,86.9,58,87.2,58z M104.8,60.5
		c0.4-0.3,1.1-0.1,1.3-0.9c-0.3,0.2-0.5,0.3-0.8,0.4c-0.2,0.1-0.4,0.1-0.7,0.2c0-0.1,0,0,0,0C104.6,60.3,104.7,60.4,104.8,60.5z
		 M80.2,36.4c-0.2-0.7-0.7-0.8-1.2-0.3C79.3,36.1,79.7,36.2,80.2,36.4z M106.1,59.9c0,0.1,0.1,0.2,0.1,0.2c0.4-0.2,0.8-0.4,1.3-0.7
		c0-0.1-0.1-0.2-0.1-0.2C106.9,59.4,106.5,59.6,106.1,59.9z M85.1,58.7c0.3,0.7,0.6,0.7,1.2,0.3C85.9,58.9,85.5,58.8,85.1,58.7z
		 M107.6,62.6c-0.3-0.4-0.8-0.2-1.4,0.4C106.8,62.9,107.2,62.8,107.6,62.6z M80.2,25.9c0,0,0-0.1,0-0.1c-0.4-0.1-0.9-0.3-1.4-0.4
		C79.2,26.1,79.7,25.9,80.2,25.9z M102.6,43.4c0,0,0.1-0.1,0.1-0.1c-0.1-0.1-0.2-0.3-0.2-0.3c-0.2,0-0.4,0.1-0.6,0.1
		c0,0.1,0,0.2,0,0.2C102.1,43.3,102.4,43.4,102.6,43.4z M100.1,61.5c0,0.1,0,0.1,0,0.2c0.3,0,0.7,0,1-0.1c0.1,0,0.1-0.1,0.2-0.2
		c0,0-0.1-0.1-0.1-0.1C100.9,61.4,100.5,61.4,100.1,61.5z M83.9,26.7c0.3,0.5,0.5,0.8,1.1,0.4C84.6,27,84.3,26.8,83.9,26.7z
		 M97.4,53.6c0.6-0.2,0.6-0.3,0.3-0.9C97.6,53,97.5,53.3,97.4,53.6z"/>
	<path class="st2" d="M48.2,71.4c0.2-0.1,0.4-0.1,0.6-0.1c0.6,0,1.1,0.1,1.7,0.2c1.3,0.4,2.7,0.3,4,0.3c1.4,0,2.8-0.3,4.2-0.3
		c2.1-0.1,4.2-0.1,6.3-0.1c1.2,0,2.3,0,3.5,0.1c1.3,0.1,2.6,0.2,3.9,0.3c0,0,0.1,0.1,0.3,0.2c-3.3,0.4-6.5,0.3-9.6,0.8
		c0,0.1,0,0.2,0,0.3c0.9,0,1.8,0,2.7,0c0.1,0,0.1,0,0.2,0c1.1-0.1,2.3-0.1,3.4-0.2c0.9-0.1,1.8-0.2,2.7-0.3c0.5,0,1.1-0.1,1.6-0.1
		c0.8,0,1.7,0,2.5,0c1.5,0,3,0,4.5,0.1c1.3,0.1,2.6,0.4,3.9,0.5c1.4,0.2,2.9,0.4,4.3,0.1c1.1-0.2,2.3-0.2,3.5-0.2
		c2.6-0.1,5.1-0.2,7.7-0.2c0.9,0,1.7,0.1,2.6,0.2c0.3,0,0.7,0.2,0.8-0.2c-0.5-0.2-0.9-0.4-1.3-0.6c0,0,0-0.1,0-0.1
		c0.7,0.1,1.3,0.1,2,0.2c0.7,0.1,1.4,0.2,2.1,0.2c1,0,1.9,0.1,2.9,0c1.7-0.1,3.4-0.3,5.1-0.4c1.3-0.1,2.6-0.1,3.9,0
		c1.5,0.1,3.1,0.2,4.6,0.3c1.1,0.1,2.2,0.2,3.3,0.3c0,0,0,0.1,0,0.1c-0.1,0-0.2,0.1-0.3,0.1c-0.9,0-1.8,0-2.7,0
		c-1.7,0.1-3.3,0.2-5,0.3c-0.9,0.1-1.8,0.1-2.7,0.1c-1,0-1.9,0-2.9,0.1c-4.2,0.3-8.3,0.2-12.5,0.2c-1.7,0-3.5,0.2-5.2,0.3
		c-1.7,0.1-3.3,0.3-5,0.4c-1.4,0.1-2.7-0.3-4-0.7c-1.7-0.5-3.5-0.8-5.4-0.5c-1,0.1-2.1,0.1-3.2,0.1c-1.5,0.1-3,0.1-4.6,0.2
		c-1.6,0.1-3.1,0.4-4.7,0.5c-1.7,0.1-3.3-0.4-4.9-0.9c-0.7-0.2-1.5-0.5-2.2-0.5c-1.9,0-3.7,0.1-5.6,0.2c-1,0.1-2-0.2-2.9-0.4
		c-1.3-0.4-2.5-0.7-3.8-1.1C48.3,71.5,48.3,71.5,48.2,71.4z"/>
	<path class="st2" d="M63.7,80.1c-0.2,0.2-0.4,0.2-0.5,0.4c-0.6,0.8-1.3,1.5-1.9,2.3c-0.9,1.1-1.7,2.2-2.6,3.3
		c-0.1,0.1-0.1,0.1-0.2,0.2c-0.4,0.9-1.1,0.9-1.9,0.8c-0.1,0-0.3-0.1-0.4-0.2c-1.2-1.5-2.5-3.1-3.7-4.6c-0.5-0.6-0.9-1.2-1.4-1.8
		c-0.1-0.2-0.3-0.3-0.6-0.4c0,0.1,0,0.2,0,0.3c0,2.8,0,5.5,0,8.3c0,0.3-0.4,0.5-0.8,0.5c-0.2,0-0.5-0.1-0.8-0.2c0-0.2,0-0.4,0-0.5
		c0-3.2,0-6.5,0-9.7c0-0.5,0.1-0.7,0.7-0.6c0,0,0,0,0.1,0c0.9-0.2,1.4,0.3,1.9,0.9c0.7,0.9,1.4,1.8,2.1,2.7c0.6,0.8,1.2,1.6,1.8,2.4
		c0.4,0.6,0.8,1.1,1.3,1.6c0.1,0.1,0.3,0.2,0.4,0.3c1.1-1.4,2.2-2.9,3.4-4.3c0.9-1.2,1.9-2.3,2.9-3.5c0.1-0.2,0.4-0.2,0.6-0.2
		c0.1,0,0.1,0.1,0.2,0.1c0.3,0.1,0.7,0,0.9,0.2c0.2,0.2,0,0.6,0,0.9c0,0.6,0.1,1.2,0.1,1.9c0,0.7-0.1,1.4-0.1,2.1
		c0,0.6,0.1,1.3,0.1,1.9c0,0.3-0.1,0.5-0.1,0.8c0,0.6,0,1.3,0.1,1.9c0.1,0.7-0.1,1.2-0.6,1.3c-0.7,0.1-1.1-0.2-1.1-0.8
		c0-2.5,0-5,0-7.5C63.7,80.6,63.7,80.4,63.7,80.1z"/>
	<path class="st2" d="M103,79.8c0,0.4,0,0.6,0,0.7c0,2.6,0,5.3,0,7.9c0,0.6-0.2,0.7-0.8,0.6c-0.2-0.1-0.5-0.1-0.7-0.1
		c0-0.1,0-0.3,0-0.4c0-3.3,0-6.7,0-10c0-0.5,0.1-0.5,0.6-0.5c0.8,0,1.3,0.3,1.8,0.8c2.6,2.5,5.2,5,7.8,7.4c0.4,0.3,0.7,0.7,1,1.1
		c0,0,0.1,0,0.1-0.1c0-0.2,0.1-0.4,0.1-0.6c0-2.7,0-5.4,0-8c0-0.5,0.1-0.7,0.7-0.7c0.1,0,0.3,0,0.4,0c0.6,0,0.7,0.2,0.6,0.8
		c0,0.2-0.1,0.4-0.1,0.6c0,3,0,6,0,8.9c0,0.2,0,0.4,0,0.7c-0.6,0-1.1,0-1.6,0c-0.2,0-0.3-0.2-0.4-0.3c-1.5-1.5-3.1-3-4.6-4.5
		c-1.3-1.3-2.6-2.6-4-3.8C103.6,80.1,103.3,80,103,79.8z"/>
	<path class="st2" d="M80.5,98.8c0,1.5,0,2.9,0,4.4c-0.1,0-0.2,0.1-0.2,0.1c-1.4,0.1-1.4,0.1-1.4-1.3c0-3,0-6,0-9
		c0-0.5,0.1-0.7,0.7-0.7c1.7,0,3.3-0.1,5,0c1.6,0.1,3.3,0.4,4.5,1.7c0.7,0.7,0.6,2.4,0,3.1c-0.9,0.9-1.9,1.3-3.1,1.6
		c-0.1,0-0.1,0.1-0.2,0.1c-0.1,0-0.1,0-0.3,0.1c1.7,1.5,3.4,2.9,5,4.3c-1.2,0.3-2,0-2.8-0.8c-0.7-0.7-1.6-1.3-2.3-2
		c-0.4-0.4-0.8-0.8-1.2-1.1c-0.3-0.2-0.6-0.4-0.9-0.4C82.3,98.7,81.4,98.8,80.5,98.8z M80.6,97.8c1.8-0.1,3.8-0.2,5.6-0.4
		c0.7-0.1,1.4-0.5,1.6-1.2c0.5-1.2,0.2-2.3-1.3-2.8c-1.9-0.6-3.8-0.5-5.8-0.5c-0.1,0-0.3,0.3-0.3,0.5c0,0.4,0.1,0.8,0.1,1.1
		C80.6,95.7,80.6,96.7,80.6,97.8z"/>
	<path class="st2" d="M84.8,89c-0.5,0-1,0-1.5,0c0-0.3,0-0.5,0-0.7c0-3.3,0-6.6,0-9.9c0-0.4,0.1-0.5,0.5-0.5c1.7,0,3.5,0,5.2,0
		c1.5,0.1,3,0.3,4.2,1.3c1,0.9,1.3,2.3,0.2,3.5c-0.9,1-2.1,1.3-3.5,1.6c1.5,1.7,3.4,2.9,5,4.5c-0.7-0.1-1.4,0.4-2.1-0.3
		c-0.9-0.9-1.9-1.7-2.9-2.5c-0.5-0.5-1-0.9-1.6-1.3c-0.1-0.1-0.3-0.1-0.5-0.1c-0.8,0-1.7,0-2.5,0c-0.4,0-0.5,0.2-0.5,0.5
		C84.8,86.4,84.8,87.6,84.8,89z M87.3,83.6C87.3,83.5,87.3,83.5,87.3,83.6c0.5,0,1,0,1.5,0c0.9,0,1.8-0.1,2.6-0.7
		c0.5-0.4,1-0.8,1.1-1.5c0.1-0.8-0.5-1.5-1.3-1.9c-0.9-0.5-1.9-0.5-2.8-0.5c-1-0.1-2,0-3,0c-0.4,0-0.6,0.2-0.6,0.6
		c0,1.2,0,2.4,0,3.5c0,0.4,0.2,0.6,0.6,0.6C86,83.5,86.6,83.6,87.3,83.6z"/>
	<path class="st2" d="M67.6,103.4c-1.6,0-3.3-0.2-4.7-1.1c-1.4-0.8-2.3-2-2.6-3.6c-0.3-1.4,0-2.7,0.8-3.9c0.7-1.1,1.7-1.7,2.9-2.1
		c1.3-0.5,2.7-0.7,4.1-0.7c1.9,0.1,3.8,0.5,5.3,1.7c1.1,0.9,1.7,2.2,1.8,3.7c0.1,1.2-0.1,2.3-0.9,3.4c-0.7,0.9-1.6,1.6-2.6,2
		C70.3,103.2,69,103.5,67.6,103.4z M73.6,97.8c0.1-2.3-1.2-3.7-2.6-4.3c-2-0.8-4.1-0.8-6.1-0.1c-2.6,0.9-3.5,3-3,5.5
		c0.5,2.2,2.6,3.3,4.5,3.5c1,0.1,2,0.1,3-0.1C71.5,102.1,73.8,100.3,73.6,97.8z"/>
	<path class="st2" d="M104,110.3c0-0.4,0-0.8,0-1.1c0-0.4,0.1-0.5,0.5-0.5c8.6,0,17.2,0,25.7,0c0.4,0,0.5,0.1,0.5,0.5
		c0,1.1,0,1.1-1.1,1.1c-8.3,0-16.6,0-24.9,0C104.4,110.4,104.2,110.4,104,110.3z"/>
	<path class="st2" d="M73.3,108.8c0.1,0.1,0.1,0.1,0.1,0.1c0.2,1.4,0.2,1.4-1.2,1.5c-0.2,0-0.4,0-0.6,0c-7.6,0-15.2,0-22.9,0
		c-0.7,0-1.3,0-2.1,0c0-0.5,0-1,0-1.4c0-0.1,0.2-0.2,0.3-0.2c0.1,0,0.2,0,0.3,0c8.5,0,17,0,25.5,0C73,108.8,73.2,108.8,73.3,108.8z"
		/>
	<path class="st2" d="M81.7,89c-0.5,0-0.9,0.1-1.3,0c-0.2,0-0.4-0.3-0.6-0.5c-0.5-0.8-1-1.7-1.5-2.5c-0.2-0.3-0.4-0.6-0.9-0.4
		c-0.1,0.1-0.3,0-0.5,0c-2,0-3.9,0-5.9,0c-0.5,0-0.9,0.2-1.1,0.7c-0.4,0.8-0.9,1.6-1.4,2.4c-0.2,0.2-0.7,0.3-1,0.3
		c-0.2,0-0.4-0.1-0.6-0.2c0.3-0.6,0.7-1.2,1-1.7c0.9-1.5,1.8-3,2.7-4.4c0.9-1.5,1.8-3,2.7-4.4c0.1-0.2,0.3-0.3,0.5-0.3
		c1.3-0.1,1.3-0.1,2,1.2c0.9,1.4,1.8,2.9,2.6,4.3c1,1.7,2.1,3.4,3.1,5.1C81.6,88.7,81.6,88.8,81.7,89z M77.4,84.7
		c-0.1-0.3-0.2-0.5-0.3-0.6c-0.1-0.3-0.3-0.6-0.5-0.8c-0.7-1.2-1.4-2.3-2.1-3.5c-0.2-0.3-0.4-0.4-0.7,0c-0.8,1.4-1.7,2.8-2.5,4.2
		c-0.1,0.2-0.1,0.4-0.2,0.6c0.2,0,0.4,0.1,0.6,0.1c0.1,0,0.3,0,0.4,0C73.8,84.7,75.5,84.7,77.4,84.7z"/>
	<path class="st2" d="M116.1,89c0.1-0.2,0.1-0.4,0.2-0.6c1.3-2.1,2.5-4.1,3.8-6.2c0.8-1.3,1.5-2.6,2.3-3.9c0.1-0.2,0.4-0.3,0.6-0.4
		c0.1-0.1,0.3,0,0.5,0c0.5-0.1,0.8,0.1,1.1,0.6c0.5,1,1.2,2,1.8,2.9c0.8,1.3,1.6,2.6,2.3,3.9c0.7,1.1,1.4,2.3,2.1,3.5
		c-0.5,0.1-1,0.1-1.4,0.1c-0.1,0-0.3-0.2-0.3-0.3c-0.6-0.9-1.1-1.8-1.6-2.7c-0.3-0.4-0.6-0.7-1.1-0.5c-0.2,0.1-0.5,0-0.7,0
		c-1.4,0-2.8,0-4.3,0c-0.4,0-0.9,0-1.3,0c-0.5-0.1-0.7,0.2-1,0.6c-0.4,0.8-0.9,1.6-1.4,2.4c-0.2,0.3-0.4,0.5-0.8,0.4
		C116.7,88.9,116.4,89,116.1,89z M126.5,84.7c-0.1-0.3-0.1-0.5-0.2-0.6c-0.8-1.4-1.7-2.9-2.5-4.3c-0.2-0.4-0.4-0.4-0.7,0
		c-0.3,0.5-0.6,1-0.9,1.4c-0.6,1-1.2,2-1.8,3c-0.2,0.3-0.2,0.5,0.2,0.5C122.5,84.7,124.4,84.7,126.5,84.7z"/>
	<path class="st2" d="M117.1,92.3c0,0.3,0,0.5,0,0.8c-2.7,0-5.3,0-8,0c-0.2,1.2-0.2,2.4-0.1,3.6c0.1,0.4,0.3,0.5,0.6,0.5
		c2,0,4,0,5.9,0c0.2,0,0.3,0,0.5,0c0.2,0.7,0,0.9-0.6,0.9c-1.9,0-3.8,0-5.7,0c-0.2,0-0.4,0-0.7,0c0,1.3,0,2.5,0,3.7
		c0,0.4,0.3,0.6,0.7,0.6c2.5,0,5,0,7.5,0c0.3,0.8,0.2,0.9-0.6,0.9c-2.8,0-5.6,0-8.4,0c-0.8,0-0.8,0.1-0.8-0.8c0-3.2,0-6.4,0-9.6
		c0-0.3,0-0.6,0.5-0.6c3,0,6.1,0,9.1,0C116.9,92.2,117,92.2,117.1,92.3z"/>
	<path class="st2" d="M58.6,93c-0.5,0.8-0.5,0.8-1.2,0.5c-1.6-0.5-3.2-0.7-4.8-0.6c-1.7,0.2-3.3,0.6-4.3,2.2c-0.7,1-0.8,2.1-0.6,3.2
		c0.1,1,0.4,1.8,1.1,2.5c0.8,0.8,1.8,1.3,2.9,1.5c2.1,0.3,4.1,0.1,6.1-0.6c0.3-0.1,0.9,0.2,0.9,0.5c0,0.1-0.1,0.3-0.3,0.3
		c-2,0.7-4,1-6.1,0.9c-1.1-0.1-2.3-0.3-3.3-0.9c-1.5-0.8-2.6-1.9-2.9-3.7c-0.3-1.8,0.1-3.4,1.3-4.8c0.7-0.8,1.8-1.3,2.8-1.6
		c1.2-0.4,2.5-0.6,3.8-0.5C55.6,92.1,57.2,92.4,58.6,93z"/>
	<path class="st2" d="M121.6,102.3c3.1,0,6,0,9,0c0.5,0,0.7,0.2,0.5,0.6c-0.1,0.1-0.3,0.3-0.4,0.3c-3.6,0-7.2,0-11,0
		c0.1-0.3,0.2-0.7,0.3-0.8c1.1-1.1,2.3-2.2,3.5-3.2c1.4-1.3,2.7-2.7,4.1-4c0.5-0.5,1-0.9,1.5-1.3c0.1-0.1,0.2-0.3,0.4-0.5
		c-0.3,0-0.5,0-0.7,0c-2.6,0-5.1,0-7.7,0c-0.2,0-0.6,0.1-0.6-0.3c0-0.3,0-0.7,0.6-0.7c3.3,0,6.5,0,9.8,0c0.2,0,0.4,0.1,0.5,0.2
		c0.1,0.1,0,0.4-0.2,0.5c-1.1,1-2.1,2.1-3.2,3.1c-0.5,0.5-1.1,1-1.6,1.6c-1.4,1.3-2.8,2.6-4.1,3.9
		C121.9,101.7,121.8,102,121.6,102.3z"/>
	<path class="st2" d="M96.9,93.2c-0.5,0-0.9,0-1.4,0c-1.3,0-2.7,0-4,0c-0.4,0-0.6-0.1-0.6-0.5c0-0.5,0.3-0.5,0.6-0.5
		c4.1,0,8.2,0,12.3,0c0.3,0,0.7,0,0.7,0.4c0,0.4-0.3,0.6-0.7,0.6c-1.5,0-3.1,0-4.6,0c-0.5,0-0.7,0.1-0.7,0.7c0,2.8,0,5.7,0,8.5
		c0,0.8,0,0.8-0.8,0.8c-0.2,0-0.5,0-0.8,0C96.9,99.9,96.9,96.6,96.9,93.2z"/>
	<path class="st2" d="M97.8,89c-1.5,0.1-1.5,0.1-1.5-1.4c0-3,0-6,0-8.9c0-0.6,0.2-0.7,0.7-0.7c0.3,0,0.5,0,0.8,0
		C97.8,81.7,97.8,85.3,97.8,89z"/>
	<path class="st2" d="M94.7,112.1c0.8-0.6,0.8-1,0.1-1.8c-0.2-0.2-1.3-0.3-1.5-0.1c-0.5,0.4-0.5,1.3,0.1,2c-0.6,0-1.1,0-1.8,0
		c1.3-0.9,1.4-2.4,1.9-3.6c0.2-0.5,0.5-1,0.7-1.6c0.1,0,0.1,0,0.2,0c0.2,0.5,0.4,1,0.7,1.5c0.4,1,0.9,2.1,1.4,3.1
		c0.2,0.5,0.6,0.4,0.9,0c0.9-1.2,1.7-2.5,2.6-3.8c0.1-0.1,0.1-0.3,0.1-0.5c-1.2-0.2-2.1,0.1-2.8,1.2c0-0.5,0-0.8,0-1.1
		c0-0.1,0.2-0.3,0.3-0.3c1.2,0,2.5,0,3.8,0c-0.9,1.7-2.1,3.1-3,4.8c2.3,0.2,2.4,0,3.3-1.3c-0.1,0.5-0.1,1-0.2,1.5
		c0,0.1-0.2,0.2-0.3,0.2c-2.1,0-4.2,0-6.3,0C94.8,112.2,94.8,112.1,94.7,112.1z M94.1,108.4c-0.1,0-0.1,0-0.2,0
		c-0.1,0.5-0.3,0.9-0.4,1.5c0.4,0,0.8,0,1.2,0C94.5,109.3,94.3,108.8,94.1,108.4z"/>
	<path class="st2" d="M81.8,112.1c-1.9,0-3.9,0-5.9,0c0-0.1,0-0.2,0.1-0.2c0.7-0.2,0.6-0.7,0.6-1.2c0-0.9,0-1.8,0-2.7
		c0-0.6-0.1-0.8-0.6-1.1c0.8,0,1.5,0,2.3,0c-0.8,0.3-0.6,1-0.6,1.6c0,0.8,0,1.6,0,2.4c0,0.4,0.4,0.8,0.8,0.8c0.6,0,1.1,0.1,1.5-0.5
		c0.2-0.2,0.2-0.5,0.4-0.8c0,0,0.1,0,0.1,0c0,0.4,0,0.8,0,1.3c0.3-0.2,0.5-0.4,0.6-0.5c0.5-1.3,1-2.6,1.5-3.8
		c0.1-0.2,0.2-0.4,0.5-0.7c0.4,1.1,0.8,2,1.2,2.9c0.2,0.6,0.4,1.1,0.7,1.6c0.2,0.3,0.5,0.5,0.9,0.8c-0.9,0-1.7,0-2.6,0
		c0.8-0.6,0.8-1.1,0.3-1.8c-0.2-0.3-1.3-0.5-1.6-0.1c-0.2,0.3-0.4,0.7-0.4,1C81.4,111.5,81.7,111.8,81.8,112.1z M82.4,108.5
		c-0.2,0.5-0.4,0.9-0.5,1.4c0.4,0,0.8,0,1.2,0C83.1,109.3,82.9,108.7,82.4,108.5z"/>
	<path class="st2" d="M89.4,109.6c0,0.6,0,1.2,0,1.8c0,0.2,0.3,0.4,0.5,0.7c-0.7,0-1.4,0-2.2,0c0,0,0-0.1,0-0.1
		c0.8-0.2,0.7-0.8,0.7-1.4c0-0.7,0-1.4,0-2.2c0-0.6,0.1-1.2-0.8-1.4c0-0.1,0.1-0.1,0.1-0.2c1,0.1,2.1,0,3.1,0.2
		c0.6,0.1,1.1,0.9,1,1.4c-0.1,0.6-0.6,1.1-1.3,1.1C90.2,109.7,89.8,109.6,89.4,109.6z M89.4,108.3c0,0.2,0,0.4,0,0.6
		c0,0.5,0.2,0.7,0.7,0.5c0.3-0.1,0.6-0.5,0.7-0.8c0.1-0.4,0.1-1-0.4-1.2c-0.2-0.1-0.5-0.2-0.8-0.1c-0.1,0-0.1,0.4-0.2,0.7
		C89.3,108,89.4,108.2,89.4,108.3z"/>
</g>
</svg>
