<?xml version="1.0" encoding="utf-8"?>
<!-- Generator: Adobe Illustrator 27.0.1, SVG Export Plug-In . SVG Version: 6.00 Build 0)  -->
<svg version="1.1" id="Capa_1" xmlns="http://www.w3.org/2000/svg" xmlns:xlink="http://www.w3.org/1999/xlink" x="0px" y="0px"
	 viewBox="0 0 177.4 125.4" style="enable-background:new 0 0 177.4 125.4;" xml:space="preserve">
<style type="text/css">
	.st0{opacity:0.48;fill:#FFFFFF;}
	.st1{opacity:0.66;fill:#FFFFFF;}
	.st2{fill:#FFFFFF;}
	.st3{opacity:0.74;fill:#FFFFFF;}
	.st4{fill-rule:evenodd;clip-rule:evenodd;fill:#FFFFFF;}
	.st5{fill:#1D2A4C;}
</style>
<g id="r3vI48_1_">
	<g>
		<g>
			<path class="st0" d="M31.3,56.9c2.6-3.3,5.7-6,9.4-8c1.8-0.9,3.7-1.7,5.6-2.2c1.5-0.4,2.4,0.3,2.4,1.8c0,9.4,0,18.8,0,28.3
				c0,1.3-0.6,2-2,2c-3.4,0-6.8,0-10.1,0c0.5-3,0.5-5.9,0-8.9c-0.7-4.7-2.5-9-5.4-12.8C31.3,57,31.3,57,31.3,56.9z"/>
			<path class="st1" d="M31.3,56.9c0,0,0,0.1,0,0.1c-3.8,5.1-5.7,10.8-5.8,17.1c0,1.5,0.2,3.1,0.3,4.6c-3.5,0-6.9,0-10.4,0
				c-1,0-1.6-0.7-1.6-1.6c0-0.2,0-0.5,0-0.7c0-9.2,0-18.4,0-27.6c0-2,0.8-2.6,2.7-2.1c5.6,1.6,10.3,4.7,14,9.2
				C30.8,56.3,31.1,56.6,31.3,56.9z"/>
			<path class="st2" d="M70.7,62.3c1.7-3.1,3.4-6.2,5-9.2c0.3-0.6,0.6-0.7,1.2-0.7c1.1,0,2.1,0,3.2,0c0.4,0,0.6,0.1,0.6,0.6
				c0.3,6.7,0.6,13.3,0.9,20c0,0.5-0.1,0.8-0.7,0.7c-1.2,0-2.3-0.1-3.5,0c-0.6,0-0.6-0.2-0.7-0.7c-0.2-4.1-0.4-8.3-0.6-12.4
				c0-0.1,0-0.3,0-0.4c-0.3,0-0.3,0.3-0.4,0.4c-1.2,2.3-2.4,4.5-3.6,6.8c-0.2,0.5-0.6,0.6-1.1,0.7c-1.4,0.2-2.1-0.4-2.7-1.6
				c-1-2-2.1-3.9-3.2-5.8c-0.1-0.2-0.2-0.3-0.4-0.7c-0.1,2.5-0.2,4.9-0.3,7.2c-0.1,1.9-0.2,3.9-0.2,5.8c0,0.5-0.1,0.7-0.7,0.7
				c-1.1,0-2.1,0-3.2,0c-0.6,0-0.8-0.1-0.8-0.8c0.2-3.2,0.3-6.4,0.5-9.6c0.2-3.4,0.3-6.9,0.5-10.3c0-0.5,0.2-0.6,0.7-0.6
				c1.1,0,2.1,0,3.2,0c0.6,0,0.9,0.2,1.1,0.7c1.6,2.9,3.2,5.7,4.7,8.6C70.3,61.8,70.5,62,70.7,62.3z"/>
			<path class="st3" d="M25.9,78.8c-0.1-1.5-0.3-3.1-0.3-4.6c0.1-6.3,1.9-12.1,5.8-17.1c2.9,3.8,4.7,8.1,5.4,12.8
				c0.5,3,0.4,5.9,0,8.9C33.1,78.8,29.5,78.8,25.9,78.8z"/>
			<path class="st2" d="M158.2,67.5c-1.5,0-3,0-4.5,0c-0.8,0-0.8,0.3-0.6,0.8c0.6,1.4,1.7,2,3.1,2.1c1.7,0.2,3.2-0.2,4.6-1.1
				c0.4-0.3,0.6-0.2,0.9,0.2c0.4,0.7,0.8,1.3,1.3,1.9c0.2,0.3,0.2,0.4-0.1,0.7c-2.8,2.2-7.8,2.5-10.9,0.7c-2.7-1.7-3.7-4.2-3.5-7.3
				c0.4-7.3,7.5-8.9,11.5-6.6c2.3,1.3,3.2,3.5,3.5,6c0.1,0.6,0,1.2,0.1,1.8c0,0.4-0.1,0.5-0.6,0.5C161.4,67.5,159.8,67.5,158.2,67.5
				z M156,64.6c0.8,0,1.7,0,2.5,0c0.7,0,0.6-0.3,0.5-0.7c-0.3-1.3-1.6-2.2-3-2.1c-1.5,0-2.8,1-3.1,2.3c-0.1,0.4,0,0.6,0.4,0.6
				C154.3,64.5,155.2,64.6,156,64.6z"/>
			<path class="st2" d="M93.3,67.5c-1.5,0-3.1,0-4.6,0c-0.7,0-0.7,0.2-0.5,0.7c0.4,1.2,1.6,2.1,3.1,2.3c1.7,0.2,3.3-0.2,4.7-1.1
				c0.4-0.3,0.6-0.2,0.8,0.2c0.4,0.7,0.9,1.4,1.3,2.1c0.1,0.2,0.2,0.4,0,0.6c-3.2,2.5-9.8,3-12.9-0.9c-3-3.8-2.2-11.8,4.6-13
				c4.6-0.9,8.3,2.1,8.8,6.9c0.1,0.6,0,1.2,0.1,1.8c0.1,0.5-0.2,0.6-0.6,0.6C96.4,67.5,94.9,67.5,93.3,67.5z M91.1,64.6
				c0.8,0,1.6,0,2.4,0c0.8,0,0.9-0.1,0.6-0.9c-0.5-1.2-1.7-2-3-1.9c-1.5,0.1-2.7,1-3,2.3c-0.1,0.4-0.1,0.6,0.4,0.6
				C89.4,64.5,90.3,64.6,91.1,64.6z"/>
			<path class="st2" d="M114.2,62.9c0-3.3,0-6.6,0-9.9c0-0.6,0.1-0.7,0.7-0.7c1.1,0,2.3,0,3.4,0c0.6,0,0.7,0.1,0.7,0.7
				c0,5.3,0,10.5,0,15.8c0,0.6,0.1,0.9,0.8,0.8c2.6,0,5.1,0,7.7,0c0.6,0,0.7,0.1,0.7,0.7c0,0.9,0,1.8,0,2.7c0,0.4-0.1,0.6-0.5,0.6
				c-4.3,0-8.6,0-12.9,0c-0.6,0-0.5-0.4-0.5-0.7C114.2,69.6,114.2,66.3,114.2,62.9z"/>
			<path class="st2" d="M139.5,68c0-1.7,0-3.4,0-5c0-0.5-0.1-0.7-0.6-0.6c-0.6,0-1.3,0.3-1.7-0.1c-0.4-0.4-0.1-1.2-0.1-1.8
				c0-1.8,0-1.8,1.7-1.8c0.4,0,0.7,0,0.7-0.6c-0.3-4.5,3.7-7.2,8.2-6c0.8,0.2,1.5,0.5,2.2,1c0.3,0.2,0.4,0.4,0.2,0.8
				c-0.5,0.7-1,1.4-1.4,2.1c-0.2,0.3-0.4,0.3-0.7,0.1c-0.4-0.3-0.8-0.4-1.3-0.4c-1.6-0.3-2.8,0.6-2.6,2.7c0,0.4,0.3,0.3,0.5,0.3
				c0.8,0,1.5,0,2.3,0c0.5,0,0.8,0.1,0.7,0.7c-0.1,0.8,0,1.5,0,2.3c0,0.5-0.1,0.7-0.7,0.7c-0.7-0.1-1.4,0-2.2,0
				c-0.6,0-0.8,0.1-0.7,0.7c0,3.3,0,6.5,0,9.8c0,0.6-0.2,0.8-0.8,0.8c-1-0.1-2-0.1-3,0c-0.7,0-0.8-0.2-0.8-0.8
				C139.5,71.2,139.5,69.6,139.5,68z"/>
			<path class="st2" d="M102.1,65.8c0-1,0-2,0-3c0-0.4-0.1-0.6-0.5-0.5c0,0-0.1,0-0.1,0c-1.8,0-1.8,0-1.8-1.9c0-1.8,0-1.8,1.7-1.8
				c0.5,0,0.7-0.2,0.6-0.7c0-0.9,0-1.9,0-2.8c0-0.4,0.1-0.6,0.5-0.5c1.2,0,2.3,0,3.5,0c0.4,0,0.6,0.1,0.6,0.6c0,0.9,0.1,1.7,0,2.6
				c-0.1,0.8,0.2,0.9,0.9,0.9c0.8-0.1,1.5,0,2.3,0c0.5,0,0.7,0.1,0.6,0.6c0,0.8,0,1.7,0,2.5c0,0.5-0.2,0.6-0.6,0.6
				c-0.9,0-1.7,0-2.6,0c-0.5,0-0.7,0.1-0.7,0.6c0,1.8,0,3.5,0,5.3c0,2,1.3,2.8,3.1,1.8c0.8-0.4,1.1-0.3,1.4,0.4c0.3,0.5,0.6,1,1,1.5
				c0.2,0.3,0.3,0.5-0.1,0.7c-2.1,1.5-4.4,1.9-6.9,1c-2.4-0.8-3-2.8-3.1-5.1C102,67.7,102.1,66.8,102.1,65.8
				C102.1,65.8,102.1,65.8,102.1,65.8z"/>
			<path class="st2" d="M134.7,66.1c0,2.2,0,4.5,0,6.7c0,0.7-0.2,0.8-0.8,0.8c-1.1-0.1-2.1,0-3.2,0c-0.4,0-0.6,0-0.6-0.5
				c0-4.7,0-9.3,0-14c0-0.4,0.1-0.5,0.6-0.5c1.1,0,2.3,0,3.4,0c0.5,0,0.6,0.1,0.6,0.6C134.7,61.5,134.7,63.8,134.7,66.1z"/>
			<path class="st2" d="M129.9,54.3c0-1.4,1.2-2.6,2.6-2.5c1.5,0,2.6,1.1,2.5,2.7c0,1.4-1.2,2.5-2.6,2.5
				C130.9,56.9,129.9,55.8,129.9,54.3z"/>
		</g>
	</g>
</g>
</svg>
