<?xml version="1.0" encoding="UTF-8"?>
<svg id="Capa_15" data-name="Capa 15" xmlns="http://www.w3.org/2000/svg" viewBox="0 0 177.4 125.4">
  <defs>
    <style>
      .cls-1 {
        opacity: .66;
      }

      .cls-1, .cls-2, .cls-3, .cls-4 {
        fill: #fff;
        stroke-width: 0px;
      }

      .cls-1, .cls-2, .cls-4 {
        isolation: isolate;
      }

      .cls-2 {
        opacity: .48;
      }

      .cls-4 {
        opacity: .74;
      }
    </style>
  </defs>
  <g id="r3vI48">
    <g>
      <path class="cls-2" d="M37.32,57.54c2.33-2.95,5.1-5.37,8.41-7.16,1.61-.81,3.31-1.52,5.01-1.97,1.34-.36,2.15.27,2.15,1.61v25.33c0,1.16-.54,1.79-1.79,1.79h-9.04c.45-2.69.45-5.28,0-7.97-.63-4.21-2.24-8.06-4.83-11.46q.09-.09.09-.18Z"/>
      <path class="cls-1" d="M37.32,57.54v.09c-3.4,4.57-5.1,9.67-5.19,15.31,0,1.34.18,2.78.27,4.12h-9.31c-.9,0-1.43-.63-1.43-1.43v-25.33c0-1.79.72-2.33,2.42-1.88,5.01,1.43,9.22,4.21,12.53,8.24.27.36.54.63.72.9Z"/>
      <path class="cls-3" d="M72.59,62.37c1.52-2.78,3.04-5.55,4.48-8.24.27-.54.54-.63,1.07-.63h2.86c.36,0,.54.09.54.54.27,6,.54,11.91.81,17.9,0,.45-.09.72-.63.63-1.07,0-2.06-.09-3.13,0-.54,0-.54-.18-.63-.63-.18-3.67-.36-7.43-.54-11.1v-.36c-.27,0-.27.27-.36.36-1.07,2.06-2.15,4.03-3.22,6.09-.18.45-.54.54-.98.63-1.25.18-1.88-.36-2.42-1.43-.9-1.79-1.88-3.49-2.86-5.19-.09-.18-.18-.27-.36-.63-.09,2.24-.18,4.39-.27,6.45-.09,1.7-.18,3.49-.18,5.19,0,.45-.09.63-.63.63h-2.86c-.54,0-.72-.09-.72-.72.18-2.86.27-5.73.45-8.59.18-3.04.27-6.18.45-9.22,0-.45.18-.54.63-.54h2.86c.54,0,.81.18.98.63,1.43,2.6,2.86,5.1,4.21,7.7.09.09.27.27.45.54Z"/>
      <path class="cls-4" d="M32.48,77.14c-.09-1.34-.27-2.78-.27-4.12.09-5.64,1.7-10.83,5.19-15.31,2.6,3.4,4.21,7.25,4.83,11.46.45,2.69.36,5.28,0,7.97-3.31,0-6.53,0-9.76,0Z"/>
      <path class="cls-3" d="M150.91,67.03h-4.03c-.72,0-.72.27-.54.72.54,1.25,1.52,1.79,2.78,1.88,1.52.18,2.86-.18,4.12-.98.36-.27.54-.18.81.18.36.63.72,1.16,1.16,1.7.18.27.18.36-.09.63-2.51,1.97-6.98,2.24-9.76.63-2.42-1.52-3.31-3.76-3.13-6.53.36-6.53,6.71-7.97,10.29-5.91,2.06,1.16,2.86,3.13,3.13,5.37.09.54,0,1.07.09,1.61,0,.36-.09.45-.54.45-1.43.27-2.86.27-4.3.27ZM148.95,64.43h2.24c.63,0,.54-.27.45-.63-.27-1.16-1.43-1.97-2.69-1.88-1.34,0-2.51.9-2.78,2.06-.09.36,0,.54.36.54.9-.18,1.7-.09,2.42-.09Z"/>
      <path class="cls-3" d="M92.82,67.03h-4.12c-.63,0-.63.18-.45.63.36,1.07,1.43,1.88,2.78,2.06,1.52.18,2.95-.18,4.21-.98.36-.27.54-.18.72.18.36.63.81,1.25,1.16,1.88.09.18.18.36,0,.54-2.86,2.24-8.77,2.69-11.55-.81-2.69-3.4-1.97-10.56,4.12-11.64,4.12-.81,7.43,1.88,7.88,6.18.09.54,0,1.07.09,1.61.09.45-.18.54-.54.54-1.52-.18-2.86-.18-4.3-.18ZM90.85,64.43h2.15c.72,0,.81-.09.54-.81-.45-1.07-1.52-1.79-2.69-1.7-1.34.09-2.42.9-2.69,2.06-.09.36-.09.54.36.54.81-.18,1.61-.09,2.33-.09Z"/>
      <path class="cls-3" d="M111.53,62.91v-8.86c0-.54.09-.63.63-.63h3.04c.54,0,.63.09.63.63v14.14c0,.54.09.81.72.72h6.89c.54,0,.63.09.63.63v2.42c0,.36-.09.54-.45.54h-11.55c-.54,0-.45-.36-.45-.63-.09-2.95-.09-5.91-.09-8.95Z"/>
      <path class="cls-3" d="M134.17,67.47v-4.48c0-.45-.09-.63-.54-.54-.54,0-1.16.27-1.52-.09-.36-.36-.09-1.07-.09-1.61q0-1.61,1.52-1.61c.36,0,.63,0,.63-.54-.27-4.03,3.31-6.45,7.34-5.37.72.18,1.34.45,1.97.9.27.18.36.36.18.72-.45.63-.9,1.25-1.25,1.88-.18.27-.36.27-.63.09-.36-.27-.72-.36-1.16-.36-1.43-.27-2.51.54-2.33,2.42,0,.36.27.27.45.27h2.06c.45,0,.72.09.63.63-.09.72,0,1.34,0,2.06,0,.45-.09.63-.63.63-.63-.09-1.25,0-1.97,0-.54,0-.72.09-.63.63v8.77c0,.54-.18.72-.72.72-.9-.09-1.79-.09-2.69,0-.63,0-.72-.18-.72-.72.09-1.52.09-2.95.09-4.39Z"/>
      <path class="cls-3" d="M100.7,65.51v-2.69c0-.36-.09-.54-.45-.45h-.09q-1.61,0-1.61-1.7t1.52-1.61c.45,0,.63-.18.54-.63v-2.51c0-.36.09-.54.45-.45h3.13c.36,0,.54.09.54.54,0,.81.09,1.52,0,2.33-.09.72.18.81.81.81.72-.09,1.34,0,2.06,0,.45,0,.63.09.54.54v2.24c0,.45-.18.54-.54.54h-2.33c-.45,0-.63.09-.63.54v4.74c0,1.79,1.16,2.51,2.78,1.61.72-.36.98-.27,1.25.36.27.45.54.9.9,1.34.18.27.27.45-.09.63-1.88,1.34-3.94,1.7-6.18.9-2.15-.72-2.69-2.51-2.78-4.57.09-.81.18-1.61.18-2.51h0Z"/>
      <path class="cls-3" d="M129.88,65.77v6c0,.63-.18.72-.72.72-.98-.09-1.88,0-2.86,0-.36,0-.54,0-.54-.45v-12.53c0-.36.09-.45.54-.45h3.04c.45,0,.54.09.54.54v6.18Z"/>
      <path class="cls-3" d="M125.58,55.21c0-1.25,1.07-2.33,2.33-2.24,1.34,0,2.33.98,2.24,2.42,0,1.25-1.07,2.24-2.33,2.24-1.34-.09-2.24-1.07-2.24-2.42Z"/>
    </g>
  </g>
</svg>