<?xml version="1.0" encoding="UTF-8"?>
<svg xmlns="http://www.w3.org/2000/svg" viewBox="0 0 177.4 125.4">
  <defs>
    <style>
      .cls-1 {
        isolation: isolate;
      }

      .cls-2 {
        fill: none;
        opacity: .5;
        stroke: #bbbcc2;
        stroke-miterlimit: 10;
        stroke-width: .31px;
      }

      .cls-3, .cls-4 {
        fill: #fff;
      }

      .cls-5 {
        mix-blend-mode: overlay;
      }

      .cls-4 {
        stroke-width: 0px;
      }
    </style>
  </defs>
  <g class="cls-1">
    <g id="Capa_2" data-name="Capa 2">
      <g>
        <g>
          <path class="cls-4" d="M67.03,59.6v-11.65h2.24l4.67,7.78v-7.78h2.14v11.65h-2.31l-4.6-7.6v7.6h-2.14Z"/>
          <path class="cls-4" d="M82.96,56.91l2.18.37c-.28.82-.72,1.44-1.33,1.86-.6.43-1.36.64-2.27.64-1.44,0-2.5-.48-3.19-1.44-.54-.77-.82-1.74-.82-2.91,0-1.4.36-2.49,1.07-3.29.72-.79,1.62-1.19,2.71-1.19,1.23,0,2.2.41,2.91,1.24.71.83,1.05,2.1,1.02,3.81h-5.48c.02.66.19,1.18.53,1.55.34.37.76.55,1.26.55.34,0,.63-.1.86-.29.23-.19.41-.5.53-.92ZM83.08,54.65c-.02-.65-.18-1.14-.49-1.47-.31-.34-.69-.5-1.14-.5-.48,0-.87.18-1.18.53-.31.36-.46.84-.46,1.45h3.27Z"/>
          <path class="cls-4" d="M88.35,53.73l-1.98-.37c.22-.82.61-1.42,1.15-1.81.54-.39,1.35-.59,2.43-.59.97,0,1.7.12,2.18.35.48.24.81.54,1.01.9.19.36.29,1.03.29,2l-.02,2.61c0,.74.04,1.29.11,1.64.07.35.2.73.39,1.13h-2.16c-.06-.15-.13-.37-.21-.66-.04-.13-.06-.22-.08-.26-.37.37-.77.65-1.2.83-.43.19-.88.28-1.36.28-.85,0-1.52-.24-2.01-.71-.49-.47-.74-1.07-.74-1.79,0-.48.11-.9.33-1.28.22-.37.54-.66.94-.86.4-.2.98-.37,1.74-.52,1.02-.2,1.73-.38,2.12-.55v-.22c0-.43-.1-.74-.31-.92-.21-.18-.6-.27-1.17-.27-.39,0-.69.08-.91.23-.22.16-.39.43-.53.82ZM91.28,55.54c-.28.1-.72.21-1.33.34-.61.13-1,.26-1.19.39-.29.21-.43.47-.43.79s.11.58.34.81c.23.23.52.34.87.34.39,0,.77-.13,1.13-.4.26-.2.44-.45.52-.74.06-.19.09-.55.09-1.09v-.45Z"/>
          <path class="cls-4" d="M97.35,59.6h-2.19v-8.44h2.03v1.2c.35-.57.66-.94.94-1.12.28-.18.59-.27.95-.27.5,0,.98.14,1.44.42l-.68,1.95c-.37-.24-.71-.37-1.03-.37s-.57.09-.78.26c-.21.17-.38.48-.5.93-.12.45-.18,1.39-.18,2.83v2.61Z"/>
          <path class="cls-4" d="M100.37,57.19l2.19-.34c.09.43.28.76.57.99.29.23.68.34,1.2.34.57,0,.99-.11,1.28-.32.19-.15.29-.35.29-.6,0-.17-.05-.31-.16-.42-.11-.11-.35-.2-.73-.29-1.76-.4-2.88-.76-3.35-1.09-.65-.46-.98-1.09-.98-1.9,0-.73.28-1.35.85-1.84.57-.5,1.44-.75,2.63-.75s1.97.19,2.52.56c.55.38.93.93,1.14,1.67l-2.06.39c-.09-.33-.26-.58-.5-.76-.25-.17-.6-.26-1.05-.26-.58,0-.99.08-1.24.25-.17.12-.25.27-.25.45,0,.16.07.29.22.41.2.15.88.36,2.04.63,1.16.27,1.98.6,2.44.99.46.4.68.95.68,1.66,0,.77-.32,1.44-.95,2-.63.56-1.57.83-2.81.83-1.13,0-2.02-.23-2.67-.7-.66-.47-1.09-1.1-1.29-1.9Z"/>
          <path class="cls-4" d="M111.86,47.94v4.28c.71-.84,1.55-1.26,2.53-1.26.5,0,.96.1,1.36.29.4.19.71.43.91.73.2.3.34.63.42.99.08.36.11.92.11,1.68v4.95h-2.19v-4.46c0-.88-.04-1.45-.12-1.69-.08-.24-.23-.43-.44-.57-.21-.14-.47-.21-.79-.21-.36,0-.69.09-.97.27-.29.18-.49.45-.63.81-.13.36-.2.9-.2,1.61v4.23h-2.19v-11.65h2.19Z"/>
          <path class="cls-4" d="M118.59,55.26c0-.74.18-1.46.54-2.15.36-.69.86-1.22,1.52-1.59.66-.37,1.39-.55,2.2-.55,1.25,0,2.27.41,3.07,1.24.8.83,1.2,1.88,1.2,3.14s-.4,2.34-1.21,3.18c-.81.84-1.82,1.26-3.05,1.26-.76,0-1.48-.17-2.17-.52-.69-.35-1.21-.86-1.57-1.54s-.54-1.5-.54-2.47ZM120.83,55.37c0,.84.19,1.48.58,1.92.39.45.87.67,1.44.67s1.05-.22,1.44-.67c.39-.45.58-1.09.58-1.94s-.19-1.46-.58-1.91c-.39-.45-.86-.67-1.44-.67s-1.05.22-1.44.67c-.39.45-.58,1.09-.58,1.92Z"/>
          <path class="cls-4" d="M130.6,59.6h-2.19v-8.44h2.03v1.2c.35-.57.66-.94.94-1.12.28-.18.59-.27.95-.27.5,0,.98.14,1.44.42l-.68,1.95c-.37-.24-.71-.37-1.03-.37s-.57.09-.78.26c-.21.17-.38.48-.5.93-.12.45-.18,1.39-.18,2.83v2.61Z"/>
          <path class="cls-4" d="M134.39,50.01v-2.07h2.19v2.07h-2.19ZM134.39,59.6v-8.44h2.19v8.44h-2.19Z"/>
          <path class="cls-4" d="M146.01,59.6h-2.19v-4.31c0-.91-.05-1.5-.14-1.77-.09-.27-.24-.48-.45-.62-.21-.15-.46-.22-.76-.22-.38,0-.72.11-1.02.32-.3.21-.51.49-.62.84-.11.35-.17,1-.17,1.94v3.82h-2.19v-8.44h2.03v1.24c.72-.95,1.63-1.43,2.72-1.43.48,0,.92.09,1.32.27.4.18.7.4.91.68.2.28.35.59.43.94.08.35.12.85.12,1.5v5.25Z"/>
          <path class="cls-4" d="M147.7,60.15l2.5.31c.04.3.14.5.29.61.21.16.53.24.98.24.57,0,1-.09,1.28-.26.19-.12.34-.3.44-.56.07-.19.1-.53.1-1.03v-1.23c-.65.91-1.48,1.37-2.47,1.37-1.11,0-1.99-.48-2.64-1.44-.51-.76-.76-1.7-.76-2.83,0-1.42.33-2.5,1-3.24.67-.75,1.49-1.12,2.49-1.12s1.86.46,2.53,1.38v-1.18h2.05v7.58c0,1-.08,1.74-.24,2.23-.16.49-.39.88-.68,1.16-.29.28-.68.5-1.16.66-.48.16-1.1.24-1.84.24-1.4,0-2.39-.25-2.98-.74-.59-.49-.88-1.11-.88-1.86,0-.07,0-.16,0-.27ZM149.66,55.2c0,.9.17,1.55.51,1.97.34.42.76.62,1.26.62.53,0,.99-.21,1.35-.64.37-.43.55-1.06.55-1.9s-.18-1.52-.53-1.95c-.35-.42-.8-.64-1.34-.64s-.96.21-1.3.62c-.34.42-.51,1.05-.51,1.9Z"/>
        </g>
        <g>
          <path class="cls-4" d="M75.12,69.65v-3.97h.76v1.43c.23-.27.51-.4.83-.4.35,0,.64.13.87.38.23.25.34.62.34,1.09s-.12.87-.35,1.14c-.23.27-.52.4-.85.4-.16,0-.33-.04-.49-.12-.16-.08-.3-.2-.41-.36v.42h-.71ZM75.88,68.15c0,.3.05.52.14.66.13.2.31.3.53.3.17,0,.31-.07.43-.22.12-.14.18-.37.18-.68,0-.33-.06-.57-.18-.71-.12-.15-.27-.22-.46-.22s-.33.07-.46.21c-.12.14-.18.36-.18.65Z"/>
          <path class="cls-4" d="M78.18,66.78h.81l.69,2.04.67-2.04h.79l-1.02,2.77-.18.5c-.07.17-.13.3-.19.38-.06.09-.13.16-.21.22s-.18.1-.29.13c-.11.03-.24.05-.39.05s-.29-.02-.43-.05l-.07-.6c.12.02.23.04.32.04.18,0,.31-.05.39-.16s.15-.24.2-.4l-1.09-2.89Z"/>
        </g>
        <g>
          <path class="cls-2" d="M99.89,63.07c-.21,0-.42,0-.62.03-3.45.31-6.16,3.22-6.16,6.75,0,3.74,3.04,6.78,6.78,6.78.98,0,1.92-.21,2.76-.58v-1.61c-.8.48-1.75.76-2.75.76-2.96,0-5.35-2.4-5.35-5.35s2.4-5.35,5.35-5.35h5.41l-.02,8.05h-1.27l.04-6.78h-4.16c-2.25,0-4.08,1.83-4.08,4.08s1.83,4.08,4.08,4.08c1.09,0,2.08-.43,2.82-1.13v1.12h3.96v-10.85h-6.78ZM102.59,69.85c0,1.49-1.21,2.69-2.69,2.69s-2.69-1.21-2.69-2.69,1.21-2.69,2.69-2.69h2.69v2.69Z"/>
          <polygon class="cls-4" points="118.19 63.07 118.19 63.07 118.04 63.07 114.22 69.4 110.47 63.07 110.23 63.07 107.86 63.07 107.86 63.51 107.86 73.93 110.74 73.93 110.74 68.3 113.49 72.88 114.94 72.88 117.67 68.32 117.67 73.93 120.56 73.93 120.56 63.51 120.56 63.07 120.56 63.07 118.19 63.07"/>
          <path class="cls-4" d="M88.5,63.07h-5.79v10.83h3.12v-2.81h2.66c2.2,0,3.98-1.79,3.98-4.01s-1.78-4.01-3.98-4.01ZM87.94,68.63h-2.15v-3.07h2.15c.85,0,1.53.69,1.53,1.53s-.69,1.53-1.53,1.53Z"/>
          <g class="cls-5">
            <path class="cls-3" d="M99.89,63.07c-.21,0-.42,0-.62.03-3.45.31-6.16,3.22-6.16,6.75,0,3.74,3.04,6.78,6.78,6.78.98,0,1.92-.21,2.76-.58v-1.61c-.8.48-1.75.76-2.75.76-2.96,0-5.35-2.4-5.35-5.35s2.4-5.35,5.35-5.35h5.41l-.02,8.05h-1.27l.04-6.78h-4.16c-2.25,0-4.08,1.83-4.08,4.08s1.83,4.08,4.08,4.08c1.09,0,2.08-.43,2.82-1.13v1.12h3.96v-10.85h-6.78ZM102.59,69.85c0,1.49-1.21,2.69-2.69,2.69s-2.69-1.21-2.69-2.69,1.21-2.69,2.69-2.69h2.69v2.69Z"/>
          </g>
          <path class="cls-4" d="M122.41,73.28c0,.4-.31.71-.72.71s-.72-.31-.72-.71.32-.7.72-.7.72.31.72.7ZM121.16,73.28c0,.31.23.56.55.56s.53-.25.53-.55-.23-.56-.54-.56-.54.25-.54.56ZM121.59,73.64h-.16v-.7c.06-.01.15-.02.27-.02.13,0,.19.02.24.05.04.03.07.09.07.15,0,.08-.06.14-.14.16h0c.07.03.11.09.13.18.02.11.03.15.05.17h-.17s-.03-.09-.06-.17c-.01-.08-.06-.11-.14-.11h-.08v.28ZM121.59,73.25h.08c.09,0,.16-.03.16-.1,0-.06-.05-.11-.15-.11-.04,0-.07,0-.09,0v.2Z"/>
        </g>
        <g>
          <path class="cls-4" d="M124.02,67.8v-4.19h.5l.89,2.51-.05-1.14v-1.37h.57v4.19h-.45l-.91-2.6.04,1.1v1.5h-.59Z"/>
          <path class="cls-4" d="M126.57,67.8v-4.19h1.4v.55h-.77v1.22h.73v.54h-.73v1.33h.8v.55h-1.43Z"/>
          <path class="cls-4" d="M128.22,67.8l.6-4.19h.84l.64,4.19h-.6l-.1-.75h-.68l-.09.75h-.61ZM128.99,66.54h.55l-.28-2.1h0l-.26,2.1Z"/>
          <path class="cls-4" d="M130.68,67.8v-4.19h1.05c.22,0,.38.04.49.13.11.09.18.21.21.38s.05.37.05.6-.02.44-.07.58-.15.23-.31.28c.07.01.13.04.18.09.05.05.09.12.12.2.03.09.05.2.07.35.01.14.02.31.02.52v.13c0,.07,0,.16,0,.26s0,.2,0,.3c0,.1,0,.18,0,.25,0,.07,0,.11.01.12h-.64s0-.05-.01-.12c0-.07,0-.17,0-.28,0-.11,0-.24,0-.37s0-.26,0-.39v-.34c0-.13,0-.22-.03-.28-.02-.06-.05-.11-.1-.13-.05-.03-.12-.04-.21-.05h-.2s0,1.97,0,1.97h-.64ZM131.32,65.33h.25c.08,0,.14-.02.18-.05.04-.03.07-.1.08-.19s.02-.23.02-.4v-.03c0-.15,0-.26-.02-.34-.01-.08-.04-.13-.09-.16-.05-.03-.12-.05-.21-.05h-.22v1.23Z"/>
          <path class="cls-4" d="M134.34,67.8v-1.67l-.7-2.52h.61l.41,1.57h0l.37-1.57h.61l-.67,2.52v1.67h-.64Z"/>
          <path class="cls-4" d="M136.88,67.85c-.22,0-.39-.05-.53-.14-.14-.09-.24-.23-.3-.41-.07-.18-.1-.4-.1-.67v-1.92c0-.24.03-.45.1-.62.06-.17.16-.3.3-.4.14-.09.32-.14.54-.14.17,0,.31.03.43.08.12.05.21.13.28.23.07.1.12.22.16.36.03.14.05.3.05.48v1.92c0,.27-.03.49-.09.67-.06.18-.16.32-.3.41-.13.09-.31.14-.53.14ZM136.88,67.29c.08,0,.14-.02.18-.07.04-.05.07-.12.08-.22s.02-.22.02-.37v-1.95c0-.18-.02-.32-.05-.42-.03-.1-.11-.15-.22-.15s-.19.05-.24.14c-.04.1-.06.24-.06.42v1.95c0,.15,0,.28.02.37.01.1.04.17.08.22s.1.07.19.07Z"/>
          <path class="cls-4" d="M139.27,67.85c-.22,0-.39-.04-.53-.12s-.24-.21-.3-.37c-.06-.17-.1-.38-.1-.63v-3.11h.64v3.1c0,.12,0,.22.02.31s.04.16.07.21c.04.05.1.07.2.07s.16-.02.2-.07c.04-.05.07-.12.07-.21,0-.09.01-.19.01-.31v-3.1h.64v3.11c0,.25-.03.46-.09.63-.06.17-.16.29-.3.37s-.31.12-.53.12Z"/>
          <path class="cls-4" d="M140.79,67.8v-4.19h1.05c.22,0,.38.04.49.13.11.09.18.21.21.38s.05.37.05.6-.02.44-.07.58-.15.23-.31.28c.07.01.13.04.18.09.05.05.09.12.12.2.03.09.05.2.07.35.01.14.02.31.02.52v.13c0,.07,0,.16,0,.26s0,.2,0,.3c0,.1,0,.18,0,.25,0,.07,0,.11.01.12h-.64s0-.05-.01-.12c0-.07,0-.17,0-.28,0-.11,0-.24,0-.37s0-.26,0-.39v-.34c0-.13,0-.22-.03-.28-.02-.06-.05-.11-.1-.13-.05-.03-.12-.04-.21-.05h-.2s0,1.97,0,1.97h-.64ZM141.43,65.33h.25c.08,0,.14-.02.18-.05.04-.03.07-.1.08-.19s.02-.23.02-.4v-.03c0-.15,0-.26-.02-.34-.01-.08-.04-.13-.09-.16-.05-.03-.12-.05-.21-.05h-.22v1.23Z"/>
        </g>
        <g>
          <path class="cls-4" d="M126.72,71.02c.19-.1.35-.27.47-.48s.18-.46.18-.73c0-.29-.07-.55-.21-.79-.14-.23-.31-.39-.52-.48-.2-.09-.56-.14-1.06-.14h-1.84v5.59h1.56c.68,0,1.11-.02,1.29-.07.27-.07.5-.24.69-.52.2-.28.29-.63.29-1.03,0-.34-.08-.62-.23-.85-.15-.23-.37-.4-.64-.5ZM124.67,69.33h.53c.49,0,.78.01.89.04.1.03.19.09.26.19s.11.24.11.4c0,.19-.04.33-.13.44-.09.11-.21.17-.37.2-.09.01-.31.02-.68.02h-.61v-1.29ZM126.53,72.76c-.07.12-.16.19-.27.23-.11.04-.35.06-.73.06h-.86v-1.49h.75c.4,0,.66.02.79.07.13.04.23.13.31.24.08.12.12.27.12.45s-.04.32-.11.44Z"/>
          <path class="cls-4" d="M131.1,71.5c0,.56-.02.92-.07,1.09s-.14.3-.28.4-.31.14-.52.14c-.25,0-.46-.07-.61-.2-.15-.13-.25-.33-.29-.57-.02-.14-.03-.45-.03-.92v-3.03h-.92v2.98c0,.84.06,1.41.18,1.72.12.31.32.55.58.72.27.17.64.26,1.12.26s.83-.1,1.11-.31c.28-.21.46-.48.54-.81.08-.33.12-.88.12-1.63v-2.94h-.92v3.09Z"/>
          <path class="cls-4" d="M135.85,70.94c-.21-.15-.54-.29-1.01-.43-.44-.12-.72-.24-.84-.34s-.18-.23-.18-.38.07-.28.2-.39c.13-.1.33-.16.58-.16s.44.06.58.18c.13.12.22.33.26.63l.93-.05c-.02-.54-.18-.96-.48-1.26-.3-.29-.72-.44-1.26-.44-.36,0-.66.06-.9.19s-.44.31-.57.55c-.14.24-.21.52-.21.82,0,.26.05.51.16.73s.25.41.44.55c.18.14.47.27.87.39.44.13.72.23.83.29.11.06.2.13.26.22.06.09.08.2.08.32,0,.22-.08.4-.24.54s-.38.22-.66.22c-.56,0-.9-.36-1-1.07l-.9.11c.13,1.28.75,1.92,1.88,1.92.64,0,1.1-.17,1.4-.5.3-.33.45-.74.45-1.22,0-.34-.05-.62-.16-.86-.11-.24-.27-.43-.47-.58Z"/>
          <rect class="cls-4" x="137.24" y="68.4" width=".92" height="5.59"/>
          <polygon class="cls-4" points="141.84 72.14 139.96 68.4 139.06 68.4 139.06 73.99 139.93 73.99 139.93 70.35 141.77 73.99 142.7 73.99 142.7 68.4 141.84 68.4 141.84 72.14"/>
          <polygon class="cls-4" points="144.6 71.53 146.91 71.53 146.91 70.59 144.6 70.59 144.6 69.35 147.08 69.35 147.08 68.4 143.68 68.4 143.68 73.99 147.17 73.99 147.17 73.05 144.6 73.05 144.6 71.53"/>
          <path class="cls-4" d="M150.81,70.94c-.21-.15-.54-.29-1.01-.43-.44-.12-.72-.24-.84-.34s-.18-.23-.18-.38.07-.28.2-.39c.13-.1.33-.16.58-.16s.44.06.58.18c.13.12.22.33.26.63l.93-.05c-.02-.54-.18-.96-.48-1.26-.3-.29-.72-.44-1.26-.44-.36,0-.66.06-.9.19s-.44.31-.57.55c-.14.24-.21.52-.21.82,0,.26.05.51.16.73s.25.41.44.55c.18.14.47.27.87.39.44.13.72.23.83.29.11.06.2.13.26.22.06.09.08.2.08.32,0,.22-.08.4-.24.54s-.38.22-.66.22c-.56,0-.9-.36-1-1.07l-.9.11c.13,1.28.75,1.92,1.88,1.92.64,0,1.1-.17,1.4-.5.3-.33.45-.74.45-1.22,0-.34-.05-.62-.16-.86-.11-.24-.27-.43-.47-.58Z"/>
          <path class="cls-4" d="M155.55,71.51c-.11-.24-.27-.43-.47-.58-.21-.15-.54-.29-1.01-.43-.44-.12-.72-.24-.84-.34s-.18-.23-.18-.38.07-.28.2-.39c.13-.1.33-.16.58-.16s.44.06.58.18c.13.12.22.33.26.63l.93-.05c-.02-.54-.18-.96-.48-1.26-.3-.29-.72-.44-1.26-.44-.36,0-.66.06-.9.19s-.44.31-.57.55c-.14.24-.21.52-.21.82,0,.26.05.51.16.73s.25.41.44.55c.18.14.47.27.87.39.44.13.72.23.83.29.11.06.2.13.26.22.06.09.08.2.08.32,0,.22-.08.4-.24.54s-.38.22-.66.22c-.56,0-.9-.36-1-1.07l-.9.11c.13,1.28.75,1.92,1.88,1.92.64,0,1.1-.17,1.4-.5.3-.33.45-.74.45-1.22,0-.34-.05-.62-.16-.86Z"/>
        </g>
        <path class="cls-4" d="M64.47,62.66c0-.06-.01-.12-.02-.18,0-.04-.02-.09-.02-.13,0-.04-.02-.07-.02-.11,0-.03-.02-.07-.02-.1,0-.03-.02-.06-.02-.09,0-.03-.02-.06-.02-.08,0-.02-.02-.05-.02-.07,0-.02-.02-.05-.02-.07,0-.02-.02-.05-.02-.07,0-.02-.02-.04-.02-.06,0-.02-.02-.04-.02-.06,0-.02-.02-.04-.02-.06,0-.02-.02-.04-.02-.05s-.02-.04-.02-.05c0-.02-.02-.04-.02-.05,0-.02-.02-.03-.02-.05,0-.02-.02-.03-.02-.05s-.02-.03-.02-.05c0-.01-.02-.03-.02-.04,0-.01-.02-.03-.02-.04,0-.01-.02-.03-.02-.04,0-.01-.02-.03-.02-.04,0-.01-.02-.03-.02-.04,0-.01-.02-.02-.02-.04,0-.01-.02-.02-.02-.04s-.02-.02-.02-.04c0-.01-.02-.02-.02-.04,0-.01-.02-.02-.02-.03,0-.01-.02-.02-.02-.03,0-.01-.02-.02-.02-.03,0-.01-.02-.02-.02-.03,0-.01-.02-.02-.02-.03,0-.01-.02-.02-.02-.03,0-.01-.02-.02-.02-.03s-.02-.02-.02-.03c0,0-.02-.02-.02-.03,0,0-.02-.02-.02-.03,0,0-.02-.02-.02-.03,0,0-.02-.02-.02-.03s-.02-.02-.02-.03-.02-.02-.02-.03c0,0-.02-.02-.02-.03,0,0-.02-.02-.02-.02,0,0-.02-.02-.02-.02s-.02-.02-.02-.02c0,0-.02-.02-.02-.02,0,0-.02-.02-.02-.02,0,0-.02-.02-.02-.02,0,0-.02-.02-.02-.02,0,0-.02-.02-.02-.02,0,0-.02-.02-.02-.02,0,0-.02-.02-.02-.02,0,0-.02-.01-.02-.02,0,0-.02-.01-.02-.02,0,0-.02-.01-.02-.02,0,0-.02-.01-.02-.02,0,0-.02-.01-.02-.02,0,0-.02-.01-.02-.02,0,0-.02-.01-.02-.02,0,0-.02-.01-.02-.02,0,0-.02-.01-.02-.02,0,0-.02-.01-.02-.02,0,0-.02-.01-.02-.02,0,0-.02-.01-.02-.02,0,0-.02-.01-.02-.02,0,0-.02-.01-.02-.02s-.02-.01-.02-.02c0,0-.02-.01-.02-.02s-.02-.01-.02-.02c0,0-.02-.01-.02-.02,0,0-.02-.01-.02-.02,0,0-.02-.01-.02-.02,0,0-.02-.01-.02-.02,0,0-.02-.01-.02-.02,0,0-.02-.01-.02-.02,0,0-.02-.01-.02-.02,0,0-.02-.01-.02-.02,0,0-.02,0-.02-.01,0,0-.02,0-.02-.01,0,0-.02,0-.02-.01,0,0-.02,0-.02-.01s-.02,0-.02-.01c0,0-.02,0-.02-.01,0,0-.02,0-.02-.01,0,0-.02,0-.02-.01,0,0-.02,0-.02-.01,0,0-.02,0-.02-.01s-.02,0-.02-.01c0,0-.02,0-.02-.01,0,0-.02,0-.02-.01,0,0-.02,0-.02-.01,0,0-.02,0-.02-.01,0,0-.02,0-.02-.01,0,0-.02,0-.02-.01,0,0-.02,0-.02-.01s-.02,0-.02-.01c0,0-.02,0-.02-.01,0,0-.02,0-.02-.01,0,0-.02,0-.02,0,0,0-.02,0-.02,0,0,0-.02,0-.02,0,0,0-.02,0-.02,0,0,0-.02,0-.02,0,0,0-.02,0-.02,0s-.02,0-.02,0c0,0-.02,0-.02,0,0,0-.02,0-.02,0,0,0-.02,0-.02,0s-.02,0-.02,0c0,0-.02,0-.02,0,0,0-.02,0-.02,0,0,0-.02,0-.02,0,0,0-.02,0-.02,0,0,0-.02,0-.02,0,0,0-.02,0-.02,0,0,0-.02,0-.02,0s-.02,0-.02,0-.02,0-.02,0c0,0-.02,0-.02,0,0,0-.02,0-.02,0,0,0-.02,0-.02,0,0,0-.02,0-.02,0s-.02,0-.02,0-.02,0-.02,0c0,0-.02,0-.02,0,0,0-.02,0-.02,0s-.02,0-.02,0c0,0-.02,0-.02,0,0,0-.02,0-.02,0,0,0-.02,0-.02,0,0,0-.02,0-.02,0,0,0-.02,0-.02,0s-.02,0-.02,0c0,0-.02,0-.02,0s-.02,0-.02,0c0,0-.02,0-.02,0,0,0-.02,0-.02,0,0,0-.02,0-.02,0,0,0-.02,0-.02,0,0,0-.02,0-.02,0s-.02,0-.02,0c0,0-.02,0-.02,0,0,0-.02,0-.02,0s-.02,0-.02,0c0,0-.02,0-.02,0,0,0-.02,0-.02,0,0,0-.02,0-.02,0,0,0-.02,0-.02,0,0,0-.02,0-.02,0s-.02,0-.02,0c0,0-.02,0-.02,0,0,0-.02,0-.02,0,0,0-.02,0-.02,0,0,0-.02,0-.02,0s-.02,0-.02,0c0,0-.02,0-.02,0,0,0-.02,0-.02,0,0,0-.02,0-.02,0,0,0-.02,0-.02,0s-.02,0-.02,0c0,0-.02,0-.02,0,0,0,0,0,0,0,0,0-.01,0-.02,0,0,0-.02,0-.02,0s-.02,0-.02,0c0,0-.02,0-.02,0s-.02,0-.02,0c0,0-.02,0-.02,0,0,0-.02,0-.02,0,0,0-.02,0-.02,0,0,0-.02,0-.02,0,0,0-.02,0-.02,0s-.02,0-.02,0-.02,0-.02,0c0,0-.02,0-.02,0,0,0-.02,0-.02,0s-.02,0-.02,0c0,0-.02,0-.02,0,0,0-.02,0-.02,0,0,0-.02,0-.02,0,0,0-.02,0-.02,0,0,0-.02,0-.02,0,0,0-.02,0-.02,0,0,0-.02,0-.02,0s-.02,0-.02,0c0,0-.02,0-.02,0,0,0-.02,0-.02,0,0,0-.02,0-.02,0,0,0-.02,0-.02,0,0,0-.02,0-.02,0,0,0-.02,0-.02,0,0,0-.02,0-.02,0,0,0-.02,0-.02,0,0,0-.02,0-.02,0,0,0-.02,0-.02,0,0,0-.02,0-.02,0,0,0-.02,0-.02,0s-.02,0-.02,0c0,0-.02,0-.02,0,0,0-.02,0-.02,0,0,0-.02,0-.02,0,0,0-.02,0-.02,0,0,0-.02,0-.02,0,0,0-.02,0-.02,0,0,0-.02,0-.02,0s-.02,0-.02,0c0,0-.02,0-.02,0,0,0-.02,0-.02,0,0,0-.02,0-.02,0,0,0-.02,0-.02,0,0,0-.02,0-.02,0,0,0-.02,0-.02,0,0,0-.02,0-.02,0s-.02,0-.02,0c0,0-.02,0-.02,0s-.02,0-.02,0-.02,0-.02,0c0,0-.02,0-.02,0,0,0-.02,0-.02,0s-.02,0-.02,0c0,0-.02,0-.02,0,0,0-.02,0-.02,0,0,0-.02,0-.02,0,0,0-.02,0-.02,0s-.02,0-.02,0c0,0-.02,0-.02.01,0,0-.02,0-.02.01,0,0-.02,0-.02.01,0,0-.02,0-.02.01,0,0-.02,0-.02.01,0,0-.02,0-.02.01,0,0-.02,0-.02.01,0,0-.02,0-.02.01,0,0-.02,0-.02.01s-.02,0-.02.01c0,0-.02,0-.02.01,0,0-.02,0-.02.01,0,0-.02,0-.02.01,0,0-.02,0-.02.01,0,0-.02,0-.02.01,0,0-.02,0-.02.01,0,0-.02,0-.02.01,0,0-.02,0-.02.01,0,0-.02,0-.02.01,0,0-.02,0-.02.01,0,0-.02,0-.02.01,0,0-.02,0-.02.01,0,0-.02.01-.02.02,0,0-.02.01-.02.02,0,0-.02.01-.02.02s-.02.01-.02.02c0,0-.02.01-.02.02,0,0-.02.01-.02.02,0,0-.02.01-.02.02,0,0-.02.01-.02.02-.07.05-.13.1-.2.15l-3.14-2.15c.16-.53.25-1.1.25-1.68,0-.84-.18-1.63-.5-2.35-.09-.21-.2-.42-.32-.62-.07-.11-.14-.22-.21-.33-.06-.08-.12-.16-.18-.24-.05-.06-.09-.12-.14-.18-.05-.06-.09-.11-.14-.16-.03-.04-.07-.08-.11-.11-.04-.04-.07-.07-.11-.11-.03-.03-.07-.07-.11-.1-.04-.03-.07-.07-.11-.1-.04-.03-.07-.06-.11-.09-.02-.02-.05-.04-.07-.06-.02-.02-.05-.04-.07-.06-.04-.03-.07-.06-.11-.08-.02-.02-.05-.04-.07-.05-.02-.02-.05-.03-.07-.05-.02-.02-.05-.03-.07-.05-.02-.02-.05-.03-.07-.05-.02-.02-.05-.03-.07-.05-.02-.02-.05-.03-.07-.05-.01,0-.02-.02-.04-.02-.02-.01-.05-.03-.07-.04-.02-.01-.05-.03-.07-.04-.02-.01-.05-.03-.07-.04-.01,0-.02-.01-.04-.02-.02-.01-.05-.03-.07-.04-.01,0-.02-.01-.04-.02-.02-.01-.05-.02-.07-.04-.01,0-.02-.01-.04-.02-.02-.01-.05-.02-.07-.04-.01,0-.02-.01-.04-.02-.02-.01-.05-.02-.07-.03-.01,0-.02-.01-.04-.02-.02-.01-.05-.02-.07-.03-.01,0-.02-.01-.04-.02-.01,0-.02,0-.04-.01-.02,0-.05-.02-.07-.03-.01,0-.02,0-.04-.01-.01,0-.02,0-.04-.01s-.02,0-.04-.01c-.02,0-.05-.02-.07-.03-.01,0-.02,0-.04-.01-.01,0-.02,0-.04-.01-.01,0-.02,0-.04-.01-.02,0-.05-.02-.07-.02-.01,0-.02,0-.04-.01-.01,0-.02,0-.04-.01-.01,0-.02,0-.04-.01-.01,0-.02,0-.04-.01-.01,0-.02,0-.04-.01-.01,0-.02,0-.04-.01-.02,0-.05-.01-.07-.02-.01,0-.02,0-.04-.01-.01,0-.02,0-.04,0-.01,0-.02,0-.04,0-.01,0-.02,0-.04,0-.01,0-.02,0-.04,0s-.02,0-.04,0-.02,0-.04,0c-.01,0-.02,0-.04,0-.01,0-.02,0-.04,0-.01,0-.02,0-.04,0-.01,0-.02,0-.04,0-.01,0-.02,0-.04,0-.01,0-.02,0-.04,0-.01,0-.02,0-.04,0-.01,0-.02,0-.04,0-.01,0-.02,0-.04,0-.01,0-.02,0-.04,0-.01,0-.02,0-.04,0-.01,0-.02,0-.04,0-.01,0-.02,0-.04,0-.01,0-.02,0-.04,0-.01,0-.02,0-.04,0-.01,0-.02,0-.04,0-.01,0-.02,0-.04,0s-.02,0-.04,0c-.01,0-.02,0-.04,0-.01,0-.02,0-.04,0-.01,0-.02,0-.04,0-.01,0-.02,0-.04,0s-.02,0-.04,0c-.01,0-.02,0-.04,0-.01,0-.02,0-.04,0s-.02,0-.04,0c-.01,0-.02,0-.04,0-.01,0-.02,0-.04,0-.01,0-.02,0-.04,0-.01,0-.02,0-.04,0s-.02,0-.04,0c-.01,0-.02,0-.04,0-.01,0-.02,0-.04,0s-.02,0-.04,0c-.01,0-.02,0-.04,0,0,0,0,0,0,0,0,0-.02,0-.03,0-.01,0-.02,0-.04,0-.01,0-.02,0-.04,0s-.02,0-.04,0c-.01,0-.02,0-.04,0s-.02,0-.04,0c-.01,0-.02,0-.04,0-.01,0-.02,0-.04,0-.01,0-.02,0-.04,0-.01,0-.02,0-.04,0-.01,0-.02,0-.04,0-.01,0-.02,0-.04,0-.01,0-.02,0-.04,0-.01,0-.02,0-.04,0-.01,0-.02,0-.04,0-.01,0-.02,0-.04,0-.01,0-.02,0-.04,0-.01,0-.02,0-.04,0-.01,0-.02,0-.04,0-.01,0-.02,0-.04,0-.01,0-.02,0-.04,0-.01,0-.02,0-.04,0s-.02,0-.04,0c-.01,0-.02,0-.04,0-.01,0-.02,0-.04,0-.01,0-.02,0-.04,0-.01,0-.02,0-.04,0s-.02,0-.04,0-.02,0-.04,0c-.01,0-.02,0-.04,0-.01,0-.02,0-.04,0-.01,0-.02,0-.04,0-.01,0-.02,0-.04,0-.01,0-.02,0-.04,0s-.02,0-.04,0c0,0,0,0,0,0l-1.84-3.19s.02-.02.02-.03c0,0,.02-.02.02-.03s.02-.02.02-.03.02-.02.02-.03c0,0,.02-.02.02-.03,0,0,.02-.02.02-.03,0,0,.02-.02.02-.03,0-.01.02-.02.02-.03s.02-.02.02-.03c0-.01.02-.02.02-.03,0-.01.02-.02.02-.03,0-.01.02-.02.02-.03s.02-.02.02-.03.02-.02.02-.03c0-.01.02-.02.02-.04,0-.01.02-.02.02-.04s.02-.02.02-.04.02-.02.02-.04c0-.01.02-.03.02-.04,0-.01.02-.03.02-.04,0-.01.02-.03.02-.04,0-.01.02-.03.02-.04,0-.01.02-.03.02-.04,0-.02.02-.03.02-.05,0-.02.02-.03.02-.05,0-.02.02-.03.02-.05,0-.02.02-.04.02-.05,0-.02.02-.04.02-.05s.02-.03.02-.05c0-.02.02-.04.02-.06,0-.02.02-.04.02-.06,0-.02.02-.04.02-.06,0-.02.02-.05.02-.07,0-.02.02-.05.02-.07,0-.02.02-.05.02-.07,0-.03.02-.06.02-.08,0-.03.02-.06.02-.09,0-.03.02-.07.02-.1,0-.04.02-.07.02-.11,0-.04.02-.09.02-.13,0-.06.02-.12.02-.18.02-.14.02-.28.02-.43s0-.29-.02-.43c0-.06-.01-.12-.02-.18,0-.04-.02-.09-.02-.13,0-.04-.02-.07-.02-.11,0-.03-.02-.07-.02-.1,0-.03-.02-.06-.02-.09,0-.03-.02-.06-.02-.08,0-.02-.02-.05-.02-.07,0-.02-.02-.05-.02-.07,0-.02-.02-.05-.02-.07,0-.02-.02-.04-.02-.06,0-.02-.02-.04-.02-.06,0-.02-.02-.04-.02-.06,0-.02-.02-.04-.02-.05s-.02-.04-.02-.05c0-.02-.02-.04-.02-.05,0-.02-.02-.03-.02-.05,0-.02-.02-.03-.02-.05,0-.02-.02-.03-.02-.05,0-.01-.02-.03-.02-.04,0-.01-.02-.03-.02-.04,0-.01-.02-.03-.02-.04s-.02-.03-.02-.04c0-.01-.02-.03-.02-.04,0-.01-.02-.02-.02-.04s-.02-.02-.02-.04-.02-.02-.02-.04c0-.01-.02-.02-.02-.04,0-.01-.02-.02-.02-.03s-.02-.02-.02-.03-.02-.02-.02-.03c0-.01-.02-.02-.02-.03,0-.01-.02-.02-.02-.03,0-.01-.02-.02-.02-.03,0-.01-.02-.02-.02-.03,0-.01-.02-.02-.02-.03,0,0-.02-.02-.02-.03,0,0-.02-.02-.02-.03,0,0-.02-.02-.02-.03,0,0-.02-.02-.02-.03s-.02-.02-.02-.03c0,0-.02-.02-.02-.03,0,0-.02-.02-.02-.03,0,0-.02-.02-.02-.02,0,0-.02-.02-.02-.02,0,0-.02-.02-.02-.02,0,0-.02-.02-.02-.02,0,0-.02-.02-.02-.02,0,0-.02-.02-.02-.02,0,0-.02-.02-.02-.02,0,0-.02-.02-.02-.02,0,0-.02-.02-.02-.02s-.02-.02-.02-.02c0,0-.02-.01-.02-.02,0,0-.02-.01-.02-.02,0,0-.02-.01-.02-.02,0,0-.02-.01-.02-.02,0,0-.02-.01-.02-.02,0,0-.02-.01-.02-.02,0,0-.02-.01-.02-.02,0,0-.02-.01-.02-.02,0,0-.02-.01-.02-.02,0,0-.02-.01-.02-.02,0,0-.02-.01-.02-.02,0,0-.02-.01-.02-.02,0,0-.02-.01-.02-.02,0,0-.02-.01-.02-.02,0,0-.02-.01-.02-.02,0,0-.02-.01-.02-.02,0,0-.02-.01-.02-.02,0,0-.02-.01-.02-.02,0,0-.02-.01-.02-.02,0,0-.02-.01-.02-.02,0,0-.02-.01-.02-.02,0,0-.02-.01-.02-.02,0,0-.02-.01-.02-.02,0,0-.02-.01-.02-.02,0,0-.02-.01-.02-.02,0,0-.02,0-.02-.01,0,0-.02,0-.02-.01s-.02,0-.02-.01c0,0-.02,0-.02-.01,0,0-.02,0-.02-.01,0,0-.02,0-.02-.01,0,0-.02,0-.02-.01,0,0-.02,0-.02-.01,0,0-.02,0-.02-.01,0,0-.02,0-.02-.01,0,0-.02,0-.02-.01,0,0-.02,0-.02-.01,0,0-.02,0-.02-.01,0,0-.02,0-.02-.01,0,0-.02,0-.02-.01,0,0-.02,0-.02-.01,0,0-.02,0-.02-.01,0,0-.02,0-.02-.01s-.02,0-.02-.01c0,0-.02,0-.02-.01,0,0-.02,0-.02-.01,0,0-.02,0-.02,0,0,0-.02,0-.02,0,0,0-.02,0-.02,0s-.02,0-.02,0c0,0-.02,0-.02,0,0,0-.02,0-.02,0s-.02,0-.02,0c0,0-.02,0-.02,0,0,0-.02,0-.02,0s-.02,0-.02,0-.02,0-.02,0-.02,0-.02,0-.02,0-.02,0c0,0-.02,0-.02,0,0,0-.02,0-.02,0,0,0-.02,0-.02,0,0,0-.02,0-.02,0s-.02,0-.02,0-.02,0-.02,0-.02,0-.02,0c0,0-.02,0-.02,0,0,0-.02,0-.02,0,0,0-.02,0-.02,0,0,0-.02,0-.02,0s-.02,0-.02,0c0,0-.02,0-.02,0,0,0-.02,0-.02,0,0,0-.02,0-.02,0s-.02,0-.02,0-.02,0-.02,0c0,0-.02,0-.02,0,0,0-.02,0-.02,0,0,0-.02,0-.02,0,0,0-.02,0-.02,0s-.02,0-.02,0c0,0-.02,0-.02,0s-.02,0-.02,0c0,0-.02,0-.02,0,0,0-.02,0-.02,0,0,0-.02,0-.02,0s-.02,0-.02,0c0,0-.02,0-.02,0,0,0-.02,0-.02,0,0,0-.02,0-.02,0,0,0-.02,0-.02,0s-.02,0-.02,0c0,0-.02,0-.02,0,0,0-.02,0-.02,0,0,0-.02,0-.02,0,0,0-.02,0-.02,0,0,0-.02,0-.02,0s-.02,0-.02,0c0,0-.02,0-.02,0,0,0-.02,0-.02,0,0,0-.02,0-.02,0,0,0-.02,0-.02,0,0,0-.02,0-.02,0,0,0-.02,0-.02,0,0,0-.02,0-.02,0,0,0-.02,0-.02,0,0,0-.02,0-.02,0s-.02,0-.02,0c0,0-.02,0-.02,0,0,0,0,0,0,0,0,0-.01,0-.02,0,0,0-.02,0-.02,0,0,0-.02,0-.02,0,0,0-.02,0-.02,0s-.02,0-.02,0c0,0-.02,0-.02,0,0,0-.02,0-.02,0,0,0-.02,0-.02,0,0,0-.02,0-.02,0,0,0-.02,0-.02,0s-.02,0-.02,0c0,0-.02,0-.02,0,0,0-.02,0-.02,0,0,0-.02,0-.02,0s-.02,0-.02,0c0,0-.02,0-.02,0,0,0-.02,0-.02,0,0,0-.02,0-.02,0,0,0-.02,0-.02,0,0,0-.02,0-.02,0,0,0-.02,0-.02,0,0,0-.02,0-.02,0,0,0-.02,0-.02,0,0,0-.02,0-.02,0,0,0-.02,0-.02,0,0,0-.02,0-.02,0,0,0-.02,0-.02,0,0,0-.02,0-.02,0,0,0-.02,0-.02,0,0,0-.02,0-.02,0,0,0-.02,0-.02,0,0,0-.02,0-.02,0,0,0-.02,0-.02,0,0,0-.02,0-.02,0,0,0-.02,0-.02,0,0,0-.02,0-.02,0,0,0-.02,0-.02,0,0,0-.02,0-.02,0,0,0-.02,0-.02,0,0,0-.02,0-.02,0,0,0-.02,0-.02,0,0,0-.02,0-.02,0,0,0-.02,0-.02,0,0,0-.02,0-.02,0,0,0-.02,0-.02,0,0,0-.02,0-.02,0,0,0-.02,0-.02,0,0,0-.02,0-.02,0,0,0-.02,0-.02,0,0,0-.02,0-.02,0,0,0-.02,0-.02,0,0,0-.02,0-.02,0,0,0-.02,0-.02,0s-.02,0-.02,0c0,0-.02,0-.02,0,0,0-.02,0-.02,0,0,0-.02,0-.02,0,0,0-.02,0-.02,0,0,0-.02,0-.02,0,0,0-.02,0-.02,0,0,0-.02,0-.02,0,0,0-.02,0-.02,0,0,0-.02,0-.02,0,0,0-.02,0-.02.01,0,0-.02,0-.02.01,0,0-.02,0-.02.01s-.02,0-.02.01c0,0-.02,0-.02.01,0,0-.02,0-.02.01,0,0-.02,0-.02.01,0,0-.02,0-.02.01,0,0-.02,0-.02.01s-.02,0-.02.01c0,0-.02,0-.02.01,0,0-.02,0-.02.01,0,0-.02,0-.02.01,0,0-.02,0-.02.01,0,0-.02,0-.02.01,0,0-.02,0-.02.01s-.02,0-.02.01c0,0-.02,0-.02.01,0,0-.02,0-.02.01,0,0-.02,0-.02.01,0,0-.02,0-.02.01,0,0-.02,0-.02.01,0,0-.02.01-.02.02,0,0-.02.01-.02.02,0,0-.02.01-.02.02s-.02.01-.02.02-.02.01-.02.02c0,0-.02.01-.02.02,0,0-.02.01-.02.02,0,0-.02.01-.02.02-1,.7-1.65,1.86-1.65,3.17,0,.67.17,1.3.47,1.85l-2.24,3.88s0,0,0,0c-.01,0-.02,0-.04,0-.01,0-.02,0-.04,0-.01,0-.02,0-.04,0-.01,0-.02,0-.04,0-.01,0-.02,0-.04,0-.01,0-.02,0-.04,0-.01,0-.02,0-.04,0-.01,0-.02,0-.04,0-.01,0-.02,0-.04,0-.01,0-.02,0-.04,0s-.02,0-.04,0c-.01,0-.02,0-.04,0-.01,0-.02,0-.04,0-.01,0-.02,0-.04,0-.01,0-.02,0-.04,0-.01,0-.02,0-.04,0-.01,0-.02,0-.04,0-.01,0-.02,0-.04,0s-.02,0-.04,0c-.01,0-.02,0-.04,0-.01,0-.02,0-.04,0-.01,0-.02,0-.04,0-.01,0-.02,0-.04,0s-.02,0-.04,0c-.01,0-.02,0-.04,0-.01,0-.02,0-.04,0s-.02,0-.04,0c-.01,0-.02,0-.04,0,0,0,0,0,0,0,0,0-.02,0-.03,0-.01,0-.02,0-.04,0-.01,0-.02,0-.04,0s-.02,0-.04,0c-.01,0-.02,0-.04,0s-.02,0-.04,0c-.01,0-.02,0-.04,0-.01,0-.02,0-.04,0-.01,0-.02,0-.04,0-.01,0-.02,0-.04,0-.01,0-.02,0-.04,0-.01,0-.02,0-.04,0-.01,0-.02,0-.04,0-.01,0-.02,0-.04,0-.01,0-.02,0-.04,0-.01,0-.02,0-.04,0-.01,0-.02,0-.04,0-.01,0-.02,0-.04,0-.01,0-.02,0-.04,0-.01,0-.02,0-.04,0-.01,0-.02,0-.04,0-.01,0-.02,0-.04,0s-.02,0-.04,0c-.01,0-.02,0-.04,0-.01,0-.02,0-.04,0-.01,0-.02,0-.04,0-.01,0-.02,0-.04,0s-.02,0-.04,0-.02,0-.04,0c-.01,0-.02,0-.04,0-.01,0-.02,0-.04,0-.01,0-.02,0-.04,0-.01,0-.02,0-.04,0-.01,0-.02,0-.04,0s-.02,0-.04,0c-.01,0-.02,0-.04,0s-.02,0-.04,0c-.01,0-.02,0-.04,0-.01,0-.02,0-.04,0-.01,0-.02,0-.04,0-.01,0-.02,0-.04,0-.01,0-.02,0-.04.01-.01,0-.02,0-.04.01-.01,0-.02,0-.04.01-.01,0-.02,0-.04.01-.01,0-.02,0-.04.01-.01,0-.02,0-.04.01-.01,0-.02,0-.04.01-.01,0-.02,0-.04.01-.01,0-.02,0-.04.01-.01,0-.02,0-.04.01-.01,0-.02,0-.04.01-.01,0-.02,0-.04.01-.01,0-.02,0-.04.01s-.02,0-.04.01c-.01,0-.02,0-.04.01-.01,0-.02,0-.04.01-.01,0-.02,0-.04.01-.01,0-.02,0-.04.01-.01,0-.02,0-.04.01-.01,0-.02,0-.04.01-.01,0-.02,0-.04.01-.01,0-.02,0-.04.01-.01,0-.02.01-.04.02-.01,0-.02.01-.04.02-.01,0-.02.01-.04.02-.01,0-.02.01-.04.02-.01,0-.02.01-.04.02-.01,0-.02.01-.04.02s-.02.01-.04.02c-.01,0-.02.01-.04.02-.01,0-.02.01-.04.02-.01,0-.02.01-.04.02s-.02.01-.04.02-.02.01-.04.02c-.01,0-.02.01-.04.02-.01,0-.02.01-.04.02-.01,0-.02.01-.04.02-.01,0-.02.01-.04.02-.01,0-.02.01-.04.02-.01,0-.02.01-.04.02-.01,0-.02.01-.04.02-.01,0-.02.01-.04.02-.01,0-.02.01-.04.02-.01,0-.02.01-.04.02-.01,0-.02.02-.04.02-.01,0-.02.02-.04.02-.01,0-.02.02-.04.02-.01,0-.02.02-.04.02-.01,0-.02.02-.04.02-.01,0-.02.02-.04.02-.01,0-.02.02-.04.03-1.51,1.04-2.51,2.79-2.51,4.76,0,.33.03.65.08.96l-3,2.13s0,0-.01-.01c0,0-.02-.02-.02-.02,0,0-.02-.02-.02-.02,0,0-.02-.02-.02-.02,0,0-.02-.02-.02-.02,0,0-.02-.02-.02-.02,0,0-.02-.01-.02-.02,0,0-.02-.01-.02-.02,0,0-.02-.01-.02-.02,0,0-.02-.01-.02-.02,0,0-.02-.01-.02-.02,0,0-.02-.01-.02-.02,0,0-.02-.01-.02-.02,0,0-.02-.01-.02-.02,0,0-.02-.01-.02-.02,0,0-.02-.01-.02-.02,0,0-.02-.01-.02-.02,0,0-.02-.01-.02-.02,0,0-.02-.01-.02-.02,0,0-.02-.01-.02-.02,0,0-.02-.01-.02-.02s-.02-.01-.02-.02-.02-.01-.02-.02c0,0-.02-.01-.02-.02,0,0-.02-.01-.02-.02,0,0-.02-.01-.02-.02,0,0-.02-.01-.02-.02,0,0-.02-.01-.02-.02,0,0-.02-.01-.02-.02,0,0-.02-.01-.02-.02,0,0-.02-.01-.02-.02,0,0-.02,0-.02-.01,0,0-.02,0-.02-.01s-.02,0-.02-.01c0,0-.02,0-.02-.01s-.02,0-.02-.01c0,0-.02,0-.02-.01,0,0-.02,0-.02-.01,0,0-.02,0-.02-.01,0,0-.02,0-.02-.01,0,0-.02,0-.02-.01s-.02,0-.02-.01c0,0-.02,0-.02-.01,0,0-.02,0-.02-.01,0,0-.02,0-.02-.01,0,0-.02,0-.02-.01,0,0-.02,0-.02-.01,0,0-.02,0-.02-.01,0,0-.02,0-.02-.01s-.02,0-.02-.01c0,0-.02,0-.02-.01,0,0-.02,0-.02-.01,0,0-.02,0-.02,0,0,0-.02,0-.02,0,0,0-.02,0-.02,0,0,0-.02,0-.02,0,0,0-.02,0-.02,0,0,0-.02,0-.02,0s-.02,0-.02,0c0,0-.02,0-.02,0,0,0-.02,0-.02,0s-.02,0-.02,0-.02,0-.02,0-.02,0-.02,0c0,0-.02,0-.02,0,0,0-.02,0-.02,0,0,0-.02,0-.02,0,0,0-.02,0-.02,0,0,0-.02,0-.02,0,0,0-.02,0-.02,0s-.02,0-.02,0-.02,0-.02,0c0,0-.02,0-.02,0,0,0-.02,0-.02,0,0,0-.02,0-.02,0,0,0-.02,0-.02,0s-.02,0-.02,0c0,0-.02,0-.02,0,0,0-.02,0-.02,0,0,0-.02,0-.02,0s-.02,0-.02,0c0,0-.02,0-.02,0,0,0-.02,0-.02,0,0,0-.02,0-.02,0,0,0-.02,0-.02,0,0,0-.02,0-.02,0s-.02,0-.02,0c0,0-.02,0-.02,0s-.02,0-.02,0c0,0-.02,0-.02,0,0,0-.02,0-.02,0,0,0-.02,0-.02,0,0,0-.02,0-.02,0,0,0-.02,0-.02,0s-.02,0-.02,0c0,0-.02,0-.02,0,0,0-.02,0-.02,0s-.02,0-.02,0c0,0-.02,0-.02,0,0,0-.02,0-.02,0,0,0-.02,0-.02,0,0,0-.02,0-.02,0,0,0-.02,0-.02,0s-.02,0-.02,0c0,0-.02,0-.02,0,0,0-.02,0-.02,0,0,0-.02,0-.02,0,0,0-.02,0-.02,0s-.02,0-.02,0c0,0-.02,0-.02,0,0,0-.02,0-.02,0,0,0-.02,0-.02,0,0,0-.02,0-.02,0s-.02,0-.02,0c0,0-.02,0-.02,0,0,0,0,0,0,0,0,0-.01,0-.02,0,0,0-.02,0-.02,0,0,0-.02,0-.02,0,0,0-.02,0-.02,0,0,0-.02,0-.02,0,0,0-.02,0-.02,0,0,0-.02,0-.02,0,0,0-.02,0-.02,0,0,0-.02,0-.02,0,0,0-.02,0-.02,0s-.02,0-.02,0-.02,0-.02,0c0,0-.02,0-.02,0,0,0-.02,0-.02,0s-.02,0-.02,0c0,0-.02,0-.02,0,0,0-.02,0-.02,0,0,0-.02,0-.02,0,0,0-.02,0-.02,0,0,0-.02,0-.02,0,0,0-.02,0-.02,0,0,0-.02,0-.02,0s-.02,0-.02,0c0,0-.02,0-.02,0,0,0-.02,0-.02,0,0,0-.02,0-.02,0,0,0-.02,0-.02,0,0,0-.02,0-.02,0,0,0-.02,0-.02,0,0,0-.02,0-.02,0,0,0-.02,0-.02,0,0,0-.02,0-.02,0,0,0-.02,0-.02,0,0,0-.02,0-.02,0,0,0-.02,0-.02,0s-.02,0-.02,0c0,0-.02,0-.02,0,0,0-.02,0-.02,0,0,0-.02,0-.02,0,0,0-.02,0-.02,0,0,0-.02,0-.02,0,0,0-.02,0-.02,0,0,0-.02,0-.02,0s-.02,0-.02,0c0,0-.02,0-.02,0,0,0-.02,0-.02,0s-.02,0-.02,0c0,0-.02,0-.02,0,0,0-.02,0-.02,0,0,0-.02,0-.02,0,0,0-.02,0-.02,0s-.02,0-.02,0c0,0-.02,0-.02,0s-.02,0-.02,0-.02,0-.02,0c0,0-.02,0-.02,0,0,0-.02,0-.02,0s-.02,0-.02,0c0,0-.02,0-.02,0,0,0-.02,0-.02,0,0,0-.02,0-.02,0,0,0-.02,0-.02,0s-.02,0-.02,0c0,0-.02,0-.02.01,0,0-.02,0-.02.01,0,0-.02,0-.02.01,0,0-.02,0-.02.01,0,0-.02,0-.02.01,0,0-.02,0-.02.01,0,0-.02,0-.02.01,0,0-.02,0-.02.01,0,0-.02,0-.02.01s-.02,0-.02.01c0,0-.02,0-.02.01,0,0-.02,0-.02.01,0,0-.02,0-.02.01,0,0-.02,0-.02.01,0,0-.02,0-.02.01,0,0-.02,0-.02.01,0,0-.02,0-.02.01,0,0-.02,0-.02.01,0,0-.02,0-.02.01,0,0-.02,0-.02.01,0,0-.02,0-.02.01,0,0-.02,0-.02.01,0,0-.02.01-.02.02,0,0-.02.01-.02.02,0,0-.02.01-.02.02s-.02.01-.02.02c0,0-.02.01-.02.02,0,0-.02.01-.02.02,0,0-.02.01-.02.02,0,0-.02.01-.02.02-1,.7-1.65,1.86-1.65,3.17s.65,2.47,1.65,3.17c0,0,.02.01.02.02,0,0,.02.01.02.02,0,0,.02.01.02.02,0,0,.02.01.02.02,0,0,.02.01.02.02s.02.01.02.02c0,0,.02.01.02.02,0,0,.02.01.02.02,0,0,.02,0,.02.01,0,0,.02,0,.02.01,0,0,.02,0,.02.01,0,0,.02,0,.02.01,0,0,.02,0,.02.01,0,0,.02,0,.02.01,0,0,.02,0,.02.01,0,0,.02,0,.02.01,0,0,.02,0,.02.01,0,0,.02,0,.02.01,0,0,.02,0,.02.01,0,0,.02,0,.02.01,0,0,.02,0,.02.01s.02,0,.02.01c0,0,.02,0,.02.01,0,0,.02,0,.02.01,0,0,.02,0,.02.01,0,0,.02,0,.02.01,0,0,.02,0,.02.01,0,0,.02,0,.02.01,0,0,.02,0,.02.01,0,0,.02,0,.02.01,0,0,.02,0,.02,0s.02,0,.02,0c0,0,.02,0,.02,0,0,0,.02,0,.02,0,0,0,.02,0,.02,0,0,0,.02,0,.02,0s.02,0,.02,0c0,0,.02,0,.02,0,0,0,.02,0,.02,0s.02,0,.02,0,.02,0,.02,0c0,0,.02,0,.02,0s.02,0,.02,0c0,0,.02,0,.02,0,0,0,.02,0,.02,0,0,0,.02,0,.02,0,0,0,.02,0,.02,0s.02,0,.02,0c0,0,.02,0,.02,0,0,0,.02,0,.02,0s.02,0,.02,0c0,0,.02,0,.02,0,0,0,.02,0,.02,0,0,0,.02,0,.02,0,0,0,.02,0,.02,0,0,0,.02,0,.02,0,0,0,.02,0,.02,0,0,0,.02,0,.02,0s.02,0,.02,0c0,0,.02,0,.02,0,0,0,.02,0,.02,0,0,0,.02,0,.02,0,0,0,.02,0,.02,0,0,0,.02,0,.02,0,0,0,.02,0,.02,0,0,0,.02,0,.02,0,0,0,.02,0,.02,0,0,0,.02,0,.02,0,0,0,.02,0,.02,0,0,0,.02,0,.02,0,0,0,.02,0,.02,0s.02,0,.02,0c0,0,.02,0,.02,0,0,0,.02,0,.02,0,0,0,.02,0,.02,0,0,0,.02,0,.02,0,0,0,.02,0,.02,0,0,0,.02,0,.02,0,0,0,.02,0,.02,0s.02,0,.02,0c0,0,.02,0,.02,0,0,0,.02,0,.02,0s.02,0,.02,0,.02,0,.02,0c0,0,.02,0,.02,0,0,0,.02,0,.02,0,0,0,.02,0,.02,0,0,0,.02,0,.02,0,0,0,.02,0,.02,0,0,0,.02,0,.02,0,0,0,.02,0,.02,0,0,0,.02,0,.02,0,0,0,.01,0,.02,0,0,0,0,0,0,0,0,0,.02,0,.02,0,0,0,.02,0,.02,0s.02,0,.02,0c0,0,.02,0,.02,0,0,0,.02,0,.02,0,0,0,.02,0,.02,0,0,0,.02,0,.02,0s.02,0,.02,0c0,0,.02,0,.02,0,0,0,.02,0,.02,0,0,0,.02,0,.02,0,0,0,.02,0,.02,0s.02,0,.02,0c0,0,.02,0,.02,0,0,0,.02,0,.02,0,0,0,.02,0,.02,0,0,0,.02,0,.02,0,0,0,.02,0,.02,0s.02,0,.02,0c0,0,.02,0,.02,0,0,0,.02,0,.02,0s.02,0,.02,0c0,0,.02,0,.02,0,0,0,.02,0,.02,0,0,0,.02,0,.02,0,0,0,.02,0,.02,0,0,0,.02,0,.02,0s.02,0,.02,0c0,0,.02,0,.02,0s.02,0,.02,0c0,0,.02,0,.02,0,0,0,.02,0,.02,0,0,0,.02,0,.02,0,0,0,.02,0,.02,0,0,0,.02,0,.02,0s.02,0,.02,0c0,0,.02,0,.02,0,0,0,.02,0,.02,0,0,0,.02,0,.02,0s.02,0,.02,0c0,0,.02,0,.02,0,0,0,.02,0,.02,0,0,0,.02,0,.02,0,0,0,.02,0,.02,0s.02,0,.02,0,.02,0,.02,0c0,0,.02,0,.02,0,0,0,.02,0,.02,0,0,0,.02,0,.02,0,0,0,.02,0,.02,0,0,0,.02,0,.02,0,0,0,.02,0,.02,0s.02,0,.02,0,.02,0,.02,0,.02,0,.02,0c0,0,.02,0,.02,0,0,0,.02,0,.02,0s.02,0,.02,0c0,0,.02,0,.02,0,0,0,.02,0,.02,0,0,0,.02,0,.02,0,0,0,.02,0,.02,0,0,0,.02,0,.02,0,0,0,.02,0,.02-.01,0,0,.02,0,.02-.01,0,0,.02,0,.02-.01s.02,0,.02-.01c0,0,.02,0,.02-.01,0,0,.02,0,.02-.01,0,0,.02,0,.02-.01,0,0,.02,0,.02-.01,0,0,.02,0,.02-.01,0,0,.02,0,.02-.01,0,0,.02,0,.02-.01s.02,0,.02-.01c0,0,.02,0,.02-.01,0,0,.02,0,.02-.01,0,0,.02,0,.02-.01,0,0,.02,0,.02-.01,0,0,.02,0,.02-.01s.02,0,.02-.01c0,0,.02,0,.02-.01s.02,0,.02-.01c0,0,.02,0,.02-.01,0,0,.02-.01.02-.02,0,0,.01,0,.02-.01l3.39,2.41c-.07.36-.11.74-.11,1.12,0,1.98.99,3.72,2.51,4.76.01,0,.02.02.04.03.01,0,.02.02.04.02.01,0,.02.02.04.02.01,0,.02.02.04.02.01,0,.02.02.04.02.01,0,.02.02.04.02.01,0,.02.02.04.02.01,0,.02.01.04.02.01,0,.02.01.04.02.01,0,.02.01.04.02.01,0,.02.01.04.02.01,0,.02.01.04.02.01,0,.02.01.04.02.01,0,.02.01.04.02.01,0,.02.01.04.02.01,0,.02.01.04.02.01,0,.02.01.04.02.01,0,.02.01.04.02s.02.01.04.02.02.01.04.02c.01,0,.02.01.04.02.01,0,.02.01.04.02.01,0,.02.01.04.02s.02.01.04.02c.01,0,.02.01.04.02.01,0,.02.01.04.02.01,0,.02.01.04.02.01,0,.02.01.04.02.01,0,.02.01.04.02.01,0,.02,0,.04.01.01,0,.02,0,.04.01.01,0,.02,0,.04.01.01,0,.02,0,.04.01.01,0,.02,0,.04.01.01,0,.02,0,.04.01.01,0,.02,0,.04.01.01,0,.02,0,.04.01.01,0,.02,0,.04.01s.02,0,.04.01c.01,0,.02,0,.04.01.01,0,.02,0,.04.01.01,0,.02,0,.04.01.01,0,.02,0,.04.01.01,0,.02,0,.04.01.01,0,.02,0,.04.01.01,0,.02,0,.04.01.01,0,.02,0,.04.01.01,0,.02,0,.04.01.01,0,.02,0,.04.01.01,0,.02,0,.04.01.01,0,.02,0,.04.01.01,0,.02,0,.04,0,.01,0,.02,0,.04,0,.01,0,.02,0,.04,0,.01,0,.02,0,.04,0,.01,0,.02,0,.04,0s.02,0,.04,0c.01,0,.02,0,.04,0s.02,0,.04,0c.01,0,.02,0,.04,0,.01,0,.02,0,.04,0,.01,0,.02,0,.04,0,.01,0,.02,0,.04,0,.01,0,.02,0,.04,0s.02,0,.04,0,.02,0,.04,0c.01,0,.02,0,.04,0,.01,0,.02,0,.04,0,.01,0,.02,0,.04,0,.01,0,.02,0,.04,0s.02,0,.04,0c.01,0,.02,0,.04,0,.01,0,.02,0,.04,0,.01,0,.02,0,.04,0,.01,0,.02,0,.04,0,.01,0,.02,0,.04,0,.01,0,.02,0,.04,0,.01,0,.02,0,.04,0,.01,0,.02,0,.04,0,.01,0,.02,0,.04,0,.01,0,.02,0,.04,0,.01,0,.02,0,.04,0,.01,0,.02,0,.04,0,.01,0,.02,0,.04,0,.01,0,.02,0,.04,0,.01,0,.02,0,.04,0,.01,0,.02,0,.04,0s.02,0,.04,0c.01,0,.02,0,.04,0s.02,0,.04,0c.01,0,.02,0,.04,0,0,0,.02,0,.03,0,0,0,0,0,0,0,.01,0,.02,0,.04,0,.01,0,.02,0,.04,0s.02,0,.04,0c.01,0,.02,0,.04,0,.01,0,.02,0,.04,0s.02,0,.04,0c.01,0,.02,0,.04,0,.01,0,.02,0,.04,0,.01,0,.02,0,.04,0,.01,0,.02,0,.04,0s.02,0,.04,0c.01,0,.02,0,.04,0,.01,0,.02,0,.04,0,.01,0,.02,0,.04,0,.01,0,.02,0,.04,0,.01,0,.02,0,.04,0,.01,0,.02,0,.04,0,.01,0,.02,0,.04,0s.02,0,.04,0c.01,0,.02,0,.04,0,.01,0,.02,0,.04,0,.01,0,.02,0,.04,0,.01,0,.02,0,.04,0,0,0,.02,0,.03,0l2.11,3.51c-.28.54-.44,1.15-.44,1.8,0,1.31.65,2.47,1.65,3.17,0,0,.02.01.02.02s.02.01.02.02c0,0,.02.01.02.02,0,0,.02.01.02.02,0,0,.02.01.02.02,0,0,.02.01.02.02,0,0,.02.01.02.02,0,0,.02.01.02.02,0,0,.02,0,.02.01,0,0,.02,0,.02.01,0,0,.02,0,.02.01,0,0,.02,0,.02.01,0,0,.02,0,.02.01,0,0,.02,0,.02.01,0,0,.02,0,.02.01,0,0,.02,0,.02.01,0,0,.02,0,.02.01,0,0,.02,0,.02.01,0,0,.02,0,.02.01,0,0,.02,0,.02.01,0,0,.02,0,.02.01s.02,0,.02.01c0,0,.02,0,.02.01,0,0,.02,0,.02.01,0,0,.02,0,.02.01,0,0,.02,0,.02.01,0,0,.02,0,.02.01,0,0,.02,0,.02.01,0,0,.02,0,.02.01,0,0,.02,0,.02.01,0,0,.02,0,.02,0,0,0,.02,0,.02,0,0,0,.02,0,.02,0,0,0,.02,0,.02,0,0,0,.02,0,.02,0,0,0,.02,0,.02,0,0,0,.02,0,.02,0,0,0,.02,0,.02,0,0,0,.02,0,.02,0,0,0,.02,0,.02,0s.02,0,.02,0c0,0,.02,0,.02,0s.02,0,.02,0c0,0,.02,0,.02,0,0,0,.02,0,.02,0,0,0,.02,0,.02,0,0,0,.02,0,.02,0,0,0,.02,0,.02,0,0,0,.02,0,.02,0,0,0,.02,0,.02,0,0,0,.02,0,.02,0,0,0,.02,0,.02,0,0,0,.02,0,.02,0,0,0,.02,0,.02,0,0,0,.02,0,.02,0,0,0,.02,0,.02,0,0,0,.02,0,.02,0,0,0,.02,0,.02,0s.02,0,.02,0c0,0,.02,0,.02,0,0,0,.02,0,.02,0,0,0,.02,0,.02,0,0,0,.02,0,.02,0,0,0,.02,0,.02,0,0,0,.02,0,.02,0,0,0,.02,0,.02,0,0,0,.02,0,.02,0,0,0,.02,0,.02,0,0,0,.02,0,.02,0,0,0,.02,0,.02,0,0,0,.02,0,.02,0s.02,0,.02,0c0,0,.02,0,.02,0,0,0,.02,0,.02,0,0,0,.02,0,.02,0,0,0,.02,0,.02,0,0,0,.02,0,.02,0,0,0,.02,0,.02,0,0,0,.02,0,.02,0s.02,0,.02,0c0,0,.02,0,.02,0,0,0,.02,0,.02,0s.02,0,.02,0,.02,0,.02,0c0,0,.02,0,.02,0,0,0,.02,0,.02,0,0,0,.02,0,.02,0,0,0,.02,0,.02,0,0,0,.02,0,.02,0s.02,0,.02,0c0,0,.02,0,.02,0s.02,0,.02,0c0,0,.01,0,.02,0,0,0,0,0,0,0,0,0,.02,0,.02,0,0,0,.02,0,.02,0s.02,0,.02,0c0,0,.02,0,.02,0,0,0,.02,0,.02,0,0,0,.02,0,.02,0,0,0,.02,0,.02,0s.02,0,.02,0c0,0,.02,0,.02,0,0,0,.02,0,.02,0,0,0,.02,0,.02,0,0,0,.02,0,.02,0s.02,0,.02,0c0,0,.02,0,.02,0,0,0,.02,0,.02,0,0,0,.02,0,.02,0,0,0,.02,0,.02,0,0,0,.02,0,.02,0s.02,0,.02,0c0,0,.02,0,.02,0,0,0,.02,0,.02,0s.02,0,.02,0c0,0,.02,0,.02,0,0,0,.02,0,.02,0,0,0,.02,0,.02,0,0,0,.02,0,.02,0,0,0,.02,0,.02,0s.02,0,.02,0c0,0,.02,0,.02,0,0,0,.02,0,.02,0,0,0,.02,0,.02,0,0,0,.02,0,.02,0,0,0,.02,0,.02,0,0,0,.02,0,.02,0,0,0,.02,0,.02,0s.02,0,.02,0c0,0,.02,0,.02,0,0,0,.02,0,.02,0s.02,0,.02,0,.02,0,.02,0c0,0,.02,0,.02,0,0,0,.02,0,.02,0,0,0,.02,0,.02,0,0,0,.02,0,.02,0s.02,0,.02,0,.02,0,.02,0c0,0,.02,0,.02,0,0,0,.02,0,.02,0,0,0,.02,0,.02,0,0,0,.02,0,.02,0,0,0,.02,0,.02,0,0,0,.02,0,.02,0,0,0,.02,0,.02,0s.02,0,.02,0,.02,0,.02,0c0,0,.02,0,.02,0,0,0,.02,0,.02,0,0,0,.02,0,.02,0,0,0,.02,0,.02,0,0,0,.02,0,.02,0,0,0,.02,0,.02,0,0,0,.02,0,.02,0,0,0,.02,0,.02,0,0,0,.02,0,.02-.01,0,0,.02,0,.02-.01,0,0,.02,0,.02-.01s.02,0,.02-.01c0,0,.02,0,.02-.01,0,0,.02,0,.02-.01,0,0,.02,0,.02-.01,0,0,.02,0,.02-.01,0,0,.02,0,.02-.01,0,0,.02,0,.02-.01,0,0,.02,0,.02-.01s.02,0,.02-.01c0,0,.02,0,.02-.01,0,0,.02,0,.02-.01,0,0,.02,0,.02-.01,0,0,.02,0,.02-.01,0,0,.02,0,.02-.01s.02,0,.02-.01c0,0,.02,0,.02-.01,0,0,.02,0,.02-.01,0,0,.02,0,.02-.01,0,0,.02-.01.02-.02,0,0,.02-.01.02-.02,0,0,.02-.01.02-.02,0,0,.02-.01.02-.02,0,0,.02-.01.02-.02,0,0,.02-.01.02-.02,0,0,.02-.01.02-.02,0,0,.02-.01.02-.02,0,0,.02-.01.02-.02s.02-.01.02-.02c0,0,.02-.01.02-.02s.02-.01.02-.02c0,0,.02-.01.02-.02,0,0,.02-.01.02-.02,0,0,.02-.01.02-.02,0,0,.02-.01.02-.02,0,0,.02-.01.02-.02,0,0,.02-.01.02-.02,0,0,.02-.01.02-.02,0,0,.02-.01.02-.02,0,0,.02-.01.02-.02,0,0,.02-.01.02-.02,0,0,.02-.01.02-.02,0,0,.02-.01.02-.02,0,0,.02-.01.02-.02,0,0,.02-.02.02-.02,0,0,.02-.02.02-.02s.02-.02.02-.02.02-.02.02-.02c0,0,.02-.01.02-.02,0,0,.02-.02.02-.02,0,0,.02-.02.02-.02,0,0,.02-.02.02-.02s.02-.02.02-.02c0,0,.02-.02.02-.02,0,0,.02-.02.02-.03,0,0,.02-.02.02-.03s.02-.02.02-.03.02-.02.02-.03c0,0,.02-.02.02-.03,0,0,.02-.02.02-.03,0,0,.02-.02.02-.03,0,0,.02-.02.02-.03s.02-.02.02-.03c0-.01.02-.02.02-.03,0-.01.02-.02.02-.03,0-.01.02-.02.02-.03,0-.01.02-.02.02-.03,0-.01.02-.02.02-.03,0-.01.02-.02.02-.03,0-.01.02-.02.02-.04,0-.01.02-.02.02-.04s.02-.02.02-.04c0-.01.02-.02.02-.04,0-.01.02-.03.02-.04,0-.01.02-.03.02-.04s.02-.03.02-.04c0-.01.02-.03.02-.04,0-.01.02-.03.02-.04,0-.02.02-.03.02-.05s.02-.03.02-.05c0-.02.02-.03.02-.05,0-.02.02-.04.02-.05,0-.02.02-.04.02-.05s.02-.03.02-.05c0-.02.02-.04.02-.06,0-.02.02-.04.02-.06,0-.02.02-.04.02-.06,0-.02.02-.05.02-.07,0-.02.02-.05.02-.07,0-.02.02-.05.02-.07,0-.03.02-.06.02-.08,0-.03.02-.06.02-.09,0-.03.02-.07.02-.1,0-.04.02-.07.02-.11,0-.04.02-.09.02-.13,0-.06.02-.12.02-.18.02-.14.02-.28.02-.43s0-.29-.02-.43c0-.06-.01-.12-.02-.18,0-.04-.02-.09-.02-.13,0-.04-.02-.07-.02-.11,0-.03-.02-.07-.02-.1,0-.03-.02-.06-.02-.09,0-.03-.02-.06-.02-.08,0-.02-.02-.05-.02-.07,0-.02-.02-.05-.02-.07,0-.02-.02-.05-.02-.07,0-.02-.02-.04-.02-.06,0-.02-.02-.04-.02-.06,0-.02-.02-.04-.02-.06,0-.02-.02-.04-.02-.05s-.02-.04-.02-.05c0-.02-.02-.04-.02-.05,0-.02-.02-.03-.02-.05,0-.02-.02-.03-.02-.05s-.02-.03-.02-.05c0-.01-.02-.03-.02-.04,0-.01-.02-.03-.02-.04,0-.01-.02-.03-.02-.04s-.02-.03-.02-.04c0-.01-.02-.03-.02-.04,0-.01-.02-.02-.02-.04,0-.01-.02-.02-.02-.04s-.02-.02-.02-.04c0-.01-.02-.02-.02-.04,0-.01-.02-.02-.02-.03,0-.01-.02-.02-.02-.03,0-.01-.02-.02-.02-.03,0-.01-.02-.02-.02-.03,0-.01-.02-.02-.02-.03,0-.01-.02-.02-.02-.03,0-.01-.02-.02-.02-.03s-.02-.02-.02-.03c0,0-.02-.02-.02-.03,0,0-.02-.02-.02-.03,0,0-.02-.02-.02-.03,0,0-.02-.02-.02-.03s-.02-.02-.02-.03-.02-.02-.02-.03c0,0-.02-.02-.02-.03,0,0-.01-.02-.02-.02l1.66-3s.01,0,.02,0c.01,0,.02,0,.04.01.01,0,.02,0,.04.01.01,0,.02,0,.04.01s.02,0,.04.01c.01,0,.02,0,.04.01.01,0,.02,0,.04.01.01,0,.02,0,.04.01.01,0,.02,0,.04.01.01,0,.02,0,.04.01.01,0,.02,0,.04.01.01,0,.02,0,.04.01.01,0,.02,0,.04.01.01,0,.02,0,.04.01.01,0,.02,0,.04.01.01,0,.02,0,.04.01.01,0,.02,0,.04.01.01,0,.02,0,.04,0,.01,0,.02,0,.04,0,.01,0,.02,0,.04,0,.01,0,.02,0,.04,0,.01,0,.02,0,.04,0s.02,0,.04,0c.01,0,.02,0,.04,0s.02,0,.04,0c.01,0,.02,0,.04,0,.01,0,.02,0,.04,0,.01,0,.02,0,.04,0,.01,0,.02,0,.04,0,.01,0,.02,0,.04,0s.02,0,.04,0,.02,0,.04,0c.01,0,.02,0,.04,0,.01,0,.02,0,.04,0,.01,0,.02,0,.04,0,.01,0,.02,0,.04,0s.02,0,.04,0c.01,0,.02,0,.04,0,.01,0,.02,0,.04,0,.01,0,.02,0,.04,0,.01,0,.02,0,.04,0,.01,0,.02,0,.04,0,.01,0,.02,0,.04,0,.01,0,.02,0,.04,0,.01,0,.02,0,.04,0,.01,0,.02,0,.04,0,.01,0,.02,0,.04,0,.01,0,.02,0,.04,0,.01,0,.02,0,.04,0,.01,0,.02,0,.04,0,.01,0,.02,0,.04,0,.01,0,.02,0,.04,0,.01,0,.02,0,.04,0s.02,0,.04,0c.01,0,.02,0,.04,0s.02,0,.04,0c.01,0,.02,0,.04,0,0,0,.02,0,.03,0,0,0,0,0,0,0,.01,0,.02,0,.04,0,.01,0,.02,0,.04,0s.02,0,.04,0c.01,0,.02,0,.04,0,.01,0,.02,0,.04,0s.02,0,.04,0c.01,0,.02,0,.04,0,.01,0,.02,0,.04,0,.01,0,.02,0,.04,0,.01,0,.02,0,.04,0s.02,0,.04,0c.01,0,.02,0,.04,0,.01,0,.02,0,.04,0s.02,0,.04,0c.01,0,.02,0,.04,0,.01,0,.02,0,.04,0,.01,0,.02,0,.04,0,.01,0,.02,0,.04,0s.02,0,.04,0c.01,0,.02,0,.04,0,.01,0,.02,0,.04,0,.01,0,.02,0,.04,0,.01,0,.02,0,.04,0,.01,0,.02,0,.04,0,.01,0,.02,0,.04,0,.01,0,.02,0,.04,0,.01,0,.02,0,.04,0,.01,0,.02,0,.04,0,.01,0,.02,0,.04,0,.01,0,.02,0,.04,0,.01,0,.02,0,.04,0,.01,0,.02,0,.04,0,.01,0,.02,0,.04,0,.01,0,.02,0,.04,0,.01,0,.02,0,.04,0,.01,0,.02,0,.04,0s.02,0,.04,0,.02,0,.04,0c.01,0,.02,0,.04,0,.01,0,.02,0,.04,0,.01,0,.02,0,.04,0,.01,0,.02,0,.04-.01.02,0,.05-.01.07-.02.01,0,.02,0,.04-.01.01,0,.02,0,.04-.01.01,0,.02,0,.04-.01.01,0,.02,0,.04-.01.01,0,.02,0,.04-.01.01,0,.02,0,.04-.01.02,0,.05-.02.07-.02.01,0,.02,0,.04-.01.01,0,.02,0,.04-.01.01,0,.02,0,.04-.01.02,0,.05-.02.07-.03.01,0,.02,0,.04-.01s.02,0,.04-.01c.01,0,.02,0,.04-.01.02,0,.05-.02.07-.03.01,0,.02,0,.04-.01.01,0,.02-.01.04-.02.02-.01.05-.02.07-.03.01,0,.02-.01.04-.02.02-.01.05-.02.07-.03.01,0,.02-.01.04-.02.02-.01.05-.02.07-.04.01,0,.02-.01.04-.02.02-.01.05-.02.07-.04.01,0,.02-.01.04-.02.02-.01.05-.03.07-.04.01,0,.02-.01.04-.02.02-.01.05-.03.07-.04.02-.01.05-.03.07-.04.02-.01.05-.03.07-.04.01,0,.02-.02.04-.02.02-.02.05-.03.07-.05.02-.02.05-.03.07-.05.02-.02.05-.03.07-.05.02-.02.05-.03.07-.05.02-.02.05-.03.07-.05.02-.02.05-.04.07-.05.04-.03.07-.06.11-.08.02-.02.05-.04.07-.06.02-.02.05-.04.07-.06.04-.03.07-.06.11-.09.04-.03.07-.07.11-.1.04-.03.07-.07.11-.1.04-.04.07-.07.11-.11.04-.04.07-.07.11-.11.05-.05.1-.11.14-.16.05-.06.1-.12.14-.18.06-.08.12-.16.18-.24.07-.11.15-.22.21-.33.12-.2.23-.41.32-.62.32-.72.5-1.51.5-2.35,0-.6-.09-1.18-.26-1.73l2.41-1.78c.26.36.58.68.94.93,0,0,.02.01.02.02,0,0,.02.01.02.02,0,0,.02.01.02.02,0,0,.02.01.02.02,0,0,.02.01.02.02s.02.01.02.02c0,0,.02.01.02.02,0,0,.02.01.02.02,0,0,.02,0,.02.01,0,0,.02,0,.02.01s.02,0,.02.01c0,0,.02,0,.02.01,0,0,.02,0,.02.01,0,0,.02,0,.02.01,0,0,.02,0,.02.01,0,0,.02,0,.02.01,0,0,.02,0,.02.01,0,0,.02,0,.02.01,0,0,.02,0,.02.01,0,0,.02,0,.02.01,0,0,.02,0,.02.01s.02,0,.02.01c0,0,.02,0,.02.01,0,0,.02,0,.02.01,0,0,.02,0,.02.01,0,0,.02,0,.02.01,0,0,.02,0,.02.01,0,0,.02,0,.02.01,0,0,.02,0,.02.01,0,0,.02,0,.02.01,0,0,.02,0,.02,0s.02,0,.02,0c0,0,.02,0,.02,0,0,0,.02,0,.02,0,0,0,.02,0,.02,0,0,0,.02,0,.02,0,0,0,.02,0,.02,0,0,0,.02,0,.02,0,0,0,.02,0,.02,0s.02,0,.02,0,.02,0,.02,0c0,0,.02,0,.02,0s.02,0,.02,0c0,0,.02,0,.02,0,0,0,.02,0,.02,0,0,0,.02,0,.02,0,0,0,.02,0,.02,0,0,0,.02,0,.02,0,0,0,.02,0,.02,0,0,0,.02,0,.02,0s.02,0,.02,0c0,0,.02,0,.02,0,0,0,.02,0,.02,0,0,0,.02,0,.02,0,0,0,.02,0,.02,0,0,0,.02,0,.02,0,0,0,.02,0,.02,0,0,0,.02,0,.02,0s.02,0,.02,0c0,0,.02,0,.02,0,0,0,.02,0,.02,0,0,0,.02,0,.02,0,0,0,.02,0,.02,0,0,0,.02,0,.02,0,0,0,.02,0,.02,0,0,0,.02,0,.02,0,0,0,.02,0,.02,0,0,0,.02,0,.02,0,0,0,.02,0,.02,0,0,0,.02,0,.02,0,0,0,.02,0,.02,0s.02,0,.02,0c0,0,.02,0,.02,0,0,0,.02,0,.02,0,0,0,.02,0,.02,0,0,0,.02,0,.02,0,0,0,.02,0,.02,0,0,0,.02,0,.02,0,0,0,.02,0,.02,0s.02,0,.02,0c0,0,.02,0,.02,0,0,0,.02,0,.02,0s.02,0,.02,0,.02,0,.02,0c0,0,.02,0,.02,0,0,0,.02,0,.02,0,0,0,.02,0,.02,0,0,0,.02,0,.02,0,0,0,.02,0,.02,0s.02,0,.02,0c0,0,.02,0,.02,0s.02,0,.02,0c0,0,.01,0,.02,0,0,0,0,0,0,0,0,0,.02,0,.02,0,0,0,.02,0,.02,0s.02,0,.02,0c0,0,.02,0,.02,0,0,0,.02,0,.02,0,0,0,.02,0,.02,0,0,0,.02,0,.02,0s.02,0,.02,0c0,0,.02,0,.02,0,0,0,.02,0,.02,0,0,0,.02,0,.02,0,0,0,.02,0,.02,0s.02,0,.02,0c0,0,.02,0,.02,0,0,0,.02,0,.02,0,0,0,.02,0,.02,0,0,0,.02,0,.02,0,0,0,.02,0,.02,0s.02,0,.02,0c0,0,.02,0,.02,0,0,0,.02,0,.02,0s.02,0,.02,0c0,0,.02,0,.02,0,0,0,.02,0,.02,0,0,0,.02,0,.02,0,0,0,.02,0,.02,0,0,0,.02,0,.02,0s.02,0,.02,0c0,0,.02,0,.02,0,0,0,.02,0,.02,0,0,0,.02,0,.02,0,0,0,.02,0,.02,0,0,0,.02,0,.02,0,0,0,.02,0,.02,0,0,0,.02,0,.02,0s.02,0,.02,0c0,0,.02,0,.02,0,0,0,.02,0,.02,0,0,0,.02,0,.02,0s.02,0,.02,0c0,0,.02,0,.02,0,0,0,.02,0,.02,0,0,0,.02,0,.02,0,0,0,.02,0,.02,0s.02,0,.02,0,.02,0,.02,0c0,0,.02,0,.02,0,0,0,.02,0,.02,0,0,0,.02,0,.02,0,0,0,.02,0,.02,0,0,0,.02,0,.02,0,0,0,.02,0,.02,0,0,0,.02,0,.02,0s.02,0,.02,0c0,0,.02,0,.02,0,0,0,.02,0,.02,0,0,0,.02,0,.02,0s.02,0,.02,0c0,0,.02,0,.02,0,0,0,.02,0,.02,0,0,0,.02,0,.02,0,0,0,.02,0,.02,0,0,0,.02,0,.02,0,0,0,.02,0,.02-.01,0,0,.02,0,.02-.01,0,0,.02,0,.02-.01s.02,0,.02-.01c0,0,.02,0,.02-.01,0,0,.02,0,.02-.01,0,0,.02,0,.02-.01,0,0,.02,0,.02-.01,0,0,.02,0,.02-.01,0,0,.02,0,.02-.01,0,0,.02,0,.02-.01,0,0,.02,0,.02-.01,0,0,.02,0,.02-.01,0,0,.02,0,.02-.01,0,0,.02,0,.02-.01,0,0,.02,0,.02-.01,0,0,.02,0,.02-.01,0,0,.02,0,.02-.01,0,0,.02,0,.02-.01,0,0,.02,0,.02-.01,0,0,.02,0,.02-.01,0,0,.02-.01.02-.02,0,0,.02-.01.02-.02,0,0,.02-.01.02-.02,0,0,.02-.01.02-.02,0,0,.02-.01.02-.02,0,0,.02-.01.02-.02,0,0,.02-.01.02-.02,0,0,.02-.01.02-.02,0,0,.02-.01.02-.02s.02-.01.02-.02c0,0,.02-.01.02-.02s.02-.01.02-.02c0,0,.02-.01.02-.02,0,0,.02-.01.02-.02,0,0,.02-.01.02-.02,0,0,.02-.01.02-.02,0,0,.02-.01.02-.02,0,0,.02-.01.02-.02,0,0,.02-.01.02-.02,0,0,.02-.01.02-.02,0,0,.02-.01.02-.02,0,0,.02-.01.02-.02,0,0,.02-.01.02-.02,0,0,.02-.01.02-.02,0,0,.02-.01.02-.02,0,0,.02-.02.02-.02,0,0,.02-.02.02-.02,0,0,.02-.02.02-.02,0,0,.02-.02.02-.02,0,0,.02-.01.02-.02,0,0,.02-.02.02-.02,0,0,.02-.02.02-.02,0,0,.02-.02.02-.02,0,0,.02-.02.02-.02,0,0,.02-.02.02-.02,0,0,.02-.02.02-.03,0,0,.02-.02.02-.03s.02-.02.02-.03.02-.02.02-.03c0,0,.02-.02.02-.03,0,0,.02-.02.02-.03,0,0,.02-.02.02-.03,0,0,.02-.02.02-.03s.02-.02.02-.03c0-.01.02-.02.02-.03,0-.01.02-.02.02-.03,0-.01.02-.02.02-.03,0-.01.02-.02.02-.03,0-.01.02-.02.02-.03,0-.01.02-.02.02-.03,0-.01.02-.02.02-.04,0-.01.02-.02.02-.04s.02-.02.02-.04c0-.01.02-.02.02-.04,0-.01.02-.03.02-.04,0-.01.02-.03.02-.04,0-.01.02-.03.02-.04,0-.01.02-.03.02-.04,0-.01.02-.03.02-.04,0-.02.02-.03.02-.05s.02-.03.02-.05c0-.02.02-.03.02-.05,0-.02.02-.04.02-.05,0-.02.02-.04.02-.05s.02-.03.02-.05c0-.02.02-.04.02-.06,0-.02.02-.04.02-.06,0-.02.02-.04.02-.06,0-.02.02-.05.02-.07,0-.02.02-.05.02-.07,0-.02.02-.05.02-.07,0-.03.02-.06.02-.08,0-.03.02-.06.02-.09,0-.03.02-.07.02-.1,0-.04.02-.07.02-.11,0-.04.02-.09.02-.13,0-.06.02-.12.02-.18.02-.14.02-.28.02-.43s0-.29-.02-.43ZM46.71,63.79s-.02.01-.04.02c-.01,0-.02.01-.04.02-.01,0-.02.01-.04.02-.01,0-.02.01-.04.02-.01,0-.02.01-.04.02-.01,0-.02.02-.04.02-.01,0-.02.02-.04.02-.01,0-.02.02-.04.02-.01,0-.02.02-.04.02-.01,0-.02.02-.04.02-.01,0-.02.02-.04.02-.01,0-.02.02-.04.03-1.51,1.04-2.51,2.79-2.51,4.76,0,1.19.36,2.29.98,3.21-.62.26-1.3.4-2.02.4-.49,0-.97-.07-1.42-.2.02-.03.05-.06.07-.09.07-.11.15-.22.21-.33.12-.2.23-.41.32-.62.32-.72.5-1.51.5-2.35s-.18-1.63-.5-2.35c-.09-.21-.2-.42-.32-.62-.07-.11-.14-.22-.21-.33-.06-.08-.12-.16-.18-.24-.05-.06-.09-.12-.14-.18-.05-.06-.09-.11-.14-.16-.03-.04-.07-.08-.11-.11-.04-.04-.07-.07-.11-.11-.03-.03-.07-.07-.11-.1-.04-.03-.07-.07-.11-.1-.04-.03-.07-.06-.11-.09-.02-.02-.05-.04-.07-.06-.02-.02-.05-.04-.07-.06-.04-.03-.07-.06-.11-.08-.02-.02-.05-.04-.07-.05-.02-.02-.05-.03-.07-.05-.02-.02-.05-.03-.07-.05-.02-.02-.05-.03-.07-.05-.02-.02-.05-.03-.07-.05s-.05-.03-.07-.05c-.01,0-.02-.02-.04-.02-.02-.01-.05-.03-.07-.04-.02-.01-.05-.03-.07-.04-.02-.01-.05-.03-.07-.04-.01,0-.02-.01-.04-.02-.02-.01-.05-.03-.07-.04-.01,0-.02-.01-.04-.02-.02-.01-.05-.02-.07-.04-.01,0-.02-.01-.04-.02-.02-.01-.05-.02-.07-.04-.01,0-.02-.01-.04-.02-.02-.01-.05-.02-.07-.03-.01,0-.02-.01-.04-.02-.01,0-.03-.01-.04-.02.95-.99,2.29-1.61,3.77-1.61,1.59,0,3.02.71,3.98,1.84,0,0,0,0,0,0ZM40.44,60.85s.02-.01.03-.02c.04-.03.07-.06.11-.08.02-.02.05-.04.07-.06.02-.02.05-.04.07-.06.04-.03.07-.06.11-.09.04-.03.07-.07.11-.1.04-.03.07-.07.11-.1.04-.04.07-.07.11-.11.04-.04.07-.07.11-.11.05-.05.1-.11.14-.16.05-.06.1-.12.14-.18.06-.08.12-.16.18-.24.07-.11.15-.22.21-.33.12-.2.23-.41.32-.62.32-.72.5-1.51.5-2.35s-.18-1.63-.5-2.35c-.09-.21-.2-.42-.32-.62-.07-.11-.14-.22-.21-.33-.06-.08-.12-.16-.18-.24-.05-.06-.09-.12-.14-.18-.05-.06-.09-.11-.14-.16-.03-.04-.07-.08-.11-.11-.04-.04-.07-.07-.11-.11-.03-.03-.07-.07-.11-.1-.04-.03-.07-.07-.11-.1-.04-.03-.07-.06-.11-.09-.02-.02-.05-.04-.07-.06-.02-.02-.05-.04-.07-.06,0,0-.02-.01-.03-.02.74-.4,1.59-.63,2.5-.63,1.01,0,1.95.29,2.75.78-1.24,1.06-2.02,2.63-2.02,4.39s.83,3.41,2.12,4.47c-.82.54-1.8.85-2.85.85-.95,0-1.84-.25-2.61-.7ZM42.4,48.48s.02,0,.02,0c0,0,.02,0,.02,0,0,0,.02,0,.02,0,0,0,.02,0,.02,0,0,0,.02,0,.02,0,0,0,.02,0,.02,0,0,0,.02,0,.02,0,0,0,.02,0,.02,0,0,0,.02,0,.02,0,0,0,.02,0,.02,0,0,0,.02,0,.02,0,0,0,.02,0,.02,0,0,0,.02,0,.02,0,0,0,.02,0,.02,0,0,0,.02,0,.02,0,0,0,.02,0,.02,0,0,0,.02,0,.02,0,0,0,.02,0,.02,0,0,0,.02,0,.02,0,0,0,.02,0,.02,0,0,0,.02,0,.02,0,0,0,.02,0,.02,0,0,0,.02,0,.02,0,0,0,.02,0,.02,0,0,0,.02,0,.02,0,0,0,.02,0,.02,0,0,0,.02,0,.02,0,0,0,.02,0,.02,0,0,0,.02,0,.02,0,0,0,.02,0,.02,0,0,0,.02,0,.02,0,0,0,.02,0,.02,0,0,0,.02,0,.02,0,0,0,.02,0,.02,0,0,0,.02,0,.02,0,0,0,.02,0,.02,0,0,0,.02,0,.02,0s.02,0,.02,0c0,0,.02,0,.02,0,0,0,.02,0,.02,0,0,0,.02,0,.02,0s.02,0,.02,0c0,0,.02,0,.02,0,0,0,.02,0,.02,0,0,0,.02,0,.02,0,0,0,.02,0,.02,0,0,0,.02,0,.02,0s.02,0,.02,0c0,0,.02,0,.02,0,0,0,.02,0,.02,0,0,0,.01,0,.02,0,0,0,0,0,0,0,0,0,.02,0,.02,0,0,0,.02,0,.02,0s.02,0,.02,0c0,0,.02,0,.02,0,0,0,.02,0,.02,0,0,0,.02,0,.02,0,0,0,.02,0,.02,0,0,0,.02,0,.02,0,0,0,.02,0,.02,0,0,0,.02,0,.02,0,0,0,.02,0,.02,0,0,0,.02,0,.02,0s.02,0,.02,0c0,0,.02,0,.02,0,0,0,.02,0,.02,0,0,0,0,0,0,0l1.47,2.55c-.73-.35-1.55-.54-2.41-.54-.77,0-1.51.16-2.18.44l1.52-2.63s0,0,.01,0ZM37.47,63.13s-.02,0-.04,0c-.01,0-.02,0-.04,0-.01,0-.02,0-.04,0-.01,0-.02,0-.04,0-.01,0-.02,0-.04,0s-.02,0-.04,0c-.01,0-.02,0-.04,0-.01,0-.02,0-.04,0-.01,0-.02,0-.04,0-.01,0-.02,0-.04,0-.01,0-.02,0-.04,0-.01,0-.02,0-.04,0-.01,0-.02,0-.04,0s-.02,0-.04,0c-.01,0-.02,0-.04,0-.01,0-.02,0-.04,0-.01,0-.02,0-.04,0-.01,0-.02,0-.04,0s-.02,0-.04,0c-.01,0-.02,0-.04,0-.01,0-.02,0-.04,0s-.02,0-.04,0c-.01,0-.02,0-.04,0,0,0,0,0,0,0,0,0-.02,0-.03,0-.01,0-.02,0-.04,0-.01,0-.02,0-.04,0s-.02,0-.04,0c-.01,0-.02,0-.04,0s-.02,0-.04,0c-.01,0-.02,0-.04,0-.01,0-.02,0-.04,0-.01,0-.02,0-.04,0-.01,0-.02,0-.04,0-.01,0-.02,0-.04,0-.01,0-.02,0-.04,0-.01,0-.02,0-.04,0-.01,0-.02,0-.04,0-.01,0-.02,0-.04,0-.01,0-.02,0-.04,0-.01,0-.02,0-.04,0-.01,0-.02,0-.04,0-.01,0-.02,0-.04,0-.01,0-.02,0-.04,0-.01,0-.02,0-.04,0-.01,0-.02,0-.04,0s-.02,0-.04,0c-.01,0-.02,0-.04,0-.01,0-.02,0-.04,0-.01,0-.02,0-.04,0-.01,0-.02,0-.04,0s-.02,0-.04,0-.02,0-.04,0c-.01,0-.02,0-.04,0-.01,0-.02,0-.04,0-.01,0-.02,0-.04,0-.01,0-.02,0-.04,0-.01,0-.02,0-.04,0s-.02,0-.04,0c-.01,0-.02,0-.04,0s-.02,0-.04,0c-.01,0-.02,0-.04,0-.01,0-.02,0-.04,0-.01,0-.02,0-.04,0-.01,0-.02,0-.04,0-.01,0-.02,0-.04.01-.01,0-.02,0-.04.01-.01,0-.02,0-.04.01-.01,0-.02,0-.04.01-.01,0-.02,0-.04.01-.01,0-.02,0-.04.01-.01,0-.02,0-.04.01-.01,0-.02,0-.04.01-.01,0-.02,0-.04.01-.01,0-.02,0-.04.01-.01,0-.02,0-.04.01-.01,0-.02,0-.04.01-.01,0-.02,0-.04.01s-.02,0-.04.01c-.01,0-.02,0-.04.01-.01,0-.02,0-.04.01-.01,0-.02,0-.04.01-.01,0-.02,0-.04.01-.01,0-.02,0-.04.01-.01,0-.02,0-.04.01-.01,0-.02,0-.04.01-.01,0-.02,0-.04.01-.01,0-.02.01-.04.02-.01,0-.02.01-.04.02-.01,0-.02.01-.04.02-.01,0-.02.01-.04.02-.01,0-.02.01-.04.02-.01,0-.02.01-.04.02s-.02.01-.04.02c-.01,0-.02.01-.04.02-.01,0-.02.01-.04.02-.01,0-.02.01-.04.02s-.02.01-.04.02-.02.01-.04.02c-.01,0-.02.01-.04.02-.01,0-.02.01-.04.02-.01,0-.02.01-.04.02-.01,0-.02.01-.04.02-.01,0-.02.01-.04.02-.01,0-.02.01-.04.02-.01,0-.02.01-.04.02-.01,0-.02.01-.04.02-.01,0-.02.01-.04.02-.01,0-.02.01-.04.02-.01,0-.02.02-.04.02-.01,0-.02.02-.04.02-.01,0-.02.02-.04.02-.01,0-.02.02-.04.02-.01,0-.02.02-.04.02-.01,0-.02.02-.04.02-.01,0-.02.02-.04.03-.45.31-.85.68-1.19,1.09l-2.93-2.08s0,0,0,0c0-.03.02-.06.02-.09,0-.03.02-.07.02-.1,0-.04.02-.07.02-.11,0-.04.02-.09.02-.13,0-.06.02-.12.02-.18.02-.14.02-.28.02-.43,0-.04,0-.08,0-.12l3.02-2.14c.36.46.79.87,1.28,1.2.01,0,.02.02.04.03.01,0,.02.02.04.02.01,0,.02.02.04.02.01,0,.02.02.04.02.01,0,.02.02.04.02.01,0,.02.02.04.02.01,0,.02.02.04.02.01,0,.02.01.04.02.01,0,.02.01.04.02.01,0,.02.01.04.02.01,0,.02.01.04.02.01,0,.02.01.04.02.01,0,.02.01.04.02.01,0,.02.01.04.02.01,0,.02.01.04.02.01,0,.02.01.04.02.01,0,.02.01.04.02.01,0,.02.01.04.02s.02.01.04.02.02.01.04.02c.01,0,.02.01.04.02.01,0,.02.01.04.02.01,0,.02.01.04.02s.02.01.04.02c.01,0,.02.01.04.02.01,0,.02.01.04.02.01,0,.02.01.04.02.01,0,.02.01.04.02.01,0,.02.01.04.02.01,0,.02,0,.04.01.01,0,.02,0,.04.01.01,0,.02,0,.04.01.01,0,.02,0,.04.01.01,0,.02,0,.04.01.01,0,.02,0,.04.01.01,0,.02,0,.04.01.01,0,.02,0,.04.01.01,0,.02,0,.04.01s.02,0,.04.01c.01,0,.02,0,.04.01.01,0,.02,0,.04.01.01,0,.02,0,.04.01.01,0,.02,0,.04.01.01,0,.02,0,.04.01.01,0,.02,0,.04.01.01,0,.02,0,.04.01.01,0,.02,0,.04.01.01,0,.02,0,.04.01.01,0,.02,0,.04.01.01,0,.02,0,.04.01.01,0,.02,0,.04.01.01,0,.02,0,.04,0,.01,0,.02,0,.04,0,.01,0,.02,0,.04,0,.01,0,.02,0,.04,0,.01,0,.02,0,.04,0s.02,0,.04,0c.01,0,.02,0,.04,0s.02,0,.04,0c.01,0,.02,0,.04,0,.01,0,.02,0,.04,0,.01,0,.02,0,.04,0,.01,0,.02,0,.04,0,.01,0,.02,0,.04,0s.02,0,.04,0,.02,0,.04,0c.01,0,.02,0,.04,0,.01,0,.02,0,.04,0,.01,0,.02,0,.04,0,.01,0,.02,0,.04,0s.02,0,.04,0c.01,0,.02,0,.04,0,.01,0,.02,0,.04,0,.01,0,.02,0,.04,0,.01,0,.02,0,.04,0,.01,0,.02,0,.04,0,.01,0,.02,0,.04,0,.01,0,.02,0,.04,0,.01,0,.02,0,.04,0,.01,0,.02,0,.04,0,.01,0,.02,0,.04,0,.01,0,.02,0,.04,0,.01,0,.02,0,.04,0,.01,0,.02,0,.04,0,.01,0,.02,0,.04,0,.01,0,.02,0,.04,0,.01,0,.02,0,.04,0s.02,0,.04,0c.01,0,.02,0,.04,0s.02,0,.04,0c.01,0,.02,0,.04,0,0,0,.02,0,.03,0,0,0,0,0,0,0,.01,0,.02,0,.04,0,.01,0,.02,0,.04,0s.02,0,.04,0c.01,0,.02,0,.04,0,.01,0,.02,0,.04,0s.02,0,.04,0c.01,0,.02,0,.04,0,.01,0,.02,0,.04,0,.01,0,.02,0,.04,0,.01,0,.02,0,.04,0s.02,0,.04,0c.01,0,.02,0,.04,0,.01,0,.02,0,.04,0,.01,0,.02,0,.04,0,.01,0,.02,0,.04,0,.01,0,.02,0,.04,0,.01,0,.02,0,.04,0,.01,0,.02,0,.04,0s.02,0,.04,0c.01,0,.02,0,.04,0,.01,0,.02,0,.04,0,.01,0,.02,0,.04,0,.01,0,.02,0,.04,0,.01,0,.02,0,.04,0,.01,0,.02,0,.04,0,.01,0,.02,0,.04,0,.01,0,.02,0,.04,0,.01,0,.02,0,.04,0,.01,0,.02,0,.04,0,.01,0,.02,0,.04,0,.01,0,.02,0,.04,0,.01,0,.02,0,.04,0,.01,0,.02,0,.04,0,.01,0,.02,0,.04,0,.01,0,.02,0,.04,0,.01,0,.02,0,.04,0s.02,0,.04,0,.02,0,.04,0c.01,0,.02,0,.04,0,.01,0,.02,0,.04,0,.01,0,.02,0,.04,0,.01,0,.02,0,.04-.01.02,0,.05-.01.07-.02.01,0,.02,0,.04-.01.01,0,.02,0,.04-.01.01,0,.02,0,.04-.01.01,0,.02,0,.04-.01.01,0,.02,0,.04-.01.01,0,.02,0,.04-.01.02,0,.05-.02.07-.02.01,0,.02,0,.04-.01s.02,0,.04-.01c.01,0,.02,0,.04-.01.02,0,.05-.02.07-.03.01,0,.02,0,.04-.01s.02,0,.04-.01c.01,0,.02,0,.04-.01.02,0,.05-.02.07-.03.01,0,.02,0,.04-.01.01,0,.02-.01.04-.02.02-.01.05-.02.07-.03.01,0,.02-.01.04-.02.02-.01.05-.02.07-.03.01,0,.02-.01.04-.02.02-.01.05-.02.07-.04.01,0,.02-.01.04-.02.02-.01.05-.02.07-.04.01,0,.02-.01.04-.02.02-.01.05-.03.07-.04.01,0,.02-.01.04-.02.02-.01.05-.03.07-.04.02-.01.05-.03.07-.04.02-.01.05-.03.07-.04.01,0,.02-.02.04-.02.01,0,.03-.02.04-.03.41.26.86.46,1.33.61-1.11.27-2.1.87-2.85,1.69,0,0-.02,0-.03,0-.01,0-.02,0-.04-.01-.02,0-.05-.02-.07-.02-.01,0-.02,0-.04-.01-.01,0-.02,0-.04-.01-.01,0-.02,0-.04-.01-.01,0-.02,0-.04-.01-.01,0-.02,0-.04-.01-.01,0-.02,0-.04-.01-.02,0-.05-.01-.07-.02-.01,0-.02,0-.04-.01-.01,0-.02,0-.04,0-.01,0-.02,0-.04,0-.01,0-.02,0-.04,0-.01,0-.02,0-.04,0s-.02,0-.04,0-.02,0-.04,0c-.01,0-.02,0-.04,0-.01,0-.02,0-.04,0-.01,0-.02,0-.04,0-.01,0-.02,0-.04,0-.01,0-.02,0-.04,0-.01,0-.02,0-.04,0-.01,0-.02,0-.04,0-.01,0-.02,0-.04,0-.01,0-.02,0-.04,0-.01,0-.02,0-.04,0-.01,0-.02,0-.04,0-.01,0-.02,0-.04,0ZM43.33,76.02s-.02,0-.02,0c0,0-.02,0-.02,0,0,0-.02,0-.02,0,0,0-.02,0-.02,0,0,0-.02,0-.02,0s-.02,0-.02,0c0,0-.02,0-.02,0,0,0-.02,0-.02,0,0,0-.02,0-.02,0,0,0-.02,0-.02,0s-.02,0-.02,0c0,0-.02,0-.02,0,0,0,0,0,0,0,0,0-.01,0-.02,0,0,0-.02,0-.02,0s-.02,0-.02,0c0,0-.02,0-.02,0s-.02,0-.02,0c0,0-.02,0-.02,0,0,0-.02,0-.02,0,0,0-.02,0-.02,0,0,0-.02,0-.02,0,0,0-.02,0-.02,0s-.02,0-.02,0-.02,0-.02,0c0,0-.02,0-.02,0,0,0-.02,0-.02,0s-.02,0-.02,0c0,0-.02,0-.02,0,0,0-.02,0-.02,0,0,0-.02,0-.02,0,0,0-.02,0-.02,0,0,0-.02,0-.02,0,0,0-.02,0-.02,0,0,0-.02,0-.02,0s-.02,0-.02,0c0,0-.02,0-.02,0,0,0-.02,0-.02,0,0,0-.02,0-.02,0,0,0-.02,0-.02,0,0,0-.02,0-.02,0,0,0-.02,0-.02,0,0,0-.02,0-.02,0,0,0-.02,0-.02,0,0,0-.02,0-.02,0,0,0-.02,0-.02,0,0,0-.02,0-.02,0,0,0-.02,0-.02,0s-.02,0-.02,0c0,0-.02,0-.02,0,0,0-.02,0-.02,0,0,0-.02,0-.02,0,0,0-.02,0-.02,0,0,0-.02,0-.02,0,0,0-.02,0-.02,0,0,0-.02,0-.02,0,0,0-.02,0-.02,0,0,0-.02,0-.02,0,0,0-.02,0-.02,0,0,0-.02,0-.02,0,0,0-.02,0-.02,0,0,0-.02,0-.02,0,0,0-.02,0-.02,0,0,0-.02,0-.02,0s-.02,0-.02,0c0,0-.02,0-.02,0s-.02,0-.02,0c0,0,0,0,0,0l-1.65-2.75s.03-.02.05-.03c.04-.03.07-.06.11-.08.02-.02.05-.04.07-.06.02-.02.05-.04.07-.06.04-.03.07-.06.11-.09.04-.03.07-.07.11-.1.04-.03.07-.07.11-.1.04-.04.07-.07.11-.11.04-.04.07-.07.11-.11.04-.05.09-.1.13-.15.53.17,1.1.26,1.68.26.8,0,1.56-.17,2.26-.47.07.09.15.18.22.27l-1.88,3.39s0,0-.01,0ZM53.62,64.71s-.07-.06-.1-.09c-.04-.03-.07-.07-.11-.1-.04-.03-.07-.06-.11-.09-.02-.02-.05-.04-.07-.06-.02-.02-.05-.04-.07-.06-.04-.03-.07-.06-.11-.08-.02-.02-.05-.04-.07-.05-.02-.02-.05-.03-.07-.05-.02-.02-.05-.03-.07-.05-.02-.02-.05-.03-.07-.05-.02-.02-.05-.03-.07-.05-.02-.02-.05-.03-.07-.05-.01,0-.02-.02-.04-.02-.02-.01-.05-.03-.07-.04-.02-.01-.05-.03-.07-.04-.02-.01-.05-.03-.07-.04-.01,0-.02-.01-.04-.02-.02-.01-.05-.03-.07-.04-.01,0-.02-.01-.04-.02-.02-.01-.05-.02-.07-.04-.01,0-.02-.01-.04-.02-.02-.01-.05-.02-.07-.04-.01,0-.02-.01-.04-.02-.02-.01-.05-.02-.07-.03-.01,0-.02-.01-.04-.02-.02-.01-.05-.02-.07-.03-.01,0-.02-.01-.04-.02-.01,0-.02,0-.04-.01-.02,0-.05-.02-.07-.03-.01,0-.02,0-.04-.01-.01,0-.02,0-.04-.01s-.02,0-.04-.01c-.02,0-.05-.02-.07-.03-.01,0-.02,0-.04-.01-.01,0-.02,0-.04-.01-.01,0-.02,0-.04-.01-.02,0-.05-.02-.07-.02-.01,0-.02,0-.04-.01-.01,0-.02,0-.04-.01-.01,0-.02,0-.04-.01-.01,0-.02,0-.04-.01-.01,0-.02,0-.04-.01-.01,0-.02,0-.04-.01-.02,0-.05-.01-.07-.02-.01,0-.02,0-.04-.01-.01,0-.02,0-.04,0-.01,0-.02,0-.04,0-.01,0-.02,0-.04,0-.01,0-.02,0-.04,0s-.02,0-.04,0-.02,0-.04,0c-.01,0-.02,0-.04,0-.01,0-.02,0-.04,0-.01,0-.02,0-.04,0-.01,0-.02,0-.04,0-.01,0-.02,0-.04,0-.01,0-.02,0-.04,0-.01,0-.02,0-.04,0-.01,0-.02,0-.04,0-.01,0-.02,0-.04,0-.01,0-.02,0-.04,0-.01,0-.02,0-.04,0-.01,0-.02,0-.04,0-.01,0-.02,0-.04,0-.01,0-.02,0-.04,0-.01,0-.02,0-.04,0-.01,0-.02,0-.04,0-.01,0-.02,0-.04,0s-.02,0-.04,0c-.01,0-.02,0-.04,0-.01,0-.02,0-.04,0-.01,0-.02,0-.04,0-.01,0-.02,0-.04,0s-.02,0-.04,0c-.01,0-.02,0-.04,0-.01,0-.02,0-.04,0s-.02,0-.04,0c-.01,0-.02,0-.04,0-.01,0-.02,0-.04,0-.01,0-.02,0-.04,0-.01,0-.02,0-.04,0s-.02,0-.04,0c-.01,0-.02,0-.04,0-.01,0-.02,0-.04,0s-.02,0-.04,0c-.01,0-.02,0-.04,0,0,0,0,0,0,0,0,0-.02,0-.03,0-.01,0-.02,0-.04,0-.01,0-.02,0-.04,0s-.02,0-.04,0c-.01,0-.02,0-.04,0s-.02,0-.04,0c-.01,0-.02,0-.04,0-.01,0-.02,0-.04,0-.01,0-.02,0-.04,0-.01,0-.02,0-.04,0-.01,0-.02,0-.04,0-.01,0-.02,0-.04,0-.01,0-.02,0-.04,0-.01,0-.02,0-.04,0-.01,0-.02,0-.04,0-.01,0-.02,0-.04,0-.01,0-.02,0-.04,0-.01,0-.02,0-.04,0-.01,0-.02,0-.04,0-.01,0-.02,0-.04,0-.01,0-.02,0-.04,0-.01,0-.02,0-.04,0s-.02,0-.04,0c-.01,0-.02,0-.04,0-.01,0-.02,0-.04,0-.01,0-.02,0-.04,0-.01,0-.02,0-.04,0s-.02,0-.04,0-.02,0-.04,0c-.01,0-.02,0-.04,0-.01,0-.02,0-.04,0-.01,0-.02,0-.04,0-.01,0-.02,0-.04,0-.01,0-.02,0-.04,0s-.02,0-.04,0c-.01,0-.02,0-.04,0s-.02,0-.04,0c-.01,0-.02,0-.04,0-.01,0-.02,0-.04,0-.01,0-.02,0-.04,0-.01,0-.02,0-.04,0-.01,0-.02,0-.04.01-.01,0-.02,0-.04.01-.01,0-.02,0-.04.01-.01,0-.02,0-.04.01-.01,0-.02,0-.04.01-.01,0-.02,0-.04.01-.01,0-.02,0-.04.01-.01,0-.02,0-.04.01-.01,0-.02,0-.04.01-.01,0-.02,0-.04.01-.01,0-.02,0-.04.01-.01,0-.02,0-.04.01-.01,0-.02,0-.04.01s-.02,0-.04.01c-.01,0-.02,0-.04.01-.01,0-.02,0-.04.01-.01,0-.02,0-.04.01-.01,0-.02,0-.04.01-.01,0-.02,0-.04.01-.01,0-.02,0-.04.01-.01,0-.02,0-.04.01-.01,0-.02,0-.04.01-.01,0-.02.01-.04.02-.01,0-.02.01-.04.02-.01,0-.02.01-.04.02-.01,0-.02.01-.04.02-.01,0-.02.01-.04.02-.01,0-.02.01-.04.02,0,0-.02,0-.03.01-.7-.84-1.64-1.48-2.71-1.81.68-.16,1.31-.45,1.86-.83.02.01.04.03.05.04.01,0,.02.02.04.03.01,0,.02.02.04.02.01,0,.02.02.04.02.01,0,.02.02.04.02.01,0,.02.02.04.02.01,0,.02.02.04.02.01,0,.02.02.04.02.01,0,.02.01.04.02.01,0,.02.01.04.02.01,0,.02.01.04.02.01,0,.02.01.04.02.01,0,.02.01.04.02.01,0,.02.01.04.02.01,0,.02.01.04.02.01,0,.02.01.04.02.01,0,.02.01.04.02.01,0,.02.01.04.02.01,0,.02.01.04.02s.02.01.04.02.02.01.04.02c.01,0,.02.01.04.02.01,0,.02.01.04.02.01,0,.02.01.04.02.01,0,.02.01.04.02.01,0,.02.01.04.02.01,0,.02.01.04.02.01,0,.02.01.04.02.01,0,.02.01.04.02.01,0,.02.01.04.02.01,0,.02,0,.04.01.01,0,.02,0,.04.01.01,0,.02,0,.04.01.01,0,.02,0,.04.01.01,0,.02,0,.04.01.01,0,.02,0,.04.01.01,0,.02,0,.04.01.01,0,.02,0,.04.01.01,0,.02,0,.04.01s.02,0,.04.01c.01,0,.02,0,.04.01.01,0,.02,0,.04.01.01,0,.02,0,.04.01.01,0,.02,0,.04.01.01,0,.02,0,.04.01.01,0,.02,0,.04.01.01,0,.02,0,.04.01.01,0,.02,0,.04.01.01,0,.02,0,.04.01.01,0,.02,0,.04.01.01,0,.02,0,.04.01.01,0,.02,0,.04.01.01,0,.02,0,.04,0,.01,0,.02,0,.04,0,.01,0,.02,0,.04,0,.01,0,.02,0,.04,0,.01,0,.02,0,.04,0s.02,0,.04,0c.01,0,.02,0,.04,0s.02,0,.04,0c.01,0,.02,0,.04,0,.01,0,.02,0,.04,0,.01,0,.02,0,.04,0,.01,0,.02,0,.04,0,.01,0,.02,0,.04,0s.02,0,.04,0,.02,0,.04,0c.01,0,.02,0,.04,0,.01,0,.02,0,.04,0,.01,0,.02,0,.04,0,.01,0,.02,0,.04,0s.02,0,.04,0c.01,0,.02,0,.04,0,.01,0,.02,0,.04,0,.01,0,.02,0,.04,0,.01,0,.02,0,.04,0,.01,0,.02,0,.04,0,.01,0,.02,0,.04,0,.01,0,.02,0,.04,0,.01,0,.02,0,.04,0,.01,0,.02,0,.04,0,.01,0,.02,0,.04,0,.01,0,.02,0,.04,0,.01,0,.02,0,.04,0,.01,0,.02,0,.04,0,.01,0,.02,0,.04,0,.01,0,.02,0,.04,0,.01,0,.02,0,.04,0s.02,0,.04,0c.01,0,.02,0,.04,0s.02,0,.04,0c.01,0,.02,0,.04,0,0,0,.02,0,.03,0,0,0,0,0,0,0,.01,0,.02,0,.04,0,.01,0,.02,0,.04,0s.02,0,.04,0c.01,0,.02,0,.04,0,.01,0,.02,0,.04,0s.02,0,.04,0c.01,0,.02,0,.04,0,.01,0,.02,0,.04,0,.01,0,.02,0,.04,0,.01,0,.02,0,.04,0s.02,0,.04,0c.01,0,.02,0,.04,0,.01,0,.02,0,.04,0s.02,0,.04,0c.01,0,.02,0,.04,0,.01,0,.02,0,.04,0,.01,0,.02,0,.04,0,.01,0,.02,0,.04,0s.02,0,.04,0c.01,0,.02,0,.04,0,.01,0,.02,0,.04,0,.01,0,.02,0,.04,0,.01,0,.02,0,.04,0,.01,0,.02,0,.04,0,.01,0,.02,0,.04,0,.01,0,.02,0,.04,0,.01,0,.02,0,.04,0,.01,0,.02,0,.04,0,.01,0,.02,0,.04,0,.01,0,.02,0,.04,0,.01,0,.02,0,.04,0,.01,0,.02,0,.04,0,.01,0,.02,0,.04,0,.01,0,.02,0,.04,0,.01,0,.02,0,.04,0,.01,0,.02,0,.04,0s.02,0,.04,0,.02,0,.04,0c.01,0,.02,0,.04,0,.01,0,.02,0,.04,0,.01,0,.02,0,.04,0,.01,0,.02,0,.04-.01.02,0,.05-.01.07-.02.01,0,.02,0,.04-.01.01,0,.02,0,.04-.01.01,0,.02,0,.04-.01.01,0,.02,0,.04-.01.01,0,.02,0,.04-.01.01,0,.02,0,.04-.01.02,0,.05-.02.07-.02.01,0,.02,0,.04-.01.01,0,.02,0,.04-.01.01,0,.02,0,.04-.01.02,0,.05-.02.07-.03.01,0,.02,0,.04-.01s.02,0,.04-.01c.01,0,.02,0,.04-.01.02,0,.05-.02.07-.03.01,0,.02,0,.04-.01.01,0,.02-.01.04-.02.02-.01.05-.02.07-.03.01,0,.02-.01.04-.02.02-.01.05-.02.07-.03.01,0,.02-.01.04-.02.02-.01.05-.02.07-.04.01,0,.02-.01.04-.02.02-.01.05-.02.07-.04.01,0,.02-.01.04-.02.02-.01.05-.03.07-.04.01,0,.02-.01.04-.02.02-.01.05-.03.07-.04.02-.01.05-.03.07-.04.02-.01.05-.03.07-.04.01,0,.02-.02.04-.02.02-.02.05-.03.07-.05.02-.02.05-.03.07-.05.02-.02.05-.03.07-.05.02-.02.05-.03.07-.05.02-.02.05-.03.07-.05.02-.02.05-.04.07-.05.04-.03.07-.06.11-.08.02-.02.05-.04.07-.06.02-.02.05-.04.07-.06.04-.03.07-.06.11-.09.04-.03.07-.07.11-.1.04-.03.07-.07.11-.1,0,0,.02-.02.03-.03l3.08,2.1-3.12,2.3Z"/>
      </g>
    </g>
  </g>
</svg>