<?xml version="1.0" encoding="utf-8"?>
<!-- Generator: Adobe Illustrator 28.3.0, SVG Export Plug-In . SVG Version: 6.00 Build 0)  -->
<svg version="1.1" xmlns="http://www.w3.org/2000/svg" xmlns:xlink="http://www.w3.org/1999/xlink" x="0px" y="0px"
	 viewBox="0 0 177.4 125.4" style="enable-background:new 0 0 177.4 125.4;" xml:space="preserve">
<style type="text/css">
	.st0{fill:#FFFFFF;}
	.st1{opacity:0.5;fill:none;stroke:#BBBCC2;stroke-width:0.3055;stroke-miterlimit:10;}
	.st2{opacity:0.7;}
	.st3{opacity:0.48;fill:#FFFFFF;enable-background:new    ;}
	.st4{opacity:0.66;fill:#FFFFFF;enable-background:new    ;}
	.st5{opacity:0.74;fill:#FFFFFF;enable-background:new    ;}
</style>
<g id="Capa_1">
	<g>
		<path class="st0" d="M77.6,39.9C65.9,41,56.8,50.8,56.8,62.7c0,8.3,4.4,15.5,11,19.6c3.5,2.1,7.5,3.3,11.9,3.3
			c3.3,0,6.5-0.7,9.3-2v-5.4c-2.7,1.6-5.9,2.6-9.3,2.6c-0.9,0-1.9-0.1-2.8-0.2c-8.7-1.3-15.3-8.8-15.3-17.8c0-10,8.1-18.1,18.1-18.1
			h18.2l-0.1,27.2h-4.3l0.1-22.9h-14c-7.6,0-13.8,6.2-13.8,13.8c0,5.6,3.4,10.5,8.2,12.6c0.2,0.1,0.3,0.1,0.5,0.2
			c0.5,0.2,1.1,0.4,1.6,0.5c0.7,0.2,1.3,0.3,2,0.4c0.5,0,0.9,0.1,1.4,0.1c0.7,0,1.4-0.1,2-0.1c0.2,0,0.4-0.1,0.7-0.1
			c0.2,0,0.4-0.1,0.6-0.1c0.4-0.1,0.8-0.2,1.3-0.4c1.8-0.7,3.5-1.7,4.9-3v0v0v1.4v2.4h2.2h0.8h3h7.4V39.8v0H79.7
			C79,39.8,78.3,39.9,77.6,39.9z M82.4,71.4c-0.9,0.3-1.8,0.4-2.7,0.4c-0.9,0-1.8-0.1-2.7-0.4c-0.2-0.1-0.5-0.2-0.7-0.2
			c-0.2-0.1-0.4-0.2-0.6-0.3c0,0,0,0,0,0c0,0,0,0,0,0c0,0,0,0,0,0c0,0,0,0,0,0c0,0,0,0,0,0c0,0,0,0,0,0c0,0,0,0,0,0c0,0,0,0,0,0
			c0,0,0,0,0,0c0,0,0,0,0,0c0,0,0,0,0,0c0,0,0,0,0,0c0,0,0,0,0,0c0,0,0,0-0.1,0c0,0,0,0-0.1,0c0,0,0,0-0.1,0c0,0,0,0-0.1,0
			c0,0,0,0-0.1,0c0,0,0,0-0.1,0c0,0,0,0-0.1,0c0,0,0,0-0.1,0s0,0-0.1,0c0,0,0,0-0.1,0c0,0,0,0-0.1,0c0,0,0,0-0.1,0c0,0,0,0-0.1,0
			c0,0,0,0-0.1,0c0,0,0,0-0.1,0c0,0,0,0-0.1,0c0,0,0,0-0.1,0c0,0,0,0-0.1,0c0,0,0,0-0.1,0c0,0,0,0-0.1-0.1c0,0,0,0-0.1-0.1
			c0,0,0,0-0.1-0.1s0,0-0.1-0.1s0,0-0.1-0.1c0,0,0,0-0.1-0.1c0,0,0,0-0.1-0.1c0,0,0,0-0.1-0.1c0,0-0.1-0.1-0.1-0.1
			c0,0-0.1-0.1-0.1-0.1c0,0-0.1-0.1-0.1-0.1c0,0-0.1-0.1-0.1-0.1s-0.1-0.1-0.1-0.1c0,0-0.1-0.1-0.1-0.1c0,0-0.1-0.1-0.1-0.1
			c0,0-0.1-0.1-0.1-0.1c0,0-0.1-0.1-0.1-0.1c0-0.1-0.1-0.1-0.1-0.2c-0.1-0.1-0.1-0.1-0.2-0.2c-0.1-0.1-0.1-0.2-0.2-0.3
			c-0.2-0.3-0.4-0.6-0.5-0.9c-0.1-0.1-0.1-0.2-0.2-0.4c0-0.1-0.1-0.1-0.1-0.2c0-0.1-0.1-0.1-0.1-0.2c0-0.1,0-0.1-0.1-0.2
			c0,0,0-0.1-0.1-0.1c0,0,0-0.1-0.1-0.1c0,0,0-0.1-0.1-0.1c0,0,0-0.1,0-0.1c0,0,0-0.1,0-0.1c0,0,0-0.1,0-0.1c0,0,0-0.1,0-0.1
			c0,0,0-0.1,0-0.1c0,0,0-0.1,0-0.1c0,0,0-0.1,0-0.1c0,0,0-0.1,0-0.1c0,0,0-0.1,0-0.1c0,0,0-0.1,0-0.1c0,0,0-0.1,0-0.1
			c0,0,0-0.1,0-0.1c0,0,0-0.1,0-0.1c0,0,0-0.1,0-0.1c0,0,0-0.1,0-0.1c0,0,0,0,0-0.1c0,0,0,0,0-0.1c0,0,0,0,0-0.1c0,0,0,0,0-0.1
			c0,0,0,0,0-0.1c0,0,0,0,0-0.1c0,0,0,0,0-0.1c0,0,0,0,0-0.1c0,0,0,0,0-0.1c0,0,0,0,0-0.1c0,0,0,0,0-0.1c0,0,0,0,0-0.1
			c0,0,0,0,0-0.1c0,0,0,0,0-0.1c0,0,0,0,0-0.1c0,0,0,0,0-0.1c0,0,0,0,0-0.1c0,0,0,0,0-0.1c0,0,0,0,0-0.1c0,0,0,0,0-0.1
			c0,0,0,0,0-0.1c0,0,0,0,0-0.1c0,0,0,0,0,0c0-5,4.1-9.1,9.1-9.1h9.1v0v9.1c0,0,0,0.1,0,0.1c0,0,0,0.1,0,0.1c0,0,0,0.1,0,0.1
			c0,0,0,0.1,0,0.1c0,0,0,0.1,0,0.1c0,0,0,0.1,0,0.1c0,0,0,0.1,0,0.1c0,0,0,0.1,0,0.1c0,0,0,0.1,0,0.1c0,0,0,0.1,0,0.1
			c0,0,0,0.1,0,0.1c0,0,0,0.1,0,0.1c0,0,0,0.1,0,0.1c0,0,0,0.1,0,0.1c0,0,0,0.1,0,0.1c0,0,0,0.1,0,0.1c0,0,0,0.1,0,0.1
			c0,0,0,0.1,0,0.1c0,0,0,0.1,0,0.1c0,0,0,0.1,0,0.1c0,0,0,0.1,0,0.1c0,0,0,0.1,0,0.1c0,0,0,0.1,0,0.1c0,0,0,0.1,0,0.1
			c0,0,0,0.1,0,0.1c0,0,0,0.1,0,0.1c0,0,0,0.1,0,0.1c0,0,0,0.1,0,0.1c0,0,0,0.1,0,0.1c0,0,0,0.1,0,0.1c0,0,0,0.1,0,0.1
			c0,0,0,0.1,0,0.1c0,0,0,0.1,0,0.1c0,0,0,0.1,0,0.1c0,0,0,0.1,0,0.1c0,0,0,0.1,0,0.1c0,0,0,0,0,0.1c0,0,0,0,0,0.1c0,0,0,0,0,0.1
			c0,0,0,0,0,0.1c0,0,0,0,0,0.1c0,0,0,0,0,0.1c0,0,0,0,0,0.1s0,0,0,0.1c0,0,0,0,0,0.1c0,0,0,0,0,0.1c0,0,0,0,0,0.1c0,0,0,0,0,0.1
			c0,0,0,0,0,0.1c0,0,0,0,0,0.1c0,0,0,0,0,0.1s0,0,0,0.1s0,0,0,0.1c0,0,0,0,0,0.1c0,0,0,0,0,0.1c0,0,0,0,0,0.1c0,0,0,0,0,0.1
			c-0.9,1.4-2.2,2.6-3.7,3.4c-0.2,0.1-0.4,0.2-0.6,0.3C82.9,71.2,82.6,71.3,82.4,71.4z"/>
		<polygon class="st0" points="141.4,39.8 140.9,39.8 128,61.2 115.4,39.8 114.6,39.8 106.6,39.8 106.6,41.3 106.6,76.4 116.3,76.4 
			116.3,57.5 125.6,72.9 130.5,72.9 139.7,57.5 139.7,76.4 149.4,76.4 149.4,41.3 149.4,39.8 149.4,39.8 141.4,39.8 		"/>
		<g>
			<path class="st0" d="M41.3,39.9h-9h-7.9h-2.6v36.5h10.5v-9.4v0h9c0.6,0,1.2,0,1.7-0.1c0.3,0,0.7-0.1,1-0.2c0.2,0,0.5-0.1,0.7-0.2
				c0.2-0.1,0.4-0.1,0.6-0.2c0.2-0.1,0.3-0.1,0.5-0.2c0.1-0.1,0.3-0.1,0.4-0.2c0.1-0.1,0.3-0.1,0.4-0.2c0.1-0.1,0.2-0.1,0.4-0.2
				c0.1-0.1,0.2-0.1,0.3-0.2c0.1-0.1,0.2-0.1,0.3-0.2c0.1-0.1,0.2-0.1,0.3-0.2c0.1-0.1,0.2-0.1,0.3-0.2c0.1-0.1,0.2-0.1,0.3-0.2
				c0.1-0.1,0.2-0.1,0.3-0.2c0.1-0.1,0.2-0.1,0.2-0.2c0.1-0.1,0.2-0.1,0.2-0.2c0.1-0.1,0.1-0.1,0.2-0.2c0.1-0.1,0.1-0.1,0.2-0.2
				c0.1-0.1,0.1-0.1,0.2-0.2c0.1-0.1,0.1-0.1,0.2-0.2c0.1-0.1,0.1-0.1,0.2-0.2c0.1-0.1,0.1-0.1,0.2-0.2c0.1-0.1,0.1-0.1,0.2-0.2
				s0.1-0.1,0.2-0.2c0.1-0.1,0.1-0.1,0.2-0.2c0.1-0.1,0.1-0.1,0.2-0.2c0.1-0.1,0.1-0.1,0.2-0.2c0-0.1,0.1-0.1,0.1-0.2
				c0-0.1,0.1-0.1,0.1-0.2c0-0.1,0.1-0.1,0.1-0.2c0-0.1,0.1-0.1,0.1-0.2c0-0.1,0.1-0.1,0.1-0.2c0-0.1,0.1-0.1,0.1-0.2
				c0-0.1,0.1-0.1,0.1-0.2c0-0.1,0.1-0.1,0.1-0.2s0.1-0.1,0.1-0.2s0.1-0.1,0.1-0.2c0-0.1,0.1-0.1,0.1-0.2c0-0.1,0.1-0.1,0.1-0.2
				c0-0.1,0.1-0.1,0.1-0.2c0-0.1,0.1-0.1,0.1-0.2c0-0.1,0.1-0.1,0.1-0.2S53,60,53,59.9c0-0.1,0.1-0.1,0.1-0.2c0-0.1,0.1-0.1,0.1-0.2
				c0-0.1,0.1-0.1,0.1-0.2c0-0.1,0.1-0.1,0.1-0.2c0-0.1,0.1-0.1,0.1-0.2c0-0.1,0-0.1,0.1-0.2c0-0.1,0-0.1,0.1-0.2
				c0-0.1,0-0.1,0.1-0.2c0-0.1,0-0.1,0.1-0.2c0-0.1,0-0.1,0.1-0.2c0-0.1,0-0.1,0.1-0.2c0-0.1,0-0.1,0.1-0.2c0-0.1,0-0.1,0.1-0.2
				c0-0.1,0-0.1,0.1-0.2c0-0.1,0-0.1,0.1-0.2c0-0.1,0-0.1,0.1-0.2c0-0.1,0-0.1,0-0.2c0-0.1,0-0.1,0-0.2c0-0.1,0-0.1,0-0.2
				c0-0.1,0-0.1,0-0.2c0-0.1,0-0.1,0-0.2s0-0.1,0-0.2c0-0.1,0-0.1,0-0.2c0-0.1,0-0.1,0-0.2c0-0.1,0-0.1,0-0.2s0-0.1,0-0.2
				c0-0.1,0-0.1,0-0.2c0-0.1,0-0.1,0-0.2c0-0.1,0-0.1,0-0.2s0-0.1,0-0.2c0-0.1,0-0.1,0-0.2c0-0.1,0-0.1,0-0.2c0-0.1,0-0.1,0-0.2
				c0-0.1,0-0.1,0-0.2c0-0.1,0-0.1,0-0.2c0-0.1,0-0.1,0-0.2c0-0.1,0-0.1,0-0.2c0-0.1,0-0.1,0-0.2s0-0.1,0-0.2c0-0.1,0-0.1,0-0.2
				c0,0,0-0.1,0-0.1C54.7,45.9,48.7,39.9,41.3,39.9z M44.5,53.4c0,2.9-2.3,5.2-5.2,5.2h-7.3v0v-5.2v-0.1v-0.2V53v-0.2v-0.2v-0.2
				v-0.2v-0.2V52v-0.2v-0.2v-0.2v-0.2v-0.2V51v-0.2v-0.2v-0.2v-0.2v-0.2v-0.2v-0.2v-0.2v-0.2v-0.2v-0.2v-0.2v-0.2v-0.2v-0.2v-0.2
				v-0.2v0v0h7.3c0.2,0,0.4,0,0.7,0c0.3,0,0.5,0.1,0.8,0.2c0.2,0,0.3,0.1,0.5,0.2c0.1,0,0.2,0.1,0.4,0.2c0.1,0.1,0.2,0.1,0.3,0.2
				c0.1,0.1,0.2,0.1,0.3,0.2c0.1,0.1,0.2,0.1,0.2,0.2c0.1,0.1,0.1,0.1,0.2,0.2c0.1,0.1,0.1,0.1,0.2,0.2c0.1,0.1,0.1,0.1,0.2,0.2
				c0.1,0.1,0.1,0.1,0.1,0.2c0,0.1,0.1,0.1,0.1,0.2c0,0.1,0.1,0.1,0.1,0.2c0,0.1,0.1,0.1,0.1,0.2c0,0.1,0.1,0.1,0.1,0.2
				c0,0.1,0.1,0.1,0.1,0.2c0,0.1,0.1,0.1,0.1,0.2c0,0.1,0.1,0.1,0.1,0.2c0,0.1,0.1,0.1,0.1,0.2s0.1,0.1,0.1,0.2c0,0.1,0,0.1,0.1,0.2
				c0,0.1,0,0.1,0.1,0.2c0,0.1,0,0.1,0.1,0.2c0,0.1,0,0.1,0,0.2c0,0.1,0,0.1,0,0.2c0,0.1,0,0.1,0,0.2c0,0.1,0,0.1,0,0.2
				c0,0.1,0,0.1,0,0.2c0,0.1,0,0.1,0,0.2c0,0.1,0,0.1,0,0.2c0,0.1,0,0.1,0,0.2c0,0.1,0,0.1,0,0.2C44.5,53.3,44.5,53.4,44.5,53.4
				C44.5,53.4,44.5,53.4,44.5,53.4C44.5,53.4,44.5,53.4,44.5,53.4z"/>
		</g>
		<path class="st0" d="M153.8,74.3L153.8,74.3c0.3-0.1,0.5-0.3,0.5-0.6c0-0.2-0.1-0.4-0.2-0.5c-0.2-0.1-0.4-0.2-0.8-0.2
			c-0.4,0-0.7,0-0.9,0.1v2.4h0.5v-0.9h0.3c0.3,0,0.4,0.1,0.5,0.4c0.1,0.3,0.1,0.5,0.2,0.6h0.6c-0.1-0.1-0.1-0.2-0.2-0.6
			C154.2,74.6,154,74.4,153.8,74.3z M153.1,74.2h-0.3v-0.7c0.1,0,0.2,0,0.3,0c0.3,0,0.5,0.1,0.5,0.4
			C153.7,74.1,153.4,74.2,153.1,74.2z"/>
		<path class="st0" d="M153.2,71.9c-1.4,0-2.4,1-2.4,2.4c0,1.3,1.1,2.4,2.4,2.4c1.4,0,2.4-1,2.4-2.4
			C155.7,72.9,154.6,71.9,153.2,71.9z M153.3,76.1c-1.1,0-1.8-0.8-1.8-1.9c0-1,0.8-1.9,1.8-1.9c1.1,0,1.8,0.8,1.8,1.9
			C155.1,75.3,154.3,76.1,153.3,76.1z"/>
	</g>
</g>
<g id="Capa_2">
</g>
<g id="Capa_3">
</g>
<g id="Capa_4">
</g>
<g id="Capa_5">
</g>
<g id="Capa_6">
</g>
<g id="Capa_7">
</g>
<g id="Capa_8">
</g>
<g id="Capa_9">
</g>
<g id="Capa_10">
</g>
<g id="Capa_11">
</g>
<g id="Capa_12">
</g>
<g id="Capa_13">
</g>
<g id="Capa_14">
</g>
<g id="Capa_15">
</g>
<g id="Capa_16">
</g>
</svg>
