<?xml version="1.0" encoding="utf-8"?>
<!-- Generator: Adobe Illustrator 27.0.1, SVG Export Plug-In . SVG Version: 6.00 Build 0)  -->
<svg version="1.1" id="Capa_1" xmlns="http://www.w3.org/2000/svg" xmlns:xlink="http://www.w3.org/1999/xlink" x="0px" y="0px"
	 viewBox="0 0 177.4 125.4" style="enable-background:new 0 0 177.4 125.4;" xml:space="preserve">
<style type="text/css">
	.st0{opacity:0.48;fill:#FFFFFF;}
	.st1{opacity:0.66;fill:#FFFFFF;}
	.st2{fill:#FFFFFF;}
	.st3{opacity:0.74;fill:#FFFFFF;}
	.st4{fill-rule:evenodd;clip-rule:evenodd;fill:#FFFFFF;}
	.st5{fill:#1D2A4C;}
</style>
<g>
	<polygon class="st2" points="61.6,57.8 60.8,63.7 63.4,64.9 63.4,58.2 	"/>
	<polygon class="st2" points="67,57.8 67.8,63.7 65.2,64.9 65.2,58.2 	"/>
	<path class="st2" d="M66,53.2v1.3h-1.3v-2h-0.5h-0.5v2h-1.3v-1.3c0,0-1.1,0-1.2,0v1.4l1.3,2h0.8v-1.3h1h1v1.3h0.8l1.3-2v-1.4
		C67.1,53.2,66,53.2,66,53.2z"/>
	<rect x="15" y="55.2" class="st2" width="6.6" height="0.8"/>
	<rect x="17.9" y="55.6" class="st2" width="0.8" height="7.4"/>
	<rect x="45.1" y="55.2" class="st2" width="0.8" height="7.8"/>
	<polygon class="st2" points="24.6,63.2 23.9,62.8 27.6,55.4 28.3,55.4 32,62.8 31.2,63.2 28,56.5 	"/>
	<rect x="35.4" y="54.9" class="st2" width="0.8" height="8.1"/>
	<path class="st2" d="M35.8,60.6v-0.8h3.8c0.2,0,1.6-0.1,1.7-2c0-1.9-1.3-2.1-1.5-2.2l-4.2,0v-0.8h4.2c0.8,0.1,2.3,0.8,2.3,3
		c0,2.2-1.6,2.8-2.5,2.8L35.8,60.6z"/>
	<rect x="115.9" y="54.9" class="st2" width="0.6" height="8.1"/>
	<path class="st2" d="M116.2,60.5v-0.6h3.8c0.1,0,1.8-0.1,1.8-2.2c0-2.1-1.6-2.3-1.6-2.3l-4.2,0v-0.6h4.2c0.1,0,2.2,0.3,2.1,2.9
		c0,2.6-2.3,2.7-2.4,2.7H116.2z"/>
	<path class="st2" d="M25.3,61.3l0-0.8c5.6,0,5.6,0,5.7,0.2l-0.4,0.2l0,0.4C30.3,61.3,27.3,61.3,25.3,61.3z"/>
	<polygon class="st2" points="50.1,63.2 49.4,62.8 53.1,55.4 53.8,55.4 57.5,62.8 56.7,63.2 53.5,56.5 	"/>
	<path class="st2" d="M50.8,61.3l0-0.8c5.6,0,5.6,0,5.7,0.2l-0.4,0.2l0,0.4C55.8,61.3,52.8,61.3,50.8,61.3z"/>
	<polygon class="st2" points="135.9,63.1 135.4,62.9 139.1,55.5 139.6,55.5 143.3,62.9 142.8,63.1 139.4,56.2 	"/>
	<path class="st2" d="M136.7,61.1l0-0.6c5.5,0,5.5,0,5.6,0.2l-0.2,0.1l0,0.3C141.8,61.1,138.7,61.1,136.7,61.1z"/>
	<path class="st2" d="M161.9,63.3c-1.9-2.4-4.7-5.7-5.8-7V63h-0.6v-7.4l0.2-0.3c0.2-0.1,0.2-0.1,6.1,7.1v-7.1h0.6v7.9L161.9,63.3z"
		/>
	<path class="st2" d="M152.6,63.3c-1.9-2.4-4.7-5.7-5.8-7V63h-0.6v-7.4l0.2-0.3c0.2-0.1,0.2-0.1,6.1,7.1v-7.1h0.6v7.9L152.6,63.3z"
		/>
	<polygon class="st2" points="133.1,63.2 132.6,63.2 132.6,56.1 129.2,60.3 128.8,60.3 125.6,56.1 125.6,63.2 125.1,63.2 
		125.1,55.3 125.6,55.1 129,59.7 132.6,55.1 133.1,55.3 	"/>
	
		<rect x="120.1" y="59.6" transform="matrix(0.7148 -0.6993 0.6993 0.7148 -8.7404 101.7544)" class="st2" width="0.6" height="3.9"/>
	<polygon class="st2" points="113.2,63.6 107.2,63.6 107.2,55 113.2,55 113.2,55.5 107.8,55.5 107.8,63.1 113.2,63.1 	"/>
	<rect x="107.5" y="59" class="st2" width="4.9" height="0.6"/>
	<rect x="99.3" y="59" class="st2" width="0.9" height="0.6"/>
	<polygon class="st2" points="104.2,63.4 99.7,59.3 104.2,55 104.6,55.4 100.6,59.3 104.6,63 	"/>
	<rect x="98.8" y="55.3" class="st2" width="0.6" height="8.2"/>
	<path class="st2" d="M93.1,63.7c-1.8,0-3.4-1.1-4.1-2.8c-0.1-0.4-0.2-0.8-0.2-1.2v-1.2c0-0.5,0.1-1,0.3-1.4c0.8-1.5,2.3-2.4,4-2.4
		c1.2,0,2.3,0.5,3.2,1.3l-0.4,0.4c-0.8-0.7-1.7-1.1-2.8-1.1c-1.5,0-2.9,0.8-3.6,2.2c-0.2,0.3-0.3,0.7-0.3,1.2v1.2
		c0,0.4,0.1,0.7,0.2,1c0.6,1.5,2,2.5,3.6,2.5c1.1,0,2.1-0.4,2.8-1.2l0.4,0.4C95.5,63.3,94.3,63.7,93.1,63.7z"/>
	<path class="st2" d="M82.7,63.7c-1.9,0-3.4-1.5-3.4-3.4v-5.1h0.6v5.1c0,1.6,1.3,2.8,2.8,2.8c1.6,0,2.8-1.3,2.8-2.8v-5.1h0.6v5.1
		C86.1,62.2,84.6,63.7,82.7,63.7z"/>
	<polygon class="st2" points="76.7,63.3 70.6,63.3 76.2,55.5 71,55.5 71,54.9 77.2,54.9 71.7,62.7 76.7,62.7 	"/>
	<g>
		<path class="st2" d="M51,72.7v-0.2c0.5-0.1,0.5-0.1,0.4-0.4c-0.1-0.2-0.2-0.6-0.4-1h-1.6c-0.1,0.3-0.2,0.5-0.3,0.8
			c-0.2,0.4-0.1,0.5,0.5,0.5v0.2h-1.7v-0.2c0.5-0.1,0.6-0.1,0.8-0.7l1.5-3.3l0.2,0c0.5,1.1,1,2.3,1.4,3.4c0.2,0.6,0.3,0.6,0.8,0.7
			v0.2H51z M50.2,69.3c-0.2,0.5-0.5,1.1-0.7,1.6h1.4L50.2,69.3z"/>
		<path class="st2" d="M61.5,70.5c0.7,0.1,1.3,0.4,1.3,1c0,0.4-0.3,0.8-0.7,1c-0.4,0.2-0.8,0.2-1.3,0.2H59v-0.2
			c0.6-0.1,0.7-0.1,0.7-0.6v-2.6c0-0.5-0.1-0.6-0.7-0.6v-0.2h1.9c0.6,0,0.9,0.1,1.1,0.2c0.3,0.2,0.4,0.4,0.4,0.7
			C62.5,70.1,61.9,70.4,61.5,70.5z M60.7,70.4c0.8,0,1.1-0.3,1.1-0.8c0-0.4-0.3-0.8-1-0.8c-0.2,0-0.3,0-0.4,0.1
			c-0.1,0-0.1,0.1-0.1,0.3v1.2H60.7z M60.3,71.9c0,0.5,0.1,0.6,0.7,0.6c0.6,0,1.1-0.3,1.1-0.9c0-0.6-0.5-0.9-1.4-0.9h-0.4V71.9z"/>
		<path class="st2" d="M72,68.5c1.3,0,2.4,0.8,2.4,2.1c0,1.4-1.1,2.2-2.4,2.2c-1.4,0-2.5-0.9-2.5-2.1C69.5,69.6,70.4,68.5,72,68.5z
			 M71.9,68.7c-0.8,0-1.6,0.6-1.6,1.8c0,1.2,0.8,2.1,1.8,2.1c0.9,0,1.6-0.6,1.6-1.8C73.6,69.4,72.8,68.7,71.9,68.7z"/>
		<path class="st2" d="M86,71c-0.5,0.1-0.5,0.1-0.5,0.5V72c0,0.2,0,0.4,0,0.6c-0.5,0.1-1.1,0.2-1.7,0.2c-1.7,0-2.7-0.9-2.7-2.2
			c0-1.3,1.3-2.1,2.8-2.1c0.8,0,1.3,0.1,1.5,0.2c0,0.2,0.1,0.6,0.1,1l-0.2,0c-0.2-0.5-0.4-0.8-0.9-0.9c-0.2-0.1-0.5-0.1-0.7-0.1
			c-1.1,0-1.9,0.7-1.9,1.8c0,1,0.6,2,2,2c0.3,0,0.5,0,0.6-0.1c0.2-0.1,0.3-0.1,0.3-0.4v-0.5c0-0.5-0.1-0.5-0.8-0.6v-0.2H86V71z"/>
		<path class="st2" d="M95.3,72.7v-0.2c0.5-0.1,0.5-0.1,0.4-0.4c-0.1-0.2-0.2-0.6-0.4-1h-1.6c-0.1,0.3-0.2,0.5-0.3,0.8
			c-0.2,0.4-0.1,0.5,0.5,0.5v0.2h-1.7v-0.2c0.5-0.1,0.6-0.1,0.8-0.7l1.5-3.3l0.2,0c0.5,1.1,1,2.3,1.4,3.4c0.2,0.6,0.3,0.6,0.8,0.7
			v0.2H95.3z M94.5,69.3c-0.2,0.5-0.5,1.1-0.7,1.6h1.4L94.5,69.3z"/>
		<path class="st2" d="M105.4,68.6c1,0,1.7,0.2,2.2,0.6c0.4,0.3,0.6,0.8,0.6,1.4c0,0.7-0.4,1.3-0.9,1.7c-0.6,0.4-1.3,0.5-2.2,0.5
			h-1.7v-0.2c0.6-0.1,0.7-0.1,0.7-0.6v-2.5c0-0.5-0.1-0.6-0.7-0.6v-0.2H105.4z M104.6,71.9c0,0.5,0.2,0.6,0.8,0.6c1.3,0,2-0.8,2-1.9
			c0-0.7-0.3-1.2-0.9-1.5c-0.3-0.2-0.8-0.3-1.3-0.3c-0.3,0-0.5,0-0.6,0.1c-0.1,0-0.1,0.1-0.1,0.4V71.9z"/>
		<path class="st2" d="M117.4,68.5c1.3,0,2.4,0.8,2.4,2.1c0,1.4-1.1,2.2-2.4,2.2c-1.4,0-2.5-0.9-2.5-2.1
			C114.9,69.6,115.8,68.5,117.4,68.5z M117.2,68.7c-0.8,0-1.6,0.6-1.6,1.8c0,1.2,0.8,2.1,1.8,2.1c0.9,0,1.6-0.6,1.6-1.8
			C119,69.4,118.2,68.7,117.2,68.7z"/>
		<path class="st2" d="M129,69.6c-0.1-0.4-0.3-0.8-1-0.8c-0.6,0-0.8,0.4-0.8,0.7c0,0.4,0.3,0.7,0.9,0.9c0.9,0.4,1.3,0.7,1.3,1.3
			c0,0.7-0.7,1.2-1.6,1.2c-0.4,0-0.8-0.1-1.1-0.2c-0.1-0.2-0.1-0.6-0.2-1l0.2-0.1c0.1,0.4,0.5,1,1.2,1c0.5,0,0.9-0.3,0.9-0.7
			c0-0.5-0.3-0.7-1-1c-0.8-0.4-1.2-0.7-1.2-1.3c0-0.6,0.5-1.1,1.5-1.1c0.4,0,0.8,0.1,1,0.1c0,0.2,0.1,0.5,0.1,0.9L129,69.6z"/>
	</g>
</g>
</svg>
