<?xml version="1.0" encoding="UTF-8"?>
<svg id="Capa_16" data-name="Capa 16" xmlns="http://www.w3.org/2000/svg" viewBox="0 0 177.4 125.4">
  <defs>
    <style>
      .cls-1 {
        fill: #fff;
        stroke-width: 0px;
      }
    </style>
  </defs>
  <path class="cls-1" d="M88.03,87.55h-39.33c-.65,0-.91-.26-.91-.91v-6.25c0-.52-.13-.78-.78-.78h-9.64c-.26-.13-.39-.39-.65-.52.13-.13.26-.52.52-.52,1.17-.39,2.34-.65,3.52-.91,9.77-2.6,19.54-5.08,29.3-7.68,5.73-1.56,11.59-3,17.32-4.56.39-.13.78-.13,1.04,0,16.54,4.3,33.21,8.73,49.75,13.02.26,0,.39.13.65.26.13.13.26.39.26.52s-.26.26-.39.39c-.26.13-.52,0-.78,0h-9.12c-.65,0-.78.13-.78.78v5.99c0,1.04,0,1.17-1.17,1.17-12.76.13-25.79.13-38.81,0h0ZM75.79,78.82v3.52c-.65-1.04-1.17-1.69-1.69-2.47-.78-1.04-1.3-1.3-2.6-.91v6.38h1.95v-3.26c.65.78,1.17,1.43,1.69,2.21.78,1.17,1.17,1.3,2.6.91v-5.99c0-.13-.26-.39-.39-.39-.52,0-1.04,0-1.56,0ZM101.84,85.33v-1.69c0-.26.13-.52.26-.52.78-.39,1.56.26,1.56,1.04q.13,1.3,1.43,1.3h.78c-.39-1.04.26-2.47-1.04-3.13.26-.13.39-.26.52-.39.78-.91.52-2.47-.52-2.87-1.56-.52-3.26-.26-4.95-.26v6.51h1.95ZM63.29,85.33c-.26-1.04.26-2.34-1.04-3,1.43-1.04.91-2.87,0-3.13-1.69-.52-3.39-.26-4.95-.26v6.51h2.08v-1.43c0-.39-.13-.91.52-.91s1.17,0,1.3.91c0,.39,0,.91.13,1.43.52-.13,1.17-.13,1.95-.13ZM98.84,82.21c0-2.21-1.3-3.52-3.39-3.52s-3.39,1.3-3.39,3.39c0,2.21,1.3,3.52,3.39,3.52,1.95,0,3.39-1.3,3.39-3.39ZM125.54,80.78c-.13-.91-.52-1.43-1.17-1.82-.91-.39-1.82-.39-2.74-.13-1.04.26-1.69.91-1.69,1.82s.39,1.56,1.43,1.95c.52.26,1.17.26,1.69.52.26.13.39.39.65.52-.26.13-.52.39-.91.39-.26,0-.52-.13-.65-.26-.65-.91-1.56-.39-2.34-.39.26,1.3,1.04,1.95,2.21,2.08,1.3.13,2.6.13,3.52-1.04.13-.13.13-.26.13-.39.39-1.17-.13-1.95-1.43-2.47-.65-.26-1.3-.39-1.95-.65-.13,0-.26-.26-.26-.39.13-.13.26-.26.39-.26.26,0,.65,0,.78.13.65.78,1.43.26,2.34.39ZM113.43,78.95v6.12c0,.13.39.39.65.39h4.82q.13-1.56-1.3-1.43h-1.95v-1.04h1.56q1.17,0,1.17-1.17c0-.13,0-.26-.13-.39h-2.6q-.13-1.04.78-1.04h2.34v-1.43c-1.82,0-3.52,0-5.34,0ZM84.39,80.64c-.13-.91-.52-1.56-1.3-1.69-.91-.13-1.95-.26-2.87-.13s-1.43.91-1.43,1.69c0,.91.26,1.56,1.3,1.95.65.26,1.3.39,1.95.65.26.13.39.39.52.52-.26.13-.39.39-.65.52-.26,0-.78,0-.91-.26-.65-.78-1.56-.39-2.34-.39.13.91.65,1.43,1.3,1.82.91.39,1.95.39,2.87.13,1.04-.26,1.69-1.04,1.69-1.95s-.39-1.56-1.56-1.95c-.52-.26-1.17-.26-1.82-.52-.13-.13-.26-.39-.39-.52.13-.13.39-.26.65-.26s.52,0,.65.13c.78.65,1.56.26,2.34.26ZM85.56,78.82v6.51h2.08v-1.82c.78-.13,1.43-.13,2.21-.26,1.04-.26,1.56-1.04,1.69-2.08,0-1.04-.52-1.95-1.56-2.08-1.56-.26-2.87-.26-4.43-.26ZM70.71,85.33c-.65-1.82-1.3-3.52-1.82-5.21-.52-1.56-.26-1.3-1.82-1.3h-.13c-.52-.13-.78.13-.91.65-.26.91-.65,1.95-1.04,2.87s-.65,1.95-1.04,3.13c.91-.39,1.95.52,2.34-.91l.13-.13h1.82c.13,0,.26.39.39.65l.26.26h1.82ZM56.12,80.38v-1.69h-4.56q-1.56,0-1.43,1.56s0,.13.13.13h.65c1.3,0,1.17-.13,1.17,1.17v3.65h2.08c0-.13.13-.13.13-.26v-2.87q0-1.69,1.69-1.82c0,.26.13.26.13.13ZM106.53,78.95v1.69h1.04c.65-.13.91.13.91.91v3.39c0,.52.13.65.65.65h1.43v-4.82h1.43c.13,0,.52-.39.39-.52,0-.39.26-1.04-.39-1.17-1.82-.26-3.65-.13-5.47-.13Z"/>
  <path class="cls-1" d="M155.76,54.34h-14.07c-.65,0-.91-.13-1.17-.78-1.56-3.65-5.21-5.6-8.73-4.95-1.69.39-3,1.43-4.04,2.87-1.17,1.69-1.82,3.52-1.82,5.6-.13,4.04,3.13,8.08,6.9,8.6,3.65.52,6.51-1.3,7.81-5.08.13-.39.26-.52.65-.52h14.07q.13,0,.39.13c-.26,1.43-.39,2.87-.78,4.3-1.43,5.08-4.3,9.12-9.12,11.46-1.95.91-4.04,1.43-6.12,1.69-.26,0-.65,0-.91-.13-7.94-2.34-15.89-4.69-23.7-7.03-.39-.13-.91-.52-1.17-.78-1.43-1.82-2.47-3.91-3.39-6.12v4.56c-.78-.26-1.56-.39-2.21-.52-4.69-1.3-9.51-2.6-14.2-3.78-.52-.13-.91-.39-.78-.91s-.13-.65-.65-.65h-10.29c-.52,0-.65.26-.65.65q0,1.43-1.3,1.69c-4.95,1.17-10.03,2.47-14.98,3.65-.13,0-.39,0-.65.13.26-8.73.52-17.45.78-26.05h-.13c-.39.91-.78,1.82-1.3,2.74-4.04,9.12-8.08,18.1-12.11,27.22-.26.52-.52.78-1.04.91-5.08,1.56-10.16,3.26-15.24,4.82-.52-1.3-1.04-2.6-1.56-3.91-3.26-8.47-6.51-16.93-9.77-25.4-.78-2.08-1.43-4.17-2.34-6.12-.65-1.3-.39-2.74-.52-4.17h14.98c.65,0,1.04.13,1.17.91,1.69,6.25,3.39,12.5,5.08,18.76,0,.13.13.26.26.52.52-1.3.91-2.34,1.3-3.39,2.08-5.34,4.04-10.68,6.12-16.02.26-.52.52-.78,1.04-.78h29.83c.65,0,.78.26.78.78v10.42h10.42c.78,0,.91-.26.91-.91v-10.42h15.89c.65,0,.91.13.91.91v12.89c.13-.26.26-.26.26-.39,2.21-6.38,6.77-10.55,13.15-12.5,7.55-2.21,15.11-2.08,22.27,1.43,5.6,2.74,8.6,7.55,9.64,13.55.26-.13.13-.13.13.13ZM153.41,52.77v-.39c-.13-.26-.13-.52-.26-.78-2.08-5.73-6.38-9.12-12.11-10.81-3.52-1.04-7.16-1.3-10.94-1.04-3.39.26-6.77.91-9.77,2.6-5.73,3.26-8.73,8.21-8.99,14.72-.13,3.52,1.04,6.77,2.47,9.9.52.91,1.04,1.82,2.21,2.21,6.77,1.95,13.55,3.91,20.32,5.99,1.82.52,3.52.78,5.47.26,4.43-1.43,8.08-3.78,10.16-8.21.78-1.56,1.17-3.13,1.3-5.08h-10.81c-.65,0-.91.13-1.17.78-.91,1.95-2.21,3.65-4.3,4.56-3.52,1.69-7.42.65-9.9-1.82-4.3-4.17-4.56-10.68-.78-15.24,2.34-2.87,5.99-4.3,10.03-2.6,2.21.78,3.65,2.47,4.69,4.56.26.52.65.65,1.17.65h6.38c1.69-.26,3.26-.26,4.82-.26ZM66.41,66.45c4.04-1.04,7.94-2.08,11.72-3.13q1.56-.39,1.56-1.95c0-.39.13-.65.52-.65,2.08-.13,4.17-.39,6.25-.39,2.47,0,4.95.26,7.42.39.65,0,.91.26.78.91s.26.91.78,1.04c2.6.65,5.21,1.43,7.81,2.08,1.56.39,3.13.91,4.82,1.3,0-.13.13-.26.13-.26v-25.14c0-.52-.26-.65-.78-.65h-11.98c-.52,0-.65.13-.65.65v10.68c0,.65-.13.78-.78.78h-13.42c-.65,0-.91-.26-.78-.91v-10.94h-13.28c.13,8.6,0,17.32-.13,26.18ZM22.78,40.14c4.56,11.85,9.12,23.7,13.68,35.56h.39c4.17-1.3,8.47-2.74,12.63-4.04.26-.13.52-.39.65-.65.65-1.56,1.43-3,2.08-4.56,3.26-7.29,6.51-14.59,9.77-21.88.65-1.43,1.3-2.87,1.95-4.43-.13,0-.26-.13-.39-.13h-11.07c-.52,0-.65.26-.78.65-1.56,4.17-3.13,8.34-4.82,12.63-1.3,3.39-2.6,6.77-3.91,10.29-.13.26-.26.39-.52.78-.13-.39-.26-.65-.26-.91-1.95-7.55-4.04-14.98-5.99-22.53-.13-.65-.39-.78-1.04-.78h-11.85s-.26,0-.52,0Z"/>
  <path class="cls-1" d="M101.84,81.69c.13-.65-.39-1.43.78-1.3.52,0,1.3.13,1.04.78-.13.91-1.04.52-1.82.52Z"/>
  <path class="cls-1" d="M59.38,81.82v-1.56c.65.13,1.17.13,1.69.39.13,0,.13.65.13.65-.65.13-1.17.26-1.82.52Z"/>
  <path class="cls-1" d="M96.76,82.21c0,.26,0,.52-.13.78-.13.65-.52,1.04-1.17,1.04s-1.04-.52-1.17-1.04-.13-1.04,0-1.56c.13-.65.39-1.04,1.17-1.17.78,0,1.04.52,1.3,1.04-.13.39-.13.65,0,.91Z"/>
  <path class="cls-1" d="M88.29,81.95c-.65.13-.65-.26-.65-.78s0-.91.65-.78c.52.13,1.17.13,1.17.78s-.65.78-1.17.78Z"/>
  <path class="cls-1" d="M67.32,81.04c.13.65.39,1.3.52,2.08-.39,0-.78,0-1.43.13.26-.78.39-1.43.65-2.08.13-.13.26-.13.26-.13Z"/>
  <path class="cls-1" d="M151.59,64.49c-.65,1.17-1.04,2.08-1.69,3-2.34,3.65-5.73,5.99-10.03,6.77-.39,0-.65.13-1.04,0-7.55-2.21-15.24-4.43-22.79-6.77-.39-.13-.78-.39-1.04-.78-2.74-3.65-3.26-7.81-2.21-12.24,1.43-6.38,5.73-10.29,11.85-12.11,4.95-1.43,9.9-1.56,14.85-.26,4.69,1.17,8.47,3.78,11.07,7.94.26.39.39.65.52,1.04-.26,0-.39.13-.52.13-2.47,0-4.95.13-7.55.13-.52,0-.91-.13-1.17-.65-2.08-3.39-4.95-5.47-9.12-5.21-5.08.39-8.86,3.65-10.29,8.6-1.43,5.47,1.3,11.85,6.25,14.59,4.56,2.47,10.42.78,13.02-3.65.39-.65.78-.78,1.43-.78h7.29c.39.13.65.26,1.17.26Z"/>
  <path class="cls-1" d="M67.84,52.77c.13-3.52.26-7.03.26-10.55,0-.65.26-.78.78-.78h8.86c.65,0,.78.26.78.78v10.16c0,.65.13.91.91.91h16.02c.65,0,.78-.26.78-.78v-10.16c0-.65.13-.91.91-.91h8.86c.65,0,.78.26.78.78v20.84c0,.65-.26.78-.91.65-3-.91-5.99-1.69-8.99-2.47-.65-.13-1.04-.52-.91-1.17.13-.65-.13-.78-.78-.91-5.34-.52-10.55-.65-15.89-.13-.78.13-1.17.26-1.04,1.04,0,.26.13.65,0,.91s-.26.52-.52.65c-3.13.78-6.38,1.56-9.51,2.34-.65.13-.78-.13-.78-.65.13-3.52.26-7.03.39-10.55h0Z"/>
  <path class="cls-1" d="M42.19,68.4c.91-2.47,1.95-4.95,2.87-7.29,2.47-6.38,4.95-12.76,7.42-19.15.13-.26.39-.52.65-.52h8.6c-.13.39-.13.52-.26.78-4.17,8.99-8.21,17.84-12.37,26.83-.13.39-.65.78-1.04.91-3.39,1.17-6.77,2.21-10.16,3.39-.65.26-1.04.13-1.3-.52-3.91-10.16-7.68-20.45-11.59-30.61,0-.13-.13-.39-.13-.65h9.25c.52,0,.78.13.91.65,1.56,5.86,3.26,11.72,4.82,17.71.78,2.87,1.56,5.86,2.34,8.73-.13-.26,0-.26,0-.26Z"/>
</svg>