<?xml version="1.0" encoding="utf-8"?>
<!-- Generator: Adobe Illustrator 27.0.1, SVG Export Plug-In . SVG Version: 6.00 Build 0)  -->
<svg version="1.1" id="Capa_1" xmlns="http://www.w3.org/2000/svg" xmlns:xlink="http://www.w3.org/1999/xlink" x="0px" y="0px"
	 viewBox="0 0 177.4 125.4" style="enable-background:new 0 0 177.4 125.4;" xml:space="preserve">
<style type="text/css">
	.st0{opacity:0.48;fill:#FFFFFF;}
	.st1{opacity:0.66;fill:#FFFFFF;}
	.st2{fill:#FFFFFF;}
	.st3{opacity:0.74;fill:#FFFFFF;}
	.st4{fill-rule:evenodd;clip-rule:evenodd;fill:#FFFFFF;}
	.st5{fill:#1D2A4C;}
</style>
<g>
	<path class="st2" d="M88.2,81.9c-7.9,0-15.8,0-23.7,0c-2.2,0-4.3,0-6.5,0c-0.5,0-0.7-0.2-0.7-0.7c0-1.6,0-3.2,0-4.8
		c0-0.4-0.1-0.6-0.6-0.6c-2.3,0-4.6,0-6.9,0c-0.2,0-0.4,0-0.5,0c-0.2-0.1-0.3-0.3-0.5-0.4c0.1-0.1,0.2-0.4,0.4-0.4
		c0.9-0.3,1.8-0.5,2.7-0.7c7.5-2,15-3.9,22.5-5.9c4.4-1.2,8.9-2.3,13.3-3.5c0.3-0.1,0.6-0.1,0.8,0c12.7,3.3,25.5,6.7,38.2,10
		c0.2,0,0.3,0.1,0.5,0.2c0.1,0.1,0.2,0.3,0.2,0.4c0,0.1-0.2,0.2-0.3,0.3c-0.2,0.1-0.4,0-0.6,0c-2.3,0-4.7,0-7,0
		c-0.5,0-0.6,0.1-0.6,0.6c0,1.5,0,3.1,0,4.6c0,0.8,0,0.9-0.9,0.9C108.2,82,98.2,82,88.2,81.9C88.2,81.9,88.2,81.9,88.2,81.9z
		 M78.8,75.2c0,0.9,0,1.7,0,2.7c-0.5-0.8-0.9-1.3-1.3-1.9c-0.6-0.8-1-1-2-0.7c0,1.6,0,3.2,0,4.9c0.5,0,1,0,1.5,0c0-0.8,0-1.7,0-2.5
		c0.5,0.6,0.9,1.1,1.3,1.7c0.6,0.9,0.9,1,2,0.7c0-1.5,0-3,0-4.6c0-0.1-0.2-0.3-0.3-0.3C79.6,75.2,79.2,75.2,78.8,75.2z M98.8,80.2
		c0-0.4,0-0.9,0-1.3c0-0.2,0.1-0.4,0.2-0.4c0.6-0.3,1.2,0.2,1.2,0.8c0.1,1,0.1,1,1.1,1c0.2,0,0.4,0,0.6,0c-0.3-0.8,0.2-1.9-0.8-2.4
		c0.2-0.1,0.3-0.2,0.4-0.3c0.6-0.7,0.4-1.9-0.4-2.2c-1.2-0.4-2.5-0.2-3.8-0.2c0,1.7,0,3.3,0,5C97.8,80.2,98.3,80.2,98.8,80.2z
		 M69.2,80.2c-0.2-0.8,0.2-1.8-0.8-2.3c1.1-0.8,0.7-2.2,0-2.4c-1.3-0.4-2.6-0.2-3.8-0.2c0,1.7,0,3.3,0,5c0.5,0,1,0,1.6,0
		c0-0.4,0-0.7,0-1.1c0-0.3-0.1-0.7,0.4-0.7c0.5,0,0.9,0,1,0.7c0,0.3,0,0.7,0.1,1.1C68.1,80.2,68.6,80.2,69.2,80.2z M96.5,77.8
		c0-1.7-1-2.7-2.6-2.7c-1.6,0-2.6,1-2.6,2.6c0,1.7,1,2.7,2.6,2.7C95.4,80.4,96.5,79.4,96.5,77.8z M117,76.7
		c-0.1-0.7-0.4-1.1-0.9-1.4c-0.7-0.3-1.4-0.3-2.1-0.1c-0.8,0.2-1.3,0.7-1.3,1.4c0,0.7,0.3,1.2,1.1,1.5c0.4,0.2,0.9,0.2,1.3,0.4
		c0.2,0.1,0.3,0.3,0.5,0.4c-0.2,0.1-0.4,0.3-0.7,0.3c-0.2,0-0.4-0.1-0.5-0.2c-0.5-0.7-1.2-0.3-1.8-0.3c0.2,1,0.8,1.5,1.7,1.6
		c1,0.1,2,0.1,2.7-0.8c0.1-0.1,0.1-0.2,0.1-0.3c0.3-0.9-0.1-1.5-1.1-1.9c-0.5-0.2-1-0.3-1.5-0.5c-0.1,0-0.2-0.2-0.2-0.3
		c0.1-0.1,0.2-0.2,0.3-0.2c0.2,0,0.5,0,0.6,0.1C115.7,77,116.3,76.6,117,76.7z M107.7,75.3c0,1.6,0,3.1,0,4.7c0,0.1,0.3,0.3,0.5,0.3
		c0.7,0,1.4,0,2.2,0c0.5,0,1,0,1.5,0c0.1-1.2,0.1-1.2-1-1.1c-0.5,0-1,0-1.5,0c0-0.3,0-0.5,0-0.8c0.4,0,0.8,0,1.2,0
		c0.9,0,0.9,0,0.9-0.9c0-0.1,0-0.2-0.1-0.3c-0.7,0-1.4,0-2,0c-0.1-0.8-0.1-0.8,0.6-0.8c0.6,0,1.2,0,1.8,0c0-0.4,0-0.7,0-1.1
		C110.4,75.3,109.1,75.3,107.7,75.3z M85.4,76.6c-0.1-0.7-0.4-1.2-1-1.3c-0.7-0.1-1.5-0.2-2.2-0.1c-0.7,0.1-1.1,0.7-1.1,1.3
		c0,0.7,0.2,1.2,1,1.5c0.5,0.2,1,0.3,1.5,0.5c0.2,0.1,0.3,0.3,0.4,0.4c-0.2,0.1-0.3,0.3-0.5,0.4c-0.2,0-0.6,0-0.7-0.2
		c-0.5-0.6-1.2-0.3-1.8-0.3c0.1,0.7,0.5,1.1,1,1.4c0.7,0.3,1.5,0.3,2.2,0.1c0.8-0.2,1.3-0.8,1.3-1.5c0-0.7-0.3-1.2-1.2-1.5
		c-0.4-0.2-0.9-0.2-1.4-0.4c-0.1-0.1-0.2-0.3-0.3-0.4c0.1-0.1,0.3-0.2,0.5-0.2c0.2,0,0.4,0,0.5,0.1C84.2,76.9,84.8,76.6,85.4,76.6z
		 M86.3,75.2c0,1.8,0,3.4,0,5c0.5,0,1,0,1.6,0c0-0.5,0-1,0-1.4c0.6-0.1,1.1-0.1,1.7-0.2c0.8-0.2,1.2-0.8,1.3-1.6
		c0-0.8-0.4-1.5-1.2-1.6C88.5,75.2,87.5,75.2,86.3,75.2z M74.9,80.2c-0.5-1.4-1-2.7-1.4-4c-0.4-1.2-0.2-1-1.4-1c0,0-0.1,0-0.1,0
		c-0.4-0.1-0.6,0.1-0.7,0.5c-0.2,0.7-0.5,1.5-0.8,2.2c-0.3,0.7-0.5,1.5-0.8,2.4c0.7-0.3,1.5,0.4,1.8-0.7c0,0,0.1-0.1,0.1-0.1
		c0.5,0,0.9,0,1.4,0c0.1,0,0.2,0.3,0.3,0.5c0.1,0.1,0.2,0.2,0.2,0.2C73.9,80.2,74.3,80.2,74.9,80.2z M63.7,76.4c0-0.4,0-0.8,0-1.3
		c-1.2,0-2.3,0-3.5,0c-1.2,0-1.2,0-1.1,1.2c0,0,0,0.1,0.1,0.1c0.2,0,0.3,0,0.5,0c1,0,0.9-0.1,0.9,0.9c0,0.9,0,1.9,0,2.8
		c0.6,0,1.1,0,1.6,0c0-0.1,0.1-0.1,0.1-0.2c0-0.7,0-1.4,0-2.2c0-1.3,0-1.3,1.3-1.4C63.6,76.5,63.7,76.5,63.7,76.4z M102.4,75.3
		c0,0.5,0,0.8,0,1.3c0.3,0,0.5,0,0.8,0c0.5-0.1,0.7,0.1,0.7,0.7c0,0.9,0,1.7,0,2.6c0,0.4,0.1,0.5,0.5,0.5c0.3,0,0.7,0,1.1,0
		c0-1.3,0-2.5,0-3.7c0.4,0,0.8,0,1.1,0c0.1,0,0.4-0.3,0.3-0.4c0-0.3,0.2-0.8-0.3-0.9C105.2,75.2,103.8,75.3,102.4,75.3z"/>
	<path class="st2" d="M140.2,56.4c-0.2,0-0.4,0-0.6,0c-3.4,0-6.8,0-10.2,0c-0.5,0-0.7-0.1-0.9-0.6c-1.2-2.8-4-4.3-6.7-3.8
		c-1.3,0.3-2.3,1.1-3.1,2.2c-0.9,1.3-1.4,2.7-1.4,4.3c-0.1,3.1,2.4,6.2,5.3,6.6c2.8,0.4,5-1,6-3.9c0.1-0.3,0.2-0.4,0.5-0.4
		c3.6,0,7.2,0,10.8,0c0.1,0,0.1,0,0.3,0.1c-0.2,1.1-0.3,2.2-0.6,3.3c-1.1,3.9-3.3,7-7,8.8c-1.5,0.7-3.1,1.1-4.7,1.3
		c-0.2,0-0.5,0-0.7-0.1c-6.1-1.8-12.2-3.6-18.2-5.4c-0.3-0.1-0.7-0.4-0.9-0.6c-1.1-1.4-1.9-3-2.6-4.7c0,1.1,0,2.3,0,3.5
		c-0.6-0.2-1.2-0.3-1.7-0.4c-3.6-1-7.3-2-10.9-2.9c-0.4-0.1-0.7-0.3-0.6-0.7c0.1-0.4-0.1-0.5-0.5-0.5c-2.6,0-5.3,0-7.9,0
		c-0.4,0-0.5,0.2-0.5,0.5c0,1.1,0,1.1-1,1.3c-3.8,0.9-7.7,1.9-11.5,2.8c-0.1,0-0.3,0-0.5,0.1c0.2-6.7,0.4-13.4,0.6-20
		c0,0-0.1,0-0.1,0c-0.3,0.7-0.6,1.4-1,2.1c-3.1,7-6.2,13.9-9.3,20.9c-0.2,0.4-0.4,0.6-0.8,0.7c-3.9,1.2-7.8,2.5-11.7,3.7
		c-0.4-1-0.8-2-1.2-3c-2.5-6.5-5-13-7.5-19.5c-0.6-1.6-1.1-3.2-1.8-4.7c-0.5-1-0.3-2.1-0.4-3.2c0.3,0,0.6,0,0.8,0
		c3.6,0,7.2,0,10.7,0c0.5,0,0.8,0.1,0.9,0.7c1.3,4.8,2.6,9.6,3.9,14.4c0,0.1,0.1,0.2,0.2,0.4c0.4-1,0.7-1.8,1-2.6
		c1.6-4.1,3.1-8.2,4.7-12.3c0.2-0.4,0.4-0.6,0.8-0.6c7.6,0,15.3,0,22.9,0c0.5,0,0.6,0.2,0.6,0.6c0,2.5,0,5,0,7.4c0,0.2,0,0.4,0,0.6
		c0.2,0,0.4,0,0.6,0c2.5,0,5,0,7.4,0c0.6,0,0.7-0.2,0.7-0.7c0-2.4,0-4.9,0-7.3c0-0.2,0-0.4,0-0.7c0.2,0,0.4,0,0.6,0
		c3.9,0,7.7,0,11.6,0c0.5,0,0.7,0.1,0.7,0.7c0,3.1,0,6.2,0,9.4c0,0.1,0,0.2,0,0.5c0.1-0.2,0.2-0.2,0.2-0.3c1.7-4.9,5.2-8.1,10.1-9.6
		c5.8-1.7,11.6-1.6,17.1,1.1c4.3,2.1,6.6,5.8,7.4,10.4C140.3,56.2,140.2,56.2,140.2,56.4z M138.4,55.2c0-0.2,0-0.2,0-0.3
		c-0.1-0.2-0.1-0.4-0.2-0.6c-1.6-4.4-4.9-7-9.3-8.3c-2.7-0.8-5.5-1-8.4-0.8c-2.6,0.2-5.2,0.7-7.5,2c-4.4,2.5-6.7,6.3-6.9,11.3
		c-0.1,2.7,0.8,5.2,1.9,7.6c0.4,0.7,0.8,1.4,1.7,1.7c5.2,1.5,10.4,3,15.6,4.6c1.4,0.4,2.7,0.6,4.2,0.2c3.4-1.1,6.2-2.9,7.8-6.3
		c0.6-1.2,0.9-2.4,1-3.9c-0.3,0-0.5,0-0.7,0c-2.5,0-5,0-7.6,0c-0.5,0-0.7,0.1-0.9,0.6c-0.7,1.5-1.7,2.8-3.3,3.5
		c-2.7,1.3-5.7,0.5-7.6-1.4c-3.3-3.2-3.5-8.2-0.6-11.7c1.8-2.2,4.6-3.3,7.7-2c1.7,0.6,2.8,1.9,3.6,3.5c0.2,0.4,0.5,0.5,0.9,0.5
		c1.6,0,3.3,0,4.9,0C136,55.2,137.2,55.2,138.4,55.2z M71.6,65.7c3.1-0.8,6.1-1.6,9-2.4c1.2-0.3,1.2-0.3,1.2-1.5
		c0-0.3,0.1-0.5,0.4-0.5c1.6-0.1,3.2-0.3,4.8-0.3c1.9,0,3.8,0.2,5.7,0.3c0.5,0,0.7,0.2,0.6,0.7c-0.1,0.5,0.2,0.7,0.6,0.8
		c2,0.5,4,1.1,6,1.6c1.2,0.3,2.4,0.7,3.7,1c0-0.1,0.1-0.2,0.1-0.2c0-6.4,0-12.9,0-19.3c0-0.4-0.2-0.5-0.6-0.5c-3.1,0-6.1,0-9.2,0
		c-0.4,0-0.5,0.1-0.5,0.5c0,2.7,0,5.5,0,8.2c0,0.5-0.1,0.6-0.6,0.6c-3.4,0-6.9,0-10.3,0c-0.5,0-0.7-0.2-0.6-0.7c0-2.6,0-5.1,0-7.7
		c0-0.2,0-0.4,0-0.7c-3.4,0-6.8,0-10.2,0C71.8,52.2,71.7,58.9,71.6,65.7z M38.1,45.5c3.5,9.1,7,18.2,10.5,27.3c0.1,0,0.3,0,0.3,0
		c3.2-1,6.5-2.1,9.7-3.1c0.2-0.1,0.4-0.3,0.5-0.5c0.5-1.2,1.1-2.3,1.6-3.5c2.5-5.6,5-11.2,7.5-16.8c0.5-1.1,1-2.2,1.5-3.4
		c-0.1,0-0.2-0.1-0.3-0.1c-2.8,0-5.7,0-8.5,0c-0.4,0-0.5,0.2-0.6,0.5c-1.2,3.2-2.4,6.4-3.7,9.7c-1,2.6-2,5.2-3,7.9
		c-0.1,0.2-0.2,0.3-0.4,0.6c-0.1-0.3-0.2-0.5-0.2-0.7c-1.5-5.8-3.1-11.5-4.6-17.3c-0.1-0.5-0.3-0.6-0.8-0.6c-3,0-6,0-9.1,0
		C38.5,45.5,38.3,45.5,38.1,45.5z"/>
	<path class="st2" d="M98.8,77.4c0.1-0.5-0.3-1.1,0.6-1c0.4,0,1,0.1,0.8,0.6C100.1,77.7,99.4,77.4,98.8,77.4z"/>
	<path class="st2" d="M66.2,77.5c0-0.5,0-0.8,0-1.2c0.5,0.1,0.9,0.1,1.3,0.3c0.1,0,0.1,0.5,0.1,0.5C67.1,77.2,66.7,77.3,66.2,77.5z"
		/>
	<path class="st2" d="M94.9,77.8c0,0.2,0,0.4-0.1,0.6c-0.1,0.5-0.4,0.8-0.9,0.8c-0.5,0-0.8-0.4-0.9-0.8c-0.1-0.4-0.1-0.8,0-1.2
		c0.1-0.5,0.3-0.8,0.9-0.9c0.6,0,0.8,0.4,1,0.8C94.8,77.4,94.8,77.6,94.9,77.8z"/>
	<path class="st2" d="M88.4,77.6c-0.5,0.1-0.5-0.2-0.5-0.6c0-0.4,0-0.7,0.5-0.6c0.4,0.1,0.9,0.1,0.9,0.6
		C89.3,77.5,88.8,77.6,88.4,77.6z"/>
	<path class="st2" d="M72.3,76.9c0.1,0.5,0.3,1,0.4,1.6c-0.3,0-0.6,0-1.1,0.1c0.2-0.6,0.3-1.1,0.5-1.6
		C72.2,76.9,72.3,76.9,72.3,76.9z"/>
	<path class="st2" d="M137,64.2c-0.5,0.9-0.8,1.6-1.3,2.3c-1.8,2.8-4.4,4.6-7.7,5.2c-0.3,0-0.5,0.1-0.8,0
		c-5.8-1.7-11.7-3.4-17.5-5.2c-0.3-0.1-0.6-0.3-0.8-0.6c-2.1-2.8-2.5-6-1.7-9.4c1.1-4.9,4.4-7.9,9.1-9.3c3.8-1.1,7.6-1.2,11.4-0.2
		c3.6,0.9,6.5,2.9,8.5,6.1c0.2,0.3,0.3,0.5,0.4,0.8c-0.2,0-0.3,0.1-0.4,0.1c-1.9,0-3.8,0.1-5.8,0.1c-0.4,0-0.7-0.1-0.9-0.5
		c-1.6-2.6-3.8-4.2-7-4c-3.9,0.3-6.8,2.8-7.9,6.6c-1.1,4.2,1,9.1,4.8,11.2c3.5,1.9,8,0.6,10-2.8c0.3-0.5,0.6-0.6,1.1-0.6
		c1.9,0,3.8,0,5.6,0C136.4,64.1,136.6,64.2,137,64.2z"/>
	<path class="st2" d="M72.7,55.2c0.1-2.7,0.2-5.4,0.2-8.1c0-0.5,0.2-0.6,0.6-0.6c2.3,0,4.5,0,6.8,0c0.5,0,0.6,0.2,0.6,0.6
		c0,2.6,0,5.2,0,7.8c0,0.5,0.1,0.7,0.7,0.7c4.1,0,8.2,0,12.3,0c0.5,0,0.6-0.2,0.6-0.6c0-2.6,0-5.2,0-7.8c0-0.5,0.1-0.7,0.7-0.7
		c2.3,0,4.5,0,6.8,0c0.5,0,0.6,0.2,0.6,0.6c0,5.3,0,10.7,0,16c0,0.5-0.2,0.6-0.7,0.5c-2.3-0.7-4.6-1.3-6.9-1.9
		c-0.5-0.1-0.8-0.4-0.7-0.9c0.1-0.5-0.1-0.6-0.6-0.7c-4.1-0.4-8.1-0.5-12.2-0.1c-0.6,0.1-0.9,0.2-0.8,0.8c0,0.2,0.1,0.5,0,0.7
		c-0.1,0.2-0.2,0.4-0.4,0.5c-2.4,0.6-4.9,1.2-7.3,1.8c-0.5,0.1-0.6-0.1-0.6-0.5C72.5,60.6,72.6,57.9,72.7,55.2
		C72.7,55.2,72.7,55.2,72.7,55.2z"/>
	<path class="st2" d="M53,67.2c0.7-1.9,1.5-3.8,2.2-5.6c1.9-4.9,3.8-9.8,5.7-14.7c0.1-0.2,0.3-0.4,0.5-0.4c2.1,0,4.3,0,6.6,0
		c-0.1,0.3-0.1,0.4-0.2,0.6c-3.2,6.9-6.3,13.7-9.5,20.6c-0.1,0.3-0.5,0.6-0.8,0.7c-2.6,0.9-5.2,1.7-7.8,2.6c-0.5,0.2-0.8,0.1-1-0.4
		c-3-7.8-5.9-15.7-8.9-23.5c0-0.1-0.1-0.3-0.1-0.5c0.2,0,0.4,0,0.6,0c2.2,0,4.3,0,6.5,0c0.4,0,0.6,0.1,0.7,0.5
		c1.2,4.5,2.5,9,3.7,13.6c0.6,2.2,1.2,4.5,1.8,6.7C52.9,67.2,53,67.2,53,67.2z"/>
</g>
</svg>
