<?xml version="1.0" encoding="UTF-8"?>
<svg id="Capa_7" data-name="Capa 7" xmlns="http://www.w3.org/2000/svg" viewBox="0 0 177.4 125.4">
  <defs>
    <style>
      .cls-1 {
        fill: #fff;
        stroke-width: 0px;
      }
    </style>
  </defs>
  <path class="cls-1" d="M59.33,53.33c-1.06-.1-1.16-.19-.96-1.06.19-.48.39-.96.58-1.54h2.7c.29.77.48,1.45.68,1.93s.1.58-.77.68v.39h3.09v-.39c-.87-.1-.96-.19-1.35-1.25-.77-2.12-1.64-4.53-2.41-6.65l-.39.1-2.6,6.56c-.48,1.16-.68,1.25-1.45,1.35v.39h2.89s0-.48,0-.48ZM60.3,47.06l1.16,3.18h-2.31c.39-.96.77-2.12,1.16-3.18Z"/>
  <path class="cls-1" d="M77.95,51.59l-.39-.1c-.19.48-.48.96-.77,1.25s-.48.39-1.06.39h-.96c-.68,0-.77-.19-.77-.96v-5.01c0-1.06.1-1.16,1.16-1.25v-.29h-3.38v.39c.96.1,1.16.19,1.16,1.25v4.92c0,1.06-.1,1.16-1.25,1.25v.39h5.79c.1-.48.48-1.83.48-2.22Z"/>
  <path class="cls-1" d="M87.11,53.33c-1.06-.1-1.16-.19-.96-1.06.19-.48.39-.96.58-1.54h2.7c.29.77.48,1.45.68,1.93s.1.58-.77.68v.39h3.09v-.39c-.87-.1-.96-.19-1.35-1.25-.77-2.12-1.64-4.53-2.41-6.65l-.39.1-2.6,6.56c-.48,1.06-.68,1.16-1.45,1.25v.39h2.89v-.39ZM88.07,47.06l1.16,3.18h-2.31c.39-.96.77-2.12,1.16-3.18Z"/>
  <path class="cls-1" d="M102.92,53.33c-.96-.1-1.16-.19-1.16-1.25v-1.93h.48c.68,0,.77.1,1.06.48.39.68.87,1.45,1.35,2.03.58.77,1.06.96,1.93,1.06h.48l.1-.39c-.29-.1-.58-.19-.87-.58-.29-.29-.48-.58-.96-1.25-.39-.58-.87-1.35-1.16-1.74.96-.39,1.64-1.06,1.64-2.12,0-.77-.29-1.35-.87-1.64-.48-.29-1.06-.39-2.03-.39h-3.28v.39c.96.1,1.16.19,1.16,1.25v4.92c0,1.06-.1,1.06-1.16,1.25v.39h3.28v-.48ZM101.77,46.68c0-.29,0-.48.19-.58.1-.1.29-.1.68-.1.96,0,1.83.48,1.83,1.83,0,.68-.19,1.16-.68,1.54-.29.29-.68.39-1.35.39h-.58v-3.09h-.1Z"/>
  <path class="cls-1" d="M118.84,53.91c.96,0,1.93-.19,2.31-.29.19-.39.48-1.25.68-1.83l-.39-.1c-.68,1.25-1.25,1.83-2.51,1.83-2.03,0-3.28-1.54-3.28-3.95,0-2.03,1.06-3.57,3.18-3.57.48,0,.96.1,1.35.19.68.29.96.77,1.16,1.64l.39-.1c-.1-.58-.19-1.35-.19-1.93-.39-.1-1.25-.29-2.31-.29-2.8,0-4.73,1.74-4.73,4.24-.19,2.12,1.35,4.15,4.34,4.15Z"/>
  <path class="cls-1" d="M133.98,53.91c2.31,0,4.15-1.64,4.15-4.34,0-2.51-1.93-4.15-4.05-4.15-2.6,0-4.24,2.03-4.24,4.24,0,2.41,1.74,4.24,4.15,4.24ZM133.78,45.9c1.64,0,2.99,1.35,2.99,3.95,0,2.41-1.16,3.57-2.6,3.57-1.74,0-2.99-1.74-2.99-4.05-.1-2.31,1.25-3.47,2.6-3.47Z"/>
  <path class="cls-1" d="M136.2,43.4v-.1c-.1-.19-.58-.58-.87-.68l-2.03,1.93.29.29,2.6-1.45Z"/>
  <path class="cls-1" d="M146.9,46.39c.19.29.29.48.29.87v3.18c0,1.16,0,1.74-.1,2.12-.1.58-.39.77-1.16.87v.39h2.99v-.48c-.87-.1-1.25-.29-1.25-.87,0-.39-.1-.96-.1-2.03v-3.09l5.3,6.46h.48v-7.14c0-.58.29-.68,1.06-.77v-.29h-3.09v.39c.96.1,1.25.19,1.35.77,0,.39.1.87.1,2.03v3.09l-5.3-6.27h-1.83v.39c.77,0,1.06.1,1.25.39Z"/>
  <path class="cls-1" d="M28.09,88.14c-.29.39-.58.48-1.35.48h-.87c-.77,0-.87-.29-.87-1.16v-5.59c0-1.25.19-1.25,1.25-1.35v-.48h-4.24v.48c1.06.1,1.25.19,1.25,1.35v5.5c0,1.16-.1,1.25-1.35,1.35v.48h6.94c.1-.39.58-1.93.68-2.41l-.48-.19c-.39.58-.68,1.25-.96,1.54Z"/>
  <path class="cls-1" d="M40.82,87.28c-.87-2.41-1.93-5.01-2.8-7.43l-.58.1-2.99,7.43c-.48,1.25-.68,1.35-1.64,1.45v.48h3.47v-.48c-1.16-.1-1.45-.19-1.16-1.16.19-.48.39-1.06.58-1.54h2.89c.29.68.48,1.35.68,1.83.19.58.19.77-.77.87v.48h3.95v-.48c-.96-.19-1.06-.29-1.64-1.54ZM36,85.44c.39-1.06.77-2.12,1.25-3.28l1.16,3.28h-2.41Z"/>
  <path class="cls-1" d="M51.14,84.19c.87-.19,2.03-.87,2.03-2.12,0-.68-.39-1.25-.87-1.54-.48-.39-1.25-.48-2.31-.48h-4.15v.48c1.06.1,1.25.19,1.25,1.35v5.5c0,1.16-.1,1.25-1.25,1.35v.48h3.86c1.06,0,1.93-.19,2.6-.58.87-.48,1.35-1.25,1.35-2.22,0-1.25-1.06-1.93-2.51-2.22ZM48.73,81.3c0-.39,0-.48.19-.58.1-.1.39-.1.68-.1.96,0,1.74.58,1.74,1.74,0,1.06-.58,1.74-1.93,1.74h-.58v-2.8h-.1ZM49.98,88.72c-.87,0-1.25-.29-1.25-1.35v-2.8h.58c1.64,0,2.41.68,2.41,2.03.1,1.45-.77,2.12-1.74,2.12Z"/>
  <path class="cls-1" d="M62.81,79.85c-3.18,0-4.92,2.41-4.92,4.82,0,2.7,2.03,4.82,4.82,4.82s4.82-1.93,4.82-4.92-2.12-4.73-4.73-4.73ZM62.9,88.92c-1.93,0-3.09-2.03-3.09-4.53s1.16-3.95,2.7-3.95c1.74,0,2.99,1.64,2.99,4.53.1,2.6-1.06,3.95-2.6,3.95Z"/>
  <path class="cls-1" d="M79.59,88.24c-.29-.29-.58-.68-1.06-1.45-.39-.68-.96-1.54-1.25-2.03.96-.39,1.83-1.06,1.83-2.31,0-.87-.39-1.54-.96-1.93s-1.25-.48-2.51-.48h-3.95v.48c1.06.1,1.25.19,1.25,1.35v5.5c0,1.16-.1,1.25-1.25,1.35v.48h4.15v-.48c-1.06-.1-1.25-.19-1.25-1.35v-2.12h.39c.58,0,.77.1.96.48.48.77.96,1.74,1.45,2.41s1.06,1.06,2.6,1.16h.48l.1-.48c-.39,0-.58-.19-.96-.58ZM76.5,84.29c-.29.29-.77.39-1.45.39h-.48v-3.38c0-.29,0-.48.1-.58s.29-.1.68-.1c.87,0,1.83.58,1.83,2.03.1.77-.1,1.25-.68,1.64Z"/>
  <path class="cls-1" d="M91.54,87.28c-.87-2.41-1.93-5.01-2.8-7.43l-.58.1-2.99,7.43c-.48,1.25-.68,1.35-1.64,1.45v.48h3.47v-.48c-1.16-.1-1.45-.19-1.16-1.16.19-.48.39-1.06.58-1.54h2.89c.29.68.48,1.35.68,1.83.19.58.19.77-.77.87v.48h3.95v-.48c-.96-.19-1.06-.29-1.64-1.54ZM86.72,85.44c.39-1.06.77-2.12,1.25-3.28l1.16,3.28h-2.41Z"/>
  <path class="cls-1" d="M102.54,88.14c-.29.39-.58.48-1.35.48h-.87c-.77,0-.87-.29-.87-1.16v-5.59c0-1.25.19-1.25,1.25-1.35v-.48h-4.24v.48c1.06.1,1.25.19,1.25,1.35v5.5c0,1.16-.1,1.25-1.35,1.35v.48h6.94c.1-.39.58-1.93.68-2.41l-.48-.19c-.29.58-.58,1.25-.96,1.54Z"/>
  <path class="cls-1" d="M107.55,80.52c1.06.1,1.25.19,1.25,1.45v5.5c0,1.16-.1,1.25-1.25,1.35v.48h4.24v-.48c-1.16-.1-1.25-.19-1.25-1.35v-5.5c0-1.25.1-1.25,1.25-1.45v-.48h-4.24v.48Z"/>
  <path class="cls-1" d="M119.32,83.8c-1.25-.58-1.83-1.06-1.83-1.93,0-.77.48-1.45,1.45-1.45,1.35,0,1.74.96,2.03,1.93l.48-.1c-.1-.87-.19-1.54-.29-2.12-.29,0-1.06-.29-2.03-.29-2.03,0-3.18,1.16-3.18,2.6s.96,2.12,2.41,2.89c1.25.68,1.74,1.16,1.74,2.03,0,.96-.58,1.54-1.45,1.54-1.45,0-2.12-1.45-2.41-2.31l-.48.1c.1.68.29,2.03.39,2.31.68.19,1.45.48,2.31.48,1.93,0,3.28-1.16,3.28-2.8.1-1.45-.77-2.12-2.41-2.89Z"/>
  <path class="cls-1" d="M133.5,79.66c-.19.29-.39.39-.77.39h-5.69c-.39,0-.58,0-.77-.39h-.39c0,.68-.1,1.74-.19,2.7h.48c.19-.58.39-.96.58-1.25.29-.39.48-.48,1.25-.48h1.06v6.75c0,1.16-.1,1.25-1.35,1.35v.48h4.53v-.48c-1.25-.1-1.45-.19-1.45-1.35v-6.75h1.06c.87,0,.96.1,1.16.48.19.19.39.77.58,1.35h.48c-.1-.87-.1-2.03-.1-2.7h-.48v-.1Z"/>
  <path class="cls-1" d="M144.2,87.28c-.87-2.41-1.93-5.01-2.8-7.43l-.58.1-2.99,7.43c-.48,1.25-.68,1.35-1.64,1.45v.48h3.47v-.48c-1.16-.1-1.45-.19-1.16-1.16.19-.48.39-1.06.58-1.54h2.89c.29.68.48,1.35.68,1.83.19.58.19.77-.77.87v.48h3.95v-.48c-1.06-.19-1.16-.29-1.64-1.54ZM139.28,85.44c.39-1.06.77-2.12,1.25-3.28l1.16,3.28h-2.41Z"/>
  <path class="cls-1" d="M152.98,83.8c-1.25-.58-1.83-1.06-1.83-1.93,0-.77.48-1.45,1.45-1.45,1.35,0,1.74.96,2.03,1.93l.48-.1c-.1-.87-.19-1.54-.29-2.12-.29,0-1.06-.29-2.03-.29-2.03,0-3.18,1.16-3.18,2.6s.96,2.12,2.41,2.89c1.25.68,1.74,1.16,1.74,2.03,0,.96-.58,1.54-1.45,1.54-1.45,0-2.12-1.45-2.41-2.31l-.48.1c.1.68.29,2.03.39,2.31.68.19,1.45.48,2.31.48,1.93,0,3.28-1.16,3.28-2.8,0-1.45-.87-2.12-2.41-2.89Z"/>
  <path class="cls-1" d="M57.7,58.73v7.72c0,1.74-.19,1.83-1.74,1.93v.77h5.69c1.45,0,2.8-.29,3.86-.87,1.16-.68,1.93-1.83,1.93-3.09,0-1.93-1.45-2.89-3.57-3.28,1.35-.29,2.89-1.25,2.89-2.99,0-.96-.48-1.74-1.25-2.22-.77-.48-1.74-.68-3.28-.68h-6.17v.77c1.35.1,1.64.29,1.64,1.93ZM64.45,65.48c0,1.83-1.06,2.89-2.22,2.89-1.06,0-1.74-.39-1.74-1.83v-3.86h.68c2.22-.1,3.28.77,3.28,2.8ZM60.68,57.09c.19-.1.48-.19.96-.19,1.16,0,2.22.68,2.22,2.41,0,1.45-.68,2.31-2.6,2.31h-.77v-3.86c0-.39-.1-.48.19-.68Z"/>
  <path class="cls-1" d="M75.73,69.43c3.86,0,6.85-2.7,6.85-7.04,0-3.95-3.09-6.75-6.75-6.75-4.63,0-7.04,3.38-7.04,6.85,0,4.05,2.89,6.94,6.94,6.94ZM75.54,56.61c2.31,0,3.95,2.41,3.95,6.36,0,3.66-1.45,5.59-3.38,5.59-2.7,0-4.05-2.89-4.05-6.36-.1-3.57,1.45-5.59,3.47-5.59Z"/>
  <path class="cls-1" d="M85.18,62.59c0,3.95,2.7,6.85,7.43,6.85,1.64,0,3.86-.48,4.92-.68-.1-.58-.1-1.25-.1-1.93v-1.54c0-1.35.1-1.45,1.25-1.64v-.77h-6.08v.77c1.74.19,2.03.39,2.03,1.74v1.74c0,.58-.19.96-.48,1.16-.39.19-.87.29-1.25.29-3.28,0-4.53-2.8-4.53-6.36s1.83-5.59,4.24-5.59c.48,0,1.25.1,1.74.29,1.25.39,2.03,1.25,2.51,2.99l.77-.1c-.1-1.16-.29-2.6-.39-3.57-.68-.1-2.41-.48-4.05-.48-4.34,0-8,2.31-8,6.85Z"/>
  <path class="cls-1" d="M105.24,55.93l-4.24,10.42c-.68,1.74-.96,1.83-2.31,2.03v.77h5.01v-.77c-1.64-.1-2.12-.29-1.64-1.54.19-.58.48-1.35.68-2.03h3.95c.29.77.58,1.74.87,2.31.29.87.29,1.06-.96,1.25v.77h5.88v-.77c-1.35-.19-1.45-.29-2.22-2.22-1.35-3.38-2.7-6.94-3.95-10.51l-1.06.29ZM103.12,63.84c.48-1.45,1.06-2.8,1.64-4.24l1.54,4.24h-3.18Z"/>
  <path class="cls-1" d="M125.59,67.51c1.54-1.16,2.51-2.99,2.51-5.3,0-2.03-.77-3.47-1.83-4.44-1.25-1.25-3.18-1.74-5.79-1.74h-6.17v.77c1.45.1,1.74.29,1.74,2.03v7.72c0,1.64-.19,1.83-1.74,2.03v.77h5.59c2.31-.19,4.24-.77,5.69-1.83ZM118.84,66.35v-8c0-.58,0-.96.19-1.16.1-.1.48-.29,1.25-.29,1.35,0,2.41.29,3.28,1.16.96.87,1.45,2.51,1.45,4.44,0,3.86-1.54,5.69-4.34,5.69-1.45,0-1.83-.48-1.83-1.83Z"/>
  <path class="cls-1" d="M129.83,62.59c0,3.86,2.89,6.85,6.94,6.85s6.85-2.7,6.85-7.04c0-3.95-3.09-6.75-6.75-6.75-4.53.1-7.04,3.57-7.04,6.94ZM140.54,63.07c0,3.66-1.45,5.59-3.38,5.59-2.7,0-4.05-2.89-4.05-6.36s1.54-5.59,3.57-5.59c2.31-.1,3.86,2.31,3.86,6.36Z"/>
  <path class="cls-1" d="M147.09,59.6c0,2.12,1.35,3.09,3.47,4.24,1.74.87,2.41,1.64,2.41,2.8,0,1.25-.77,2.03-2.03,2.03-2.03,0-3.09-2.22-3.47-3.47l-.77.19c.1.96.48,3.09.58,3.47.96.29,2.12.58,3.38.58,2.89,0,4.82-1.74,4.82-4.15,0-2.03-1.35-3.09-3.57-4.15-1.74-.87-2.51-1.54-2.51-2.7s.77-1.93,1.93-1.93c1.83,0,2.41,1.45,2.8,2.8l.77-.19c-.19-1.25-.29-2.31-.39-3.09-.48-.1-1.45-.39-2.89-.39-2.89.1-4.53,1.83-4.53,3.95Z"/>
  <path class="cls-1" d="M31.17,68.28s-2.8.19-2.31-1.74l7.43-21.8.77,1.93-6.46,17.26s-1.06,3.18.68,3.18h4.53v-1.06s-2.8.19-2.31-1.74l4.82-14.18,6.56,17.65s-.1.68-.87.77v.77h8.68v-.77s-3.57-.77-4.05-2.03l-11.09-27.97s-.77-1.45-1.45,0l-10.13,27.58s-.96,1.83-1.93,2.12h-2.12v1.06h9.26v-1.06Z"/>
  <path class="cls-1" d="M52.39,67.31h5.01v-.77s-3.57-.77-4.05-2.03l-11.09-27.97s-.77-1.45-1.45,0l-1.16,2.99,9.84,26.23c.1,0,.96,1.54,2.89,1.54Z"/>
  <path class="cls-1" d="M98.68,78.11c2.22-.58,3.09-2.6,3.09-2.7l-.19-.1s-.77,2.03-2.99,2.6c-1.93.48-4.15-1.06-4.53-1.45.29-.39,2.03-1.83,2.8-2.12.96-.39,1.83-.39,2.22,0,.1.1.1.19.1.29s-.19.29-.29.29l-.48.19h56.51v-.19h-55.55c.1-.1.1-.19.1-.29,0-.19,0-.29-.19-.48-.48-.39-1.35-.39-2.41,0-.48.19-1.35.87-1.83,1.25-.29.19-.58.48-.77.68l-.29.29c-.1-.1-.19-.1-.29-.19.58-.29.87-.77.96-1.06.29-.77,0-1.64-.39-1.93-.19-.19-.29-.19-.48-.1-.48.19-1.06.96-1.06,1.83,0,.48.1.96.48,1.25-.1,0-.19.1-.39.1-2.03.29-2.8-.87-3.09-1.45l.87-.77h1.06l-1.35-1.06-.77,1.54-.39-.58.68-1.16-1.06-1.45h0l-1.06,1.45.68,1.16-.39.48-.87-1.64-1.35,1.06h1.06l.87.77c-.29.58-1.06,1.74-3.09,1.45-.1,0-.29,0-.39-.1.29-.39.48-.77.48-1.25,0-.87-.58-1.64-1.06-1.83-.19-.1-.29,0-.48.1-.39.39-.58,1.16-.39,1.93.1.39.39.87.96,1.06-.1.1-.19.1-.29.19l-.29-.29c-.19-.19-.48-.48-.77-.68-.48-.39-1.35-1.06-1.83-1.25-1.06-.39-1.93-.39-2.41,0-.19.1-.19.29-.19.48,0,.1.1.19.1.29H22.5v.19h56.51l-.58-.19c-.1,0-.29-.19-.29-.29s0-.19.1-.29c.39-.39,1.25-.39,2.22,0,.77.29,2.51,1.83,2.8,2.12-.39.39-2.6,1.93-4.53,1.45-2.12-.58-2.99-2.6-2.99-2.6l-.19.19c0,.1.87,2.12,3.09,2.7.29.1.58.1.87.1,1.25,0,2.41-.58,3.09-1.06,0,0,.68-.48.87-.68.19-.1.39-.19.58-.29.19.1.29.1.58.1,2.22.29,3.09-1.16,3.38-1.64h1.54c.29.58,1.16,2.03,3.38,1.64.19,0,.39-.1.58-.1.19.1.29.19.58.29.19.19.87.68.87.68.68.39,1.83,1.06,3.09,1.06.1.1.39,0,.68,0ZM84.02,75.9c-.58-.19-.87-.68-.96-.96-.19-.68,0-1.45.29-1.74q.1-.1.19-.1h.1c.39.1.87.87.87,1.64,0,.39-.1.77-.48,1.16ZM92.9,74.74c0-.77.58-1.54.87-1.64h.1c.1,0,.19.1.19.1.29.29.48,1.06.29,1.74-.1.39-.39.77-.96.96-.39-.39-.48-.77-.48-1.16Z"/>
</svg>