<?xml version="1.0" encoding="utf-8"?>
<!-- Generator: Adobe Illustrator 27.0.1, SVG Export Plug-In . SVG Version: 6.00 Build 0)  -->
<svg version="1.1" id="Capa_1" xmlns="http://www.w3.org/2000/svg" xmlns:xlink="http://www.w3.org/1999/xlink" x="0px" y="0px"
	 viewBox="0 0 177.4 125.4" style="enable-background:new 0 0 177.4 125.4;" xml:space="preserve">
<style type="text/css">
	.st0{opacity:0.48;fill:#FFFFFF;}
	.st1{opacity:0.66;fill:#FFFFFF;}
	.st2{fill:#FFFFFF;}
	.st3{opacity:0.74;fill:#FFFFFF;}
	.st4{fill-rule:evenodd;clip-rule:evenodd;fill:#FFFFFF;}
	.st5{fill:#1D2A4C;}
</style>
<g>
	<path class="st2" d="M58.2,53c-1.1-0.1-1.2-0.2-1-1.1c0.2-0.5,0.4-1,0.6-1.6h2.8c0.3,0.8,0.5,1.5,0.7,2c0.2,0.5,0.1,0.6-0.8,0.7
		v0.4h3.2V53c-0.9-0.1-1-0.2-1.4-1.3c-0.8-2.2-1.7-4.7-2.5-6.9l-0.4,0.1l-2.7,6.8c-0.5,1.2-0.7,1.3-1.5,1.4v0.4h3V53z M59.2,46.5
		l1.2,3.3H58C58.4,48.8,58.8,47.6,59.2,46.5z"/>
	<path class="st2" d="M77.5,51.2l-0.4-0.1c-0.2,0.5-0.5,1-0.8,1.3c-0.3,0.3-0.5,0.4-1.1,0.4c-0.1,0-1,0-1,0c-0.7,0-0.8-0.2-0.8-1
		v-5.2c0-1.1,0.1-1.2,1.2-1.3V45h-3.5v0.4c1,0.1,1.2,0.2,1.2,1.3v5.1c0,1.1-0.1,1.2-1.3,1.3v0.4h6C77.1,53,77.5,51.6,77.5,51.2z"/>
	<path class="st2" d="M87,53c-1.1-0.1-1.2-0.2-1-1.1c0.2-0.5,0.4-1,0.6-1.6h2.8c0.3,0.8,0.5,1.5,0.7,2c0.2,0.5,0.1,0.6-0.8,0.7v0.4
		h3.2V53c-0.9-0.1-1-0.2-1.4-1.3c-0.8-2.2-1.7-4.7-2.5-6.9l-0.4,0.1l-2.7,6.8C85,52.8,84.8,52.9,84,53v0.4h3V53z M88,46.5l1.2,3.3
		h-2.4C87.2,48.8,87.6,47.6,88,46.5z"/>
	<path class="st2" d="M103.4,53c-1-0.1-1.2-0.2-1.2-1.3v-2h0.5c0.7,0,0.8,0.1,1.1,0.5c0.4,0.7,0.9,1.5,1.4,2.1c0.6,0.8,1.1,1,2,1.1
		c0.2,0,0.3,0,0.5,0l0.1-0.4c-0.3-0.1-0.6-0.2-0.9-0.6c-0.3-0.3-0.5-0.6-1-1.3c-0.4-0.6-0.9-1.4-1.2-1.8c1-0.4,1.7-1.1,1.7-2.2
		c0-0.8-0.3-1.4-0.9-1.7c-0.5-0.3-1.1-0.4-2.1-0.4H100v0.4c1,0.1,1.2,0.2,1.2,1.3v5.1c0,1.1-0.1,1.1-1.2,1.3v0.4h3.4V53z
		 M102.2,46.1c0-0.3,0-0.5,0.2-0.6c0.1-0.1,0.3-0.1,0.7-0.1c1,0,1.9,0.5,1.9,1.9c0,0.7-0.2,1.2-0.7,1.6c-0.3,0.3-0.7,0.4-1.4,0.4
		h-0.6V46.1z"/>
	<path class="st2" d="M119.9,53.6c1,0,2-0.2,2.4-0.3c0.2-0.4,0.5-1.3,0.7-1.9l-0.4-0.1c-0.7,1.3-1.3,1.9-2.6,1.9
		c-2.1,0-3.4-1.6-3.4-4.1c0-2.1,1.1-3.7,3.3-3.7c0.5,0,1,0.1,1.4,0.2c0.7,0.3,1,0.8,1.2,1.7l0.4-0.1c-0.1-0.6-0.2-1.4-0.2-2
		c-0.4-0.1-1.3-0.3-2.4-0.3c-2.9,0-4.9,1.8-4.9,4.4C115.2,51.5,116.8,53.6,119.9,53.6z"/>
	<path class="st2" d="M135.6,53.6c2.4,0,4.3-1.7,4.3-4.5c0-2.6-2-4.3-4.2-4.3c-2.7,0-4.4,2.1-4.4,4.4
		C131.3,51.7,133.1,53.6,135.6,53.6z M135.4,45.3c1.7,0,3.1,1.4,3.1,4.1c0,2.5-1.2,3.7-2.7,3.7c-1.8,0-3.1-1.8-3.1-4.2
		C132.6,46.5,134,45.3,135.4,45.3z"/>
	<path class="st2" d="M137.9,42.7l0-0.1c-0.1-0.2-0.6-0.6-0.9-0.7l-2.1,2l0.3,0.3L137.9,42.7z"/>
	<path class="st2" d="M149,45.8c0.2,0.3,0.3,0.5,0.3,0.9v3.3c0,1.2,0,1.8-0.1,2.2c-0.1,0.6-0.4,0.8-1.2,0.9v0.4h3.1V53
		c-0.9-0.1-1.3-0.3-1.3-0.9c0-0.4-0.1-1-0.1-2.1v-3.2l5.5,6.7h0.5v-5.2c0-1.2,0-1.7,0-2.2c0-0.6,0.3-0.7,1.1-0.8V45h-3.2v0.4
		c1,0.1,1.3,0.2,1.4,0.8c0,0.4,0.1,0.9,0.1,2.1v3.2l-5.5-6.5h-1.9v0.4C148.5,45.4,148.8,45.5,149,45.8z"/>
	<path class="st2" d="M25.8,89.1c-0.3,0.4-0.6,0.5-1.4,0.5c-0.1,0-0.9,0-0.9,0c-0.8,0-0.9-0.3-0.9-1.2v-5.8c0-1.3,0.2-1.3,1.3-1.4
		v-0.5h-4.4v0.5c1.1,0.1,1.3,0.2,1.3,1.4v5.7c0,1.2-0.1,1.3-1.4,1.4v0.5h7.2c0.1-0.4,0.6-2,0.7-2.5l-0.5-0.2
		C26.4,88.1,26.1,88.8,25.8,89.1z"/>
	<path class="st2" d="M39,88.2c-0.9-2.5-2-5.2-2.9-7.7l-0.6,0.1l-3.1,7.7c-0.5,1.3-0.7,1.4-1.7,1.5v0.5h3.6v-0.5
		c-1.2-0.1-1.5-0.2-1.2-1.2c0.2-0.5,0.4-1.1,0.6-1.6h3c0.3,0.7,0.5,1.4,0.7,1.9c0.2,0.6,0.2,0.8-0.8,0.9v0.5h4.1v-0.5
		C39.7,89.6,39.6,89.5,39,88.2z M34,86.3c0.4-1.1,0.8-2.2,1.3-3.4l1.2,3.4H34z"/>
	<path class="st2" d="M49.7,85c0.9-0.2,2.1-0.9,2.1-2.2c0-0.7-0.4-1.3-0.9-1.6c-0.5-0.4-1.3-0.5-2.4-0.5h-4.3v0.5
		c1.1,0.1,1.3,0.2,1.3,1.4v5.7c0,1.2-0.1,1.3-1.3,1.4v0.5h4c1.1,0,2-0.2,2.7-0.6c0.9-0.5,1.4-1.3,1.4-2.3C52.3,86,51.2,85.3,49.7,85
		z M47.2,82c0-0.4,0-0.5,0.2-0.6c0.1-0.1,0.4-0.1,0.7-0.1c1,0,1.8,0.6,1.8,1.8c0,1.1-0.6,1.8-2,1.8h-0.6V82z M48.5,89.7
		c-0.9,0-1.3-0.3-1.3-1.4v-2.9h0.6c1.7,0,2.5,0.7,2.5,2.1C50.4,89,49.5,89.7,48.5,89.7z"/>
	<path class="st2" d="M61.8,80.5c-3.3,0-5.1,2.5-5.1,5c0,2.8,2.1,5,5,5c2.8,0,5-2,5-5.1C66.7,82.4,64.5,80.5,61.8,80.5z M61.9,89.9
		c-2,0-3.2-2.1-3.2-4.7c0-2.7,1.2-4.1,2.8-4.1c1.8,0,3.1,1.7,3.1,4.7C64.7,88.5,63.5,89.9,61.9,89.9z"/>
	<path class="st2" d="M79.2,89.2c-0.3-0.3-0.6-0.7-1.1-1.5c-0.4-0.7-1-1.6-1.3-2.1c1-0.4,1.9-1.1,1.9-2.4c0-0.9-0.4-1.6-1-2
		c-0.6-0.4-1.3-0.5-2.6-0.5H71v0.5c1.1,0.1,1.3,0.2,1.3,1.4v5.7c0,1.2-0.1,1.3-1.3,1.4v0.5h4.3v-0.5c-1.1-0.1-1.3-0.2-1.3-1.4v-2.2
		l0.4,0c0.6,0,0.8,0.1,1,0.5c0.5,0.8,1,1.8,1.5,2.5c0.5,0.7,1.1,1.1,2.7,1.2c0.2,0,0.4,0,0.5,0l0.1-0.5
		C79.8,89.8,79.6,89.6,79.2,89.2z M76,85.1c-0.3,0.3-0.8,0.4-1.5,0.4H74V82c0-0.3,0-0.5,0.1-0.6c0.1-0.1,0.3-0.1,0.7-0.1
		c0.9,0,1.9,0.6,1.9,2.1C76.8,84.2,76.6,84.7,76,85.1z"/>
	<path class="st2" d="M91.6,88.2c-0.9-2.5-2-5.2-2.9-7.7l-0.6,0.1l-3.1,7.7c-0.5,1.3-0.7,1.4-1.7,1.5v0.5h3.6v-0.5
		c-1.2-0.1-1.5-0.2-1.2-1.2c0.2-0.5,0.4-1.1,0.6-1.6h3c0.3,0.7,0.5,1.4,0.7,1.9c0.2,0.6,0.2,0.8-0.8,0.9v0.5h4.1v-0.5
		C92.3,89.6,92.2,89.5,91.6,88.2z M86.6,86.3c0.4-1.1,0.8-2.2,1.3-3.4l1.2,3.4H86.6z"/>
	<path class="st2" d="M103,89.1c-0.3,0.4-0.6,0.5-1.4,0.5c-0.1,0-0.9,0-0.9,0c-0.8,0-0.9-0.3-0.9-1.2v-5.8c0-1.3,0.2-1.3,1.3-1.4
		v-0.5h-4.4v0.5c1.1,0.1,1.3,0.2,1.3,1.4v5.7c0,1.2-0.1,1.3-1.4,1.4v0.5h7.2c0.1-0.4,0.6-2,0.7-2.5l-0.5-0.2
		C103.7,88.1,103.4,88.8,103,89.1z"/>
	<path class="st2" d="M108.2,81.2c1.1,0.1,1.3,0.2,1.3,1.5v5.7c0,1.2-0.1,1.3-1.3,1.4v0.5h4.4v-0.5c-1.2-0.1-1.3-0.2-1.3-1.4v-5.7
		c0-1.3,0.1-1.3,1.3-1.5v-0.5h-4.4V81.2z"/>
	<path class="st2" d="M120.4,84.6c-1.3-0.6-1.9-1.1-1.9-2c0-0.8,0.5-1.5,1.5-1.5c1.4,0,1.8,1,2.1,2l0.5-0.1
		c-0.1-0.9-0.2-1.6-0.3-2.2c-0.3,0-1.1-0.3-2.1-0.3c-2.1,0-3.3,1.2-3.3,2.7c0,1.5,1,2.2,2.5,3c1.3,0.7,1.8,1.2,1.8,2.1
		c0,1-0.6,1.6-1.5,1.6c-1.5,0-2.2-1.5-2.5-2.4l-0.5,0.1c0.1,0.7,0.3,2.1,0.4,2.4c0.7,0.2,1.5,0.5,2.4,0.5c2,0,3.4-1.2,3.4-2.9
		C123,86.1,122.1,85.4,120.4,84.6z"/>
	<path class="st2" d="M135.1,80.3c-0.2,0.3-0.4,0.4-0.8,0.4h-5.9c-0.4,0-0.6,0-0.8-0.4h-0.4c0,0.7-0.1,1.8-0.2,2.8h0.5
		c0.2-0.6,0.4-1,0.6-1.3c0.3-0.4,0.5-0.5,1.3-0.5h1.1v7c0,1.2-0.1,1.3-1.4,1.4v0.5h4.7v-0.5c-1.3-0.1-1.5-0.2-1.5-1.4v-7h1.1
		c0.9,0,1,0.1,1.2,0.5c0.2,0.2,0.4,0.8,0.6,1.4l0.5,0c-0.1-0.9-0.1-2.1-0.1-2.8H135.1z"/>
	<path class="st2" d="M146.2,88.2c-0.9-2.5-2-5.2-2.9-7.7l-0.6,0.1l-3.1,7.7c-0.5,1.3-0.7,1.4-1.7,1.5v0.5h3.6v-0.5
		c-1.2-0.1-1.5-0.2-1.2-1.2c0.2-0.5,0.4-1.1,0.6-1.6h3c0.3,0.7,0.5,1.4,0.7,1.9c0.2,0.6,0.2,0.8-0.8,0.9v0.5h4.1v-0.5
		C146.8,89.6,146.7,89.5,146.2,88.2z M141.1,86.3c0.4-1.1,0.8-2.2,1.3-3.4l1.2,3.4H141.1z"/>
	<path class="st2" d="M155.3,84.6c-1.3-0.6-1.9-1.1-1.9-2c0-0.8,0.5-1.5,1.5-1.5c1.4,0,1.8,1,2.1,2l0.5-0.1
		c-0.1-0.9-0.2-1.6-0.3-2.2c-0.3,0-1.1-0.3-2.1-0.3c-2.1,0-3.3,1.2-3.3,2.7c0,1.5,1,2.2,2.5,3c1.3,0.7,1.8,1.2,1.8,2.1
		c0,1-0.6,1.6-1.5,1.6c-1.5,0-2.2-1.5-2.5-2.4l-0.5,0.1c0.1,0.7,0.3,2.1,0.4,2.4c0.7,0.2,1.5,0.5,2.4,0.5c2,0,3.4-1.2,3.4-2.9
		C157.8,86.1,156.9,85.4,155.3,84.6z"/>
	<path class="st2" d="M56.5,58.6v8c0,1.8-0.2,1.9-1.8,2v0.8h5.9c1.5,0,2.9-0.3,4-0.9c1.2-0.7,2-1.9,2-3.2c0-2-1.5-3-3.7-3.4
		c1.4-0.3,3-1.3,3-3.1c0-1-0.5-1.8-1.3-2.3c-0.8-0.5-1.8-0.7-3.4-0.7h-6.4v0.8C56.2,56.7,56.5,56.9,56.5,58.6z M63.5,65.6
		c0,1.9-1.1,3-2.3,3c-1.1,0-1.8-0.4-1.8-1.9v-4h0.7C62.4,62.6,63.5,63.5,63.5,65.6z M59.6,56.9c0.2-0.1,0.5-0.2,1-0.2
		c1.2,0,2.3,0.7,2.3,2.5c0,1.5-0.7,2.4-2.7,2.4h-0.8v-4C59.4,57.2,59.3,57.1,59.6,56.9z"/>
	<path class="st2" d="M75.2,69.7c4,0,7.1-2.8,7.1-7.3c0-4.1-3.2-7-7-7c-4.8,0-7.3,3.5-7.3,7.1C68,66.7,71,69.7,75.2,69.7z M75,56.4
		c2.4,0,4.1,2.5,4.1,6.6c0,3.8-1.5,5.8-3.5,5.8c-2.8,0-4.2-3-4.2-6.6C71.3,58.5,72.9,56.4,75,56.4z"/>
	<path class="st2" d="M85,62.6c0,4.1,2.8,7.1,7.7,7.1c1.7,0,4-0.5,5.1-0.7c-0.1-0.6-0.1-1.3-0.1-2v-1.6c0-1.4,0.1-1.5,1.3-1.7v-0.8
		h-6.3v0.8c1.8,0.2,2.1,0.4,2.1,1.8v1.8c0,0.6-0.2,1-0.5,1.2c-0.4,0.2-0.9,0.3-1.3,0.3c-3.4,0-4.7-2.9-4.7-6.6
		c0-3.6,1.9-5.8,4.4-5.8c0.5,0,1.3,0.1,1.8,0.3c1.3,0.4,2.1,1.3,2.6,3.1l0.8-0.1c-0.1-1.2-0.3-2.7-0.4-3.7c-0.7-0.1-2.5-0.5-4.2-0.5
		C88.8,55.5,85,57.9,85,62.6z"/>
	<path class="st2" d="M105.8,55.7l-4.4,10.8c-0.7,1.8-1,1.9-2.4,2.1v0.8h5.2v-0.8c-1.7-0.1-2.2-0.3-1.7-1.6c0.2-0.6,0.5-1.4,0.7-2.1
		h4.1c0.3,0.8,0.6,1.8,0.9,2.4c0.3,0.9,0.3,1.1-1,1.3v0.8h6.1v-0.8c-1.4-0.2-1.5-0.3-2.3-2.3c-1.4-3.5-2.8-7.2-4.1-10.9L105.8,55.7z
		 M103.6,63.9c0.5-1.5,1.1-2.9,1.7-4.4l1.6,4.4H103.6z"/>
	<path class="st2" d="M126.9,67.7c1.6-1.2,2.6-3.1,2.6-5.5c0-2.1-0.8-3.6-1.9-4.6c-1.3-1.3-3.3-1.8-6-1.8h-6.4v0.8
		c1.5,0.1,1.8,0.3,1.8,2.1v8c0,1.7-0.2,1.9-1.8,2.1v0.8h5.8C123.4,69.4,125.4,68.8,126.9,67.7z M119.9,66.5v-8.3c0-0.6,0-1,0.2-1.2
		c0.1-0.1,0.5-0.3,1.3-0.3c1.4,0,2.5,0.3,3.4,1.2c1,0.9,1.5,2.6,1.5,4.6c0,4-1.6,5.9-4.5,5.9C120.3,68.4,119.9,67.9,119.9,66.5z"/>
	<path class="st2" d="M131.3,62.6c0,4,3,7.1,7.2,7.1c4,0,7.1-2.8,7.1-7.3c0-4.1-3.2-7-7-7C133.9,55.5,131.3,59.1,131.3,62.6z
		 M142.4,63.1c0,3.8-1.5,5.8-3.5,5.8c-2.8,0-4.2-3-4.2-6.6c0-3.7,1.6-5.8,3.7-5.8C140.8,56.4,142.4,58.9,142.4,63.1z"/>
	<path class="st2" d="M149.2,59.5c0,2.2,1.4,3.2,3.6,4.4c1.8,0.9,2.5,1.7,2.5,2.9c0,1.3-0.8,2.1-2.1,2.1c-2.1,0-3.2-2.3-3.6-3.6
		l-0.8,0.2c0.1,1,0.5,3.2,0.6,3.6c1,0.3,2.2,0.6,3.5,0.6c3,0,5-1.8,5-4.3c0-2.1-1.4-3.2-3.7-4.3c-1.8-0.9-2.6-1.6-2.6-2.8
		c0-1.2,0.8-2,2-2c1.9,0,2.5,1.5,2.9,2.9l0.8-0.2c-0.2-1.3-0.3-2.4-0.4-3.2c-0.5-0.1-1.5-0.4-3-0.4
		C150.9,55.5,149.2,57.3,149.2,59.5z"/>
	<path class="st2" d="M29,68.5c0,0-2.9,0.2-2.4-1.8l7.7-22.6l0.8,2l-6.7,17.9c0,0-1.1,3.3,0.7,3.3h4.7v-1.1c0,0-2.9,0.2-2.4-1.8
		l5-14.7L43.2,68c0,0-0.1,0.7-0.9,0.8v0.8h9v-0.8c0,0-3.7-0.8-4.2-2.1l-11.5-29c0,0-0.8-1.5-1.5,0L23.6,66.3c0,0-1,1.9-2,2.2h-2.2
		v1.1H29V68.5z"/>
	<path class="st2" d="M51,67.5h5.2v-0.8c0,0-3.7-0.8-4.2-2.1l-11.5-29c0,0-0.8-1.5-1.5,0l-1.2,3.1l10.2,27.2
		C48.1,65.9,49,67.5,51,67.5z"/>
	<path class="st2" d="M99,78.7c2.3-0.6,3.2-2.7,3.2-2.8l-0.2-0.1c0,0-0.8,2.1-3.1,2.7c-2,0.5-4.3-1.1-4.7-1.5
		c0.3-0.4,2.1-1.9,2.9-2.2c1-0.4,1.9-0.4,2.3,0c0.1,0.1,0.1,0.2,0.1,0.3c0,0.1-0.2,0.3-0.3,0.3l-0.5,0.2h58.6v-0.2H99.7
		c0.1-0.1,0.1-0.2,0.1-0.3c0-0.2,0-0.3-0.2-0.5c-0.5-0.4-1.4-0.4-2.5,0c-0.5,0.2-1.4,0.9-1.9,1.3c-0.3,0.2-0.6,0.5-0.8,0.7
		c-0.1,0.1-0.2,0.2-0.3,0.3c-0.1-0.1-0.2-0.1-0.3-0.2c0.6-0.3,0.9-0.8,1-1.1c0.3-0.8,0-1.7-0.4-2c-0.2-0.2-0.3-0.2-0.5-0.1
		c-0.5,0.2-1.1,1-1.1,1.9c0,0.5,0.1,1,0.5,1.3c-0.1,0-0.2,0.1-0.4,0.1c-2.1,0.3-2.9-0.9-3.2-1.5l0.9-0.8h1.1l-1.4-1.1l-0.8,1.6
		l-0.4-0.6l0.7-1.2l-1.1-1.5v0l0,0l0,0v0l-1.1,1.5l0.7,1.2l-0.4,0.5L87,73.2l-1.4,1.1h1.1l0.9,0.8c-0.3,0.6-1.1,1.8-3.2,1.5
		c-0.1,0-0.3,0-0.4-0.1c0.3-0.4,0.5-0.8,0.5-1.3c0-0.9-0.6-1.7-1.1-1.9c-0.2-0.1-0.3,0-0.5,0.1c-0.4,0.4-0.6,1.2-0.4,2
		c0.1,0.4,0.4,0.9,1,1.1c-0.1,0.1-0.2,0.1-0.3,0.2c-0.1-0.1-0.1-0.1-0.3-0.3c-0.2-0.2-0.5-0.5-0.8-0.7c-0.5-0.4-1.4-1.1-1.9-1.3
		c-1.1-0.4-2-0.4-2.5,0c-0.2,0.1-0.2,0.3-0.2,0.5c0,0.1,0.1,0.2,0.1,0.3H20v0.2h58.6L78,75.2c-0.1,0-0.3-0.2-0.3-0.3
		c0-0.1,0-0.2,0.1-0.3c0.4-0.4,1.3-0.4,2.3,0c0.8,0.3,2.6,1.9,2.9,2.2c-0.4,0.4-2.7,2-4.7,1.5c-2.2-0.6-3.1-2.7-3.1-2.7L75,75.8
		c0,0.1,0.9,2.2,3.2,2.8c0.3,0.1,0.6,0.1,0.9,0.1c1.3,0,2.5-0.6,3.2-1.1c0,0,0.7-0.5,0.9-0.7c0.2-0.1,0.4-0.2,0.6-0.3
		c0.2,0.1,0.3,0.1,0.6,0.1c2.3,0.3,3.2-1.2,3.5-1.7h1.6c0.3,0.6,1.2,2.1,3.5,1.7c0.2,0,0.4-0.1,0.6-0.1c0.2,0.1,0.3,0.2,0.6,0.3
		c0.2,0.2,0.9,0.7,0.9,0.7c0.7,0.4,1.9,1.1,3.2,1.1C98.4,78.8,98.7,78.7,99,78.7z M83.8,76.4c-0.6-0.2-0.9-0.7-1-1
		c-0.2-0.7,0-1.5,0.3-1.8c0.1-0.1,0.1-0.1,0.2-0.1c0,0,0,0,0.1,0c0.4,0.1,0.9,0.9,0.9,1.7C84.3,75.6,84.2,76,83.8,76.4z M93,75.2
		c0-0.8,0.6-1.6,0.9-1.7c0,0,0,0,0.1,0c0.1,0,0.2,0.1,0.2,0.1c0.3,0.3,0.5,1.1,0.3,1.8c-0.1,0.4-0.4,0.8-1,1
		C93.1,76,93,75.6,93,75.2z"/>
</g>
</svg>
