<?xml version="1.0" encoding="utf-8"?>
<!-- Generator: Adobe Illustrator 27.0.1, SVG Export Plug-In . SVG Version: 6.00 Build 0)  -->
<svg version="1.1" id="Capa_1" xmlns="http://www.w3.org/2000/svg" xmlns:xlink="http://www.w3.org/1999/xlink" x="0px" y="0px"
	 viewBox="0 0 177.4 125.4" style="enable-background:new 0 0 177.4 125.4;" xml:space="preserve">
<style type="text/css">
	.st0{opacity:0.48;fill:#FFFFFF;}
	.st1{opacity:0.66;fill:#FFFFFF;}
	.st2{fill:#FFFFFF;}
	.st3{opacity:0.74;fill:#FFFFFF;}
	.st4{fill-rule:evenodd;clip-rule:evenodd;fill:#FFFFFF;}
	.st5{fill:#1D2A4C;}
</style>
<g>
	<path class="st2" d="M115.1,62.8c0.1,12.7-9.6,25.9-26.3,25.9c-14.5,0-25.7-11.5-25.6-26c0-15.3,12.5-26.1,26.3-26
		C103.5,36.9,115.1,48.5,115.1,62.8z M106.4,76.6c6.1-5.9,6.7-18.1,1.3-26.1c-6.3-9.4-18.1-12.6-28.7-7.9
		C71.7,45.9,65.6,55.3,67.1,61c0,0,0.1,0,0.1,0c0.4-0.3,0.7-0.7,1.1-1c4.6-4.3,9.8-7.7,16-9.2c3.1-0.8,6.2-0.8,9.3,0.2
		c0.9,0.3,1.5,0.8,1.4,1.8c-0.1,1.1-0.7,1.7-1.8,1.9c-0.2,0-0.5,0-0.7,0c-3.1,0.3-5.8,1.5-7.8,3.9c-3,3.6-1.6,8.6,2.7,9.5
		c1.6,0.3,2.4-0.2,2.7-1.9c0.6-3.9,3-6,6.7-6.9c3.2-0.8,7.2,1.5,8.2,4.5c0.4,1.2,0,2.6-1,2.9c-1.3,0.4-1.9-0.3-2.4-1.3
		c-0.1-0.3-0.3-0.5-0.4-0.8c-0.8-1.7-2.2-2.1-3.9-2.1c-1.7,0-2.5,1.2-3.1,2.5c-0.6,1.4-0.6,2.9,0.6,4.1c1.4,1.5,3.1,2.5,5.1,3
		C102.4,72.8,105,73.7,106.4,76.6z M82.8,54.9c-0.1-0.1-0.1-0.2-0.2-0.3c-1.4,0.8-2.9,1.5-4.3,2.4c-4,2.5-7.3,5.8-9.7,9.9
		c-0.5,0.8-0.9,2-0.6,2.9C70.2,78.5,78.9,85,88,85c1.6,0,1.7-0.3,1.5-1.8c-0.2-1-0.4-2-0.3-2.9c0.1-0.7,0.8-1.6,1.4-1.7
		c0.6-0.1,1.5,0.4,2.1,0.9c0.5,0.4,0.6,1.2,0.9,1.8c1,2.4,2.5,3.1,4.9,2c0.6-0.3,1.2-0.6,1.8-1c1.9-1.3,2.1-2.9,0.4-4.5
		c-0.6-0.6-1.5-1.2-2.3-1.6c-1.1-0.6-2.4-1-3.4-1.8c-1.9-1.5-3.9-1.9-6.3-1.9c-4.4,0-8-2.7-9.1-6.6c-0.9-3.3-0.5-6.3,1.6-9
		C81.8,56.2,82.3,55.5,82.8,54.9z"/>
	<path class="st2" d="M80.5,22.1c1.9,0,3.4,1.6,3.4,3.5c0,1.9-1.7,3.4-3.7,3.4c-1.9,0-3.4-1.6-3.3-3.6C77,23.5,78.6,22,80.5,22.1z
		 M82.4,25.7c0-1.4-0.9-2.5-2-2.5c-1.2,0-2,0.8-2.1,2c0,1.5,0.9,2.5,2.1,2.5C81.7,27.8,82.4,27,82.4,25.7z"/>
	<path class="st2" d="M66.1,28c0.8-0.5,1.5-1,2.4-1.3c0.7-0.2,1.7-0.4,2.3-0.1c0.5,0.3,0.6,1.3,0.8,1.8c0.6,0.7,1.5,1.2,1.6,1.9
		c0.1,0.6-0.6,1.5-1.1,2c-0.7,0.6-1.6,1-2.5,1.5C68.3,31.9,67.2,30,66.1,28z M70.3,32.5c0.6-0.8,1.1-1.3,1.5-1.8
		c0.1-0.1-0.4-0.8-0.5-0.7c-0.7,0.1-1.3,0.3-2.1,0.6C69.6,31.2,69.8,31.6,70.3,32.5z M68.9,29.9c0.5-0.6,1-1,1.3-1.6
		c0.1-0.1-0.4-0.9-0.6-0.8c-0.6,0.1-1.2,0.4-1.9,0.6C68.2,28.8,68.5,29.3,68.9,29.9z"/>
	<path class="st2" d="M61.2,41c-0.9-1.9-1.8-3.7-2.6-5.6c-0.2-0.5,0.2-1.2,0.4-1.9c2.5,1,4.6,1.9,6.7,2.8c0,0.1,0.1,0.3,0.1,0.4
		c-0.5,0.2-1,0.5-1.4,0.5c-1.6-0.3-2.8,0.9-2.4,2.5c0.1,0.5-0.2,1-0.3,1.5C61.5,41.1,61.4,41,61.2,41z M60.1,35.2
		c-0.1,0.1-0.2,0.2-0.3,0.3c0.4,0.8,0.8,1.5,1.3,2.5c0.5-0.6,0.9-1,1.4-1.5C61.6,35.9,60.9,35.5,60.1,35.2z"/>
	<path class="st2" d="M127.3,45.5c-0.8,0.3-0.8,0.3-2.3-1.8c-0.2,0.1-0.5,0.2-0.7,0.3c-0.2,0.1-0.4,0.2-0.5,0.3
		c-0.4,0.9,1.5,1.5,0,2.4c-0.4-0.6-0.7-1.1-1.2-1.8c-0.5,0.3-1,0.5-1.5,0.8c0.3,0.7,0.7,1.2,0.9,1.8c0.1,0.3-0.1,0.6-0.1,1
		c-0.3-0.1-0.6-0.2-0.8-0.4c-0.6-1-1.1-2-1.6-3.1c1.9-1,3.8-2,5.9-3.1C125.9,43,126.6,44.2,127.3,45.5z"/>
	<path class="st2" d="M88.7,26.6c0.4,0,0.9,0.1,1.3,0.1c0.6,0,1.2-0.2,1.8-0.2c-0.3-0.4-0.6-1.1-1-1.3c-1.6-0.8-2.1-1.4-1.6-2.6
		c0.4-1.2,1.8-1.7,3.2-1.1c0.3,0.1,0.5,0.6,0.8,0.8c-0.4,0.1-0.7,0.2-1.1,0.2c-0.2,0-0.4-0.2-0.6-0.1c-0.4,0.1-0.7,0.3-1.1,0.5
		c0.2,0.3,0.3,0.7,0.6,0.9c0.2,0.2,0.6,0.3,0.9,0.4c0.9,0.4,1.5,1,1.3,2c-0.2,1.1-0.8,1.7-1.9,1.7c-0.9,0-1.8-0.3-2.7-0.5
		C88.7,27.1,88.7,26.9,88.7,26.6z"/>
	<path class="st2" d="M54.2,41.6c-0.3,0.7-0.3,1.2-0.6,1.5c-0.7,0.7-1.2,1.7-0.6,2.5c0.6,0.7,1.6,1.3,2.5,1.4
		c1.1,0.1,1.6-0.9,1.8-1.9c0.1-0.3,0.3-0.6,0.6-1.1c0.8,1.7,0.1,3.5-1.4,4.3c-1.6,0.7-3.8-0.1-4.6-1.8
		C51.1,44.7,51.9,42.7,54.2,41.6z"/>
	<path class="st2" d="M110.4,30.4c1.4,0,2.3-2.4,4.1-0.7c-2,1.3-4.5,1.7-5.5,4.3c-0.5-0.3-0.8-0.5-1.2-0.8c0.2,0,0.3,0,0.5,0
		c0.5-2.2,0.9-4.4,1.4-6.5C110.4,26.9,110.4,26.9,110.4,30.4z"/>
	<path class="st2" d="M103.8,24.9c-0.5-0.1-1-0.2-1.7-0.4c-0.6,1.7-1.1,3.4-1.7,5.2c-0.5-0.2-0.8-0.3-1.3-0.4
		c0.5-1.8,1.1-3.4,1.6-5.2c-0.6-0.3-1.1-0.5-2.1-0.9c0.6-0.3,1.1-0.7,1.3-0.6c1.4,0.6,3.1,0.6,4.3,1.6
		C104.1,24.4,104,24.6,103.8,24.9z"/>
	<path class="st2" d="M116.8,41.2c-0.9-1.1-1.7-2-2.6-3c1.6-1.5,3.2-2.9,4.9-4.4c0.3,0.3,0.6,0.6,1,0.9c-1.4,1.3-2.7,2.5-3.9,3.6
		C115.8,39.5,118.3,39.7,116.8,41.2z"/>
	<path class="st2" d="M119.7,88c-0.5-1.3-0.9-2.5-1.3-3.7c0.2-0.1,0.4-0.2,0.5-0.2c1.2,1,2.4,2,3.7,3c-0.1,0.1-0.2,0.3-0.3,0.4
		c-0.9-0.6-1.7-1.2-2.9-2.1c0.5,1.3,0.9,2.3,1.3,3.5c-1.2-0.2-2.2-0.3-3.2-0.5c-0.1,0.1-0.1,0.2-0.2,0.3c0.8,0.7,1.6,1.4,2.4,2.1
		c-0.1,0.1-0.2,0.3-0.4,0.4c-1.2-1-2.5-2-3.9-3.1C117,87.1,118.3,88.4,119.7,88z"/>
	<path class="st2" d="M71.7,101c-0.3-1.5-0.6-2.9-1-4.7c-0.7,1.2-1.2,2.1-1.7,3c-0.2-0.1-0.3-0.2-0.5-0.3c0.7-1.4,1.4-2.8,2.1-4.2
		c0.1,0,0.3,0,0.4,0c0.3,1.4,0.6,2.8,1,4.5c0.7-1.2,1.2-2.1,1.7-3C74.1,97.1,73.1,99.4,71.7,101z"/>
	<path class="st2" d="M126.3,75.7c0.5,0.7,0.9,1.5,1.4,2.2c-0.1,0.1-0.2,0.3-0.4,0.4c-0.9-1.9-2.3-2.7-4.4-1.6c0-0.2,0-0.4,0-0.6
		c0.7-0.3,1.4-0.6,2.2-0.9c-0.4-0.7-0.8-1.4-1.3-2c0.1-0.2,0.2-0.3,0.3-0.5c0.9,2.4,2.6,2.3,4.5,1.5c0,0.2,0,0.4,0.1,0.5
		C128,75.1,127.1,75.4,126.3,75.7z"/>
	<path class="st2" d="M53.6,73.9c-0.2-0.6-0.4-1.3-0.7-2c-0.5,0.1-0.9,0.2-1.3,0.3c0.1,0.6,0.1,1.2,0.2,1.7c-0.1,0-0.2,0.1-0.2,0.1
		c-0.2-0.5-0.4-1-0.7-1.6c-0.5,0.1-0.9,0.3-1.4,0.4c0.2,0.8,0.3,1.4,0.4,2c-0.1,0-0.3,0.1-0.4,0.1c-0.3-0.9-0.5-1.8-0.8-2.8
		c1.6-0.4,3.1-0.8,4.7-1.3c0.3,1,0.5,1.9,0.7,2.9C53.9,73.9,53.8,73.9,53.6,73.9z"/>
	<path class="st2" d="M122.2,79.2c-0.3,0.6-0.5,1.2-0.9,1.9c0.4,0.2,0.8,0.5,1.2,0.7c0.4-0.5,0.7-1,1-1.4c0.1,0,0.2,0.1,0.3,0.1
		c-0.2,0.5-0.4,1-0.6,1.6c0.4,0.2,0.7,0.4,1.2,0.7c0.5-0.7,0.9-1.3,1.3-1.9c0.1,0.1,0.2,0.1,0.4,0.2c-0.5,0.9-0.9,1.7-1.4,2.6
		c-1.5-0.8-2.8-1.5-4.3-2.3c0.5-0.9,0.9-1.7,1.4-2.6C122,79.1,122.1,79.1,122.2,79.2z"/>
	<path class="st2" d="M83.7,102.1c0,0.5,0,0.9-0.1,1.3c0.7,0.1,1.4,0.3,2,0.4c0,0.1,0,0.3-0.1,0.4c-0.9-0.1-1.8-0.1-2.9-0.2
		c0.2-1.7,0.4-3.2,0.6-4.9c1.1,0.1,2,0.3,2.9,0.4c0,0.1,0,0.2,0,0.4c-0.6,0-1.2,0-2,0c-0.1,0.4-0.2,0.8-0.4,1.3
		c0.7,0.2,1.2,0.3,1.7,0.5c0,0.1,0,0.2,0,0.3C84.9,102,84.4,102,83.7,102.1z"/>
	<path class="st2" d="M79.1,102.7c-1,0.5-2.3,0.2-2.9-1c-0.6-1.1,0-2.8,1.2-3.4c1.2-0.6,2.5-0.1,2.8,0.7c-0.9,0-1.9-0.1-2.7,0.2
		c-0.4,0.2-0.8,1.6-0.5,2C77.3,102,78.3,102.3,79.1,102.7z"/>
	<path class="st2" d="M60.3,91.7c0.1,0.1,0.2,0.2,0.3,0.3c0.5,0.3,1,0.7,1.5,1c0-0.6,0-1.1,0-1.7c0-0.5-0.1-1.2,0.1-1.6
		c0.2-0.3,1.1-0.5,1.4-0.3c0.5,0.3,0.9,0.9,1.5,1.6c-0.5,0-0.6,0-0.6,0c-0.5-0.3-1.1-0.7-1.6-1c0.1,0.6,0.2,1.2,0.2,1.8
		c0,0.6-0.1,1.3-0.5,1.6c-0.4,0.3-1.2,0.2-1.7-0.1c-0.5-0.3-0.7-0.9-1-1.4C60,91.9,60.1,91.8,60.3,91.7z"/>
	<path class="st2" d="M99.9,102.9c0.3-0.8,0.5-1.4,0.8-2.2c-1.3,0.4-2.3,0.2-2.4-1.1c-0.1-1,0.6-1.6,1.5-1.6c0.5,0,1.1,0.3,1.4,0.6
		C102,99.5,101.2,102.1,99.9,102.9z M99.8,100.7c0.4-0.6,0.9-0.9,0.9-1.3c0-0.3-0.5-0.9-0.8-0.9c-0.3,0-0.9,0.5-0.9,0.9
		C99,99.7,99.4,100.1,99.8,100.7z"/>
	<path class="st2" d="M51.3,78.1c0,0.2,0,0.4,0.1,0.5c0.3,0.4,0.6,0.9,0.9,1.3c0.2-0.5,0.5-0.9,0.7-1.4c0.2-0.5,0.3-1.2,0.7-1.6
		c0.2-0.2,1.1-0.1,1.4,0.2c0.4,0.4,0.5,1.2,0.9,2.1c-0.5-0.2-0.7-0.3-0.7-0.3c-0.4-0.5-0.7-1-1.1-1.5c-0.2,0.6-0.3,1.1-0.5,1.6
		c-0.2,0.5-0.5,1.1-0.9,1.3c-0.4,0.2-1.2,0-1.4-0.3c-0.4-0.5-0.5-1.3-0.7-1.9C50.9,78.1,51.1,78.1,51.3,78.1z"/>
	<path class="st2" d="M106,100.9c0.2-1,0.3-1.7,0.5-2.5c-0.3,0.1-0.5,0.3-0.7,0.2c-0.6-0.2-1.7-0.4-1.7-0.7
		c-0.1-0.6,0.2-1.5,0.7-1.9c0.7-0.6,1.5-0.3,2,0.5C107.5,97.3,107.2,99.5,106,100.9z M106.8,97.2c-0.6-0.4-0.9-0.9-1.2-0.9
		c-0.3,0-0.9,0.5-0.9,0.8c0,0.3,0.5,0.9,0.8,0.9C105.8,98.1,106.2,97.6,106.8,97.2z"/>
	<path class="st2" d="M110,94.3c1.1,0.2,2,0.1,2.7,0.5c0.3,0.2,0.4,1.2,0.2,1.7c-0.3,0.8-0.9,1.3-2.1,1c0.8-0.6,2.3-0.8,1.4-2.1
		c-0.3-0.4-1.3-0.1-2-0.2c-0.1,0.2-0.1,0.4-0.2,0.5c-0.3-0.7-0.7-1.3-1-2.1c0.6-0.5,1.2-0.9,1.8-1.3c0.1,0.1,0.2,0.2,0.3,0.2
		c-0.3,0.3-0.7,0.6-0.9,1C110,93.9,110,94.3,110,94.3z"/>
	<path class="st2" d="M58.7,84.6c-0.2-0.4-0.5-0.8-0.7-1.3c-1.4,0.8-2.6,1.5-3.8,2.2c-0.1-0.2-0.2-0.3-0.3-0.5
		c1.1-0.8,2.3-1.6,3.5-2.4c-0.2-0.5-0.4-0.9-0.6-1.3c0.1-0.1,0.3-0.2,0.4-0.2c0.7,1,1.3,2,2,3.1C59,84.3,58.9,84.5,58.7,84.6z"/>
	<path class="st2" d="M96.1,103.8c-1.1,0.1-1.8,0.3-3.1,0.4c1.9-1.2,0.7-2.5,0.8-3.9c-0.5,0.2-0.7,0.4-1,0.5
		c-0.1-0.1-0.2-0.2-0.2-0.2c0.5-0.5,0.9-1,1.4-1.6C95.3,100.5,93.9,102.8,96.1,103.8z"/>
	<path class="st2" d="M68.1,92.9c-1.1,1.5-2,2.7-3,4.2C64.9,95.7,66.9,93,68.1,92.9z"/>
	<path class="st2" d="M51.3,61.1c-0.4-0.6-0.9-0.9-0.9-1.2c0-0.4,0.5-0.7,0.8-1c0.4,0.3,0.9,0.6,1,1C52.3,60,51.8,60.5,51.3,61.1z"
		/>
	<path class="st2" d="M128.1,58.8c-0.5,0.5-0.9,1-1.2,1c-0.3,0-0.9-0.5-0.9-0.8c0-0.3,0.5-0.9,0.8-0.9
		C127.1,58,127.5,58.4,128.1,58.8z"/>
</g>
</svg>
