<?xml version="1.0" encoding="UTF-8"?>
<svg id="Capa_21" data-name="Capa 21" xmlns="http://www.w3.org/2000/svg" viewBox="0 0 177.4 125.4">
  <defs>
    <style>
      .cls-1 {
        fill: #fff;
        stroke-width: 0px;
      }
    </style>
  </defs>
  <path class="cls-1" d="M34.74,53.13c4.17,1.4,6.94,5.29,6.87,9.65-.05,2.73-1.28,5.37-3.31,7.19-1.36,1.22-3.11,2.03-4.89,2.45-1.28.3-2.59.32-3.87-.02s-2.41-.99-3.49-1.69c-1.19-.77-2.11-1.84-2.83-3.05-.78-1.31-1.4-2.71-1.56-4.24-.06-.6-.07-1.21,0-1.81.29-2.75,2.06-5.6,4.34-7.15.84-.57,1.73-1.12,2.72-1.35,3.2-.74,5.65-.1,6.02.02ZM40.31,62.93c-.06-.65-.06-1.32-.18-1.96-.9-4.71-5.36-7.67-10.19-6.8-2.51.45-4.82,2.02-5.98,4.32-.44.87-.86,1.96-.52,2.92.77-.26,1.42-.75,2.09-1.2s1.37-.94,2.1-1.35c1.24-.7,2.61-1.08,4.06-1.03.49.02,1,.09,1.45.26.25.1.54.43.56.68.01.19-.36.43-.6.59-.16.1-.39.09-.58.14-1.19.27-2.21.79-2.84,1.89-.66,1.14-.3,2.52.8,3.08.77.39,1.36.16,1.66-.64.08-.21.13-.42.21-.62.77-1.96,3.32-2.54,4.75-1.04.28.29.43.74.54,1.15.04.15-.17.47-.34.54-.17.07-.45-.04-.63-.16-.17-.11-.27-.34-.41-.51-.59-.79-1.54-.97-2.2-.41-.76.63-.81,1.71-.13,2.43.56.6,1.3.85,2.05,1.12.61.22,1.22.5,1.75.87.7.49.93.51,1.41-.2.81-1.23,1.15-2.59,1.19-4.06ZM31.84,70c-.06-.73.08-1.14.46-1.22.63-.13.84.37,1.02.79.57,1.31,1.52,1.19,2.43.67.99-.56,1.14-1.45.21-2.08-1.31-.89-2.58-1.88-4.34-1.91-1.89-.03-3.19-1.16-3.53-2.8-.12-.6-.12-1.22.03-1.81.14-.55.49-1,.56-1.58,0-.02,0-.05-.01-.07-.02-.02-.05-.02-.08-.02-.53.02-.92.28-1.35.56-.46.3-.9.63-1.31,1-.82.73-1.52,1.6-2.1,2.54-.33.54-.36,1.08-.15,1.68,1.05,3,3.87,5.16,7.06,5.39.96.07,1.18-.15,1.1-1.13Z"/>
  <path class="cls-1" d="M76.09,62.67c0-1.39,0-2.78,0-4.16,0-.59.21-.86.76-.86,1.47,0,2.94-.02,4.4.1,1.33.11,2.16.88,2.4,1.99.19.87-.03,1.61-.69,2.24-.46.43-.47.74.06,1.06,1.25.77,1.16,2.6.31,3.58-.66.77-1.53,1.15-2.51,1.21-1.3.07-2.6.05-3.91.04-.61,0-.82-.26-.82-.92-.01-1.42,0-2.85,0-4.27,0,0,0,0,0,0ZM79.71,66.23c.31-.04.62-.05.92-.12.69-.17,1.13-.75,1.08-1.39-.05-.62-.54-1.09-1.24-1.17-.38-.04-.77-.07-1.15-.05-.66.02-.88.25-.93.89-.01.18-.01.36,0,.55.02,1.12.2,1.29,1.34,1.3ZM78.37,60.63c0,.93.12,1.27.66,1.3.57.03,1.16-.05,1.71-.21.47-.14.69-.56.7-1.07,0-.93-.6-1.35-1.96-1.36-.89,0-1.1.25-1.1,1.34Z"/>
  <path class="cls-1" d="M93.4,67.94c-3.11,0-5.34-2.15-5.35-5.18-.01-3,2.26-5.23,5.31-5.23,3.08,0,5.3,2.19,5.31,5.22,0,3.01-2.2,5.18-5.27,5.18ZM90.4,62.87c0,.12.01.36.04.6.18,1.48,1.29,2.54,2.73,2.61,1.55.08,2.77-.78,3.04-2.28.13-.7.12-1.47-.01-2.17-.3-1.59-1.8-2.51-3.39-2.2-1.55.3-2.41,1.5-2.4,3.44Z"/>
  <path class="cls-1" d="M70.8,67.88c-.87-.02-1.19-.2-1.47-1.03-.34-1.01-.4-1.33-1.93-1.29-.49.01-.99.01-1.49,0-.67-.02-1.13.24-1.34.9-.03.1-.08.2-.12.31-.4,1-.76,1.22-1.85,1.11-.57-.06-.73-.26-.53-.8.38-1.05.78-2.09,1.18-3.13.69-1.81,1.41-3.6,2.08-5.42.23-.62.61-.93,1.27-.89.24.01.48,0,.72,0,.5,0,.84.23,1.01.69,1.11,2.88,2.22,5.76,3.31,8.64.27.71.04.93-.84.91ZM66.88,64.07h0c.11,0,.22,0,.33,0,.86-.02,1.08-.34.8-1.15-.23-.67-.47-1.34-.73-2-.07-.16-.26-.38-.39-.38-.14,0-.34.21-.41.37-.26.64-.49,1.29-.72,1.95-.3.87-.09,1.17.85,1.21.09,0,.18,0,.27,0Z"/>
  <path class="cls-1" d="M149.29,62.75c0-1.37,0-2.74,0-4.11,0-.8.22-1.01,1.02-1.01,1.52,0,3.05,0,4.57,0,.67,0,.91.25.91.83,0,.55-.24.79-.82.81-.72.02-1.43,0-2.15,0-1.08,0-1.27.2-1.27,1.29,0,.02,0,.04,0,.05,0,1.09.18,1.27,1.27,1.28.39,0,.77-.01,1.16,0,.56.03.8.29.79.83,0,.54-.24.79-.81.82-.48.02-.96,0-1.43.02-.7.03-.94.29-.98.98-.07,1.49.1,1.67,1.61,1.67.59,0,1.18-.02,1.76,0,.62.02.86.27.86.82,0,.57-.23.81-.86.82-1.6.02-3.19.01-4.79,0-.63,0-.85-.25-.85-.95-.01-1.39,0-2.78,0-4.17h0Z"/>
  <path class="cls-1" d="M105.99,67.97c-.98-.04-1.89-.3-2.72-.81-.38-.23-.61-.53-.37-1,.28-.56.69-.82,1.17-.67.31.1.59.32.9.39.51.11,1.04.24,1.54.19.52-.05.9-.43.97-.98.07-.57-.26-.96-.74-1.17-.57-.25-1.17-.42-1.76-.63-1.37-.5-2.03-1.4-2.01-2.75.02-1.26.65-2.18,1.78-2.67,1.31-.56,2.66-.46,3.94.18.57.28.7.61.48,1.1-.27.61-.67.78-1.28.56-.38-.13-.75-.32-1.15-.37-.33-.04-.71,0-1.01.14-.74.34-.8,1.22-.12,1.67.35.23.76.37,1.14.52.3.12.63.2.93.33,1.52.67,2.08,1.55,1.93,3.01-.14,1.38-1.15,2.5-2.56,2.81-.36.08-.72.1-1.09.14Z"/>
  <path class="cls-1" d="M54.96,67.93c-4.09.1-5.74-3.86-4.78-6.94,1.15-3.7,5.26-4.09,7.44-2.78.74.44.78,1.07.07,1.56-.23.15-.62.15-.91.1-.39-.07-.74-.32-1.13-.41-1.26-.3-2.46.29-3.01,1.46-.46.98-.52,2.02-.22,3.05.56,1.91,2.49,2.67,4.26,1.72.44-.24.84-.34,1.26.04.51.47.51.9-.05,1.32-.88.66-1.89.94-2.94.89Z"/>
  <path class="cls-1" d="M128.66,65.79c.19-1.23-.25-2.28-.89-3.31-.8-1.29-1.53-2.62-2.28-3.94-.37-.65-.22-.85.53-.92,1-.1,1.64.27,2.02,1.2.34.83.76,1.62,1.18,2.41.12.22.37.46.58.49.15.02.41-.27.52-.48.45-.86.85-1.74,1.28-2.61.45-.92,1.31-1.28,2.29-.98.39.12.42.38.26.69-.24.45-.51.89-.76,1.33-.65,1.12-1.29,2.25-1.96,3.36-.39.65-.6,1.32-.56,2.08.03.6.01,1.21,0,1.81-.01.74-.21.93-.96.95-.16,0-.33,0-.5,0-.49-.01-.74-.28-.75-.76-.01-.44,0-.88,0-1.32Z"/>
  <path class="cls-1" d="M116.46,63.65c0-1.1,0-2.19,0-3.29,0-.75-.24-.97-.99-1-.4-.01-.81.01-1.21-.03-.52-.05-.71-.35-.68-.93.02-.48.25-.76.74-.77,2.18,0,4.37-.01,6.55,0,.54,0,.75.26.76.8.01.59-.18.85-.73.9-.38.03-.77.01-1.15.02-.73.02-.99.27-1,1.01-.01,1.94,0,3.87,0,5.81,0,.11,0,.22,0,.33,0,1.28-.21,1.47-1.48,1.36-.6-.05-.81-.25-.81-.87-.01-1.11,0-2.23,0-3.34h0Z"/>
  <path class="cls-1" d="M138.71,62.71c0-1.35,0-2.7,0-4.06,0-.37-.02-.85.42-.91.52-.08,1.07-.01,1.59.11.13.03.21.51.22.79.02,1.96.02,3.91.02,5.87,0,.26,0,.51.02.77.06.58.28.82.88.84.68.03,1.36,0,2.04.02.65.02.88.25.89.85,0,.64-.22.88-.9.89-1.4.01-2.79.01-4.19,0-.75,0-.97-.23-.98-1-.01-1.39,0-2.78,0-4.17h0Z"/>
</svg>