<?xml version="1.0" encoding="UTF-8"?>
<svg id="Capa_6" data-name="Capa 6" xmlns="http://www.w3.org/2000/svg" viewBox="0 0 177.4 125.4">
  <defs>
    <style>
      .cls-1 {
        fill: #fff;
        stroke-width: 0px;
      }
    </style>
  </defs>
  <path class="cls-1" d="M79.52,91.62c-.96,0-1.81,0-2.65,0-17.84,0-35.68,0-53.53,0-.09,0-.19,0-.28,0q-1.43-.01-1.44-1.39c0-.85,0-1.7,0-2.55,0-17.56,0-35.12,0-52.68,0-.37-.09-.75.17-1.23h57.73v57.85ZM22.81,34.86v55.61h55.66c.35-4.55.19-54.71-.17-55.83-2.53-.29-53.78-.1-55.48.21Z"/>
  <path class="cls-1" d="M124.6,50.74c1.44,2.88,2.88,5.76,4.41,8.82,1.51-3.04,2.93-5.9,4.36-8.77.09.02.17.04.26.05.55,4.1,1.1,8.2,1.67,12.5.59-.62.74-1.22.96-1.76,1.17-2.88,2.33-5.76,3.49-8.64.04-.09.1-.17.11-.26.07-.48.36-.83.81-.84.46-.01.67.39.84.82,1.07,2.71,2.17,5.4,3.26,8.1.38.95.75,1.9,1.13,2.86-1.89.47-1.97.42-2.62-1.28-.25-.66-.54-1.3-.82-1.98-1.15-.15-2.27-.09-3.5-.07-.47,1.16-.95,2.32-1.45,3.54-1.37,0-2.72.21-4.18.06-.27-2-.53-3.99-.84-6.3-1.21,2.32-2.29,4.38-3.47,6.65-1.17-2.23-2.25-4.3-3.42-6.54-.56,2.15-.5,4.19-.94,6.16-.64.16-1.24.13-2,.04.58-4.41,1.16-8.76,1.74-13.11.07-.01.14-.03.2-.04ZM141.7,58.23c-.47-.76-.48-1.55-1.03-2.13-.33.69-.68,1.34-.84,2.09.56.19,1.11.1,1.87.04Z"/>
  <path class="cls-1" d="M146.75,51.22c1.03,0,2.01-.06,2.99.01,1.56.12,2.76,1.14,2.96,2.39.34,2.07-.15,3.07-1.91,3.9-.12.06-.23.14-.46.27,1.24,2.09,2.91,3.87,4.13,6.01-2.21.29-3.02-.13-3.95-2.03-.45-.92-1.04-1.72-1.89-2.69.02,1.74-.39,3.21.04,4.74-.59.21-1.18.11-1.9.08v-12.69ZM148.61,55.8c1.87-.07,2.25-.3,2.23-1.24-.02-1.07-.49-1.36-2.17-1.33-.16.82-.07,1.65-.06,2.58Z"/>
  <path class="cls-1" d="M108.68,63.81c-.76.06-1.36.16-2.13-.05,1.73-4.28,3.45-8.53,5.31-13.12,1.82,4.5,3.51,8.7,5.21,12.91-1.65.57-1.96.44-2.52-.92-.3-.74-.61-1.48-.94-2.28-.98-.17-1.96-.03-2.94-.07-.56-.02-.7.35-.86.76-.36.92-.74,1.83-1.12,2.77ZM111.79,56.05c-.29.78-.71,1.41-.79,2.22.63.02,1.17.11,1.75-.11-.29-.71-.41-1.45-.97-2.12Z"/>
  <path class="cls-1" d="M90.21,56.16c.21.64.19,1.18.02,1.83h-3.54c-.26,1.26-.09,2.42-.14,3.74h4.25c.21.71.09,1.26.13,1.91h-6.17v-12.35h6.04c.25.48.11,1.02.07,1.64-1.4.34-2.83-.1-4.24.28-.18.92-.05,1.8-.07,2.74,1.22.28,2.4,0,3.65.21Z"/>
  <path class="cls-1" d="M101.49,63.92v-12.73c1.41-.26,2.8-.23,4.14.29,1.44.55,2.07,1.72,1.94,3.41-.11,1.5-.88,2.47-2.3,2.87-.58.16-1.17.3-1.87.27v5.72c-.66.34-1.25.17-1.91.18ZM103.45,53.11v2.82c1.52.08,2.06-.22,2.1-1.21.04-.87-.22-1.65-2.1-1.6Z"/>
  <path class="cls-1" d="M94.43,51.21v10.39c.89.32,1.72-.04,2.52.3.2.58.2,1.17-.01,1.8h-4.36v-12.42c.53-.21,1.13.13,1.62-.33.08.09.16.17.23.26Z"/>
  <path class="cls-1" d="M119.73,61.96h2.41c.27.61.25,1.12.15,1.75h-4.39v-12.55c.59-.04,1.14-.11,1.83.08v10.72Z"/>
  <path class="cls-1" d="M95.29,72.06v-4.87c2.08-.52,2.19,1.46,3.25,2.31.69-.63.03-1.61.38-2.39.4-.18.8-.13,1.28.07v4.88c-2.24.54-2.16-1.86-3.53-2.59v2.46c-.5.31-.87.23-1.38.12Z"/>
  <path class="cls-1" d="M123.03,69.57c0,1.61-1.16,2.73-2.77,2.7-1.46-.03-2.66-1.28-2.65-2.73.01-1.44,1.27-2.64,2.75-2.63,1.54.01,2.68,1.15,2.67,2.67ZM121.57,69.53c-.02-.83-.57-1.38-1.32-1.32-.64.05-1.18.68-1.18,1.37,0,.75.63,1.43,1.3,1.42.69,0,1.22-.65,1.2-1.46Z"/>
  <path class="cls-1" d="M145.96,69.55c0,1.6-1.04,2.67-2.62,2.7-1.57.02-2.81-1.2-2.78-2.74.03-1.44,1.27-2.61,2.77-2.63,1.45-.02,2.63,1.18,2.64,2.67ZM144.52,69.55c-.02-.82-.56-1.39-1.28-1.35-.69.04-1.27.71-1.24,1.43.03.75.66,1.39,1.32,1.37.68-.02,1.22-.67,1.19-1.45Z"/>
  <path class="cls-1" d="M132.47,72.11v-4.95c.88-.27,1.77-.2,2.64-.06.91.15,1.34.78.98,1.62-.23.54-.05.81.16,1.24.48.96.08,1.64-.98,2-.88.31-1.76.2-2.81.14ZM135.07,70.46c-.36-.55-.81-.62-1.23-.3-.2.15-.21.61.04.74.43.22.9.16,1.19-.44ZM134.89,68.54c-.4-.35-.69-.76-1.09-.27-.13.16-.15.5.05.62.39.25.74.12,1.05-.36Z"/>
  <path class="cls-1" d="M94.42,69.59c.01,1.55-1.09,2.66-2.65,2.68-1.48.01-2.73-1.17-2.76-2.62-.04-1.49,1.27-2.79,2.77-2.77,1.53.02,2.63,1.15,2.64,2.71ZM92.95,69.54c-.03-.86-.55-1.38-1.31-1.32-.65.05-1.19.67-1.18,1.36,0,.76.62,1.43,1.3,1.43.69,0,1.22-.65,1.19-1.47Z"/>
  <path class="cls-1" d="M151.25,67.17c.5-.16.86-.16,1.24-.06.43.45-.02,1.08.35,1.65.77-.86,1.18-2.35,2.89-1.6-.55.76-1.1,1.5-1.67,2.28.38.99,1.38,1.55,1.73,2.59-.41.13-.79.25-1.18.38-.76-.5-1.11-1.37-1.88-2.1-.04.62-.07,1.11-.1,1.6-.34.42-.78.17-1.33.29-.17-1.7-.05-3.33-.06-5.03Z"/>
  <path class="cls-1" d="M105.7,71.94v-4.77c.57-.21,1.09-.11,1.6-.12.81-.01,1.68-.02,2,.93.29.87.13,1.68-.8,2.11.18.77.92,1.18.95,1.91-1.32.69-1.69-.47-2.26-1.17-.37.38,0,.9-.38,1.24-.39.14-.78.19-1.11-.13ZM107.09,69.33c.64.05.93-.16.84-.7-.06-.31-.36-.48-.63-.38-.56.21-.36.64-.21,1.08Z"/>
  <path class="cls-1" d="M110.24,72.12v-5.01h2.84c.3.32.27.66.12.99-.51.35-1.16-.11-1.62.38-.05,1.07,2.24-.15,1.52,1.55-.44.36-1.12-.09-1.59.47.44.67,1.2.16,1.66.53.2.32.12.63,0,1.02-.93.21-1.89.11-2.94.08Z"/>
  <path class="cls-1" d="M104.8,70.62c.07,1.48-.03,1.58-1.18,1.62-1.06.04-1.82-.42-2.29-1.33-.55-1.05-.46-2.11.24-3.05.61-.83,1.49-1.1,2.5-.93.23.04.45.15.68.22.25.45.18.89.02,1.38-.72-.3-1.47-.58-2.01.22-.34.5-.36,1.1-.04,1.61.52.82,1.28.59,2.1.26Z"/>
  <path class="cls-1" d="M150.45,67.25v1.26c-1.8-.52-2.94-.18-2.08,1.91.33.8,1.26.68,1.93.08.31.48.16.89.14,1.27-.28.5-1.57.64-2.38.27-1.38-.62-1.92-2.32-1.23-3.89.49-1.11,1.91-1.49,3.62-.9Z"/>
  <path class="cls-1" d="M88.42,68.53c-.81-.33-1.55-.54-2.09.27-.34.52-.31,1.06.03,1.58.54.84,1.3.45,2.01.31.22,1.29.08,1.49-1.01,1.54-1.53.07-2.63-.91-2.7-2.41-.08-1.69.94-2.92,2.48-2.97,1.03-.04,1.39.37,1.29,1.67Z"/>
  <path class="cls-1" d="M128.48,72.01c-.69.18-1.05.22-1.56-.02.44-1.87-.67-3.3-1.72-4.79,1.29-.53,1.92.09,2.34,1.07.57-.2.45-.84.87-1.1.47-.24.97-.17,1.63-.05-.84,1.57-2.35,2.87-1.56,4.89Z"/>
  <path class="cls-1" d="M116.3,68.44c-.17,1.28.11,2.42-.15,3.53-.39.3-.79.21-1.26.08-.27-1.14.03-2.32-.18-3.57-.62-.16-1.4-.3-.93-1.39,1.1-.15,2.26-.04,3.39-.07.55.99.02,1.32-.87,1.42Z"/>
  <path class="cls-1" d="M137.21,72.14v-4.97c.46-.23.86-.16,1.37-.02v3.36c.53.49,1.11.15,1.57.41.28.32.22.67.02,1.17-.89.15-1.86.06-2.97.05Z"/>
  <path class="cls-1" d="M44.49,60.29c.66,1.58,1.89,2.75,3.01,4.33.21-1.63-.61-2.84-.59-4.42,1.82,1.18,1.87,3.3,3.25,4.82-.4-3.63-1.65-6.94-1.59-10.52.79.59,1.07,1.4,1.26,2.25.16.69.07,1.7.5,2,1.11.79,1.27,1.83,1.28,2.97.02,1.23.37,2.43.24,3.91.79-1.05,1.06-2.08,1.45-3.04.26-.64.54-1.15,1.24-1.41.73-.28,1.32-.83,1.36-1.66.07-1.38.83-2.47,1.35-3.67,1.04-2.38,2.21-4.66,4.06-6.57,2.24-2.33,4.88-3.61,8.12-3.69.84-.02,1.7,0,2.46-.46-.29-1.75-.81-2.2-2.49-2.46-2.42-.36-4.79-.37-7.08.61-1.97.84-3.69,2.08-5.18,3.6-1.38,1.41-2.81,2.78-4.05,4.53-.44-2.49-.66-4.83-1.18-7.12-.15-.66-.03-1.42.38-1.89,1.13-1.28,1.28-2.78,1.26-4.36,0-.27.05-.55.07-.75.41-.33.8-.22,1.17-.22,6.14-.01,12.27.02,18.41-.04,1.06,0,1.5.36,1.77,1.34.53,1.92.75,3.89.88,5.85.19,3.01.52,6.01.41,9.04,0,.13-.07.26-.13.47-1.48.14-2.99.06-4.47.33-4.08.75-7.94,1.97-11.01,4.98-.59.58-1.08,1.22-1.3,1.99-.47,1.69-1.55,2.79-3.07,3.54-.16.08-.32.19-.46.37,1.3-.25,2.56-.57,3.89-.22.4.11.79-.26,1.1-.56,1.53-1.48,3.24-2.72,5.04-3.78.17-.4-.57-.43-.26-.84,3.33.22,3.89.03,3.61-1.62,2.75,1.29,4.7-1.03,7.25-1.48.01,3.57.14,7.06,0,10.51-.45.11-.64-.09-.7-.29-.4-1.23-1.42-1.69-2.51-2.04-2.09-.67-4.09-1.67-6.41-1.5-2.02.15-3.93.34-5.54,1.86-1.45,1.37-3.47,1.59-5.33,2.09-.21.06-.48,0-.65.35.59.66,1.23,1,2.18.57.78-.35,1.54-.51,2.36.16.98.82,2.05.44,2.61-.78.08-.17.18-.33.35-.65.49,1.11,1.26.88,2.07.62,1.29-.41,2.59-.38,3.89-.08.52-.12.57-.72,1.05-1.03.93,2.8,3.27,3.48,5.7,3.94.81.15,1,.52.96,1.24-.21,4.89-.24,9.8-.87,14.67-.2,1.53-.39,1.66-1.98,1.68-5.56.08-11.13.17-16.69.24-.6,0-1.21.07-1.87-.13.47-3.64-2.07-6.64-1.83-10.13-.53-.44-1.08-.12-1.58-.26-.11-.14.03-.19.13-.26,1.68-1.11,1.85-1.69,1-3.59-.05-.1-.29-.12-.17-.3.8-1.23-.02-2.71.6-3.98.13-.26.02-.64.02-1.21-1.04.58-1.94.32-2.9.09-1.47-.35-2.17.42-1.77,1.89.94,3.42.9,6.9.75,10.39-.04.86-.33,1.67-.71,2.43-1.19,2.35-1.26,2.58-1.28,4.9-1.13.35-2.32.24-3.45.14-2.73-.26-5.47-.13-8.2-.19-2.83-.06-5.64-.2-8.46-.52-.83-.1-1.19-.47-1.29-1.2-.16-1.21-.34-2.43-.41-3.64-.25-4.24-.36-8.48-.35-12.73,0-1.03,0-2.06,0-3.13.76.09.97,1.05,1.77,1.31,1.16-.68,2.4-1.34,3.76-1.45.31-.61.11-1.15.3-1.73.85.29,1.22,1.59,2.35,1.22.84-.28,2.05-.14,1.82-1.58.66-.01.88.53,1.37.72,1.33-.46,2.69-.82,4,.44-.46.29-.88.54-1.28.81-1.36.93-2.11,2.16-1.67,3.85.13.48.01.8-.22,1.18-.37.59-.71,1.21-1.06,1.82,2.04,1.06,5.64-.56,5.79-2.67.55.2,1.02.12,1.44-.36,1.38-1.57,2.25-3.43,3.17-5.15-.13-.35-.33-.42-.5-.41-1.05.07-1.54-.34-1.84-1.42-.64-2.27-2.87-3.5-5.49-3.51-2.09-.01-3.72,1.27-5.61,1.8-1.17.33-2.28.92-3.45,1.25-1.7.48-3.12,1.45-4.75,2.56v-28.1h24.75c-2.38,3.81-1.77,8.1-2.57,12.2-.7-.33-.72-.89-.9-1.35-.39-.96-.88-1.81-1.68-2.52-3.11-2.78-6.66-4.55-10.84-4.97-.69-.07-1.37-.43-2.09-.19-.56,1.78-.48,1.95,1.04,2.77,1.08.58,2.13,1.21,3.19,1.82.56.32,1.1.78,1.11,1.38,0,1.09.77,1.52,1.44,2.08,1.74,1.44,3.41,2.95,4.15,5.19.06.18.12.35-.04.65-1.26-.86-2.5-1.77-3.48-2.89-1.52-1.74-3.44-2.52-5.59-3.05-1.64-.4-3.34-.39-4.97-1.01-.34.88-.12,1.44.26,2.18,1.3,2.5,3.81,3.39,5.94,4.78,1.41.92,2.76,1.92,4.1,2.95,1.4,1.07,3.09,1.69,4.75,2.3l-.02-.02c.24.34.34.82.87.87l-.02-.02ZM58.39,58.33c1.06.03,1.56-.82,2.07-1.48,1.3-1.67,3.01-2.64,4.93-3.38,2.32-.89,4.65-1.77,6.94-2.75,1.08-.46,2.28-.71,3.32-1.51-.83-.57-1.67-.76-2.48-.89-3.67-.56-7.44-1.52-10.54,1.65-.23.23-.55.36-.8.57-.67.58-1.64,1.07-1.92,1.8-.73,1.91-1.32,3.89-1.53,5.96-.15.04-.23.15-.21.29,0,.04.11.06.16.1.02-.13.04-.25.06-.38Z"/>
  <path class="cls-1" d="M64.27,45.07c-.15.77-.5.87-.78,1.01-4.13,2-6.69,5.33-8.27,9.55-.72,1.93-1.49,3.84-2.09,6.01-.38-1.55.26-2.75.54-4,.29-1.33.8-2.6,1.16-3.91.35-1.23,1.52-1.99,2.25-3.02.95-1.34,2.26-2.4,3.33-3.65,1.02-1.2,2.43-1.23,3.85-1.99Z"/>
  <path class="cls-1" d="M51.3,39.33c-.28,1.6-.57,3.19-.84,4.79-.27,1.63-.33,3.27-.32,4.92-.96-3.72-.46-6.05,1.16-9.7Z"/>
  <path class="cls-1" d="M39.69,54.63c-.7.12-1.11-.43-1.61-.73-1.78-1.1-3.53-2.26-5.29-3.4.09-.03.19-.1.24-.08,2.4,1.11,5.09,1.78,6.65,4.21h0Z"/>
  <path class="cls-1" d="M43.02,50.02c-1.1-.64-1.54-1.79-2.4-2.55-.84-.74-1.62-1.55-2.62-2.51,2.09.43,4.58,3.04,5.02,5.07Z"/>
  <path class="cls-1" d="M43.66,59.46c-.12-.98-.95-1.42-1.58-1.98-.65-.58-1.17-1.22-1.53-2.01l-.02.02c1.9.86,3.08,2.42,4,4.21l-.04.04c-.31-.04-.49-.42-.85-.3l.02.02Z"/>
  <path class="cls-1" d="M44.53,59.71c.27,0,.48.14.43.41-.03.2-.29.18-.47.18l.02.02c0-.19-.02-.38-.02-.57l.04-.04Z"/>
  <path class="cls-1" d="M39.68,54.64c.34.04.51.24.56.57l.02-.02c-.38,0-.64-.11-.57-.56h0Z"/>
  <path class="cls-1" d="M40.24,55.21c.16.03.26.12.29.29l.02-.02c-.19,0-.28-.1-.28-.29l-.02.02Z"/>
</svg>