<?xml version="1.0" encoding="utf-8"?>
<!-- Generator: Adobe Illustrator 27.0.1, SVG Export Plug-In . SVG Version: 6.00 Build 0)  -->
<svg version="1.1" id="Capa_1" xmlns="http://www.w3.org/2000/svg" xmlns:xlink="http://www.w3.org/1999/xlink" x="0px" y="0px"
	 viewBox="0 0 177.4 125.4" style="enable-background:new 0 0 177.4 125.4;" xml:space="preserve">
<style type="text/css">
	.st0{opacity:0.48;fill:#FFFFFF;}
	.st1{opacity:0.66;fill:#FFFFFF;}
	.st2{fill:#FFFFFF;}
	.st3{opacity:0.74;fill:#FFFFFF;}
	.st4{fill-rule:evenodd;clip-rule:evenodd;fill:#FFFFFF;}
	.st5{fill:#1D2A4C;}
</style>
<g>
	<path class="st2" d="M20.1,72.7c0-4.3,2.8-6.8,7.3-5.9c2.8,0.5,5.6,0.7,8.4,0.9c1,0.1,2-0.3,3-0.5c-0.9,3.7-3.1,5.2-6.6,4.3
		c-1.8-0.4-3.5-0.9-5.3-1.3c-1.9-0.4-3.6-0.3-5.1,1.3C21.4,71.8,20.8,72.2,20.1,72.7z"/>
	<path class="st2" d="M18.8,71.5c-0.5-1.1-1.1-2.2-1.4-3.4c-0.6-2.9,1.5-4.5,3.4-6.1c1.7-1.4,3.3-2.9,3.6-5.2c0.1-1-0.2-2-0.2-2.9
		c2.5,0.8,3.4,3.6,2.8,6.1c-0.5,2-1.8,3.5-3.3,4.7c-1.8,1.5-3.3,3.6-4.5,6.7C19,71.4,18.9,71.4,18.8,71.5z"/>
	<path class="st2" d="M25.1,52.8c1.3,0,2.7-0.1,4.1,0c1.4,0.1,2.5,1.7,2.9,3.7c0.4,1.8,0.8,3.5,1.4,5.2c0.7,2.2,2.3,3.3,4.6,3.6
		c0.3,0,0.5,0.1,0.8,0.2c-3.4,2.3-8.6,0.5-9.4-3.8C29,59.4,28.7,57,27.1,55C26.5,54.3,25.8,53.6,25.1,52.8z"/>
	<path class="st2" d="M53.8,67.4c-2.2-1.5-3.6-3.5-5.6-5.2c0,1.7,0,3.2,0,4.8c-0.8,0-1.4,0-2,0c0-2.9,0-5.8,0-9.1
		c2.2,1.5,3.6,3.5,5.6,5.2c0-1.7,0-3.2,0-4.8c0.8,0,1.4,0,2,0C53.8,61.2,53.8,64.1,53.8,67.4z"/>
	<path class="st2" d="M62.7,67.4c-2.2-1.5-3.6-3.5-5.6-5.2c0,1.7,0,3.2,0,4.8c-0.8,0-1.4,0-2,0c0-2.9,0-5.8,0-9.1
		c2.2,1.5,3.6,3.5,5.6,5.2c0-1.7,0-3.2,0-4.8c0.8,0,1.4,0,2,0C62.7,61.2,62.7,64.1,62.7,67.4z"/>
	<path class="st2" d="M114.2,62.8c0-1.5,0-3,0-4.6c0.7,0,1.2,0,1.9,0c0,2.9,0,5.8,0,8.8c-1.4-0.2-1.9-1.4-2.8-2.2
		c-0.9-0.8-1.7-1.8-2.9-2.5c0,1.5,0,3.1,0,4.6c-0.7,0-1.3,0-1.9,0c0-2.9,0-5.8,0-8.8c1.4,0.2,1.9,1.4,2.8,2.2
		c0.9,0.8,1.7,1.8,2.5,2.7C114,63,114.1,62.9,114.2,62.8z"/>
	<path class="st2" d="M158.4,63.8c0.4,0.8,1,1.9,1.7,3.1c-2.2,0.4-2.2,0.4-3.3-1.8c-0.4-0.9-0.9-1.7-2.3-1.3c0,1,0,2.1,0,3.2
		c-0.6,0-1.1,0-1.7,0c0-2.9,0-5.7,0-8.9c1.5,0.1,3.1,0.2,4.7,0.3c1.4,0.1,2,1.1,2,2.2C159.5,61.6,158.9,62.5,158.4,63.8z
		 M154.5,61.6c0.9,0,1.6,0,2.4,0c0.3,0,0.5-0.3,0.7-0.5c0.1-0.1-0.1-0.6-0.2-0.6c-0.9-0.1-1.9-0.2-2.9-0.3
		C154.5,60.7,154.5,61.1,154.5,61.6z"/>
	<path class="st2" d="M136.1,62.7c0,2.9-2,4.3-4.3,4.3c-2.7,0.1-4.5-1.9-4.3-4.6c0.2-2.5,1.8-4.3,4.3-4.2
		C134,58.3,136.1,59.7,136.1,62.7z M129.4,62.5c0,1.6,0.8,2.6,2.3,2.5c1.4,0,2.3-1,2.3-2.5c0-1.4-0.9-2.4-2.2-2.4
		C130.4,60.2,129.5,61.1,129.4,62.5z"/>
	<path class="st2" d="M67.8,67.1c-2.6-0.3-4.4-1.7-4.4-4.4c0-2.7,1.8-4.5,4.5-4.4c2.8,0.1,4.3,1.9,4.3,4.4
		C72.2,65.4,70.4,66.8,67.8,67.1z M67.8,65.1c1.2,0,2.4-1.3,2.4-2.5c0-1.2-1.3-2.4-2.5-2.4c-1.2,0-2.4,1.3-2.4,2.5
		C65.4,63.9,66.7,65.1,67.8,65.1z"/>
	<path class="st2" d="M107.9,62.6c0,2.5-1.9,4.5-4.5,4.4c-2.9-0.1-4.3-1.8-4.3-4.4c0-2.7,1.6-4.3,4.3-4.4
		C106,58.2,107.8,60.1,107.9,62.6z M103.4,65.1c1.3,0,2.5-1.2,2.5-2.5c0-1.3-1.2-2.4-2.4-2.4c-1.2,0-2.4,1.2-2.5,2.4
		C101,63.8,102.2,65.1,103.4,65.1z"/>
	<path class="st2" d="M152.2,67c-0.8,0-1.5,0-2.2,0c-0.2-0.9-0.5-1.6-1.6-1.4c-1.1,0.2-2.7-0.7-2.9,1.4c-0.8,0-1.4,0-2.2,0
		c1.1-2.8,2.2-5.5,3.3-8.2c0.1-0.3,0.8-0.6,1.2-0.6c0.4,0,1.1,0.4,1.2,0.8C150.1,61.6,151.1,64.3,152.2,67z M148.6,63.6
		c-0.3-0.8-0.6-1.4-0.9-2.3c-0.4,0.9-0.6,1.6-0.9,2.3C147.4,63.6,148,63.6,148.6,63.6z"/>
	<path class="st2" d="M81.4,67c-0.8,0-1.4,0-2.3,0c1.1-2.8,2.2-5.5,3.3-8.2c0.1-0.3,0.8-0.6,1.2-0.6c0.4,0,1,0.3,1.2,0.7
		c1.1,2.7,2.2,5.4,3.3,8.1c-0.8,0-1.5,0-2.2,0c0-1.2-0.8-1.5-1.9-1.4C82.9,65.8,81.4,65.1,81.4,67z M84.6,63.6
		c-0.3-0.8-0.6-1.4-1-2.3c-0.4,0.9-0.6,1.6-0.9,2.3C83.3,63.6,83.9,63.6,84.6,63.6z"/>
	<path class="st2" d="M127.2,59.4c-0.9,0.9-1.4,2-2.5,0.9c-0.2-0.2-0.8-0.1-1.1-0.1c-0.3,0.1-0.5,0.3-0.7,0.5
		c0.2,0.3,0.4,0.6,0.7,0.8c0.2,0.1,0.5,0.1,0.7,0.1c1.9,0.3,2.8,1.4,2.7,3.1c-0.1,1.3-1.7,2.5-3.2,2.3c-1.2-0.2-2.3-0.7-3.7-1.1
		c0.7-0.7,1.1-1.2,1.4-1.5c0.9,0.2,1.7,0.5,2.5,0.6c0.4,0,0.8-0.4,1.6-0.9c-1-0.4-1.5-0.7-2.1-0.8c-1.8-0.3-2.9-1.4-2.7-2.8
		c0.2-1.4,2.4-2.7,3.9-2.3C125.3,58.5,126.1,59,127.2,59.4z"/>
	<path class="st2" d="M76.5,64.1c0.6-1.6,1.3-3,1.7-4.5c0.4-1.4,1.3-1.7,2.7-1.2c-1.1,2.8-2.2,5.5-3.3,8.3c-0.1,0.3-0.9,0.4-1.4,0.4
		c-0.3,0-0.7-0.2-0.8-0.5c-1.1-2.7-2.2-5.4-3.3-8.2c1.4-0.4,2.3-0.2,2.7,1.3C75.2,61.1,75.9,62.4,76.5,64.1z"/>
	<path class="st2" d="M94.4,64.2c0.4,0.6,0.8,1.1,1.1,1.6c-2.6,1.9-5.3,1.4-6.8-0.5c-1.2-1.5-1.2-3.8,0-5.3c1.5-1.9,4-2.5,6.8-0.6
		c-0.4,0.5-0.8,1.1-1.1,1.6c-2.3-1-3.2-0.9-4.1,0.3c-0.8,1-0.5,2,0.2,2.8C91.4,65.3,92.1,65.3,94.4,64.2z"/>
	<path class="st2" d="M138.6,65.1c1.6,0,2.9,0,4.3,0c0,0.7,0,1.2,0,1.9c-2,0-4,0-6.1,0c0-2.8,0-5.7,0-8.7c0.6,0,1.1,0,1.8,0
		C138.6,60.5,138.6,62.7,138.6,65.1z"/>
	<path class="st2" d="M43.3,58.3c0.6,0,1.2,0,1.8,0c0,2.9,0,5.8,0,8.8c-0.6,0-1.2,0-1.8,0C43.3,64.1,43.3,61.3,43.3,58.3z"/>
	<path class="st2" d="M96.8,58.3c0.5,0,1,0,1.5,0c0,2.9,0,5.8,0,8.8c-0.5,0-1,0-1.5,0C96.8,64.1,96.8,61.3,96.8,58.3z"/>
</g>
</svg>
