<?xml version="1.0" encoding="UTF-8"?>
<svg id="Capa_8" data-name="Capa 8" xmlns="http://www.w3.org/2000/svg" viewBox="0 0 177.4 125.4">
  <defs>
    <style>
      .cls-1 {
        fill: #fff;
        stroke-width: 0px;
      }
    </style>
  </defs>
  <path class="cls-1" d="M24.32,72.67c0-4.04,2.63-6.38,6.85-5.54,2.63.47,5.26.66,7.88.84.94.09,1.88-.28,2.82-.47-.84,3.47-2.91,4.88-6.19,4.04-1.69-.38-3.29-.84-4.97-1.22-1.78-.38-3.38-.28-4.79,1.22-.38.28-.94.66-1.6,1.13Z"/>
  <path class="cls-1" d="M23.1,71.55c-.47-1.03-1.03-2.06-1.31-3.19-.56-2.72,1.41-4.22,3.19-5.73,1.6-1.31,3.1-2.72,3.38-4.88.09-.94-.19-1.88-.19-2.72,2.35.75,3.19,3.38,2.63,5.73-.47,1.88-1.69,3.29-3.1,4.41-1.69,1.41-3.1,3.38-4.22,6.29-.19,0-.28,0-.38.09Z"/>
  <path class="cls-1" d="M29.01,53.99c1.22,0,2.53-.09,3.85,0s2.35,1.6,2.72,3.47c.38,1.69.75,3.29,1.31,4.88.66,2.06,2.16,3.1,4.32,3.38.28,0,.47.09.75.19-3.19,2.16-8.07.47-8.82-3.57-.47-2.16-.75-4.41-2.25-6.29-.56-.66-1.22-1.31-1.88-2.06Z"/>
  <path class="cls-1" d="M55.95,67.7c-2.06-1.41-3.38-3.29-5.26-4.88v4.51h-1.88v-8.54c2.06,1.41,3.38,3.29,5.26,4.88v-4.51h1.88v8.54Z"/>
  <path class="cls-1" d="M64.3,67.7c-2.06-1.41-3.38-3.29-5.26-4.88v4.51h-1.88v-8.54c2.06,1.41,3.38,3.29,5.26,4.88v-4.51h1.88v8.54Z"/>
  <path class="cls-1" d="M112.64,63.38v-4.32h1.78v8.26c-1.31-.19-1.78-1.31-2.63-2.06-.84-.75-1.6-1.69-2.72-2.35v4.32h-1.78v-8.26c1.31.19,1.78,1.31,2.63,2.06s1.6,1.69,2.35,2.53c.19,0,.28-.09.38-.19Z"/>
  <path class="cls-1" d="M154.12,64.32c.38.75.94,1.78,1.6,2.91q-2.06.38-3.1-1.69c-.38-.84-.84-1.6-2.16-1.22v3h-1.6v-8.35c1.41.09,2.91.19,4.41.28,1.31.09,1.88,1.03,1.88,2.06,0,.94-.56,1.78-1.03,3ZM150.46,62.25h2.25c.28,0,.47-.28.66-.47.09-.09-.09-.56-.19-.56-.84-.09-1.78-.19-2.72-.28v1.31Z"/>
  <path class="cls-1" d="M133.19,63.29c0,2.72-1.88,4.04-4.04,4.04-2.53.09-4.22-1.78-4.04-4.32.19-2.35,1.69-4.04,4.04-3.94,2.06.09,4.04,1.41,4.04,4.22ZM126.9,63.1c0,1.5.75,2.44,2.16,2.35,1.31,0,2.16-.94,2.16-2.35,0-1.31-.84-2.25-2.06-2.25-1.31.09-2.16.94-2.25,2.25Z"/>
  <path class="cls-1" d="M69.09,67.42c-2.44-.28-4.13-1.6-4.13-4.13s1.69-4.22,4.22-4.13c2.63.09,4.04,1.78,4.04,4.13,0,2.53-1.69,3.85-4.13,4.13ZM69.09,65.54c1.13,0,2.25-1.22,2.25-2.35s-1.22-2.25-2.35-2.25-2.25,1.22-2.25,2.35c.09,1.13,1.31,2.25,2.35,2.25Z"/>
  <path class="cls-1" d="M106.72,63.19c0,2.35-1.78,4.22-4.22,4.13-2.72-.09-4.04-1.69-4.04-4.13s1.5-4.04,4.04-4.13c2.44,0,4.13,1.78,4.22,4.13ZM102.5,65.54c1.22,0,2.35-1.13,2.35-2.35s-1.13-2.25-2.25-2.25-2.25,1.13-2.35,2.25c0,1.13,1.13,2.35,2.25,2.35Z"/>
  <path class="cls-1" d="M148.3,67.32h-2.06c-.19-.84-.47-1.5-1.5-1.31s-2.53-.66-2.72,1.31h-2.06c1.03-2.63,2.06-5.16,3.1-7.7.09-.28.75-.56,1.13-.56s1.03.38,1.13.75c1.03,2.44,1.97,4.97,3,7.51ZM144.92,64.13c-.28-.75-.56-1.31-.84-2.16-.38.84-.56,1.5-.84,2.16h1.69Z"/>
  <path class="cls-1" d="M81.85,67.32h-2.16c1.03-2.63,2.06-5.16,3.1-7.7.09-.28.75-.56,1.13-.56s.94.28,1.13.66c1.03,2.53,2.06,5.07,3.1,7.6h-2.06c0-1.13-.75-1.41-1.78-1.31-1.03.19-2.44-.47-2.44,1.31ZM84.85,64.13c-.28-.75-.56-1.31-.94-2.16-.38.84-.56,1.5-.84,2.16h1.78Z"/>
  <path class="cls-1" d="M124.84,60.19c-.84.84-1.31,1.88-2.35.84-.19-.19-.75-.09-1.03-.09-.28.09-.47.28-.66.47.19.28.38.56.66.75.19.09.47.09.66.09,1.78.28,2.63,1.31,2.53,2.91-.09,1.22-1.6,2.35-3,2.16-1.13-.19-2.16-.66-3.47-1.03.66-.66,1.03-1.13,1.31-1.41.84.19,1.6.47,2.35.56.38,0,.75-.38,1.5-.84-.94-.38-1.41-.66-1.97-.75-1.69-.28-2.72-1.31-2.53-2.63.19-1.31,2.25-2.53,3.66-2.16.56.28,1.31.75,2.35,1.13Z"/>
  <path class="cls-1" d="M77.25,64.6c.56-1.5,1.22-2.82,1.6-4.22.38-1.31,1.22-1.6,2.53-1.13-1.03,2.63-2.06,5.16-3.1,7.79-.09.28-.84.38-1.31.38-.28,0-.66-.19-.75-.47-1.03-2.53-2.06-5.07-3.1-7.7,1.31-.38,2.16-.19,2.53,1.22.38,1.31,1.03,2.53,1.6,4.13Z"/>
  <path class="cls-1" d="M94.05,64.69c.38.56.75,1.03,1.03,1.5-2.44,1.78-4.97,1.31-6.38-.47-1.13-1.41-1.13-3.57,0-4.97,1.41-1.78,3.75-2.35,6.38-.56-.38.47-.75,1.03-1.03,1.5-2.16-.94-3-.84-3.85.28-.75.94-.47,1.88.19,2.63.84,1.13,1.5,1.13,3.66.09Z"/>
  <path class="cls-1" d="M135.54,65.54h4.04v1.78h-5.73v-8.17h1.69v6.38Z"/>
  <path class="cls-1" d="M46.09,59.16h1.69v8.26h-1.69v-8.26Z"/>
  <path class="cls-1" d="M96.3,59.16h1.41v8.26h-1.41v-8.26Z"/>
</svg>