<?xml version="1.0" encoding="utf-8"?>
<!-- Generator: Adobe Illustrator 28.3.0, SVG Export Plug-In . SVG Version: 6.00 Build 0)  -->
<svg version="1.1" id="Capa_1" xmlns="http://www.w3.org/2000/svg" xmlns:xlink="http://www.w3.org/1999/xlink" x="0px" y="0px"
	 viewBox="0 0 792 209" style="enable-background:new 0 0 792 209;" xml:space="preserve">
<style type="text/css">
	.st0{fill:none;stroke:#D6D1C4;stroke-miterlimit:10;}
	.st1{fill:#00263E;}
	.st2{fill:#E5E1E6;}
	.st3{fill:#D0B787;}
	.st4{fill:#54565A;}
	.st5{fill:#FFFFFF;}
</style>
<g>
	<path class="st5" d="M46.5,92.1l-18.2,0.1l-0.1-11.1l48.3-0.2L76.6,92l-18.1,0.1l0.3,54.4l-12,0.1L46.5,92.1z"/>
	<path class="st5" d="M111,80.8l44.2-0.2l0.1,11.1l-32.2,0.2l0.1,16.2l28.5-0.1l0.1,11.1l-28.5,0.1l0.1,16.2l32.2-0.2l0.1,11.1
		l-44.2,0.2L111,80.8z"/>
	<path class="st5" d="M204.3,105.6l0.2,40.2l-12,0.1l-0.3-67.2l42.8,41.9l-0.2-40.4l12-0.1l0.3,67.3L204.3,105.6z"/>
	<path class="st5" d="M286.1,79.9l20.6-0.1c19.6-0.1,35.5,14.4,35.6,32.6c0.1,18.1-15.7,32.8-35.3,32.9l-20.6,0.1L286.1,79.9z
		 M307,134.3c13.2-0.1,23.4-9.7,23.4-21.8c-0.1-12-10.4-21.6-23.6-21.6l-8.6,0l0.2,43.4L307,134.3z"/>
	<path class="st5" d="M379.1,79.5l44.2-0.2l0.1,11.1l-32.2,0.2l0.1,16.2l28.5-0.1l0.1,11.1l-28.5,0.1l0.1,16.2l32.2-0.2l0.1,11.1
		l-44.2,0.2L379.1,79.5z"/>
	<path class="st5" d="M472.4,104.3l0.2,40.2l-12,0.1l-0.3-67.2l42.8,41.9l-0.2-40.4l12-0.1l0.3,67.3L472.4,104.3z"/>
	<path class="st5" d="M551.9,111.3c-0.1-18.8,16.3-33.6,36.6-33.7c6,0,11.2,1.2,16.5,3.7l0.1,13.7c-5.3-4.3-10.1-6.2-16.7-6.2
		c-13.6,0.1-24.4,9.9-24.4,22.5c0.1,12.4,10.7,22.3,24.5,22.2c7.1,0,11.7-2.1,16.7-6.5l0.1,13.8c-5.2,2.6-10.5,3.9-16.4,3.9
		C568.4,144.9,552,130,551.9,111.3z"/>
	<path class="st5" d="M642.4,78.2l12-0.1l0.3,65.5l-12,0.1L642.4,78.2z"/>
	<path class="st5" d="M719.3,76.1c-10.6,22.4-21.3,44.9-31.9,67.3l13.5-0.1c6.2-14.1,12.3-28.2,18.5-42.3
		c6.3,14,12.6,28.1,18.9,42.1l13.5-0.1C741,120.8,730.2,98.5,719.3,76.1z"/>
	<g>
		<path class="st5" d="M754.1,73.3c1.6-1,3.3-1.5,5.3-1.6c2.9,0,5.2,0.9,6.9,2.8c1.7,1.9,2.6,4.1,2.6,6.7c0,2-0.4,3.7-1.2,5.3
			c-0.8,1.6-1.9,2.9-3.3,4.1c-1.4,1.1-3.1,2-5.1,2.6c-1.9,0.6-3.9,0.9-6,0.9l0-1.2c3-0.6,5.3-1.4,6.9-2.7c1.6-1.2,2.5-3.1,2.4-5.6
			c0-0.7-0.1-1.4-0.3-1.9c-0.2-0.6-0.3-1.1-0.5-1.5c-0.8,0.5-1.6,0.9-2.5,1.1c-0.9,0.2-1.7,0.3-2.4,0.3c-1.7,0-3-0.5-3.9-1.6
			c-0.9-1.1-1.3-2.2-1.4-3.3C751.8,75.8,752.5,74.3,754.1,73.3z"/>
	</g>
</g>
</svg>
