<?xml version="1.0" encoding="utf-8"?>
<!-- Generator: Adobe Illustrator 28.3.0, SVG Export Plug-In . SVG Version: 6.00 Build 0)  -->
<svg version="1.1" id="Capa_1" xmlns="http://www.w3.org/2000/svg" xmlns:xlink="http://www.w3.org/1999/xlink" x="0px" y="0px"
	 viewBox="0 0 177.4 125.4" style="enable-background:new 0 0 177.4 125.4;" xml:space="preserve">
<style type="text/css">
	.st0{fill:#FFFFFF;}
</style>
<g>
	<g id="Grupo_5_00000146468940507569876670000015758591170898313613_">
		<g id="Grupo_4_00000098908441064749657380000016285774268170232208_">
			<path id="Trazado_1_00000067941954786320078880000007370208123437576619_" class="st0" d="M14.2,62.7v1H9.8v7.6H8.7V54.6h6.4v1
				H9.8v7.2L14.2,62.7L14.2,62.7z"/>
			<path id="Trazado_2_00000062187343996393920690000008190239986857510548_" class="st0" d="M8.9,71.2h0.8v-7.6H14v-0.7H9.7v-7.6
				H15v-0.7h-6V71.2z M10,71.6H8.5V54.4h6.8v1.4H10v6.8h4.3v1.3H10V71.6z"/>
			<g id="Grupo_1_00000025401747090509924330000013110363161121317256_">
				<path id="Trazado_3_00000160871258861703664360000012887310726743511472_" class="st0" d="M20.7,67.4c0,1.8,0.7,3.2,2.6,3.2
					s2.6-1.3,2.6-3.2v-8.8c0-1.8-0.8-3.2-2.6-3.2c-1.9,0-2.6,1.3-2.6,3.2V67.4z M19.7,58.6c0-2.5,1.1-4.3,3.7-4.3s3.7,1.8,3.7,4.3
					v8.6c0,2.5-1.1,4.3-3.7,4.3s-3.7-1.8-3.7-4.3V58.6z"/>
				<path id="Trazado_4_00000118374865415648150570000003685345577734506682_" class="st0" d="M23.3,55.6c-2,0-2.4,1.7-2.4,3v8.8
					c0,1.4,0.4,3,2.4,3s2.5-1.6,2.5-3v-8.8C25.7,57.2,25.3,55.6,23.3,55.6 M23.3,70.7c-1.8,0-2.8-1.2-2.8-3.4v-8.7
					c0-2.1,1-3.4,2.8-3.4s2.8,1.2,2.8,3.4v8.8C26.1,69.5,25.1,70.7,23.3,70.7 M23.3,54.6c-2.2,0-3.5,1.5-3.5,4.1v8.6
					c0,2.6,1.3,4.1,3.5,4.1c3.1,0,3.5-2.6,3.5-4.1v-8.6C26.9,57.1,26.4,54.6,23.3,54.6 M23.3,71.7c-2.5,0-3.9-1.6-3.9-4.4v-8.6
					c0-2.8,1.4-4.4,3.9-4.4s3.9,1.6,3.9,4.4v8.6C27.2,70.1,25.8,71.7,23.3,71.7"/>
				<path id="Trazado_5_00000035523523526906548960000009899217632644120721_" class="st0" d="M34.7,62.8c2,0,3.1-0.5,3.1-2.8v-1.6
					c0-1.8-0.7-2.9-2.6-2.9h-2.4v7.3H34.7z M35.3,54.6c2.6,0,3.6,1.4,3.6,3.8v1.5c0,2-0.8,3.1-2.4,3.5c1.7,0.4,2.4,1.6,2.4,3.4v2.6
					c0,0.7,0.1,1.4,0.4,2h-1.2c-0.3-0.6-0.4-1.3-0.4-2v-2.6c0-2.2-1.2-2.9-3.1-2.9h-1.8v7.5h-1.1V54.6H35.3z"/>
				<path id="Trazado_6_00000031170716099204225070000014434748736603707798_" class="st0" d="M33,62.7h1.6c1.8,0,3-0.4,3-2.6v-1.6
					c0-1.8-0.8-2.7-2.3-2.7h-2.2L33,62.7L33,62.7z M34.7,63h-2v-7.7h2.6c1.8,0,2.7,1,2.7,3V60C38,62.7,36.4,63,34.7,63 M38.2,71.2
					H39c-0.2-0.6-0.3-1.2-0.3-1.8v-2.6c0-1.8-0.8-2.9-2.3-3.3l-0.8-0.2l0.8-0.2c1.6-0.4,2.3-1.4,2.3-3.3v-1.5c0-2.5-1.1-3.6-3.4-3.6
					H32v16.5h0.8v-7.5h1.9c1.6,0,3.3,0.4,3.3,3v2.6C37.9,70,38,70.6,38.2,71.2 M39.6,71.6H38l0-0.1c-0.3-0.7-0.4-1.4-0.4-2.1v-2.6
					c0-1.9-0.9-2.7-3-2.7H33v7.5h-1.5V54.4h3.7c2.5,0,3.8,1.3,3.8,4v1.5c0,1.8-0.7,3-2,3.5c1.3,0.5,2,1.7,2,3.4v2.6
					c0,0.7,0.1,1.3,0.4,1.9L39.6,71.6z"/>
			</g>
			<path id="Trazado_7_00000074402343607891657940000014404107667249944714_" class="st0" d="M46.8,71.4V55.5h-3.4v-1h8v1H48v15.9
				C48,71.4,46.8,71.4,46.8,71.4z"/>
			<path id="Trazado_8_00000108990748937955072690000012849609069293812406_" class="st0" d="M47,71.2h0.8V55.4h3.4v-0.7h-7.6v0.7
				h3.5L47,71.2z M48.1,71.6h-1.5V55.7h-3.4v-1.4h8.3v1.4h-3.4L48.1,71.6z"/>
			<path id="Trazado_9_00000016771399143827089170000012406886853506110338_" class="st0" d="M61.4,62.3v1h-4.6v7h5.6v1h-6.6V54.6
				h6.6v1h-5.6v6.8L61.4,62.3L61.4,62.3z"/>
			<path id="Trazado_10_00000049943756813590085540000017745419783125127605_" class="st0" d="M55.9,71.2h6.3v-0.7h-5.5v-7.4h4.6
				v-0.6h-4.6v-7.2h5.6v-0.6h-6.3L55.9,71.2z M62.6,71.6h-7V54.4h7v1.4H57v6.4h4.6v1.4H57v6.7h5.6V71.6z"/>
			<path id="Trazado_11_00000106135259352260630350000004041496757326002096_" class="st0" d="M72.7,71.3h-1.1L68,56.4v14.9h-1V54.6
				h1.6l3.5,14.9l3.5-14.9h1.6v16.8h-1.1v-15L72.7,71.3z"/>
			<path id="Trazado_12_00000027593489662233021550000004398550200206028728_" class="st0" d="M76.4,71.2h0.7V54.7h-1.3l-3.7,15.5
				l-3.7-15.5h-1.3v16.5h0.6V55l3.9,16.2h0.8l3.9-16.3V71.2z M77.5,71.6H76V58l-3.2,13.6h-1.4L68.2,58v13.6h-1.3V54.4h1.9l3.4,14.3
				l3.4-14.3h1.9V71.6z"/>
			<g id="Grupo_2_00000087379774404130768220000003487200302372614308_">
				<path id="Trazado_13_00000002360163050347788540000000923149162813011641_" class="st0" d="M102.5,58.6V60h-1.1v-1.5
					c0-1.8-0.7-3.2-2.6-3.2c-1.8,0-2.6,1.4-2.6,3.2v8.8c0,1.8,0.7,3.1,2.6,3.1c1.8,0,2.6-1.3,2.6-3.1v-2h1.1v1.9
					c0,2.4-1.1,4.3-3.6,4.3s-3.6-1.8-3.6-4.3v-8.6c0-2.4,1.1-4.3,3.6-4.3S102.5,56.2,102.5,58.6"/>
			</g>
			<path id="Trazado_14_00000026884645845367957260000009694231238238030267_" class="st0" d="M109,66.7h4.9l-2.5-10.9L109,66.7z
				 M108.8,67.7l-0.9,3.7h-1l3.7-16.9h1.6l3.8,16.9h-1.1l-0.9-3.7H108.8z"/>
			<g id="Grupo_3_00000030465155918648673430000008277629291400159391_">
				<path id="Trazado_15_00000086662203212572638250000011809156708047398554_" class="st0" d="M123.8,63.4c2,0,2.8-0.9,2.8-2.9v-2
					c0-1.8-0.6-3-2.5-3h-2.4v7.9H123.8z M124.1,54.6c2.6,0,3.6,1.7,3.6,4.1v1.8c0,2.7-1.2,4-3.9,4h-2.1v6.9h-1.1V54.6H124.1z"/>
			</g>
			
				<rect id="Rectángulo_2_00000112627130942003033160000001172972107950854590_" x="132.3" y="54.6" class="st0" width="1.1" height="16.8"/>
			<path id="Trazado_16_00000154406757842623679840000006794190082243843252_" class="st0" d="M141.1,71.4V55.5h-3.4v-1h8v1h-3.4
				v15.9C142.3,71.4,141.1,71.4,141.1,71.4z"/>
			<path id="Trazado_17_00000142176641583454193600000005891986312641916295_" class="st0" d="M150.9,66.7h4.9l-2.5-10.9L150.9,66.7
				z M150.7,67.7l-0.9,3.7h-1l3.7-16.9h1.6l3.8,16.9h-1.1l-0.9-3.7H150.7z"/>
			<path id="Trazado_18_00000114792548839726460550000000301694856387770242_" class="st0" d="M162.4,71.4V54.6h1.1v15.9h5.3v1
				L162.4,71.4L162.4,71.4z"/>
			
				<rect id="Rectángulo_3_00000037652730463912570300000006395694603429910191_" x="86.5" y="47.7" class="st0" width="0.5" height="29.9"/>
		</g>
	</g>
</g>
</svg>
