<?xml version="1.0" encoding="UTF-8"?>
<svg id="Capa_23" data-name="Capa 23" xmlns="http://www.w3.org/2000/svg" viewBox="0 0 177.4 125.4">
  <defs>
    <style>
      .cls-1 {
        fill: #fff;
        stroke-width: 0px;
      }
    </style>
  </defs>
  <g>
    <path class="cls-1" d="M27.91,89.31l.21-2.66.27-5.2.12-3.68c0-.4.01-.79.01-1.19,0-.3,0-.79-.01-1.47.93.02,1.68.03,2.24.03s1.29-.02,2.23-.05c.94-.03,1.75-.05,2.4-.05.94,0,1.64.06,2.1.18.45.12.87.3,1.23.56s.67.55.91.89.42.73.54,1.16c.12.43.18.88.18,1.33,0,.93-.23,1.78-.69,2.55-.46.77-1.1,1.34-1.93,1.73-.83.38-1.77.57-2.8.57-.38,0-.82-.04-1.32-.12-.06-.32-.16-.79-.32-1.42-.16-.63-.28-1.1-.38-1.4.31.06.63.09.97.09.71,0,1.24-.17,1.59-.5.35-.34.52-.75.52-1.23,0-.24-.04-.45-.12-.63s-.2-.33-.37-.45c-.17-.12-.36-.19-.56-.23-.2-.03-.44-.05-.7-.05s-.52,0-.79.02l-.89.06c-.09,1.34-.16,2.82-.21,4.46-.09,2.98-.14,4.77-.14,5.37v1.35l-2.11-.02c-.3,0-1.03,0-2.2.02Z"/>
    <path class="cls-1" d="M41.55,89.31l.33-4.62.11-2.65c0-.48.01-.97.01-1.47s0-1.13-.02-1.88c.85.01,1.53.02,2.03.02.59,0,1.26,0,2.02-.02l-.04,1.18c.27-.31.5-.53.68-.68.18-.15.38-.28.6-.41.23-.12.46-.21.71-.27.25-.06.5-.09.77-.09.25,0,.54.03.85.1,0,.76.02,1.38.05,1.87l.07,1.6c-.39-.11-.75-.17-1.09-.17-.42,0-.79.06-1.09.18-.31.12-.58.31-.81.55s-.42.55-.57.92c-.14.37-.24.95-.3,1.75-.06.8-.08,1.71-.08,2.73,0,.36.01.81.04,1.34-.68-.01-1.37-.02-2.06-.02s-1.42,0-2.2.02Z"/>
    <path class="cls-1" d="M57.16,78.43c.87,0,1.71.13,2.52.4.81.26,1.49.64,2.05,1.14.56.5.97,1.07,1.23,1.74.26.66.4,1.37.4,2.14s-.12,1.45-.35,2.12c-.24.67-.64,1.3-1.2,1.88-.56.59-1.28,1.02-2.15,1.32s-1.79.44-2.76.44c-.9,0-1.76-.13-2.58-.38s-1.51-.63-2.07-1.12c-.55-.49-.97-1.08-1.25-1.77-.28-.69-.42-1.41-.42-2.16s.14-1.48.41-2.16c.27-.69.7-1.3,1.29-1.85.59-.55,1.32-.97,2.18-1.26.87-.29,1.77-.44,2.71-.44ZM57.08,81.49c-.45,0-.85.11-1.21.34-.35.23-.62.56-.8,1-.18.44-.27.92-.27,1.44,0,.76.19,1.35.58,1.75.39.41.87.61,1.46.61.44,0,.84-.12,1.19-.35.35-.23.62-.58.8-1.03.18-.45.27-.94.27-1.46,0-.43-.07-.82-.21-1.16-.14-.35-.37-.62-.69-.83-.32-.21-.7-.31-1.13-.31Z"/>
    <path class="cls-1" d="M78.95,81.04c.97.01,1.89.02,2.76.02,1.49,0,2.66,0,3.51-.02-.09.95-.18,2.29-.28,4.03-.1,1.74-.15,3.05-.17,3.94-.81.15-1.48.25-2.01.32s-1.17.12-1.92.18c-.75.05-1.41.08-2,.08-.96,0-1.9-.08-2.82-.23-.92-.15-1.75-.4-2.48-.74-.73-.34-1.34-.8-1.82-1.38-.49-.58-.86-1.27-1.13-2.07s-.4-1.62-.4-2.47c0-1.41.36-2.71,1.07-3.92.71-1.21,1.74-2.16,3.07-2.86,1.34-.7,3.06-1.06,5.18-1.06,1.54,0,3.25.18,5.13.55,0,1.01.05,2.14.14,3.38-.51-.17-.92-.29-1.23-.38-.31-.09-.68-.17-1.1-.24-.42-.07-.82-.13-1.19-.16-.38-.03-.71-.05-1.01-.05-.78,0-1.51.11-2.2.33-.69.22-1.28.55-1.78,1.01-.5.45-.87,1-1.12,1.63-.25.63-.37,1.3-.37,2s.14,1.35.42,1.91c.28.56.73.98,1.34,1.27s1.3.44,2.05.44c.63,0,1.31-.09,2.06-.27l.12-2.26c-.46-.02-.73-.03-.82-.03h-1.12s.07-1.27.07-1.27c0-.14.02-.34.03-.6.01-.26.02-.62.02-1.07Z"/>
    <path class="cls-1" d="M88.22,81.72c.13-.69.22-1.16.25-1.42.04-.26.09-.67.17-1.22,2.03-.44,3.77-.66,5.23-.66.83,0,1.59.09,2.28.28.69.18,1.23.48,1.62.89.39.41.58.99.58,1.76,0,.39-.05,1.26-.16,2.62-.11,1.36-.19,3.14-.24,5.34-.69-.01-1.38-.02-2.06-.02s-1.37,0-2.12.02c.1-.76.2-2.34.32-4.72-.27.12-.48.21-.63.27-.15.06-.42.14-.8.25-.38.11-.68.2-.89.28-.21.08-.4.17-.56.29-.16.12-.27.24-.34.36-.07.12-.1.26-.1.42,0,.24.1.44.29.6.19.17.49.25.91.25.15,0,.31-.01.48-.04.17-.02.4-.08.7-.18-.2.53-.45,1.31-.73,2.34-.61.1-1.18.15-1.72.15-.87,0-1.6-.12-2.18-.36-.58-.24-1.03-.63-1.34-1.16-.31-.53-.47-1.07-.47-1.6,0-.33.06-.64.17-.96.12-.31.3-.62.54-.92.25-.3.54-.55.87-.76.33-.21.78-.41,1.36-.6s1.3-.36,2.18-.53c.37-.07.7-.14,1.01-.22.31-.08.52-.15.66-.21.13-.06.24-.13.32-.21.08-.08.14-.16.17-.25.04-.09.05-.18.05-.28,0-.26-.11-.47-.34-.61-.23-.14-.56-.21-.99-.21-1.21,0-2.71.34-4.49,1.01Z"/>
    <path class="cls-1" d="M100.32,89.31l.33-4.62.11-2.65c0-.48.01-.97.01-1.47s0-1.13-.02-1.88c.85.01,1.53.02,2.03.02.59,0,1.26,0,2.02-.02l-.04,1.18c.28-.31.5-.53.68-.68.18-.15.38-.28.6-.41.23-.12.46-.21.71-.27s.5-.09.77-.09c.25,0,.54.03.85.1,0,.76.02,1.38.05,1.87l.07,1.6c-.39-.11-.75-.17-1.09-.17-.42,0-.79.06-1.09.18s-.58.31-.81.55c-.24.25-.42.55-.57.92-.14.37-.24.95-.3,1.75-.06.8-.08,1.71-.08,2.73,0,.36.01.81.04,1.34-.68-.01-1.37-.02-2.06-.02s-1.42,0-2.2.02Z"/>
    <path class="cls-1" d="M121.55,89.31c-.75-.01-1.38-.02-1.88-.02-.56,0-1.25,0-2.05.02l.06-1.32c-.27.26-.51.48-.72.64s-.47.32-.79.47c-.32.15-.67.27-1.04.35s-.75.12-1.15.12c-.68,0-1.31-.12-1.9-.36-.59-.24-1.09-.59-1.51-1.03-.42-.45-.73-.98-.93-1.59-.2-.61-.31-1.25-.31-1.91,0-.94.19-1.85.56-2.75.37-.89.86-1.6,1.47-2.11s1.28-.88,2.04-1.09,1.58-.32,2.46-.32c.59,0,1.27.05,2.05.16.06-.82.09-1.98.11-3.46.87.01,1.57.02,2.12.02.71,0,1.43,0,2.15-.02-.2,2.06-.38,4.57-.54,7.54-.15,2.97-.23,5.18-.23,6.65ZM117.78,81.29c-.37-.08-.73-.12-1.06-.12-.69,0-1.27.13-1.75.39-.48.26-.85.67-1.11,1.22-.26.55-.39,1.09-.39,1.63,0,.4.07.76.22,1.09.14.32.37.58.67.76.3.19.63.28,1,.28.39,0,.74-.11,1.06-.32s.58-.53.78-.95c.2-.42.34-.91.41-1.48.07-.57.13-1.4.15-2.49Z"/>
    <path class="cls-1" d="M134.39,86.17c-.09.42-.27,1.42-.53,3.02-.82.16-1.51.26-2.06.32-.56.05-1.12.08-1.69.08-.84,0-1.61-.06-2.32-.17-.7-.11-1.31-.32-1.82-.61-.51-.29-.94-.65-1.28-1.09s-.61-.95-.79-1.54-.27-1.21-.27-1.84c0-.89.18-1.75.54-2.6s.82-1.51,1.39-1.99c.57-.48,1.22-.82,1.96-1.02.74-.2,1.5-.3,2.27-.3s1.57.09,2.3.28c.73.18,1.35.5,1.86.96s.87.97,1.08,1.55c.22.58.32,1.2.32,1.86,0,.39-.05.84-.14,1.32h-7.41c0,.12-.01.22-.01.31,0,.75.27,1.29.81,1.65.54.35,1.21.53,1.99.53.47,0,1-.05,1.59-.16.6-.11,1.33-.29,2.2-.55ZM127.89,82.82h3.49c0-.12.01-.22.01-.3,0-.36-.07-.67-.2-.93-.13-.26-.32-.44-.56-.56-.24-.12-.52-.18-.82-.18-.21,0-.42.03-.61.1-.2.07-.38.16-.53.29s-.29.28-.4.44c-.11.17-.18.33-.23.48-.05.16-.1.37-.15.65Z"/>
    <path class="cls-1" d="M136.63,89.31c.2-1.57.36-3.31.47-5.21.11-1.9.17-3.7.19-5.4.85.01,1.58.02,2.19.02.71,0,1.4,0,2.05-.02l-.11,1.41c.23-.26.43-.46.6-.61.17-.15.38-.29.63-.44s.52-.26.8-.35c.28-.09.59-.16.93-.21.33-.05.69-.08,1.05-.08.51,0,1,.05,1.49.16.48.11.89.26,1.21.46.32.2.6.44.81.74.22.29.36.61.43.95s.11.69.11,1.05c0,.26-.03.83-.09,1.71l-.18,3.76c-.04.74-.05,1.43-.05,2.06-.71-.01-1.38-.02-2-.02-.84,0-1.6,0-2.29.02.06-.63.13-1.57.2-2.81.07-1.24.11-2.12.11-2.63,0-.78-.15-1.33-.46-1.64-.31-.31-.69-.46-1.16-.46-.41,0-.8.13-1.16.39-.36.26-.64.65-.84,1.15-.2.5-.34,1.33-.42,2.48-.08,1.15-.14,2.32-.16,3.51-.7-.01-1.39-.02-2.06-.02-.7,0-1.47,0-2.29.02Z"/>
  </g>
  <g>
    <path class="cls-1" d="M27.99,95.15c.07-.72.13-1.51.17-2.39.04-.88.07-1.71.07-2.48.24,0,.45,0,.61,0,.11,0,.29,0,.53,0-.03.43-.06.92-.09,1.46l-.07,1.43c-.02.41-.04.82-.05,1.22h.62c.58,0,.96,0,1.14,0,.18,0,.36-.01.54-.02-.02.23-.04.49-.06.77-.63,0-1.16,0-1.61,0h-1.13s-.67,0-.67,0Z"/>
    <path class="cls-1" d="M33.79,92.31c.03-.17.05-.29.06-.36s.02-.17.04-.31c.32-.08.61-.13.86-.16s.49-.05.72-.05c.26,0,.5.03.72.09.22.06.39.16.52.29.12.13.19.32.19.57,0,.14-.02.48-.06,1.04s-.06,1.13-.07,1.72c-.18,0-.35,0-.5,0s-.32,0-.51,0c.03-.29.06-.62.08-1l.05-.89c-.09.06-.16.1-.21.12-.05.02-.1.05-.16.07-.06.02-.16.05-.32.09-.15.04-.27.08-.36.11-.09.03-.17.07-.25.11s-.13.08-.18.13c-.05.05-.09.1-.11.15-.02.05-.03.11-.03.17,0,.1.03.19.09.26.06.07.13.12.22.15.09.03.19.04.31.04.08,0,.16,0,.24-.02.08-.01.2-.04.34-.09-.05.14-.11.34-.18.61-.17.03-.3.05-.4.05-.1,0-.19.01-.28.01-.3,0-.55-.04-.74-.12-.19-.08-.34-.21-.43-.39-.09-.18-.14-.35-.14-.53,0-.1.02-.2.05-.3s.09-.19.16-.27c.07-.08.16-.16.27-.24.11-.08.27-.15.48-.22s.48-.15.82-.22c.09-.02.18-.04.28-.07.1-.03.18-.05.23-.08.06-.03.11-.06.15-.1.04-.04.07-.09.09-.13.02-.05.03-.09.03-.14,0-.09-.03-.17-.09-.24-.06-.06-.14-.11-.24-.13-.1-.03-.2-.04-.32-.04-.43,0-.91.1-1.44.31Z"/>
    <path class="cls-1" d="M39.27,95.15c.05-.54.1-1.15.14-1.82.04-.67.06-1.28.06-1.81.22,0,.4,0,.53,0,.16,0,.32,0,.49,0l-.04.61c.07-.1.14-.19.19-.25.06-.06.13-.12.21-.18.09-.06.18-.11.28-.14.1-.04.21-.06.33-.09.12-.02.25-.03.38-.03.21,0,.42.03.61.08.19.05.35.14.47.26.12.12.2.24.24.38s.06.28.06.44c0,.06,0,.17-.01.31l-.07,1.56c0,.22-.02.45-.02.69-.19,0-.35,0-.48,0-.18,0-.36,0-.55,0,.02-.21.04-.57.07-1.08.03-.52.04-.86.04-1.02,0-.19-.03-.34-.09-.45-.06-.11-.15-.2-.28-.26-.13-.06-.26-.09-.41-.09s-.28.03-.4.08-.23.13-.32.24c-.1.11-.17.24-.22.4-.05.17-.1.44-.12.82-.02.34-.04.8-.06,1.37-.18,0-.35,0-.5,0s-.33,0-.55,0Z"/>
    <path class="cls-1" d="M49.32,95.15c-.2,0-.35,0-.46,0-.12,0-.28,0-.49,0l.03-.62c-.11.14-.19.24-.27.31s-.17.14-.28.21c-.11.06-.23.11-.36.14-.13.03-.26.05-.4.05-.23,0-.44-.04-.64-.12-.2-.08-.37-.2-.51-.35-.14-.15-.24-.33-.31-.54-.07-.21-.1-.43-.1-.65,0-.31.06-.62.18-.91s.28-.54.49-.72c.21-.18.44-.31.7-.39s.54-.11.84-.11c.22,0,.46.02.74.06.02-.31.03-.63.03-.97v-.24c.22,0,.4,0,.52,0,.16,0,.33,0,.52,0-.05.6-.1,1.43-.15,2.47s-.07,1.84-.07,2.4ZM48.43,92.17c-.18-.05-.35-.07-.52-.07-.19,0-.37.03-.54.08s-.32.14-.46.27-.23.29-.31.49-.11.39-.11.57.03.35.1.5c.07.15.17.27.31.36.14.09.29.13.47.13.13,0,.25-.02.36-.07.11-.05.21-.12.29-.21.09-.1.16-.22.22-.37.06-.15.1-.35.13-.61.02-.19.03-.54.05-1.06Z"/>
    <path class="cls-1" d="M51.73,95.08l-.08-.79c.23.1.43.16.59.2.16.04.31.06.45.06s.25-.02.34-.05c.09-.03.16-.08.21-.14.05-.06.07-.13.07-.2,0-.03,0-.06,0-.09,0-.03-.02-.05-.03-.08-.02-.03-.03-.06-.05-.08-.02-.02-.05-.05-.08-.09-.04-.03-.09-.07-.15-.12l-.19-.15c-.19-.15-.33-.26-.43-.34-.1-.08-.18-.17-.25-.26-.07-.09-.12-.18-.15-.27-.03-.1-.05-.19-.05-.29,0-.17.05-.34.16-.5.11-.16.26-.27.46-.34.2-.07.44-.11.72-.11.31,0,.67.04,1.08.11l.05.75c-.28-.11-.54-.17-.8-.17-.14,0-.26.01-.36.04s-.18.07-.22.12-.07.12-.07.19c0,.04,0,.08.02.12.01.04.04.08.08.12.04.04.08.08.12.12.05.04.14.11.29.22.15.11.28.21.39.3.11.09.2.18.27.27.07.09.13.19.16.29.04.1.06.21.06.32,0,.18-.05.34-.16.5-.11.15-.28.27-.5.36s-.47.13-.74.13c-.14,0-.32-.01-.52-.03-.21-.02-.42-.06-.66-.12Z"/>
    <path class="cls-1" d="M59.52,94.32c-.01.1-.03.21-.05.33-.02.12-.05.28-.08.46-.34.08-.68.12-1.01.12-.19,0-.38-.02-.56-.05-.18-.04-.35-.1-.5-.19-.15-.09-.29-.21-.41-.36s-.2-.33-.26-.54c-.06-.21-.09-.43-.09-.66,0-.3.05-.59.15-.86.1-.28.24-.5.42-.68.19-.18.39-.29.62-.36.23-.06.48-.09.76-.09.16,0,.31,0,.48.03.16.02.36.05.58.11l.05.78c-.35-.12-.66-.18-.93-.18-.16,0-.31.03-.46.08-.14.05-.27.14-.37.26-.1.12-.18.25-.22.41s-.07.31-.07.48c0,.23.04.42.11.59.07.17.19.29.36.38.17.09.37.14.59.14.11,0,.24-.01.39-.04.15-.03.32-.07.49-.13Z"/>
    <path class="cls-1" d="M62.16,92.31c.03-.17.05-.29.06-.36s.02-.17.04-.31c.32-.08.61-.13.86-.16s.49-.05.72-.05c.26,0,.5.03.72.09.22.06.39.16.52.29.12.13.19.32.19.57,0,.14-.02.48-.06,1.04s-.06,1.13-.07,1.72c-.18,0-.35,0-.5,0s-.32,0-.51,0c.03-.29.06-.62.08-1l.05-.89c-.09.06-.16.1-.21.12-.05.02-.1.05-.16.07-.06.02-.16.05-.32.09-.15.04-.27.08-.36.11-.09.03-.17.07-.25.11s-.13.08-.18.13c-.05.05-.09.1-.11.15-.02.05-.03.11-.03.17,0,.1.03.19.09.26.06.07.13.12.22.15.09.03.19.04.31.04.08,0,.16,0,.24-.02.08-.01.2-.04.34-.09-.05.14-.11.34-.18.61-.17.03-.3.05-.4.05-.1,0-.19.01-.28.01-.3,0-.55-.04-.74-.12-.19-.08-.34-.21-.43-.39-.09-.18-.14-.35-.14-.53,0-.1.02-.2.05-.3s.09-.19.16-.27c.07-.08.16-.16.27-.24.11-.08.27-.15.48-.22s.48-.15.82-.22c.09-.02.18-.04.28-.07.1-.03.18-.05.23-.08.06-.03.11-.06.15-.1.04-.04.07-.09.09-.13.02-.05.03-.09.03-.14,0-.09-.03-.17-.09-.24-.06-.06-.14-.11-.24-.13-.1-.03-.2-.04-.32-.04-.43,0-.91.1-1.44.31Z"/>
    <path class="cls-1" d="M67.57,96.78c.06-.66.11-1.52.16-2.58.05-1.06.07-1.92.07-2.57.45-.08.8-.13,1.05-.16.25-.03.49-.04.74-.04.32,0,.62.04.89.11s.48.2.64.38c.16.18.28.39.36.62s.12.48.12.74-.04.51-.11.75-.19.46-.34.65c-.15.19-.33.33-.53.42s-.42.13-.66.13c-.14,0-.28-.02-.42-.05-.14-.03-.26-.08-.36-.13-.1-.05-.19-.11-.26-.17s-.15-.14-.25-.25l-.05,1.55v.24s0,.15,0,.36c-.22,0-.39,0-.51,0h-.53ZM68.79,92.29c-.02.13-.03.24-.04.33l-.02.4c0,.17-.01.3-.01.38,0,.15.01.28.04.42s.09.26.18.37c.09.11.2.2.32.25.12.06.25.09.38.09.18,0,.35-.05.5-.16.15-.1.27-.25.35-.45.08-.2.12-.41.12-.64,0-.25-.04-.46-.13-.63-.09-.17-.21-.3-.36-.38s-.32-.12-.51-.12c-.25,0-.52.05-.81.14Z"/>
    <path class="cls-1" d="M73.84,95.15c.04-.36.06-.66.08-.9.02-.38.05-.82.06-1.32.02-.5.03-.97.04-1.42.23,0,.41,0,.52,0,.11,0,.28,0,.52,0-.03.41-.06.81-.08,1.19-.02.38-.03.81-.04,1.29s-.01.87-.01,1.15c-.22,0-.39,0-.52,0-.12,0-.31,0-.56,0ZM74.04,90.89c0-.25.01-.43.01-.56v-.11c.22,0,.39,0,.53,0,.19,0,.36,0,.52,0,0,.06-.01.13-.01.2l-.02.48c-.18,0-.35,0-.5,0s-.33,0-.53,0Z"/>
    <path class="cls-1" d="M77.4,95.15c.05-.54.1-1.15.14-1.82.04-.67.06-1.28.06-1.81.22,0,.4,0,.53,0,.16,0,.32,0,.49,0l-.04.61c.07-.1.14-.19.2-.25.06-.06.13-.12.21-.18.09-.06.18-.11.28-.14.1-.04.21-.06.33-.09.12-.02.25-.03.38-.03.21,0,.42.03.61.08.19.05.35.14.47.26.12.12.2.24.24.38.04.14.06.28.06.44,0,.06,0,.17-.01.31l-.07,1.56c0,.22-.02.45-.02.69-.19,0-.35,0-.48,0-.18,0-.36,0-.55,0,.02-.21.04-.57.07-1.08.03-.52.04-.86.04-1.02,0-.19-.03-.34-.09-.45-.06-.11-.15-.2-.28-.26-.13-.06-.26-.09-.41-.09s-.28.03-.4.08-.23.13-.32.24c-.1.11-.17.24-.22.4-.05.17-.1.44-.12.82-.02.34-.04.8-.06,1.37-.18,0-.35,0-.5,0s-.33,0-.55,0Z"/>
    <path class="cls-1" d="M84,95.9c.54.18,1,.26,1.4.26.15,0,.29-.02.43-.06s.25-.09.34-.16.16-.17.21-.28.08-.26.1-.42c.02-.16.03-.4.04-.72-.09.13-.18.22-.25.29s-.16.13-.27.19c-.1.06-.23.1-.36.14-.14.03-.28.05-.44.05-.21,0-.41-.03-.6-.1-.19-.07-.36-.17-.5-.31s-.26-.32-.33-.53c-.08-.21-.11-.44-.11-.67,0-.33.06-.64.19-.94.13-.3.31-.54.55-.73.24-.19.5-.32.78-.39s.58-.11.92-.11c.19,0,.4.01.63.03s.55.07.94.14l-.08,1.13-.08,1.42-.03,1.28c0,.15-.02.28-.05.42s-.07.26-.14.36c-.06.11-.14.2-.24.29-.1.08-.2.15-.32.2-.12.05-.27.09-.45.13s-.37.05-.57.05c-.22,0-.46-.01-.74-.04-.28-.03-.58-.08-.91-.16l-.05-.77ZM86.62,92.23c-.21-.04-.4-.06-.58-.06-.31,0-.57.06-.77.17-.2.11-.36.28-.47.5-.11.22-.16.45-.16.69,0,.18.03.35.1.5.07.15.17.27.31.35.14.08.3.12.47.12.12,0,.24-.02.34-.06s.2-.1.29-.18c.09-.08.16-.18.23-.29.07-.12.11-.25.14-.39.03-.15.05-.33.06-.55.01-.22.03-.48.04-.79Z"/>
    <path class="cls-1" d="M100.97,94.25c-.05.28-.1.56-.14.85-.27.05-.52.08-.75.1-.23.02-.42.03-.58.03-.36,0-.7-.05-1.03-.15-.33-.1-.62-.26-.88-.47-.26-.22-.45-.48-.57-.78s-.18-.64-.18-1.01c0-.4.07-.76.21-1.1.14-.34.34-.62.61-.85.26-.23.58-.4.94-.52.36-.11.74-.17,1.13-.17s.81.04,1.27.13c0,.21.01.36.02.45l.03.38c-.27-.07-.49-.12-.67-.15-.18-.03-.35-.04-.51-.04-.26,0-.5.04-.74.12-.24.08-.44.2-.62.37-.18.17-.32.37-.42.61-.1.24-.14.49-.14.75,0,.31.06.59.18.83s.31.44.57.6c.26.15.59.23.98.23.36,0,.79-.07,1.29-.21Z"/>
    <path class="cls-1" d="M105.25,91.43c.27,0,.54.04.79.12.25.08.47.2.64.36.18.16.31.36.4.59s.13.48.13.73c0,.27-.05.53-.14.79-.09.25-.23.47-.4.66s-.4.32-.66.41c-.26.09-.54.14-.84.14-.28,0-.54-.04-.79-.12s-.46-.21-.64-.37c-.18-.16-.31-.36-.4-.6-.09-.24-.14-.48-.14-.74s.04-.51.13-.75c.08-.24.21-.45.39-.64.18-.19.4-.33.68-.43.28-.1.56-.15.86-.15ZM105.25,92.16c-.21,0-.39.05-.55.15-.16.1-.28.25-.36.45-.08.2-.12.42-.12.65,0,.21.03.39.1.55.07.16.17.29.32.39.15.1.33.15.53.15s.39-.05.55-.16c.16-.1.28-.26.36-.46.08-.2.12-.42.12-.67,0-.2-.03-.38-.09-.54-.06-.16-.17-.29-.31-.39s-.32-.15-.53-.15Z"/>
    <path class="cls-1" d="M109.42,95.15c.05-.54.1-1.15.14-1.82.04-.67.06-1.28.06-1.81.22,0,.4,0,.53,0,.16,0,.32,0,.49,0l-.04.61c.07-.1.14-.19.2-.25.06-.06.13-.12.21-.18.09-.06.18-.11.28-.14.1-.04.21-.06.33-.09.12-.02.25-.03.38-.03.21,0,.42.03.61.08.19.05.35.14.47.26.12.12.2.24.24.38.04.14.06.28.06.44,0,.06,0,.17-.01.31l-.07,1.56c0,.22-.02.45-.02.69-.19,0-.35,0-.48,0-.18,0-.36,0-.55,0,.02-.21.04-.57.07-1.08.03-.52.04-.86.04-1.02,0-.19-.03-.34-.09-.45-.06-.11-.15-.2-.28-.26-.13-.06-.26-.09-.41-.09s-.28.03-.4.08-.23.13-.32.24c-.1.11-.17.24-.22.4-.05.17-.1.44-.12.82-.02.34-.04.8-.06,1.37-.18,0-.35,0-.5,0s-.33,0-.55,0Z"/>
    <path class="cls-1" d="M118,94.4c-.03.13-.07.37-.14.73-.2.05-.36.07-.47.09-.11.01-.22.02-.32.02-.18,0-.33-.02-.47-.05s-.25-.09-.35-.18c-.09-.08-.15-.18-.18-.3-.03-.11-.05-.23-.05-.35,0-.03,0-.07,0-.12,0-.05.01-.22.03-.51l.08-1.49h-.52c.01-.14.02-.37.03-.69h.54c.01-.14.03-.37.04-.7l.42-.08c.09-.02.26-.06.51-.12-.02.32-.03.62-.03.9h.91c-.02.32-.03.55-.03.69h-.91c-.05.97-.08,1.53-.08,1.68s.02.26.05.34c.03.08.08.14.16.18.07.04.15.05.23.05.06,0,.12,0,.19-.01.07,0,.18-.04.35-.08Z"/>
    <path class="cls-1" d="M120.12,95.15l.1-1.7.03-.99c0-.2,0-.41,0-.61,0-.04,0-.15,0-.34.22,0,.39,0,.49,0,.12,0,.28,0,.48,0l-.02.5c.09-.13.17-.22.23-.29.06-.06.14-.12.22-.16.08-.05.17-.08.27-.1.1-.02.2-.04.3-.04.1,0,.19.01.29.04,0,.22.01.5.03.84-.14-.04-.27-.06-.38-.06-.14,0-.26.02-.37.06-.11.04-.2.1-.29.19s-.15.19-.21.31c-.05.1-.08.23-.1.39-.02.12-.03.34-.05.64-.01.3-.02.6-.02.89,0,.11,0,.25.01.42-.18,0-.35,0-.5,0s-.32,0-.53,0Z"/>
    <path class="cls-1" d="M124.87,92.31c.03-.17.05-.29.06-.36s.02-.17.04-.31c.32-.08.61-.13.86-.16.25-.03.49-.05.72-.05.26,0,.5.03.72.09s.39.16.52.29.19.32.19.57c0,.14-.02.48-.06,1.04s-.06,1.13-.07,1.72c-.18,0-.35,0-.5,0s-.32,0-.51,0c.03-.29.06-.62.08-1l.05-.89c-.09.06-.16.1-.21.12-.05.02-.1.05-.16.07-.06.02-.16.05-.32.09-.15.04-.27.08-.36.11-.09.03-.17.07-.25.11s-.13.08-.18.13c-.05.05-.09.1-.11.15-.02.05-.03.11-.03.17,0,.1.03.19.09.26.06.07.13.12.22.15.09.03.19.04.31.04.08,0,.16,0,.24-.02.08-.01.2-.04.34-.09-.05.14-.11.34-.18.61-.17.03-.3.05-.4.05-.1,0-.19.01-.28.01-.3,0-.55-.04-.74-.12-.19-.08-.34-.21-.43-.39s-.14-.35-.14-.53c0-.1.02-.2.05-.3.04-.1.09-.19.16-.27.07-.08.16-.16.27-.24.11-.08.27-.15.48-.22.21-.07.48-.15.82-.22.09-.02.19-.04.28-.07.1-.03.18-.05.23-.08.06-.03.11-.06.15-.1.04-.04.07-.09.09-.13.02-.05.03-.09.03-.14,0-.09-.03-.17-.09-.24s-.14-.11-.24-.13c-.1-.03-.2-.04-.32-.04-.43,0-.91.1-1.44.31Z"/>
    <path class="cls-1" d="M133.23,94.32c-.01.1-.03.21-.05.33-.02.12-.05.28-.08.46-.34.08-.68.12-1.01.12-.19,0-.38-.02-.56-.05-.18-.04-.35-.1-.5-.19-.15-.09-.29-.21-.41-.36s-.2-.33-.26-.54c-.06-.21-.09-.43-.09-.66,0-.3.05-.59.14-.86.1-.28.24-.5.42-.68s.39-.29.62-.36c.23-.06.48-.09.76-.09.16,0,.31,0,.48.03.16.02.36.05.58.11l.05.78c-.35-.12-.66-.18-.93-.18-.16,0-.31.03-.46.08-.14.05-.27.14-.37.26-.1.12-.18.25-.22.41s-.07.31-.07.48c0,.23.04.42.11.59.07.17.19.29.36.38.17.09.37.14.59.14.11,0,.24-.01.39-.04.15-.03.32-.07.49-.13Z"/>
    <path class="cls-1" d="M137.82,94.4c-.03.13-.07.37-.14.73-.2.05-.36.07-.47.09-.11.01-.22.02-.32.02-.18,0-.33-.02-.47-.05s-.25-.09-.35-.18c-.09-.08-.15-.18-.18-.3-.03-.11-.05-.23-.05-.35,0-.03,0-.07,0-.12,0-.05.01-.22.03-.51l.08-1.49h-.52c.01-.14.02-.37.03-.69h.54c.01-.14.03-.37.04-.7l.42-.08c.09-.02.26-.06.51-.12-.02.32-.03.62-.03.9h.91c-.02.32-.03.55-.03.69h-.91c-.05.97-.08,1.53-.08,1.68s.02.26.05.34c.03.08.08.14.16.18.07.04.15.05.23.05.06,0,.12,0,.19-.01.07,0,.18-.04.35-.08Z"/>
    <path class="cls-1" d="M141.89,91.43c.27,0,.54.04.79.12.25.08.47.2.64.36.18.16.31.36.4.59s.13.48.13.73c0,.27-.05.53-.14.79-.09.25-.23.47-.4.66s-.4.32-.66.41c-.26.09-.54.14-.84.14-.28,0-.54-.04-.79-.12s-.46-.21-.64-.37c-.18-.16-.31-.36-.4-.6-.09-.24-.14-.48-.14-.74s.04-.51.13-.75c.08-.24.21-.45.39-.64.18-.19.4-.33.68-.43.28-.1.56-.15.86-.15ZM141.89,92.16c-.21,0-.39.05-.55.15-.16.1-.28.25-.36.45-.08.2-.12.42-.12.65,0,.21.03.39.1.55.07.16.17.29.32.39.15.1.33.15.53.15s.39-.05.55-.16c.16-.1.28-.26.36-.46.08-.2.12-.42.12-.67,0-.2-.03-.38-.09-.54-.06-.16-.17-.29-.31-.39s-.32-.15-.53-.15Z"/>
    <path class="cls-1" d="M146.08,95.15l.1-1.7.03-.99c0-.2,0-.41,0-.61,0-.04,0-.15,0-.34.22,0,.39,0,.49,0,.12,0,.28,0,.48,0l-.02.5c.09-.13.17-.22.23-.29.06-.06.14-.12.22-.16.08-.05.17-.08.27-.1.1-.02.2-.04.3-.04.1,0,.19.01.29.04,0,.22.01.5.03.84-.14-.04-.27-.06-.38-.06-.14,0-.26.02-.37.06-.11.04-.2.1-.29.19s-.15.19-.21.31c-.05.1-.08.23-.1.39-.02.12-.03.34-.05.64-.01.3-.02.6-.02.89,0,.11,0,.25.01.42-.18,0-.35,0-.5,0s-.32,0-.53,0Z"/>
  </g>
  <g>
    <path class="cls-1" d="M76.17,71.53c-2.26-3.25-9.55-13.48-13.85-16.38v17.2l13.85-.81Z"/>
    <path class="cls-1" d="M82.28,71.18l.59-.03c-.86-4.1-3.61-16.29-7.12-23.53h-4.14s7.71,7.17,10.68,23.57Z"/>
    <path class="cls-1" d="M79.43,71.34l1.21-.07c-1.08-3.84-4.78-15.62-11.44-23.66h-6.86v2.17s8.8,5.77,17.1,21.56Z"/>
    <path class="cls-1" d="M85.28,71l1.02-.06c-.73-3.22-2.03-11.11-.36-21.73,2.21-14.04,8.19-20.69,8.19-20.69h-18.07l-.24,9.43s9.78,16.91,9.46,33.04Z"/>
    <path class="cls-1" d="M90.03,70.72c2.76-18.81,11.94-28.85,11.94-28.85l.42-13.04-4.49-.31c-9.88,19.13-9.67,37.17-9.37,42.29l1.5-.09Z"/>
    <path class="cls-1" d="M94.81,70.44c1.54-9.15,7.7-9.12,7.7-9.12-3.57,2.87-5.29,6.66-6.07,9.02l14.94-.88-2.9-24.53-5.29.78s-6.68,10.82-10.32,24.83l1.93-.11Z"/>
  </g>
</svg>