<?xml version="1.0" encoding="UTF-8"?>
<svg id="Capa_10" data-name="Capa 10" xmlns="http://www.w3.org/2000/svg" viewBox="0 0 177.4 125.4">
  <defs>
    <style>
      .cls-1 {
        fill: #fff;
        stroke-width: 0px;
      }
    </style>
  </defs>
  <path class="cls-1" d="M63.04,63.63c0-.1,0-.19-.1-.29s-.48-.58-6.09-.87c.48-3.58-.39-6.96-2.51-9.47-2.13-2.51-5.31-3.96-8.99-3.96-5.31,0-10.73,2.9-14.21,7.54-.39,0-1.35.1-2.61.19-.77.1-1.45.1-2.03.19-3.19.39-3.38.77-3.58.87h0c-1.26,2.32-1.26,6.18-1.26,6.28h0v.19c.1.19.29.77,5.6.77h.39v.19h0v1.45c0,.29,0,.48.1.68v.29c0,.19,0,.29.1.48v.19c0,.19.1.39.1.48v.19h0c0,.19.1.29.1.48h0l.1.19h0c1.55,4.74,5.7,7.63,11.02,7.63,5.03,0,10.24-2.71,13.72-6.96,5.12-.19,7.25-.48,8.02-.77v.68l.58-1.06v-.1c1.45-1.74,1.55-5.22,1.55-5.51ZM61.4,69.14c-.19-.1-.58-.1-1.16-.1h-1.16c-1.93-.1-2.61-.1-4.54-.19h-14.5c-.1,0-1.64.1-1.74.1-.77,0-1.64.1-2.42.1h-.1c-.29,0-.58,0-.87.1h-1.64c-.19,0-.48,0-.68.1h-.48c-.19,0-.48,0-.68.1h-.48c-.29,0-.48,0-.77.1h-.48c-.29,0-.48,0-.77.1h-.29c0-.1-.1-.19-.1-.29h0v-.1c0-.1-.1-.29-.1-.48v-.19c0-.19,0-.29-.1-.48h0v-2.13h0v-.77c0-.39.1-.68.19-1.06v-.1c2.8-.29,7.63-.58,10.34-.68,6.57-.19,12.76-.19,17.49.1h0c3.96.19,5.51.48,5.89.58.19.39,0,3.29-.87,5.22ZM23.62,58.41c.19-.19,1.45-.39,3.09-.58h.1c.48-.1.97-.1,1.45-.19,4.25-.39,10.63-.58,10.63-.58.19,0,.29-.1.29-.29s-.1-.29-.29-.29h0c-.1,0-3.38.1-6.86.29,3.38-4.25,8.41-6.86,13.34-6.86,3.48,0,6.57,1.35,8.6,3.67,2.03,2.42,2.8,5.6,2.32,8.99h0c-4.74-.19-10.82-.19-17.2,0-2.9.1-7.92.48-10.63.68h-.19c-.19,0-.48,0-.77.1-.68.1-1.45.1-2.13.19-1.64.19-2.51.39-2.9.48,0-1.26.19-3.87,1.16-5.6ZM22.84,64.4c.77-.1,2.03-.29,2.61-.39.58-.1,1.35-.19,2.03-.19.19,0,.39,0,.58-.1v.58c0,.1,0,.29-.1.39h-.48c-2.42,0-3.96-.1-4.64-.29ZM39.46,77.16c-5.03,0-8.99-2.71-10.44-7.05.19,0,.39,0,.58-.1h.39c.29,0,.48,0,.77-.1h.39c.29,0,.48,0,.77-.1h.48c.29,0,.48,0,.77-.1h.39c.29,0,.58,0,.87-.1h.29c.39,0,.68,0,1.06-.1h.1c.87,0,1.64-.1,2.51-.1,0,0,.87,0,1.45-.1h1.55c3.67-.1,9.76,0,11.98,0l-.1.1c0,.1-.1.1-.1.19-.1.1-.1.19-.19.19,0,.1-.1.1-.1.19-.1.1-.1.19-.19.19-3.29,4.25-8.31,6.96-13.24,6.96ZM53.77,70.01c.1-.1.1-.19.19-.29,0-.1.1-.1.1-.19s.1-.1.1-.19h.39c1.84,0,2.61,0,4.45.19h.29c.29,0,.77,0,1.16.1-.97.19-3.09.39-6.86.58q.1-.1.19-.19Z"/>
  <path class="cls-1" d="M83.24,66.33c-.48-.39-1.06-.58-1.06-.58-.48-.1-.1-.19-.1-.19.39,0,2.03-.1,3.19-.77,1.26-.87,1.93-1.84,1.84-3.38,0-.58-.1-.97-.48-1.55-.29-.48-.68-.77-1.16-.97-.48-.29-1.06-.48-1.74-.58-.68-.1-1.45-.19-2.32-.19h-6.09c-.58,0-1.16.48-1.35,1.16l-2.22,10.73c-.19,1.06.77,1.16,1.06,1.16h3.67l1.06-5.41c.29,0,.97-.1,1.35.58,1.93,2.9,2.9,4.83,2.9,4.83h5.41c-2.22-3.09-3-3.96-3.96-4.83ZM81.6,63.24c-.58.39-1.35.58-2.32.58h-1.16l.77-3.48h1.16c.77,0,1.35.1,1.74.29s.58.58.68,1.16c-.1.58-.29,1.06-.87,1.45Z"/>
  <path class="cls-1" d="M151.37,68.75l2.22-10.53h-3.77c-.58,0-1.16.48-1.35,1.16l-2.22,10.73c-.19,1.06.77,1.16,1.06,1.16h6.86c.58,0,1.16-.48,1.26-1.06l.29-1.45h-4.35Z"/>
  <path class="cls-1" d="M135.52,57.93c-4.16,1.16-7.54,5.31-6.86,9.08.77,3.77,5.03,5.41,9.57,4.54,4.74-1.16,7.54-5.12,7.05-8.89-.77-3.87-4.83-5.8-9.76-4.74ZM139,66.72c-1.64,1.93-3.87,2.51-4.93,1.35-1.16-1.16-.68-3.67.97-5.6s3.87-2.51,4.93-1.35c1.06,1.16.68,3.67-.97,5.6Z"/>
  <path class="cls-1" d="M90.78,59.28l-2.22,10.73c-.19,1.06.77,1.16,1.06,1.16h8.21c.58,0,1.16-.48,1.26-1.06l.29-1.45h-5.7l.58-2.71h4.64c.58,0,1.16-.48,1.35-1.16l.29-1.35h-5.7l.58-2.8h4.64c.58,0,1.16-.48,1.35-1.16l.29-1.35h-9.57c-.68.1-1.26.58-1.35,1.16Z"/>
  <path class="cls-1" d="M129.63,59.57l.29-1.35h-4.45c-.68,0-4.83.1-5.6,4.06l-.68,3.09c-.48,2.61-.68,3.38-3.38,3.38h-1.64c-.68.1-1.16.39-1.35,1.16l-.29,1.35h6.86c.29,0,3.77-.1,4.54-4.06l.68-3.09c.48-2.61.68-3.38,3.38-3.38h.29c.68,0,1.16-.48,1.35-1.16Z"/>
  <path class="cls-1" d="M117.16,61.79c0-.68-.19-1.35-.48-1.74-.29-.48-.77-.77-1.26-1.06-.58-.29-1.16-.48-1.93-.58s-1.55-.19-2.61-.19h-5.41c-.58,0-1.16.48-1.35,1.16l-2.22,10.73c-.19,1.26,1.06,1.16,1.06,1.16h3.58l.97-4.54h1.45c2.71,0,4.74-.39,6.09-1.26,1.55-.87,2.13-2.13,2.13-3.67ZM111.46,63.53c-.68.39-1.55.58-2.71.58h-.68l.77-3.87h.87c.87,0,1.45.1,1.93.39.48.29.68.58.68,1.16.1.68-.19,1.35-.87,1.74Z"/>
</svg>