<?xml version="1.0" encoding="utf-8"?>
<!-- Generator: Adobe Illustrator 28.3.0, SVG Export Plug-In . SVG Version: 6.00 Build 0)  -->
<svg version="1.1" id="Capa_1" xmlns="http://www.w3.org/2000/svg" xmlns:xlink="http://www.w3.org/1999/xlink" x="0px" y="0px"
	 viewBox="0 0 177.4 125.4" style="enable-background:new 0 0 177.4 125.4;" xml:space="preserve">
<style type="text/css">
	.st0{fill:#FFFFFF;}
</style>
<g>
	<path class="st0" d="M62.1,62.9c0-0.1,0-0.2-0.1-0.3s-0.5-0.6-6.3-0.9c0.5-3.7-0.4-7.2-2.6-9.8c-2.2-2.6-5.5-4.1-9.3-4.1
		c-5.5,0-11.1,3-14.7,7.8c-0.4,0-1.4,0.1-2.7,0.2c-0.8,0.1-1.5,0.1-2.1,0.2c-3.3,0.4-3.5,0.8-3.7,0.9l0,0c-1.3,2.4-1.3,6.4-1.3,6.5
		l0,0c0,0.1,0,0.1,0,0.2c0.1,0.2,0.3,0.8,5.8,0.8c0.1,0,0.3,0,0.4,0c0,0.1,0,0.1,0,0.2l0,0c0,0.2,0,0.4,0,0.7c0,0.1,0,0.3,0,0.4
		s0,0.2,0,0.4c0,0.3,0,0.5,0.1,0.7v0.1V67v0.1c0,0.2,0,0.3,0.1,0.5v0.2c0,0.2,0.1,0.4,0.1,0.5s0,0.1,0,0.2l0,0
		c0,0.2,0.1,0.3,0.1,0.5l0,0l0,0l0,0l0,0l0.1,0.2l0,0c1.6,4.9,5.9,7.9,11.4,7.9c5.2,0,10.6-2.8,14.2-7.2c5.3-0.2,7.5-0.5,8.3-0.8
		v0.7l0.6-1.1c0,0,0,0,0-0.1C62,66.8,62.1,63.2,62.1,62.9z M60.4,68.6c-0.2-0.1-0.6-0.1-1.2-0.1l0,0h-0.1l0,0c-0.1,0-0.1,0-0.2,0
		l0,0c-0.2,0-0.4,0-0.6,0H58c-2-0.1-2.7-0.1-4.7-0.2l0,0l0,0h-0.5c0,0,0,0-0.1,0l0,0l0,0c-0.4,0-1.3,0-2.4,0c-3.4,0-9.1,0-12,0
		c-0.1,0-1.7,0.1-1.8,0.1c-0.8,0-1.7,0.1-2.5,0.1h-0.1c-0.3,0-0.6,0-0.9,0.1c-0.1,0-0.3,0-0.4,0c-0.3,0-0.5,0-0.8,0
		c-0.2,0-0.3,0-0.5,0s-0.5,0-0.7,0.1c-0.2,0-0.4,0-0.5,0c-0.2,0-0.5,0-0.7,0.1c-0.2,0-0.3,0-0.5,0c-0.3,0-0.5,0-0.8,0.1
		c-0.2,0-0.3,0-0.5,0c-0.3,0-0.5,0-0.8,0.1c-0.1,0-0.2,0-0.3,0c0-0.1-0.1-0.2-0.1-0.3l0,0v-0.1c0-0.1-0.1-0.3-0.1-0.5v-0.2
		c0-0.2,0-0.3-0.1-0.5l0,0v-0.1v-0.1c0-0.2,0-0.4,0-0.7c0-0.1,0-0.2,0-0.3c0-0.1,0-0.3,0-0.4c0-0.2,0-0.4,0-0.6l0,0
		c0-0.2,0-0.4,0-0.5s0-0.2,0-0.3c0-0.4,0.1-0.7,0.2-1.1c0,0,0,0,0-0.1c2.9-0.3,7.9-0.6,10.7-0.7c6.8-0.2,13.2-0.2,18.1,0.1l0,0l0,0
		c4.1,0.2,5.7,0.5,6.1,0.6C61.5,63.6,61.3,66.6,60.4,68.6z M21.3,57.5c0.2-0.2,1.5-0.4,3.2-0.6l0,0h0.1c0.5-0.1,1-0.1,1.5-0.2
		c4.4-0.4,11-0.6,11-0.6c0.2,0,0.3-0.1,0.3-0.3s-0.1-0.3-0.3-0.3l0,0c-0.1,0-3.5,0.1-7.1,0.3c3.5-4.4,8.7-7.1,13.8-7.1
		c3.6,0,6.8,1.4,8.9,3.8c2.1,2.5,2.9,5.8,2.4,9.3l0,0c-4.9-0.2-11.2-0.2-17.8,0c-3,0.1-8.2,0.5-11,0.7h-0.2l0,0
		c-0.2,0-0.5,0-0.8,0.1c-0.7,0.1-1.5,0.1-2.2,0.2c-1.7,0.2-2.6,0.4-3,0.5C20.1,62,20.3,59.3,21.3,57.5z M20.5,63.7
		c0.8-0.1,2.1-0.3,2.7-0.4c0.6-0.1,1.4-0.2,2.1-0.2c0.2,0,0.4,0,0.6-0.1v0.1c0,0.1,0,0.2,0,0.3s0,0.1,0,0.2c0,0.1,0,0.3-0.1,0.4l0,0
		l0,0c-0.2,0-0.3,0-0.5,0C22.8,64,21.2,63.9,20.5,63.7z M37.7,76.9c-5.2,0-9.3-2.8-10.8-7.3c0.2,0,0.4,0,0.6-0.1c0.1,0,0.3,0,0.4,0
		c0.3,0,0.5,0,0.8-0.1c0.1,0,0.3,0,0.4,0c0.3,0,0.5,0,0.8-0.1c0.2,0,0.3,0,0.5,0c0.3,0,0.5,0,0.8-0.1c0.1,0,0.3,0,0.4,0
		c0.3,0,0.6,0,0.9-0.1c0.1,0,0.2,0,0.3,0c0.4,0,0.7,0,1.1-0.1H34c0.9,0,1.7-0.1,2.6-0.1c0,0,0.9,0,1.5-0.1c0.2,0,0.3,0,0.3,0l0,0
		l0,0l0,0l0,0c0.1,0,0.2,0,0.3,0h0.1c0.1,0,0.2,0,0.3,0h0.1c0.1,0,0.2,0,0.2,0c0.1,0,0.1,0,0.2,0h0.1c3.8-0.1,10.1,0,12.4,0L52,68.9
		c0,0.1-0.1,0.1-0.1,0.2c-0.1,0.1-0.1,0.2-0.2,0.2c0,0.1-0.1,0.1-0.1,0.2c-0.1,0.1-0.1,0.2-0.2,0.2C48,74.1,42.8,76.9,37.7,76.9z
		 M52.5,69.5c0.1-0.1,0.1-0.2,0.2-0.3c0-0.1,0.1-0.1,0.1-0.2s0.1-0.1,0.1-0.2c0.3,0,0.4,0,0.4,0c1.9,0,2.7,0,4.6,0.2h0.3
		c0.3,0,0.8,0,1.2,0.1c-1,0.2-3.2,0.4-7.1,0.6C52.4,69.6,52.4,69.6,52.5,69.5z"/>
	<path class="st0" d="M83,65.7c-0.5-0.4-1.1-0.6-1.1-0.6c-0.5-0.1-0.1-0.2-0.1-0.2c0.4,0,2.1-0.1,3.3-0.8c1.3-0.9,2-1.9,1.9-3.5
		c0-0.6-0.1-1-0.5-1.6c-0.3-0.5-0.7-0.8-1.2-1c-0.5-0.3-1.1-0.5-1.8-0.6c-0.7-0.1-1.5-0.2-2.4-0.2h-6.3c-0.6,0-1.2,0.5-1.4,1.2
		l-2.3,11.1c-0.2,1.1,0.8,1.2,1.1,1.2H76l1.1-5.6c0.3,0,1-0.1,1.4,0.6c2,3,3,5,3,5h5.6C84.8,67.5,84,66.6,83,65.7z M81.3,62.5
		c-0.6,0.4-1.4,0.6-2.4,0.6h-1.2l0.8-3.6h1.2c0.8,0,1.4,0.1,1.8,0.3s0.6,0.6,0.7,1.2C82.1,61.6,81.9,62.1,81.3,62.5z"/>
	<path class="st0" d="M153.5,68.2l2.3-10.9h-3.9c-0.6,0-1.2,0.5-1.4,1.2l-2.3,11.1c-0.2,1.1,0.8,1.2,1.1,1.2h7.1
		c0.6,0,1.2-0.5,1.3-1.1l0.3-1.5H153.5z"/>
	<path class="st0" d="M137.1,57c-4.3,1.2-7.8,5.5-7.1,9.4c0.8,3.9,5.2,5.6,9.9,4.7c4.9-1.2,7.8-5.3,7.3-9.2
		C146.4,57.9,142.2,55.9,137.1,57z M140.7,66.1c-1.7,2-4,2.6-5.1,1.4c-1.2-1.2-0.7-3.8,1-5.8s4-2.6,5.1-1.4
		C142.8,61.5,142.4,64.1,140.7,66.1z"/>
	<path class="st0" d="M90.8,58.4l-2.3,11.1c-0.2,1.1,0.8,1.2,1.1,1.2h8.5c0.6,0,1.2-0.5,1.3-1.1l0.3-1.5h-5.9l0.6-2.8h4.8
		c0.6,0,1.2-0.5,1.4-1.2l0.3-1.4H95l0.6-2.9h4.8c0.6,0,1.2-0.5,1.4-1.2l0.3-1.4h-9.9C91.5,57.3,90.9,57.8,90.8,58.4z"/>
	<path class="st0" d="M131,58.7l0.3-1.4h-4.6c-0.7,0-5,0.1-5.8,4.2l-0.7,3.2c-0.5,2.7-0.7,3.5-3.5,3.5H115c-0.7,0.1-1.2,0.4-1.4,1.2
		l-0.3,1.4h7.1c0.3,0,3.9-0.1,4.7-4.2l0.7-3.2c0.5-2.7,0.7-3.5,3.5-3.5h0.3C130.3,59.9,130.8,59.4,131,58.7z"/>
	<path class="st0" d="M118.1,61c0-0.7-0.2-1.4-0.5-1.8c-0.3-0.5-0.8-0.8-1.3-1.1c-0.6-0.3-1.2-0.5-2-0.6s-1.6-0.2-2.7-0.2H106
		c-0.6,0-1.2,0.5-1.4,1.2l-2.3,11.1c-0.2,1.3,1.1,1.2,1.1,1.2h3.7l1-4.7h1.5c2.8,0,4.9-0.4,6.3-1.3C117.5,63.9,118.1,62.6,118.1,61z
		 M112.2,62.8c-0.7,0.4-1.6,0.6-2.8,0.6h-0.7l0.8-4h0.9c0.9,0,1.5,0.1,2,0.4c0.5,0.3,0.7,0.6,0.7,1.2
		C113.2,61.7,112.9,62.4,112.2,62.8z"/>
</g>
</svg>
