<?xml version="1.0" encoding="UTF-8"?>
<svg id="Capa_7" data-name="Capa 7" xmlns="http://www.w3.org/2000/svg" viewBox="0 0 177.4 125.4">
  <defs>
    <style>
      .cls-1 {
        fill: none;
      }

      .cls-1, .cls-2 {
        stroke-width: 0px;
      }

      .cls-2 {
        fill: #fff;
      }
    </style>
  </defs>
  <path class="cls-1" d="M91.11,56.71c-.44-1.28-1.44-1.78-2.71-1.94-1.26-.16-2.51-.05-3.77-.08,0,2.15-.02,4.3-.03,6.45.02.19.15.18.29.18.91,0,1.82.03,2.72-.01.94-.04,1.84-.25,2.58-.92.96-.87,1.36-2.38.91-3.67Z"/>
  <path class="cls-1" d="M132.57,55.13c-.89,2.96-2.11,5.82-3.11,8.8h6.25c-1-2.97-2.24-5.84-3.14-8.8Z"/>
  <path class="cls-1" d="M130.78,75.04c-1.13-.27-2.09.08-2.65.99-.49.81-.58,1.69-.37,2.6.21.88.69,1.58,1.59,1.83.93.26,1.79.09,2.47-.66.52-.58.62-1.31.62-2.11-.01-.18-.02-.42-.04-.65-.09-.95-.78-1.81-1.62-2.01Z"/>
  <path class="cls-1" d="M121.32,75.06v5.36c1.3.04,2.58.13,3.4-1.13.62-.95.58-2.47-.1-3.32-.88-1.09-2.12-.92-3.3-.92Z"/>
  <path class="cls-1" d="M115.25,78.54h2.35c-.41-1.12-.8-2.2-1.18-3.26-.39,1.08-.78,2.16-1.17,3.26Z"/>
  <path class="cls-1" d="M98.09,75.07c-.89-.28-1.72-.14-2.41.54-.72.71-.86,1.61-.78,2.55.07.95.47,1.76,1.36,2.19.84.4,1.71.31,2.46-.25.76-.58.95-1.42.91-2.37.01-.31,0-.66-.1-1-.21-.8-.65-1.4-1.45-1.65Z"/>
  <path class="cls-1" d="M137.88,76.21c-.01-.62-.28-.92-.95-1.09-.49-.13-.98-.07-1.49-.06v2.51c.42,0,.78,0,1.15,0,.13,0,.26-.05.39-.09.59-.17.92-.63.91-1.27Z"/>
  <path class="cls-2" d="M69.67,77.8c-1.88.51-3.8.81-5.73,1.07-2.22.3-4.44.54-6.67.7-2.29.16-4.58.33-6.88.32-.69,0-1.38.02-2.06.11-2.33-.04-4.67-.06-7-.12-1.47-.04-2.95-.11-4.42-.22-1.68-.13-3.36-.3-5.04-.48-1.44-.16-2.88-.35-4.32-.56-1.42-.2-2.83-.47-4.23-.74-.73-.14-1.11.31-.94,1.04.25,1.09.51,2.17.75,3.26.18.82.65,1.41,1.4,1.79.72.35,1.47.63,2.24.86,3.93,1.16,7.98,1.59,12.03,1.91,1.82.14,3.65.26,5.48.22,0,.03.01.06,0,.09h5.04c.11-.15.28-.09.42-.09,2.67-.01,5.32-.22,7.97-.5,2.12-.22,4.22-.54,6.29-1.04,1.76-.42,3.5-.93,5.03-1.96.36-.24.66-.53.79-.94.39-1.25.62-2.54.88-3.82.13-.63-.45-1.05-1.04-.89Z"/>
  <path class="cls-2" d="M23.7,47.51c2.2-.56,4.44-.89,6.68-1.17,2.04-.26,4.09-.47,6.14-.6,2.48-.16,4.95-.31,7.44-.32.92,0,1.85-.02,2.77-.03.05,0,.1.02.15.02,3.52-.02,7.04.12,10.55.4,2.19.18,4.38.41,6.56.69,1.94.25,3.87.6,5.8.94.91.16,1.26-.22,1.04-1.13-.19-.79-.42-1.57-.52-2.37-.21-1.61-1.11-2.57-2.63-3-.05-.01-.09-.04-.14-.06-3.63-1.28-7.42-1.73-11.22-2.11-1.81-.18-3.64-.33-5.46-.32-.08,0-.17,0-.21-.1h-8.57c-.05.12-.16.1-.26.1-1.93.03-3.84.21-5.76.4-2.36.23-4.69.57-6.99,1.13-1.63.4-3.24.89-4.68,1.79-.64.39-1.01.94-1.16,1.66-.2.98-.42,1.95-.64,2.92-.21.93.21,1.38,1.12,1.15Z"/>
  <path class="cls-2" d="M155.75,70.68c-1.82-2.87-3.62-5.74-5.45-8.6-.21-.32-.04-.49.09-.71,1.42-2.25,2.85-4.49,4.28-6.73.38-.6.75-1.2,1.17-1.87-.8,0-1.51.01-2.21,0-.24,0-.31.14-.41.3-.39.64-.79,1.28-1.17,1.93-1.08,1.8-2.23,3.56-3.25,5.43-1.33-2.47-2.78-4.82-4.15-7.23-.09-.15-.13-.4-.34-.4-.81-.02-1.62,0-2.49,0,.13.22.2.35.28.47,1.69,2.73,3.38,5.46,5.08,8.18.17.28.18.46,0,.74-1.86,2.78-3.71,5.56-5.56,8.35-.08.11-.19.22-.15.39.69,0,1.36-.02,2.03,0,.34.01.54-.09.72-.39,1.47-2.47,3.07-4.86,4.48-7.36.02.02.06.03.07.06,1.33,2.51,2.91,4.88,4.32,7.34.15.26.33.37.64.36.72-.03,1.44-.01,2.17-.01v-.1s-.1-.08-.13-.14Z"/>
  <path class="cls-2" d="M28.49,56.72c3.36-.06,6.71-.24,10.07-.23,1.27,0,2.55-.07,3.82-.11,2.32,0,4.64,0,6.95,0h4.93c2.22.21,4.46.07,6.69.18,1.18.06,2.31-.68,1.92-2.33-.27-1.13-.38-2.29-.54-3.44-.16-1.16-.87-2.09-1.85-2.23-1.29-.18-2.58-.31-3.88-.41-1.2-.1-2.4-.18-3.61-.23-1.82-.07-3.65-.23-5.48-.16-.18,0-.37-.02-.55-.02-2.87-.01-5.74.08-8.6.29-1.17.09-2.34.1-3.51.23-2.04.22-4.09.41-6.13.67-1.74.23-3.47.44-5.2.73-1.12.19-1.82,1.1-1.86,1.96-.06,1.2-.18,2.41-.18,3.61,0,1.04.61,1.66,1.65,1.66,1.78,0,3.55-.15,5.33-.18Z"/>
  <path class="cls-2" d="M70.6,68.31c-1.49.06-2.98.11-4.47.17-2.28.09-4.56.17-6.83.2-2.9.03-5.8.19-8.71.13-.22,0-.44,0-.65.01-5.69-.02-11.38.02-17.07-.11-1.16-.03-2.15.65-1.87,2.21.22,1.21.41,2.43.59,3.65.21,1.38,1.03,2.16,2.38,2.19,1.48.04,2.95.05,4.43.09,2.9.06,5.81.02,8.72.02.64,0,1.27.02,1.91-.08.33.2.64-.04.97-.03.96.03,1.91.03,2.87-.01,2.47-.11,4.95-.25,7.42-.38,1.29-.07,2.57-.12,3.86-.21,1.96-.15,3.93-.33,5.89-.49,1.09-.09,2.1-.87,2.18-1.81.11-1.23.17-2.47.21-3.71.03-1.2-.62-1.88-1.81-1.83Z"/>
  <path class="cls-2" d="M68.96,59.12c-.48-.32-1.03-.38-1.58-.38-4.39,0-8.78,0-13.18,0-1.52,0-3.05-.05-4.57.07-7.74,0-15.48.01-23.23-.01-1.3,0-2.16.97-2.17,2.19,0,1.11,0,2.22,0,3.33,0,1.63.85,2.47,2.49,2.47,7.52,0,15.05,0,22.57,0,.22,0,.44-.01.65-.02,5.97,0,11.93.02,17.9,0,1.04,0,1.82-.74,1.97-1.67.14-1.56.15-3.13,0-4.69-.06-.58-.38-.98-.85-1.29Z"/>
  <path class="cls-2" d="M95.26,70.44c-1.09-1.77-2.19-3.54-3.3-5.3-.45-.72-.91-1.45-1.57-2-.27-.22-.57-.41-.88-.63,2.83-.8,4.27-2.79,3.96-5.6-.26-2.41-2.11-3.92-4.69-4.05-.15-.1-.32-.09-.49-.09-1.85,0-3.69,0-5.54,0-.09,0-.21-.05-.24.1,0,.13-.02.27-.02.4,0,5.73,0,11.46,0,17.19,0,.14-.05.3.06.44h1.95c.12-.02.1-.11.1-.19,0-2.45,0-4.9-.02-7.35.66-.24,1.34-.06,2.01-.1.68-.04,1.26.24,1.8.62.69.49,1.11,1.19,1.53,1.88.97,1.59,1.91,3.2,2.87,4.8.08.14.11.37.36.36.76,0,1.53,0,2.3,0,0-.23-.13-.35-.21-.48ZM87.61,61.3c-.91.04-1.81,0-2.72.01-.14,0-.27,0-.29-.18,0-2.15.02-4.3.03-6.45,1.26.04,2.51-.07,3.77.08,1.27.16,2.27.66,2.71,1.94.44,1.29.05,2.8-.91,3.67-.74.67-1.64.87-2.58.92Z"/>
  <path class="cls-2" d="M128.77,65.87c2.55,0,5.1.01,7.65.02.04.08.08.15.1.23.55,1.47,1.1,2.93,1.66,4.4.06.16.06.4.31.4.71,0,1.42,0,2.17,0-.06-.18-.08-.29-.12-.4-2.07-5.37-4.14-10.73-6.21-16.1-.21-.54-.25-1.3-.69-1.56-.44-.26-1.14-.06-1.73-.1-.34-.02-.45.13-.55.42-1.8,4.72-3.61,9.43-5.43,14.15-.45,1.18-.91,2.36-1.38,3.59h1.37c1,0,.98,0,1.33-.94.51-1.37.92-2.78,1.51-4.12ZM132.57,55.13c.89,2.96,2.13,5.83,3.14,8.8h-6.25c1-2.98,2.22-5.84,3.11-8.8Z"/>
  <path class="cls-2" d="M106.33,62.71c-1.01-.81-2.16-1.38-3.3-1.97-.9-.47-1.83-.9-2.62-1.55-1.2-.99-1.32-3.1.15-4.06,1-.65,2.12-.79,3.27-.72,1.27.07,2.51.33,3.68,1.13,0-.71-.03-1.33.01-1.95.03-.4-.14-.55-.49-.67-.72-.24-1.46-.31-2.2-.4-1.47-.17-2.91-.04-4.29.47-1.85.69-3.11,1.93-3.27,4.01-.14,1.79.71,3.11,2.12,4.11,1.26.89,2.67,1.5,4.02,2.23.66.36,1.28.76,1.83,1.29,1.26,1.21,1.02,3.72-.97,4.37-1.4.45-2.79.38-4.19.04-1.02-.25-1.97-.65-2.85-1.33,0,.68.04,1.29-.01,1.89-.05.52.17.75.62.91,2.24.8,4.53.98,6.83.35,1.85-.51,3.19-1.62,3.51-3.62.3-1.86-.36-3.36-1.84-4.54Z"/>
  <path class="cls-2" d="M116.46,70.9h2.14v-16.22h5.19v-1.86h-12.53v1.88h5.2v16.2Z"/>
  <path class="cls-2" d="M106.5,74.4v5.5c-.23-.12-.29-.3-.39-.45-.96-1.49-1.91-2.98-2.86-4.47-.46-.73-.5-.75-1.37-.56,0,2.24,0,4.48,0,6.77.27-.04.51.06.76-.08v-5.65c.14.2.2.29.26.38,1.03,1.6,2.06,3.2,3.09,4.8.4.62.5.65,1.27.47v-6.73c-.26-.04-.48-.05-.77.02Z"/>
  <path class="cls-2" d="M129.08,74.39c-1.41.38-2.22,1.68-2.22,3.43,0,.07,0,.13,0,.2.04,1.28.53,2.33,1.7,2.91,1.2.59,2.41.49,3.5-.32.81-.6,1.11-1.49,1.21-2.44.27-2.51-1.46-4.52-4.19-3.78ZM132.44,77.7c0,.8-.1,1.53-.62,2.11-.67.75-1.54.92-2.47.66-.9-.25-1.38-.95-1.59-1.83-.22-.91-.13-1.79.37-2.6.56-.92,1.52-1.27,2.65-.99.84.2,1.53,1.06,1.62,2.01.02.23.03.47.04.65Z"/>
  <path class="cls-2" d="M96.11,74.45c-1,.33-2.09,1.43-2.01,3.36,0,.13,0,.27,0,.4.08,1.29.63,2.3,1.85,2.8,1.25.51,2.46.37,3.5-.57.76-.68.99-1.59,1.03-2.57.12-2.76-1.98-4.22-4.38-3.43ZM98.72,80.1c-.75.57-1.61.66-2.46.25-.9-.43-1.29-1.24-1.36-2.19-.07-.94.06-1.84.78-2.55.69-.68,1.52-.82,2.41-.54.8.25,1.24.85,1.45,1.65.09.35.11.69.1,1,.04.95-.15,1.79-.91,2.37Z"/>
  <path class="cls-2" d="M123.64,74.49c-1.02-.23-2.06-.11-3.11-.14v6.83c.98.01,1.91.09,2.81-.13,2.1-.51,2.8-2.17,2.58-4.04-.16-1.35-.94-2.22-2.28-2.53ZM124.72,79.29c-.82,1.26-2.1,1.17-3.4,1.13v-5.36c1.19,0,2.43-.17,3.3.92.68.84.72,2.36.1,3.32Z"/>
  <path class="cls-2" d="M137.71,77.81c.68-.34,1.11-1.11,1.03-1.8-.11-.88-.56-1.36-1.44-1.56-.88-.2-1.76-.05-2.64-.09v6.84c.27-.04.5.05.78-.08v-2.78c1-.25,1.59.19,2.01.98.24.46.53.89.79,1.33.38.63.45.65,1.24.46-.78-1.01-1.2-2.25-2.2-3.09.13-.06.28-.12.43-.19ZM136.97,77.48c-.13.04-.26.09-.39.09-.37.01-.73,0-1.15,0v-2.51c.51-.01,1-.07,1.49.06.67.17.94.47.95,1.09.01.64-.31,1.09-.91,1.27Z"/>
  <path class="cls-2" d="M117,74.74c-.11-.29-.24-.4-.56-.41-.33,0-.46.13-.57.41-.53,1.4-1.07,2.79-1.6,4.19-.28.73-.55,1.47-.83,2.22q.85.07,1.1-.62c.11-.31.23-.63.32-.94.07-.23.18-.32.43-.31.42.02.84,0,1.26,0q1.33,0,1.8,1.22.28.72,1.06.67c.04-.18-.06-.32-.12-.47-.76-1.98-1.54-3.96-2.29-5.95ZM115.25,78.54c.4-1.1.78-2.18,1.17-3.26.38,1.06.78,2.14,1.18,3.26h-2.35Z"/>
  <path class="cls-2" d="M141.3,80.43v-2.39h2.38c0-.25.05-.45-.06-.68h-2.32v-2.33h2.56v-.64h-3.38v6.77h3.57c-.01-.24.06-.46-.08-.72h-2.68Z"/>
  <path class="cls-2" d="M148.34,77.99c-.41-.26-.84-.48-1.26-.72-.26-.15-.52-.3-.77-.46-.38-.26-.48-.65-.39-1.06.09-.39.4-.59.78-.7.75-.23,1.44-.05,2.21.31-.1-.41.2-.87-.36-1-.69-.16-1.4-.19-2.08.02-.68.21-1.24.58-1.37,1.36-.14.81.19,1.4.87,1.81.44.27.91.5,1.36.74.28.15.55.32.76.57.49.57.26,1.41-.47,1.6-.36.1-.74.15-1.14.07-.51-.09-.96-.31-1.43-.51-.04.95-.01.99.81,1.15.6.12,1.2.15,1.79,0,.7-.18,1.31-.51,1.46-1.27.16-.78-.07-1.47-.77-1.92Z"/>
  <path class="cls-2" d="M93.1,75.31c-.09-.36.21-.8-.37-.93-.8-.18-1.58-.22-2.37.04-2.15.72-2.94,3.12-2.02,5.09.7,1.49,2.23,2.12,4.12,1.6.67-.18.67-.19.58-.92-1.76.72-2.93.33-3.59-.46-.78-.94-.85-2.55-.12-3.62.96-1.42,2.31-1.35,3.76-.79Z"/>
  <path class="cls-2" d="M108.41,74.38c.02.23-.04.44.06.67h1.9v6.11c.27.01.5.06.78-.05v-6.09h1.96c.01-.25.08-.46-.04-.65h-4.67Z"/>
</svg>