<?xml version="1.0" encoding="UTF-8"?>
<svg id="Capa_9" data-name="Capa 9" xmlns="http://www.w3.org/2000/svg" viewBox="0 0 177.4 125.4">
  <defs>
    <style>
      .cls-1 {
        fill: #fff;
        stroke-width: 0px;
      }
    </style>
  </defs>
  <path class="cls-1" d="M24.85,59.61l-3.3.02-.02-2.01,8.75-.04.02,2.01-3.28.02.05,9.85-2.17.02-.05-9.87Z"/>
  <path class="cls-1" d="M36.53,57.56l8.01-.04.02,2.01-5.83.04.02,2.93,5.16-.02.02,2.01-5.16.02.02,2.93,5.83-.04.02,2.01-8.01.04-.09-11.9Z"/>
  <path class="cls-1" d="M53.44,62.05l.04,7.28-2.17.02-.05-12.17,7.75,7.59-.04-7.32,2.17-.02.05,12.19-7.75-7.57Z"/>
  <path class="cls-1" d="M68.25,57.4l3.73-.02c3.55-.02,6.43,2.61,6.45,5.91.02,3.28-2.84,5.94-6.39,5.96l-3.73.02-.05-11.87ZM72.04,67.25c2.39-.02,4.24-1.76,4.24-3.95-.02-2.17-1.88-3.91-4.28-3.91h-1.56l.04,7.86h1.56Z"/>
  <path class="cls-1" d="M85.1,57.33l8.01-.04.02,2.01-5.83.04.02,2.93,5.16-.02.02,2.01-5.16.02.02,2.93,5.83-.04.02,2.01-8.01.04-.09-11.9Z"/>
  <path class="cls-1" d="M102,61.82l.04,7.28-2.17.02-.05-12.17,7.75,7.59-.04-7.32,2.17-.02.05,12.19-7.75-7.57Z"/>
  <path class="cls-1" d="M116.41,63.09c-.02-3.41,2.95-6.09,6.63-6.11,1.09,0,2.03.22,2.99.67l.02,2.48c-.96-.78-1.83-1.12-3.03-1.12-2.46.02-4.42,1.79-4.42,4.08.02,2.25,1.94,4.04,4.44,4.02,1.29,0,2.12-.38,3.03-1.18l.02,2.5c-.94.47-1.9.71-2.97.71-3.71.04-6.68-2.66-6.7-6.05Z"/>
  <path class="cls-1" d="M132.8,57.09l2.17-.02.05,11.87-2.17.02-.05-11.87Z"/>
  <path class="cls-1" d="M146.73,56.71c-1.92,4.06-3.86,8.13-5.78,12.19l2.45-.02c1.12-2.55,2.23-5.11,3.35-7.66,1.14,2.54,2.28,5.09,3.42,7.63l2.45-.02c-1.96-4.02-3.91-8.06-5.89-12.12Z"/>
  <path class="cls-1" d="M153.04,56.2c.29-.18.6-.27.96-.29.53,0,.94.16,1.25.51s.47.74.47,1.21c0,.36-.07.67-.22.96-.14.29-.34.53-.6.74-.25.2-.56.36-.92.47-.34.11-.71.16-1.09.16v-.22c.54-.11.96-.25,1.25-.49.29-.22.45-.56.43-1.01,0-.13-.02-.25-.05-.34-.04-.11-.05-.2-.09-.27-.14.09-.29.16-.45.2s-.31.05-.43.05c-.31,0-.54-.09-.71-.29s-.24-.4-.25-.6c.04-.34.16-.62.45-.8Z"/>
</svg>