<?xml version="1.0" encoding="utf-8"?>
<!-- Generator: Adobe Illustrator 28.3.0, SVG Export Plug-In . SVG Version: 6.00 Build 0)  -->
<svg version="1.1" id="Capa_1" xmlns="http://www.w3.org/2000/svg" xmlns:xlink="http://www.w3.org/1999/xlink" x="0px" y="0px"
	 viewBox="0 0 427.9 213.1" style="enable-background:new 0 0 427.9 213.1;" xml:space="preserve">
<style type="text/css">
	.st0{clip-path:url(#SVGID_00000093887388499217451900000001409276009561827208_);}
	.st1{fill-rule:evenodd;clip-rule:evenodd;fill:#FFFFFF;}
</style>
<g id="surface1">
	<g>
		<defs>
			<rect id="SVGID_1_" y="99" width="427.9" height="114.1"/>
		</defs>
		<clipPath id="SVGID_00000000194869456517724090000012049091866474277310_">
			<use xlink:href="#SVGID_1_"  style="overflow:visible;"/>
		</clipPath>
		<g style="clip-path:url(#SVGID_00000000194869456517724090000012049091866474277310_);">
			<path class="st1" d="M38.7,104.3c0.5-0.6,1.1-1.4,1.6-2.2c0.7-1,1.2-1.5,1.7-1.5c0.5,0,0.8,0.1,1,0.4c0.2,0.2,0.3,1,0.4,2.3
				l0.7,11.7l0.1,1.5c0,1-0.4,1.5-1.2,1.5c-0.5,0-0.9-0.4-1.3-1.2c-1-2.7-2.8-5.6-5.4-8.9c-2.6-3.3-5.9-4.9-9.9-4.9
				c-3,0-5.4,0.9-7.5,2.6c-2,1.7-3.6,4.1-4.7,7.2c-1.1,3-1.7,6.7-1.7,10.9c0,7.2,1.6,13,4.7,17.3c3.1,4.3,7,6.4,11.7,6.4
				c5,0,9.7-3.1,13.9-9.3c0.5-0.8,1-1.1,1.5-1.1c0.8,0,1.2,0.4,1.2,1.2c0,1.7-1.9,4.3-5.8,7.9c-3.9,3.6-8.7,5.4-14.6,5.4
				c-7.7,0-13.8-2.4-18.3-7.3c-4.5-4.9-6.7-10.9-6.7-18c0-7.1,2.3-13.2,6.8-18.4c4.5-5.2,10.2-7.8,17.1-7.8
				C28.8,100.1,33.7,101.5,38.7,104.3z M71.5,99.5h2.5c3.3,7.2,7.8,18.5,13.8,33.9c2.7,7.1,4.6,11.4,5.6,12.9c1,1.5,2.7,2.4,4.9,2.7
				c0.7,0.1,1.1,0.4,1.1,1c0,0.8-0.5,1.2-1.4,1.2c-0.5,0-1.9-0.1-4-0.3c-2.6-0.2-4.7-0.3-6.5-0.3c-1.7,0-3.9,0.1-6.6,0.3
				c-2,0.1-3.4,0.2-4,0.2c-1.1,0-1.7-0.4-1.7-1.1c0-0.6,0.4-0.9,1.2-0.9c3-0.3,4.6-1.5,4.6-3.6c0-1-0.4-2.9-1.3-5.6
				c-0.9-2.7-1.8-5.1-2.8-7.3c-1.6,0-2.8,0-3.7,0c-5,0-8.8,0-11.6,0c-2.1,5.9-3.2,9.9-3.2,11.8c0,1.4,0.5,2.5,1.6,3.2
				c1.1,0.8,2.2,1.2,3.4,1.3c0.9,0.1,1.4,0.5,1.4,1.2s-0.5,1-1.5,1c-0.4,0-1.4-0.1-3.1-0.2c-2.2-0.2-3.7-0.3-4.7-0.3
				c-1.9,0-3.8,0.1-5.5,0.4c-0.4,0.1-0.8,0.1-1.1,0.1c-0.9,0-1.4-0.4-1.4-1.1c0-0.6,0.3-0.9,0.9-1.1c1.5-0.4,2.6-1,3.5-1.6
				c0.8-0.6,1.8-1.8,2.7-3.6c1-1.8,2.1-4.6,3.5-8.5C61,126.4,65.5,114.5,71.5,99.5z M69,112.7l-6.4,16.8l13-0.2
				c-0.7-2-1.8-4.7-3.2-8.1C70.9,117.5,69.7,114.7,69,112.7z M129.3,123.7c5.1,1.1,8.9,2.8,11.4,5.1c2.5,2.3,3.8,5.1,3.8,8.6
				c0,2.9-0.9,5.5-2.8,7.8c-1.9,2.3-4.1,3.9-6.8,4.7c-2.7,0.8-6.6,1.2-11.8,1.2c-1.3,0-3.2-0.1-5.9-0.2c-2.2-0.1-3.9-0.2-5.2-0.2
				c-1.7,0-3.9,0.1-6.8,0.3c-1.2,0.1-2,0.2-2.4,0.2c-1,0-1.4-0.4-1.4-1.1c0-0.6,0.4-0.9,1.1-1c1.6-0.2,2.7-0.5,3.4-0.8
				c0.7-0.3,1.3-0.9,1.7-1.7c0.4-0.8,0.6-2.1,0.6-3.9l0.3-17.6c0-5.5-0.1-9.8-0.2-13.1s-0.3-5.4-0.6-6.3c-0.3-1-0.7-1.6-1.3-2
				s-1.4-0.6-2.5-0.7c-1-0.1-1.6-0.2-1.9-0.3c-0.3-0.2-0.4-0.5-0.4-0.9c0-0.5,0.3-0.8,0.9-1c0.6-0.1,2.2-0.2,4.9-0.2
				c4.9,0,9.5-0.2,13.8-0.5c2.5-0.2,4.6-0.3,6.1-0.3c4.5,0,8.1,1,10.9,3.1s4.1,4.8,4.1,8.2C142.2,116.9,137.9,121.2,129.3,123.7z
				 M119.1,123.2c8.5,0,12.7-3.7,12.7-11.2c0-3.3-0.7-5.7-2.2-7.4c-1.5-1.6-3.3-2.4-5.2-2.4c-1.4,0-3.2,0.4-5.2,1.1
				c-0.2,2.5-0.3,5.2-0.3,8C118.8,113.5,118.9,117.5,119.1,123.2z M119.1,126.1c-0.2,5.3-0.3,9.7-0.3,13.2c0,4.7,0.2,7.3,0.6,8
				c0.4,0.7,1.5,1,3.5,1c3.6,0,6.2-1,8-2.9c1.8-1.9,2.6-4.6,2.6-8c0-3.4-0.9-6.2-2.7-8.3c-1.8-2.2-4.6-3.3-8.3-3.3
				C121.6,125.9,120.5,126,119.1,126.1z M177.7,100.2c5,0,9.3,1,13.1,3c3.7,2,6.7,5,9,8.8c2.3,3.9,3.4,8.1,3.4,12.6
				c0,7-2.6,13.3-7.7,18.7c-5.1,5.4-11.5,8.1-19.1,8.1c-6.9,0-12.8-2.2-17.8-6.7c-4.9-4.5-7.4-10.6-7.4-18.2
				c0-7.2,2.5-13.4,7.6-18.6C163.9,102.8,170.2,100.2,177.7,100.2z M190.6,125.8c0-7.6-1.3-13.3-3.8-17.2c-2.5-3.8-5.8-5.8-9.6-5.8
				c-3.9,0-7.1,1.9-9.6,5.8s-3.8,9.6-3.8,17.1c0,7.3,1.2,12.9,3.6,16.9c2.4,4,5.7,6,9.8,6c3.6,0,6.8-1.8,9.4-5.4
				C189.3,139.7,190.6,133.9,190.6,125.8z M321.8,101.3c0.8,3.9,1.6,7.8,2.3,11.7c0,0.7-0.4,1.1-1.1,1.1c-0.4,0-0.8-0.3-1.3-1.1
				c-2.5-3.8-4.9-6.2-7-7.5s-5.1-1.8-9.1-1.8c-2.2,0-4.4,0.2-6.4,0.6c-0.4,4.4-0.7,9.3-0.7,14.6c0,0.9,0,2.4,0.1,4.6l2.8,0
				c1.7,0,3.3-0.2,4.5-0.7c1.3-0.5,2.3-1.5,3.2-3.1c0.9-1.6,1.4-2.6,1.5-3.1c0.2-0.8,0.6-1.2,1.1-1.2c0.7,0,1,0.3,1,0.9
				c0,0.2,0,0.4-0.1,0.6c-0.3,1.6-0.4,6.2-0.4,14c0,1.1,0.1,2.1,0.3,2.9c0.1,0.3,0.1,0.5,0.1,0.6c0,0.7-0.4,1.1-1.2,1.1
				c-0.5,0-1-0.7-1.3-2c-0.5-2.3-1.6-4.1-3.4-5.3c-1.7-1.2-4.5-1.8-8.3-1.9c-0.1,4.2-0.2,7-0.2,8.3c0,5.7,0.1,9.1,0.3,10.2
				c0.2,1.1,0.8,2,1.9,2.6c1.1,0.7,2.9,1,5.5,1c9.4,0,15.5-3,18.5-9.1c0.4-0.8,0.9-1.3,1.4-1.3c0.7,0,1.1,0.3,1.1,0.9
				c0,0.4-0.1,0.9-0.2,1.5l-2.4,10.8l-13.4,0c-3.8,0-7.3-0.1-10.5-0.3c-3.3-0.1-5.8-0.2-7.7-0.2c-2.1,0-5.2,0.1-9.3,0.4
				c-0.5,0.1-0.9,0.1-1.1,0.1c-1.2,0-1.7-0.4-1.7-1.2c0-0.7,0.5-1.1,1.4-1.1c2.4,0,4-0.7,4.8-2c0.8-1.3,1.2-4,1.2-8.1l0.2-19.4
				c0-6.6-0.1-10.7-0.2-12.2c-0.2-1.5-0.6-2.5-1.3-3.1c-0.7-0.5-2-1-3.9-1.2c-0.8-0.1-1.2-0.4-1.2-1.1c0-0.8,0.5-1.1,1.4-1.1
				l8.9,0.3L321.8,101.3z M353.3,99.5h2.5c3.2,7.2,7.8,18.5,13.8,33.9c2.7,7.1,4.6,11.4,5.6,12.9c1,1.5,2.7,2.4,4.9,2.7
				c0.7,0.1,1.1,0.4,1.1,1c0,0.8-0.5,1.2-1.4,1.2c-0.5,0-1.9-0.1-4-0.3c-2.6-0.2-4.7-0.3-6.5-0.3c-1.7,0-3.9,0.1-6.6,0.3
				c-2,0.1-3.4,0.2-4,0.2c-1.1,0-1.7-0.4-1.7-1.1c0-0.6,0.4-0.9,1.2-0.9c3-0.3,4.6-1.5,4.6-3.6c0-1-0.4-2.9-1.3-5.6
				c-0.9-2.7-1.8-5.1-2.8-7.3c-1.6,0-2.8,0-3.7,0c-5,0-8.8,0-11.6,0c-2.1,5.9-3.2,9.9-3.2,11.8c0,1.4,0.5,2.5,1.6,3.2
				c1.1,0.8,2.2,1.2,3.4,1.3c0.9,0.1,1.4,0.5,1.4,1.2s-0.5,1-1.5,1c-0.4,0-1.4-0.1-3.1-0.2c-2.2-0.2-3.7-0.3-4.7-0.3
				c-1.9,0-3.8,0.1-5.5,0.4c-0.4,0.1-0.8,0.1-1.1,0.1c-0.9,0-1.4-0.4-1.4-1.1c0-0.6,0.3-0.9,0.9-1.1c1.5-0.4,2.6-1,3.5-1.6
				c0.8-0.6,1.8-1.8,2.7-3.6c1-1.8,2.1-4.6,3.5-8.5C342.7,126.4,347.2,114.5,353.3,99.5z M350.7,112.7l-6.4,16.8l13-0.2
				c-0.7-2-1.8-4.7-3.2-8.1C352.6,117.5,351.4,114.7,350.7,112.7z M425.4,151c-6.2-0.3-15.7-0.5-28.7-0.5c-4.5,0-8.2,0.1-11,0.4
				c-0.7,0.1-1.2,0.1-1.5,0.1c-0.9,0-1.4-0.4-1.4-1.1c0-0.3,0.1-0.6,0.4-0.7c0.2-0.1,0.9-0.3,1.8-0.4c1.5-0.2,2.7-0.7,3.5-1.4
				c0.8-0.7,1.4-1.7,1.7-3.1c0.3-1.4,0.5-4.9,0.6-10.5c0.1-5.6,0.1-12.3,0.1-20c0-3.1-0.2-5.3-0.7-6.7c-0.4-1.4-1.1-2.4-1.9-3.1
				c-0.8-0.6-2-1-3.5-1.1c-1.1-0.1-1.6-0.4-1.6-1.2c0-0.7,0.6-1.1,1.8-1.1l12.3,0.3c1.9,0,4.5-0.1,7.9-0.3c1.2-0.1,2.1-0.1,2.5-0.1
				c1,0,1.6,0.4,1.6,1.1c0,0.4-0.2,0.7-0.5,0.8c-0.3,0.2-1.2,0.3-2.5,0.6c-1.6,0.2-2.8,0.6-3.5,1.3c-0.7,0.6-1.1,1.7-1.4,3.3
				c-0.2,1.6-0.4,5.1-0.4,10.5V141c0,3.5,0.3,5.6,0.9,6.3c0.6,0.7,1.7,1,3.4,1c4,0,7-0.3,9-0.9c2-0.6,3.8-1.8,5.6-3.5
				c1.8-1.7,3.7-4.5,5.7-8.5c0.4-0.8,0.9-1.2,1.3-1.2c0.7,0,1,0.4,1,1.1C427.9,136.9,427.1,142.1,425.4,151z M264,142.2
				c2.7,8,7.9,18.5,12.6,26.2c-9,2.4-18.2,5.1-27.5,7c-4.9-8.8-14.8-13.4-25.1-13.6c-6.4-0.2-12.8,1.5-18.4,4.6
				c-3.2,1.8-10.2,6.3-11,10.3c-0.2,1-0.1,2,0.5,2.5c1.3,0,2.5,0.1,4-0.4c-0.1-4.8,1.8-7.6,6.5-10.3c3.8-2.2,9.9-4.6,17.1-4.8
				c9.4-0.3,19.8,4.3,24.6,12.7c-18.8,5.6-36.6,11.5-55.2,17.7c-19.5-12.7-44.4-24.5-68.1-24.5c-10.3,0-20.8,1.2-29.5,7.3
				c-4.7,3.3-8,7.9-8.1,14.9c-0.4,18.9,28.5,20.6,40.8,21.3c21.7-0.3,42.3-3.9,61.9-13.2c4.4,2.9,9.4,5.2,14.1,7.1
				c8.5,3.4,17,5.7,26.1,4.7c6.1-0.6,12.9-3.2,17.4-8.1c3.3-3.6,4.8-7.2,5.4-11c0.7-4.5,0.1-8.5-0.6-12.9c6.9-1.6,20-5.8,28-7.6
				c5.1,7.1,12.6,14.6,20.2,19.2c6.8,4.1,13.9,6.4,24.1,7.2c11.8,1,33.8-2.7,34.2-15.9c0.4-14.3-16.3-16.8-27.2-18.3
				c-15.2-1-30.6-0.7-47.1,2.4c-4.8-9.9-7.8-20.1-9.8-29c-1.1-4.7-4.1-7.8-6.3-9.4c-2.2-1.6-4.9-2.6-8.2-3.1c3-0.2,5.7-0.8,7.9-1.8
				c2.3-1,4.1-2.4,5.6-4.4c1.5-2,2.3-4.2,2.3-6.6c0-3.7-1.6-6.6-4.8-8.9c-3.2-2.3-7.6-3.4-13.2-3.4c-1.7,0-3.7,0.1-5.8,0.2
				c-4.8,0.3-10.7,0.4-17.7,0.4c-1.4,0-2.1,0.4-2.1,1.1c0,0.7,0.5,1.1,1.6,1.1c2.6,0.1,4.3,0.8,4.9,2.4c0.6,1.5,0.9,5.8,0.9,12.8
				l0,13.5l0,7c0,5.2-0.6,8.2-1.8,8.9c-1.2,0.7-2.4,1.1-3.8,1.1c-0.9,0-1.3,0.4-1.3,1.1c0,0.7,0.5,1.1,1.5,1.1c0.6,0,2-0.1,4.2-0.2
				c2.4-0.1,4.3-0.2,5.9-0.2l11.3,0.3c1,0,1.4-0.3,1.4-1c0-0.7-0.6-1.1-1.7-1.1c-2.1-0.1-3.5-0.6-4.2-1.5c-0.7-0.9-1.1-2.4-1.2-4.4
				s-0.1-7.5-0.1-16.3c1-0.1,1.8-0.1,2.3-0.1c1.9,0,3.7,0.4,5.1,1.3C260,129.7,262.4,137.9,264,142.2z M249.2,123.7
				c0.6,0,1.1,0,1.4,0c2.1,0,4.3-0.4,6.5-1.2c2.2-0.8,3.7-2.1,4.6-3.9c0.9-1.8,1.4-3.7,1.4-5.7c0-3.1-0.9-5.6-2.7-7.3
				c-1.8-1.8-4.2-2.6-7.1-2.6c-1.2,0-2.6,0.2-4.1,0.7V123.7z M332.2,195.3c-10.5,0-24.4-2.6-35.1-11c-2.6-2.1-11.7-11.2-11.2-13.6
				c12.2-2.9,28.3-4.8,40.5-4.5c12.6,0.3,31.1,2.6,30,16.3C355.6,192.9,341.9,195.4,332.2,195.3z M205.2,202.4c-3.1-1.6-7.5-4-8.5-5
				c17.8-6.3,35-11.7,52.9-17c0.9,2.8,1.5,9.5-0.3,15.1c-2.6,7.9-10.8,12.7-18.8,13.5C222.2,209.8,212.3,206,205.2,202.4z
				 M87.5,192.8c-0.5-14.7,13.7-17.7,26.5-17.9c21.9-0.4,52.7,9.6,69.9,21.9c-5.5,2.4-11.7,4.6-18.1,6.2c-14,3.7-26.5,5.4-41.2,6.6
				C113.6,210,88.1,209.9,87.5,192.8z"/>
		</g>
	</g>
	<path class="st1" d="M256.1,52.7c0.1-3.7,0.2-5.3,4.4-4.8c4.3,1.9,7,3.2,10,2.6c3.8-0.8,7.3-4,7.5-8.9c0.2-5.1-3.3-10-8.7-10.2
		c-2-0.1-4,0.6-5.8,2.4c-1.1,0.6-3.6,1.2-4.8,0.1c0.9-5.1-0.3-11.3-5.7-14.9c-2.5-1.6-5.5-2.6-8.1-2.1c-0.8,0.2-1.3,0.7-0.6,1.6
		c3.4,2.3,3.6,6,3.6,8.8c0,3.7-1.7,6.6-4,8.5c-2.6,2.2-6.2,3.1-9.6,3c-2.3-0.1-4.6-0.8-6.2-3.1c-0.8-2.6-1-4.9-0.5-7.4
		c0.9-1.4,2.5-1.8,4.2-1.5c2.4,0.4,5.1,2,6.4,3.1c1.3-2.2,0.4-6-0.8-8.4c-1.8-3.6-6.1-5.4-9.8-5.8c0.4-1.6,0.9-4.8,0.6-7.6
		c-0.4-3.7-1.8-7-5.5-8.2c-3.7,1.1-5.1,4.5-5.5,8.2c-0.3,2.8,0.2,6,0.6,7.6c-3.7,0.4-8,2.2-9.8,5.8c-1.2,2.5-2.1,6.2-0.8,8.4
		c1.3-1.1,4-2.7,6.4-3.1c1.7-0.3,3.2,0.1,4.2,1.5c0.5,2.4,0.3,4.8-0.5,7.4c-1.6,2.3-3.9,3-6.2,3.1c-3.4,0.1-7-0.8-9.6-3
		c-2.3-1.9-4-4.8-4-8.5c0-2.8,0.1-6.4,3.6-8.8c0.7-1,0.2-1.5-0.6-1.6c-2.6-0.6-5.7,0.4-8.1,2.1c-5.4,3.6-6.7,9.8-5.7,14.9
		c-1.2,1.2-3.6,0.6-4.8-0.1c-1.7-1.8-3.8-2.5-5.8-2.4c-5.4,0.2-8.9,5.1-8.7,10.2c0.2,4.9,3.7,8.2,7.5,8.9c3.1,0.6,5.8-0.7,10-2.6
		c4.2-0.6,4.3,1.1,4.4,4.8c9.6-6.8,21.1-10.8,33.5-10.8S246.5,45.8,256.1,52.7z M223.5,47.8c12,0,23.1,4.1,32.2,11V64
		c-9-6.8-20.1-10.9-32.2-10.9c-12.9,0-24.8,4.6-34.1,12.3v-5.2C198.9,52.5,210.7,47.8,223.5,47.8z M190.9,71.8l1.9,3.8l4.3,0.3
		l-3.4,2.8l1,3.8l-4-2.1l-3.6,2.1l0.9-4.1l-3.3-2.5l4.6-0.5L190.9,71.8z M206.7,64.6l1.9,3.8l4.3,0.3l-3.4,2.8l1,3.8l-4-2.1
		l-3.6,2.1l0.9-4.1l-3.3-2.5l4.6-0.5L206.7,64.6z M222.6,62.3l1.9,3.8l4.3,0.3l-3.4,2.8l1,3.8l-4-2.1l-3.6,2.1l0.9-4.1l-3.3-2.5
		L221,66L222.6,62.3z M254.3,71.8l-1.9,3.8l-4.3,0.3l3.4,2.8l-1,3.8l4-2.1l3.6,2.1l-0.9-4.1l3.3-2.5l-4.6-0.5L254.3,71.8z
		 M238.6,64.6l-1.9,3.8l-4.3,0.3l3.4,2.8l-1,3.8l4-2.1l3.6,2.1l-0.9-4.1l3.3-2.5l-4.6-0.5L238.6,64.6z"/>
</g>
</svg>
