<?xml version="1.0" encoding="utf-8"?>
<!-- Generator: Adobe Illustrator 28.3.0, SVG Export Plug-In . SVG Version: 6.00 Build 0)  -->
<svg version="1.1" id="Capa_1" xmlns="http://www.w3.org/2000/svg" xmlns:xlink="http://www.w3.org/1999/xlink" x="0px" y="0px"
	 viewBox="0 0 629 740" style="enable-background:new 0 0 629 740;" xml:space="preserve">
<style type="text/css">
	.st0{fill:#FFFFFF;}
</style>
<g transform="translate(0.000000,740.000000) scale(0.100000,-0.100000)">
	<path class="st0" d="M3114,7391c-91-7-123-25-188-105c-32-38-44-45-94-55c-70-14-102-34-102-66c0-25,39-45,89-45c46,0,56-14,54-72
		c-2-80,18-221,35-240c16-19,9-23-26-19c-8,1-19-2-25-7c-7-6-52-17-102-26c-65-11-93-20-100-33c-15-27-217-219-284-271
		c-34-25-61-54-61-63c0-10-11-30-24-46c-42-50-76-129-76-176c0-25,11-78,25-120c31-95,122-290,166-353c18-26,46-75,62-108
		c16-34,48-82,72-107s52-64,64-87c20-38,20-43,5-113c-20-91-15-175,22-394c26-151,27-182,31-558l5-398l-39-37
		c-169-162-203-197-208-212c-6-19-49-40-122-59c-48-13-77-50-70-90c3-14,1-41-6-59c-10-28-9-38,6-64c26-45,22-113-10-180l-28-57
		l-82-1c-90,0-89,0-94,70c-2,19-6,40-10,45c-4,6-10,62-13,125c-4,63-9,127-12,143c-4,20-2,27,10,27c9,0,16,7,16,17c0,15,1,15,18,0
		c28-26,42-20,43,16c0,17,3,26,6,20c2-7,11-13,19-13c23,0,17,50-11,86c-21,27-22,31-6,27c11-3,21,2,24,11c7,16-17,46-36,46
		c-7,0-4,5,6,11c21,12,22,38,2,45c-8,4-15,13-15,21s-7,13-17,11s-23,3-29,11c-10,12-15,13-27,3c-11-10-17-9-27,3c-19,23-40,18-40-8
		c0-20-4-23-30-19c-27,4-30,1-30-21c0-14,8-31,18-36c15-10,15-10-4-11c-23,0-44-18-44-36c0-9,11-11,36-7l37,6l-27-39
		c-42-63-30-89,19-37c20,22,25,24,25,10c0-9-9-26-21-38c-29-29-7-96,24-70c12,9,16,6,20-18c3-16,13-36,22-44c12-12,15-40,15-126
		c0-62-4-112-10-116c-5-3-10-24-10-45c0-71,2-70-136-70h-123l-10,38c-29,115-33,156-30,330c3,126,8,185,17,194c6,6,12,22,12,35
		s6,24,15,24c24,2,29,4,43,12c19,13,14,55-8,69c-23,15-27,38-5,38c8,0,15-4,15-10c0-13,38-32,44-21c3,5-8,28-25,51l-31,43l34-7
		c19-3,37-3,41,1c10,9-23,43-42,43c-14,1-13,3,2,15c28,20,13,59-19,52c-19-3-26,1-30,19c-7,28-12,29-42,8c-12-8-22-10-22-5
		c0,6-7,11-15,11c-9,0-15-9-15-21c0-18-2-20-16-8c-13,11-19,8-40-16c-29-34-30-45-3-52c20-5,19-6-3-17c-14-7-24-22-26-40s0-26,7-21
		c14,8,14-1,1-24c-14-27-22-81-11-81c5,0,16,10,25,23c17,22,17,21,11-15c-6-41,5-54,33-39c15,8,21,6,31-12c13-25,15-46,13-141
		c-2-60-4-67-17-56c-11,9-12,16-4,26c13,16,4,34-18,34c-14,0-14,2,2,20c17,19,17,20-11,30c-16,6-29,10-30,8c0-2-9,4-19,12
		c-12,10-20,11-22,4c-2-6-15-9-28-6c-18,3-25,0-25-11c0-8-9-17-21-20c-16-4-19-11-14-27c4-11,1-27-5-35c-15-18-3-38,20-32
		c16,4,17,2,8-19c-15-32-3-42,22-19c11,10,20,13,20,7s-4-14-10-17c-14-9-12-41,3-54c10-7,17-7,24,0c8,8,13,4,18-12c4-13,14-29,21-36
		c24-25,60-165,56-220l-4-53h-119h-119v-520c0-456,2-520,15-520c8,0,796,0,1750,0s1742,0,1750,0c13,0,15,64,15,519v518l-25,44
		c-38,68-131,150-222,197c-23,11-50,25-60,31c-10,5-48,18-84,30c-87,26-206,84-247,118l-32,28l-119,650c-113,620-118,651-103,680
		c8,17,19,62,23,100c4,39,11,84,14,100c6,26,0,39-34,80c-22,27-43,62-47,79c-3,17-12,49-19,71s-18,108-25,190c-11,154-27,242-54,307
		c-9,20-22,75-29,122c-12,71-12,87-1,98s8,47-21,213c-42,236-64,317-104,372c-38,53-79,77-175,103c-43,11-91,27-107,35
		c-15,8-34,15-42,15c-18,0-57,42-57,62c0,9,7,33,16,54c12,28,17,73,18,159c1,114,0,122-27,167c-15,26-42,57-60,69
		c-17,12-40,31-50,41s-21,17-25,16C3198,7398,3158,7394,3114,7391z M3060,7367c0-2-20-18-45-37c-48-36-55-50-27-51c12,0,10-3-8-10
		l-25-11l30-13c30-14,29-14-15-8c-25,3-47,7-49,10c-7,5,70,83,104,104C3056,7370,3060,7372,3060,7367z M3194,7361c3-4-4-17-16-27
		c-11-11-38-41-59-67c-42-52-52-44-18,13c24,39,69,90,80,90C3185,7370,3191,7366,3194,7361z M2878,7204c-9-9-122-33-128-27
		c-13,12,39,33,84,33C2861,7210,2881,7207,2878,7204z M2979,7136c-2-2-26-6-54-9c-32-4-43-3-30,3C2914,7138,2988,7144,2979,7136z
		 M3154,6868c-65-79-64-78-128-76l-61,2l56,3c51,4,60,8,99,48C3167,6893,3186,6905,3154,6868z M3245,6764c-11-8-26-22-33-32
		c-13-16-14-16-10,3c2,11,14,25,28,32C3263,6784,3270,6783,3245,6764z M2734,6721c3-4-10-16-29-27c-32-17-35-22-41-86
		c-7-69-20-90-26-41c-3,26-3,26-32-15c-38-55-43-48-10,12l27,48l-97-76c-54-42-99-76-102-76c-4,0,97,97,174,164c23,21,48,50,55,64
		c6,15,23,29,37,33C2726,6731,2728,6731,2734,6721z M2348,6285c40-81,40-88,2-39c-29,35-31,36-37,16c-7-29-21-28-25,1
		c-3,20-5,19-26-13l-24-35l7,30c7,32,50,105,63,105C2312,6350,2330,6321,2348,6285z M2667,6181c18-58,18-339,0-382
		c-7-19-17-51-21-71c-6-33-10-38-35-38c-35,0-54,21-80,87c-26,68-68,232-76,306c-6,43-4,57,6,57c7,0,20,7,30,16c17,15,131,62,154,63
		C2651,6220,2661,6202,2667,6181z M3760,6060c-14-11-33-22-44-26c-14-5-17-12-12-35c3-16,9-44,12-61l7-33l-28,25l-28,25l7-37
		c3-21,9-55,12-75c11-63-3-33-29,65c-33,120-29,131,54,153c35,10,66,17,69,18C3783,6079,3774,6071,3760,6060z M3385,6031
		c25-5,34-10,25-14c-20-8-233-37-268-36c-24,0-25,1-7,9c13,6-14,8-75,5c-75-4-90-3-70,6C3061,6033,3289,6050,3385,6031z M3659,5813
		c13-79,36-162,67-244c62-168,75-233,67-345c-3-50-3-107,1-126c7-40,70-118,94-118c14,0,37-101,146-660c71-364,126-663,124-666
		c-3-2-16-1-29,4c-50,19-84,4-119-54c-30-50-50-62-50-28c0,33-40,5-67-47c-26-49-73-102-107-119c-16-8-36-29-44-47
		c-17-36-42-44-42-15c0,49-46,21-56-34c-3-19-10-37-15-40s-9-19-9-36c0-44-25-68-72-68c-36,0-38,2-38,30c0,18-18,60-45,104
		c-25,41-45,77-45,81c0,3-15,21-32,39c-33,32-78,53-78,35c0-5-10-14-23-20c-37-17-58-84-48-149c19-117-16-168-38-56
		c-10,51-18,68-43,86c-33,25-48,16-48-27c0-32-12-29-34,8c-16,27-17,38-7,89c9,42,9,103,1,227c-5,92-13,177-16,189c-4,15,6,34,35,67
		c22,26,47,60,57,76c9,15,29,36,44,45s31,28,35,43c4,16,15,36,26,46c10,10,19,25,19,35c0,9,16,48,35,85c36,71,123,332,149,447
		c8,36,19,112,25,170s20,139,31,180c22,85,29,313,9,326c-15,9-4,57,20,92c15,21,20,50,24,134c5,116,57,415,69,394
		C3636,5939,3648,5880,3659,5813z M2680,5509c0-6-4-7-10-4c-5,3-10,11-10,16c0,6,5,7,10,4C2676,5522,2680,5514,2680,5509z
		 M2640,5452c0-15-2-15-10-2c-13,20-13,33,0,25C2636,5472,2640,5461,2640,5452z M1637,3429c-1-60-5-109-8-109s-19,37-37,81
		c-26,69-28,84-17,95c7,8,21,11,31,7c14-5,16-2,12,19c-3,18-1,25,8,21C1635,3540,1638,3509,1637,3429z M2751,3333
		c18-36,34-88,37-115l5-48h-152c-123,0-151,3-151,14c0,9,7,12,21,9c21-6,21-3,17,61c-3,54-1,66,10,61c8-3,31-8,51-11
		c36-6,40-3,80,45c24,28,44,51,46,51S2733,3370,2751,3333z M2517,3238c-3-7-5-2-5,12s2,19,5,13C2519,3256,2519,3244,2517,3238z
		 M3785,3240c4-6,4-24,0-40c-6-28-10-30-51-30c-37,0-44,3-44,20C3690,3232,3766,3271,3785,3240z M2476,3172c-12-11-17,7-9,34l8,29
		l3-28C2480,3191,2479,3176,2476,3172z M3047,2991c97-44,109-202,22-276c-23-19-42-25-77-25c-95,0-148,65-140,171
		c5,68,27,105,79,131C2974,3015,2995,3014,3047,2991z M4280,2982c59-43,77-141,40-217c-24-50-65-75-123-75c-109,0-170,126-116,238
		C4118,3004,4214,3030,4280,2982z M2820,2960c0-47-27-58-32-12c-3,24-7,27-38,27h-35l-3-126l-3-127l26-6c47-12,25-26-40-26
		c-63,0-85,12-45,25c19,6,20,15,20,136v129h-31c-24,0-32-6-40-30c-15-42-29-37-29,10v40h125h125V2960z M3371,2973c32-32,30-80-5-110
		c-26-22-27-26-13-41c8-9,20-36,26-59c7-27,19-44,31-48c32-10,23-25-15-25c-39,0-45,9-65,88c-8,32-18,45-37,53c-43,16-53,5-53-55
		c0-49,2-54,25-60c47-12,25-26-40-26c-63,0-85,12-45,25c19,6,20,15,20,136c0,122-1,129-20,129c-11,0-20,5-20,11c0,7,31,10,95,7
		C3336,2995,3353,2992,3371,2973z M3605,2889l80-111l3,88c3,101,0,114-28,114c-11,0-20,5-20,10c0,6,25,10,55,10c54,0,74-13,35-23
		c-19-5-20-14-20-146c0-78-3-141-8-141c-4,0-45,52-91,115s-87,118-92,121s-9-42-9-100c0-100,1-105,22-108c12-2,23-9,26-15
		c3-9-12-13-52-13c-56,0-74,13-36,25c19,6,20,15,20,136c0,122-1,129-20,129c-11,0-20,5-20,10c0,6,17,10,38,10
		C3524,3000,3528,2996,3605,2889z M4010,2960c0-47-14-52-29-10c-9,28-13,30-60,30h-51v-60v-60h35c28,0,35,4,35,20c0,11,5,20,10,20
		c6,0,10-22,10-50c0-27-4-50-10-50c-5,0-10,9-10,20c0,16-7,20-35,20h-35v-60v-60h59c57,0,59,1,65,30c9,46,26,36,26-15v-45h-120
		c-72,0-120,4-120,10c0,5,11,12,25,16l26,6l-3,127c-3,122-4,126-25,129c-13,2-23,8-23,13s51,9,115,9h115V2960z M1850,2856v-133l30-6
		c59-12,31-27-50-27s-109,15-50,27l30,6v113v114h-30c-40,0-38,17,3,29C1853,2999,1850,3004,1850,2856z M2128,2884c12-14,22-38,22-55
		v-29h-75c-83,0-91-7-54-54c24-31,72-35,101-9c10,9,21,13,26,9c4-4-6-19-21-32c-62-54-153-19-164,63C1948,2890,2059,2962,2128,2884z
		 M2260,2888c0-20,1-19,25,6c13,14,30,26,37,26c24,0,41-18,34-35c-5-13-14-16-36-11c-26,5-32,1-45-24c-8-16-15-51-15-79
		c0-41,4-51,20-56c38-12,20-25-35-25c-52,0-72,11-41,23c32,12,32,157,0,157c-23,0-16,18,13,34C2250,2921,2260,2917,2260,2888z
		 M2415,2720c0-18-6-26-23-28c-13-2-25,3-28,12c-10,26,4,48,28,44C2409,2746,2415,2738,2415,2720z M3123,2569c34-9,37-13,37-44
		c0-44-21-46-37-5c-10,26-16,30-50,30c-47,0-81-22-99-66c-40-94,11-204,95-204c42,0,51,10,51,61c0,46-2,49-25,49c-14,0-25,5-25,10
		c0,6,27,10,60,10c64,0,69-3,45-26c-9-9-15-34-15-60c0-39-3-46-26-54c-14-6-47-10-73-10c-113,0-183,115-137,224
		C2956,2561,3033,2594,3123,2569z M3425,2560c54-26,77-67,78-138c1-98-53-162-136-162c-87,0-137,57-137,156c0,72,26,119,80,146
		C3355,2585,3374,2585,3425,2560z M2426,2554c65-31,94-142,55-214c-29-54-71-73-173-78c-65-3-88-1-88,8c0,6,9,14,20,17
		c19,5,20,14,20,130s-1,125-20,130c-46,12-14,23,66,23C2364,2570,2403,2565,2426,2554z M2754,2554c3-9,6-27,6-40c0-35-27-30-35,6
		c-7,30-8,31-58,28l-52-3l-3-57l-3-58h36c28,0,35,4,35,20c0,11,7,20,15,20c11,0,15-12,15-50s-4-50-15-50c-8,0-15,9-15,20
		c0,16-7,20-35,20h-35v-60v-60h59c58,0,60,1,66,30c9,43,40,41,31-1c-3-17-6-38-6-45c0-11-24-14-115-14c-77,0-115,4-115,11
		c0,6,9,13,20,16c19,5,20,14,20,130s-1,125-20,130c-50,13-11,23,89,23C2729,2570,2749,2567,2754,2554z M3660,2561c0-5-9-11-20-14
		c-19-5-20-14-20-131v-126h54c51,0,54,1,60,30c3,18,12,30,21,30c16,0,18-11,9-59l-6-31h-109c-72,0-109,4-109,11c0,6,9,13,20,16
		c19,5,20,14,20,130s-1,125-20,130c-40,11-18,23,40,23C3633,2570,3660,2566,3660,2561z M4030,2530c0-49-24-55-34-9c-6,29-7,30-58,27
		l-53-3v-55v-55l33-3c27-3,35,1,39,17c10,40,23,21,23-34c0-54-15-77-22-32c-2,18-9,22-38,22h-35l-3-56c-3-53-1-57,23-63
		c47-12,25-26-40-26c-63,0-85,12-45,25c19,6,20,15,20,136c0,122-1,129-20,129c-11,0-20,5-20,10c0,6,45,10,115,10h115V2530z"/>
	<path class="st0" d="M2938,2963c-28-33-38-61-38-113c0-121,73-179,140-112c51,51,50,172-1,223C3015,2985,2959,2986,2938,2963z"/>
	<path class="st0" d="M4145,2954c-47-51-45-166,5-216c31-31,46-34,84-17c51,24,73,130,42,204C4251,2985,4187,2999,4145,2954z"/>
	<path class="st0" d="M3247,2973c-4-3-7-30-7-60v-53h38c66,0,99,70,50,104C3305,2980,3259,2985,3247,2973z"/>
	<path class="st0" d="M2042,2889c-24-9-45-49-32-62c4-5,27-7,51-5c39,3,44,6,44,27C2105,2880,2072,2901,2042,2889z"/>
	<path class="st0" d="M3312,2527c-54-57-43-204,18-237c71-38,143,54,125,162C3440,2538,3361,2579,3312,2527z"/>
	<path class="st0" d="M2300,2420v-130h43c67,0,107,47,107,128c0,77-48,132-117,132h-33V2420z"/>
	<path class="st0" d="M2297,2071c-46-10-84-36-115-81c-32-48-44-101-41-192l2-81l-60-22c-79-28-145-67-176-104l-24-29l-7,79
		c-12,142-67,243-160,292c-36,18-62,22-198,25c-87,2-158,0-158-5c0-4,9-14,20-21c19-12,20-23,20-342s-1-330-20-342
		c-11-7-20-16-20-20c0-15,285-9,329,7c55,19,104,57,126,99l19,35l29-60c32-67,74-101,153-125c66-20,197-18,261,5l52,18l38-47
		c49-60,112-111,165-132c60-24,155-23,195,2c37,22,68,64,58,80c-12,19-30,10-45-23c-31-66-106-72-182-14c-42,32-137,160-138,185
		c0,7,13,30,30,50c16,20,42,64,57,97c24,51,28,73,28,146v86l38,22l37,22v-217c0-207-1-216-20-221c-57-15-1-23,160-23
		c192,0,229,7,279,53c58,54,78,165,42,242c-20,45-70,92-107,101c-31,8-30,15,6,36c70,40,95,159,47,228c-44,67-71,75-269,78
		c-98,2-178,0-178-5c0-4,9-14,20-21c18-11,21-21,18-84l-3-72l-49-37c-27-20-98-60-158-88c-122-56-116-58-132,31l-7,36l53,17
		c139,46,198,106,198,203C2510,2033,2413,2094,2297,2071z M2375,2044c46-18,59-121,23-185c-22-40-78-84-122-95c-22-5-25-2-31,30
		c-4,19-5,72-3,117c3,77,5,82,36,110S2341,2057,2375,2044z M1622,1931c79-30,127-139,135-306c8-180-34-319-110-366
		c-44-26-122-26-137,0c-6,13-10,142-10,350v331h49C1576,1940,1609,1936,1622,1931z M2884,1910c48-57,56-151,20-222
		c-23-44-52-58-121-58h-63v155v155h69C2854,1940,2860,1938,2884,1910z M2169,1595l13-60l-35-52c-45-66-52-109-32-179
		c20-71,40-67,36,7c-2,43,3,61,21,88c24,36,48,51,48,31c0-6,19-50,42-98c24-48,44-90,46-94c5-11-64-37-117-44c-60-8-148,16-178,48
		c-70,75-69,222,1,329c32,47,127,115,137,96C2154,1661,2163,1628,2169,1595z M2920,1583c68-76,67-241-1-314c-27-29-30-30-111-27
		l-83,3l-3,189l-2,188l86-3C2888,1615,2893,1614,2920,1583z M2508,1533c-5-82-30-145-81-208l-24-29l-21,39c-40,80-72,184-59,192
		c29,19,163,82,176,82C2510,1610,2512,1594,2508,1533z"/>
	<path class="st0" d="M6206,1957c-12-9-17-23-14-42c2-24,8-31,31-33c50-6,75,38,41,72C6245,1973,6229,1974,6206,1957z M6235,1895
		c5,0,13,14,16,30c5,25,7,27,14,12c9-21-10-47-37-47c-22,0-33,23-22,48c6,14,8,11,13-13C6222,1909,6230,1895,6235,1895z"/>
	<path class="st0" d="M10,1952c0-4,9-13,20-20c19-12,20-23,20-342s-1-330-20-342c-11-7-20-16-20-20c0-5,103-8,230-8h230l4,23
		c9,41,13,167,6,167c-4,0-12-18-19-40c-14-46-52-95-92-115c-18-10-58-15-113-15c-74,0-87,3-96,19c-6,12-10,135-10,331v311l25,25
		c14,14,25,27,25,29c0,3-43,5-95,5S10,1957,10,1952z"/>
	<path class="st0" d="M470,1957c0-2-38-132-85-288c-73-244-89-287-113-306l-27-23h54c54,0,54,0,36,20c-17,19-17,24-4,68l15,47l121,3
		l122,3l32-103c17-57,33-106,35-110c2-3-3-13-11-21c-8-9-15-18-15-21s43-6,95-6c57,0,95,4,95,10s-6,10-13,10c-8,0-21,8-30,18
		c-8,9-61,171-118,360l-102,342h-43C490,1960,470,1958,470,1957z M528,1690c29-96,52-181,52-187c0-10-29-13-109-13
		c-61,0-112,3-114,8c-6,11,107,382,114,374C474,1868,500,1786,528,1690z"/>
	<path class="st0" d="M850,1952c0-4,9-13,20-20c19-12,20-23,20-342s-1-330-20-342c-32-20-24-28,30-28c55,0,60,4,30,28
		c-20,16-20,26-18,314l3,298l142-318l142-317l41-3l40-3v345c0,333,1,347,20,366c11,11,20,22,20,25s-22,5-50,5c-27,0-50-2-50-5
		c0-2,11-15,25-29l25-25v-276c0-152-4-274-9-271c-4,3-68,141-142,306l-134,300h-67C880,1960,850,1957,850,1952z"/>
	<path class="st0" d="M3120,1952c0-4,9-13,19-19c18-12,20-28,23-290c3-242,5-282,20-310c67-121,284-151,375-52c49,54,53,80,53,369
		c0,259,1,270,20,282c32,20,24,28-30,28c-27,0-50-2-50-5c0-2,11-15,25-29l25-25v-229c0-126-4-254-10-283c-23-125-167-181-261-102
		c-56,48-59,66-59,363c0,259,1,270,20,282c11,7,20,16,20,20c0,5-43,8-95,8S3120,1957,3120,1952z"/>
	<path class="st0" d="M3680,1950c0-5,4-10,9-10s17-7,25-16c14-13,16-57,16-330c0-316-4-354-35-354c-8,0-15-4-15-10s38-10,95-10
		c52,0,95,3,95,8c0,4-9,13-20,20c-19,12-20,23-20,342s1,330,20,342c11,7,20,16,20,20c0,5-43,8-95,8C3718,1960,3680,1956,3680,1950z"
		/>
	<path class="st0" d="M3910,1952c0-4,9-13,20-20c19-12,20-23,20-342s-1-330-20-342c-11-7-20-16-20-20c0-5,101-8,224-8h223l8,91
		c6,87,2,122-11,83c-19-61-42-99-73-122c-30-23-46-27-120-31c-73-3-87-1-98,15c-10,14-13,88-13,335c0,275,2,320,16,333
		c8,9,20,16,25,16s9,5,9,10c0,6-38,10-95,10C3953,1960,3910,1957,3910,1952z"/>
	<path class="st0" d="M4390,1953c0-4,9-14,20-21c19-12,20-23,20-342s-1-330-20-342c-11-7-20-16-20-20c0-5,65-8,144-8
		c156,0,200,9,260,55c138,105,155,457,28,597c-65,72-96,82-274,86C4461,1960,4390,1958,4390,1953z M4652,1931c79-30,127-139,135-306
		c8-180-34-319-110-366c-44-26-122-26-137,0c-6,13-10,142-10,350v331h49C4606,1940,4639,1936,4652,1931z"/>
	<path class="st0" d="M4950,1952c0-4,9-13,20-20c19-12,20-23,20-342s-1-330-20-342c-11-7-20-16-20-20c0-5,43-8,95-8c57,0,95,4,95,10
		s-7,10-15,10s-19,9-25,19c-11,21-14,608-4,648c3,12,15,25,25,28c45,15,12,25-76,25C4993,1960,4950,1957,4950,1952z"/>
	<path class="st0" d="M5170,1950c0-5,4-10,9-10s17-7,25-16c14-13,16-57,16-330c0-316-4-354-35-354c-8,0-15-4-15-10c0-5,23-10,50-10
		c54,0,62,8,30,28c-19,12-20,23-20,315c0,196,4,297,10,287c5-8,71-153,147-322l137-308h38h38v333c0,182,3,342,6,354s15,25,25,28
		c37,12,18,25-36,25c-30,0-55-4-55-10c0-5,7-10,15-10s19-9,25-19c12-24,14-580,2-565c-5,5-61,127-126,272c-64,145-124,279-133,298
		c-17,34-17,34-85,34C5199,1960,5170,1956,5170,1950z"/>
	<path class="st0" d="M5907,1950c-51-13-107-43-134-72c-64-69-96-213-81-366c12-127,65-220,150-263c51-26,153-35,203-19
		c29,10,40,10,43,1c4-12,142-16,142-3c0,4-9,13-20,20c-19,11-20,23-20,162s1,151,20,162c11,7,20,16,20,20c0,5-43,8-95,8
		c-57,0-95-4-95-10c0-5,4-10,9-10s17-7,25-16c13-12,16-41,16-153c0-158-1-161-79-169c-126-12-203,114-205,333c-2,214,62,347,173,362
		c76,10,148-48,158-127c10-73,23-41,23,55c0,52-3,95-6,95s-14-10-23-21c-16-20-19-21-48-5C6043,1954,5956,1962,5907,1950z"/>
	<path class="st0" d="M1372,708l3-403l28-53c36-68,94-124,165-159l57-28l593-3l592-3v40v40l-577,3l-578,3l-47,23c-25,13-64,43-87,67
		c-68,74-71,97-71,512v363h-40h-41L1372,708z"/>
	<path class="st0" d="M4820,747c0-415-3-438-71-512c-23-24-62-54-87-67l-47-23l-582-3l-583-3V99V59l598,3l597,3l57,28
		c71,35,129,91,165,159l28,53l3,403l3,402h-41h-40V747z"/>
	<path class="st0" d="M2073,866c-24-21-26-27-18-52c7-20,25-36,58-53c47-23,59-45,35-69c-20-20-66-15-73,8c-9,28-25,25-25-4
		c0-27,16-36,66-36c76,0,98,76,34,117c-72,46-76,50-64,70c16,27,60,29,67,4c7-29,27-26,27,3c0,16-7,26-22,30
		C2118,894,2102,891,2073,866z"/>
	<path class="st0" d="M2874,856c-28-28-34-42-34-75c0-72,41-121,100-121c93,0,134,137,60,203C2957,901,2917,899,2874,856z M2980,850
		c25-25,28-114,4-148c-17-25-65-30-83-8c-22,27-31,78-21,118C2896,870,2942,888,2980,850z"/>
	<path class="st0" d="M3930,863c-57-51-50-157,11-188c76-40,149,10,149,101C4090,873,3997,923,3930,863z M4020,860
		c26-14,42-77,30-119c-13-46-28-61-61-61c-43,0-63,37-57,107C3938,860,3970,887,4020,860z"/>
	<path class="st0" d="M4552,878c-53-26-34-91,37-123c42-18,52-40,29-63c-20-20-66-15-73,8c-9,28-25,25-25-4c0-27,16-36,66-36
		c40,0,74,29,74,63c0,26-20,47-64,68c-40,19-54,43-37,63c20,24,61,21,61-4c0-11,7-20,15-20c22,0,18,37-4,50
		C4607,893,4582,892,4552,878z"/>
	<path class="st0" d="M1643,873c15-4,17-17,17-99c0-77-3-94-15-94c-8,0-15-4-15-10c0-5,17-10,38-10c117,0,162,32,162,115
		c0,41-5,57-25,79c-22,24-30,26-102,25C1660,878,1633,876,1643,873z M1748,864c45-13,65-89,37-143c-15-31-33-41-71-41
		c-24,0-24,2-24,88C1690,874,1692,878,1748,864z"/>
	<path class="st0" d="M1861,873c21-5,29-33,29-98c0-64-9-95-26-95c-8,0-14-4-14-10s35-10,85-10h85v30c0,17-4,30-10,30
		c-5,0-10-9-10-21c0-18-5-20-42-17c-43,3-43,3-43,43c0,31,4,41,18,43c10,2,25-5,32-15c13-16,14-14,14,22s-1,38-14,22
		c-7-10-22-17-32-15c-14,2-18,12-18,43c0,39,1,40,37,43c29,3,38-1,43-17c9-29,25-26,25,4c0,25-1,25-87,24
		C1884,878,1852,876,1861,873z"/>
	<path class="st0" d="M2260,788c-18-51-39-98-46-104c-22-18-17-24,21-24c19,0,35,5,35,10c0,6-7,10-14,10c-12,0-13,6-5,30
		c9,25,16,30,45,30c28,0,36-5,44-26c13-33,13-34-5-34c-8,0-15-4-15-10c0-5,20-10,45-10s45,5,45,10c0,6-6,10-13,10s-27,42-46,100
		s-38,100-45,100C2298,880,2279,840,2260,788z M2320,768c0-13-8-18-25-18c-29,0-29,0-13,53l12,40l13-29C2313,798,2319,777,2320,768z
		"/>
	<path class="st0" d="M2433,873c15-4,17-17,17-99c0-77-3-94-15-94c-8,0-15-4-15-10c0-5,20-10,45-10c44,0,60,12,30,24
		c-17,6-21,71-5,81c19,11,45-13,60-57c11-31,22-44,38-46c12-2,22,1,22,7s-4,11-10,11c-5,0-14,18-20,40s-16,40-22,40s-2,10,10,23
		c28,29,29,73,3,87c-11,5-50,9-88,9C2446,878,2423,876,2433,873z M2541,860c28-15,25-58-5-72c-37-16-56-4-56,35
		C2480,871,2498,882,2541,860z"/>
	<path class="st0" d="M2641,873c21-5,29-33,29-98c0-64-9-95-26-95c-8,0-14-4-14-10c0-5,23-10,50-10c50,0,67,13,30,23
		c-15,4-20,14-20,40c0,20,4,39,10,42c19,12,48-15,62-57c12-35,20-44,41-46c15-2,27,1,27,7s-6,11-13,11c-6,0-20,21-29,46
		c-14,41-15,49-2,61c21,21,18,70-5,83c-11,5-50,9-88,9C2656,878,2632,876,2641,873z M2751,860c28-15,25-58-5-72c-37-16-56-4-56,35
		C2690,871,2708,882,2751,860z"/>
	<path class="st0" d="M3073,873c15-4,17-17,17-99c0-77-3-94-15-94c-8,0-15-4-15-10s33-10,79-10h79l6,32c3,17,4,33,2,36
		c-9,9-26-10-26-29c0-16-7-19-40-19h-40v90c0,74,3,91,18,99c13,8,5,10-33,10C3078,878,3063,876,3073,873z"/>
	<path class="st0" d="M3263,869c14-8,17-25,17-99c0-73-3-90-15-90c-8,0-15-4-15-10s33-10,80-10h80v35c0,39-17,48-22,13
		c-2-19-10-24-40-26l-38-3v95c0,82,2,95,18,99c9,3-5,5-33,6C3257,879,3249,877,3263,869z"/>
	<path class="st0" d="M3490,780c-19-55-41-100-47-100c-7,0-13-4-13-10c0-5,18-10,40-10s40,5,40,10c0,6-7,10-15,10c-18,0-19,14-5,41
		c21,39,90,16,90-30c0-6-7-11-15-11s-15-4-15-10c0-5,20-10,45-10c42,0,61,13,33,22c-6,2-26,47-43,99c-19,55-38,95-46,97
		C3529,880,3514,851,3490,780z M3544,806c3-13,9-31,12-40c5-13-1-16-26-16s-31,3-26,16c3,9,9,27,12,40s10,24,14,24
		S3541,819,3544,806z"/>
	<path class="st0" d="M3673,869c14-8,17-25,17-95c0-66-3-86-15-90c-8-4-15-11-15-17c0-15,128-1,156,18c33,22,50,83,34,129
		c-17,53-42,66-125,66C3673,879,3659,877,3673,869z M3803,839c27-33,23-104-8-134c-13-14-36-25-50-25h-25v96v97l33-7
		C3770,863,3793,850,3803,839z"/>
	<path class="st0" d="M4123,873c15-4,17-17,17-99c0-77-3-94-15-94c-8,0-15-4-15-10c0-5,20-10,45-10c44,0,60,12,30,24
		c-17,6-21,71-5,81c19,11,45-13,60-57c11-31,22-44,38-46c21-3,32,12,14,20c-4,2-17,22-29,45c-20,41-20,43-2,59c23,21,24,57,3,78
		c-11,12-34,16-87,15C4137,878,4113,876,4123,873z M4231,860c39-21,12-80-37-80c-21,0-24,4-24,38C4170,871,4187,883,4231,860z"/>
	<path class="st0" d="M4333,873c15-4,17-17,17-99c0-77-3-94-15-94c-8,0-15-4-15-10s35-10,85-10h85v30c0,17-4,30-10,30
		c-5,0-10-9-10-21c0-18-5-20-42-17c-43,3-43,3-43,43c0,31,4,41,18,43c10,2,25-5,32-15c13-16,14-15,15,20c0,20-4,37-10,37
		c-5,0-10-7-10-16c0-10-7-14-22-12c-20,3-23,9-23,43c0,39,1,40,36,43c30,2,37-1,42-17c7-29,27-26,27,4c0,25-1,25-87,24
		C4354,878,4323,876,4333,873z"/>
	<path class="st0" d="M2544,556c-28-28-34-42-34-75c0-52,21-94,55-109c76-35,145,17,145,108c0,34-6,48-34,76
		C2630,602,2590,602,2544,556z M2650,550c28-28,30-107,4-147c-31-49-99-19-104,47c-6,76,16,120,60,120C2621,570,2639,561,2650,550z"
		/>
	<path class="st0" d="M2760,570c-37-37-21-79,41-110c45-24,57-43,39-65c-19-23-67-19-75,5c-9,28-25,25-25-4c0-27,16-36,66-36
		c40,0,74,29,74,63c0,26-20,47-64,68c-40,19-54,43-37,63c20,24,61,21,61-4c0-11,7-20,15-20c22,0,18,37-4,50
		C2820,596,2782,592,2760,570z"/>
	<path class="st0" d="M3033,570c-36-22-60-82-49-125c12-47,59-85,104-85c56,0,72,8,72,36c0,29-16,32-25,4c-10-31-68-27-94,6
		c-31,39-29,107,4,139c30,31,75,33,82,5c7-26,33-26,33,0C3160,591,3087,603,3033,570z"/>
	<path class="st0" d="M3640,561c-53-52-52-131,1-175c69-59,159-8,159,89C3800,574,3704,626,3640,561z M3747,543c40-60,11-163-46-163
		c-16,0-34,7-41,15c-15,18-24,86-16,119C3659,573,3717,589,3747,543z"/>
	<path class="st0" d="M3855,565c-41-40-27-76,41-105c35-15,44-24,44-44c0-39-73-53-83-16c-7,28-27,25-27-4c0-27,16-36,66-36
		c76,0,98,76,34,117c-72,46-76,50-64,70c16,27,60,29,67,4c7-29,27-26,27,3C3960,597,3893,604,3855,565z"/>
	<path class="st0" d="M2333,573c15-4,17-17,17-98s-2-94-17-98c-10-3,19-5,64-6c81-1,83,0,89,24c4,14,4,28,1,31c-10,10-27-7-27-27
		c0-16-7-19-40-19h-40v90c0,74,3,91,18,99c13,8,5,10-33,10C2338,578,2323,576,2333,573z"/>
	<path class="st0" d="M3261,558c-4-13-20-58-35-100c-17-47-34-79-44-81c-9-3,3-5,28-5s37,2,28,5c-21,5-21,4-8,37c8,21,16,26,44,26
		c29,0,36-5,44-29c9-25,8-31-6-34c-9-3,6-5,33-5c28,0,42,2,33,5c-12,3-28,37-50,104C3296,581,3277,602,3261,558z M3299,463
		c1-7-10-13-24-13c-28,0-31,11-13,61l11,33l13-34C3293,491,3299,469,3299,463z"/>
	<path class="st0" d="M3413,573c15-4,17-17,17-98s-2-94-17-98c-10-3,14-5,53-6c44-1,77,4,88,12c24,18,24,67,0,84c-14,10-15,16-6,25
		c15,15,15,61,0,76c-7,7-40,12-82,11C3427,578,3403,576,3413,573z M3520,556c6-8,10-25,8-38c-2-18-10-24-35-26c-32-3-33-2-33,37
		c0,36,3,41,24,41C3497,570,3513,563,3520,556z M3521,460c42-23,14-80-40-80c-18,0-21,6-21,45s3,45,21,45
		C3492,470,3510,465,3521,460z"/>
	<path class="st0" d="M2867,172c-10-10-17-24-17-30c0-17,37-15,44,3c9,24,36,18,36-8c0-14-16-39-40-62c-56-55-53-65,20-65
		c47,0,60,3,60,15c0,10-10,15-31,15h-31l31,35c32,37,38,63,21,96C2946,196,2889,197,2867,172z"/>
	<path class="st0" d="M3007,172c-12-13-17-36-17-74c0-64,19-88,68-88c39,0,52,22,52,90c0,28-5,60-10,71C3086,196,3029,197,3007,172z
		 M3068,148c18-18,15-83-4-99c-32-26-58,46-34,92C3042,163,3051,165,3068,148z"/>
	<path class="st0" d="M3147,172c-10-10-17-24-17-30c0-17,37-15,44,3c9,24,36,18,36-8c0-14-16-39-40-62c-56-55-53-65,20-65
		c47,0,60,3,60,15c0,10-10,15-31,15h-31l31,35c32,37,38,63,21,96C3226,196,3169,197,3147,172z"/>
	<path class="st0" d="M3305,138c-46-69-46-88,1-88c27,0,37-5,41-20c7-27,30-25,35,2c2,13,2,53,0,91c-4,57-7,67-23,67
		C3348,190,3327,169,3305,138z M3347,83c-3-3-13-3-21-1c-15,3-15,6,1,28l18,25l3-23C3350,99,3349,86,3347,83z"/>
</g>
</svg>
