<?xml version="1.0" encoding="UTF-8"?>
<svg id="Capa_2" data-name="Capa 2" xmlns="http://www.w3.org/2000/svg" viewBox="0 0 177.4 125.4">
  <defs>
    <style>
      .cls-1 {
        fill: #fff;
        stroke-width: 0px;
      }
    </style>
  </defs>
  <g>
    <path class="cls-1" d="M126.91,78.78c.98,1.08,1.86,2.06,2.94,3.33h-2.55c-.2,0-.39-.2-.49-.39-.59-.59-1.18-1.18-1.57-1.86-.78-1.27-1.86-1.18-3.14-1.08v2.55c0,.59-.2.78-.69.69h-1.37c0-.2-.1-.39-.1-.59v-8.34c0-.49.1-.69.69-.69h5.39c1.77,0,3.04,1.08,3.33,2.65.29,1.47-.59,2.75-2.16,3.43-.1.1-.2.2-.29.29ZM122.11,76.72h4.02c.59,0,.98-.49,1.08-1.18,0-.69-.39-1.18-.98-1.18-1.37-.1-2.75,0-4.12,0v2.35Z"/>
    <path class="cls-1" d="M35.42,72.51c2.26,0,4.41-.1,6.57,0,1.47.1,2.65,1.27,2.84,2.75.2,1.37-.59,2.65-1.96,3.24-.1.1-.29.1-.49.2.98,1.08,1.86,2.16,2.94,3.33h-2.45c-.2,0-.39-.2-.59-.39-.59-.59-1.08-1.27-1.67-1.86-.98-1.18-1.27-1.27-3.04-.88v3.14h-2.06c-.1-3.14-.1-6.28-.1-9.51ZM37.58,74.47v1.96c0,.1.2.39.39.39h3.73c.69,0,1.08-.49,1.08-1.18s-.39-1.18-.98-1.18c-1.47-.1-2.84,0-4.22,0Z"/>
    <path class="cls-1" d="M109.26,78.19q-.2,1.86,1.47,1.86h5.3v1.96h-8.92v-9.51h8.92v1.96h-6.67q-.1.1-.1.2-.2,1.67,1.47,1.67h2.55c.49,0,.69.1.69.59v.69c.1.49-.2.59-.69.59h-3.24c-.29,0-.49,0-.78,0Z"/>
    <path class="cls-1" d="M31.59,74.66c-.59.39-1.08.78-1.67,1.18-1.08-1.08-2.26-1.57-3.82-1.18-.88.2-1.47.69-1.86,1.47-.69,1.37,0,3.04,1.57,3.73,1.57.69,3.53.1,4.02-1.27h-2.94v-1.86h4.61c.1,0,.39.39.39.59.1,1.47.1,2.84-1.37,3.73-1.57,1.08-3.33,1.37-5.1.78-2.26-.69-3.82-2.94-3.53-5,.39-2.55,2.35-4.41,5.1-4.41,1.77,0,3.33.59,4.61,2.26Z"/>
    <path class="cls-1" d="M95.34,76.23h5.39v-3.82h1.77c.2,0,.39.29.39.49v8.53c0,.39-.1.59-.59.59h-1.57v-3.73h-5.49v3.63h-2.16v-8.83c0-.69.2-.88.78-.88,1.57.1,1.27-.2,1.37,1.27.1,1.08.1,1.86.1,2.75Z"/>
    <path class="cls-1" d="M80.63,82.12c-1.67,0-3.04-.49-4.12-1.67-1.96-2.06-1.77-5.1.49-6.86,2.06-1.67,5.1-1.57,7.06.1,1.47,1.27,2.06,2.94,1.47,4.9-.59,2.06-2.16,3.04-4.22,3.43-.29.1-.59.1-.69.1ZM80.33,80.25c1.37-.1,2.65-.88,3.14-2.06.39-1.08.1-2.16-.78-2.94-1.27-1.08-3.24-1.08-4.41,0-1.37,1.18-1.27,3.14.2,4.12.49.39,1.27.59,1.86.88Z"/>
    <path class="cls-1" d="M140.35,75.35c-1.18-1.18-2.94-1.57-4.41-.78-.29.1-.59.49-.49.78,0,.2.39.59.59.69.78.2,1.57.29,2.35.39.78.1,1.57.2,2.26.49,1.86.69,2.26,3.04.78,4.31-1.86,1.57-6.28,1.37-7.94-.39-.2-.2-.29-.49-.49-.78.49-.29.98-.59,1.47-.88.1-.1.39,0,.49.1,1.37.98,2.94,1.08,4.51.59.29-.1.59-.49.78-.78-.29-.2-.59-.59-.88-.69-1.18-.29-2.35-.39-3.63-.59-1.47-.29-2.35-1.08-2.45-2.16-.1-1.37.59-2.45,1.96-2.94,1.57-.59,3.24-.59,4.9-.2.2.1.39.1.49.2l1.47,1.47c-.49.29-.88.59-1.37.98-.1.1-.29.1-.39.2Z"/>
    <path class="cls-1" d="M62.49,72.51c2.35,0,4.61-.1,6.86,0,1.67.1,2.84,1.57,2.75,3.24-.1,1.67-1.47,3.04-3.24,3.04h-4.41v3.24h-2.06c.1-3.14.1-6.28.1-9.51ZM64.54,74.47v1.86c0,.1.2.39.39.39h4.12c.59,0,.98-.49.98-1.18s-.39-1.08-.98-1.08c-1.47,0-2.94,0-4.51,0Z"/>
    <path class="cls-1" d="M56.21,72.51q2.06-.29,2.06,1.67v3.14c-.1,2.75-2.26,4.81-4.9,4.81s-4.81-2.16-4.81-4.9v-4.22c0-.49.2-.69.69-.69,1.86,0,1.47-.2,1.47,1.47v3.33c0,1.67,1.18,2.84,2.65,2.84,1.57,0,2.75-1.18,2.75-2.84v-3.92c.1-.1.1-.29.1-.69Z"/>
    <path class="cls-1" d="M145.06,82.02c1.77-3.33,3.43-6.67,5.2-10,1.77,3.43,3.53,6.67,5.3,10.1-.88,0-1.57.1-2.16,0-.29-.1-.59-.59-.69-.88-.2-.49-.49-.69-1.08-.69-.88.1-1.86,0-2.84,0-.2,0-.59.2-.69.39-.39,1.37-1.37,1.37-2.45,1.27-.2-.1-.29-.1-.59-.2ZM150.25,76.04c-.49.98-.88,1.77-1.27,2.65h2.55c-.49-.88-.78-1.67-1.27-2.65Z"/>
    <path class="cls-1" d="M109.46,88.2c-.49-.2-.69-.29-.98-.39-.78-.29-1.67-.1-2.06.59-.39.59-.29,1.47.2,1.96s1.57.69,2.16.29c.2-.2.29-.59.49-.98-.59-.1-.98-.1-1.37-.2v-.2h1.57c-.1.59.39,1.27-.39,1.77-.98.49-2.16.39-2.84-.39-.59-.69-.69-1.67-.29-2.35.78-1.27,2.75-1.37,3.53-.1Z"/>
    <path class="cls-1" d="M64.94,90.16c.49.2.78.39,1.08.49.39.1.78.2,1.18.1.39-.1.59-.49.88-.78-.29-.2-.59-.49-.98-.59s-.88-.1-1.37-.2c-.59-.2-.98-.88-.59-1.27.29-.39.88-.59,1.37-.69.59-.1,1.18.1,1.57.59,0,.1-.1.1-.1.2-.2-.1-.39-.1-.49-.2-.39-.1-.78-.2-1.08-.2-.29.1-.59.39-.88.59.29.2.49.49.78.59.39.1.88.1,1.37.2.69.2.98.78.69,1.37-.29.69-.98.78-1.57.78-.88.1-1.57-.2-1.86-.98Z"/>
    <path class="cls-1" d="M74.35,88.2c-1.08-.59-2.06-.88-2.84,0-.49.49-.49,1.18-.2,1.77.88,1.27,1.96.78,3.04.2-.2.78-1.08,1.08-1.96.98-.98-.1-1.77-.98-1.77-1.96s.59-1.77,1.67-1.96c.88-.1,1.77.2,2.06.98Z"/>
    <path class="cls-1" d="M80.24,91.34c-1.18-2.06-2.35-1.96-3.53,0,0-.1-.1-.1-.1-.2.1-.29.2-.59.39-.98.39-.78.78-1.67,1.18-2.45.2-.29.49-.59.69-.1.59,1.18,1.08,2.26,1.67,3.43-.2.1-.29.2-.29.29ZM79.25,89.47c-.29-.59-.49-.98-.78-1.67-.29.69-.49,1.18-.78,1.67h1.57Z"/>
    <path class="cls-1" d="M115.54,91.34c-1.18-1.86-2.35-2.06-3.63-.2,0-.2,0-.29.1-.49.39-.98.88-1.86,1.27-2.84.1-.2.29-.29.49-.49.1.2.29.29.39.49.49,1.08.98,2.16,1.47,3.24-.1.1-.1.2-.1.29ZM112.99,89.57h1.47c-.29-.59-.49-.98-.78-1.67-.29.59-.49,1.08-.69,1.67Z"/>
    <path class="cls-1" d="M101.12,87.8v1.08c.49,0,.98.1,1.47.1v.29c-.49,0-.98.1-1.47.1v1.27h2.65v.29c-.98.29-1.96.1-3.04.1v-3.73h2.94v.29c-.88.1-1.67.2-2.55.2Z"/>
    <path class="cls-1" d="M56.8,87.41h2.84v.29c-.78,0-1.57.1-2.45.1v1.08c.49,0,.98.1,1.47.1v.29c-.49.1-.98.1-1.47.2-.1.59-.1,1.08-.2,1.67h-.2v-3.73Z"/>
    <path class="cls-1" d="M96.02,90.75h2.26v.29c-.88.2-1.77.1-2.75.1v-3.73h.2c.39.98,0,2.16.29,3.33Z"/>
    <path class="cls-1" d="M118.48,90.75h2.45c-.49.49-1.77.49-2.84.29v-3.63h.29c0,.29.1.69.1.98v2.35Z"/>
    <path class="cls-1" d="M83.18,87.41v3.33h2.45v.29c-.29,0-.49.1-.78.1q-2.06,0-2.06-1.96v-1.67c0-.1.1-.1.1-.2q.2.1.29.1Z"/>
    <path class="cls-1" d="M62.29,87.22v4.02c-.59-.29-.59-3.53,0-4.02Z"/>
    <path class="cls-1" d="M90.43,92.41v-5.69h.2v5.69h-.2Z"/>
  </g>
  <g>
    <path class="cls-1" d="M80.82,67.31c0,.1-.2.2-.29.1-.1-.1-.1-.2-.1-.29,1.47-2.84,2.84-5.79,4.31-8.63-.1-.2.1-.39.2-.59-.1.2-.2.39-.39.59-.1.1-.2.1-.29.2-1.57,2.65-3.24,5.2-4.81,7.85-.1.1-.1.29-.29.29s-.29-.2-.2-.29c1.57-2.65,3.24-5.3,4.9-7.94.1-.1,0-.2,0-.29.1-.2.29-.39.39-.59-.2.29-.39.59-.69.88-.1.1-.2.1-.29.2-1.77,2.35-3.53,4.81-5.3,7.16-.1.1-.2.1-.29.1-.1-.1-.1-.2,0-.29,1.77-2.45,3.53-4.81,5.3-7.26,0-.1,0-.2.1-.29.2-.29.39-.49.59-.78-.29.39-.59.69-.98,1.08-.1.1-.2.1-.29.2-1.86,2.06-3.63,4.12-5.49,6.18-.1.1-.1.2-.2.2-.1.1-.29,0-.29-.1s0-.2.1-.29c1.86-2.16,3.73-4.22,5.59-6.37.1-.1,0-.2.1-.29.29-.39.69-.69.98-1.08-.39.29-.69.69-1.08,1.08-.2.1-.29.39-.59.39-1.96,1.77-3.82,3.63-5.79,5.49-.1.1-.2.29-.39.2-.2,0-.2-.29-.1-.39,1.96-1.86,3.92-3.73,5.88-5.59.1-.1,0-.2.1-.29.39-.39.78-.78,1.18-1.08.1-.1.2-.1.2-.2-.1,0-.1.1-.1.1-.59.49-1.18.98-1.77,1.37-.1.1-.2,0-.29.1-1.96,1.57-3.92,3.14-5.98,4.71-.1.1-.29,0-.29-.1s0-.2.1-.29c1.96-1.57,3.92-3.14,5.88-4.71.1-.1.1-.2.2-.29.59-.49,1.27-.98,1.86-1.47-.78.49-1.57,1.08-2.35,1.57-.1.1-.2.1-.29.1-1.96,1.27-4.02,2.65-5.98,3.92-.1.1-.1,0-.2,0-.1-.1-.1-.2-.1-.29s.2-.2.29-.2c1.86-1.27,3.82-2.55,5.69-3.82.1-.1.1-.2.2-.29.69-.49,1.37-.88,2.06-1.37.1-.1.2-.1.29-.2-.98.49-1.96,1.08-2.94,1.57-.1.1-.2.1-.29,0-1.86.98-3.82,2.06-5.69,3.14-.1.1-.2.2-.29.1-.2-.1-.1-.29,0-.39,1.96-1.08,3.82-2.06,5.79-3.14.1-.1.1-.2.2-.29.98-.49,1.96-1.08,2.94-1.57-.49.2-.88.39-1.37.59-.78.29-1.47.69-2.26.98-.1.1-.2,0-.29,0-1.86.78-3.73,1.57-5.49,2.45-.1.1-.29,0-.29-.1s0-.2.2-.29c1.86-.78,3.63-1.57,5.49-2.35.1,0,.1-.2.29-.29,1.18-.49,2.45-1.08,3.63-1.57-1.47.49-2.84.98-4.31,1.47h-.29c-1.57.49-3.14,1.08-4.81,1.57-.2.1-.39.1-.49.2-.2,0-.29-.29-.1-.39,1.77-.59,3.53-1.18,5.3-1.77.1-.1.1-.2.2-.2,1.37-.49,2.84-.98,4.22-1.47-1.67.39-3.33.78-4.9,1.18-.1,0-.2-.1-.29,0-1.57.39-3.14.78-4.81,1.18-.1,0-.2,0-.29-.2,0-.1.1-.2.2-.29,1.57-.39,3.14-.78,4.71-1.18.1,0,.2-.2.29-.2,1.67-.39,3.33-.78,4.9-1.18-1.86.29-3.73.59-5.59.78-.1,0-.29-.1-.39-.1-1.37.2-2.75.39-4.12.59-.1,0-.2,0-.29-.1-.1-.1,0-.29.2-.29,1.47-.2,2.84-.39,4.31-.69.1-.1.2-.2.29-.2,1.86-.29,3.73-.59,5.59-.78-2.06.1-4.12.29-6.18.39-.1,0-.2-.1-.29-.1-1.27.1-2.45.2-3.73.2-.1,0-.2,0-.2-.1-.1-.1,0-.29.1-.39,1.27-.1,2.55-.2,3.82-.2.1,0,.2-.1.29-.1,2.06-.1,4.12-.29,6.18-.39-.59,0-1.18,0-1.67-.1-1.67,0-3.33-.1-5.1-.1-.1,0-.2-.1-.29-.1-1.08,0-2.16-.1-3.24-.1-.1,0-.2-.1-.2-.2s.1-.29.2-.2c1.08,0,2.16.1,3.24.1.1,0,.2-.1.29-.1,2.26.1,4.51.1,6.77.2-2.45-.29-4.9-.59-7.26-.88-.1,0-.2-.2-.29-.2-.88-.1-1.77-.2-2.65-.29-.1,0-.29-.2-.2-.29,0-.1.1-.1.2-.1.88.1,1.77.2,2.65.29.1-.1.2-.1.29-.1,2.35.29,4.81.59,7.16.78h-.1c-2.55-.49-5.1-1.08-7.65-1.57-.1,0-.2-.1-.2-.2-.69-.2-1.47-.29-2.16-.39-.1,0-.2-.2-.2-.29s.1-.1.2-.1c.69.1,1.47.29,2.16.39.1,0,.2-.1.29-.1,2.55.49,5.1.98,7.65,1.57-.2-.1-.39-.1-.69-.2-2.35-.69-4.71-1.37-7.06-2.06-.2,0-.39-.1-.49-.29-.59-.2-1.08-.29-1.67-.49-.1,0-.1-.1-.1-.2s.1-.29.29-.2c.59.2,1.08.29,1.67.49.1,0,.2-.1.29,0,2.65.78,5.3,1.57,7.94,2.35-.59-.29-1.27-.49-1.86-.78-2.06-.78-4.12-1.67-6.28-2.45-.1,0-.2-.1-.2-.2-.39-.2-.78-.29-1.18-.49-.2,0-.2-.29,0-.39.1-.1.2,0,.29,0,.39.2.78.29,1.18.49.1,0,.2-.1.29,0,2.75,1.08,5.49,2.16,8.14,3.24l-8.24-4.12c-.1,0-.1-.1-.2-.2-.29-.1-.59-.29-.88-.39-.1-.1-.1-.29.1-.39.1,0,.2,0,.2.1.2.1.49.2.69.39h.29l8.24,4.12c-2.75-1.67-5.39-3.33-8.14-5-.1-.1-.1-.2-.2-.2-.2-.1-.39-.2-.49-.29-.1-.2.1-.39.2-.29.2.1.29.2.49.29h.29c2.75,1.67,5.39,3.33,8.14,5-2.65-1.96-5.3-3.92-7.85-5.79-.1,0-.1-.1-.1-.2,0-.2-.29-.2-.29-.39s.1-.29.29-.2c.1.1.2.1.29.2.1,0,.2,0,.29.1,2.45,1.86,4.9,3.63,7.45,5.49.2.1.29.2.49.29-1.18-1.08-2.45-2.16-3.63-3.24-1.27-1.18-2.55-2.26-3.82-3.43-.1-.1-.1-.2-.1-.29-.1-.1-.1-.2,0-.29s.2-.1.29,0c.1,0,.2,0,.29.1,2.45,2.16,5,4.41,7.45,6.57-.2-.2-.39-.39-.49-.59-2.16-2.26-4.31-4.51-6.47-6.77-.2-.1-.1-.39.1-.49.1-.1.29,0,.39.1,2.35,2.55,4.81,5,7.16,7.55.1.1.1.29,0,.39.2.2.39.39.59.69.1.1-.1.2-.1.1-.2-.2-.39-.49-.59-.69h-.29c.2.1.2.29.1.49.2.2.39.29.49.49q0,.1-.1.1c-.2-.1-.39-.29-.49-.49q-.1,0-.2.1c.1.1.1.29.1.39.1.1.2.2.39.29.1,0,0,.2-.1.1-.1-.1-.29-.2-.39-.29-.1,0-.1.1-.2.1.1.1.1.2.1.39.1.1.29.1.29.29-.1.1-.2-.1-.39-.1,0,0-.1.1-.2.1.1.1.1.2.1.29.1,0,.2.1.1.2-.1.1-.1,0-.2,0l-.1.1c.1.1.1.29.1.39-.1.1-.2.1-.2.2.2.2.1.39-.1.59.2.2.1.39,0,.49.2.1.2.39,0,.49.2.1.2.39,0,.49.2.1.2.39,0,.49.2.1.2.39.1.49.2.1.2.29.1.49.2.1.29.29.2.49.2.1.29.29.2.49.2,0,.29.29.2.49.2,0,.29.2.29.39.2,0,.39.2.29.39.2,0,.39.2.39.39.2,0,.39.1.39.39.2,0,.39.1.39.29.2-.1.39.1.49.29.2-.1.39,0,.49.2.2-.1.39,0,.49.2.2-.1.39,0,.49.1.2-.1.39-.1.49.1.2-.1.39-.1.49.1.1-.2.39-.1.49,0,.1-.2.39-.2.49,0,.1-.2.39-.2.49-.1.1-.2.29-.2.39-.2s.2.2.2.29v.2c0,.1,0,.2-.1.2.69,3.04,1.47,6.08,2.16,9.12,0,.1,0,.2-.1.2.1.59.29,1.18.39,1.77,0,.1-.1.2-.2.1-.1-.59-.29-1.08-.39-1.67,0-.1-.2-.1-.2-.29-.69-3.04-1.47-5.98-2.16-9.02q0-.1-.1-.1c0,.1-.1.1-.1.2.49,3.14.98,6.37,1.47,9.51,0,.1,0,.2-.1.2.1.49.1.88.2,1.37,0,.1-.1.1-.1.1v-.2c-.1-.39-.1-.88-.2-1.27-.1-.1-.2-.1-.2-.2-.49-3.14-.98-6.28-1.37-9.41q0-.1-.1-.2c0,.1-.1.2-.1.29.2,3.24.39,6.57.59,9.81,0,.1,0,.2-.1.2,0,.29,0,.69.1.98,0,0-.1,0-.1.1-.1,0-.1-.1-.1-.1,0-.29,0-.59-.1-.88q-.1-.1-.1-.2c-.2-3.24-.39-6.37-.59-9.61,0-.1,0-.2-.1-.29,0,.1-.1.2-.1.2-.1,3.24-.2,6.57-.29,9.81,0,.2,0,.39-.1.49v.59c0,.1-.1.1-.2.1v-.69c.49-.39.49-.49.49-.69.1-3.33.2-6.67.29-10v-.2c0,.1-.1.2-.2.29-.39,3.43-.78,6.77-1.18,10.2,0,.1-.1.1-.1.2v.39c0,.1-.2.1-.2,0v-.39q-.1-.1-.1-.2c.39-3.33.78-6.77,1.18-10.1q0-.1-.1-.2c0,.1-.1.2-.2.29-.69,3.33-1.37,6.67-2.06,10,0,.1-.1.1-.2.2,0,.1,0,.2-.1.2s-.1-.1-.1-.2-.1-.1-.1-.2c.69-3.33,1.37-6.67,2.06-10v-.1h0c0,.1-.1.2-.2.29-.98,3.24-1.96,6.47-2.94,9.81-.1.2-.49.1-.39-.1.98-3.24,1.96-6.47,2.84-9.71q0-.1-.1-.2c0,.2-.1.29-.29.39-1.27,3.04-2.45,6.18-3.63,9.22,0,.1-.1.2-.29.2-.1,0-.2-.2-.1-.29,1.18-3.04,2.45-6.18,3.63-9.22v-.39c-.1.2-.2.49-.39.49-1.27,2.65-2.75,5.59-4.22,8.53Z"/>
    <path class="cls-1" d="M94.36,68.19q-.1,0-.1-.1c-.2-.69-.49-1.37-.69-2.16-.1,0-.2-.1-.2-.2-.98-2.84-1.86-5.69-2.84-8.53,0-.1-.1-.2-.1-.29.1-.2.39-.2.39,0,.98,2.94,1.96,5.79,2.94,8.73v.29c.2.69.49,1.47.69,2.16,0,.1-.1.1-.1.1Z"/>
    <path class="cls-1" d="M95.83,67.6c0,.1-.1.1-.2,0-.39-.88-.69-1.67-1.08-2.55-.2-.1-.2-.29-.29-.49-1.08-2.55-2.26-5.1-3.33-7.75-.1-.1,0-.29.2-.29.1,0,.2.1.2.2,1.18,2.65,2.35,5.3,3.43,7.94v.29c.29.78.69,1.57.98,2.35,0,.1.1.2.1.29Z"/>
    <path class="cls-1" d="M97.2,67.01c-.1,0-.1-.1-.1-.1-.49-.98-1.08-1.86-1.57-2.84-.2,0-.2-.2-.29-.29-1.27-2.35-2.55-4.71-3.82-6.96-.1-.1-.1-.2,0-.29s.2-.1.29,0c.1.1.1.2.1.2,1.27,2.35,2.55,4.71,3.82,6.96.1.1.1.2,0,.29.49.98,1.08,1.96,1.57,2.94.1,0,0,.1,0,.1Z"/>
    <path class="cls-1" d="M98.57,66.03c.1.1,0,.2-.1.1-.69-1.08-1.47-2.16-2.16-3.24-.1,0-.2,0-.2-.1-1.37-2.16-2.84-4.22-4.22-6.37-.1-.1-.1-.29.1-.29.1-.1.2,0,.29.1,1.37,2.16,2.84,4.22,4.22,6.37.1.1,0,.2,0,.29.69.98,1.37,2.06,2.06,3.14Z"/>
    <path class="cls-1" d="M99.85,65.25q-.1,0-.1-.1c-.88-1.18-1.86-2.26-2.75-3.43-.1,0-.2,0-.29-.1-1.47-1.86-2.94-3.63-4.41-5.49-.1-.1-.1-.2,0-.29s.29-.1.29,0c1.47,1.86,2.94,3.73,4.41,5.59.1.1.1.2,0,.2.88,1.18,1.86,2.35,2.75,3.43q.1.1.1.2Z"/>
    <path class="cls-1" d="M101.02,64.07c.1.1,0,.2-.1.2-1.18-1.27-2.35-2.45-3.53-3.73-.1,0-.2,0-.2-.1-1.47-1.57-3.04-3.14-4.51-4.71-.1-.1-.1-.2,0-.29s.2-.1.29,0c1.47,1.57,2.94,3.14,4.51,4.71.1.1.1.2.1.29,1.08,1.18,2.26,2.45,3.43,3.63Z"/>
    <path class="cls-1" d="M102.1,62.99c.1.1,0,.1-.1.1-1.37-1.27-2.84-2.45-4.22-3.73-.1,0-.2,0-.29-.1-1.47-1.27-2.94-2.65-4.41-3.92-.1-.1-.1-.29,0-.39.1-.1.2,0,.29,0,1.47,1.27,2.94,2.65,4.41,3.92.1.1.1.2.1.2,1.37,1.37,2.84,2.65,4.22,3.92Z"/>
    <path class="cls-1" d="M103.08,61.72c.1.1,0,.2-.1.1-1.67-1.18-3.33-2.45-4.9-3.63h-.2c-1.47-1.08-2.84-2.16-4.31-3.24-.1-.1-.1-.29,0-.39.1-.1.2,0,.29,0,1.47,1.08,2.84,2.16,4.31,3.24.1,0,.1.1.1.2,1.47,1.27,3.14,2.55,4.81,3.73Z"/>
    <path class="cls-1" d="M103.87,60.44c.1.1,0,.2-.1.1-1.86-1.18-3.82-2.35-5.69-3.43-.1,0-.2.1-.2,0-1.37-.78-2.75-1.67-4.02-2.45-.1-.1-.2-.1-.2-.2s.1-.29.29-.2c.1.1.2.1.29.2,1.27.78,2.55,1.57,3.92,2.35.1,0,.1.2.1.2,1.86,1.08,3.73,2.26,5.59,3.43Z"/>
    <path class="cls-1" d="M98.08,56.03c-.1,0-.2.1-.2,0-1.27-.69-2.55-1.27-3.92-1.96-.2-.1,0-.49.2-.39,1.27.69,2.65,1.27,3.92,1.96.1,0,.1.1.1.2l6.47,3.24c.1,0,0,.2-.1.2l-6.47-3.24Z"/>
    <path class="cls-1" d="M97.79,54.95c-1.18-.49-2.35-.98-3.53-1.37-.1,0-.2-.2-.1-.29,0-.1.2-.2.29-.1,1.18.49,2.35.98,3.53,1.37.1,0,.1.1.1.2,2.45.98,4.81,1.86,7.26,2.84.1.1,0,.2-.1.1-2.35-.98-4.81-1.86-7.16-2.84-.1.1-.2.2-.29.1Z"/>
    <path class="cls-1" d="M97.59,54.07c-1.08-.29-2.16-.59-3.24-.98-.2,0-.2-.29,0-.39.1-.1.29,0,.39,0,.98.29,2.06.59,3.04.88.1,0,.1.2.2.2,2.65.78,5.2,1.57,7.85,2.35.1,0,.1.2,0,.2-2.65-.78-5.3-1.57-7.85-2.35-.2.1-.29.1-.39.1Z"/>
    <path class="cls-1" d="M97.4,53.19c-.98-.2-1.86-.39-2.84-.59-.1,0-.2-.1-.2-.2s.1-.2.2-.2c.98.2,1.86.39,2.84.59.1,0,.2.1.2.2,2.84.59,5.69,1.18,8.53,1.77,0,.1,0,.2-.1.2-2.84-.59-5.69-1.18-8.53-1.77.1-.1,0,0-.1,0Z"/>
    <path class="cls-1" d="M94.75,52.11c-.1,0-.2-.1-.2-.2s.1-.29.2-.2c.78.1,1.67.2,2.45.29.1,0,.2.1.2.2,3.04.29,6.08.69,9.02.98.1.1,0,.2-.1.2-3.04-.29-5.98-.69-9.02-.98q-.1.1-.2.1c-.78-.29-1.57-.29-2.35-.39Z"/>
    <path class="cls-1" d="M96.81,51.62c-.69,0-1.47,0-2.16-.1-.2,0-.2-.39,0-.39.69,0,1.47,0,2.16.1.1,0,.2.1.2.1,3.04.1,6.18.2,9.22.2h.29c.1.1,0,.2-.1.2-3.14-.1-6.28-.2-9.41-.2,0,0-.1.1-.2.1Z"/>
    <path class="cls-1" d="M84.94,46.42c-.1,0-.1.1-.2,0-.2-.29-.49-.59-.69-.88-.1,0-.29,0-.39-.1-2.06-2.65-4.22-5.3-6.28-7.85-.1-.1-.2-.2-.2-.29,0-.2.1-.39.29-.39.1,0,.2.1.29.2,2.06,2.65,4.12,5.2,6.18,7.85.1.1.1.2.2.29v.29c.2.29.49.59.69.88,0-.1.1,0,.1,0Z"/>
    <path class="cls-1" d="M94.75,51.03c-.1,0-.29-.2-.2-.29,0-.1.1-.1.2-.1.59,0,1.18-.1,1.77-.1.1,0,.2.1.2.1,3.24-.2,6.47-.39,9.71-.59q.1,0,.1.1c0,.1-.1.1-.1.1-3.24.2-6.47.39-9.71.59q-.1.1-.2.1c-.59,0-1.18,0-1.77.1Z"/>
    <path class="cls-1" d="M85.33,46.13c-.1.1-.1,0-.2,0-.29-.39-.49-.78-.78-1.18-.2,0-.29,0-.39-.2-1.86-2.75-3.63-5.49-5.49-8.24,0-.1-.1-.2-.1-.29,0-.2.2-.29.39-.29s.2.2.29.29c1.77,2.65,3.53,5.3,5.3,7.94.1.1.2.2.2.39,0,.1,0,.2-.1.2.29.39.49.78.78,1.08q.1.2.1.29Z"/>
    <path class="cls-1" d="M94.65,50.44c-.2,0-.29-.2-.2-.29,0-.1.2-.1.2-.1.49-.1.98-.1,1.37-.2.1,0,.2.1.2.1,3.24-.49,6.57-.98,9.81-1.47q.1,0,.2.1c0,.1-.1.1-.1.1-3.33.49-6.57.98-9.9,1.47-.1,0-.1.2-.2.2-.39,0-.88.1-1.37.1Z"/>
    <path class="cls-1" d="M85.82,45.73c.1.1,0,.2-.1.2-.29-.59-.59-1.08-.88-1.67-.2,0-.29,0-.39-.2-1.57-2.84-3.04-5.59-4.61-8.43-.1-.2,0-.39.2-.49s.29,0,.39.2c1.57,2.84,3.04,5.59,4.61,8.43.1.1.1.29,0,.39.2.49.49,1.08.78,1.57Z"/>
    <path class="cls-1" d="M94.65,49.95c-.1,0-.2,0-.2-.1-.1-.1,0-.29.1-.29.39-.1.78-.2,1.18-.29.1,0,.2,0,.2.1,3.24-.78,6.47-1.57,9.61-2.35.1,0,.29-.1.39-.1v.2c-.1,0-.2.1-.29.1-3.24.78-6.47,1.57-9.71,2.35,0,.1-.1.2-.2.2-.29,0-.69.1-1.08.2Z"/>
    <path class="cls-1" d="M86.22,45.64c-.1,0-.1-.1-.1-.1-.29-.69-.59-1.27-.88-1.96-.2,0-.29-.1-.39-.2-1.27-2.84-2.45-5.69-3.73-8.43-.1-.2.1-.49.39-.49.2,0,.29.2.29.39,1.18,2.75,2.45,5.59,3.63,8.34.1.1,0,.29-.1.39.29.69.59,1.37.88,1.96.1,0,0,.1,0,.1Z"/>
    <path class="cls-1" d="M94.45,49.46c-.2.1-.39-.29-.1-.39.29-.1.69-.2.98-.29.1,0,.2,0,.2.1,3.14-1.08,6.28-2.16,9.51-3.14,0-.2.1-.29.29-.29s.29-.2.49-.1c.2.1.29.29.2.39,0,.1-.1.2-.29.2-.1,0-.29.1-.39.1s-.1-.1-.2-.1c-3.14,1.08-6.28,2.06-9.41,3.14-.1,0-.1.2-.2.2-.39,0-.78.1-1.08.2Z"/>
    <path class="cls-1" d="M86.81,45.34c0,.1,0,.2-.1.1-.1,0-.1-.1-.1-.1-.29-.78-.49-1.57-.78-2.35-.1,0-.29-.1-.29-.2-.98-2.84-1.86-5.59-2.84-8.43-.1-.2,0-.39.2-.39.2-.1.39,0,.39.2.98,2.84,1.86,5.59,2.84,8.43.1.1,0,.29-.1.39.2.69.49,1.57.78,2.35Z"/>
    <path class="cls-1" d="M94.26,48.97c-.1.1-.29-.1-.29-.2s.2-.2.29-.2l.59-.29h.2c3.04-1.37,6.08-2.65,9.12-4.02v-.2c.1-.1.29-.2.39-.29s.29-.2.39-.1c.2,0,.29.29.2.49-.1.1-.2.2-.29.2-.1.1-.29.1-.39.2-.1,0-.2-.1-.29-.1-3.04,1.27-6.08,2.65-9.12,3.92-.1,0-.1.2-.2.2-.1.1-.29.29-.59.39Z"/>
    <path class="cls-1" d="M87.3,45.24c0,.1-.2.2-.2,0-.2-.98-.49-1.96-.69-2.94-.1,0-.29-.1-.29-.29-.69-2.75-1.27-5.39-1.96-8.14,0-.1,0-.29.1-.39.2-.1.49,0,.49.2.59,2.55,1.27,5.2,1.86,7.85,0,.1.1.29.1.39s-.1.29-.2.29c.29,1.08.59,2.06.78,3.04Z"/>
    <path class="cls-1" d="M94.06,48.48c-.2,0-.29-.2-.2-.29.2-.2.39-.2.59-.39.1-.1.2,0,.29,0,2.84-1.57,5.79-3.14,8.63-4.71,0-.1,0-.29.1-.29l.59-.29c.1-.1.29-.2.49-.1.2.1.2.39,0,.59-.29.1-.49.29-.78.39-.1.1-.29,0-.39-.1-2.84,1.57-5.79,3.14-8.63,4.71-.1,0,0,.2-.1.2-.2.1-.39.2-.59.29Z"/>
    <path class="cls-1" d="M87.79,45.15c0,.1-.2.1-.2,0-.2-1.18-.29-2.26-.49-3.43-.1,0-.2-.1-.2-.2-.1-.1-.1-.2-.1-.29-.39-2.45-.78-5-1.08-7.45,0-.1-.1-.29,0-.39.1-.2.29-.2.39-.2s.2.2.2.29c.39,2.55.78,5.1,1.18,7.55v.29c0,.1-.1.2-.2.29.2,1.18.39,2.35.49,3.53Z"/>
    <path class="cls-1" d="M93.96,47.89c-.1.1-.2.2-.39.1-.1-.1-.1-.29,0-.39.1-.1.29-.2.39-.29h.2c2.65-1.77,5.39-3.53,8.04-5.3,0-.1,0-.29.1-.39.29-.2.59-.39.98-.59.1-.1.39-.1.49.1.1.1.1.39-.1.49-.29.2-.69.39-.98.69-.1.1-.29,0-.39,0-2.65,1.77-5.39,3.53-8.04,5.3,0,.1-.2.2-.29.29Z"/>
    <path class="cls-1" d="M88.37,45.05c0,.1-.1.1-.1.1-.1,0-.1-.1-.1-.1-.1-1.27-.2-2.65-.2-3.92-.1-.1-.29-.2-.29-.29-.2-2.45-.29-4.9-.49-7.45,0-.2.2-.39.39-.39s.29.2.29.29c.2,2.45.29,4.9.49,7.35,0,.2-.1.29-.2.39,0,1.37.1,2.75.2,4.02Z"/>
    <path class="cls-1" d="M93.38,47.6c-.2,0-.2-.29-.1-.39.1-.1.29-.29.49-.2,2.45-1.96,4.9-3.92,7.35-5.88,0-.1,0-.29.1-.39.39-.29.78-.69,1.18-.98.2-.2.49,0,.49.2s-.1.29-.2.39c-.39.29-.78.59-1.18.88-.1.1-.29.1-.39,0-2.45,1.96-4.9,3.92-7.35,5.88,0,.1,0,.2-.1.29-.1.1-.2.2-.29.2Z"/>
    <path class="cls-1" d="M88.86,45.15h-.1c-.1-.1,0-.2,0-.29,0-1.47.1-2.94.1-4.31-.1-.1-.2-.2-.2-.29.1-2.26.1-4.61.2-6.86,0-.2.2-.29.39-.29s.29.2.29.39c-.1,2.16-.1,4.41-.2,6.57v.39c0,.1-.1.2-.2.2-.2,1.47-.29,2.94-.29,4.51Z"/>
    <path class="cls-1" d="M93.08,47.21c-.2.1-.39-.1-.29-.29.1-.1.2-.29.39-.2,2.16-2.06,4.31-4.12,6.57-6.18.1,0,0-.1,0-.2s0-.2.1-.29c.49-.49.98-.88,1.37-1.37.1-.1.2-.1.29-.1.2,0,.29.2.29.39,0,.1-.1.2-.1.2-.49.49-.98.88-1.37,1.37-.1.1-.29.1-.39,0-2.16,2.06-4.41,4.12-6.57,6.28,0,.1-.1.29-.29.39Z"/>
    <path class="cls-1" d="M89.36,45.15c-.1.1-.2,0-.2-.1.2-1.67.39-3.33.59-5q-.1-.1-.2-.2c-.1-.1,0-.2,0-.39.2-1.96.49-3.92.69-5.88,0-.2,0-.39.2-.49s.49.1.49.29c-.2,2.06-.49,4.22-.69,6.28,0,.2-.1.29-.29.29-.2,1.86-.39,3.53-.59,5.2Z"/>
    <path class="cls-1" d="M89.94,45.15c0,.1-.2.1-.2,0,.39-1.86.78-3.73,1.08-5.49-.1,0-.1-.1-.2-.2-.1-.1,0-.29,0-.39.39-1.86.78-3.63,1.08-5.49,0-.2.2-.29.29-.29.2,0,.39.2.29.39-.39,1.86-.78,3.73-1.18,5.59,0,.2-.2.29-.29.29-.1,1.96-.49,3.82-.88,5.59Z"/>
    <path class="cls-1" d="M92.79,46.52s-.1.1-.1,0c-.1,0,0-.1,0-.2,1.96-2.16,3.92-4.41,5.88-6.57-.1-.1-.1-.29,0-.39.49-.59,1.08-1.18,1.57-1.86.1-.1.29-.2.39-.1.2.1.2.39.1.49-.59.59-1.08,1.18-1.67,1.86-.1.1-.29.1-.39.1-1.86,2.26-3.82,4.51-5.79,6.67Z"/>
    <path class="cls-1" d="M90.43,45.34c-.1.1-.2,0-.1-.1.59-1.96,1.18-4.02,1.77-5.98-.1-.1-.2-.2-.1-.39.49-1.67.98-3.33,1.47-5,0-.2.29-.29.39-.2.2.1.2.29.2.39-.49,1.57-.98,3.14-1.37,4.81,0,.1-.1.29-.2.39q-.1.1-.2.1c-.59,1.86-1.08,3.63-1.67,5.49-.1.2-.1.39-.2.49Z"/>
    <path class="cls-1" d="M92.4,46.23c-.1.1-.2,0-.1-.1,1.67-2.26,3.33-4.51,5-6.77-.1-.1-.1-.29,0-.39.59-.78,1.18-1.57,1.77-2.35.1-.2.29-.2.49-.1.2.1.2.29.1.49-.59.78-1.18,1.57-1.77,2.35-.1.1-.29.1-.39.1-1.77,2.26-3.43,4.51-5.1,6.77Z"/>
    <path class="cls-1" d="M90.92,45.54c-.1,0-.2,0-.1-.1.78-2.16,1.67-4.22,2.45-6.28-.1-.1-.2-.2-.1-.39.59-1.47,1.18-2.84,1.67-4.31.1-.2.29-.29.39-.2.2.1.29.29.2.49-.59,1.47-1.08,2.84-1.67,4.31-.1.1-.2.2-.29.2-.78,1.96-1.57,4.02-2.35,5.98-.1.1-.1.2-.2.29Z"/>
    <path class="cls-1" d="M91.9,46.03c0,.1-.1.1-.2,0,0-.1.1-.1.1-.2,1.37-2.26,2.75-4.41,4.02-6.67-.1-.1-.1-.29,0-.39.59-.98,1.27-2.06,1.86-3.04.1-.2.29-.2.49-.1.2.1.2.29.1.49-.59.98-1.18,1.96-1.86,2.94-.1.1-.2.2-.39.2-1.37,2.26-2.75,4.51-4.12,6.77Z"/>
    <path class="cls-1" d="M91.41,45.73c0,.1-.2,0-.2-.1,1.08-2.16,2.16-4.41,3.24-6.57-.1-.1-.2-.29-.1-.39.59-1.18,1.18-2.45,1.77-3.63.1-.2.29-.2.49-.1.2.1.2.29.1.39-.59,1.18-1.18,2.45-1.86,3.63-.1.1-.2.2-.39.2-.88,2.16-1.96,4.41-3.04,6.57Z"/>
  </g>
</svg>