<?xml version="1.0" encoding="utf-8"?>
<!-- Generator: Adobe Illustrator 27.0.1, SVG Export Plug-In . SVG Version: 6.00 Build 0)  -->
<svg version="1.1" id="Capa_1" xmlns="http://www.w3.org/2000/svg" xmlns:xlink="http://www.w3.org/1999/xlink" x="0px" y="0px"
	 viewBox="0 0 177.4 125.4" style="enable-background:new 0 0 177.4 125.4;" xml:space="preserve">
<style type="text/css">
	.st0{opacity:0.48;fill:#FFFFFF;}
	.st1{opacity:0.66;fill:#FFFFFF;}
	.st2{fill:#FFFFFF;}
	.st3{opacity:0.74;fill:#FFFFFF;}
	.st4{fill-rule:evenodd;clip-rule:evenodd;fill:#FFFFFF;}
	.st5{fill:#1D2A4C;}
</style>
<g>
	<g>
		<path class="st2" d="M127.7,79.1c1,1.1,1.9,2.1,3,3.4c-1,0-1.8,0-2.6,0c-0.2,0-0.4-0.2-0.5-0.4c-0.6-0.6-1.2-1.2-1.6-1.9
			c-0.8-1.3-1.9-1.2-3.2-1.1c0,0.9,0,1.7,0,2.6c0,0.6-0.2,0.8-0.7,0.7c-0.4,0-0.9,0-1.4,0c0-0.2-0.1-0.4-0.1-0.6c0-2.8,0-5.6,0-8.5
			c0-0.5,0.1-0.7,0.7-0.7c1.8,0,3.7,0,5.5,0c1.8,0,3.1,1.1,3.4,2.7c0.3,1.5-0.6,2.8-2.2,3.5C127.9,78.9,127.8,79,127.7,79.1z
			 M122.8,77c1.4,0,2.8,0,4.1,0c0.6,0,1-0.5,1.1-1.2c0-0.7-0.4-1.2-1-1.2c-1.4-0.1-2.8,0-4.2,0C122.8,75.5,122.8,76.2,122.8,77z"/>
		<path class="st2" d="M34.4,72.7c2.3,0,4.5-0.1,6.7,0c1.5,0.1,2.7,1.3,2.9,2.8c0.2,1.4-0.6,2.7-2,3.3c-0.1,0.1-0.3,0.1-0.5,0.2
			c1,1.1,1.9,2.2,3,3.4c-1,0-1.7,0-2.5,0c-0.2,0-0.4-0.2-0.6-0.4c-0.6-0.6-1.1-1.3-1.7-1.9c-1-1.2-1.3-1.3-3.1-0.9c0,1,0,2.1,0,3.2
			c-0.8,0-1.4,0-2.1,0C34.4,79.2,34.4,76,34.4,72.7z M36.6,74.7c0,0.7,0,1.4,0,2c0,0.1,0.2,0.4,0.4,0.4c1.3,0,2.5,0,3.8,0
			c0.7,0,1.1-0.5,1.1-1.2c0-0.7-0.4-1.2-1-1.2C39.4,74.6,38,74.7,36.6,74.7z"/>
		<path class="st2" d="M109.7,78.5c-0.2,1.9-0.2,1.9,1.5,1.9c1.8,0,3.6,0,5.4,0c0,0.7,0,1.3,0,2c-3,0-6,0-9.1,0c0-3.2,0-6.4,0-9.7
			c3,0,6,0,9.1,0c0,0.6,0,1.2,0,2c-2.3,0-4.6,0-6.8,0c-0.1,0.1-0.1,0.1-0.1,0.2c-0.2,1.7-0.2,1.7,1.5,1.7c0.9,0,1.7,0,2.6,0
			c0.5,0,0.7,0.1,0.7,0.6c0,0.2,0,0.5,0,0.7c0.1,0.5-0.2,0.6-0.7,0.6c-1.1,0-2.2,0-3.3,0C110.2,78.5,110,78.5,109.7,78.5z"/>
		<path class="st2" d="M30.5,74.9c-0.6,0.4-1.1,0.8-1.7,1.2c-1.1-1.1-2.3-1.6-3.9-1.2c-0.9,0.2-1.5,0.7-1.9,1.5
			c-0.7,1.4,0,3.1,1.6,3.8c1.6,0.7,3.6,0.1,4.1-1.3c-1,0-2,0-3,0c0-0.7,0-1.2,0-1.9c1.6,0,3.2,0,4.7,0c0.1,0,0.4,0.4,0.4,0.6
			c0.1,1.5,0.1,2.9-1.4,3.8c-1.6,1.1-3.4,1.4-5.2,0.8c-2.3-0.7-3.9-3-3.6-5.1c0.4-2.6,2.4-4.5,5.2-4.5
			C27.6,72.6,29.2,73.2,30.5,74.9z"/>
		<path class="st2" d="M95.5,76.5c0.4,0,0.7,0,0.9,0c1.5,0,3,0,4.6,0c0-1.3,0-2.5,0-3.9c0.7,0,1.2,0,1.8,0c0.2,0,0.4,0.3,0.4,0.5
			c0,2.9,0,5.8,0,8.7c0,0.4-0.1,0.6-0.6,0.6c-0.5,0-1,0-1.6,0c0-1.3,0-2.5,0-3.8c-1.9,0-3.7,0-5.6,0c0,1.2,0,2.5,0,3.7
			c-0.7,0-1.4,0-2.2,0c0-0.3,0-0.5,0-0.8c0-2.7,0-5.4,0-8.2c0-0.7,0.2-0.9,0.8-0.9c1.6,0.1,1.3-0.2,1.4,1.3
			C95.5,74.8,95.5,75.6,95.5,76.5z"/>
		<path class="st2" d="M80.5,82.5c-1.7,0-3.1-0.5-4.2-1.7c-2-2.1-1.8-5.2,0.5-7c2.1-1.7,5.2-1.6,7.2,0.1c1.5,1.3,2.1,3,1.5,5
			c-0.6,2.1-2.2,3.1-4.3,3.5C80.9,82.5,80.6,82.5,80.5,82.5z M80.2,80.6c1.4-0.1,2.7-0.9,3.2-2.1c0.4-1.1,0.1-2.2-0.8-3
			c-1.3-1.1-3.3-1.1-4.5,0c-1.4,1.2-1.3,3.2,0.2,4.2C78.8,80.1,79.6,80.3,80.2,80.6z"/>
		<path class="st2" d="M141.4,75.6c-1.2-1.2-3-1.6-4.5-0.8c-0.3,0.1-0.6,0.5-0.5,0.8c0,0.2,0.4,0.6,0.6,0.7c0.8,0.2,1.6,0.3,2.4,0.4
			c0.8,0.1,1.6,0.2,2.3,0.5c1.9,0.7,2.3,3.1,0.8,4.4c-1.9,1.6-6.4,1.4-8.1-0.4c-0.2-0.2-0.3-0.5-0.5-0.8c0.5-0.3,1-0.6,1.5-0.9
			c0.1-0.1,0.4,0,0.5,0.1c1.4,1,3,1.1,4.6,0.6c0.3-0.1,0.6-0.5,0.8-0.8c-0.3-0.2-0.6-0.6-0.9-0.7c-1.2-0.3-2.4-0.4-3.7-0.6
			c-1.5-0.3-2.4-1.1-2.5-2.2c-0.1-1.4,0.6-2.5,2-3c1.6-0.6,3.3-0.6,5-0.2c0.2,0.1,0.4,0.1,0.5,0.2c0.5,0.5,1,1,1.5,1.5
			c-0.5,0.3-0.9,0.6-1.4,1C141.7,75.5,141.5,75.5,141.4,75.6z"/>
		<path class="st2" d="M62,72.7c2.4,0,4.7-0.1,7,0c1.7,0.1,2.9,1.6,2.8,3.3c-0.1,1.7-1.5,3.1-3.3,3.1c-1.4,0-2.9,0-4.5,0
			c0,1.1,0,2.2,0,3.3c-0.8,0-1.4,0-2.1,0C62,79.2,62,76,62,72.7z M64.1,74.7c0,0.7,0,1.3,0,1.9c0,0.1,0.2,0.4,0.4,0.4
			c1.4,0,2.8,0,4.2,0c0.6,0,1-0.5,1-1.2c0-0.7-0.4-1.1-1-1.1C67.2,74.7,65.7,74.7,64.1,74.7z"/>
		<path class="st2" d="M55.6,72.7c2.1-0.3,2.1-0.3,2.1,1.7c0,1.1,0,2.2,0,3.2c-0.1,2.8-2.3,4.9-5,4.9c-2.7,0-4.9-2.2-4.9-5
			c0-1.4,0-2.9,0-4.3c0-0.5,0.2-0.7,0.7-0.7c1.9,0,1.5-0.2,1.5,1.5c0,1.1,0,2.3,0,3.4c0,1.7,1.2,2.9,2.7,2.9c1.6,0,2.8-1.2,2.8-2.9
			c0-1.3,0-2.6,0-4C55.6,73.3,55.6,73.1,55.6,72.7z"/>
		<path class="st2" d="M146.2,82.4c1.8-3.4,3.5-6.8,5.3-10.2c1.8,3.5,3.6,6.8,5.4,10.3c-0.9,0-1.6,0.1-2.2,0
			c-0.3-0.1-0.6-0.6-0.7-0.9c-0.2-0.5-0.5-0.7-1.1-0.7c-0.9,0.1-1.9,0-2.9,0c-0.2,0-0.6,0.2-0.7,0.4c-0.4,1.4-1.4,1.4-2.5,1.3
			C146.6,82.5,146.5,82.5,146.2,82.4z M151.5,76.3c-0.5,1-0.9,1.8-1.3,2.7c0.9,0,1.7,0,2.6,0C152.3,78.1,152,77.3,151.5,76.3z"/>
		<path class="st2" d="M109.9,88.7c-0.5-0.2-0.7-0.3-1-0.4c-0.8-0.3-1.7-0.1-2.1,0.6c-0.4,0.6-0.3,1.5,0.2,2
			c0.5,0.5,1.6,0.7,2.2,0.3c0.2-0.2,0.3-0.6,0.5-1c-0.6-0.1-1-0.1-1.4-0.2c0-0.1,0-0.2,0-0.2c0.5,0,1,0,1.6,0
			c-0.1,0.6,0.4,1.3-0.4,1.8c-1,0.5-2.2,0.4-2.9-0.4c-0.6-0.7-0.7-1.7-0.3-2.4C107.1,87.5,109.1,87.4,109.9,88.7z"/>
		<path class="st2" d="M64.5,90.7c0.5,0.2,0.8,0.4,1.1,0.5c0.4,0.1,0.8,0.2,1.2,0.1c0.4-0.1,0.6-0.5,0.9-0.8c-0.3-0.2-0.6-0.5-1-0.6
			c-0.4-0.1-0.9-0.1-1.4-0.2c-0.6-0.2-1-0.9-0.6-1.3c0.3-0.4,0.9-0.6,1.4-0.7c0.6-0.1,1.2,0.1,1.6,0.6c0,0.1-0.1,0.1-0.1,0.2
			c-0.2-0.1-0.4-0.1-0.5-0.2c-0.4-0.1-0.8-0.2-1.1-0.2c-0.3,0.1-0.6,0.4-0.9,0.6c0.3,0.2,0.5,0.5,0.8,0.6c0.4,0.1,0.9,0.1,1.4,0.2
			c0.7,0.2,1,0.8,0.7,1.4c-0.3,0.7-1,0.8-1.6,0.8C65.5,91.8,64.8,91.5,64.5,90.7z"/>
		<path class="st2" d="M74.1,88.7c-1.1-0.6-2.1-0.9-2.9,0c-0.5,0.5-0.5,1.2-0.2,1.8c0.9,1.3,2,0.8,3.1,0.2c-0.2,0.8-1.1,1.1-2,1
			c-1-0.1-1.8-1-1.8-2c0-1,0.6-1.8,1.7-2C72.9,87.6,73.8,87.9,74.1,88.7z"/>
		<path class="st2" d="M80.1,91.9c-1.2-2.1-2.4-2-3.6,0c0-0.1-0.1-0.1-0.1-0.2c0.1-0.3,0.2-0.6,0.4-1c0.4-0.8,0.8-1.7,1.2-2.5
			c0.2-0.3,0.5-0.6,0.7-0.1c0.6,1.2,1.1,2.3,1.7,3.5C80.2,91.7,80.1,91.8,80.1,91.9z M79.1,90c-0.3-0.6-0.5-1-0.8-1.7
			C78,89,77.8,89.5,77.5,90C78.1,90,78.5,90,79.1,90z"/>
		<path class="st2" d="M116.1,91.9c-1.2-1.9-2.4-2.1-3.7-0.2c0-0.2,0-0.3,0.1-0.5c0.4-1,0.9-1.9,1.3-2.9c0.1-0.2,0.3-0.3,0.5-0.5
			c0.1,0.2,0.3,0.3,0.4,0.5c0.5,1.1,1,2.2,1.5,3.3C116.1,91.7,116.1,91.8,116.1,91.9z M113.5,90.1c0.6,0,1,0,1.5,0
			c-0.3-0.6-0.5-1-0.8-1.7C113.9,89,113.7,89.5,113.5,90.1z"/>
		<path class="st2" d="M101.4,88.3c0,0.4,0,0.7,0,1.1c0.5,0,1,0.1,1.5,0.1c0,0.1,0,0.2,0,0.3c-0.5,0-1,0.1-1.5,0.1
			c0,0.4,0,0.8,0,1.3c0.9,0,1.8,0,2.7,0c0,0.1,0,0.2,0,0.3c-1,0.3-2,0.1-3.1,0.1c0-1.3,0-2.5,0-3.8c1,0,2,0,3,0c0,0.1,0,0.2,0,0.3
			C103.1,88.2,102.3,88.3,101.4,88.3z"/>
		<path class="st2" d="M56.2,87.9c1,0,1.9,0,2.9,0c0,0.1,0,0.2,0,0.3c-0.8,0-1.6,0.1-2.5,0.1c0,0.4,0,0.7,0,1.1c0.5,0,1,0.1,1.5,0.1
			c0,0.1,0,0.2,0,0.3c-0.5,0.1-1,0.1-1.5,0.2c-0.1,0.6-0.1,1.1-0.2,1.7c-0.1,0-0.2,0-0.2,0C56.2,90.5,56.2,89.2,56.2,87.9z"/>
		<path class="st2" d="M96.2,91.3c0.8,0,1.5,0,2.3,0c0,0.1,0,0.2,0,0.3c-0.9,0.2-1.8,0.1-2.8,0.1c0-1.3,0-2.6,0-3.8
			c0.1,0,0.2,0,0.2,0C96.3,88.9,95.9,90.1,96.2,91.3z"/>
		<path class="st2" d="M119.1,91.3c0.8,0,1.6,0,2.5,0c-0.5,0.5-1.8,0.5-2.9,0.3c0-1.2,0-2.5,0-3.7c0.1,0,0.2,0,0.3,0
			c0,0.3,0.1,0.7,0.1,1c0,0.4,0,0.8,0,1.2C119.1,90.4,119.1,90.8,119.1,91.3z"/>
		<path class="st2" d="M83.1,87.9c0,1.1,0,2.2,0,3.4c0.9,0,1.7,0,2.5,0c0,0.1,0,0.2,0,0.3c-0.3,0-0.5,0.1-0.8,0.1
			c-2.1,0-2.1,0-2.1-2c0-0.6,0-1.1,0-1.7c0-0.1,0.1-0.1,0.1-0.2C83,87.9,83,87.9,83.1,87.9z"/>
		<path class="st2" d="M61.8,87.7c0,1.4,0,2.7,0,4.1C61.2,91.5,61.2,88.2,61.8,87.7z"/>
		<path class="st2" d="M90.5,93c0-1.9,0-3.9,0-5.8c0.1,0,0.1,0,0.2,0c0,1.9,0,3.9,0,5.8C90.6,93,90.5,93,90.5,93z"/>
	</g>
	<g>
		<g>
			<path class="st2" d="M80.7,67.4c0,0.1-0.2,0.2-0.3,0.1c-0.1-0.1-0.1-0.2-0.1-0.3c1.5-2.9,2.9-5.9,4.4-8.8
				c-0.1-0.2,0.1-0.4,0.2-0.6c-0.1,0.2-0.2,0.4-0.4,0.6c-0.1,0.1-0.2,0.1-0.3,0.2c-1.6,2.7-3.3,5.3-4.9,8c-0.1,0.1-0.1,0.3-0.3,0.3
				c-0.2,0-0.3-0.2-0.2-0.3c1.6-2.7,3.3-5.4,5-8.1c0.1-0.1,0-0.2,0-0.3c0.1-0.2,0.3-0.4,0.4-0.6c-0.2,0.3-0.4,0.6-0.7,0.9
				c-0.1,0.1-0.2,0.1-0.3,0.2c-1.8,2.4-3.6,4.9-5.4,7.3c-0.1,0.1-0.2,0.1-0.3,0.1c-0.1-0.1-0.1-0.2,0-0.3c1.8-2.5,3.6-4.9,5.4-7.4
				c0-0.1,0-0.2,0.1-0.3c0.2-0.3,0.4-0.5,0.6-0.8c-0.3,0.4-0.6,0.7-1,1.1c-0.1,0.1-0.2,0.1-0.3,0.2c-1.9,2.1-3.7,4.2-5.6,6.3
				c-0.1,0.1-0.1,0.2-0.2,0.2c-0.1,0.1-0.3,0-0.3-0.1c0-0.1,0-0.2,0.1-0.3c1.9-2.2,3.8-4.3,5.7-6.5c0.1-0.1,0-0.2,0.1-0.3
				c0.3-0.4,0.7-0.7,1-1.1c-0.4,0.3-0.7,0.7-1.1,1.1c-0.2,0.1-0.3,0.4-0.6,0.4c-2,1.8-3.9,3.7-5.9,5.6c-0.1,0.1-0.2,0.3-0.4,0.2
				c-0.2,0-0.2-0.3-0.1-0.4c2-1.9,4-3.8,6-5.7c0.1-0.1,0-0.2,0.1-0.3c0.4-0.4,0.8-0.8,1.2-1.1c0.1-0.1,0.2-0.1,0.2-0.2
				c-0.1,0-0.1,0.1-0.1,0.1c-0.6,0.5-1.2,1-1.8,1.4c-0.1,0.1-0.2,0-0.3,0.1c-2,1.6-4,3.2-6.1,4.8c-0.1,0.1-0.3,0-0.3-0.1
				c0-0.1,0-0.2,0.1-0.3c2-1.6,4-3.2,6-4.8c0.1-0.1,0.1-0.2,0.2-0.3c0.6-0.5,1.3-1,1.9-1.5c-0.8,0.5-1.6,1.1-2.4,1.6
				c-0.1,0.1-0.2,0.1-0.3,0.1c-2,1.3-4.1,2.7-6.1,4c-0.1,0.1-0.1,0-0.2,0c-0.1-0.1-0.1-0.2-0.1-0.3c0-0.1,0.2-0.2,0.3-0.2
				c1.9-1.3,3.9-2.6,5.8-3.9c0.1-0.1,0.1-0.2,0.2-0.3c0.7-0.5,1.4-0.9,2.1-1.4c0.1-0.1,0.2-0.1,0.3-0.2c-1,0.5-2,1.1-3,1.6
				c-0.1,0.1-0.2,0.1-0.3,0c-1.9,1-3.9,2.1-5.8,3.2c-0.1,0.1-0.2,0.2-0.3,0.1c-0.2-0.1-0.1-0.3,0-0.4c2-1.1,3.9-2.1,5.9-3.2
				c0.1-0.1,0.1-0.2,0.2-0.3c1-0.5,2-1.1,3-1.6c-0.5,0.2-0.9,0.4-1.4,0.6c-0.8,0.3-1.5,0.7-2.3,1c-0.1,0.1-0.2,0-0.3,0
				c-1.9,0.8-3.8,1.6-5.6,2.5c-0.1,0.1-0.3,0-0.3-0.1c0-0.1,0-0.2,0.2-0.3c1.9-0.8,3.7-1.6,5.6-2.4c0.1,0,0.1-0.2,0.3-0.3
				c1.2-0.5,2.5-1.1,3.7-1.6c-1.5,0.5-2.9,1-4.4,1.5c-0.1,0-0.2,0-0.3,0c-1.6,0.5-3.2,1.1-4.9,1.6c-0.2,0.1-0.4,0.1-0.5,0.2
				c-0.2,0-0.3-0.3-0.1-0.4c1.8-0.6,3.6-1.2,5.4-1.8c0.1-0.1,0.1-0.2,0.2-0.2c1.4-0.5,2.9-1,4.3-1.5c-1.7,0.4-3.4,0.8-5,1.2
				c-0.1,0-0.2-0.1-0.3,0c-1.6,0.4-3.2,0.8-4.9,1.2c-0.1,0-0.2,0-0.3-0.2c0-0.1,0.1-0.2,0.2-0.3c1.6-0.4,3.2-0.8,4.8-1.2
				c0.1,0,0.2-0.2,0.3-0.2c1.7-0.4,3.4-0.8,5-1.2c-1.9,0.3-3.8,0.6-5.7,0.8c-0.1,0-0.3-0.1-0.4-0.1c-1.4,0.2-2.8,0.4-4.2,0.6
				c-0.1,0-0.2,0-0.3-0.1c-0.1-0.1,0-0.3,0.2-0.3c1.5-0.2,2.9-0.4,4.4-0.7c0.1-0.1,0.2-0.2,0.3-0.2c1.9-0.3,3.8-0.6,5.7-0.8
				c-2.1,0.1-4.2,0.3-6.3,0.4c-0.1,0-0.2-0.1-0.3-0.1c-1.3,0.1-2.5,0.2-3.8,0.2c-0.1,0-0.2,0-0.2-0.1c-0.1-0.1,0-0.3,0.1-0.4
				c1.3-0.1,2.6-0.2,3.9-0.2c0.1,0,0.2-0.1,0.3-0.1c2.1-0.1,4.2-0.3,6.3-0.4c-0.6,0-1.2,0-1.7-0.1c-1.7,0-3.4-0.1-5.2-0.1
				c-0.1,0-0.2-0.1-0.3-0.1c-1.1,0-2.2-0.1-3.3-0.1c-0.1,0-0.2-0.1-0.2-0.2c0-0.1,0.1-0.3,0.2-0.2c1.1,0,2.2,0.1,3.3,0.1
				c0.1,0,0.2-0.1,0.3-0.1c2.3,0.1,4.6,0.1,6.9,0.2c-2.5-0.3-5-0.6-7.4-0.9c-0.1,0-0.2-0.2-0.3-0.2c-0.9-0.1-1.8-0.2-2.7-0.3
				c-0.1,0-0.3-0.2-0.2-0.3c0-0.1,0.1-0.1,0.2-0.1c0.9,0.1,1.8,0.2,2.7,0.3c0.1-0.1,0.2-0.1,0.3-0.1c2.4,0.3,4.9,0.6,7.3,0.8
				c0,0,0,0,0,0l-0.1,0c-2.6-0.5-5.2-1.1-7.8-1.6c-0.1,0-0.2-0.1-0.2-0.2c-0.7-0.2-1.5-0.3-2.2-0.4c-0.1,0-0.2-0.2-0.2-0.3
				c0-0.1,0.1-0.1,0.2-0.1c0.7,0.1,1.5,0.3,2.2,0.4c0.1,0,0.2-0.1,0.3-0.1c2.6,0.5,5.2,1,7.8,1.6c-0.2-0.1-0.4-0.1-0.7-0.2
				c-2.4-0.7-4.8-1.4-7.2-2.1c-0.2,0-0.4-0.1-0.5-0.3c-0.6-0.2-1.1-0.3-1.7-0.5c-0.1,0-0.1-0.1-0.1-0.2c0-0.1,0.1-0.3,0.3-0.2
				c0.6,0.2,1.1,0.3,1.7,0.5c0.1,0,0.2-0.1,0.3,0c2.7,0.8,5.4,1.6,8.1,2.4c-0.6-0.3-1.3-0.5-1.9-0.8c-2.1-0.8-4.2-1.7-6.4-2.5
				c-0.1,0-0.2-0.1-0.2-0.2c-0.4-0.2-0.8-0.3-1.2-0.5c-0.2,0-0.2-0.3,0-0.4c0.1-0.1,0.2,0,0.3,0c0.4,0.2,0.8,0.3,1.2,0.5
				c0.1,0,0.2-0.1,0.3,0c2.8,1.1,5.6,2.2,8.3,3.3c-2.8-1.4-5.6-2.8-8.4-4.2c-0.1,0-0.1-0.1-0.2-0.2c-0.3-0.1-0.6-0.3-0.9-0.4
				c-0.1-0.1-0.1-0.3,0.1-0.4c0.1,0,0.2,0,0.2,0.1c0.2,0.1,0.5,0.2,0.7,0.4c0.1,0,0.2,0,0.3,0c2.8,1.4,5.6,2.8,8.4,4.2
				c-2.8-1.7-5.5-3.4-8.3-5.1c-0.1-0.1-0.1-0.2-0.2-0.2c-0.2-0.1-0.4-0.2-0.5-0.3c-0.1-0.2,0.1-0.4,0.2-0.3c0.2,0.1,0.3,0.2,0.5,0.3
				c0.1,0,0.2,0,0.3,0c2.8,1.7,5.5,3.4,8.3,5.1c-2.7-2-5.4-4-8-5.9c-0.1,0-0.1-0.1-0.1-0.2c0-0.2-0.3-0.2-0.3-0.4
				c0-0.2,0.1-0.3,0.3-0.2c0.1,0.1,0.2,0.1,0.3,0.2c0.1,0,0.2,0,0.3,0.1c2.5,1.9,5,3.7,7.6,5.6c0.2,0.1,0.3,0.2,0.5,0.3
				c-1.2-1.1-2.5-2.2-3.7-3.3c-1.3-1.2-2.6-2.3-3.9-3.5c-0.1-0.1-0.1-0.2-0.1-0.3c-0.1-0.1-0.1-0.2,0-0.3c0.1-0.1,0.2-0.1,0.3,0
				c0.1,0,0.2,0,0.3,0.1c2.5,2.2,5.1,4.5,7.6,6.7c-0.2-0.2-0.4-0.4-0.5-0.6c-2.2-2.3-4.4-4.6-6.6-6.9c-0.2-0.1-0.1-0.4,0.1-0.5
				c0.1-0.1,0.3,0,0.4,0.1c2.4,2.6,4.9,5.1,7.3,7.7c0.1,0.1,0.1,0.3,0,0.4c0.2,0.2,0.4,0.4,0.6,0.7c0.1,0.1-0.1,0.2-0.1,0.1
				c-0.2-0.2-0.4-0.5-0.6-0.7c-0.1,0-0.2,0-0.3,0c0.2,0.1,0.2,0.3,0.1,0.5c0.2,0.2,0.4,0.3,0.5,0.5c0,0.1,0,0.1-0.1,0.1
				c-0.2-0.1-0.4-0.3-0.5-0.5c-0.1,0-0.1,0-0.2,0.1c0.1,0.1,0.1,0.3,0.1,0.4c0.1,0.1,0.2,0.2,0.4,0.3c0.1,0,0,0.2-0.1,0.1
				c-0.1-0.1-0.3-0.2-0.4-0.3c-0.1,0-0.1,0.1-0.2,0.1c0.1,0.1,0.1,0.2,0.1,0.4c0.1,0.1,0.3,0.1,0.3,0.3c-0.1,0.1-0.2-0.1-0.4-0.1
				c0,0-0.1,0.1-0.2,0.1c0.1,0.1,0.1,0.2,0.1,0.3c0.1,0,0.2,0.1,0.1,0.2c-0.1,0.1-0.1,0-0.2,0c0,0-0.1,0.1-0.1,0.1
				c0.1,0.1,0.1,0.3,0.1,0.4c-0.1,0.1-0.2,0.1-0.2,0.2c0.2,0.2,0.1,0.4-0.1,0.6c0.2,0.2,0.1,0.4,0,0.5c0.2,0.1,0.2,0.4,0,0.5
				c0.2,0.1,0.2,0.4,0,0.5c0.2,0.1,0.2,0.4,0,0.5c0.2,0.1,0.2,0.4,0.1,0.5c0.2,0.1,0.2,0.3,0.1,0.5c0.2,0.1,0.3,0.3,0.2,0.5
				c0.2,0.1,0.3,0.3,0.2,0.5c0.2,0,0.3,0.3,0.2,0.5c0.2,0,0.3,0.2,0.3,0.4c0.2,0,0.4,0.2,0.3,0.4c0.2,0,0.4,0.2,0.4,0.4
				c0.2,0,0.4,0.1,0.4,0.4c0.2,0,0.4,0.1,0.4,0.3c0.2-0.1,0.4,0.1,0.5,0.3c0.2-0.1,0.4,0,0.5,0.2c0.2-0.1,0.4,0,0.5,0.2
				c0.2-0.1,0.4,0,0.5,0.1c0.2-0.1,0.4-0.1,0.5,0.1c0.2-0.1,0.4-0.1,0.5,0.1c0.1-0.2,0.4-0.1,0.5,0c0.1-0.2,0.4-0.2,0.5,0
				c0.1-0.2,0.4-0.2,0.5-0.1c0.1-0.2,0.3-0.2,0.4-0.2c0.1,0,0.2,0.2,0.2,0.3c0,0.1,0,0.1,0,0.2c0,0.1,0,0.2-0.1,0.2
				c0.7,3.1,1.5,6.2,2.2,9.3c0,0.1,0,0.2-0.1,0.2c0.1,0.6,0.3,1.2,0.4,1.8c0,0.1-0.1,0.2-0.2,0.1c-0.1-0.6-0.3-1.1-0.4-1.7
				c0-0.1-0.2-0.1-0.2-0.3c-0.7-3.1-1.5-6.1-2.2-9.2c0-0.1,0-0.1-0.1-0.1c0,0.1-0.1,0.1-0.1,0.2c0.5,3.2,1,6.5,1.5,9.7
				c0,0.1,0,0.2-0.1,0.2c0.1,0.5,0.1,0.9,0.2,1.4c0,0.1-0.1,0.1-0.1,0.1c0-0.1,0-0.1,0-0.2c-0.1-0.4-0.1-0.9-0.2-1.3
				c-0.1-0.1-0.2-0.1-0.2-0.2c-0.5-3.2-1-6.4-1.4-9.6c0-0.1,0-0.1-0.1-0.2c0,0.1-0.1,0.2-0.1,0.3c0.2,3.3,0.4,6.7,0.6,10
				c0,0.1,0,0.2-0.1,0.2c0,0.3,0,0.7,0.1,1c0,0-0.1,0-0.1,0.1c-0.1,0-0.1-0.1-0.1-0.1c0-0.3,0-0.6-0.1-0.9c-0.1-0.1-0.1-0.1-0.1-0.2
				c-0.2-3.3-0.4-6.5-0.6-9.8c0-0.1,0-0.2-0.1-0.3c0,0.1-0.1,0.2-0.1,0.2c-0.1,3.3-0.2,6.7-0.3,10c0,0.2,0,0.4-0.1,0.5
				c0,0.2,0,0.4,0,0.6c0,0.1-0.1,0.1-0.2,0.1c0-0.2,0-0.5,0-0.7C88,68.5,88,68.4,88,68.2c0.1-3.4,0.2-6.8,0.3-10.2
				c0-0.1,0-0.1,0-0.2c0,0.1-0.1,0.2-0.2,0.3c-0.4,3.5-0.8,6.9-1.2,10.4c0,0.1-0.1,0.1-0.1,0.2c0,0.1,0,0.2,0,0.4
				c0,0.1-0.2,0.1-0.2,0c0-0.1,0-0.2,0-0.4c-0.1-0.1-0.1-0.1-0.1-0.2c0.4-3.4,0.8-6.9,1.2-10.3c0-0.1,0-0.1-0.1-0.2
				c0,0.1-0.1,0.2-0.2,0.3c-0.7,3.4-1.4,6.8-2.1,10.2c0,0.1-0.1,0.1-0.2,0.2c0,0.1,0,0.2-0.1,0.2c-0.1,0-0.1-0.1-0.1-0.2
				c0-0.1-0.1-0.1-0.1-0.2c0.7-3.4,1.4-6.8,2.1-10.2c0,0,0-0.1,0-0.1c0,0,0,0,0,0c0,0.1-0.1,0.2-0.2,0.3c-1,3.3-2,6.6-3,10
				c-0.1,0.2-0.5,0.1-0.4-0.1c1-3.3,2-6.6,2.9-9.9c0-0.1,0-0.1-0.1-0.2c0,0.2-0.1,0.3-0.3,0.4c-1.3,3.1-2.5,6.3-3.7,9.4
				c0,0.1-0.1,0.2-0.3,0.2c-0.1,0-0.2-0.2-0.1-0.3c1.2-3.1,2.5-6.3,3.7-9.4c0-0.1,0-0.2,0-0.4c-0.1,0.2-0.2,0.5-0.4,0.5
				C83.7,61.4,82.2,64.4,80.7,67.4z"/>
			<path class="st2" d="M94.5,68.3c-0.1,0-0.1,0-0.1-0.1c-0.2-0.7-0.5-1.4-0.7-2.2c-0.1,0-0.2-0.1-0.2-0.2c-1-2.9-1.9-5.8-2.9-8.7
				c0-0.1-0.1-0.2-0.1-0.3c0.1-0.2,0.4-0.2,0.4,0c1,3,2,5.9,3,8.9c0,0.1,0,0.2,0,0.3c0.2,0.7,0.5,1.5,0.7,2.2
				C94.6,68.3,94.5,68.3,94.5,68.3z"/>
			<path class="st2" d="M96,67.7c0,0.1-0.1,0.1-0.2,0c-0.4-0.9-0.7-1.7-1.1-2.6c-0.2-0.1-0.2-0.3-0.3-0.5c-1.1-2.6-2.3-5.2-3.4-7.9
				c-0.1-0.1,0-0.3,0.2-0.3c0.1,0,0.2,0.1,0.2,0.2c1.2,2.7,2.4,5.4,3.5,8.1c0,0.1,0,0.2,0,0.3c0.3,0.8,0.7,1.6,1,2.4
				C95.9,67.5,96,67.6,96,67.7z"/>
			<path class="st2" d="M97.4,67.1c-0.1,0-0.1-0.1-0.1-0.1c-0.5-1-1.1-1.9-1.6-2.9c-0.2,0-0.2-0.2-0.3-0.3c-1.3-2.4-2.6-4.8-3.9-7.1
				c-0.1-0.1-0.1-0.2,0-0.3c0.1-0.1,0.2-0.1,0.3,0c0.1,0.1,0.1,0.2,0.1,0.2c1.3,2.4,2.6,4.8,3.9,7.1c0.1,0.1,0.1,0.2,0,0.3
				c0.5,1,1.1,2,1.6,3C97.5,67,97.4,67.1,97.4,67.1z"/>
			<path class="st2" d="M98.8,66.1c0.1,0.1,0,0.2-0.1,0.1c-0.7-1.1-1.5-2.2-2.2-3.3c-0.1,0-0.2,0-0.2-0.1c-1.4-2.2-2.9-4.3-4.3-6.5
				c-0.1-0.1-0.1-0.3,0.1-0.3c0.1-0.1,0.2,0,0.3,0.1c1.4,2.2,2.9,4.3,4.3,6.5c0.1,0.1,0,0.2,0,0.3C97.4,63.9,98.1,65,98.8,66.1z"/>
			<path class="st2" d="M100.1,65.3c-0.1,0-0.1,0-0.1-0.1c-0.9-1.2-1.9-2.3-2.8-3.5c-0.1,0-0.2,0-0.3-0.1c-1.5-1.9-3-3.7-4.5-5.6
				c-0.1-0.1-0.1-0.2,0-0.3c0.1-0.1,0.3-0.1,0.3,0c1.5,1.9,3,3.8,4.5,5.7c0.1,0.1,0.1,0.2,0,0.2c0.9,1.2,1.9,2.4,2.8,3.5
				C100.1,65.2,100.1,65.2,100.1,65.3z"/>
			<path class="st2" d="M101.3,64.1c0.1,0.1,0,0.2-0.1,0.2c-1.2-1.3-2.4-2.5-3.6-3.8c-0.1,0-0.2,0-0.2-0.1c-1.5-1.6-3.1-3.2-4.6-4.8
				c-0.1-0.1-0.1-0.2,0-0.3c0.1-0.1,0.2-0.1,0.3,0c1.5,1.6,3,3.2,4.6,4.8c0.1,0.1,0.1,0.2,0.1,0.3C98.9,61.6,100.1,62.9,101.3,64.1z
				"/>
			<path class="st2" d="M102.4,63c0.1,0.1,0,0.1-0.1,0.1c-1.4-1.3-2.9-2.5-4.3-3.8c-0.1,0-0.2,0-0.3-0.1c-1.5-1.3-3-2.7-4.5-4
				c-0.1-0.1-0.1-0.3,0-0.4c0.1-0.1,0.2,0,0.3,0c1.5,1.3,3,2.7,4.5,4c0.1,0.1,0.1,0.2,0.1,0.2C99.5,60.4,101,61.7,102.4,63z"/>
			<path class="st2" d="M103.4,61.7c0.1,0.1,0,0.2-0.1,0.1c-1.7-1.2-3.4-2.5-5-3.7c-0.1,0-0.2,0-0.2,0c-1.5-1.1-2.9-2.2-4.4-3.3
				c-0.1-0.1-0.1-0.3,0-0.4c0.1-0.1,0.2,0,0.3,0c1.5,1.1,2.9,2.2,4.4,3.3c0.1,0,0.1,0.1,0.1,0.2C100,59.2,101.7,60.5,103.4,61.7z"/>
			<path class="st2" d="M104.2,60.4c0.1,0.1,0,0.2-0.1,0.1c-1.9-1.2-3.9-2.4-5.8-3.5c-0.1,0-0.2,0.1-0.2,0c-1.4-0.8-2.8-1.7-4.1-2.5
				c-0.1-0.1-0.2-0.1-0.2-0.2c0-0.1,0.1-0.3,0.3-0.2c0.1,0.1,0.2,0.1,0.3,0.2c1.3,0.8,2.6,1.6,4,2.4c0.1,0,0.1,0.2,0.1,0.2
				C100.4,58,102.3,59.2,104.2,60.4z"/>
			<path class="st2" d="M98.3,55.9c-0.1,0-0.2,0.1-0.2,0c-1.3-0.7-2.6-1.3-4-2c-0.2-0.1,0-0.5,0.2-0.4c1.3,0.7,2.7,1.3,4,2
				c0.1,0,0.1,0.1,0.1,0.2c2.2,1.1,4.4,2.2,6.6,3.3c0.1,0,0,0.2-0.1,0.2C102.7,58.1,100.5,57,98.3,55.9z"/>
			<path class="st2" d="M98,54.8c-1.2-0.5-2.4-1-3.6-1.4c-0.1,0-0.2-0.2-0.1-0.3c0-0.1,0.2-0.2,0.3-0.1c1.2,0.5,2.4,1,3.6,1.4
				c0.1,0,0.1,0.1,0.1,0.2c2.5,1,4.9,1.9,7.4,2.9c0.1,0.1,0,0.2-0.1,0.1c-2.4-1-4.9-1.9-7.3-2.9C98.2,54.8,98.1,54.9,98,54.8z"/>
			<path class="st2" d="M97.8,53.9c-1.1-0.3-2.2-0.6-3.3-1c-0.2,0-0.2-0.3,0-0.4c0.1-0.1,0.3,0,0.4,0c1,0.3,2.1,0.6,3.1,0.9
				c0.1,0,0.1,0.2,0.2,0.2c2.7,0.8,5.3,1.6,8,2.4c0.1,0,0.1,0.2,0,0.2c-2.7-0.8-5.4-1.6-8-2.4C98,53.9,97.9,53.9,97.8,53.9z"/>
			<path class="st2" d="M97.6,53c-1-0.2-1.9-0.4-2.9-0.6c-0.1,0-0.2-0.1-0.2-0.2c0-0.1,0.1-0.2,0.2-0.2c1,0.2,1.9,0.4,2.9,0.6
				c0.1,0,0.2,0.1,0.2,0.2c2.9,0.6,5.8,1.2,8.7,1.8c0,0.1,0,0.2-0.1,0.2c-2.9-0.6-5.8-1.2-8.7-1.8C97.8,52.9,97.7,53,97.6,53z"/>
			<path class="st2" d="M94.9,51.9c-0.1,0-0.2-0.1-0.2-0.2c0-0.1,0.1-0.3,0.2-0.2c0.8,0.1,1.7,0.2,2.5,0.3c0.1,0,0.2,0.1,0.2,0.2
				c3.1,0.3,6.2,0.7,9.2,1c0.1,0.1,0,0.2-0.1,0.2c-3.1-0.3-6.1-0.7-9.2-1c-0.1,0.1-0.1,0.1-0.2,0.1C96.5,52,95.7,52,94.9,51.9z"/>
			<path class="st2" d="M97,51.4c-0.7,0-1.5,0-2.2-0.1c-0.2,0-0.2-0.4,0-0.4c0.7,0,1.5,0,2.2,0.1c0.1,0,0.2,0.1,0.2,0.1
				c3.1,0.1,6.3,0.2,9.4,0.2c0.1,0,0.2,0,0.3,0c0.1,0.1,0,0.2-0.1,0.2c-3.2-0.1-6.4-0.2-9.6-0.2C97.2,51.3,97.1,51.4,97,51.4z"/>
			<path class="st2" d="M84.9,46.1c-0.1,0-0.1,0.1-0.2,0c-0.2-0.3-0.5-0.6-0.7-0.9c-0.1,0-0.3,0-0.4-0.1c-2.1-2.7-4.3-5.4-6.4-8
				C77.1,37,77,36.9,77,36.8c0-0.2,0.1-0.4,0.3-0.4c0.1,0,0.2,0.1,0.3,0.2c2.1,2.7,4.2,5.3,6.3,8c0.1,0.1,0.1,0.2,0.2,0.3
				c0,0.1,0,0.2,0,0.3c0.2,0.3,0.5,0.6,0.7,0.9C84.8,46,84.9,46.1,84.9,46.1z"/>
			<path class="st2" d="M94.9,50.8c-0.1,0-0.3-0.2-0.2-0.3c0-0.1,0.1-0.1,0.2-0.1c0.6,0,1.2-0.1,1.8-0.1c0.1,0,0.2,0.1,0.2,0.1
				c3.3-0.2,6.6-0.4,9.9-0.6c0.1,0,0.1,0,0.1,0.1c0,0.1-0.1,0.1-0.1,0.1c-3.3,0.2-6.6,0.4-9.9,0.6c-0.1,0.1-0.1,0.1-0.2,0.1
				C96.1,50.7,95.5,50.7,94.9,50.8z"/>
			<path class="st2" d="M85.3,45.8c-0.1,0.1-0.1,0-0.2,0c-0.3-0.4-0.5-0.8-0.8-1.2c-0.2,0-0.3,0-0.4-0.2c-1.9-2.8-3.7-5.6-5.6-8.4
				c0-0.1-0.1-0.2-0.1-0.3c0-0.2,0.2-0.3,0.4-0.3c0.2,0,0.2,0.2,0.3,0.3c1.8,2.7,3.6,5.4,5.4,8.1c0.1,0.1,0.2,0.2,0.2,0.4
				c0,0.1,0,0.2-0.1,0.2c0.3,0.4,0.5,0.8,0.8,1.1C85.3,45.7,85.3,45.7,85.3,45.8z"/>
			<path class="st2" d="M94.8,50.2c-0.2,0-0.3-0.2-0.2-0.3c0-0.1,0.2-0.1,0.2-0.1c0.5-0.1,1-0.1,1.4-0.2c0.1,0,0.2,0.1,0.2,0.1
				c3.3-0.5,6.7-1,10-1.5c0.1,0,0.1,0,0.2,0.1c0,0.1-0.1,0.1-0.1,0.1c-3.4,0.5-6.7,1-10.1,1.5c-0.1,0-0.1,0.2-0.2,0.2
				C95.8,50.1,95.3,50.2,94.8,50.2z"/>
			<path class="st2" d="M85.8,45.4c0.1,0.1,0,0.2-0.1,0.2c-0.3-0.6-0.6-1.1-0.9-1.7c-0.2,0-0.3,0-0.4-0.2c-1.6-2.9-3.1-5.7-4.7-8.6
				c-0.1-0.2,0-0.4,0.2-0.5c0.2-0.1,0.3,0,0.4,0.2c1.6,2.9,3.1,5.7,4.7,8.6c0.1,0.1,0.1,0.3,0,0.4C85.2,44.3,85.5,44.9,85.8,45.4z"
				/>
			<path class="st2" d="M94.8,49.7c-0.1,0-0.2,0-0.2-0.1c-0.1-0.1,0-0.3,0.1-0.3c0.4-0.1,0.8-0.2,1.2-0.3c0.1,0,0.2,0,0.2,0.1
				c3.3-0.8,6.6-1.6,9.8-2.4c0.1,0,0.3-0.1,0.4-0.1c0,0,0,0.1,0,0.2c-0.1,0-0.2,0.1-0.3,0.1c-3.3,0.8-6.6,1.6-9.9,2.4
				c0,0.1-0.1,0.2-0.2,0.2C95.6,49.5,95.2,49.6,94.8,49.7z"/>
			<path class="st2" d="M86.2,45.3c-0.1,0-0.1-0.1-0.1-0.1c-0.3-0.7-0.6-1.3-0.9-2c-0.2,0-0.3-0.1-0.4-0.2c-1.3-2.9-2.5-5.8-3.8-8.6
				c-0.1-0.2,0.1-0.5,0.4-0.5c0.2,0,0.3,0.2,0.3,0.4c1.2,2.8,2.5,5.7,3.7,8.5c0.1,0.1,0,0.3-0.1,0.4c0.3,0.7,0.6,1.4,0.9,2
				C86.3,45.2,86.2,45.3,86.2,45.3z"/>
			<path class="st2" d="M94.6,49.2c-0.2,0.1-0.4-0.3-0.1-0.4c0.3-0.1,0.7-0.2,1-0.3c0.1,0,0.2,0,0.2,0.1c3.2-1.1,6.4-2.2,9.7-3.2
				c0-0.2,0.1-0.3,0.3-0.3c0.2,0,0.3-0.2,0.5-0.1c0.2,0.1,0.3,0.3,0.2,0.4c0,0.1-0.1,0.2-0.3,0.2c-0.1,0-0.3,0.1-0.4,0.1
				c-0.1,0-0.1-0.1-0.2-0.1c-3.2,1.1-6.4,2.1-9.6,3.2c-0.1,0-0.1,0.2-0.2,0.2C95.3,49,94.9,49.1,94.6,49.2z"/>
			<path class="st2" d="M86.8,45c0,0.1,0,0.2-0.1,0.1c-0.1,0-0.1-0.1-0.1-0.1c-0.3-0.8-0.5-1.6-0.8-2.4c-0.1,0-0.3-0.1-0.3-0.2
				c-1-2.9-1.9-5.7-2.9-8.6c-0.1-0.2,0-0.4,0.2-0.4c0.2-0.1,0.4,0,0.4,0.2c1,2.9,1.9,5.7,2.9,8.6c0.1,0.1,0,0.3-0.1,0.4
				C86.2,43.3,86.5,44.2,86.8,45z"/>
			<path class="st2" d="M94.4,48.7c-0.1,0.1-0.3-0.1-0.3-0.2c0-0.1,0.2-0.2,0.3-0.2c0.2-0.1,0.4-0.2,0.6-0.3c0.1,0,0.2,0,0.2,0
				c3.1-1.4,6.2-2.7,9.3-4.1c0-0.1,0-0.2,0-0.2c0.1-0.1,0.3-0.2,0.4-0.3c0.1-0.1,0.3-0.2,0.4-0.1c0.2,0,0.3,0.3,0.2,0.5
				c-0.1,0.1-0.2,0.2-0.3,0.2c-0.1,0.1-0.3,0.1-0.4,0.2c-0.1,0-0.2-0.1-0.3-0.1c-3.1,1.3-6.2,2.7-9.3,4c-0.1,0-0.1,0.2-0.2,0.2
				C94.9,48.4,94.7,48.6,94.4,48.7z"/>
			<path class="st2" d="M87.3,44.9c0,0.1-0.2,0.2-0.2,0c-0.2-1-0.5-2-0.7-3c-0.1,0-0.3-0.1-0.3-0.3c-0.7-2.8-1.3-5.5-2-8.3
				c0-0.1,0-0.3,0.1-0.4c0.2-0.1,0.5,0,0.5,0.2c0.6,2.6,1.3,5.3,1.9,8c0,0.1,0.1,0.3,0.1,0.4c0,0.1-0.1,0.3-0.2,0.3
				C86.8,42.9,87.1,43.9,87.3,44.9z"/>
			<path class="st2" d="M94.2,48.2c-0.2,0-0.3-0.2-0.2-0.3c0.2-0.2,0.4-0.2,0.6-0.4c0.1-0.1,0.2,0,0.3,0c2.9-1.6,5.9-3.2,8.8-4.8
				c0-0.1,0-0.3,0.1-0.3c0.2-0.1,0.4-0.2,0.6-0.3c0.1-0.1,0.3-0.2,0.5-0.1c0.2,0.1,0.2,0.4,0,0.6c-0.3,0.1-0.5,0.3-0.8,0.4
				c-0.1,0.1-0.3,0-0.4-0.1c-2.9,1.6-5.9,3.2-8.8,4.8c-0.1,0,0,0.2-0.1,0.2C94.6,48,94.4,48.1,94.2,48.2z"/>
			<path class="st2" d="M87.8,44.8c0,0.1-0.2,0.1-0.2,0c-0.2-1.2-0.3-2.3-0.5-3.5c-0.1,0-0.2-0.1-0.2-0.2c-0.1-0.1-0.1-0.2-0.1-0.3
				c-0.4-2.5-0.8-5.1-1.1-7.6c0-0.1-0.1-0.3,0-0.4c0.1-0.2,0.3-0.2,0.4-0.2c0.1,0,0.2,0.2,0.2,0.3c0.4,2.6,0.8,5.2,1.2,7.7
				c0,0.1,0,0.2,0,0.3c0,0.1-0.1,0.2-0.2,0.3C87.5,42.4,87.7,43.6,87.8,44.8z"/>
			<path class="st2" d="M94.1,47.6c-0.1,0.1-0.2,0.2-0.4,0.1c-0.1-0.1-0.1-0.3,0-0.4c0.1-0.1,0.3-0.2,0.4-0.3c0.1,0,0.1,0,0.2,0
				c2.7-1.8,5.5-3.6,8.2-5.4c0-0.1,0-0.3,0.1-0.4c0.3-0.2,0.6-0.4,1-0.6c0.1-0.1,0.4-0.1,0.5,0.1c0.1,0.1,0.1,0.4-0.1,0.5
				c-0.3,0.2-0.7,0.4-1,0.7c-0.1,0.1-0.3,0-0.4,0c-2.7,1.8-5.5,3.6-8.2,5.4C94.4,47.4,94.2,47.5,94.1,47.6z"/>
			<path class="st2" d="M88.4,44.7c0,0.1-0.1,0.1-0.1,0.1c-0.1,0-0.1-0.1-0.1-0.1c-0.1-1.3-0.2-2.7-0.2-4c-0.1-0.1-0.3-0.2-0.3-0.3
				c-0.2-2.5-0.3-5-0.5-7.6c0-0.2,0.2-0.4,0.4-0.4c0.2,0,0.3,0.2,0.3,0.3c0.2,2.5,0.3,5,0.5,7.5c0,0.2-0.1,0.3-0.2,0.4
				C88.2,42,88.3,43.4,88.4,44.7z"/>
			<path class="st2" d="M93.5,47.3c-0.2,0-0.2-0.3-0.1-0.4c0.1-0.1,0.3-0.3,0.5-0.2c2.5-2,5-4,7.5-6c0-0.1,0-0.3,0.1-0.4
				c0.4-0.3,0.8-0.7,1.2-1c0.2-0.2,0.5,0,0.5,0.2c0,0.2-0.1,0.3-0.2,0.4c-0.4,0.3-0.8,0.6-1.2,0.9c-0.1,0.1-0.3,0.1-0.4,0
				c-2.5,2-5,4-7.5,6c0,0.1,0,0.2-0.1,0.3C93.7,47.2,93.6,47.3,93.5,47.3z"/>
			<path class="st2" d="M88.9,44.8c0,0-0.1,0-0.1,0c-0.1-0.1,0-0.2,0-0.3c0-1.5,0.1-3,0.1-4.4c-0.1-0.1-0.2-0.2-0.2-0.3
				c0.1-2.3,0.1-4.7,0.2-7c0-0.2,0.2-0.3,0.4-0.3c0.2,0,0.3,0.2,0.3,0.4c-0.1,2.2-0.1,4.5-0.2,6.7c0,0.1,0,0.3,0,0.4
				c0,0.1-0.1,0.2-0.2,0.2C89,41.7,88.9,43.2,88.9,44.8z"/>
			<path class="st2" d="M93.2,46.9c-0.2,0.1-0.4-0.1-0.3-0.3c0.1-0.1,0.2-0.3,0.4-0.2c2.2-2.1,4.4-4.2,6.7-6.3c0.1,0,0-0.1,0-0.2
				c0-0.1,0-0.2,0.1-0.3c0.5-0.5,1-0.9,1.4-1.4c0.1-0.1,0.2-0.1,0.3-0.1c0.2,0,0.3,0.2,0.3,0.4c0,0.1-0.1,0.2-0.1,0.2
				c-0.5,0.5-1,0.9-1.4,1.4c-0.1,0.1-0.3,0.1-0.4,0c-2.2,2.1-4.5,4.2-6.7,6.4C93.5,46.6,93.4,46.8,93.2,46.9z"/>
			<path class="st2" d="M89.4,44.8c-0.1,0.1-0.2,0-0.2-0.1c0.2-1.7,0.4-3.4,0.6-5.1c-0.1-0.1-0.1-0.1-0.2-0.2c-0.1-0.1,0-0.2,0-0.4
				c0.2-2,0.5-4,0.7-6c0-0.2,0-0.4,0.2-0.5c0.2-0.1,0.5,0.1,0.5,0.3c-0.2,2.1-0.5,4.3-0.7,6.4c0,0.2-0.1,0.3-0.3,0.3
				C89.8,41.4,89.6,43.1,89.4,44.8z"/>
			<path class="st2" d="M90,44.8c0,0.1-0.2,0.1-0.2,0c0.4-1.9,0.8-3.8,1.1-5.6c-0.1,0-0.1-0.1-0.2-0.2c-0.1-0.1,0-0.3,0-0.4
				c0.4-1.9,0.8-3.7,1.1-5.6c0-0.2,0.2-0.3,0.3-0.3c0.2,0,0.4,0.2,0.3,0.4c-0.4,1.9-0.8,3.8-1.2,5.7c0,0.2-0.2,0.3-0.3,0.3
				C90.8,41.1,90.4,43,90,44.8z"/>
			<path class="st2" d="M92.9,46.2c0,0-0.1,0.1-0.1,0c-0.1,0,0-0.1,0-0.2c2-2.2,4-4.5,6-6.7c-0.1-0.1-0.1-0.3,0-0.4
				c0.5-0.6,1.1-1.2,1.6-1.9c0.1-0.1,0.3-0.2,0.4-0.1c0.2,0.1,0.2,0.4,0.1,0.5c-0.6,0.6-1.1,1.2-1.7,1.9c-0.1,0.1-0.3,0.1-0.4,0.1
				C96.9,41.7,94.9,44,92.9,46.2z"/>
			<path class="st2" d="M90.5,45c-0.1,0.1-0.2,0-0.1-0.1c0.6-2,1.2-4.1,1.8-6.1c-0.1-0.1-0.2-0.2-0.1-0.4c0.5-1.7,1-3.4,1.5-5.1
				c0-0.2,0.3-0.3,0.4-0.2c0.2,0.1,0.2,0.3,0.2,0.4c-0.5,1.6-1,3.2-1.4,4.9c0,0.1-0.1,0.3-0.2,0.4c-0.1,0.1-0.1,0.1-0.2,0.1
				c-0.6,1.9-1.1,3.7-1.7,5.6C90.6,44.7,90.6,44.9,90.5,45z"/>
			<path class="st2" d="M92.5,45.9c-0.1,0.1-0.2,0-0.1-0.1c1.7-2.3,3.4-4.6,5.1-6.9c-0.1-0.1-0.1-0.3,0-0.4c0.6-0.8,1.2-1.6,1.8-2.4
				c0.1-0.2,0.3-0.2,0.5-0.1c0.2,0.1,0.2,0.3,0.1,0.5c-0.6,0.8-1.2,1.6-1.8,2.4c-0.1,0.1-0.3,0.1-0.4,0.1
				C95.9,41.3,94.2,43.6,92.5,45.9z"/>
			<path class="st2" d="M91,45.2c-0.1,0-0.2,0-0.1-0.1c0.8-2.2,1.7-4.3,2.5-6.4c-0.1-0.1-0.2-0.2-0.1-0.4c0.6-1.5,1.2-2.9,1.7-4.4
				c0.1-0.2,0.3-0.3,0.4-0.2c0.2,0.1,0.3,0.3,0.2,0.5c-0.6,1.5-1.1,2.9-1.7,4.4c-0.1,0.1-0.2,0.2-0.3,0.2c-0.8,2-1.6,4.1-2.4,6.1
				C91.1,45,91.1,45.1,91,45.2z"/>
			<path class="st2" d="M92,45.7c0,0.1-0.1,0.1-0.2,0c0-0.1,0.1-0.1,0.1-0.2c1.4-2.3,2.8-4.5,4.1-6.8c-0.1-0.1-0.1-0.3,0-0.4
				c0.6-1,1.3-2.1,1.9-3.1c0.1-0.2,0.3-0.2,0.5-0.1c0.2,0.1,0.2,0.3,0.1,0.5c-0.6,1-1.2,2-1.9,3c-0.1,0.1-0.2,0.2-0.4,0.2
				C94.8,41.1,93.4,43.4,92,45.7z"/>
			<path class="st2" d="M91.5,45.4c0,0.1-0.2,0-0.2-0.1c1.1-2.2,2.2-4.5,3.3-6.7c-0.1-0.1-0.2-0.3-0.1-0.4c0.6-1.2,1.2-2.5,1.8-3.7
				c0.1-0.2,0.3-0.2,0.5-0.1c0.2,0.1,0.2,0.3,0.1,0.4c-0.6,1.2-1.2,2.5-1.9,3.7c-0.1,0.1-0.2,0.2-0.4,0.2
				C93.7,40.9,92.6,43.2,91.5,45.4z"/>
		</g>
	</g>
</g>
</svg>
