<?xml version="1.0" encoding="UTF-8"?>
<svg id="Capa_1" data-name="Capa 1" xmlns="http://www.w3.org/2000/svg" viewBox="0 0 177.4 125.4">
  <defs>
    <style>
      .cls-1 {
        fill: #fff;
        stroke-width: 0px;
      }
    </style>
  </defs>
  <path class="cls-1" d="M78.05,77.79c-1.69,0-3.36-.9-4.26-2.48l-9-16.15,9.06-3.74,8.46,15.17c1.28,2.32.44,5.29-1.91,6.6-.74.41-1.55.6-2.35.6"/>
  <path class="cls-1" d="M111.02,77.79c-.79,0-1.61-.19-2.35-.6-2.35-1.31-3.19-4.26-1.88-6.6l19.91-35.74c1.31-2.35,4.26-3.19,6.6-1.88,2.35,1.31,3.19,4.26,1.88,6.6l-19.91,35.74c-.9,1.58-2.56,2.48-4.26,2.48"/>
  <path class="cls-1" d="M90.79,77.79c-.79,0-1.61-.19-2.35-.6-2.35-1.31-3.19-4.26-1.88-6.6l19.91-35.74c1.31-2.35,4.26-3.19,6.6-1.88s3.19,4.26,1.88,6.6l-19.91,35.74c-.9,1.58-2.56,2.48-4.26,2.48"/>
  <path class="cls-1" d="M144.49,66.37c-1.69,0-3.36-.9-4.26-2.48l-13.56-24.31c-1.31-2.35-.46-5.29,1.88-6.6,2.35-1.31,5.29-.46,6.6,1.88l13.56,24.31c1.31,2.32.46,5.29-1.88,6.6-.74.41-1.55.6-2.35.6"/>
  <path class="cls-1" d="M130.62,77.79c-1.69,0-3.36-.9-4.26-2.48l-19.91-35.74c-1.31-2.35-.46-5.29,1.88-6.6s5.29-.46,6.6,1.88l19.91,35.74c1.31,2.32.46,5.29-1.88,6.6-.74.41-1.55.6-2.35.6"/>
  <path class="cls-1" d="M155.71,72.94c0,2.67-2.18,4.86-4.86,4.86s-4.86-2.18-4.86-4.86,2.18-4.86,4.86-4.86,4.86,2.18,4.86,4.86"/>
  <path class="cls-1" d="M26.54,77.79c-2.67,0-4.86-2.18-4.86-4.86v-35.74c0-2.67,2.18-4.86,4.86-4.86s4.86,2.18,4.86,4.86v35.74c0,2.67-2.18,4.86-4.86,4.86"/>
  <path class="cls-1" d="M68.2,61.75h-19.78c-2.67,0-4.86-2.18-4.86-4.86s2.18-4.86,4.86-4.86h19.78c2.76,0,4.99-2.24,4.99-4.99s-2.24-4.99-4.99-4.99h-19.78c-2.67,0-4.86-2.18-4.86-4.86s2.18-4.86,4.86-4.86h19.78c8.1,0,14.7,6.6,14.7,14.7s-6.6,14.7-14.7,14.7"/>
  <path class="cls-1" d="M48.41,77.79c-2.67,0-4.86-2.18-4.86-4.86v-24.17c0-2.67,2.18-4.86,4.86-4.86s4.86,2.18,4.86,4.86v24.17c0,2.67-2.18,4.86-4.86,4.86"/>
  <path class="cls-1" d="M21.69,83.18c0-.52.41-.95.95-.95s.95.44.95.95v6.06h3.52c.49,0,.87.38.87.87s-.38.87-.87.87h-4.47c-.55-.03-.95-.44-.95-.98v-6.82Z"/>
  <path class="cls-1" d="M37.09,87.13c-.11-.85-.6-1.42-1.39-1.42s-1.28.55-1.45,1.42h2.84ZM35.89,91.11c-1.99,0-3.46-1.39-3.46-3.44v-.03c0-1.88,1.34-3.44,3.27-3.44,2.21,0,3.19,1.83,3.19,3.19,0,.55-.38.9-.87.9h-3.71c.19.85.79,1.31,1.61,1.31.52,0,.95-.16,1.34-.44.14-.11.27-.14.46-.14.41,0,.74.33.74.74,0,.25-.11.44-.25.55-.6.49-1.36.79-2.32.79"/>
  <path class="cls-1" d="M47.94,88.62v-.33c-.33-.14-.74-.25-1.2-.25-.79,0-1.31.33-1.31.93v.03c0,.52.41.79,1.04.79.87,0,1.47-.49,1.47-1.17M43.63,89.06h0c0-1.47,1.09-2.13,2.67-2.13.65,0,1.15.11,1.61.27v-.11c0-.79-.49-1.2-1.42-1.2-.52,0-.93.08-1.31.19-.11.03-.19.05-.27.05-.44,0-.79-.33-.79-.76,0-.33.22-.63.52-.74.6-.22,1.23-.35,2.13-.35,1.04,0,1.77.27,2.24.74.49.49.71,1.23.71,2.13v2.97c0,.52-.41.9-.93.9-.55,0-.9-.38-.9-.79h0c-.44.52-1.06.85-1.99.85-1.25,0-2.26-.71-2.26-2.02"/>
  <path class="cls-1" d="M54.88,90.33c-.19-.14-.35-.35-.35-.65,0-.41.33-.74.74-.74.14,0,.27.03.38.11.63.41,1.25.6,1.8.6s.79-.19.79-.49v-.03c0-.41-.65-.55-1.36-.76-.95-.3-1.99-.71-1.99-2.02v-.03c0-1.34,1.09-2.1,2.43-2.1.68,0,1.42.19,2.05.52.27.14.44.38.44.71,0,.41-.33.74-.76.74-.14,0-.22-.03-.35-.08-.52-.27-1.04-.41-1.45-.41-.46,0-.68.19-.68.46v.03c0,.38.63.55,1.34.79.93.3,1.99.76,1.99,1.96h0c0,1.47-1.09,2.13-2.54,2.13-.76.03-1.66-.22-2.46-.74"/>
  <path class="cls-1" d="M65.06,85.2c0-.52.41-.93.93-.93s.93.41.93.93v4.91c0,.52-.41.93-.93.93s-.93-.41-.93-.93v-4.91ZM64.95,82.74c0-.55.46-.87,1.06-.87s1.06.33,1.06.87v.03c0,.55-.46.9-1.06.9-.6,0-1.06-.35-1.06-.93h0Z"/>
  <path class="cls-1" d="M72.42,85.2c0-.52.41-.93.93-.93s.93.41.93.93v.08c.44-.55.98-1.06,1.94-1.06,1.42,0,2.26.93,2.26,2.46v3.44c0,.52-.41.93-.93.93s-.93-.41-.93-.93v-2.84c0-.9-.41-1.34-1.15-1.34s-1.17.46-1.17,1.34v2.84c0,.52-.41.93-.93.93-.55,0-.95-.41-.95-.93v-4.91Z"/>
  <path class="cls-1" d="M88.65,87.33h0c0-.93-.71-1.55-1.61-1.55s-1.61.63-1.61,1.53v.03c0,.93.68,1.53,1.61,1.53s1.61-.63,1.61-1.53M84.39,92.51c-.33-.14-.52-.38-.52-.74,0-.41.35-.76.76-.76.14,0,.22.03.3.05.55.25,1.12.41,1.83.41,1.28,0,1.88-.63,1.88-1.8v-.33c-.55.65-1.17,1.06-2.16,1.06-1.55,0-2.95-1.12-2.95-3.08v-.03c0-1.99,1.42-3.08,2.95-3.08,1.04,0,1.64.44,2.13.98h0c0-.52.41-.93.93-.93s.93.41.93.93v4.26c0,1.2-.27,2.05-.85,2.62-.57.63-1.53.9-2.84.9-.87,0-1.64-.16-2.4-.46"/>
  <path class="cls-1" d="M103.13,86.66h0c0-2.48,1.91-4.5,4.53-4.5,1.31,0,2.18.3,2.95.85.19.14.41.41.41.76,0,.52-.41.93-.93.93-.27,0-.44-.11-.57-.19-.52-.38-1.06-.6-1.88-.6-1.39,0-2.48,1.23-2.48,2.7v.03c0,1.58,1.09,2.76,2.62,2.76.68,0,1.31-.16,1.8-.52v-1.23h-1.28c-.46,0-.82-.35-.82-.82s.38-.82.82-.82h2.18c.52,0,.95.41.95.95v2.1c0,.55-.22.93-.65,1.2-.71.44-1.72.87-3.03.87-2.76-.03-4.61-1.91-4.61-4.47"/>
  <path class="cls-1" d="M116.72,85.2c0-.52.41-.93.93-.93s.93.41.93.93v.3c.27-.65.71-1.23,1.28-1.23s.93.38.93.93c0,.49-.33.79-.71.87-.95.22-1.47.95-1.47,2.29v1.75c0,.52-.41.93-.93.93-.55,0-.95-.41-.95-.93v-4.91Z"/>
  <path class="cls-1" d="M130.41,87.68h0c0-1.01-.71-1.85-1.75-1.85s-1.72.82-1.72,1.8v.03c0,.98.71,1.83,1.75,1.83s1.72-.82,1.72-1.8M125.09,87.68h0c0-1.94,1.53-3.46,3.6-3.46s3.57,1.53,3.57,3.44h0c0,1.91-1.53,3.44-3.6,3.44-2.05.03-3.57-1.5-3.57-3.41"/>
  <path class="cls-1" d="M143.36,90.1c0,.52-.41.93-.93.93s-.93-.41-.93-.93v-.08c-.44.55-.98,1.06-1.94,1.06-1.42,0-2.26-.93-2.26-2.46v-3.44c0-.52.41-.93.93-.93s.93.41.93.93v2.84c0,.9.41,1.34,1.15,1.34s1.17-.46,1.17-1.34v-2.84c0-.52.41-.93.93-.93s.93.41.93.93l.03,4.91Z"/>
  <path class="cls-1" d="M153.83,87.66h0c0-1.12-.74-1.85-1.61-1.85s-1.61.74-1.61,1.83v.03c0,1.09.74,1.83,1.61,1.83s1.61-.71,1.61-1.83M148.76,85.2c0-.52.41-.93.93-.93s.93.41.93.93v.08c.46-.63,1.09-1.06,2.07-1.06,1.55,0,3.03,1.2,3.03,3.44v.03c0,2.21-1.45,3.44-3.03,3.44-1.01,0-1.61-.46-2.07-.98v1.99c0,.52-.41.93-.93.93s-.93-.41-.93-.93v-6.93Z"/>
</svg>