<?xml version="1.0" encoding="UTF-8"?>
<svg id="Capa_8" data-name="Capa 8" xmlns="http://www.w3.org/2000/svg" viewBox="0 0 177.4 125.4">
  <defs>
    <style>
      .cls-1 {
        fill: #fff;
        stroke-width: 0px;
      }
    </style>
  </defs>
  <g>
    <path class="cls-1" d="M101.21,69.72c.35.05.65-.1.7-.45-.35,0-.6.1-.7.45Z"/>
    <polygon class="cls-1" points="102.06 69.12 102.11 69.07 102.06 69.07 102.06 69.12"/>
    <path class="cls-1" d="M100.46,70.27c.3,0,.6-.1.75-.5-.45-.05-.55.1-.75.5Z"/>
    <path class="cls-1" d="M109.5,76.21c-1,.2-1.95.45-3.05.7-.05,0-.1.1-.3.2v.1s0,.05.1.05c0,0,0,.05.1.05.7-.1,1.35-.7,2.25-.2h.15c.5-.35,1.35-.35,1.85-.9-.35,0-.7-.1-1.1,0Z"/>
    <path class="cls-1" d="M111.3,76.26c0-.05.05-.05.05-.15-.05,0-.1,0-.05.15Z"/>
    <polygon class="cls-1" points="111.9 74.42 111.75 74.42 111.9 74.52 111.9 74.42"/>
    <path class="cls-1" d="M99.71,70.77c.35,0,.55-.2.75-.5-.4.05-.65.15-.75.5Z"/>
    <path class="cls-1" d="M110.9,74.67h-.1c.1.15.15.15.15.15h.1c0-.15-.1-.15-.15-.15Z"/>
    <path class="cls-1" d="M68.5,72.97c-.75.2-1.45.5-2.15.9-1.05.65-2.1,1.2-3.15,1.85-.2.1-.5.3-.5.4.5,0,.9-.2,1.35-.45,1.35-.75,2.7-1.65,4.1-2.35.1,0,.25-.25.35-.35Z"/>
    <path class="cls-1" d="M98.22,71.72c.2,0,.65-.05.7-.4-.35,0-.65.05-.7.4Z"/>
    <polygon class="cls-1" points="96.22 73.22 96.32 73.12 96.22 73.12 96.22 73.22"/>
    <path class="cls-1" d="M96.42,73.02c.1,0,.15,0,.15-.25-.05,0-.15.2-.15.25Z"/>
    <path class="cls-1" d="M97.37,72.32c.45.05.65-.15.7-.5-.25,0-.5.15-.7.5Z"/>
    <path class="cls-1" d="M96.62,72.77c.35,0,.6-.15.65-.45-.25,0-.5.25-.65.45Z"/>
    <path class="cls-1" d="M98.92,71.32c.35,0,.55-.15.75-.55-.4,0-.6.15-.75.55Z"/>
    <path class="cls-1" d="M143.47,75.91c.3.1.6.1.75-.25-.1,0-.25-.05-.4-.05s-.2.05-.35.3Z"/>
    <path class="cls-1" d="M139.17,77.41h.35c.2,0,.3,0,.3-.15-.1,0-.55-.15-.65.15Z"/>
    <path class="cls-1" d="M138.52,77.56s.05.15.2.15.3,0,.4-.25h-.55l-.05.1Z"/>
    <path class="cls-1" d="M144.32,75.51v.1c.4,0,.9,0,1.2-.4-.45-.1-.85.05-1.2.3Z"/>
    <path class="cls-1" d="M111.55,76.11h.4s.05-.05.05-.15c-.05,0-.05-.1-.1-.1-.2,0-.35.1-.35.25Z"/>
    <path class="cls-1" d="M154.51,71.92c-.6.05-1.05.2-1.65.45-.05.05-.25.25-.4.15-.65-.15-1.15.25-1.8.45-.2,0,0,.45-.5.45-.15,0-.35.05-.5.15-.25.1-.55.2-.7.2-.8.3-1.6.5-2.3.8-.15.05-.35.15-.35.3.35.2.65,0,1-.05,1.3-.35,2.45-1.05,3.7-1.25.05-.1.15-.1.3-.15.25-.4.75-.25,1-.45.95-.15,1.55-.6,2.25-.95.1,0,.1-.05.1-.05-.1-.05-.15-.2-.15-.05Z"/>
    <path class="cls-1" d="M145.52,75.22c.35,0,.65.05.75-.35h-.35c-.2,0-.4.2-.4.35Z"/>
    <path class="cls-1" d="M116.1,72.72v.05c.75-.05,1.45-.25,2.2-.6h.05c-.85-.15-1.55.2-2.25.55Z"/>
    <path class="cls-1" d="M112.75,74.07c.4.1.9-.05,1.25-.35v-.1c-.55-.05-.9,0-1.25.45Z"/>
    <path class="cls-1" d="M114,73.57c.55.05.95,0,1.25-.45-.5-.1-.85.1-1.25.45Z"/>
    <path class="cls-1" d="M111.95,74.37h.45c.2,0,.25-.1.25-.3-.15.1-.55-.05-.7.3Z"/>
    <polygon class="cls-1" points="117.25 73.02 117.25 72.97 117.15 72.97 117.25 73.02"/>
    <path class="cls-1" d="M115.4,73.12c.2,0,.45.1.7-.35h-.6c-.05,0-.1.25-.1.35Z"/>
    <path class="cls-1" d="M56.34,56.12c1.39-1.67,2.63-3.37,3.74-5.1,1.11-1.73,2.06-3.44,2.84-5.13.78-1.69,1.35-3.24,1.71-4.67.55-1.78.54-3.43-.05-4.97-.59-1.53-1.81-2.7-3.67-3.5-.91-.49-1.86-.81-2.84-.97-.98-.16-1.97-.23-2.99-.23-.62,0-1.25.01-1.88.03-.64.02-1.28.1-1.93.23-1.27,0-2.5.13-3.67.4-.91.27-1.78.54-2.59.83-.82.29-1.65.52-2.5.7-1.57.62-3.08,1.39-4.55,2.3-1.47.91-2.94,1.88-4.41,2.9-2.12,1.47-4.01,3.22-5.68,5.27-.2.27-.35.51-.46.73-.11.22-.27.44-.47.67-.36.36-.68.71-.95,1.07-.28.36-.5.78-.66,1.27-.46.89-.86,1.8-1.22,2.73-.36.93-.7,1.87-1.03,2.8-.16.44-.25.86-.27,1.23-.02.38,0,.74.07,1.1.2.67.47,1.29.83,1.87.36.58.77,1.11,1.22,1.6.26.31.57.56.93.73.36.18.72.38,1.08.6.26.09.58.17.95.23.37.07.79-.01,1.25-.23-.16-.22-.28-.44-.34-.67-.07-.22-.21-.38-.44-.47-.07-.09-.17-.21-.32-.37-.15-.16-.27-.28-.37-.37-.75-.36-1.24-.82-1.47-1.4-.23-.58-.34-1.27-.34-2.07.07-1.02.24-2,.51-2.93.28-.93.64-1.8,1.1-2.6,1.17-2.22,2.56-4.16,4.16-5.8,1.6-1.64,3.33-3.11,5.19-4.4,1.57-1.11,3.2-2.04,4.89-2.8,1.7-.76,3.43-1.4,5.19-1.93,1.57-.53,3.12-.89,4.67-1.07,1.55-.18,3.12-.22,4.72-.13.59,0,1.15.04,1.69.13.54.09,1.08.29,1.64.6,1.37.8,2.21,1.86,2.52,3.17.31,1.31.28,2.76-.1,4.33-.38,1.58-1.03,3.21-1.96,4.9-.93,1.69-1.97,3.3-3.11,4.83-1.14,1.53-2.29,2.93-3.45,4.2-1.16,1.27-2.18,2.26-3.06,2.97-2.64,2-5.31,3.71-8,5.13-2.69,1.42-5.47,2.84-8.35,4.27-.1.09-.41.13-.93.13.55-1.6,1.23-3.34,2.03-5.23.8-1.89,1.63-3.78,2.5-5.67.86-1.89,1.73-3.71,2.59-5.47.86-1.76,1.66-3.32,2.37-4.7.36-.44.69-.89.98-1.33.29-.44.59-.89.88-1.33.26-.49.31-.98.15-1.47-.95-.62-1.88-.84-2.79-.67-.16.13-.32.3-.47.5-.15.2-.22.41-.22.63.1.4.07.7-.07.9-.15.2-.3.43-.46.7-.78,1.42-1.59,2.99-2.42,4.7-.83,1.71-1.65,3.51-2.45,5.4-.8,1.89-1.57,3.81-2.32,5.77-.75,1.96-1.47,3.89-2.15,5.8-.1.36-.22.66-.37.9-.15.24-.32.54-.51.9-.2.13-.39.33-.59.6-.2.27-.42.4-.69.4-.56.09-1.14.14-1.76.17-.62.02-1.19.03-1.71.03-.46,0-.83-.14-1.13-.43-.29-.29-.54-.61-.73-.97-.29-.4-.59-.67-.88-.8-.29-.13-.73-.16-1.32-.07,0,.93.24,1.62.73,2.07.59.58,1.16,1.06,1.71,1.43.55.38,1.21.57,1.96.57.36,0,.72.04,1.08.13.36.09.72.13,1.08.13.23,0,.44.01.64.03.2.02.44.08.73.17-.36,1.16-.64,2.13-.83,2.93-.2.8-.33,1.69-.39,2.67-.07.8-.16,1.57-.27,2.3-.11.73-.12,1.5-.02,2.3v.93c.1,0,.12.01.07.03-.05.02-.07.1-.07.23.1.31.2.7.29,1.17.1.47.31.81.64,1.03.06.22.19.36.37.4.18.04.4.07.66.07v-.47c.13-.44.13-.77,0-.97-.13-.2-.15-.46-.05-.77.06-.93.14-1.82.22-2.67.08-.84.22-1.71.42-2.6.16-.76.28-1.32.34-1.7.06-.38.11-.72.15-1.03.03-.31.09-.64.17-1,.08-.36.24-.91.46-1.67.07-.36.17-.71.32-1.07.15-.36.25-.71.32-1.07.2-.22.43-.36.71-.4.28-.04.56-.13.86-.27,1.57-.67,3.12-1.31,4.67-1.93,1.55-.62,3.08-1.3,4.58-2.03,1.5-.73,2.98-1.56,4.43-2.47,1.45-.91,2.88-2.01,4.28-3.3,1.57-1.42,3.04-2.97,4.43-4.63Z"/>
    <path class="cls-1" d="M66.2,74.92c.1-.15.35-.15.55-.25.15-.4.4-.45.8-.6.15-.1.25-.1.4-.1.15-.3.45-.3.6-.3v.3c.25-.1.95-.95,1.65-2.05-.2-.5.3-.95.05-1.05-.3-.05-1.5.55-1.75.7-.55.35-1,.65-1.6.95-.6.35-1.45.7-2,1.3-.2.2-.6.4-.85.45-1.05.5-1.9,1.15-2.85,1.65-1.3.75-2.3,1.45-3.55,2-.6.45-1.3.6-1.8.95-.65.3-1.25.55-1.85.7-.65.25-1.3.45-1.9.65-.65.15-1.4.15-1.85-.2-.15-.7-.1-1.25.1-1.85.3-.45.5-.85.6-1.3.4-1.2,1.2-2.45,2-3.55.4-.7.9-1.3,1.4-2.15.25-.55.8-1,1.5-.85h.15c.2,0,.35-.4.2-.65-.4-.35-.8-.7-1.25-1-.55-.25-1.15-.15-1.6.3-.4.5-1,1-1.4,1.5-1.3,1.55-2.3,3.2-3.05,5.09-.2.75-.4,1.5-.55,2.3-.1.9.1,1.8.45,2.6.25.75.7,1.15,1.05,1.75.05.05.3.15.4.15,1.3.35,2.7.35,3.95-.1.65-.25,1.25-.5,1.9-.7,1.4-.55,2.6-1.35,3.8-2,.65-.4,1.3-.85,2.05-1.2.65-.45,1.25-1.05,2.05-1.3.45-.55,1.3-.95,1.95-1.4v-.2h-.5c.2-.4.4-.55.75-.55ZM64.05,75.66c-.45.25-.85.45-1.35.45,0-.1.3-.3.5-.4,1.05-.65,2.1-1.2,3.15-1.85.7-.4,1.4-.7,2.15-.9-.1.1-.25.35-.35.35-1.4.7-2.75,1.6-4.1,2.35Z"/>
    <path class="cls-1" d="M58.36,61.58c-.65-.05-1.15.15-1.65.5-.8.55-.6,1.7.2,1.95.3.1.6.1.75.15h.45c.55-.05.85-.35,1.2-.55.2-.3.05-.6.05-.85-.05-.45-.45-.7-.7-1.05-.1,0-.2-.15-.3-.15Z"/>
    <path class="cls-1" d="M155.7,70.72c0-.1-.05-.15-.15-.15-.45.05-1-.05-1.3.15-.95.5-1.95.7-2.85,1.2-1.15.45-2.1.75-3.2,1.25-1.1.3-2.3.9-3.5,1.25-.9.3-1.65.7-2.5,1.05-.95.45-2.05.65-2.95,1.2-1.2.3-2.45.75-3.85.8-.6.1-.95-.05-.85-.6,0-.35.05-.7.25-.95.2-.85.45-1.85.6-2.75.3-1.25.6-2.45.85-3.65.05-.25.05-.5,0-.65-.25-.4-.65-.8-.9-1.15-.1-.1-.3-.25-.35-.25-.45,0-.9-.05-1.4.25-.45.2-1.05.4-1.45.7-.45.25-.85.6-1.45.75-.8.5-1.55.8-2.2,1.4-.65.4-1.45.65-2.05,1.2-1.25.6-2.1,1.45-3.15,2.3-.95.75-1.85,1.35-2.85,2.05-.1.05-.2.05-.3.05,0-.25.2-.5.3-.7.45-1,1.1-2.05,1.7-3.1.05-.25.2-.45.35-.65.05-.65.4-1.15.8-1.65.05-.1.2-.2,0-.4-.35-.5-.8-.8-1.35-1.1-.45-.15-.8,0-1.05.55-.18.64-.41,1.27-.65,1.89-.53.15-1.08.24-1.55.35-2.75.85-5.39,2-8.14,3.05l-2.7,1.2c-1.25.5-2.5.8-3.75.8-.45,0-.8,0-1.25-.15-.25-.4.3-.55.3-1,.1-.45.3-.85.5-1.25.25-.65.55-1.4.9-2.05.15-.45.1-1.05.35-1.55.25-.15,0-.55.1-.8,0-.35-.65-.35-.35-.75-.15-.05-.3-.05-.35-.15-.45-.25-1-.05-1.4-.65-.05,0-.2,0-.3.1-.15.05-.3.2-.55.3-1.05.65-2.05,1.3-3.1,2.05-1.4,1-2.8,2-4.25,2.9-1.3.95-2.7,1.85-4.15,2.55-.4.15-.75.45-1.2.45q-.25-.15.75-1.15c.3-.2.1-.7.5-.9.8-.8,1.4-1.65,2.35-2.35.65-.65,1.3-1.15,1.75-1.75,1-.9,1.85-1.75,3.1-2.4.8-.25,1.8-.9,3.1-.5.35.1.4-.3.15-.65-.35-.6-1.85-1.3-2.55-.95-1.2.35-2.4.7-3.45,1.4-1.25.9-2.4,1.65-3.45,2.7-.79.79-1.66,1.61-2.49,2.5-.22.15-.43.3-.65.45-.75.6-1.45,1-2.2,1.45-.3.25-.65.35-1.05.6-1.65,1.25-3.25,2.45-4.94,3.6-.85.5-1.65.95-2.5,1.35q-.35.1-.6-.4c0-.1-.05-.1-.05-.15-.15,0-.2.05-.2.05l-.4.65c-.35-1-.7-1.8-.7-2.65v-.6c-.1-.4-.3-.8-.4-1.4-.1-.5-.25-1.05-.3-1.55-.05-.3,0-.5.2-.8,1.05-1.2,1.95-2.35,3.05-3.5.25-.3.5-.55.85-.8.8-.65,1.4-1.45,1.75-2.45.1-.15.1-.4.1-.65,0-.2-.45-.4-.65-.35-.3.2-.4.35-.65.6-.25.25-.45.45-.55.65-1.4,1.3-2.6,2.6-3.8,3.95-.3.3-.45.6-.8.7-.35-.15-.35-.7-.5-1.05-.05-1.1-.6-1.95-1.15-2.85-.25-.4-.65-.75-1.05-.95-.45-.15-.85-.2-1.35,0-.15.15-.35,0-.5.15-.25.05-.5.2-.65.45-.05.05-.2.25-.05.4,0,.2.1.5.2.65,0,.1.1,0,.2,0,.45-.15.65-.05.8.2.05.2.2.45.3.6.7,1.35,1,2.8,1.4,4.2.2.55.05.95-.35,1.45-.8.85-1.5,1.75-2.35,2.7-.95,1.1-1.8,2.5-2.9,3.65-.15.1-.3.25-.15.5.7-.5,1.4-1,2.1-1.45.45-.35.85-.65,1.4-1,.55-.65,1.1-1.3,1.65-2.05.45-.3.8-.75,1.3-1.05,0,.1.1.3.1.4.2,1.3.65,2.65,1,3.85.05.05.2.25.25.4.45.55,1,1.1,1.65,1.45.2.1.45.2.65.2.8.05,1.35-.1,2-.35.7-.25,1.45-.65,2.05-1.05.65-.45,1.3-.8,1.85-1.3.25-.1.3-.15.5-.35.95-.8,2-1.65,3-2.6.29-.21.55-.43.82-.65-.06.25-.09.5-.07.75.2,1.5.7,2.25,2.05,2.5.55.05,1.1,0,1.65,0,.15,0,.35-.15.5-.2.9-.55,1.85-1.05,2.7-1.7.8-.4,1.5-1.05,2.25-1.6.6-.4,1.3-.85,2-1.25l3.55-2.5q.05-.1.2.05v.1c-.2.7-.5,1.3-.6,2-.25,1.2-.4,2.4.6,3.45.05.25.15.4.2.6.25.65.85.85,1.4,1.05.6.2,1.25.55,1.95.05h.5c.85-.2,1.65-.3,2.45-.45,1.1-.25,2.1-.65,3.1-1.25l1.45-.5c.35-.15.4-.7,1-.65h.15c.3-.4.7-.85,1.3-.95h.05v-.05c-.55.15-1.05.35-1.5.5,0,0-.1-.15-.2-.15q0-.05.1-.2c.4-.2,2.15-.9,3.15-1.25.35-.45.85-.8,1.45-.9.3-.4.75-.55,1.1-.6.1-.15.15-.2.15-.2-.35-.1-.75-.15-1.15-.3v-.05c.55-.2,1.16-.42,1.78-.55-.06.14-.13.26-.19.4-.15,0-.2-.1-.45,0-.15.2,0,.2.2.35h.05c0-.1.1-.24.2-.34-.43.98-.92,1.92-1.49,2.79-.25.2-.35.5-.4.65-.25.6-.55,1.05-.8,1.65-.25.4-.45,1-.6,1.4-.45.85,0,1.6.4,2.3.2.2.6.2.75.15.2-.2.3-.4.5-.6.8-.4,1.45-1,1.9-1.7.2-.2.45-.5.7-.7,1.35-1.3,2.7-2.65,4.35-3.65.3-.45.95-.45,1.25-.75.8-.6,1.65-1.1,2.45-1.65.6-.3,1-.65,1.65-.95,1.05-.4,2.2-.85,3.4-1.25.25-.25.3-.2.3.15,0,.4-.05.85-.15,1.1-.1.45-.25,1-.5,1.5-.55,1.55-.6,3.2-.55,4.84,0,.35.1.65.3.95.2.3.6.7.85.95.25.15.65.35.85.5.85.15,1.65.15,2.45-.15.7-.2,1.4-.4,2.2-.85,1.3-.45,2.9-1.05,4.35-1.6l5.39-2.2c.15-.1.3-.15.3-.15-.1-.35.05-.45.4-.45.3,0,.65-.05,1-.3,1.05-.35,2-.65,3-1.05,2.05-.8,1.5-1.35,1.55-2.05ZM96.22,73.22v-.1h.1l-.1.1ZM96.42,73.02s.1-.25.15-.25c0,.25-.05.25-.15.25ZM96.62,72.77c.15-.2.4-.45.65-.45-.05.3-.3.45-.65.45ZM97.37,72.32c.2-.35.45-.5.7-.5-.05.35-.25.55-.7.5ZM98.92,71.32c-.05.35-.5.4-.7.4.05-.35.35-.4.7-.4.15-.4.35-.55.75-.55-.2.4-.4.55-.75.55ZM100.46,70.27c-.2.3-.4.5-.75.5.1-.35.35-.45.75-.5.2-.4.3-.55.75-.5-.15.4-.45.5-.75.5ZM101.21,69.72c.1-.35.35-.45.7-.45-.05.35-.35.5-.7.45ZM102.06,69.12v-.05h.05l-.05.05ZM108.75,77.11h-.15c-.9-.5-1.55.1-2.25.2-.1,0-.1-.05-.1-.05-.1,0-.1-.05-.1-.05v-.1c.2-.1.25-.2.3-.2,1.1-.25,2.05-.5,3.05-.7.4-.1.75,0,1.1,0-.5.55-1.35.55-1.85.9ZM111.9,74.42v.1l-.15-.1h.15ZM110.95,74.82s-.05,0-.15-.15h.1s.15,0,.15.15h-.1ZM111.3,76.26c-.05-.15,0-.15.05-.15,0,.1-.05.1-.05.15ZM111.95,76.11h-.4c0-.15.15-.25.35-.25.05,0,.05.1.1.1,0,.1-.05.15-.05.15ZM112.4,74.37h-.45c.15-.35.55-.2.7-.3,0,.2-.05.3-.25.3ZM114,73.72c-.35.3-.85.45-1.25.35.35-.45.7-.5,1.25-.45v.1ZM114,73.57c.4-.35.75-.55,1.25-.45-.3.45-.7.5-1.25.45ZM117.25,73.02l-.1-.05h.1v.05ZM118.29,72.17c-.75.35-1.45.55-2.2.6-.25.45-.5.35-.7.35,0-.1.05-.35.1-.35h.6v-.05c.7-.35,1.4-.7,2.25-.55h-.05ZM138.72,77.71c-.15,0-.15-.15-.2-.15l.05-.1h.55c-.1.25-.25.25-.4.25ZM139.52,77.41h-.35c.1-.3.55-.15.65-.15,0,.15-.1.15-.3.15ZM143.47,75.91c.15-.25.2-.3.35-.3s.3.05.4.05c-.15.35-.45.35-.75.25ZM145.52,75.22c-.3.4-.8.4-1.2.4v-.1c.35-.25.75-.4,1.2-.3,0-.15.2-.35.4-.35h.35c-.1.4-.4.35-.75.35ZM154.56,72.02c-.7.35-1.3.8-2.25.95-.25.2-.75.05-1,.45-.15.05-.25.05-.3.15-1.25.2-2.4.9-3.7,1.25-.35.05-.65.25-1,.05,0-.15.2-.25.35-.3.7-.3,1.5-.5,2.3-.8.15,0,.45-.1.7-.2.15-.1.35-.15.5-.15.5,0,.3-.45.5-.45.65-.2,1.15-.6,1.8-.45.15.1.35-.1.4-.15.6-.25,1.05-.4,1.65-.45,0-.15.05,0,.15.05,0,0,0,.05-.1.05Z"/>
  </g>
  <g>
    <path class="cls-1" d="M51.49,90.04v3.74h-.56v-3.74h-1.28v-.47h3.13v.47h-1.29Z"/>
    <path class="cls-1" d="M56.8,93.78v-1.89h-2.09v1.89h-.56v-4.21h.56v1.84h2.09v-1.84h.56v4.21h-.56Z"/>
    <path class="cls-1" d="M59.23,93.78v-4.21h2.58v.47h-2.02v1.37h1.71v.47h-1.71v1.42h2.11v.47h-2.67Z"/>
    <path class="cls-1" d="M67.13,89.5c1.2,0,2.16.94,2.16,2.17s-.94,2.17-2.16,2.17-2.16-.94-2.16-2.17.94-2.17,2.16-2.17ZM67.13,93.33c.91,0,1.58-.7,1.58-1.65s-.67-1.65-1.58-1.65-1.59.7-1.59,1.65.68,1.65,1.59,1.65Z"/>
    <path class="cls-1" d="M72.21,89.57c.92,0,1.48.48,1.48,1.29,0,.63-.41,1.04-.86,1.18l.95,1.74h-.63l-.87-1.65h-.88v1.65h-.56v-4.21h1.36ZM71.41,90.04v1.63h.83c.56,0,.89-.3.89-.81s-.35-.81-.94-.81h-.78Z"/>
    <path class="cls-1" d="M77.23,93.85c-1.27,0-2.22-.92-2.22-2.17s.95-2.17,2.24-2.17c.64,0,1.11.22,1.25.3v.54c-.27-.14-.71-.32-1.26-.32-1,0-1.67.7-1.67,1.65s.69,1.66,1.65,1.66c.3,0,.64-.06.83-.15v-1.27h.55v1.61c-.35.19-.88.32-1.38.32Z"/>
    <path class="cls-1" d="M81.61,89.5h.01l1.94,4.28h-.6l-.41-.94h-1.88l-.41.94h-.6l1.94-4.28ZM82.34,92.38c-.29-.64-.5-1.15-.73-1.74-.23.6-.45,1.1-.74,1.74h1.47Z"/>
    <path class="cls-1" d="M88.19,93.85l-2.61-2.84-.13-.15v2.91h-.56v-4.28h0l2.61,2.83.13.15v-2.91h.56v4.28h0Z"/>
    <path class="cls-1" d="M90.07,93.78v-4.21h.56v4.21h-.56Z"/>
    <path class="cls-1" d="M95.65,90.34c-.28-.14-.71-.32-1.25-.32-.96,0-1.65.7-1.65,1.65s.69,1.65,1.65,1.65c.57,0,1.01-.17,1.28-.31v.53c-.14.08-.61.3-1.28.3-1.27,0-2.22-.92-2.22-2.17s.94-2.17,2.22-2.17c.64,0,1.11.22,1.25.3v.53Z"/>
    <path class="cls-1" d="M98.71,93.61v-.56c.3.15.73.3,1.19.3.53,0,.92-.22.92-.6s-.23-.6-.94-.85c-.81-.28-1.19-.63-1.19-1.27,0-.71.6-1.13,1.4-1.13.42,0,.81.11,1.05.22v.53c-.23-.12-.64-.25-1.02-.25-.52,0-.88.23-.88.61,0,.34.2.59.92.84.81.29,1.2.62,1.2,1.25,0,.72-.56,1.15-1.44,1.15-.49,0-.94-.12-1.22-.25Z"/>
    <path class="cls-1" d="M103.44,92.14v1.64h-.56v-4.21h1.29c.89,0,1.43.48,1.43,1.29s-.54,1.29-1.43,1.29h-.73ZM103.44,90.04v1.63h.76c.52,0,.83-.3.83-.81s-.33-.81-.88-.81h-.71Z"/>
    <path class="cls-1" d="M107.13,93.78v-4.21h.56v4.21h-.56Z"/>
    <path class="cls-1" d="M110.93,89.57c.92,0,1.48.48,1.48,1.29,0,.63-.41,1.04-.86,1.18l.95,1.74h-.63l-.87-1.65h-.88v1.65h-.56v-4.21h1.36ZM110.13,90.04v1.63h.83c.56,0,.89-.3.89-.81s-.35-.81-.94-.81h-.78Z"/>
    <path class="cls-1" d="M114.05,93.78v-4.21h.56v4.21h-.56Z"/>
    <path class="cls-1" d="M117.83,90.04v3.74h-.56v-3.74h-1.28v-.47h3.13v.47h-1.29Z"/>
    <path class="cls-1" d="M124.17,89.5c1.2,0,2.16.94,2.16,2.17s-.94,2.17-2.16,2.17-2.16-.94-2.16-2.17.94-2.17,2.16-2.17ZM124.17,93.33c.91,0,1.58-.7,1.58-1.65s-.67-1.65-1.58-1.65-1.59.7-1.59,1.65.68,1.65,1.59,1.65Z"/>
    <path class="cls-1" d="M128.44,90.04v1.4h1.6v.47h-1.6v1.86h-.56v-4.21h2.46v.47h-1.89Z"/>
    <path class="cls-1" d="M133.7,93.78v-4.21h.56v3.74h1.81v.47h-2.37Z"/>
    <path class="cls-1" d="M137.51,93.78v-4.21h.56v4.21h-.56Z"/>
    <path class="cls-1" d="M141.31,93.85h-.01l-1.94-4.28h.6l.58,1.32c.29.67.53,1.16.77,1.77.24-.6.47-1.1.77-1.77l.58-1.32h.6l-1.94,4.28Z"/>
    <path class="cls-1" d="M144.54,93.78v-4.21h.56v4.21h-.56Z"/>
    <path class="cls-1" d="M150.29,93.85l-2.61-2.84-.13-.15v2.91h-.56v-4.28h0l2.61,2.83.13.15v-2.91h.56v4.28h0Z"/>
    <path class="cls-1" d="M154.06,93.85c-1.27,0-2.22-.92-2.22-2.17s.95-2.17,2.24-2.17c.64,0,1.11.22,1.25.3v.54c-.27-.14-.71-.32-1.26-.32-1,0-1.67.7-1.67,1.65s.69,1.66,1.65,1.66c.3,0,.64-.06.83-.15v-1.27h.55v1.61c-.35.19-.88.32-1.38.32Z"/>
  </g>
</svg>