<?xml version="1.0" encoding="utf-8"?>
<!-- Generator: Adobe Illustrator 28.3.0, SVG Export Plug-In . SVG Version: 6.00 Build 0)  -->
<svg version="1.1" xmlns="http://www.w3.org/2000/svg" xmlns:xlink="http://www.w3.org/1999/xlink" x="0px" y="0px"
	 viewBox="0 0 177.4 125.4" style="enable-background:new 0 0 177.4 125.4;" xml:space="preserve">
<style type="text/css">
	.st0{fill:#FFFFFF;}
	.st1{fill:#FEF574;}
	.st2{fill:#024EFF;}
	.st3{fill:#9D9D9D;}
	.st4{clip-path:url(#SVGID_00000178907091665044724050000007574316708396517804_);}
	.st5{fill-rule:evenodd;clip-rule:evenodd;fill:#FFFFFF;}
</style>
<g id="Capa_1">
</g>
<g id="Capa_2">
</g>
<g id="Capa_3">
</g>
<g id="Capa_4">
	<g>
		<path class="st0" d="M88,106.5c-0.3,0-0.6-0.1-0.9-0.1c-8.5-0.3-16.4-2.9-23.3-7.8C54.5,92.2,48.6,83.5,46,72.5
			c-0.8-3.2-1.1-6.4-1.1-9.7c0.1-11.2,3.8-21,11.2-29.4c5.3-5.9,11.8-10.1,19.3-12.5c2.7-0.9,5.4-1.4,8.2-1.7
			c2.6-0.3,5.2-0.4,7.8-0.2c5.8,0.4,11.4,1.8,16.6,4.4c11.1,5.6,18.7,14.4,22.5,26.2c0.9,2.6,1.4,5.3,1.7,8c0.1,1.3,0.2,2.6,0.3,3.8
			c0,0.2,0.1,0.3,0.1,0.5c0,0.5,0,1,0,1.5c-0.1,0.8-0.1,1.6-0.2,2.5c-0.2,2.6-0.6,5.2-1.2,7.7c-2.5,9.4-7.5,17.2-15.1,23.2
			c-7.5,6-16.1,9.2-25.7,9.6c-0.3,0-0.6,0.1-0.9,0.1C88.9,106.5,88.4,106.5,88,106.5z M88.7,21.6c-22.6,0-41,18.3-41.1,41
			c0,22.7,18.3,41.1,41,41.1c22.7,0,41.1-18.3,41.1-41C129.7,40,111.4,21.6,88.7,21.6z"/>
		<path class="st0" d="M62.8,62.7c0-13.8,10.9-25.3,24.8-25.9c15-0.6,26.5,11.1,27,24.8c0.6,14.9-11,26.5-24.8,27
			C74.6,89.2,62.7,77,62.8,62.7z M88.7,62.7c0.1,0,0.1,0,0.2,0c8,0,16,0,24,0c0.3,0,0.4-0.1,0.4-0.4c0-2.1-0.3-4.2-0.9-6.3
			c-2.7-9.7-11.4-17.3-22.4-17.9c-0.4,0-0.8,0-1.3,0c0,0.2,0,0.4,0,0.6c0,7.8,0,15.7,0,23.5C88.6,62.3,88.7,62.5,88.7,62.7
			c-0.1,0-0.1,0-0.2,0c-8,0-16,0-24,0c-0.1,0-0.2,0-0.4,0c0.2,7.3,2.8,13.4,8.2,18.3c4.6,4.2,10.2,6.2,16.5,6.3c0-0.3,0-0.5,0-0.6
			c0-7.8,0-15.7,0-23.5C88.7,63,88.7,62.8,88.7,62.7z"/>
		<path class="st0" d="M64.4,47.3c-2.5-2.3-5-4.7-7.5-7c0.7-0.8,1.3-1.6,2-2.4c1.2-1.3,2.3-2.5,3.6-3.8c0.7-0.7,1.5-1.2,2.6-1.2
			c1.6,0,2.8,1.4,2.5,3c0,0.1,0,0.1,0,0.2c0.4-0.1,0.7-0.1,1.1-0.2c1.5-0.1,2.8,1,2.8,2.5c0,0.5-0.2,1-0.4,1.5
			c-0.2,0.4-0.5,0.9-0.8,1.2c-1.9,2-3.7,4-5.6,6C64.5,47.2,64.5,47.2,64.4,47.3z M64.6,44.1c1.5-1.6,2.9-3.1,4.2-4.6
			c0.1-0.2,0.2-0.4,0.3-0.6c0.1-0.4,0.1-0.7-0.2-1c-0.3-0.3-0.6-0.4-1-0.2c-0.3,0.2-0.7,0.4-0.9,0.6c-1.3,1.3-2.6,2.6-3.8,4
			c-0.1,0.1-0.1,0.2-0.2,0.3C63.5,43.1,64,43.6,64.6,44.1z M61.6,41.3c1.4-1.5,2.7-2.9,4-4.3c0.1-0.2,0.2-0.4,0.3-0.6
			c0.1-0.4,0-0.8-0.3-1.1c-0.3-0.3-0.7-0.3-1.1-0.1c-0.2,0.1-0.5,0.3-0.6,0.5c-0.9,1-1.9,2-2.8,2.9c-0.4,0.4-0.7,0.8-1,1.2
			C60.5,40.3,61,40.7,61.6,41.3z"/>
		<path class="st0" d="M88.4,30.5c0.8-1.9,1.6-3.9,2.3-5.8c0.1-0.3,0.3-0.4,0.6-0.4c0.9,0.1,1.8,0.1,2.8,0.2c0.3,0,0.4,0.1,0.4,0.4
			c0.1,2.3,0.2,4.5,0.2,6.8c0,1.1,0.1,2.2,0.1,3.4c-0.8-0.1-1.6-0.2-2.3-0.3c-0.1,0-0.1-0.2-0.2-0.3c-0.1-1.5-0.1-3-0.2-4.5
			c0-0.9-0.1-1.8-0.2-2.7c-0.1,0.2-0.2,0.3-0.2,0.5c-0.7,1.6-1.4,3.1-2.1,4.7c-0.1,0.3-0.3,0.4-0.6,0.4c-0.4,0-0.9,0-1.3,0
			c-0.3,0-0.5-0.1-0.6-0.4c-0.7-1.7-1.5-3.4-2.3-5.1c0-0.1-0.1-0.1-0.2-0.2c0,0.2,0,0.4,0,0.6c-0.1,2.1-0.1,4.3-0.2,6.4
			c0,0.3-0.1,0.5-0.5,0.6c-0.7,0.1-1.3,0.2-2,0.3c0-0.4,0-0.9,0-1.3c0.1-2.3,0.2-4.5,0.3-6.8c0-0.7,0.1-1.4,0.1-2.1
			c0-0.3,0.1-0.4,0.4-0.4c0.9-0.1,1.9-0.1,2.8-0.2c0.3,0,0.4,0.1,0.5,0.4c0.7,1.9,1.5,3.8,2.3,5.7C88.4,30.4,88.4,30.4,88.4,30.5z"
			/>
		<path class="st0" d="M112.8,42.8c2-1.3,4-2.6,6-3.9c0.5,0.7,1.1,1.3,1.6,2c-3,1.9-5.9,3.7-8.8,5.5c-0.6-0.7-1.2-1.4-1.8-2.1
			c-0.1-0.1,0-0.3,0-0.4c0.9-1.7,1.8-3.4,2.7-5.1c0,0,0-0.1,0-0.1c-0.2,0.1-0.3,0.2-0.5,0.3c-1.6,0.8-3.1,1.6-4.7,2.4
			c-0.2,0.1-0.4,0.1-0.6-0.1c-0.5-0.5-1.1-0.9-1.7-1.4c-0.1-0.1-0.2-0.2-0.1-0.4c1.8-2.8,3.6-5.6,5.4-8.4c0,0,0.1-0.1,0.1-0.1
			c0.6,0.5,1.2,1,1.8,1.5c0.1,0.1,0.1,0.3,0,0.4c-1.2,1.8-2.4,3.6-3.7,5.5c0,0,0,0.1-0.1,0.2c0.6-0.3,1.2-0.6,1.8-0.9
			c1.1-0.5,2.1-1.1,3.2-1.6c0.2-0.1,0.4-0.1,0.5,0.1c0.4,0.4,0.8,0.8,1.2,1.2c0.2,0.2,0.2,0.4,0.1,0.6
			C114.5,39.5,113.7,41.1,112.8,42.8z"/>
	</g>
</g>
<g id="Capa_5">
</g>
</svg>
