<?xml version="1.0" encoding="utf-8"?>
<!-- Generator: Adobe Illustrator 28.3.0, SVG Export Plug-In . SVG Version: 6.00 Build 0)  -->
<svg version="1.1" xmlns="http://www.w3.org/2000/svg" xmlns:xlink="http://www.w3.org/1999/xlink" x="0px" y="0px"
	 viewBox="0 0 177.4 125.4" style="enable-background:new 0 0 177.4 125.4;" xml:space="preserve">
<style type="text/css">
	.st0{fill:#FFFFFF;}
	.st1{fill:#FEF574;}
	.st2{fill:#024EFF;}
	.st3{fill:#9D9D9D;}
</style>
<g id="Capa_1">
	<g>
		<path class="st0" d="M4.1-75.7c7.8-3.5,15.9-5.5,24.1-7c8.2-1.5,16.5-2.5,25-2.1c-0.9-1-2-1.7-3.1-2.3c-2.6-1.4-5.5-2.3-8.5-2.8
			c-6.1-1.1-12.2-1-18.4-0.2c-5.1,0.7-10.1,1.9-14.9,3.9c-0.1,0-0.2,0.1-0.4,0c0.7-0.3,1.4-0.6,2.1-0.9c0.7-0.3,1.4-0.6,2.1-0.8
			c0.7-0.3,1.5-0.5,2.2-0.7c6.6-2,13.4-3,20.3-2.9c4.5,0,9,0.5,13.4,1.9c2.3,0.7,4.4,1.7,6.3,3.2c0.6,0.5,1.1,1,1.5,1.6
			c0.2,0.3,0.5,0.4,0.9,0.5c1,0.2,2,0.4,2.9,0.8c0.1,0,0.2,0.1,0.3,0.1c2.1,1.1,1.4,2.7,0.1,3.7c0.2-0.5,0-1-0.4-1.4
			c-0.7-0.7-1.6-1-2.5-1.2c0.1,0.8,0.2,1.4,0.1,2.1c-0.3,2.1-1.4,3.8-2.9,5.2c-2.5,2.5-5.4,4.2-8.6,5.7c-1.9,0.9-3.9,1.6-5.9,2.2
			c2.6-0.9,5.2-2,7.6-3.4c2.4-1.4,4.6-3,6.3-5.2c0.9-1.2,1.5-2.6,1.6-4.2c0-1-0.2-1.9-0.6-2.8C54.6-83,54.5-83,54.3-83
			c-1.8-0.2-3.6-0.3-5.4-0.4C43.4-83.5,38-83,32.6-82.3C26-81.5,19.4-80.2,13-78.5c-2.8,0.8-5.6,1.6-8.3,2.7
			C4.6-75.7,4.4-75.6,4.1-75.7z"/>
		<path class="st0" d="M150.9-78.7c3.8,5.1,9.1,6.6,15,6.9c0.1,0.1,0.1,0.3,0,0.4c0,0-0.1,0.1-0.1,0.1c-4.6,0-9-0.7-12.9-3.3
			c-1.2-0.8-2.2-1.7-3-2.8c-0.5-0.7-1.1-1.1-2.1-0.9c-0.3,0.1-0.5,0-0.8,0c-0.1,1.7,0.1,3.3,0.1,5c-0.6-0.1-1.2-0.1-1.8,0
			c0.2-3.3,0.2-6.6,0-9.9c-0.9-0.1-0.9-0.1-0.8-0.5c0.7-0.1,1.4,0,2.1,0c1.4,0,2.9,0,4.3,0c0.7,0,1.3,0.2,1.9,0.5
			c1.3,0.7,1.5,2.2,0.5,3.2C152.6-79.3,151.8-79,150.9-78.7z M147.2-83.1c-0.2,0.8-0.2,3.6-0.1,4.1c0.2,0,0.4,0,0.5,0
			c1.2,0,2.4,0,3.5-0.6c0.6-0.3,1-0.8,1-1.5c0-0.8-0.5-1.5-1.5-1.8C149.6-83.3,148.4-83.1,147.2-83.1z"/>
		<path class="st0" d="M83.2-73.3c2.4,1.3,4.7,2.6,7.4,2.5c-0.1,0.3-0.3,0.3-0.5,0.3c-1.7,0.2-3.3,0.1-4.8-0.6
			c-0.8-0.4-1.7-0.7-2.5-1.1c-1.2-0.6-2.3-1-3.6-1.1c-1.2-0.1-2.3-0.6-3.3-1.3c-2.7-2-2.7-5.5,0-7.5c1.2-0.9,2.5-1.3,3.9-1.4
			c2.1-0.2,4.1,0,5.9,1.2c1.4,0.9,2.4,2.2,2.4,3.9c0,2.1-1.1,3.4-2.8,4.4C84.7-73.8,84.1-73.6,83.2-73.3z M81-73.6
			c0.2,0,0.5,0,0.7,0c2.6-0.1,4.2-1.6,4.5-4.1c0.3-2.3-0.7-4.6-3.6-5.2c-1-0.2-2-0.2-3,0c-1.7,0.3-3,1.2-3.5,2.9
			c-0.6,1.8-0.4,3.6,0.9,5.1C78.1-73.9,79.5-73.6,81-73.6z"/>
		<path class="st0" d="M166.3-73.4c-1.4,0-2.8-0.2-4.2-1c-1.7-0.9-2.6-2.4-2.6-4.4c0-2,1-3.5,2.8-4.3c2.7-1.2,5.5-1.2,8.2,0
			c1.8,0.8,2.8,2.4,2.8,4.4c0,2-1,3.5-2.8,4.4C169.2-73.6,167.8-73.4,166.3-73.4z M165.9-73.9c3.7,0,5.5-1.6,5.6-4.5
			c0.1-2.3-1.1-4-3.2-4.6c-0.4-0.1-0.8-0.2-1.1-0.2c-1.7-0.1-3.3,0.1-4.5,1.4c-1.4,1.5-1.4,3.3-0.8,5.1c0.2,0.7,0.7,1.3,1.3,1.8
			C164-74.2,165.2-73.9,165.9-73.9z"/>
		<path class="st0" d="M116.6-75.3c-0.7,0.8-1.6,1.3-2.7,1.6c-2.2,0.6-4.4,0.6-6.4-0.7c-1.8-1.3-2.6-3-2.2-5.2
			c0.4-2.1,1.8-3.3,3.9-3.8c1.8-0.4,3.6-0.4,5.3,0.2c1.7,0.6,2.8,2.3,2.8,4.2c-3.3,0-6.6,0-9.8,0c-0.5,2.1,1.1,4.5,3.3,4.9
			c2.1,0.4,3.9-0.1,5.5-1.6c0.1,0.1,0.1,0.1,0.2,0.1C116.4-75.4,116.5-75.4,116.6-75.3z M107.4-79.5c2.7,0,5.4,0,8.1,0
			c0.1-1.5-0.7-2.9-2.1-3.4c-0.8-0.3-1.7-0.4-2.6-0.2C109-82.8,107.5-81.2,107.4-79.5z"/>
		<path class="st0" d="M101.4-83.3c0.5,0.1,0.9,0.1,1.3,0c0.1,0.4,0,0.7,0,1c-0.1,1.7-0.2,3.3-0.3,5c-0.1,1.7-1,2.9-2.6,3.4
			c-2.1,0.8-4.3,0.7-6.4,0c-1.5-0.5-2.4-1.7-2.3-3.5c0.1-2,0.1-3.9,0-6c0.6,0,1.2,0.1,1.9,0c-0.1,0.9-0.1,1.7-0.1,2.6
			c-0.1,1.2-0.1,2.4,0,3.6c0.2,1.8,1,2.6,2.8,3c1.1,0.2,2.2,0.2,3.3,0c1.5-0.4,2.4-1.4,2.6-3c0.1-1.8,0.1-3.7,0-5.5
			C101.4-82.9,101.4-83,101.4-83.3z"/>
		<path class="st0" d="M128-81.6c-0.3,0.1-0.3-0.1-0.4-0.3c-1.1-1.3-2.8-1.8-4.2-1.1c-0.6,0.3-1,0.7-1.1,1.4c0,0.7,0.4,1.1,0.9,1.4
			c0.6,0.3,1.2,0.5,1.9,0.7c0.7,0.2,1.4,0.4,2,0.7c1.6,0.8,1.9,2.5,0.7,3.8c-0.7,0.8-1.7,1.1-2.7,1.3c-1.2,0.2-2.5,0.2-3.7-0.1
			c-0.8-0.2-1.3-0.6-1.3-1.5c0-0.2-0.1-0.5-0.1-0.7c0.3-0.1,0.3,0.1,0.4,0.2c1.3,1.2,2.8,1.8,4.6,1.5c0.7-0.1,1.3-0.4,1.6-1.1
			c0.5-0.7,0.3-1.6-0.4-2.1c-0.6-0.4-1.3-0.6-1.9-0.8c-0.8-0.2-1.6-0.4-2.3-0.8c-0.8-0.4-1.3-1-1.3-2c0-1,0.5-1.7,1.3-2.1
			c1.5-0.8,3.2-0.9,4.8-0.4c1.5,0.4,1.2,0.1,1.2,1.6C128-81.8,128-81.7,128-81.6z"/>
		<path class="st0" d="M135.5-73.6c0.2-3.1,0.2-6.2,0.1-9.3c-1.5-0.1-2.9,0-4.4,0.1c0-0.3,0-0.6,0-0.9c3.6,0.1,7.1,0.1,10.7,0
			c0,0.3,0,0.6,0,0.9c-1.5-0.1-2.9-0.2-4.4-0.1c-0.1,3.1-0.1,6.2,0.1,9.3C136.9-73.7,136.2-73.7,135.5-73.6z"/>
		<path class="st0" d="M67.2-92.2c0,7.7,0,15.5,0,23.2c-0.2,0.1-0.3,0-0.3-0.2c0-0.1,0-0.2,0-0.4c0-7.4,0-14.8,0-22.2
			C66.9-91.8,66.8-92.1,67.2-92.2z"/>
		<path class="st0" d="M87.4-90.7c-0.3,0-0.6,0-0.8,0c-0.1,0-0.2,0-0.2-0.2c0-0.2,0.1-0.2,0.2-0.2c0.4,0,0.9,0,1.3,0
			c0,0.9-0.5,1.6-1.3,1.8c-1,0.2-2-0.3-2.3-1.2c-0.3-0.8,0-1.8,0.8-2.3c0.8-0.5,2-0.3,2.7,0.4c-0.1,0.4-0.3,0.2-0.5,0.1
			c-1-0.7-2.3-0.3-2.6,0.8c-0.2,0.8,0.3,1.6,1.2,1.8C86.5-89.5,87.2-89.9,87.4-90.7z"/>
		<path class="st0" d="M160.1-89.2c-1.1,0-1.9-0.8-1.9-1.9c0-1.1,0.8-1.9,1.9-1.9c1.1,0,1.9,0.8,1.9,1.9
			C162-90.1,161.2-89.2,160.1-89.2z M161.6-91.1c0-0.8-0.6-1.5-1.4-1.5c-0.8,0-1.5,0.7-1.5,1.5c0,0.8,0.7,1.5,1.5,1.5
			C160.9-89.6,161.6-90.3,161.6-91.1z"/>
		<path class="st0" d="M103.7-92.9c0.4,0,0.9,0,1.3,0c0.6,0,0.9,0.3,1,0.8c0,0.5-0.2,0.9-0.8,1c-0.1,0-0.2,0-0.3,0.1
			c0.4,0.5,0.8,1,1.1,1.5c-0.3,0.2-0.5,0-0.6-0.2c-0.4-0.5-0.7-0.9-1.1-1.4c-0.4,0.5,0.2,1.3-0.3,1.7c-0.1,0-0.1,0-0.2,0
			C103.7-90.5,103.7-91.7,103.7-92.9z M104.1-91.3c0.5-0.1,1,0.2,1.3-0.3c0.1-0.2,0.1-0.4,0-0.6c-0.4-0.4-0.8-0.3-1.3-0.3
			C104.1-92.1,104.1-91.8,104.1-91.3z"/>
		<path class="st0" d="M122.3-92.8c0,0.8,0,1.6,0,2.3c0,0.4,0.1,0.7,0.6,0.8c0.5,0.2,1-0.2,1-0.8c0-0.7,0-1.4,0-2.1
			c0-0.3,0.1-0.4,0.4-0.3c0,0.9,0,1.7,0,2.6c0,0.7-0.6,1.1-1.2,1c-0.7,0-1.1-0.4-1.1-1.1c0-0.8,0-1.5,0-2.3
			C121.9-92.9,122-92.9,122.3-92.8z"/>
		<path class="st0" d="M140.7-90.9c-0.2,0.5,0.1,1.1-0.2,1.6c0,0-0.2,0-0.3,0c0-1.2,0-2.3,0-3.5c0.5,0,1-0.1,1.5,0
			c0.5,0.1,0.7,0.4,0.7,0.9c0,0.5-0.2,0.8-0.7,0.9C141.5-91,141.1-91,140.7-90.9z M140.7-91.4c0.5,0,1,0.2,1.3-0.3
			c0.1-0.2,0.1-0.4,0-0.6c-0.4-0.4-0.8-0.3-1.3-0.3C140.7-92.1,140.7-91.8,140.7-91.4z"/>
	</g>
</g>
<g id="Capa_2">
	<g>
		<path class="st0" d="M293.4-78.5c-3.3,0-6.5-0.8-9.6-1.9c-0.1-0.5-0.2-1-0.3-1.4c-0.5-2.6-1.2-5.1-2.1-7.6
			c-1.4-3.8-2.8-7.6-4.4-11.4c-0.1-0.3-0.3-0.6-0.4-0.9c-0.1-0.3-0.1-0.5,0.1-0.7c0.2-0.2,0.4-0.2,0.7-0.1c1.8,0.8,3.7,1.3,5.6,1.7
			c1.4,0.3,2.8,0.5,4.2,0.6c1,0.1,2,0.1,3,0.1c2.3-0.1,4.5-0.5,6.7-1.1c0.7-0.2,1.4-0.5,2.1-0.7c0.1,0,0.2-0.1,0.3-0.1
			c0.4,0,0.6,0.4,0.5,0.7c0,0.1-0.1,0.2-0.1,0.2c-1.9,3.6-3.3,7.4-4.2,11.4c-0.7,2.9-1.2,5.8-1.7,8.7
			C293.6-80.1,293.5-79.3,293.4-78.5z"/>
		<path class="st0" d="M313.5-38.7c-1.2,0-2.4,0-3.6,0c-0.7-4-1.4-8-2.1-12c0,0,0,0-0.1,0c0,4,0,8,0,12c-1.7,0-3.4,0-5.1,0
			c0-6.3,0-12.6,0-18.8c2.5,0,5,0,7.6,0c0.5,2.9,1,5.7,1.5,8.6c0.4-2.9,0.9-5.7,1.3-8.6c2.5,0,5.1,0,7.6,0c0,6.3,0,12.5,0,18.8
			c-1.7,0-3.4,0-5.1,0c0-4.1,0-8.2,0-12.2c0,0-0.1,0-0.1,0C314.9-46.9,314.2-42.8,313.5-38.7z"/>
		<path class="st0" d="M315.7-66.7c0,0.1,0,0.1-0.1,0.2c-1.4,1.6-3,2.9-4.9,3.9c-1.2,0.6-2.5,1-3.9,1.2c-1,0.1-2,0.1-3.1,0.2
			c-0.8,0-1.5,0-2.3,0c-1.9-0.1-3.8-0.3-5.6-0.7c-4-0.8-7.7-2.1-11.3-4c-1.9-1-3.9-1.9-5.8-3c-2.4-1.4-4.7-2.9-6.6-4.9
			c-1.5-1.5-2.8-3.2-4.1-4.8c-0.9-1.2-1.6-2.4-2.2-3.7c-0.4-0.9-0.7-1.7-1.1-2.6c-0.2-0.6-0.4-1.3-0.5-1.9c-0.2-1.2-0.2-2.3,0-3.5
			c0.1,0.1,0.2,0.2,0.2,0.3c1.6,3,3.6,5.8,6,8.3c3.4,3.5,7.2,6.5,11.4,8.9c4.5,2.5,9.2,4.6,14.2,6.1c1.7,0.5,3.5,0.9,5.3,1.1
			c2.2,0.3,4.4,0.4,6.6,0.3c1.3,0,2.6-0.2,3.9-0.4c1-0.1,2-0.3,3-0.5C315.2-66.5,315.4-66.6,315.7-66.7L315.7-66.7z"/>
		<path class="st0" d="M276.1-68.4c-0.1,0-0.1,0-0.2,0c-4.3-1.5-8.3-3.5-11.9-6.3c-2.9-2.3-5.4-5-7.2-8.2c-0.9-1.5-1.7-3.1-2.2-4.7
			c-0.4-1.2-0.7-2.4-0.7-3.7c-0.1-2.2,0.6-4.1,2-5.8c1.9-2.3,4.3-3.8,7.1-4.6c1-0.3,2.1-0.4,3.2-0.5c1.1-0.1,2.2-0.1,3.3-0.1
			c1.3,0,2.6,0.1,3.8,0.3c0.8,0.1,1.5,0.2,2.3,0.3c0.2,0,0.4,0.1,0.5,0.2c-0.1,0.1-0.1,0.1-0.2,0.1c-0.9,0-1.8,0.1-2.6,0.2
			c-1.5,0.2-3,0.5-4.4,1.1c-1,0.4-2,0.9-2.8,1.5c-1.9,1.5-3.3,3.2-4,5.5c-0.7,2.1-0.6,4.1,0,6.1c0.5,1.5,1.2,2.9,1.9,4.3
			c1.7,3.2,3.9,6.1,6.3,8.8c1.7,1.9,3.6,3.7,5.6,5.4C275.9-68.6,276-68.5,276.1-68.4z"/>
		<path class="st0" d="M275.1-57.5c0.1,0,0.1,0,0.2,0c2.2,0,4.3,0,6.5,0c1,0,2.1,0.1,3.1,0.2c0.5,0.1,1,0.2,1.4,0.4
			c1.4,0.6,2.2,1.7,2.2,3.2c0,0.6,0.1,1.3,0.1,1.9c0,2.9,0,5.7,0,8.6c0,0.6-0.1,1.3-0.2,1.9c-0.2,0.8-0.6,1.4-1.3,1.8
			c-0.7,0.4-1.4,0.5-2.1,0.6c-0.9,0.1-1.7,0.1-2.6,0.1c-2.3,0-4.7,0-7,0c-0.1,0-0.2,0-0.4,0C275.1-45,275.1-51.2,275.1-57.5z
			 M281-41.9c0.3,0,0.7,0,1-0.1c0.4-0.1,0.7-0.3,0.7-0.8c0.1-0.4,0.1-0.8,0.1-1.2c0-2.8,0-5.7,0-8.5c0-0.3,0-0.6-0.1-1
			c0-0.3-0.2-0.5-0.4-0.6c-0.4-0.2-0.9-0.2-1.3-0.2C281-50.2,281-46.1,281-41.9z"/>
		<path class="st0" d="M264.6-57.5c1.1,2.8,2.1,5.5,3.2,8.3c0,0,0,0,0.1,0c0-2.8,0-5.5,0-8.3c1.6,0,3.2,0,4.9,0c0,6.3,0,12.5,0,18.8
			c-1.7,0-3.4,0-5.1,0c-1-2.8-2-5.6-3-8.3c0,0,0,0-0.1,0c0,2.8,0,5.5,0,8.3c-1.6,0-3.3,0-4.9,0c0-6.3,0-12.5,0-18.8
			C261.4-57.5,263-57.5,264.6-57.5z"/>
		<path class="st0" d="M311.1-90c0.5,0.4,1,0.9,1.4,1.4c1.8,1.9,3.6,3.9,5.1,6.2c0.4,0.6,0.8,1.2,1.1,1.9c0.6,1.2,0.9,2.5,1,3.8
			c0,1.1,0,2.1-0.3,3.2c-0.5,1.8-1.5,3.2-2.9,4.2c-1.2,0.9-2.5,1.4-3.9,1.9c-2.5,0.8-5.1,1.2-7.8,1.1c-2-0.1-4.1-0.4-6-0.9
			c-3.6-0.9-7-2.3-10.3-4.2c-0.1-0.1-0.2-0.1-0.3-0.2c0.4,0.1,0.7,0.1,1.1,0.2c1.6,0.3,3.3,0.5,5,0.7c1.7,0.2,3.5,0.2,5.2,0.2
			c2.5-0.1,5-0.4,7.4-1.2c1.3-0.4,2.6-1,3.7-1.8c1.9-1.3,3-3.1,3.4-5.4c0.3-1.6,0.2-3.1-0.1-4.7c-0.3-1.7-0.9-3.3-1.7-4.9
			C311.7-89.1,311.4-89.5,311.1-90L311.1-90z"/>
		<path class="st0" d="M300.6-57.5c0,1.3,0,2.5,0,3.8c-1.3,0-2.6,0-3.9,0c0,1.2,0,2.4,0,3.6c1.2,0,2.4,0,3.6,0c0,1.2,0,2.4,0,3.6
			c-1.2,0-2.4,0-3.6,0c0,1.4,0,2.7,0,4.1c1.4,0,2.8,0,4.3,0c0,1.3,0,2.5,0,3.8c-3.4,0-6.7,0-10.1,0c0-6.3,0-12.5,0-18.8
			C294.1-57.5,297.3-57.5,300.6-57.5z"/>
		<path class="st0" d="M257.4-38.7c-2,0-3.9,0-5.8,0c0-6.3,0-12.5,0-18.8c0.2-0.1,5.4-0.1,5.8,0C257.4-51.3,257.4-45,257.4-38.7z"/>
		<path class="st0" d="M306.3-74.3c0,0.1-0.1,0.1-0.1,0.2c-1.5,1.2-3.1,2.2-5,2.7c-1,0.2-2,0.3-3,0.3c-4.1,0.1-7.9-0.9-11.6-2.7
			c-1.6-0.8-3.2-1.6-4.8-2.5c-2.3-1.3-4.2-3-5.8-5.1c0,0-0.1-0.1-0.1-0.1c-1.4-1.6-2.4-3.4-3.1-5.5c-0.4-1.1-0.4-2.2-0.3-3.4
			c0.1,0.1,0.2,0.2,0.2,0.3c1.2,2.2,2.6,4.1,4.4,5.9c2.6,2.6,5.6,4.7,8.9,6.4c2.3,1.2,4.8,2.2,7.3,2.9c1.8,0.5,3.5,0.8,5.4,0.9
			c1.3,0.1,2.7,0.1,4,0c1.2,0,2.3-0.1,3.4-0.5C306.2-74.4,306.3-74.4,306.3-74.3z"/>
		<path class="st0" d="M252.6-98c-0.2-1-0.2-2,0.1-2.9c0.5-1.5,1.4-2.7,2.5-3.7c1.3-1.2,2.8-2,4.5-2.5c2.3-0.8,4.7-1.1,7.1-0.9
			c2.5,0.1,4.9,0.7,7.3,1.2c0.7,0.2,1.4,0.4,2.1,0.5c0.1,0,0.2,0,0.3,0.1c-0.4,0.7-0.4,1.6-0.4,2.4c-0.1,0.1-0.2,0-0.3,0
			c-0.9-0.1-1.7-0.2-2.6-0.3c-1.1-0.1-2.2-0.1-3.3-0.1c-2.3,0-4.6,0.2-6.8,0.7c-2,0.5-3.9,1.2-5.7,2.1c-1.4,0.7-2.6,1.6-3.8,2.6
			C253.2-98.5,253-98.2,252.6-98z"/>
		<path class="st0" d="M277.4-98.1c0.1,0.3,0.2,0.6,0.3,0.9c-0.1,0.1-0.2,0.1-0.2,0.1c-2.8,0.6-4.6,2.2-5.6,4.9
			c-0.3,0.9-0.3,1.8-0.2,2.8c0.2,1.7,0.6,3.3,1.4,4.8c0.6,1.2,1.4,2.3,2.3,3.4c1.7,2.1,3.7,3.9,6.1,5.2c0.1,0.1,0.3,0.1,0.4,0.2
			c0.1,0.1,0.2,0.1,0.4,0.2c-0.2,0-0.5-0.2-0.7-0.2c-3-1.4-5.9-3-8.5-5c-1.1-0.8-2.1-1.6-3-2.6c-1.2-1.3-2.2-2.6-2.9-4.2
			c-0.5-1-0.8-2.1-0.8-3.3c0.1-2,0.8-3.7,2.4-5c0.5-0.4,1.1-0.7,1.7-1c1.3-0.5,2.7-0.9,4.1-1.1c0.9-0.1,1.7-0.2,2.6-0.2
			C277.1-98.1,277.2-98.1,277.4-98.1z"/>
		<path class="st0" d="M299.3-98.8c0.2,0.1,0.4,0.2,0.6,0.4c2.3,1.6,4.7,3.2,6.9,5c1.4,1.2,2.7,2.5,3.8,4c1.1,1.6,1.9,3.3,2.3,5.3
			c0.4,1.8,0.2,3.6-0.7,5.2c-0.5,1-1.3,1.8-2.3,2.3c-0.1,0-0.2,0.1-0.3,0.1c-0.1-0.1,0-0.2,0-0.4c0-0.6,0.1-1.3,0-1.9
			c0-1.6-0.3-3.2-0.8-4.7c-0.2-0.7-0.5-1.3-0.7-2c-0.4-1.1-1-2.1-1.6-3c-1.4-2.1-3.2-4.1-5-5.8c-0.9-0.8-1.8-1.6-2.7-2.4
			c-0.1,0-0.1-0.1-0.2-0.2C298.8-97.6,299-98.2,299.3-98.8z"/>
		<path class="st0" d="M303.6-89c0.1,0,0.2,0.1,0.2,0.1c1.4,1.4,2.7,3,3.7,4.7c0.3,0.6,0.7,1.2,0.8,1.9c0.2,1.1,0.2,2.1,0,3.2
			c-0.3,1.1-0.9,2-1.9,2.6c-0.7,0.5-1.5,0.8-2.3,1.1c-1.7,0.5-3.5,0.8-5.3,0.7c-1.5-0.1-2.9-0.4-4.3-0.9c-1.8-0.6-3.5-1.3-5.2-2.3
			c-0.1,0-0.2-0.1-0.2-0.2c0.4,0.1,0.7,0.1,1.1,0.2c0.9,0.2,1.9,0.3,2.8,0.4c0.9,0.1,1.8,0.1,2.7,0.1c1.6,0,3.2-0.2,4.8-0.7
			c0.8-0.3,1.6-0.6,2.3-1.1c1.3-0.9,1.9-2.2,2.1-3.7c0.2-1.4-0.1-2.8-0.5-4.2c-0.2-0.6-0.4-1.1-0.7-1.6
			C303.6-88.8,303.5-88.9,303.6-89z"/>
		<path class="st0" d="M297-28.7c0-2.9,0-5.8,0-8.7c0.1-0.1,0.1,0,0.2,0c1,0,2,0,3,0c0.5,0,1,0,1.4,0.2c0.8,0.2,1.3,0.7,1.5,1.6
			c0.1,0.4,0.1,0.8,0,1.2c-0.1,0.4-0.3,0.7-0.7,0.9c-0.2,0.1-0.3,0.1-0.6,0.2c0.2,0.1,0.4,0.1,0.6,0.2c0.5,0.2,0.8,0.5,0.8,1
			c0.1,0.8,0.1,1.6,0,2.4c-0.1,0.6-0.5,0.9-1,1c-0.4,0.1-0.8,0.1-1.3,0.1c-1.2,0-2.5,0-3.7,0C297.2-28.7,297.1-28.6,297-28.7z
			 M299.7-30.2c0.1,0,0.2,0,0.3,0c0.4,0,0.5-0.2,0.5-0.6c0-0.4,0-0.7,0-1.1c0-0.7-0.1-0.8-0.8-0.7c0,0,0,0-0.1,0
			C299.7-31.8,299.7-31,299.7-30.2z M299.7-35.9c0,0.6,0,1.3,0,1.9c0.2,0,0.3,0,0.4,0c0.3,0,0.4-0.1,0.4-0.4c0-0.2,0-0.5,0-0.7
			C300.6-35.8,300.4-35.9,299.7-35.9z"/>
		<path class="st0" d="M264.9-33c0,0.8,0,1.6,0,2.4c-0.1,0.8-0.4,1.4-1.1,1.8c-0.4,0.2-0.9,0.4-1.4,0.4c-0.7,0.1-1.4,0-2-0.2
			c-0.4-0.1-0.8-0.4-1.1-0.7c-0.3-0.3-0.5-0.7-0.5-1.2c-0.1-1.6-0.1-3.2,0-4.8c0-0.7,0.4-1.3,1-1.7c0.5-0.3,1-0.4,1.6-0.5
			c0.7-0.1,1.4,0,2.1,0.3c0.9,0.4,1.4,1,1.4,2C264.9-34.5,264.9-33.8,264.9-33z M262.2-32.9c0-0.8,0-1.5,0-2.2c0-0.2,0-0.5,0-0.7
			c0-0.2-0.1-0.3-0.4-0.3c-0.2,0-0.4,0.1-0.4,0.3c0,0.2-0.1,0.4-0.1,0.6c0,1.4,0,2.8,0,4.2c0,0.2,0,0.4,0,0.6c0,0.3,0.1,0.3,0.4,0.3
			c0.3,0,0.4-0.1,0.4-0.3c0-0.1,0-0.1,0-0.2C262.2-31.4,262.1-32.2,262.2-32.9z"/>
		<path class="st0" d="M305.8-33c0-0.8,0-1.5,0-2.3c0-0.9,0.5-1.6,1.3-1.9c0.7-0.3,1.4-0.4,2.2-0.3c0.5,0,1,0.1,1.4,0.3
			c0.6,0.3,1.1,0.8,1.2,1.5c0.1,0.3,0.1,0.6,0.1,0.8c0,1.2,0,2.5,0,3.7c0,0.3,0,0.6-0.1,0.8c-0.1,0.6-0.5,1.1-1.1,1.4
			c-0.4,0.2-0.9,0.4-1.4,0.4c-0.7,0.1-1.3,0-2-0.2c-0.2-0.1-0.5-0.2-0.7-0.3c-0.6-0.4-1-0.9-1-1.7C305.8-31.5,305.8-32.3,305.8-33z
			 M308.6-33C308.5-33,308.5-33,308.6-33c0,0.7,0,1.3,0,2c0,0.2,0,0.5,0,0.7c0,0.3,0.1,0.3,0.4,0.3c0.2,0,0.3-0.1,0.4-0.3
			c0-0.2,0.1-0.4,0.1-0.7c0-1.4,0-2.9,0-4.3c0-0.2,0-0.4,0-0.5c-0.1-0.2-0.1-0.3-0.4-0.3c-0.2,0-0.4,0.1-0.4,0.3c0,0.1,0,0.2,0,0.3
			C308.6-34.7,308.6-33.8,308.6-33z"/>
		<path class="st0" d="M295-28.7c-0.9,0-1.9,0-2.8,0c-0.1-0.5-0.1-1-0.2-1.5c-0.3,0-0.6,0-1,0c-0.1,0.5-0.1,1-0.2,1.5
			c-0.9,0-1.8,0-2.8,0c0.5-2.9,0.9-5.8,1.4-8.7c1.3,0,2.6,0,3.9,0C293.9-34.5,294.4-31.6,295-28.7z M291.6-35.1c0-0.1,0-0.1,0-0.2
			C291.5-35.3,291.5-35.2,291.6-35.1c-0.1,0-0.1,0.1-0.1,0.1c-0.1,0.7-0.2,1.4-0.3,2.1c0,0.3-0.1,0.7-0.1,1.1c0.3,0,0.6,0,0.9,0
			C291.8-32.9,291.7-34,291.6-35.1z"/>
		<path class="st0" d="M286.1-33.6c-0.9,0-1.8,0-2.7,0c-0.1-0.1,0-0.2,0-0.3c0-0.5,0-1,0-1.5c0-0.1,0-0.2,0-0.3
			c0-0.3-0.1-0.4-0.4-0.4c-0.3,0-0.5,0.1-0.5,0.4c0,0.2,0,0.4,0,0.6c0,1.5,0,2.9,0,4.4c0,0.1,0,0.3,0,0.4c0.1,0.3,0.2,0.3,0.4,0.3
			c0.3,0,0.4-0.1,0.4-0.3c0-0.1,0-0.2,0-0.4c0-0.4,0-0.8,0-1.2c0-0.1,0-0.2,0-0.3c0.9,0,1.8,0,2.7,0c0,0.7,0,1.5-0.2,2.2
			c-0.1,0.4-0.4,0.6-0.7,0.9c-0.5,0.4-1,0.6-1.7,0.6c-0.8,0.1-1.6,0.1-2.4-0.2c-0.2-0.1-0.4-0.2-0.6-0.3c-0.4-0.3-0.6-0.6-0.8-1.1
			c-0.1-0.5-0.2-1-0.2-1.4c0-1.2,0-2.5,0-3.7c0-1,0.5-1.7,1.5-2.1c0.7-0.3,1.4-0.3,2.1-0.3c0.4,0,0.8,0.1,1.2,0.2
			c0.9,0.3,1.5,0.9,1.6,1.9C286.2-34.9,286.1-34.2,286.1-33.6z"/>
		<path class="st0" d="M314.6-31.8c0.8,0,1.7,0,2.5,0c0.1,0.2,0,0.4,0,0.7c0,0.3,0,0.5,0,0.8c0,0.2,0.1,0.3,0.3,0.4
			c0.2,0,0.4,0,0.6-0.2c0.1-0.1,0.1-0.2,0.1-0.3c0-0.3,0-0.6,0-0.8c0-0.2-0.2-0.4-0.3-0.5c-0.3-0.2-0.7-0.4-1-0.6
			c-0.4-0.2-0.7-0.4-1.1-0.6c-0.6-0.4-1-0.9-1-1.6c0-0.4,0-0.9,0.1-1.3c0.1-0.5,0.4-0.9,0.9-1.1c0.5-0.3,1.1-0.4,1.7-0.4
			c0.7,0,1.4,0,2,0.2c0.2,0.1,0.4,0.1,0.5,0.2c0.4,0.2,0.7,0.5,0.7,1c0.1,0.4,0.1,0.9,0.1,1.3c-0.8,0-1.7,0-2.5,0c0-0.2,0-0.3,0-0.5
			c0-0.2,0-0.3,0-0.5c0-0.2-0.1-0.3-0.3-0.4c-0.2,0-0.4,0-0.5,0.2c-0.2,0.4-0.1,1.1,0.3,1.3c0.2,0.1,0.4,0.2,0.6,0.3
			c0.6,0.3,1.1,0.6,1.6,0.9c0.7,0.4,1,1,1,1.8c0,0.5,0,1-0.1,1.4c-0.1,0.5-0.3,0.8-0.7,1c-0.5,0.3-1,0.4-1.6,0.5
			c-0.7,0.1-1.4,0-2-0.2c-0.1,0-0.3-0.1-0.4-0.1c-0.8-0.3-1.2-0.9-1.3-1.7C314.6-30.9,314.5-31.4,314.6-31.8z"/>
		<path class="st0" d="M267.3-31.8c0.8,0,1.7,0,2.5,0c0.1,0.1,0,0.2,0,0.3c0,0.4,0,0.7,0,1.1c0,0.3,0.1,0.4,0.4,0.4
			c0.3,0,0.5-0.1,0.5-0.4c0.1-0.4,0-0.7-0.1-1.1c-0.1-0.2-0.2-0.3-0.3-0.3c-0.3-0.2-0.6-0.4-1-0.6c-0.4-0.2-0.8-0.5-1.2-0.7
			c-0.7-0.4-1-1-1-1.7c0-0.4,0-0.8,0.1-1.2c0.1-0.5,0.3-0.8,0.7-1.1c0.3-0.2,0.7-0.3,1.1-0.4c0.8-0.2,1.7-0.1,2.5,0.1
			c0.1,0,0.2,0.1,0.4,0.1c0.8,0.3,1.2,0.8,1.2,1.6c0,0.3,0,0.6,0,0.9c-0.8,0-1.7,0-2.5,0c-0.1-0.1,0-0.2,0-0.3c0-0.2,0-0.4,0-0.6
			c0-0.2-0.1-0.3-0.3-0.3c-0.2,0-0.4,0-0.5,0.2c-0.2,0.4-0.1,1.1,0.2,1.3c0.2,0.1,0.4,0.2,0.5,0.3c0.6,0.3,1.1,0.6,1.6,0.9
			c0.7,0.5,1.1,1.1,1.1,2c0,0.4,0,0.8,0,1.3c-0.1,0.5-0.3,0.9-0.8,1.1c-0.5,0.3-1,0.4-1.5,0.5c-0.7,0.1-1.4,0-2.1-0.2
			c-0.1,0-0.3-0.1-0.4-0.2c-0.7-0.3-1.1-0.8-1.2-1.6C267.3-30.9,267.3-31.3,267.3-31.8z"/>
		<path class="st0" d="M286.6-106.4c0.2,0,0.2-0.1,0.2-0.2c0.2-0.3,0.4-0.5,0.8-0.6c0.7-0.3,1.3-0.7,1.9-1c0.6-0.3,1.3-0.6,2-0.7
			c0.6-0.1,0.9,0.1,1.2,0.6c0.1,0.1,0.1,0.3,0.2,0.5c0.2,0.9,0.4,1.8,0.5,2.8c0,0.1,0,0.3,0,0.4c-0.1,0-0.1,0-0.2-0.1
			c-0.1-0.2-0.3-0.2-0.5-0.1c-0.2,0.1-0.3,0.2-0.3,0.4c0,0.1,0,0.3,0,0.4c0,0.1,0,0.3-0.1,0.4c-0.1,0-0.2-0.1-0.2-0.2
			c-0.2-0.8-0.6-1.5-0.9-2.3c0,0,0-0.1,0-0.1c-0.2-0.5-0.4-0.6-0.9-0.3c0,0.1,0.1,0.2,0.2,0.3c0.4,0.5,0.8,1.1,0.9,1.8
			c0.1,0.6,0.1,1.3-0.2,1.9c-0.2,0.5-0.6,0.8-1.1,1c-0.9,0.3-1.7,0.2-2.4-0.5c-0.6-0.6-0.9-1.4-1.1-2.3c-0.1-0.4-0.1-0.8,0-1.2
			c0.1-0.3,0-0.4-0.3-0.4c-0.4-0.1-0.8-0.2-1.1-0.5c-0.6-0.4-0.8-1.1-0.6-1.8c0.2-0.8,0.8-1.4,1.6-1.8c0.1-0.1,0.3-0.1,0.4-0.1
			c0.2,0,0.4,0.2,0.4,0.4c0,0.3-0.1,0.5-0.2,0.7c-0.2,0.2-0.4,0.4-0.6,0.5c-0.2,0.2-0.4,0.3-0.5,0.5c-0.3,0.4-0.3,0.7,0,1
			C285.8-106.9,286.2-106.6,286.6-106.4z"/>
		<path class="st0" d="M282.8-121.3c0,0.2,0.1,0.3,0.2,0.5c0.2,0.4,0.4,0.9,0.5,1.4c0.3,1.1,0.8,2.2,1.5,3.1
			c0.2,0.2,0.4,0.4,0.5,0.6c0.2,0.3,0.2,0.4-0.1,0.6c-0.1,0.1-0.2,0.2-0.2,0.3c-0.5,1.4-1,2.7-1.5,4.1c-0.2,0.5-0.4,1-0.6,1.5
			c-0.1,0-0.2,0-0.3-0.1c0.7-2,1.4-3.9,2.2-5.9c-0.1-0.1-0.3-0.2-0.4-0.4c-0.1,0.2-0.3,0.1-0.4,0c0.2-0.2,0.1-0.3-0.1-0.5
			c-0.7-0.7-1.2-1.6-1.6-2.5c-0.2-0.5-0.3-0.5-0.7-0.1c-0.2,0.3-0.5,0.5-0.7,0.8c-0.6,0.7-0.9,1.6-1,2.5c-0.1,0.9,0,1.8,0.1,2.7
			c0.1,0.5,0.1,1.1,0.2,1.6c-0.1,0-0.2-0.1-0.2-0.2c-0.2-0.3-0.4-0.6-0.6-0.9c0-0.1-0.1-0.1-0.1-0.2c-0.2-0.2-0.4-0.3-0.7-0.3
			c-0.3,0-0.5,0.2-0.6,0.5c-0.1,0.3-0.1,0.7-0.2,1c0,0.1,0,0.2,0,0.3c0,0,0,0,0,0c0-0.4-0.1-0.9-0.1-1.3c-0.1-1.1-0.2-2.2-0.2-3.3
			c0-2.6,1-4.6,3.3-5.9c0.2-0.1,0.5-0.2,0.7-0.3c0.4-0.1,0.7-0.1,0.9,0.3c0,0,0,0.1,0.1,0.1c-0.1-0.4-0.1-0.8,0.2-1.1
			c0.2-0.2,0.4-0.3,0.6-0.3c0.5-0.1,1,0.2,1.1,0.6c0.2,0.5,0,1-0.4,1.3C283.9-120.6,283.4-120.7,282.8-121.3z"/>
		<path class="st0" d="M299.5-114.4c0.3,0.3,0.4,0.7,0.5,1.1c0.1,1.2-0.2,2.3-0.8,3.4c-0.3,0.6-0.7,1.1-1.1,1.6
			c-0.4,0.5-0.7,1-1,1.6c-0.2,0.4-0.4,0.8-0.4,1.2c-0.1,0.9,0.5,1.6,1.3,1.7c0.8,0.1,1.5-0.2,2-0.9c0.1-0.1,0.2-0.3,0.3-0.4
			c0.1,0.2,0,0.4,0,0.7c-0.2,0.8-0.7,1.4-1.4,1.9c-0.7,0.4-1.4,0.6-2.2,0.7c-0.9,0.1-1.7,0.1-2.6,0c-0.3,0-0.3-0.1-0.4-0.4
			c-0.1-0.9-0.1-1.8,0.2-2.7c0.3-1,0.8-1.9,1.5-2.7c0.6-0.7,1.2-1.4,1.8-2c0.5-0.5,1-1.1,1.4-1.7c0.6-0.8,0.9-1.7,0.9-2.7
			C299.4-114.2,299.4-114.3,299.5-114.4C299.4-114.4,299.5-114.4,299.5-114.4z"/>
		<path class="st0" d="M297-92.7c0.2-0.6,0.4-1.1,0.6-1.6c0.1,0,0.2,0.1,0.2,0.1c1.2,0.9,2.4,1.8,3.5,2.9c1.2,1.2,2.1,2.7,2.6,4.4
			c0.3,1.2,0.3,2.4-0.1,3.6c-0.3,0.8-0.8,1.4-1.5,1.8c-0.1,0-0.2,0.1-0.3,0.1c0-0.3,0-0.5,0-0.8c0.1-1.5-0.2-2.8-0.7-4.2
			c-0.5-1.6-1.4-3-2.5-4.3C298.2-91.5,297.6-92.1,297-92.7z"/>
		<path class="st0" d="M266.4-94.9c-0.2-0.7-0.2-1.4,0.1-2c0.4-1.1,1.1-1.9,2-2.6c1-0.7,2.1-1.1,3.2-1.3c1.5-0.3,2.9-0.3,4.5-0.2
			c0.3,0.8,0.7,1.6,1,2.5c-0.1,0.1-0.2,0.1-0.3,0.1c-1,0-2.1,0-3.1,0.2c-1.3,0.1-2.5,0.4-3.7,0.9c-0.8,0.3-1.5,0.8-2.1,1.3
			c-0.4,0.4-0.8,0.7-1.3,1.1C266.6-95.1,266.5-95,266.4-94.9z"/>
		<path class="st0" d="M276.6-104.8c0.3-0.1,0.6,0,0.8,0.1c0.4,0.1,0.9,0.3,1.3,0.5c1.5,0.6,2.9-0.7,3.2-1.7c0.2-0.6,0.1-1.2,0-1.8
			c-0.2-0.8-0.4-1.7-0.6-2.5c-0.1-0.2-0.2-0.4,0-0.7c0.1,0.1,0.1,0.2,0.2,0.3c0.9,1.8,1.7,3.7,2.4,5.6c0.4,1.1,1.1,2.1,2.1,2.8
			c0.3,0.2,0.6,0.4,1,0.5c0.1,0,0.2,0.1,0.3,0.1c0,0.1-0.1,0.1-0.2,0.1c-3.6,0.7-6.7-0.2-9.6-2.4c-0.3-0.2-0.6-0.5-0.8-0.8
			C276.7-104.7,276.6-104.7,276.6-104.8z"/>
		<path class="st0" d="M252.3-37.4c0.9,0,1.8,0,2.7,0c0,1.2,0,2.3,0,3.5c0,1.2,0,2.3,0,3.5c0.6,0,1.1,0,1.6,0c0,0.6,0,1.2,0,1.8
			c-1.4,0-2.9,0-4.3,0C252.3-31.6,252.3-34.5,252.3-37.4z"/>
		<path class="st0" d="M288.7-116.6c-1.1-0.9-1.9-2.1-2.4-3.5c-0.7-1.8-0.9-3.6-0.6-5.6c0.2,0.1,0.3,0.3,0.3,0.4
			c0.1,0.3,0.2,0.7,0.3,1.1c0,0.2,0.1,0.3,0.2,0.5c0.3,1,1.4,1.3,2.2,1c0.4-0.1,0.7-0.4,1-0.7c0.3-0.3,0.6-0.7,0.8-1.1
			c0.3-0.5,0.7-1,1-1.6c0.1-0.1,0.2-0.3,0.3-0.3c0,0.1,0,0.2-0.1,0.3c-0.7,1.7-1.5,3.4-2.4,5.1c-0.4,0.8-0.7,1.7-0.8,2.7
			c0,0.5,0,0.9,0.1,1.3C288.8-116.8,288.8-116.7,288.7-116.6z"/>
		<path class="st0" d="M288.8-131.8c0.1,0.1,0.2,0.2,0.2,0.2c0.9,1.3,1.4,2.7,1.5,4.3c0,0.7-0.1,1.3-0.3,1.9
			c-0.3,0.7-0.7,1.2-1.4,1.5c-0.7,0.3-1.2,0.2-1.6-0.4c-0.7-0.9-0.7-2-0.1-3c0.2-0.2,0.3-0.5,0.5-0.7c0.6-0.7,1-1.5,1.2-2.4
			C288.8-130.7,288.8-131.2,288.8-131.8z"/>
		<path class="st0" d="M285.3-64.4c1.9,0.7,3.8,1.6,5.8,2.1c0,0.4-0.1,0.7-0.1,1.1c0,0.1,0,0.3,0,0.4c0,0.4-0.3,0.7-0.7,0.7
			c-0.5,0-0.9,0-1.4,0c-0.9,0-1.7,0-2.6-0.1c-0.4,0-0.7-0.2-0.8-0.6c-0.1-1.1-0.2-2.2-0.3-3.3C285.2-64.2,285.2-64.3,285.3-64.4z"/>
		<path class="st0" d="M289.8-110.7c-0.3,0-0.5-0.1-0.7-0.3c-0.2-0.3-0.1-0.6,0.2-0.7c0.5-0.2,0.9-0.3,1.4-0.4
			c0.4-0.1,0.8-0.2,1.1-0.3c0.8-0.3,1.4-0.9,1.7-1.7c0.1-0.1,0.1-0.3,0-0.4c0,0,0-0.1-0.1-0.1c-0.6-0.6,0.1-2,1.1-2.1
			c0.4,0,0.7,0.1,0.9,0.5c0.4,0.9-0.1,2-1.1,2.1c-0.2,0-0.3,0.1-0.3,0.3c-0.4,1.1-1.2,2-2.3,2.6c-0.5,0.3-1,0.5-1.6,0.6
			C290.1-110.7,290-110.7,289.8-110.7z"/>
		<path class="st0" d="M290.9-116.5c-0.7-0.7-0.5-2.1,0.2-2.7c0.3-0.3,0.6-0.4,0.9-0.6c0.3-0.1,0.6-0.3,0.9-0.4
			c0.1-0.1,0.3-0.2,0.4-0.3c0.2-0.4,0.1-0.8-0.3-0.9c-0.2,0-0.3-0.1-0.5,0c-0.1,0-0.3,0-0.4,0.1c0-0.1,0.1-0.2,0.1-0.3
			c0.4-0.4,0.8-0.5,1.4-0.4c0.5,0.1,0.9,0.4,1,1c0.1,0.3,0,0.6-0.1,0.9c-0.2,0.3-0.4,0.6-0.6,0.8c-0.3,0.3-0.7,0.5-1,0.8
			c-0.3,0.2-0.5,0.4-0.8,0.6c-0.4,0.3-0.7,0.7-0.9,1.2C291-116.7,291-116.6,290.9-116.5z"/>
		<path class="st0" d="M298.3-114.7c0.1-0.7-0.2-1.2-0.6-1.8c-0.2-0.3-0.4-0.6-0.7-0.8c-0.6-0.7-1.1-1.4-1.4-2.3
			c-0.2-0.5-0.4-1.1-0.4-1.7c0.1,0,0.1,0,0.1,0.1c0.3,0.8,0.9,1.4,1.6,2c0.3,0.3,0.6,0.5,0.9,0.8c0.4,0.4,0.8,0.8,1,1.3
			c0.2,0.5,0.3,1.1,0.2,1.6C298.9-115.1,298.7-114.8,298.3-114.7z"/>
		<path class="st0" d="M278.2-106.7c-0.4,0-0.8-0.1-1.1-0.3c-0.4-0.3-0.5-0.7-0.4-1.1c0-0.1,0.1-0.2,0.2-0.3
			c0.3-0.5,0.7-0.8,1.2-1.1c0.2-0.1,0.5-0.2,0.8-0.1c0.3,0.1,0.4,0.3,0.3,0.6c-0.1,0.2-0.2,0.4-0.3,0.5c-0.2,0.2-0.4,0.5-0.5,0.7
			C278.1-107.5,278.1-107.1,278.2-106.7z"/>
		<path class="st0" d="M293.5-108.8c0-0.3,0.1-0.5,0.2-0.7c0.2-0.3,0.4-0.6,0.6-0.9c0.2-0.3,0.4-0.5,0.6-0.7
			c0.5-0.6,0.9-1.3,0.9-2.1c0.1,0,0.1,0.1,0.2,0.1c0.3,0.4,0.4,0.9,0.4,1.4c0,0.6-0.2,1.1-0.7,1.5c-0.1,0.1-0.3,0.2-0.4,0.3
			C294.7-109.6,294.1-109.3,293.5-108.8z"/>
		<path class="st0" d="M287.9-113.6c0.5,0,1.1,0.4,1.1,1.1c0,0.6-0.5,1.1-1.1,1.1c-0.7,0-1.3-0.6-1.3-1.2
			C286.6-113.1,287.1-113.7,287.9-113.6z"/>
		<path class="st0" d="M280.1-104.7c-0.6,0-1-0.5-1-1c0-0.6,0.5-1.1,1.1-1.1c0.6,0,1,0.5,1,1.1C281.2-105.1,280.7-104.7,280.1-104.7
			z"/>
		<path class="st0" d="M297.1-105.2c0-0.6,0.4-1,1-1c0.6,0,1.1,0.4,1.1,1c0,0.6-0.4,1.1-1,1.1C297.6-104.2,297.1-104.7,297.1-105.2z
			"/>
		<path class="st0" d="M281.9-116.3c0.6,0.1,0.9,0.7,0.8,1.2c0,0.2-0.1,0.3-0.2,0.5c-0.1,0.1-0.2,0.3-0.2,0.4
			c-0.1,0.1,0,0.2,0.1,0.3c0.1,0.1,0.3,0.1,0.4,0c0.1-0.1,0.2-0.2,0.3-0.2c0.1,0.1,0,0.2,0,0.2c-0.1,0.3-0.4,0.6-0.7,0.6
			c-0.3,0-0.6-0.2-0.7-0.5c-0.1-0.3,0-0.5,0-0.7c0.1-0.3,0.1-0.5,0.2-0.8C281.9-115.6,282-115.9,281.9-116.3
			C281.9-116.2,281.9-116.3,281.9-116.3z"/>
		<path class="st0" d="M293-125.4c0.4,0.1,0.8,0.3,1,0.6c0.2,0.3,0.1,0.6,0,0.9c-0.2,0.3-0.4,0.5-0.7,0.6c-0.1,0.1-0.2,0.1-0.3,0.1
			c-0.2,0-0.4,0-0.5-0.2c-0.1-0.2,0-0.3,0.1-0.5c0.1-0.1,0.1-0.2,0.2-0.3C293-124.6,293.2-124.9,293-125.4z"/>
		<path class="st0" d="M291.1-115.8c0.2,0.2,0.3,0.4,0.4,0.6c0.1,0.3,0,0.6-0.3,0.7c-0.2,0.2-0.5,0.2-0.8,0.2
			c-0.1,0-0.2-0.1-0.3-0.2c-0.1-0.2-0.1-0.3,0-0.5c0.1-0.1,0.2-0.1,0.3-0.2C290.7-115.3,291-115.4,291.1-115.8z"/>
		<path class="st0" d="M296.2-115.2c0.3,0,0.5,0.2,0.5,0.4c0,0.3-0.2,0.5-0.5,0.5c-0.2,0-0.5-0.2-0.5-0.5
			C295.6-115,295.9-115.2,296.2-115.2z"/>
		<path class="st1" d="M303.3-89.4c0.1,0,0.2,0.1,0.2,0.2c0,0-0.1,0-0.1,0C303.3-89.2,303.3-89.2,303.3-89.4
			C303.3-89.3,303.3-89.3,303.3-89.4z"/>
		<path class="st0" d="M282.4-75.5C282.5-75.5,282.5-75.5,282.4-75.5c0.1,0.1,0.1,0.1,0.1,0.1C282.5-75.5,282.5-75.5,282.4-75.5
			C282.4-75.5,282.4-75.5,282.4-75.5z"/>
		<path class="st0" d="M282.5-75.4C282.5-75.4,282.6-75.4,282.5-75.4C282.6-75.4,282.6-75.4,282.5-75.4
			C282.6-75.4,282.6-75.4,282.5-75.4C282.5-75.4,282.5-75.4,282.5-75.4z"/>
		<path class="st0" d="M282.4-75.5C282.4-75.5,282.4-75.5,282.4-75.5C282.4-75.5,282.3-75.5,282.4-75.5
			C282.3-75.6,282.3-75.6,282.4-75.5C282.4-75.5,282.4-75.5,282.4-75.5C282.4-75.5,282.4-75.5,282.4-75.5z"/>
		<path class="st1" d="M303.2-89.4C303.3-89.4,303.3-89.4,303.2-89.4C303.3-89.3,303.3-89.3,303.2-89.4
			C303.2-89.3,303.2-89.4,303.2-89.4L303.2-89.4z"/>
		<path class="st2" d="M315.7-66.7C315.7-66.7,315.8-66.7,315.7-66.7C315.8-66.7,315.8-66.7,315.7-66.7
			C315.8-66.7,315.8-66.7,315.7-66.7C315.7-66.7,315.7-66.7,315.7-66.7z"/>
		<path class="st1" d="M303.2-89.4C303.2-89.4,303.2-89.4,303.2-89.4C303.2-89.4,303.2-89.4,303.2-89.4
			C303.2-89.4,303.2-89.4,303.2-89.4z"/>
		<polygon class="st0" points="311.1,-90 311.1,-90 311.1,-90 		"/>
		<path class="st0" d="M303.5-89.1c0,0,0.1,0.1,0,0.1C303.5-89,303.5-89,303.5-89.1C303.5-89.1,303.5-89.1,303.5-89.1z"/>
		<path class="st0" d="M303.4-89.1c0,0,0.1,0,0.1,0c0,0,0,0,0,0C303.5-89.1,303.5-89.1,303.4-89.1C303.4-89.1,303.4-89.1,303.4-89.1
			z"/>
		<path class="st3" d="M291.6-35.1L291.6-35.1L291.6-35.1c-0.1-0.1-0.1-0.1,0-0.2C291.6-35.3,291.6-35.2,291.6-35.1z"/>
	</g>
</g>
<g id="Capa_3">
	<g>
		<g>
			<path class="st0" d="M417.7-88.6c-0.5,0.1-1,0.2-1.7,0c1-1.7,1.4-3.6,2.4-5.2c1.2-1.9,2.4-3.7,3.9-5.4c2.4-2.5,5.1-4.6,8.3-6
				c2.6-1.2,5.3-2,8-2.5c3.6-0.7,7.2-1,10.9-0.8c0.2,0,0.4,0,0.8,0.1c-0.5,0.3-0.7,0.4-1,0.5c-1.6,0.8-1.8,2.1-0.4,3.3
				c2.2,1.9,4.8,2,7.5,1.8c3.4-0.2,6.6-1.5,9.5-3.3c0.3-0.2,0.5-0.4,0.9-0.4c0.2,0.5-0.3,0.8-0.5,1.2c-1.1,2.1-0.4,3.9,1.8,4.7
				c2.8,1,5.6,1.1,8.4-0.4c2.6-1.3,5.3-2.5,7.9-3.8c3.3-1.6,6.6-3.3,9.9-4.9c0.7-0.4,1.5-0.7,2.4-1c-0.2,0.7-0.4,1.3-0.6,2
				c1.1,0,1.8-0.7,2.6-1c4-1.9,8-3.9,12-5.9c0.5-0.2,1-0.5,1.1-1.2c0.1,0,0.3,0,0.4,0c-0.1,1.3-1.1,2-1.7,2.9
				c-0.5,0.7-1,1.4-1.5,2.4c1.6-0.5,3-1,4.5-1.3c0.4-0.1,0.9-0.3,1.3,0.1c-0.1,0.4-0.4,0.4-0.7,0.5c-2,0.8-3.9,1.9-5.7,3.3
				c-0.8,0.6-1.6,1.4-2.7,1.8c0.4-1.2,1.4-1.8,1.6-2.9c-8,3.8-14.9,9-22.2,13.9c2.4-0.4,4.7-1.5,7.4-1.7c-0.6,0.3-0.9,0.4-1.3,0.6
				c-3.9,1.7-7.9,3.2-12,4.3c-0.7,0.5-1.4,0.4-2.2,0.4c0-0.1,0-0.1,0-0.2c-0.2-0.4-0.5-0.3-0.8-0.2c-1.5,0.1-3,0.2-4.5,0.1
				c1-0.1,2-0.3,3-0.4c2.1-0.2,4.1-0.5,5.9-1.5c2.9-1.6,5.4-3.8,8.3-5.6c3.6-2.3,7.2-4.8,10.8-7.3c0.7-0.5,1.4-1,2-1.5
				c-2,0.2-3.6,1.1-5.3,1.9c-0.7,0.3-1.4,0.5-1.9-0.4c-1.2,0.6-2.1,1.5-3.1,2.2c-3.4,2.2-6.6,4.8-10.7,5.8c-1.9,0.5-2.4,0.5-3.5-1
				c-0.4,0.4-0.9,0.8-1.4,1.2c-1.1,1-2,1-3.1,0c-0.2-0.2-0.4-0.3-0.8-0.2c-2.3,0.9-4.6,1.7-6.8,2.7c-0.7,0.3-1.3,0.4-2,0.4
				c0.2-0.5,0.4-0.8,0.6-1.2c0.2-0.6,0.9-1.3,0.2-1.9c-0.6-0.5-1.3-0.1-1.9,0.2c-2.7,1.2-5.5,2.2-8.3,2.9c-3.3,0.8-6.7,1.5-10.2,1.5
				c-2.1,0-4.2,0-6.4-0.2c-3.7-0.3-7.3,0.3-10.8,1.4c-0.3,0.1-0.5,0.3-0.9,0.1c3.4-3.4,7.7-4.8,12.1-5.9c2.4-0.6,5-0.7,7.6-0.8
				c1.7-0.1,3.5-0.1,5.2-0.1c1.1,0,1.3-0.4,1-1.4c-0.3-1-1.1-1.1-1.9-1.2c-1.9-0.1-3.8,0.1-5.8-0.2c-1.5-0.2-2-1-1.2-2.3
				c0.4-0.6,1.1-0.9,1.3-1.7c-1,0.2-1.8,0.3-2.7,0.4c-4.9,0.8-9.2,2.9-13.1,5.8c-2.6,1.9-4.8,4-6.9,6.5c-1.3,1.6-2.6,3.2-3.8,4.8
				c-0.2,0.3-0.6,0.5-0.3,0.9C417-88.4,417.4-88.5,417.7-88.6z"/>
			<path class="st0" d="M415.4-86.2c0.4-0.2,0.9-0.4,1.4-0.4c7.9,0,15.8,0,23.6,0c0.2,0,0.5,0,0.7,0.1c0.1,0.4-0.2,0.4-0.4,0.5
				c-1.4,0.7-3,1.1-4.5,1.1c-4.6,0-8.8,4-9.7,8.5c-0.8,4.2-0.9,8.5-0.5,12.8c0.4,4.6,1.3,9.1,2.2,13.6c0.4,1.7,0.9,3.4,1.3,5.2
				c0.1,0.4,0.3,0.9,0.1,1.5c-1.2-1.7-2.1-3.5-3-5.3c-1.4-2.6-2.7-5.2-3.8-7.9c-2.7-7.2-5.5-14.4-6.8-22c-0.1-0.8,0.2-1.6-0.5-2.3
				C415.4-82.6,415.4-84.4,415.4-86.2z"/>
			<g>
				<path class="st0" d="M443.4-93.9H443c-2,0-4,0-6-0.2c-0.6-0.1-1.2-0.1-1.8-0.1c-2.7,0-5.5,0.5-8.7,1.4c0,0-0.1,0-0.1,0
					c-0.2,0.1-0.4,0.2-0.8,0.2c-0.3,0-0.5-0.1-0.8-0.2c-0.2-0.1-0.4-0.4-0.4-0.6c0-0.3,0.1-0.5,0.2-0.7c3.5-3.6,7.9-5,12.5-6.2
					c2.4-0.6,5-0.8,7.8-0.8c0.8,0,1.6-0.1,2.4-0.1c0.9,0,1.9,0,2.8-0.1c0.1,0,0.2,0,0.3,0c0-0.1-0.1-0.2-0.1-0.3
					c-0.1-0.3-0.3-0.5-1.1-0.6c-0.6,0-1.3,0-1.9,0c-1.3,0-2.6,0-3.9-0.2c-1.3-0.2-1.9-0.8-2.1-1.3s-0.4-1.3,0.3-2.4
					c0-0.1,0.1-0.1,0.1-0.1c-0.2,0-0.4,0.1-0.6,0.1c-4.5,0.8-8.7,2.6-12.8,5.6c-2.4,1.8-4.7,3.9-6.8,6.3c-1.1,1.3-2.4,2.9-3.6,4.6
					c0,0,0.1,0,0.1,0h0c7.4-0.4,17.1-1.3,26.5-4.1c0.2-0.1,0.4-0.1,0.5-0.2c0.2-0.1,0.4-0.2,0.6-0.3c-0.7,0.1-1.4,0.1-2.2,0.1
					L443.4-93.9z"/>
				<path class="st0" d="M494.2-106.3c-0.4,0.2-0.8,0.5-1.1,0.8c-0.4,0.3-0.9,0.7-1.3,1c-0.8,0.5-1.6,1-2.4,1.6
					c-2.6,1.7-5.3,3.5-8.5,4.4c-0.8,0.2-1.4,0.3-1.9,0.3c-0.8,0-1.4-0.3-1.9-0.9c-0.2,0.2-0.4,0.4-0.7,0.6c-0.7,0.7-1.4,1-2.1,1
					s-1.4-0.3-2.1-1c-0.6,0.2-1.3,0.5-1.9,0.7c-1.6,0.6-3.2,1.2-4.8,1.9c-0.8,0.4-1.5,0.5-2.3,0.5c0,0,0,0-0.1,0
					c-0.3,0-0.5-0.1-0.7-0.4c-0.2-0.3-0.2-0.6-0.1-0.9c0.1-0.2,0.2-0.3,0.2-0.4c0.1-0.2,0.2-0.5,0.3-0.7c0.1-0.2,0.2-0.3,0.2-0.5
					c0.1-0.1,0.2-0.3,0.2-0.4l0,0c0,0,0,0-0.1,0c-0.2,0-0.4,0.1-0.7,0.2c-0.1,0-0.1,0.1-0.2,0.1c-2.9,1.3-5.7,2.2-8.5,2.9
					c-1.9,0.5-4.2,1-6.6,1.3c0.2,0.1,0.5,0.1,0.7,0.3c1.3,0.5,2.6,0.5,4,0.6c0.6,0,1.3,0.1,1.9,0.1c1.6,0.2,3.3,0.3,5.6,0.3
					c0.9,0,1.8,0,2.7,0h0.4c2.1,0,4.3-0.2,6.3-0.4c0.9-0.1,1.9-0.2,2.8-0.2c0.3-0.1,0.6-0.1,0.9-0.1c0.7-0.1,1.4-0.2,2.1-0.3
					c1.9-0.2,3.9-0.5,5.6-1.4c1.7-0.9,3.3-2.1,4.8-3.2c1.1-0.8,2.2-1.6,3.4-2.4c2.6-1.6,5.2-3.4,7.7-5.2c-0.2,0.1-0.5,0.1-0.7,0.1
					C495.1-105.9,494.6-106,494.2-106.3z"/>
				<g>
					<path class="st0" d="M443.4-93.9H443c-2,0-4,0-6-0.2c-0.6-0.1-1.2-0.1-1.8-0.1c-2.7,0-5.5,0.5-8.7,1.4c0,0-0.1,0-0.1,0
						c-0.2,0.1-0.4,0.2-0.8,0.2c-0.3,0-0.5-0.1-0.8-0.2c-0.2-0.1-0.4-0.4-0.4-0.6c0-0.3,0.1-0.5,0.2-0.7c3.5-3.6,7.9-5,12.5-6.2
						c2.4-0.6,5-0.8,7.8-0.8c0.8,0,1.6-0.1,2.4-0.1c0.9,0,1.9,0,2.8-0.1c0.1,0,0.2,0,0.3,0c0-0.1-0.1-0.2-0.1-0.3
						c-0.1-0.3-0.3-0.5-1.1-0.6c-0.6,0-1.3,0-1.9,0c-1.3,0-2.6,0-3.9-0.2c-1.3-0.2-1.9-0.8-2.1-1.3s-0.4-1.3,0.3-2.4
						c0-0.1,0.1-0.1,0.1-0.1c-0.2,0-0.4,0.1-0.6,0.1c-4.5,0.8-8.7,2.6-12.8,5.6c-2.4,1.8-4.7,3.9-6.8,6.3c-1.1,1.3-2.4,2.9-3.6,4.6
						c0,0,0.1,0,0.1,0h0c7.4-0.4,17.1-1.3,26.5-4.1c0.2-0.1,0.4-0.1,0.5-0.2c0.2-0.1,0.4-0.2,0.6-0.3c-0.7,0.1-1.4,0.1-2.2,0.1
						L443.4-93.9z"/>
					<path class="st0" d="M495.4-105.9c-0.3,0-0.8-0.1-1.2-0.4c-0.4,0.2-0.8,0.5-1.1,0.8c-0.4,0.3-0.9,0.7-1.3,1
						c-0.8,0.5-1.6,1-2.4,1.6c-2.6,1.7-5.3,3.5-8.5,4.4c-0.8,0.2-1.4,0.3-1.9,0.3c-0.8,0-1.4-0.3-1.9-0.9c-0.2,0.2-0.4,0.4-0.7,0.6
						c-0.7,0.7-1.4,1-2.1,1s-1.4-0.3-2.1-1c-0.6,0.2-1.3,0.5-1.9,0.7c-1.6,0.6-3.2,1.2-4.8,1.9c-0.8,0.4-1.5,0.5-2.3,0.5
						c0,0,0,0-0.1,0c-0.3,0-0.5-0.1-0.7-0.4c-0.2-0.3-0.2-0.6-0.1-0.9c0.1-0.2,0.2-0.3,0.2-0.4c0.1-0.2,0.2-0.5,0.3-0.7
						c0.1-0.2,0.2-0.3,0.2-0.5c0.1-0.1,0.2-0.3,0.2-0.4l0,0c0,0,0,0-0.1,0c-0.2,0-0.4,0.1-0.7,0.2c-0.1,0-0.1,0.1-0.2,0.1
						c-2.9,1.3-5.7,2.2-8.5,2.9c-1.9,0.5-4.2,1-6.6,1.3c0.2,0.1,0.5,0.1,0.7,0.3c1.3,0.5,2.6,0.5,4,0.6c0.6,0,1.3,0.1,1.9,0.1
						c1.6,0.2,3.3,0.3,5.6,0.3c0.9,0,1.8,0,2.7,0h0.4c2.1,0,4.3-0.2,6.3-0.4c0.9-0.1,1.9-0.2,2.8-0.2c0.3-0.1,0.6-0.1,0.9-0.1
						c0.7-0.1,1.4-0.2,2.1-0.3c1.9-0.2,3.9-0.5,5.6-1.4c1.7-0.9,3.3-2.1,4.8-3.2c1.1-0.8,2.2-1.6,3.4-2.4c2.6-1.6,5.2-3.4,7.7-5.2
						C495.9-105.9,495.7-105.9,495.4-105.9z"/>
				</g>
			</g>
			<path class="st0" d="M495.1-72.3c-1,0-2,0-3.2,0c1.6-3,3.9-4.7,7.1-5.3c0.9-0.2,1.8-0.2,2.7-0.2c4,0,7.9,0,11.9,0
				c0.7,0,1.3,0,1.9,0.2c2.7,0.6,4.1,2.8,3.1,5.4c-1.6,4.3-3.3,8.7-5.4,12.7c-0.6,1.2-1.6,2-2.9,2.4c-1.3,0.5-2.7,0.7-4.1,0.8
				c-4.7,0-9.4,0-14.1,0.1c-2.2,0-3.2-1-2.9-3.2c0.3-2.3,1.4-4.3,2-6.5c0.7-2.4,1.5-4.8,4.1-6.1C495.2-72.2,495.1-72.3,495.1-72.3z
				 M502.2-61.7L502.2-61.7c0.8,0,1.6,0,2.4,0c2.4,0.1,4-1.1,4.9-3.3c0.7-1.7,1.1-3.6,1.6-5.4c0.3-1.3-0.2-2-1.6-2
				c-2.1-0.1-4.1-0.1-6.2,0c-1.7,0.1-2.9,1-3.5,2.6c-0.5,1.3-1,2.6-1.5,3.9c-0.3,0.9-0.6,1.7-0.6,2.7c0,1,0.4,1.5,1.5,1.5
				C500.2-61.7,501.2-61.7,502.2-61.7z"/>
			<path class="st0" d="M467.2-72.4c-1.3,0-2.3,0-3.4,0c0.7-1.8,1.3-3.5,1.9-5.2c0.1-0.4,0.4-0.3,0.7-0.3c6.7,0,13.3-0.1,20,0.1
				c3.2,0.1,4.7,2.3,3.7,5.3c-1.2,3.9-3.5,6.7-8,7.6c2.1,1.3,1.5,3,0.9,4.7c-0.4,1.3-0.8,2.5-1.2,3.8c-1.9,0-3.9,0-5.8,0
				c0.4-1.1,0.8-2.2,1-3.4c0.4-1.6-0.1-2.2-1.7-2.2c-2.2,0-4.3,0-6.5,0c-0.6,1.7-1.2,3.4-1.8,5c-0.2,0.4-0.3,0.7-0.9,0.7
				c-2.1,0-4.2,0-6.5,0c0.5-1.5,1-2.8,1.5-4.2c0.9-2.5,1.8-5,2.6-7.6c0.4-1.2,0.9-2.3,2-3C466.2-71.4,466.6-71.8,467.2-72.4z
				 M470.7-67.2c1.9,0,3.6,0,5.4,0c1.1,0,2.1,0.1,3.2-0.2c1.5-0.4,2.7-1.1,3.2-2.7c0.5-1.6-0.1-2.4-1.7-2.4c-2.4-0.1-4.8,0-7.2,0
				c-0.3,0-0.6-0.1-0.8,0.3C472-70.6,471.4-69,470.7-67.2z"/>
			<path class="st0" d="M460.9-70c-2.4,0-4.8,0-7.2,0c0.3-2-0.1-2.5-2.2-2.5c-1.6,0-3.3,0-4.9,0c-2.3,0-3.5,0.8-4.3,2.9
				c-0.7,1.9-1.6,3.6-2,5.6c-0.3,1.6,0.2,2.2,1.9,2.2c1.5,0,3.1,0,4.6,0c2.4,0,3.2-0.7,4-2.9c2,0,3.9,0,6,0
				c-1.3,3.4-2.4,6.7-6.3,7.8c-1,0.3-2.1,0.5-3.2,0.5c-4.2,0-8.5,0-12.7,0c-2.2,0-3.3-1.2-2.8-3.3c0.8-3.4,2.2-6.7,3.3-10
				c0.1-0.3,0.4-0.5,0.6-0.7c0.7-0.6,1.4-1.1,2.1-1.8c-1.1-0.3-2.1-0.1-3.2-0.2c1.6-2.9,3.9-4.6,7-5.2c0.9-0.2,1.8-0.3,2.7-0.3
				c4,0,8,0,12,0c0.8,0,1.5,0.1,2.2,0.3c1.9,0.5,2.9,1.7,3,3.6C461.5-72.7,461.3-71.4,460.9-70z"/>
			<path class="st0" d="M548.5-70c-2.4,0-4.8,0-7.2,0c0.1-2.2-0.2-2.5-2.4-2.5c-1.7,0-3.4,0-5.1,0c-1.9,0-3.3,0.9-3.9,2.7
				c-0.7,1.7-1.5,3.4-1.9,5.2c-0.1,0.5-0.2,1-0.2,1.5c0,0.8,0.4,1.3,1.3,1.3c2.1,0,4.2,0.1,6.3-0.1c1.7-0.1,2.6-1.2,2.8-2.8
				c2,0,4,0,6.1,0c-0.8,1.9-1.4,3.8-2.6,5.4c-1.7,2.1-4,2.8-6.5,2.9c-4.4,0.1-8.8,0.1-13.1,0.1c-2.1,0-2.9-0.9-2.8-3
				c0.1-0.7,0.2-1.3,0.4-2c0.9-2.6,1.8-5.2,2.7-7.9c0.2-0.5,0.5-0.9,0.9-1.3c0.7-0.5,1.3-1.1,2.2-1.9c-1.3,0-2.2,0-3.4,0
				c1.6-2.9,4-4.7,7.1-5.3c1.1-0.2,2.1-0.2,3.2-0.2c3.8,0,7.6,0,11.3,0c0.7,0,1.3,0,1.9,0.2c2.2,0.5,3.3,1.9,3.4,4.1
				C549.1-72.4,548.8-71.3,548.5-70z"/>
			<path class="st0" d="M519.9-112.7c-0.3,0.1-0.6,0.2-0.9,0.2c-0.3,0-0.5-0.1-0.8-0.2c-0.9,0.3-1.9,0.6-3,0.8
				c-0.3,0.3-0.6,0.4-0.8,0.5c0,0-0.1,0-0.1,0.1c-1.9,0.8-3.7,1.8-5.4,3.2c-0.2,0.1-0.3,0.3-0.5,0.4c-0.6,0.5-1.4,1.1-2.3,1.5
				c-0.1,0.1-0.2,0.1-0.3,0.1c-0.2,0-0.4-0.1-0.6-0.2c-0.2-0.2-0.3-0.6-0.3-0.9c0.1-0.2,0.2-0.5,0.3-0.7c-5.3,2.8-10.2,6.2-15,9.5
				c-0.2,0.1-0.4,0.3-0.5,0.4c0.9-0.2,1.8-0.4,2.8-0.5c0,0,0.1,0,0.1,0c0.4,0,0.7,0.3,0.8,0.6c0.1,0.4-0.1,0.8-0.5,1
				c-0.2,0.1-0.4,0.2-0.5,0.3c-0.3,0.1-0.5,0.3-0.8,0.4c-1.5,0.7-2.9,1.2-4.4,1.8c0.6-0.2,1.2-0.3,1.7-0.5c0.1,0,0.2,0,0.2,0
				c0.2,0,0.5,0.1,0.7,0.3c0.2,0.3,0.3,0.6,0.1,0.9c-1.4,3.2-3.8,5.3-6.3,7.2c0.6-0.1,1.2-0.2,1.8-0.4c0.3-0.1,0.6-0.1,0.9-0.2
				c0.3-0.4,0.8-0.5,0.9-0.5c0,0,0.1,0,0.1,0c2.9-0.9,5.2-1.8,7.1-2.9c2.9-1.6,5.1-3.4,6.9-5.6c1.9-2.3,4.1-4.6,7-6.1
				c-0.4,0.1-0.7,0.2-1.1,0.2c-0.1,0-0.1,0-0.1,0c-0.2,0-0.5-0.1-0.7-0.3c-0.2-0.2-0.3-0.5-0.2-0.8c0.6-1.9,2.9-3.6,5.1-3.8
				c0.2,0,0.4,0,0.6,0c2.8,0,5.2,1.1,7.2,2.3c-0.6-1.3-1-2.7-0.8-4.2c0.2-1.7,1.2-3.1,2.9-3.9c0.1-0.1,0.3-0.1,0.4-0.2
				C521-113,520.4-112.9,519.9-112.7z"/>
			<path class="st0" d="M486.9-86.4c0.1-0.4,0.4-0.4,0.7-0.5c2.5-0.8,5-1.7,7.3-2.9c2.7-1.5,5.1-3.3,7.1-5.7c2.2-2.6,4.6-5,7.8-6.4
				c1.4-0.6,2.8-0.8,4.6-0.9c-2.6-1.6-4.9-0.4-7.3,0.1c0.5-1.6,2.5-3.1,4.4-3.2c2.9-0.2,5.4,1,7.9,2.4c0.5,0.3,0.9,0.7,1.5,0.7
				c0.3-0.5-0.1-0.8-0.3-1.1c-0.8-1.5-1.5-3-1.3-4.8c0.2-1.6,1.1-2.6,2.4-3.2c1-0.5,2.2-0.9,3.3-1.1c-0.1-0.4-0.3-0.5-0.5-0.5
				c-1.6-0.1-3.3-0.4-4.9,0.2c-0.4,0.2-0.9,0.2-1.3-0.2c6.3-2.3,12.7-2.1,19.2-0.4c-2.3,0-4.5,0-6.7,0.7c-3.3,1-5.9,2.8-6.7,6.4
				c-0.5,2.4,0.2,4.6,2,6.3c0.5,0.5,0.9,1,1.1,1.4c-2.9-0.5-6.1-0.7-9.4-0.5c-3.8,0.3-7.4,1.3-10.9,2.7c-1.7,0.7-3.3,1.7-4.6,3.1
				c-2.6,2.6-2.8,3.8-1.5,7.2c-0.8,0-1.6-0.1-2.4-0.1c-3.2-0.1-6.5,0-9.7,0.3C488-86.4,487.4-86.4,486.9-86.4z"/>
			<path class="st0" d="M479.1-92.8c0.1,0.5,0.3,0.7,0.8,0.6c0.4,0.3,0.8,0.3,1.2,0.2c1.7-0.1,3.3-0.2,5-0.7c0.4-0.1,0.8-0.2,1.4,0
				c-3.3,4.4-7.6,6.8-12.9,7.7c-5.3,0.8-10.2-0.1-14.9-2.2c-0.2-0.4,0.1-0.6,0.3-0.8c0.1-0.1,0.2-0.1,0.4-0.2c0.9,0.4,1.8,0.2,2.7,0
				c0.2,0,0.5-0.1,0.7-0.1c1.1-0.3,2.2-0.5,3.4-0.8c2.3-0.5,4.5-1.5,6.7-2.2c1.1-0.3,2-1,3.2-1.1C477.7-92.4,478.5-92.3,479.1-92.8z
				"/>
			<path class="st0" d="M477-92.4c-1.2,0-2.1,0.7-3.2,1.1c-2.3,0.7-4.4,1.6-6.7,2.2c-2.4,0.7-3.5,0.7-3.4,0.8
				c-0.2,0-0.5,0.1-0.7,0.1c-1.4,0.4-1.8,0.3-2.7,0c-0.1,0.1-0.2,0.1-0.4,0.2c-2.7-0.2-5.3,0.5-8.1,0.5c-2.4,0-4.9,0.2-7.3,0.3
				c-1.1,0-2.1-0.4-3.2-0.4c2.6-1.1,5.2-2.3,6.1-5.3c2,0.8,4.1,0.6,6.2,0.8c2.9,0.3,5.8,0.3,8.7,0.2c3.1-0.1,6.2-0.4,9.2-0.7
				c1.5,0.1,3,0.1,4.5-0.1c0.3,0.1,0.5,0.1,0.8,0.2C476.9-92.5,477-92.5,477-92.4z"/>
			<path class="st0" d="M530.3-112.4c3.2-0.9,6.2-1,9,0.1c1.9,0.7,3.4,2,5,3.1c1.3,0.9,2.6,1.6,4,2.1c0.3,0.1,0.7,0.2,0.5,0.7
				c-0.1,0.4-0.4,0.3-0.7,0.4c-2.9,0.5-5.6,0-8.2-1.3c-1.2-0.6-2.1-1.5-3.3-2.2C534.9-110.8,532.7-111.6,530.3-112.4z"/>
			<path class="st0" d="M468.8-101.7c3.4-1.1,6-3.5,8.9-5.4c2.6-1.7,5.4-1.6,8.3-0.5c-1.1,0.9-2.3,0.9-3.4,1.5
				c-1.9,1.1-3.7,2.4-5.5,3.6c-1.1,0.7-2.4,1.3-3.7,1.5c-1.4,0.2-2.8,0.2-4.2-0.2C469-101.2,468.9-101.3,468.8-101.7z"/>
			<path class="st0" d="M514.7-93.6c-2.2-1.4-4.6-2.2-7.2-2.2c1.5-2.5,9.8-3.4,14.4-1.5c-1.3,0-2.4-0.1-3.4,0
				C515.8-97,515.2-96.6,514.7-93.6z"/>
			<path class="st0" d="M500.9-89.8c-0.5-1,0.2-1.4,0.5-1.9c1.7-2.7,4.3-3.9,7.5-3c0.8,0.2,1.7,0.4,2.6,0.6c0.4,0.1,0.7,0.2,1.1,0.8
				C508.2-93.6,504.3-92.6,500.9-89.8z"/>
			<path class="st0" d="M551.6-108.9c-3,0.5-5.6-0.1-7.9-2.1c-0.9-0.8-2.1-1.3-3.1-2.1c2.6-0.2,5.1-0.2,7.1,1.8
				C548.8-110.1,550.1-109.4,551.6-108.9z"/>
			<path class="st0" d="M525.2-106.6c0.3-2.3,1.2-4.1,3.5-4.8c2.1-0.7,3.8,0.3,5.3,1.7C530.4-110.3,527.5-109.5,525.2-106.6z"/>
			<path class="st0" d="M476.9-92.6c-0.3-0.1-0.5-0.1-0.8-0.2C476.4-92.9,476.7-93,476.9-92.6z"/>
		</g>
	</g>
</g>
<g id="Capa_4">
	<g>
		<path class="st0" d="M88,106.5c-0.3,0-0.6-0.1-0.9-0.1c-8.5-0.3-16.4-2.9-23.3-7.8C54.5,92.2,48.6,83.5,46,72.5
			c-0.8-3.2-1.1-6.4-1.1-9.7c0.1-11.2,3.8-21,11.2-29.4c5.3-5.9,11.8-10.1,19.3-12.5c2.7-0.9,5.4-1.4,8.2-1.7
			c2.6-0.3,5.2-0.4,7.8-0.2c5.8,0.4,11.4,1.8,16.6,4.4c11.1,5.6,18.7,14.4,22.5,26.2c0.9,2.6,1.4,5.3,1.7,8c0.1,1.3,0.2,2.6,0.3,3.8
			c0,0.2,0.1,0.3,0.1,0.5c0,0.5,0,1,0,1.5c-0.1,0.8-0.1,1.6-0.2,2.5c-0.2,2.6-0.6,5.2-1.2,7.7c-2.5,9.4-7.5,17.2-15.1,23.2
			c-7.5,6-16.1,9.2-25.7,9.6c-0.3,0-0.6,0.1-0.9,0.1C88.9,106.5,88.4,106.5,88,106.5z M88.7,21.6c-22.6,0-41,18.3-41.1,41
			c0,22.7,18.3,41.1,41,41.1c22.7,0,41.1-18.3,41.1-41C129.7,40,111.4,21.6,88.7,21.6z"/>
		<path class="st0" d="M62.8,62.7c0-13.8,10.9-25.3,24.8-25.9c15-0.6,26.5,11.1,27,24.8c0.6,14.9-11,26.5-24.8,27
			C74.6,89.2,62.7,77,62.8,62.7z M88.7,62.7c0.1,0,0.1,0,0.2,0c8,0,16,0,24,0c0.3,0,0.4-0.1,0.4-0.4c0-2.1-0.3-4.2-0.9-6.3
			c-2.7-9.7-11.4-17.3-22.4-17.9c-0.4,0-0.8,0-1.3,0c0,0.2,0,0.4,0,0.6c0,7.8,0,15.7,0,23.5C88.6,62.3,88.7,62.5,88.7,62.7
			c-0.1,0-0.1,0-0.2,0c-8,0-16,0-24,0c-0.1,0-0.2,0-0.4,0c0.2,7.3,2.8,13.4,8.2,18.3c4.6,4.2,10.2,6.2,16.5,6.3c0-0.3,0-0.5,0-0.6
			c0-7.8,0-15.7,0-23.5C88.7,63,88.7,62.8,88.7,62.7z"/>
		<path class="st0" d="M64.4,47.3c-2.5-2.3-5-4.7-7.5-7c0.7-0.8,1.3-1.6,2-2.4c1.2-1.3,2.3-2.5,3.6-3.8c0.7-0.7,1.5-1.2,2.6-1.2
			c1.6,0,2.8,1.4,2.5,3c0,0.1,0,0.1,0,0.2c0.4-0.1,0.7-0.1,1.1-0.2c1.5-0.1,2.8,1,2.8,2.5c0,0.5-0.2,1-0.4,1.5
			c-0.2,0.4-0.5,0.9-0.8,1.2c-1.9,2-3.7,4-5.6,6C64.5,47.2,64.5,47.2,64.4,47.3z M64.6,44.1c1.5-1.6,2.9-3.1,4.2-4.6
			c0.1-0.2,0.2-0.4,0.3-0.6c0.1-0.4,0.1-0.7-0.2-1c-0.3-0.3-0.6-0.4-1-0.2c-0.3,0.2-0.7,0.4-0.9,0.6c-1.3,1.3-2.6,2.6-3.8,4
			c-0.1,0.1-0.1,0.2-0.2,0.3C63.5,43.1,64,43.6,64.6,44.1z M61.6,41.3c1.4-1.5,2.7-2.9,4-4.3c0.1-0.2,0.2-0.4,0.3-0.6
			c0.1-0.4,0-0.8-0.3-1.1c-0.3-0.3-0.7-0.3-1.1-0.1c-0.2,0.1-0.5,0.3-0.6,0.5c-0.9,1-1.9,2-2.8,2.9c-0.4,0.4-0.7,0.8-1,1.2
			C60.5,40.3,61,40.7,61.6,41.3z"/>
		<path class="st0" d="M88.4,30.5c0.8-1.9,1.6-3.9,2.3-5.8c0.1-0.3,0.3-0.4,0.6-0.4c0.9,0.1,1.8,0.1,2.8,0.2c0.3,0,0.4,0.1,0.4,0.4
			c0.1,2.3,0.2,4.5,0.2,6.8c0,1.1,0.1,2.2,0.1,3.4c-0.8-0.1-1.6-0.2-2.3-0.3c-0.1,0-0.1-0.2-0.2-0.3c-0.1-1.5-0.1-3-0.2-4.5
			c0-0.9-0.1-1.8-0.2-2.7c-0.1,0.2-0.2,0.3-0.2,0.5c-0.7,1.6-1.4,3.1-2.1,4.7c-0.1,0.3-0.3,0.4-0.6,0.4c-0.4,0-0.9,0-1.3,0
			c-0.3,0-0.5-0.1-0.6-0.4c-0.7-1.7-1.5-3.4-2.3-5.1c0-0.1-0.1-0.1-0.2-0.2c0,0.2,0,0.4,0,0.6c-0.1,2.1-0.1,4.3-0.2,6.4
			c0,0.3-0.1,0.5-0.5,0.6c-0.7,0.1-1.3,0.2-2,0.3c0-0.4,0-0.9,0-1.3c0.1-2.3,0.2-4.5,0.3-6.8c0-0.7,0.1-1.4,0.1-2.1
			c0-0.3,0.1-0.4,0.4-0.4c0.9-0.1,1.9-0.1,2.8-0.2c0.3,0,0.4,0.1,0.5,0.4c0.7,1.9,1.5,3.8,2.3,5.7C88.4,30.4,88.4,30.4,88.4,30.5z"
			/>
		<path class="st0" d="M112.8,42.8c2-1.3,4-2.6,6-3.9c0.5,0.7,1.1,1.3,1.6,2c-3,1.9-5.9,3.7-8.8,5.5c-0.6-0.7-1.2-1.4-1.8-2.1
			c-0.1-0.1,0-0.3,0-0.4c0.9-1.7,1.8-3.4,2.7-5.1c0,0,0-0.1,0-0.1c-0.2,0.1-0.3,0.2-0.5,0.3c-1.6,0.8-3.1,1.6-4.7,2.4
			c-0.2,0.1-0.4,0.1-0.6-0.1c-0.5-0.5-1.1-0.9-1.7-1.4c-0.1-0.1-0.2-0.2-0.1-0.4c1.8-2.8,3.6-5.6,5.4-8.4c0,0,0.1-0.1,0.1-0.1
			c0.6,0.5,1.2,1,1.8,1.5c0.1,0.1,0.1,0.3,0,0.4c-1.2,1.8-2.4,3.6-3.7,5.5c0,0,0,0.1-0.1,0.2c0.6-0.3,1.2-0.6,1.8-0.9
			c1.1-0.5,2.1-1.1,3.2-1.6c0.2-0.1,0.4-0.1,0.5,0.1c0.4,0.4,0.8,0.8,1.2,1.2c0.2,0.2,0.2,0.4,0.1,0.6
			C114.5,39.5,113.7,41.1,112.8,42.8z"/>
	</g>
</g>
</svg>
