<?xml version="1.0" encoding="UTF-8"?>
<svg id="Capa_4" data-name="Capa 4" xmlns="http://www.w3.org/2000/svg" viewBox="0 0 177.4 125.4">
  <defs>
    <style>
      .cls-1 {
        fill: #fff;
        stroke-width: 0px;
      }
    </style>
  </defs>
  <path class="cls-1" d="M88.04,103.78c-.28-.03-.55-.08-.83-.09-8.01-.28-15.33-2.68-21.89-7.27-8.64-6.05-14.18-14.25-16.65-24.5-.72-2.98-1.07-6.03-1.05-9.09.07-10.49,3.52-19.71,10.51-27.56,4.96-5.57,11.03-9.46,18.13-11.73,2.49-.8,5.05-1.33,7.65-1.63,2.42-.28,4.85-.36,7.28-.21,5.45.34,10.65,1.65,15.53,4.11,10.44,5.26,17.49,13.47,21.13,24.59.8,2.44,1.33,4.94,1.58,7.5.12,1.2.18,2.4.27,3.59.01.16.05.31.08.47v1.45c-.06.77-.13,1.54-.17,2.31-.15,2.44-.54,4.85-1.17,7.22-2.33,8.8-7.01,16.1-14.12,21.79-7.04,5.64-15.1,8.63-24.13,8.97-.29.01-.58.06-.87.09h-1.28ZM88.7,24.2c-21.22,0-38.48,17.21-38.5,38.4-.02,21.27,17.19,38.54,38.42,38.56,21.27.02,38.53-17.2,38.54-38.44.01-21.26-17.21-38.51-38.46-38.52Z"/>
  <path class="cls-1" d="M64.37,62.67c-.04-12.97,10.21-23.77,23.25-24.28,14.07-.55,24.83,10.42,25.34,23.23.56,13.97-10.33,24.86-23.26,25.35-14.28.54-25.39-10.9-25.34-24.3ZM88.69,62.69c.05,0,.11.01.16.01,7.5,0,15.01,0,22.51,0,.3,0,.39-.08.39-.38-.04-2.01-.33-3.98-.87-5.92-2.57-9.11-10.73-16.21-21.05-16.78-.38-.02-.76,0-1.18,0v.53c0,7.36,0,14.71,0,22.07,0,.15,0,.29.01.44-.05,0-.11-.01-.16-.01-7.5,0-15.01,0-22.51,0-.12,0-.23.02-.41.03.16,6.82,2.65,12.56,7.69,17.13,4.35,3.94,9.52,5.86,15.44,5.95v-.6c0-7.34,0-14.69,0-22.03,0-.15,0-.29-.01-.44Z"/>
  <path class="cls-1" d="M65.92,48.24c-2.33-2.19-4.65-4.38-7.01-6.61.63-.76,1.21-1.52,1.86-2.23,1.09-1.19,2.2-2.38,3.34-3.52.65-.65,1.41-1.13,2.4-1.12,1.54.01,2.62,1.28,2.37,2.81-.01.06-.02.13-.04.23.35-.06.67-.13.99-.15,1.43-.09,2.61.92,2.66,2.34.02.46-.16.95-.36,1.37-.19.42-.47.81-.79,1.15-1.74,1.88-3.51,3.75-5.27,5.62-.03.04-.08.06-.15.12ZM66.08,45.27c1.36-1.47,2.68-2.89,3.98-4.32.13-.14.22-.34.28-.52.12-.34.06-.67-.2-.92-.26-.25-.58-.39-.91-.21-.31.16-.63.36-.88.61-1.21,1.23-2.39,2.48-3.58,3.73-.06.06-.11.15-.18.24.49.46.96.91,1.48,1.4ZM63.25,42.6c1.29-1.39,2.53-2.71,3.75-4.05.14-.15.23-.36.3-.56.14-.39.02-.74-.28-1.01-.31-.28-.67-.33-1.03-.1-.21.13-.43.28-.6.46-.88.91-1.76,1.83-2.62,2.76-.33.36-.64.74-.97,1.13.5.47.95.9,1.46,1.38Z"/>
  <path class="cls-1" d="M88.46,32.49c.73-1.82,1.47-3.62,2.18-5.42.11-.27.25-.37.54-.35.86.07,1.73.12,2.6.18.24.02.34.13.35.38.07,2.11.15,4.22.23,6.33.04,1.05.08,2.11.13,3.22-.74-.1-1.46-.18-2.18-.3-.06,0-.14-.18-.14-.28-.06-1.4-.11-2.8-.16-4.21-.03-.84-.06-1.67-.16-2.53-.07.16-.14.33-.21.49-.66,1.47-1.33,2.94-1.98,4.42-.12.27-.26.39-.57.37-.41-.02-.83-.02-1.24,0-.28.01-.43-.08-.55-.34-.7-1.6-1.42-3.2-2.13-4.79-.02-.06-.07-.1-.18-.14,0,.18,0,.36,0,.53-.06,2-.12,4.01-.17,6.01,0,.31-.08.49-.44.52-.62.05-1.24.15-1.91.24,0-.42-.01-.8,0-1.18.08-2.12.16-4.25.24-6.37.03-.67.07-1.34.07-2,0-.27.13-.36.36-.37.88-.06,1.76-.11,2.64-.18.27-.02.41.08.5.33.7,1.78,1.4,3.55,2.11,5.32.02.05.06.08.09.12Z"/>
  <path class="cls-1" d="M111.32,44.03c1.9-1.25,3.72-2.45,5.59-3.68.5.62.99,1.22,1.51,1.86-2.77,1.74-5.49,3.46-8.22,5.18-.57-.66-1.12-1.29-1.65-1.94-.07-.08-.04-.3.02-.42.83-1.6,1.67-3.19,2.51-4.79.01-.02,0-.05,0-.12-.16.09-.31.16-.46.24-1.47.76-2.94,1.52-4.41,2.29-.23.12-.39.13-.6-.06-.51-.46-1.04-.88-1.56-1.32-.14-.11-.22-.2-.1-.39,1.68-2.61,3.35-5.22,5.02-7.83.02-.03.06-.05.12-.1.56.45,1.12.89,1.67,1.36.06.05.05.27,0,.36-1.14,1.71-2.29,3.42-3.44,5.13-.02.03-.03.07-.06.17.59-.29,1.13-.56,1.67-.83,1-.5,2.01-.99,3.01-1.51.22-.11.35-.09.51.08.37.39.75.77,1.14,1.13.19.18.19.33.08.56-.78,1.52-1.54,3.04-2.35,4.64Z"/>
</svg>