<?xml version="1.0" encoding="utf-8"?>
<!-- Generator: Adobe Illustrator 28.3.0, SVG Export Plug-In . SVG Version: 6.00 Build 0)  -->
<svg version="1.1" xmlns="http://www.w3.org/2000/svg" xmlns:xlink="http://www.w3.org/1999/xlink" x="0px" y="0px"
	 viewBox="0 0 177.4 125.4" style="enable-background:new 0 0 177.4 125.4;" xml:space="preserve">
<style type="text/css">
	.st0{fill:#FFFFFF;}
	.st1{fill:#FEF574;}
	.st2{fill:#024EFF;}
	.st3{fill:#9D9D9D;}
	.st4{clip-path:url(#SVGID_00000172410693592933204990000008613748431969966988_);}
	.st5{fill-rule:evenodd;clip-rule:evenodd;fill:#FFFFFF;}
</style>
<g id="Capa_1">
</g>
<g id="Capa_2">
</g>
<g id="Capa_3">
</g>
<g id="Capa_4">
</g>
<g id="Capa_5">
	<g>
		<g id="surface1_00000098188331119618026030000009506276882999249074_">
			<g>
				<g>
					<defs>
						<rect id="SVGID_1_" x="11.8" y="60" width="153.8" height="41"/>
					</defs>
					<clipPath id="SVGID_00000034779651568618413300000005332818634187301820_">
						<use xlink:href="#SVGID_1_"  style="overflow:visible;"/>
					</clipPath>
					<g style="clip-path:url(#SVGID_00000034779651568618413300000005332818634187301820_);">
						<path class="st5" d="M25.7,61.9c0.2-0.2,0.4-0.5,0.6-0.8c0.3-0.4,0.4-0.5,0.6-0.5s0.3,0,0.4,0.1c0.1,0.1,0.1,0.4,0.1,0.8
							l0.3,4.2l0,0.5c0,0.4-0.1,0.5-0.4,0.5c-0.2,0-0.3-0.1-0.5-0.4c-0.4-1-1-2-1.9-3.2c-0.9-1.2-2.1-1.8-3.6-1.8
							c-1.1,0-1.9,0.3-2.7,0.9c-0.7,0.6-1.3,1.5-1.7,2.6c-0.4,1.1-0.6,2.4-0.6,3.9c0,2.6,0.6,4.7,1.7,6.2c1.1,1.5,2.5,2.3,4.2,2.3
							c1.8,0,3.5-1.1,5-3.3c0.2-0.3,0.4-0.4,0.5-0.4c0.3,0,0.4,0.1,0.4,0.4c0,0.6-0.7,1.5-2.1,2.8c-1.4,1.3-3.1,1.9-5.2,1.9
							c-2.8,0-5-0.9-6.6-2.6c-1.6-1.8-2.4-3.9-2.4-6.5s0.8-4.7,2.4-6.6c1.6-1.9,3.7-2.8,6.1-2.8C22.2,60.4,23.9,60.9,25.7,61.9z
							 M37.5,60.2h0.9c1.2,2.6,2.8,6.6,5,12.2c1,2.6,1.7,4.1,2,4.6c0.4,0.5,1,0.9,1.8,1c0.3,0,0.4,0.1,0.4,0.4
							c0,0.3-0.2,0.4-0.5,0.4c-0.2,0-0.7,0-1.4-0.1c-0.9-0.1-1.7-0.1-2.3-0.1c-0.6,0-1.4,0-2.4,0.1c-0.7,0-1.2,0.1-1.4,0.1
							c-0.4,0-0.6-0.1-0.6-0.4c0-0.2,0.1-0.3,0.4-0.3c1.1-0.1,1.7-0.5,1.7-1.3c0-0.4-0.1-1-0.5-2s-0.6-1.8-1-2.6c-0.6,0-1,0-1.3,0
							c-1.8,0-3.2,0-4.2,0c-0.8,2.1-1.2,3.6-1.2,4.2c0,0.5,0.2,0.9,0.6,1.2c0.4,0.3,0.8,0.4,1.2,0.5c0.3,0,0.5,0.2,0.5,0.4
							s-0.2,0.4-0.5,0.4c-0.1,0-0.5,0-1.1-0.1c-0.8-0.1-1.3-0.1-1.7-0.1c-0.7,0-1.4,0-2,0.1c-0.1,0-0.3,0-0.4,0
							c-0.3,0-0.5-0.1-0.5-0.4c0-0.2,0.1-0.3,0.3-0.4c0.5-0.1,0.9-0.4,1.3-0.6c0.3-0.2,0.6-0.6,1-1.3c0.4-0.6,0.8-1.7,1.3-3.1
							C33.7,69.9,35.4,65.6,37.5,60.2z M36.6,64.9l-2.3,6l4.7-0.1c-0.3-0.7-0.6-1.7-1.2-2.9C37.3,66.7,36.9,65.6,36.6,64.9z
							 M58.3,68.9c1.8,0.4,3.2,1,4.1,1.8c0.9,0.8,1.4,1.8,1.4,3.1c0,1-0.3,2-1,2.8c-0.7,0.8-1.5,1.4-2.4,1.7c-1,0.3-2.4,0.4-4.2,0.4
							c-0.5,0-1.2,0-2.1-0.1c-0.8,0-1.4-0.1-1.9-0.1c-0.6,0-1.4,0-2.4,0.1c-0.4,0-0.7,0.1-0.9,0.1c-0.4,0-0.5-0.1-0.5-0.4
							c0-0.2,0.1-0.3,0.4-0.4c0.6-0.1,1-0.2,1.2-0.3c0.3-0.1,0.5-0.3,0.6-0.6s0.2-0.8,0.2-1.4l0.1-6.3c0-2,0-3.5-0.1-4.7
							s-0.1-1.9-0.2-2.3c-0.1-0.4-0.3-0.6-0.5-0.7c-0.2-0.1-0.5-0.2-0.9-0.3c-0.4,0-0.6-0.1-0.7-0.1c-0.1-0.1-0.1-0.2-0.1-0.3
							c0-0.2,0.1-0.3,0.3-0.4c0.2,0,0.8-0.1,1.8-0.1c1.8,0,3.4-0.1,5-0.2c0.9-0.1,1.7-0.1,2.2-0.1c1.6,0,2.9,0.4,3.9,1.1
							s1.5,1.7,1.5,2.9C62.9,66.4,61.4,68,58.3,68.9z M54.6,68.7c3.1,0,4.6-1.3,4.6-4c0-1.2-0.3-2-0.8-2.7c-0.5-0.6-1.2-0.9-1.9-0.9
							c-0.5,0-1.2,0.1-1.9,0.4c-0.1,0.9-0.1,1.9-0.1,2.9C54.5,65.2,54.5,66.7,54.6,68.7z M54.6,69.7c-0.1,1.9-0.1,3.5-0.1,4.7
							c0,1.7,0.1,2.6,0.2,2.9c0.1,0.3,0.5,0.4,1.3,0.4c1.3,0,2.2-0.4,2.9-1s0.9-1.7,0.9-2.9c0-1.2-0.3-2.2-1-3
							c-0.6-0.8-1.7-1.2-3-1.2C55.5,69.7,55.1,69.7,54.6,69.7z M75.7,60.4c1.8,0,3.3,0.4,4.7,1.1c1.3,0.7,2.4,1.8,3.2,3.2
							c0.8,1.4,1.2,2.9,1.2,4.5c0,2.5-0.9,4.8-2.8,6.7s-4.1,2.9-6.9,2.9c-2.5,0-4.6-0.8-6.4-2.4c-1.8-1.6-2.7-3.8-2.7-6.5
							c0-2.6,0.9-4.8,2.7-6.7C70.7,61.4,73,60.4,75.7,60.4z M80.3,69.6c0-2.7-0.5-4.8-1.4-6.2c-0.9-1.4-2.1-2.1-3.5-2.1
							c-1.4,0-2.6,0.7-3.5,2.1c-0.9,1.4-1.4,3.5-1.4,6.1c0,2.6,0.4,4.6,1.3,6.1c0.9,1.4,2,2.2,3.5,2.2c1.3,0,2.4-0.6,3.4-1.9
							C79.8,74.6,80.3,72.5,80.3,69.6z M127.5,60.8c0.3,1.4,0.6,2.8,0.8,4.2c0,0.3-0.1,0.4-0.4,0.4c-0.1,0-0.3-0.1-0.5-0.4
							c-0.9-1.4-1.8-2.2-2.5-2.7c-0.8-0.5-1.8-0.6-3.3-0.6c-0.8,0-1.6,0.1-2.3,0.2c-0.1,1.6-0.3,3.3-0.3,5.2c0,0.3,0,0.9,0,1.7h1
							c0.6,0,1.2-0.1,1.6-0.3c0.5-0.2,0.8-0.5,1.2-1.1c0.3-0.6,0.5-0.9,0.5-1.1c0.1-0.3,0.2-0.4,0.4-0.4c0.3,0,0.4,0.1,0.4,0.3
							c0,0.1,0,0.1,0,0.2c-0.1,0.6-0.1,2.2-0.1,5c0,0.4,0,0.8,0.1,1c0,0.1,0,0.2,0,0.2c0,0.3-0.1,0.4-0.4,0.4
							c-0.2,0-0.4-0.3-0.5-0.7c-0.2-0.8-0.6-1.5-1.2-1.9c-0.6-0.4-1.6-0.6-3-0.7c0,1.5-0.1,2.5-0.1,3c0,2,0,3.3,0.1,3.7
							c0.1,0.4,0.3,0.7,0.7,0.9c0.4,0.3,1,0.4,2,0.4c3.4,0,5.6-1.1,6.6-3.3c0.1-0.3,0.3-0.5,0.5-0.5c0.3,0,0.4,0.1,0.4,0.3
							c0,0.1,0,0.3-0.1,0.5l-0.9,3.9h-4.8c-1.4,0-2.6,0-3.8-0.1c-1.2,0-2.1-0.1-2.8-0.1c-0.8,0-1.9,0-3.3,0.1c-0.2,0-0.3,0-0.4,0
							c-0.4,0-0.6-0.1-0.6-0.4c0-0.3,0.2-0.4,0.5-0.4c0.9,0,1.4-0.3,1.7-0.7s0.4-1.4,0.4-2.9l0.1-7c0-2.4,0-3.8-0.1-4.4
							c-0.1-0.5-0.2-0.9-0.5-1.1c-0.3-0.2-0.7-0.4-1.4-0.4c-0.3,0-0.4-0.1-0.4-0.4c0-0.3,0.2-0.4,0.5-0.4l3.2,0.1L127.5,60.8z
							 M138.8,60.2h0.9c1.2,2.6,2.8,6.6,5,12.2c1,2.6,1.7,4.1,2,4.6c0.4,0.5,1,0.9,1.8,1c0.3,0,0.4,0.1,0.4,0.4
							c0,0.3-0.2,0.4-0.5,0.4c-0.2,0-0.7,0-1.4-0.1c-0.9-0.1-1.7-0.1-2.3-0.1c-0.6,0-1.4,0-2.4,0.1c-0.7,0-1.2,0.1-1.4,0.1
							c-0.4,0-0.6-0.1-0.6-0.4c0-0.2,0.1-0.3,0.4-0.3c1.1-0.1,1.7-0.5,1.7-1.3c0-0.4-0.1-1-0.5-2s-0.6-1.8-1-2.6c-0.6,0-1,0-1.3,0
							c-1.8,0-3.2,0-4.2,0c-0.8,2.1-1.2,3.6-1.2,4.2c0,0.5,0.2,0.9,0.6,1.2c0.4,0.3,0.8,0.4,1.2,0.5c0.3,0,0.5,0.2,0.5,0.4
							s-0.2,0.4-0.5,0.4c-0.1,0-0.5,0-1.1-0.1c-0.8-0.1-1.3-0.1-1.7-0.1c-0.7,0-1.4,0-2,0.1c-0.1,0-0.3,0-0.4,0
							c-0.3,0-0.5-0.1-0.5-0.4c0-0.2,0.1-0.3,0.3-0.4c0.5-0.1,0.9-0.4,1.3-0.6c0.3-0.2,0.6-0.6,1-1.3c0.4-0.6,0.8-1.7,1.3-3.1
							C135,69.9,136.6,65.6,138.8,60.2z M137.8,64.9l-2.3,6l4.7-0.1c-0.3-0.7-0.6-1.7-1.2-2.9C138.5,66.7,138.1,65.6,137.8,64.9z
							 M164.7,78.7c-2.2-0.1-5.6-0.2-10.3-0.2c-1.6,0-2.9,0-4,0.1c-0.3,0-0.4,0-0.5,0c-0.3,0-0.5-0.1-0.5-0.4c0-0.1,0-0.2,0.1-0.3
							c0.1,0,0.3-0.1,0.6-0.1c0.5-0.1,1-0.3,1.3-0.5c0.3-0.3,0.5-0.6,0.6-1.1c0.1-0.5,0.2-1.8,0.2-3.8s0-4.4,0-7.2
							c0-1.1-0.1-1.9-0.3-2.4c-0.1-0.5-0.4-0.9-0.7-1.1c-0.3-0.2-0.7-0.4-1.3-0.4c-0.4,0-0.6-0.1-0.6-0.4c0-0.3,0.2-0.4,0.6-0.4
							l4.4,0.1c0.7,0,1.6,0,2.8-0.1c0.4,0,0.8,0,0.9,0c0.4,0,0.6,0.1,0.6,0.4c0,0.1-0.1,0.3-0.2,0.3c-0.1,0.1-0.4,0.1-0.9,0.2
							c-0.6,0.1-1,0.2-1.3,0.5c-0.3,0.2-0.4,0.6-0.5,1.2c-0.1,0.6-0.1,1.8-0.1,3.8v8.2c0,1.3,0.1,2,0.3,2.3c0.2,0.3,0.6,0.4,1.2,0.4
							c1.4,0,2.5-0.1,3.2-0.3c0.7-0.2,1.4-0.6,2-1.3c0.6-0.6,1.3-1.6,2-3.1c0.1-0.3,0.3-0.4,0.5-0.4c0.3,0,0.4,0.1,0.4,0.4
							C165.6,73.6,165.3,75.5,164.7,78.7z M106.7,75.5c1,2.9,2.8,6.6,4.5,9.4c-3.2,0.9-6.5,1.8-9.9,2.5c-1.8-3.2-5.3-4.8-9-4.9
							c-2.3-0.1-4.6,0.5-6.6,1.7c-1.2,0.6-3.7,2.3-4,3.7c-0.1,0.4,0,0.7,0.2,0.9c0.5,0,0.9,0,1.4-0.1c0-1.7,0.6-2.7,2.3-3.7
							c1.4-0.8,3.6-1.7,6.1-1.7c3.4-0.1,7.1,1.5,8.8,4.6c-6.8,2-13.2,4.1-19.8,6.4c-7-4.6-16-8.8-24.5-8.8c-3.7,0-7.5,0.4-10.6,2.6
							c-1.7,1.2-2.9,2.8-2.9,5.4c-0.1,6.8,10.2,7.4,14.7,7.7c7.8-0.1,15.2-1.4,22.2-4.7c1.6,1,3.4,1.9,5.1,2.6
							c3.1,1.2,6.1,2,9.4,1.7c2.2-0.2,4.6-1.2,6.3-2.9c1.2-1.3,1.7-2.6,1.9-4c0.3-1.6,0-3.1-0.2-4.6c2.5-0.6,7.2-2.1,10.1-2.7
							c1.8,2.6,4.5,5.2,7.3,6.9c2.4,1.5,5,2.3,8.7,2.6c4.2,0.4,12.1-1,12.3-5.7c0.1-5.1-5.9-6-9.8-6.6c-5.5-0.4-11-0.3-16.9,0.9
							c-1.7-3.6-2.8-7.2-3.5-10.4c-0.4-1.7-1.5-2.8-2.3-3.4c-0.8-0.6-1.8-0.9-2.9-1.1c1.1-0.1,2-0.3,2.8-0.6c0.8-0.4,1.5-0.9,2-1.6
							c0.5-0.7,0.8-1.5,0.8-2.4c0-1.3-0.6-2.4-1.7-3.2c-1.2-0.8-2.7-1.2-4.7-1.2c-0.6,0-1.3,0-2.1,0.1c-1.7,0.1-3.8,0.1-6.4,0.1
							c-0.5,0-0.8,0.1-0.8,0.4c0,0.3,0.2,0.4,0.6,0.4c0.9,0,1.5,0.3,1.8,0.9c0.2,0.5,0.3,2.1,0.3,4.6v4.9v2.5c0,1.9-0.2,2.9-0.6,3.2
							s-0.9,0.4-1.4,0.4c-0.3,0-0.5,0.1-0.5,0.4s0.2,0.4,0.5,0.4c0.2,0,0.7,0,1.5-0.1c0.9,0,1.5-0.1,2.1-0.1l4.1,0.1
							c0.4,0,0.5-0.1,0.5-0.4s-0.2-0.4-0.6-0.4c-0.8,0-1.3-0.2-1.5-0.5c-0.3-0.3-0.4-0.9-0.4-1.6c0-0.7,0-2.7,0-5.9
							c0.4,0,0.6,0,0.8,0c0.7,0,1.3,0.1,1.8,0.5C105.2,71,106.1,74,106.7,75.5z M101.4,68.9c0.2,0,0.4,0,0.5,0
							c0.8,0,1.5-0.1,2.3-0.4c0.8-0.3,1.3-0.8,1.7-1.4s0.5-1.3,0.5-2c0-1.1-0.3-2-1-2.6c-0.6-0.6-1.5-0.9-2.6-0.9
							c-0.4,0-0.9,0.1-1.5,0.3L101.4,68.9L101.4,68.9z M131.2,94.6c-3.8,0-8.8-0.9-12.6-4c-0.9-0.8-4.2-4-4-4.9
							c4.4-1,10.2-1.7,14.6-1.6c4.5,0.1,11.2,0.9,10.8,5.9C139.6,93.8,134.7,94.6,131.2,94.6z M85.6,97.2c-1.1-0.6-2.7-1.4-3.1-1.8
							c6.4-2.3,12.6-4.2,19-6.1c0.3,1,0.5,3.4-0.1,5.4c-0.9,2.8-3.9,4.6-6.8,4.9C91.7,99.8,88.1,98.5,85.6,97.2z M43.3,93.7
							c-0.2-5.3,4.9-6.4,9.5-6.4c7.9-0.1,18.9,3.5,25.1,7.9c-2,0.9-4.2,1.7-6.5,2.2c-5,1.3-9.5,1.9-14.8,2.4
							C52.6,99.9,43.5,99.9,43.3,93.7z"/>
					</g>
				</g>
			</g>
			<path class="st5" d="M103.8,43.4c0-1.3,0.1-1.9,1.6-1.7c1.5,0.7,2.5,1.2,3.6,0.9c1.4-0.3,2.6-1.4,2.7-3.2
				c0.1-1.8-1.2-3.6-3.1-3.7c-0.7,0-1.4,0.2-2.1,0.9c-0.4,0.2-1.3,0.4-1.7,0c0.3-1.8-0.1-4.1-2-5.4c-0.9-0.6-2-0.9-2.9-0.8
				c-0.3,0.1-0.5,0.3-0.2,0.6c1.2,0.8,1.3,2.2,1.3,3.2c0,1.3-0.6,2.4-1.4,3.1c-0.9,0.8-2.2,1.1-3.5,1.1c-0.8,0-1.7-0.3-2.2-1.1
				c-0.3-0.9-0.4-1.8-0.2-2.7c0.3-0.5,0.9-0.6,1.5-0.5c0.9,0.1,1.8,0.7,2.3,1.1c0.5-0.8,0.1-2.2-0.3-3c-0.6-1.3-2.2-1.9-3.5-2.1
				c0.1-0.6,0.3-1.7,0.2-2.7c-0.1-1.3-0.6-2.5-2-2.9c-1.3,0.4-1.8,1.6-2,2.9c-0.1,1,0.1,2.2,0.2,2.7c-1.3,0.1-2.9,0.8-3.5,2.1
				c-0.4,0.9-0.8,2.2-0.3,3c0.5-0.4,1.4-1,2.3-1.1c0.6-0.1,1.2,0,1.5,0.5c0.2,0.9,0.1,1.7-0.2,2.7c-0.6,0.8-1.4,1.1-2.2,1.1
				c-1.2,0-2.5-0.3-3.5-1.1c-0.8-0.7-1.4-1.7-1.4-3.1c0-1,0-2.3,1.3-3.2c0.3-0.4,0.1-0.5-0.2-0.6c-0.9-0.2-2,0.1-2.9,0.8
				c-1.9,1.3-2.4,3.5-2,5.4c-0.4,0.4-1.3,0.2-1.7,0c-0.6-0.6-1.4-0.9-2.1-0.9c-1.9,0.1-3.2,1.8-3.1,3.7c0.1,1.8,1.3,2.9,2.7,3.2
				c1.1,0.2,2.1-0.3,3.6-0.9c1.5-0.2,1.5,0.4,1.6,1.7c3.5-2.4,7.6-3.9,12-3.9C96.3,39.5,100.4,40.9,103.8,43.4z M92.1,41.6
				c4.3,0,8.3,1.5,11.6,4v1.9c-3.2-2.4-7.2-3.9-11.6-3.9c-4.6,0-8.9,1.7-12.3,4.4v-1.9C83.3,43.3,87.5,41.6,92.1,41.6z M80.4,50.2
				l0.7,1.4l1.5,0.1l-1.2,1l0.4,1.4l-1.4-0.8l-1.3,0.8l0.3-1.5l-1.2-0.9l1.7-0.2L80.4,50.2z M86.1,47.6l0.7,1.4l1.5,0.1l-1.2,1
				l0.4,1.4L86,50.7l-1.3,0.8l0.3-1.5l-1.2-0.9l1.7-0.2L86.1,47.6z M91.8,46.8l0.7,1.4l1.5,0.1l-1.2,1l0.4,1.4l-1.4-0.8l-1.3,0.8
				l0.3-1.5l-1.2-0.9l1.7-0.1L91.8,46.8z M103.2,50.2l-0.7,1.4l-1.5,0.1l1.2,1l-0.4,1.4l1.4-0.8l1.3,0.8l-0.3-1.5l1.2-0.9l-1.7-0.2
				L103.2,50.2z M97.6,47.6L96.9,49l-1.5,0.1l1.2,1l-0.4,1.4l1.4-0.8l1.3,0.8L98.6,50l1.2-0.9l-1.7-0.2L97.6,47.6z"/>
		</g>
	</g>
</g>
</svg>
