<?xml version="1.0" encoding="UTF-8"?>
<svg id="Capa_5" data-name="Capa 5" xmlns="http://www.w3.org/2000/svg" xmlns:xlink="http://www.w3.org/1999/xlink" viewBox="0 0 177.4 125.4">
  <defs>
    <style>
      .cls-1 {
        fill: #fff;
        fill-rule: evenodd;
      }

      .cls-1, .cls-2 {
        stroke-width: 0px;
      }

      .cls-2 {
        fill: none;
      }

      .cls-3 {
        clip-path: url(#clippath);
      }
    </style>
    <clipPath id="clippath">
      <rect class="cls-2" x="21.5" y="60.34" width="134.4" height="35.84"/>
    </clipPath>
  </defs>
  <g id="surface1">
    <g class="cls-3">
      <path class="cls-1" d="M33.66,62.01c.16-.19.35-.44.5-.69.22-.31.38-.47.53-.47s.25.03.31.13c.06.06.09.31.13.72l.22,3.67.03.47c0,.31-.13.47-.38.47-.16,0-.28-.13-.41-.38-.31-.85-.88-1.76-1.7-2.8-.82-1.04-1.85-1.54-3.11-1.54-.94,0-1.7.28-2.36.82-.63.53-1.13,1.29-1.48,2.26-.35.94-.53,2.1-.53,3.42,0,2.26.5,4.08,1.48,5.43.97,1.35,2.2,2.01,3.67,2.01,1.57,0,3.05-.97,4.37-2.92.16-.25.31-.35.47-.35.25,0,.38.13.38.38,0,.53-.6,1.35-1.82,2.48-1.22,1.13-2.73,1.7-4.59,1.7-2.42,0-4.33-.75-5.75-2.29-1.41-1.54-2.1-3.42-2.1-5.65s.72-4.15,2.14-5.78c1.41-1.63,3.2-2.45,5.37-2.45,1.51.03,3.05.47,4.62,1.35ZM43.96,60.5h.79c1.04,2.26,2.45,5.81,4.33,10.65.85,2.23,1.44,3.58,1.76,4.05s.85.75,1.54.85c.22.03.35.13.35.31,0,.25-.16.38-.44.38-.16,0-.6-.03-1.26-.09-.82-.06-1.48-.09-2.04-.09-.53,0-1.22.03-2.07.09-.63.03-1.07.06-1.26.06-.35,0-.53-.13-.53-.35,0-.19.13-.28.38-.28.94-.09,1.44-.47,1.44-1.13,0-.31-.13-.91-.41-1.76-.28-.85-.57-1.6-.88-2.29h-4.81c-.66,1.85-1.01,3.11-1.01,3.71,0,.44.16.79.5,1.01.35.25.69.38,1.07.41.28.03.44.16.44.38s-.16.31-.47.31c-.13,0-.44-.03-.97-.06-.69-.06-1.16-.09-1.48-.09-.6,0-1.19.03-1.73.13-.13.03-.25.03-.35.03-.28,0-.44-.13-.44-.35,0-.19.09-.28.28-.35.47-.13.82-.31,1.1-.5.25-.19.57-.57.85-1.13.31-.57.66-1.44,1.1-2.67.91-2.76,2.32-6.5,4.21-11.21ZM43.17,64.65l-2.01,5.28,4.08-.06c-.22-.63-.57-1.48-1.01-2.54-.47-1.16-.85-2.04-1.07-2.67ZM62.11,68.1c1.6.35,2.8.88,3.58,1.6s1.19,1.6,1.19,2.7c0,.91-.28,1.73-.88,2.45-.6.72-1.29,1.22-2.14,1.48s-2.07.38-3.71.38c-.41,0-1.01-.03-1.85-.06-.69-.03-1.22-.06-1.63-.06-.53,0-1.22.03-2.14.09-.38.03-.63.06-.75.06-.31,0-.44-.13-.44-.35,0-.19.13-.28.35-.31.5-.06.85-.16,1.07-.25.22-.09.41-.28.53-.53.13-.25.19-.66.19-1.22l.09-5.53c0-1.73-.03-3.08-.06-4.11s-.09-1.7-.19-1.98c-.09-.31-.22-.5-.41-.63s-.44-.19-.79-.22c-.31-.03-.5-.06-.6-.09-.09-.06-.13-.16-.13-.28,0-.16.09-.25.28-.31.19-.03.69-.06,1.54-.06,1.54,0,2.98-.06,4.33-.16.79-.06,1.44-.09,1.92-.09,1.41,0,2.54.31,3.42.97s1.29,1.51,1.29,2.58c-.03,1.82-1.38,3.17-4.08,3.96ZM58.91,67.95c2.67,0,3.99-1.16,3.99-3.52,0-1.04-.22-1.79-.69-2.32-.47-.5-1.04-.75-1.63-.75-.44,0-1.01.13-1.63.35-.06.79-.09,1.63-.09,2.51-.03.69,0,1.95.06,3.74ZM58.91,68.86c-.06,1.66-.09,3.05-.09,4.15,0,1.48.06,2.29.19,2.51s.47.31,1.1.31c1.13,0,1.95-.31,2.51-.91s.82-1.44.82-2.51-.28-1.95-.85-2.61c-.57-.69-1.44-1.04-2.61-1.04-.28.03-.63.06-1.07.09ZM77.31,60.72c1.57,0,2.92.31,4.11.94,1.16.63,2.1,1.57,2.83,2.76.72,1.22,1.07,2.54,1.07,3.96,0,2.2-.82,4.18-2.42,5.87-1.6,1.7-3.61,2.54-6,2.54-2.17,0-4.02-.69-5.59-2.1-1.54-1.41-2.32-3.33-2.32-5.72,0-2.26.79-4.21,2.39-5.84,1.6-1.6,3.58-2.42,5.94-2.42ZM81.37,68.76c0-2.39-.41-4.18-1.19-5.4-.79-1.19-1.82-1.82-3.02-1.82s-2.23.6-3.02,1.82-1.19,3.02-1.19,5.37.38,4.05,1.13,5.31c.75,1.26,1.79,1.88,3.08,1.88,1.13,0,2.14-.57,2.95-1.7.85-1.1,1.26-2.92,1.26-5.47ZM122.57,61.07c.25,1.22.5,2.45.72,3.67,0,.22-.13.35-.35.35-.13,0-.25-.09-.41-.35-.79-1.19-1.54-1.95-2.2-2.36s-1.6-.57-2.86-.57c-.69,0-1.38.06-2.01.19-.13,1.38-.22,2.92-.22,4.59,0,.28,0,.75.03,1.44h.88c.53,0,1.04-.06,1.41-.22.41-.16.72-.47,1.01-.97.28-.5.44-.82.47-.97.06-.25.19-.38.35-.38.22,0,.31.09.31.28,0,.06,0,.13-.03.19-.09.5-.13,1.95-.13,4.4,0,.35.03.66.09.91.03.09.03.16.03.19,0,.22-.13.35-.38.35-.16,0-.31-.22-.41-.63-.16-.72-.5-1.29-1.07-1.66-.53-.38-1.41-.57-2.61-.6-.03,1.32-.06,2.2-.06,2.61,0,1.79.03,2.86.09,3.2.06.35.25.63.6.82.35.22.91.31,1.73.31,2.95,0,4.87-.94,5.81-2.86.13-.25.28-.41.44-.41.22,0,.35.09.35.28,0,.13-.03.28-.06.47l-.75,3.39h-4.21c-1.19,0-2.29-.03-3.3-.09-1.04-.03-1.82-.06-2.42-.06-.66,0-1.63.03-2.92.13-.16.03-.28.03-.35.03-.38,0-.53-.13-.53-.38,0-.22.16-.35.44-.35.75,0,1.26-.22,1.51-.63s.38-1.26.38-2.54l.06-6.09c0-2.07-.03-3.36-.06-3.83-.06-.47-.19-.79-.41-.97-.22-.16-.63-.31-1.22-.38-.25-.03-.38-.13-.38-.35,0-.25.16-.35.44-.35l2.8.09,9.39.09ZM132.47,60.5h.79c1.01,2.26,2.45,5.81,4.33,10.65.85,2.23,1.44,3.58,1.76,4.05s.85.75,1.54.85c.22.03.35.13.35.31,0,.25-.16.38-.44.38-.16,0-.6-.03-1.26-.09-.82-.06-1.48-.09-2.04-.09-.53,0-1.22.03-2.07.09-.63.03-1.07.06-1.26.06-.35,0-.53-.13-.53-.35,0-.19.13-.28.38-.28.94-.09,1.44-.47,1.44-1.13,0-.31-.13-.91-.41-1.76-.28-.85-.57-1.6-.88-2.29h-4.81c-.66,1.85-1.01,3.11-1.01,3.71,0,.44.16.79.5,1.01.35.25.69.38,1.07.41.28.03.44.16.44.38s-.16.31-.47.31c-.13,0-.44-.03-.97-.06-.69-.06-1.16-.09-1.48-.09-.6,0-1.19.03-1.73.13-.13.03-.25.03-.35.03-.28,0-.44-.13-.44-.35,0-.19.09-.28.28-.35.47-.13.82-.31,1.1-.5.25-.19.57-.57.85-1.13.31-.57.66-1.44,1.1-2.67.88-2.76,2.29-6.5,4.21-11.21ZM131.65,64.65l-2.01,5.28,4.08-.06c-.22-.63-.57-1.48-1.01-2.54-.47-1.16-.85-2.04-1.07-2.67ZM155.11,76.68c-1.95-.09-4.93-.16-9.01-.16-1.41,0-2.58.03-3.45.13-.22.03-.38.03-.47.03-.28,0-.44-.13-.44-.35,0-.09.03-.19.13-.22.06-.03.28-.09.57-.13.47-.06.85-.22,1.1-.44s.44-.53.53-.97c.09-.44.16-1.54.19-3.3s.03-3.86.03-6.28c0-.97-.06-1.66-.22-2.1-.13-.44-.35-.75-.6-.97-.25-.19-.63-.31-1.1-.35-.35-.03-.5-.13-.5-.38,0-.22.19-.35.57-.35l3.86.09c.6,0,1.41-.03,2.48-.09.38-.03.66-.03.79-.03.31,0,.5.13.5.35,0,.13-.06.22-.16.25-.09.06-.38.09-.79.19-.5.06-.88.19-1.1.41-.22.19-.35.53-.44,1.04-.06.5-.13,1.6-.13,3.3v7.19c0,1.1.09,1.76.28,1.98s.53.31,1.07.31c1.26,0,2.2-.09,2.83-.28.63-.19,1.19-.57,1.76-1.1.57-.53,1.16-1.41,1.79-2.67.13-.25.28-.38.41-.38.22,0,.31.13.31.35,0,.5-.25,2.14-.79,4.93ZM104.42,73.91c.85,2.51,2.48,5.81,3.96,8.23-2.83.75-5.72,1.6-8.64,2.2-1.54-2.76-4.65-4.21-7.88-4.27-2.01-.06-4.02.47-5.78,1.44-1.01.57-3.2,1.98-3.45,3.24-.06.31-.03.63.16.79.41,0,.79.03,1.26-.13-.03-1.51.57-2.39,2.04-3.24,1.19-.69,3.11-1.44,5.37-1.51,2.95-.09,6.22,1.35,7.73,3.99-5.9,1.76-11.5,3.61-17.34,5.56-6.12-3.99-13.95-7.7-21.39-7.7-3.24,0-6.53.38-9.27,2.29-1.48,1.04-2.51,2.48-2.54,4.68-.13,5.94,8.95,6.47,12.81,6.69,6.82-.09,13.29-1.22,19.44-4.15,1.38.91,2.95,1.63,4.43,2.23,2.67,1.07,5.34,1.79,8.2,1.48,1.92-.19,4.05-1.01,5.47-2.54,1.04-1.13,1.51-2.26,1.7-3.45.22-1.41.03-2.67-.19-4.05,2.17-.5,6.28-1.82,8.79-2.39,1.6,2.23,3.96,4.59,6.34,6.03,2.14,1.29,4.37,2.01,7.57,2.26,3.71.31,10.62-.85,10.74-4.99.13-4.49-5.12-5.28-8.54-5.75-4.77-.31-9.61-.22-14.79.75-1.51-3.11-2.45-6.31-3.08-9.11-.35-1.48-1.29-2.45-1.98-2.95-.69-.5-1.54-.82-2.58-.97.94-.06,1.79-.25,2.48-.57.72-.31,1.29-.75,1.76-1.38s.72-1.32.72-2.07c0-1.16-.5-2.07-1.51-2.8-1.01-.72-2.39-1.07-4.15-1.07-.53,0-1.16.03-1.82.06-1.51.09-3.36.13-5.56.13-.44,0-.66.13-.66.35s.16.35.5.35c.82.03,1.35.25,1.54.75.19.47.28,1.82.28,4.02v6.44c0,1.63-.19,2.58-.57,2.8s-.75.35-1.19.35c-.28,0-.41.13-.41.35s.16.35.47.35c.19,0,.63-.03,1.32-.06.75-.03,1.35-.06,1.85-.06l3.55.09c.31,0,.44-.09.44-.31s-.19-.35-.53-.35c-.66-.03-1.1-.19-1.32-.47s-.35-.75-.38-1.38-.03-2.36-.03-5.12c.31-.03.57-.03.72-.03.6,0,1.16.13,1.6.41,1.07.66,1.82,3.24,2.32,4.59ZM99.77,68.1h.44c.66,0,1.35-.13,2.04-.38.69-.25,1.16-.66,1.44-1.22s.44-1.16.44-1.79c0-.97-.28-1.76-.85-2.29-.57-.57-1.32-.82-2.23-.82-.38,0-.82.06-1.29.22v6.28h0ZM125.84,90.59c-3.3,0-7.66-.82-11.02-3.45-.82-.66-3.67-3.52-3.52-4.27,3.83-.91,8.89-1.51,12.72-1.41,3.96.09,9.77.82,9.42,5.12-.25,3.27-4.55,4.05-7.6,4.02ZM85.95,92.82c-.97-.5-2.36-1.26-2.67-1.57,5.59-1.98,10.99-3.67,16.62-5.34.28.88.47,2.98-.09,4.74-.82,2.48-3.39,3.99-5.9,4.24-2.61.25-5.72-.94-7.95-2.07ZM48.98,89.81c-.16-4.62,4.3-5.56,8.32-5.62,6.88-.13,16.55,3.02,21.95,6.88-1.73.75-3.67,1.44-5.68,1.95-4.4,1.16-8.32,1.7-12.94,2.07-3.45.13-11.46.09-11.65-5.28Z"/>
    </g>
    <path class="cls-1" d="M101.94,45.8c.03-1.16.06-1.66,1.38-1.51,1.35.6,2.2,1.01,3.14.82,1.19-.25,2.29-1.26,2.36-2.8.06-1.6-1.04-3.14-2.73-3.2-.63-.03-1.26.19-1.82.75-.35.19-1.13.38-1.51.03.28-1.6-.09-3.55-1.79-4.68-.79-.5-1.73-.82-2.54-.66-.25.06-.41.22-.19.5,1.07.72,1.13,1.88,1.13,2.76,0,1.16-.53,2.07-1.26,2.67-.82.69-1.95.97-3.02.94-.72-.03-1.44-.25-1.95-.97-.25-.82-.31-1.54-.16-2.32.28-.44.79-.57,1.32-.47.75.13,1.6.63,2.01.97.41-.69.13-1.88-.25-2.64-.57-1.13-1.92-1.7-3.08-1.82.13-.5.28-1.51.19-2.39-.13-1.16-.57-2.2-1.73-2.58-1.16.35-1.6,1.41-1.73,2.58-.09.88.06,1.88.19,2.39-1.16.13-2.51.69-3.08,1.82-.38.79-.66,1.95-.25,2.64.41-.35,1.26-.85,2.01-.97.53-.09,1.01.03,1.32.47.16.75.09,1.51-.16,2.32-.5.72-1.22.94-1.95.97-1.07.03-2.2-.25-3.02-.94-.72-.6-1.26-1.51-1.26-2.67,0-.88.03-2.01,1.13-2.76.22-.31.06-.47-.19-.5-.82-.19-1.79.13-2.54.66-1.7,1.13-2.1,3.08-1.79,4.68-.38.38-1.13.19-1.51-.03-.53-.57-1.19-.79-1.82-.75-1.7.06-2.8,1.6-2.73,3.2.06,1.54,1.16,2.58,2.36,2.8.97.19,1.82-.22,3.14-.82,1.32-.19,1.35.35,1.38,1.51,3.02-2.14,6.63-3.39,10.52-3.39s7.44,1.22,10.46,3.39ZM91.7,44.26c3.77,0,7.26,1.29,10.11,3.45v1.63c-2.83-2.14-6.31-3.42-10.11-3.42-4.05,0-7.79,1.44-10.71,3.86v-1.63c2.98-2.42,6.69-3.89,10.71-3.89ZM81.46,51.8l.6,1.19,1.35.09-1.07.88.31,1.19-1.26-.66-1.13.66.28-1.29-1.04-.79,1.44-.16.5-1.13ZM86.42,49.54l.6,1.19,1.35.09-1.07.88.31,1.19-1.26-.66-1.13.66.28-1.29-1.04-.79,1.44-.16.5-1.13ZM91.42,48.82l.6,1.19,1.35.09-1.07.88.31,1.19-1.26-.66-1.13.66.28-1.29-1.04-.79,1.44-.13.5-1.16ZM101.37,51.8l-.6,1.19-1.35.09,1.07.88-.31,1.19,1.26-.66,1.13.66-.28-1.29,1.04-.79-1.44-.16-.5-1.13ZM96.44,49.54l-.6,1.19-1.35.09,1.07.88-.31,1.19,1.26-.66,1.13.66-.28-1.29,1.04-.79-1.44-.16-.5-1.13Z"/>
  </g>
</svg>