<?xml version="1.0" encoding="utf-8"?>
<!-- Generator: Adobe Illustrator 28.3.0, SVG Export Plug-In . SVG Version: 6.00 Build 0)  -->
<svg version="1.1" xmlns="http://www.w3.org/2000/svg" xmlns:xlink="http://www.w3.org/1999/xlink" x="0px" y="0px"
	 viewBox="0 0 177.4 125.4" style="enable-background:new 0 0 177.4 125.4;" xml:space="preserve">
<style type="text/css">
	.st0{fill:#FFFFFF;}
	.st1{fill:#FEF574;}
	.st2{fill:#024EFF;}
	.st3{fill:#9D9D9D;}
</style>
<g id="Capa_1">
	<g>
		<path class="st0" d="M-390.7,67.1c7.8-3.5,15.9-5.5,24.1-7c8.2-1.5,16.5-2.5,25-2.1c-0.9-1-2-1.7-3.1-2.3
			c-2.6-1.4-5.5-2.3-8.5-2.8c-6.1-1.1-12.2-1-18.4-0.2c-5.1,0.7-10.1,1.9-14.9,3.9c-0.1,0-0.2,0.1-0.4,0c0.7-0.3,1.4-0.6,2.1-0.9
			c0.7-0.3,1.4-0.6,2.1-0.8c0.7-0.3,1.5-0.5,2.2-0.7c6.6-2,13.4-3,20.3-2.9c4.5,0,9,0.5,13.4,1.9c2.3,0.7,4.4,1.7,6.3,3.2
			c0.6,0.5,1.1,1,1.5,1.6c0.2,0.3,0.5,0.4,0.9,0.5c1,0.2,2,0.4,2.9,0.8c0.1,0,0.2,0.1,0.3,0.1c2.1,1.1,1.4,2.7,0.1,3.7
			c0.2-0.5,0-1-0.4-1.4c-0.7-0.7-1.6-1-2.5-1.2c0.1,0.8,0.2,1.4,0.1,2.1c-0.3,2.1-1.4,3.8-2.9,5.2c-2.5,2.5-5.4,4.2-8.6,5.7
			c-1.9,0.9-3.9,1.6-5.9,2.2c2.6-0.9,5.2-2,7.6-3.4c2.4-1.4,4.6-3,6.3-5.2c0.9-1.2,1.5-2.6,1.6-4.2c0-1-0.2-1.9-0.6-2.8
			c-0.1-0.2-0.3-0.2-0.5-0.2c-1.8-0.2-3.6-0.3-5.4-0.4c-5.4-0.1-10.9,0.4-16.3,1.1c-6.6,0.9-13.2,2.1-19.6,3.8
			c-2.8,0.8-5.6,1.6-8.3,2.7C-390.2,67.1-390.4,67.2-390.7,67.1z"/>
		<path class="st0" d="M-243.9,64.1c3.8,5.1,9.1,6.6,15,6.9c0.1,0.1,0.1,0.3,0,0.4c0,0-0.1,0.1-0.1,0.1c-4.6,0-9-0.7-12.9-3.3
			c-1.2-0.8-2.2-1.7-3-2.8c-0.5-0.7-1.1-1.1-2.1-0.9c-0.3,0.1-0.5,0-0.8,0c-0.1,1.7,0.1,3.3,0.1,5c-0.6-0.1-1.2-0.1-1.8,0
			c0.2-3.3,0.2-6.6,0-9.9c-0.9-0.1-0.9-0.1-0.8-0.5c0.7-0.1,1.4,0,2.1,0c1.4,0,2.9,0,4.3,0c0.7,0,1.3,0.2,1.9,0.5
			c1.3,0.7,1.5,2.2,0.5,3.2C-242.2,63.5-243,63.8-243.9,64.1z M-247.6,59.7c-0.2,0.8-0.2,3.6-0.1,4.1c0.2,0,0.4,0,0.5,0
			c1.2,0,2.4,0,3.5-0.6c0.6-0.3,1-0.8,1-1.5c0-0.8-0.5-1.5-1.5-1.8C-245.2,59.6-246.4,59.7-247.6,59.7z"/>
		<path class="st0" d="M-311.6,69.5c2.4,1.3,4.7,2.6,7.4,2.5c-0.1,0.3-0.3,0.3-0.5,0.3c-1.7,0.2-3.3,0.1-4.8-0.6
			c-0.8-0.4-1.7-0.7-2.5-1.1c-1.2-0.6-2.3-1-3.6-1.1c-1.2-0.1-2.3-0.6-3.3-1.3c-2.7-2-2.7-5.5,0-7.5c1.2-0.9,2.5-1.3,3.9-1.4
			c2.1-0.2,4.1,0,5.9,1.2c1.4,0.9,2.4,2.2,2.4,3.9c0,2.1-1.1,3.4-2.8,4.4C-310.1,69-310.7,69.3-311.6,69.5z M-313.8,69.2
			c0.2,0,0.5,0,0.7,0c2.6-0.1,4.2-1.6,4.5-4.1c0.3-2.3-0.7-4.6-3.6-5.2c-1-0.2-2-0.2-3,0c-1.7,0.3-3,1.2-3.5,2.9
			c-0.6,1.8-0.4,3.6,0.9,5.1C-316.7,68.9-315.3,69.2-313.8,69.2z"/>
		<path class="st0" d="M-228.5,69.5c-1.4,0-2.8-0.2-4.2-1c-1.7-0.9-2.6-2.4-2.6-4.4c0-2,1-3.5,2.8-4.3c2.7-1.2,5.5-1.2,8.2,0
			c1.8,0.8,2.8,2.4,2.8,4.4c0,2-1,3.5-2.8,4.4C-225.6,69.3-227,69.5-228.5,69.5z M-228.9,68.9c3.7,0,5.5-1.6,5.6-4.5
			c0.1-2.3-1.1-4-3.2-4.6c-0.4-0.1-0.8-0.2-1.1-0.2c-1.7-0.1-3.3,0.1-4.5,1.4c-1.4,1.5-1.4,3.3-0.8,5.1c0.2,0.7,0.7,1.3,1.3,1.8
			C-230.8,68.6-229.6,68.9-228.9,68.9z"/>
		<path class="st0" d="M-278.2,67.5c-0.7,0.8-1.6,1.3-2.7,1.6c-2.2,0.6-4.4,0.6-6.4-0.7c-1.8-1.3-2.6-3-2.2-5.2
			c0.4-2.1,1.8-3.3,3.9-3.8c1.8-0.4,3.6-0.4,5.3,0.2c1.7,0.6,2.8,2.3,2.8,4.2c-3.3,0-6.6,0-9.8,0c-0.5,2.1,1.1,4.5,3.3,4.9
			c2.1,0.4,3.9-0.1,5.5-1.6c0.1,0.1,0.1,0.1,0.2,0.1C-278.4,67.4-278.3,67.4-278.2,67.5z M-287.4,63.3c2.7,0,5.4,0,8.1,0
			c0.1-1.5-0.7-2.9-2.1-3.4c-0.8-0.3-1.7-0.4-2.6-0.2C-285.8,60-287.3,61.7-287.4,63.3z"/>
		<path class="st0" d="M-293.4,59.6c0.5,0.1,0.9,0.1,1.3,0c0.1,0.4,0,0.7,0,1c-0.1,1.7-0.2,3.3-0.3,5c-0.1,1.7-1,2.9-2.6,3.4
			c-2.1,0.8-4.3,0.7-6.4,0c-1.5-0.5-2.4-1.7-2.3-3.5c0.1-2,0.1-3.9,0-6c0.6,0,1.2,0.1,1.9,0c-0.1,0.9-0.1,1.7-0.1,2.6
			c-0.1,1.2-0.1,2.4,0,3.6c0.2,1.8,1,2.6,2.8,3c1.1,0.2,2.2,0.2,3.3,0c1.5-0.4,2.4-1.4,2.6-3c0.1-1.8,0.1-3.7,0-5.5
			C-293.4,59.9-293.4,59.8-293.4,59.6z"/>
		<path class="st0" d="M-266.8,61.2c-0.3,0.1-0.3-0.1-0.4-0.3c-1.1-1.3-2.8-1.8-4.2-1.1c-0.6,0.3-1,0.7-1.1,1.4
			c0,0.7,0.4,1.1,0.9,1.4c0.6,0.3,1.2,0.5,1.9,0.7c0.7,0.2,1.4,0.4,2,0.7c1.6,0.8,1.9,2.5,0.7,3.8c-0.7,0.8-1.7,1.1-2.7,1.3
			c-1.2,0.2-2.5,0.2-3.7-0.1c-0.8-0.2-1.3-0.6-1.3-1.5c0-0.2-0.1-0.5-0.1-0.7c0.3-0.1,0.3,0.1,0.4,0.2c1.3,1.2,2.8,1.8,4.6,1.5
			c0.7-0.1,1.3-0.4,1.6-1.1c0.5-0.7,0.3-1.6-0.4-2.1c-0.6-0.4-1.3-0.6-1.9-0.8c-0.8-0.2-1.6-0.4-2.3-0.8c-0.8-0.4-1.3-1-1.3-2
			c0-1,0.5-1.7,1.3-2.1c1.5-0.8,3.2-0.9,4.8-0.4c1.5,0.4,1.2,0.1,1.2,1.6C-266.8,61-266.8,61.1-266.8,61.2z"/>
		<path class="st0" d="M-259.3,69.2c0.2-3.1,0.2-6.2,0.1-9.3c-1.5-0.1-2.9,0-4.4,0.1c0-0.3,0-0.6,0-0.9c3.6,0.1,7.1,0.1,10.7,0
			c0,0.3,0,0.6,0,0.9c-1.5-0.1-2.9-0.2-4.4-0.1c-0.1,3.1-0.1,6.2,0.1,9.3C-257.9,69.1-258.6,69.1-259.3,69.2z"/>
		<path class="st0" d="M-327.6,50.7c0,7.7,0,15.5,0,23.2c-0.2,0.1-0.3,0-0.3-0.2c0-0.1,0-0.2,0-0.4c0-7.4,0-14.8,0-22.2
			C-327.9,51-328,50.7-327.6,50.7z"/>
		<path class="st0" d="M-307.4,52.1c-0.3,0-0.6,0-0.8,0c-0.1,0-0.2,0-0.2-0.2c0-0.2,0.1-0.2,0.2-0.2c0.4,0,0.9,0,1.3,0
			c0,0.9-0.5,1.6-1.3,1.8c-1,0.2-2-0.3-2.3-1.2c-0.3-0.8,0-1.8,0.8-2.3c0.8-0.5,2-0.3,2.7,0.4c-0.1,0.4-0.3,0.2-0.5,0.1
			c-1-0.7-2.3-0.3-2.6,0.8c-0.2,0.8,0.3,1.6,1.2,1.8C-308.3,53.4-307.6,53-307.4,52.1z"/>
		<path class="st0" d="M-234.7,53.6c-1.1,0-1.9-0.8-1.9-1.9c0-1.1,0.8-1.9,1.9-1.9c1.1,0,1.9,0.8,1.9,1.9
			C-232.8,52.7-233.6,53.6-234.7,53.6z M-233.2,51.7c0-0.8-0.6-1.5-1.4-1.5c-0.8,0-1.5,0.7-1.5,1.5c0,0.8,0.7,1.5,1.5,1.5
			C-233.9,53.2-233.2,52.6-233.2,51.7z"/>
		<path class="st0" d="M-291.1,49.9c0.4,0,0.9,0,1.3,0c0.6,0,0.9,0.3,1,0.8c0,0.5-0.2,0.9-0.8,1c-0.1,0-0.2,0-0.3,0.1
			c0.4,0.5,0.8,1,1.1,1.5c-0.3,0.2-0.5,0-0.6-0.2c-0.4-0.5-0.7-0.9-1.1-1.4c-0.4,0.5,0.2,1.3-0.3,1.7c-0.1,0-0.1,0-0.2,0
			C-291.1,52.3-291.1,51.1-291.1,49.9z M-290.7,51.5c0.5-0.1,1,0.2,1.3-0.3c0.1-0.2,0.1-0.4,0-0.6c-0.4-0.4-0.8-0.3-1.3-0.3
			C-290.7,50.7-290.7,51.1-290.7,51.5z"/>
		<path class="st0" d="M-272.5,50c0,0.8,0,1.6,0,2.3c0,0.4,0.1,0.7,0.6,0.8c0.5,0.2,1-0.2,1-0.8c0-0.7,0-1.4,0-2.1
			c0-0.3,0.1-0.4,0.4-0.3c0,0.9,0,1.7,0,2.6c0,0.7-0.6,1.1-1.2,1c-0.7,0-1.1-0.4-1.1-1.1c0-0.8,0-1.5,0-2.3
			C-272.9,49.9-272.8,49.9-272.5,50z"/>
		<path class="st0" d="M-254.1,51.9c-0.2,0.5,0.1,1.1-0.2,1.6c0,0-0.2,0-0.3,0c0-1.2,0-2.3,0-3.5c0.5,0,1-0.1,1.5,0
			c0.5,0.1,0.7,0.4,0.7,0.9c0,0.5-0.2,0.8-0.7,0.9C-253.3,51.8-253.7,51.9-254.1,51.9z M-254.1,51.5c0.5,0,1,0.2,1.3-0.3
			c0.1-0.2,0.1-0.4,0-0.6c-0.4-0.4-0.8-0.3-1.3-0.3C-254.1,50.7-254.1,51.1-254.1,51.5z"/>
	</g>
</g>
<g id="Capa_2">
	<g>
		<path class="st0" d="M-101.4,64.4c-3.3,0-6.5-0.8-9.6-1.9c-0.1-0.5-0.2-1-0.3-1.4c-0.5-2.6-1.2-5.1-2.1-7.6
			c-1.4-3.8-2.8-7.6-4.4-11.4c-0.1-0.3-0.3-0.6-0.4-0.9c-0.1-0.3-0.1-0.5,0.1-0.7c0.2-0.2,0.4-0.2,0.7-0.1c1.8,0.8,3.7,1.3,5.6,1.7
			c1.4,0.3,2.8,0.5,4.2,0.6c1,0.1,2,0.1,3,0.1c2.3-0.1,4.5-0.5,6.7-1.1c0.7-0.2,1.4-0.5,2.1-0.7c0.1,0,0.2-0.1,0.3-0.1
			c0.4,0,0.6,0.4,0.5,0.7c0,0.1-0.1,0.2-0.1,0.2c-1.9,3.6-3.3,7.4-4.2,11.4c-0.7,2.9-1.2,5.8-1.7,8.7
			C-101.2,62.7-101.3,63.5-101.4,64.4z"/>
		<path class="st0" d="M-81.3,104.1c-1.2,0-2.4,0-3.6,0c-0.7-4-1.4-8-2.1-12c0,0,0,0-0.1,0c0,4,0,8,0,12c-1.7,0-3.4,0-5.1,0
			c0-6.3,0-12.6,0-18.8c2.5,0,5,0,7.6,0c0.5,2.9,1,5.7,1.5,8.6c0.4-2.9,0.9-5.7,1.3-8.6c2.5,0,5.1,0,7.6,0c0,6.3,0,12.5,0,18.8
			c-1.7,0-3.4,0-5.1,0c0-4.1,0-8.2,0-12.2c0,0-0.1,0-0.1,0C-79.9,95.9-80.6,100-81.3,104.1z"/>
		<path class="st0" d="M-79.1,76.1c0,0.1,0,0.1-0.1,0.2c-1.4,1.6-3,2.9-4.9,3.9c-1.2,0.6-2.5,1-3.9,1.2c-1,0.1-2,0.1-3.1,0.2
			c-0.8,0-1.5,0-2.3,0c-1.9-0.1-3.8-0.3-5.6-0.7c-4-0.8-7.7-2.1-11.3-4c-1.9-1-3.9-1.9-5.8-3c-2.4-1.4-4.7-2.9-6.6-4.9
			c-1.5-1.5-2.8-3.2-4.1-4.8c-0.9-1.2-1.6-2.4-2.2-3.7c-0.4-0.9-0.7-1.7-1.1-2.6c-0.2-0.6-0.4-1.3-0.5-1.9c-0.2-1.2-0.2-2.3,0-3.5
			c0.1,0.1,0.2,0.2,0.2,0.3c1.6,3,3.6,5.8,6,8.3c3.4,3.5,7.2,6.5,11.4,8.9c4.5,2.5,9.2,4.6,14.2,6.1c1.7,0.5,3.5,0.9,5.3,1.1
			c2.2,0.3,4.4,0.4,6.6,0.3c1.3,0,2.6-0.2,3.9-0.4c1-0.1,2-0.3,3-0.5C-79.6,76.3-79.4,76.2-79.1,76.1L-79.1,76.1z"/>
		<path class="st0" d="M-118.7,74.4c-0.1,0-0.1,0-0.2,0c-4.3-1.5-8.3-3.5-11.9-6.3c-2.9-2.3-5.4-5-7.2-8.2c-0.9-1.5-1.7-3.1-2.2-4.7
			c-0.4-1.2-0.7-2.4-0.7-3.7c-0.1-2.2,0.6-4.1,2-5.8c1.9-2.3,4.3-3.8,7.1-4.6c1-0.3,2.1-0.4,3.2-0.5c1.1-0.1,2.2-0.1,3.3-0.1
			c1.3,0,2.6,0.1,3.8,0.3c0.8,0.1,1.5,0.2,2.3,0.3c0.2,0,0.4,0.1,0.5,0.2c-0.1,0.1-0.1,0.1-0.2,0.1c-0.9,0-1.8,0.1-2.6,0.2
			c-1.5,0.2-3,0.5-4.4,1.1c-1,0.4-2,0.9-2.8,1.5c-1.9,1.5-3.3,3.2-4,5.5c-0.7,2.1-0.6,4.1,0,6.1c0.5,1.5,1.2,2.9,1.9,4.3
			c1.7,3.2,3.9,6.1,6.3,8.8c1.7,1.9,3.6,3.7,5.6,5.4C-118.9,74.2-118.8,74.3-118.7,74.4z"/>
		<path class="st0" d="M-119.7,85.3c0.1,0,0.1,0,0.2,0c2.2,0,4.3,0,6.5,0c1,0,2.1,0.1,3.1,0.2c0.5,0.1,1,0.2,1.4,0.4
			c1.4,0.6,2.2,1.7,2.2,3.2c0,0.6,0.1,1.3,0.1,1.9c0,2.9,0,5.7,0,8.6c0,0.6-0.1,1.3-0.2,1.9c-0.2,0.8-0.6,1.4-1.3,1.8
			c-0.7,0.4-1.4,0.5-2.1,0.6c-0.9,0.1-1.7,0.1-2.6,0.1c-2.3,0-4.7,0-7,0c-0.1,0-0.2,0-0.4,0C-119.7,97.8-119.7,91.6-119.7,85.3z
			 M-113.8,100.9c0.3,0,0.7,0,1-0.1c0.4-0.1,0.7-0.3,0.7-0.8c0.1-0.4,0.1-0.8,0.1-1.2c0-2.8,0-5.7,0-8.5c0-0.3,0-0.6-0.1-1
			c0-0.3-0.2-0.5-0.4-0.6c-0.4-0.2-0.9-0.2-1.3-0.2C-113.8,92.6-113.8,96.8-113.8,100.9z"/>
		<path class="st0" d="M-130.2,85.3c1.1,2.8,2.1,5.5,3.2,8.3c0,0,0,0,0.1,0c0-2.8,0-5.5,0-8.3c1.6,0,3.2,0,4.9,0
			c0,6.3,0,12.5,0,18.8c-1.7,0-3.4,0-5.1,0c-1-2.8-2-5.6-3-8.3c0,0,0,0-0.1,0c0,2.8,0,5.5,0,8.3c-1.6,0-3.3,0-4.9,0
			c0-6.3,0-12.5,0-18.8C-133.4,85.3-131.8,85.3-130.2,85.3z"/>
		<path class="st0" d="M-83.7,52.8c0.5,0.4,1,0.9,1.4,1.4c1.8,1.9,3.6,3.9,5.1,6.2c0.4,0.6,0.8,1.2,1.1,1.9c0.6,1.2,0.9,2.5,1,3.8
			c0,1.1,0,2.1-0.3,3.2c-0.5,1.8-1.5,3.2-2.9,4.2c-1.2,0.9-2.5,1.4-3.9,1.9c-2.5,0.8-5.1,1.2-7.8,1.1c-2-0.1-4.1-0.4-6-0.9
			c-3.6-0.9-7-2.3-10.3-4.2c-0.1-0.1-0.2-0.1-0.3-0.2c0.4,0.1,0.7,0.1,1.1,0.2c1.6,0.3,3.3,0.5,5,0.7c1.7,0.2,3.5,0.2,5.2,0.2
			c2.5-0.1,5-0.4,7.4-1.2c1.3-0.4,2.6-1,3.7-1.8c1.9-1.3,3-3.1,3.4-5.4c0.3-1.6,0.2-3.1-0.1-4.7c-0.3-1.7-0.9-3.3-1.7-4.9
			C-83.1,53.7-83.4,53.3-83.7,52.8L-83.7,52.8z"/>
		<path class="st0" d="M-94.2,85.3c0,1.3,0,2.5,0,3.8c-1.3,0-2.6,0-3.9,0c0,1.2,0,2.4,0,3.6c1.2,0,2.4,0,3.6,0c0,1.2,0,2.4,0,3.6
			c-1.2,0-2.4,0-3.6,0c0,1.4,0,2.7,0,4.1c1.4,0,2.8,0,4.3,0c0,1.3,0,2.5,0,3.8c-3.4,0-6.7,0-10.1,0c0-6.3,0-12.5,0-18.8
			C-100.7,85.3-97.5,85.3-94.2,85.3z"/>
		<path class="st0" d="M-137.4,104.1c-2,0-3.9,0-5.8,0c0-6.3,0-12.5,0-18.8c0.2-0.1,5.4-0.1,5.8,0
			C-137.4,91.6-137.4,97.8-137.4,104.1z"/>
		<path class="st0" d="M-88.5,68.5c0,0.1-0.1,0.1-0.1,0.2c-1.5,1.2-3.1,2.2-5,2.7c-1,0.2-2,0.3-3,0.3c-4.1,0.1-7.9-0.9-11.6-2.7
			c-1.6-0.8-3.2-1.6-4.8-2.5c-2.3-1.3-4.2-3-5.8-5.1c0,0-0.1-0.1-0.1-0.1c-1.4-1.6-2.4-3.4-3.1-5.5c-0.4-1.1-0.4-2.2-0.3-3.4
			c0.1,0.1,0.2,0.2,0.2,0.3c1.2,2.2,2.6,4.1,4.4,5.9c2.6,2.6,5.6,4.7,8.9,6.4c2.3,1.2,4.8,2.2,7.3,2.9c1.8,0.5,3.5,0.8,5.4,0.9
			c1.3,0.1,2.7,0.1,4,0c1.2,0,2.3-0.1,3.4-0.5C-88.6,68.5-88.5,68.4-88.5,68.5z"/>
		<path class="st0" d="M-142.2,44.8c-0.2-1-0.2-2,0.1-2.9c0.5-1.5,1.4-2.7,2.5-3.7c1.3-1.2,2.8-2,4.5-2.5c2.3-0.8,4.7-1.1,7.1-0.9
			c2.5,0.1,4.9,0.7,7.3,1.2c0.7,0.2,1.4,0.4,2.1,0.5c0.1,0,0.2,0,0.3,0.1c-0.4,0.7-0.4,1.6-0.4,2.4c-0.1,0.1-0.2,0-0.3,0
			c-0.9-0.1-1.7-0.2-2.6-0.3c-1.1-0.1-2.2-0.1-3.3-0.1c-2.3,0-4.6,0.2-6.8,0.7c-2,0.5-3.9,1.2-5.7,2.1c-1.4,0.7-2.6,1.6-3.8,2.6
			C-141.6,44.3-141.8,44.6-142.2,44.8z"/>
		<path class="st0" d="M-117.4,44.8c0.1,0.3,0.2,0.6,0.3,0.9c-0.1,0.1-0.2,0.1-0.2,0.1c-2.8,0.6-4.6,2.2-5.6,4.9
			c-0.3,0.9-0.3,1.8-0.2,2.8c0.2,1.7,0.6,3.3,1.4,4.8c0.6,1.2,1.4,2.3,2.3,3.4c1.7,2.1,3.7,3.9,6.1,5.2c0.1,0.1,0.3,0.1,0.4,0.2
			c0.1,0.1,0.2,0.1,0.4,0.2c-0.2,0-0.5-0.2-0.7-0.2c-3-1.4-5.9-3-8.5-5c-1.1-0.8-2.1-1.6-3-2.6c-1.2-1.3-2.2-2.6-2.9-4.2
			c-0.5-1-0.8-2.1-0.8-3.3c0.1-2,0.8-3.7,2.4-5c0.5-0.4,1.1-0.7,1.7-1c1.3-0.5,2.7-0.9,4.1-1.1c0.9-0.1,1.7-0.2,2.6-0.2
			C-117.7,44.7-117.6,44.7-117.4,44.8z"/>
		<path class="st0" d="M-95.5,44c0.2,0.1,0.4,0.2,0.6,0.4c2.3,1.6,4.7,3.2,6.9,5c1.4,1.2,2.7,2.5,3.8,4c1.1,1.6,1.9,3.3,2.3,5.3
			c0.4,1.8,0.2,3.6-0.7,5.2c-0.5,1-1.3,1.8-2.3,2.3c-0.1,0-0.2,0.1-0.3,0.1c-0.1-0.1,0-0.2,0-0.4c0-0.6,0.1-1.3,0-1.9
			c0-1.6-0.3-3.2-0.8-4.7c-0.2-0.7-0.5-1.3-0.7-2c-0.4-1.1-1-2.1-1.6-3c-1.4-2.1-3.2-4.1-5-5.8c-0.9-0.8-1.8-1.6-2.7-2.4
			c-0.1,0-0.1-0.1-0.2-0.2C-96,45.2-95.8,44.6-95.5,44z"/>
		<path class="st0" d="M-91.2,53.8c0.1,0,0.2,0.1,0.2,0.1c1.4,1.4,2.7,3,3.7,4.7c0.3,0.6,0.7,1.2,0.8,1.9c0.2,1.1,0.2,2.1,0,3.2
			c-0.3,1.1-0.9,2-1.9,2.6c-0.7,0.5-1.5,0.8-2.3,1.1c-1.7,0.5-3.5,0.8-5.3,0.7c-1.5-0.1-2.9-0.4-4.3-0.9c-1.8-0.6-3.5-1.3-5.2-2.3
			c-0.1,0-0.2-0.1-0.2-0.2c0.4,0.1,0.7,0.1,1.1,0.2c0.9,0.2,1.9,0.3,2.8,0.4c0.9,0.1,1.8,0.1,2.7,0.1c1.6,0,3.2-0.2,4.8-0.7
			c0.8-0.3,1.6-0.6,2.3-1.1c1.3-0.9,1.9-2.2,2.1-3.7c0.2-1.4-0.1-2.8-0.5-4.2c-0.2-0.6-0.4-1.1-0.7-1.6
			C-91.2,54-91.3,53.9-91.2,53.8z"/>
		<path class="st0" d="M-97.8,114.1c0-2.9,0-5.8,0-8.7c0.1-0.1,0.1,0,0.2,0c1,0,2,0,3,0c0.5,0,1,0,1.4,0.2c0.8,0.2,1.3,0.7,1.5,1.6
			c0.1,0.4,0.1,0.8,0,1.2c-0.1,0.4-0.3,0.7-0.7,0.9c-0.2,0.1-0.3,0.1-0.6,0.2c0.2,0.1,0.4,0.1,0.6,0.2c0.5,0.2,0.8,0.5,0.8,1
			c0.1,0.8,0.1,1.6,0,2.4c-0.1,0.6-0.5,0.9-1,1c-0.4,0.1-0.8,0.1-1.3,0.1c-1.2,0-2.5,0-3.7,0C-97.6,114.2-97.7,114.2-97.8,114.1z
			 M-95.1,112.6c0.1,0,0.2,0,0.3,0c0.4,0,0.5-0.2,0.5-0.6c0-0.4,0-0.7,0-1.1c0-0.7-0.1-0.8-0.8-0.7c0,0,0,0-0.1,0
			C-95.1,111.1-95.1,111.8-95.1,112.6z M-95.1,106.9c0,0.6,0,1.3,0,1.9c0.2,0,0.3,0,0.4,0c0.3,0,0.4-0.1,0.4-0.4c0-0.2,0-0.5,0-0.7
			C-94.2,107-94.4,106.9-95.1,106.9z"/>
		<path class="st0" d="M-129.9,109.8c0,0.8,0,1.6,0,2.4c-0.1,0.8-0.4,1.4-1.1,1.8c-0.4,0.2-0.9,0.4-1.4,0.4c-0.7,0.1-1.4,0-2-0.2
			c-0.4-0.1-0.8-0.4-1.1-0.7c-0.3-0.3-0.5-0.7-0.5-1.2c-0.1-1.6-0.1-3.2,0-4.8c0-0.7,0.4-1.3,1-1.7c0.5-0.3,1-0.4,1.6-0.5
			c0.7-0.1,1.4,0,2.1,0.3c0.9,0.4,1.4,1,1.4,2C-129.9,108.3-129.9,109-129.9,109.8z M-132.6,110c0-0.8,0-1.5,0-2.2
			c0-0.2,0-0.5,0-0.7c0-0.2-0.1-0.3-0.4-0.3c-0.2,0-0.4,0.1-0.4,0.3c0,0.2-0.1,0.4-0.1,0.6c0,1.4,0,2.8,0,4.2c0,0.2,0,0.4,0,0.6
			c0,0.3,0.1,0.3,0.4,0.3c0.3,0,0.4-0.1,0.4-0.3c0-0.1,0-0.1,0-0.2C-132.6,111.5-132.7,110.6-132.6,110z"/>
		<path class="st0" d="M-89,109.8c0-0.8,0-1.5,0-2.3c0-0.9,0.5-1.6,1.3-1.9c0.7-0.3,1.4-0.4,2.2-0.3c0.5,0,1,0.1,1.4,0.3
			c0.6,0.3,1.1,0.8,1.2,1.5c0.1,0.3,0.1,0.6,0.1,0.8c0,1.2,0,2.5,0,3.7c0,0.3,0,0.6-0.1,0.8c-0.1,0.6-0.5,1.1-1.1,1.4
			c-0.4,0.2-0.9,0.4-1.4,0.4c-0.7,0.1-1.3,0-2-0.2c-0.2-0.1-0.5-0.2-0.7-0.3c-0.6-0.4-1-0.9-1-1.7C-89,111.4-89,110.6-89,109.8z
			 M-86.2,109.8C-86.3,109.8-86.3,109.8-86.2,109.8c0,0.7,0,1.3,0,2c0,0.2,0,0.5,0,0.7c0,0.3,0.1,0.3,0.4,0.3c0.2,0,0.3-0.1,0.4-0.3
			c0-0.2,0.1-0.4,0.1-0.7c0-1.4,0-2.9,0-4.3c0-0.2,0-0.4,0-0.5c-0.1-0.2-0.1-0.3-0.4-0.3c-0.2,0-0.4,0.1-0.4,0.3c0,0.1,0,0.2,0,0.3
			C-86.2,108.2-86.2,109-86.2,109.8z"/>
		<path class="st0" d="M-99.8,114.1c-0.9,0-1.9,0-2.8,0c-0.1-0.5-0.1-1-0.2-1.5c-0.3,0-0.6,0-1,0c-0.1,0.5-0.1,1-0.2,1.5
			c-0.9,0-1.8,0-2.8,0c0.5-2.9,0.9-5.8,1.4-8.7c1.3,0,2.6,0,3.9,0C-100.9,108.3-100.4,111.2-99.8,114.1z M-103.2,107.7
			c0-0.1,0-0.1,0-0.2C-103.3,107.6-103.3,107.6-103.2,107.7c-0.1,0-0.1,0.1-0.1,0.1c-0.1,0.7-0.2,1.4-0.3,2.1c0,0.3-0.1,0.7-0.1,1.1
			c0.3,0,0.6,0,0.9,0C-103,109.9-103.1,108.8-103.2,107.7z"/>
		<path class="st0" d="M-108.7,109.2c-0.9,0-1.8,0-2.7,0c-0.1-0.1,0-0.2,0-0.3c0-0.5,0-1,0-1.5c0-0.1,0-0.2,0-0.3
			c0-0.3-0.1-0.4-0.4-0.4c-0.3,0-0.5,0.1-0.5,0.4c0,0.2,0,0.4,0,0.6c0,1.5,0,2.9,0,4.4c0,0.1,0,0.3,0,0.4c0.1,0.3,0.2,0.3,0.4,0.3
			c0.3,0,0.4-0.1,0.4-0.3c0-0.1,0-0.2,0-0.4c0-0.4,0-0.8,0-1.2c0-0.1,0-0.2,0-0.3c0.9,0,1.8,0,2.7,0c0,0.7,0,1.5-0.2,2.2
			c-0.1,0.4-0.4,0.6-0.7,0.9c-0.5,0.4-1,0.6-1.7,0.6c-0.8,0.1-1.6,0.1-2.4-0.2c-0.2-0.1-0.4-0.2-0.6-0.3c-0.4-0.3-0.6-0.6-0.8-1.1
			c-0.1-0.5-0.2-1-0.2-1.4c0-1.2,0-2.5,0-3.7c0-1,0.5-1.7,1.5-2.1c0.7-0.3,1.4-0.3,2.1-0.3c0.4,0,0.8,0.1,1.2,0.2
			c0.9,0.3,1.5,0.9,1.6,1.9C-108.6,108-108.7,108.6-108.7,109.2z"/>
		<path class="st0" d="M-80.2,111c0.8,0,1.7,0,2.5,0c0.1,0.2,0,0.4,0,0.7c0,0.3,0,0.5,0,0.8c0,0.2,0.1,0.3,0.3,0.4
			c0.2,0,0.4,0,0.6-0.2c0.1-0.1,0.1-0.2,0.1-0.3c0-0.3,0-0.6,0-0.8c0-0.2-0.2-0.4-0.3-0.5c-0.3-0.2-0.7-0.4-1-0.6
			c-0.4-0.2-0.7-0.4-1.1-0.6c-0.6-0.4-1-0.9-1-1.6c0-0.4,0-0.9,0.1-1.3c0.1-0.5,0.4-0.9,0.9-1.1c0.5-0.3,1.1-0.4,1.7-0.4
			c0.7,0,1.4,0,2,0.2c0.2,0.1,0.4,0.1,0.5,0.2c0.4,0.2,0.7,0.5,0.7,1c0.1,0.4,0.1,0.9,0.1,1.3c-0.8,0-1.7,0-2.5,0c0-0.2,0-0.3,0-0.5
			c0-0.2,0-0.3,0-0.5c0-0.2-0.1-0.3-0.3-0.4c-0.2,0-0.4,0-0.5,0.2c-0.2,0.4-0.1,1.1,0.3,1.3c0.2,0.1,0.4,0.2,0.6,0.3
			c0.6,0.3,1.1,0.6,1.6,0.9c0.7,0.4,1,1,1,1.8c0,0.5,0,1-0.1,1.4c-0.1,0.5-0.3,0.8-0.7,1c-0.5,0.3-1,0.4-1.6,0.5
			c-0.7,0.1-1.4,0-2-0.2c-0.1,0-0.3-0.1-0.4-0.1c-0.8-0.3-1.2-0.9-1.3-1.7C-80.2,111.9-80.3,111.5-80.2,111z"/>
		<path class="st0" d="M-127.5,111c0.8,0,1.7,0,2.5,0c0.1,0.1,0,0.2,0,0.3c0,0.4,0,0.7,0,1.1c0,0.3,0.1,0.4,0.4,0.4
			c0.3,0,0.5-0.1,0.5-0.4c0.1-0.4,0-0.7-0.1-1.1c-0.1-0.2-0.2-0.3-0.3-0.3c-0.3-0.2-0.6-0.4-1-0.6c-0.4-0.2-0.8-0.5-1.2-0.7
			c-0.7-0.4-1-1-1-1.7c0-0.4,0-0.8,0.1-1.2c0.1-0.5,0.3-0.8,0.7-1.1c0.3-0.2,0.7-0.3,1.1-0.4c0.8-0.2,1.7-0.1,2.5,0.1
			c0.1,0,0.2,0.1,0.4,0.1c0.8,0.3,1.2,0.8,1.2,1.6c0,0.3,0,0.6,0,0.9c-0.8,0-1.7,0-2.5,0c-0.1-0.1,0-0.2,0-0.3c0-0.2,0-0.4,0-0.6
			c0-0.2-0.1-0.3-0.3-0.3c-0.2,0-0.4,0-0.5,0.2c-0.2,0.4-0.1,1.1,0.2,1.3c0.2,0.1,0.4,0.2,0.5,0.3c0.6,0.3,1.1,0.6,1.6,0.9
			c0.7,0.5,1.1,1.1,1.1,2c0,0.4,0,0.8,0,1.3c-0.1,0.5-0.3,0.9-0.8,1.1c-0.5,0.3-1,0.4-1.5,0.5c-0.7,0.1-1.4,0-2.1-0.2
			c-0.1,0-0.3-0.1-0.4-0.2c-0.7-0.3-1.1-0.8-1.2-1.6C-127.5,111.9-127.5,111.5-127.5,111z"/>
		<path class="st0" d="M-108.2,36.4c0.2,0,0.2-0.1,0.2-0.2c0.2-0.3,0.4-0.5,0.8-0.6c0.7-0.3,1.3-0.7,1.9-1c0.6-0.3,1.3-0.6,2-0.7
			c0.6-0.1,0.9,0.1,1.2,0.6c0.1,0.1,0.1,0.3,0.2,0.5c0.2,0.9,0.4,1.8,0.5,2.8c0,0.1,0,0.3,0,0.4c-0.1,0-0.1,0-0.2-0.1
			c-0.1-0.2-0.3-0.2-0.5-0.1c-0.2,0.1-0.3,0.2-0.3,0.4c0,0.1,0,0.3,0,0.4c0,0.1,0,0.3-0.1,0.4c-0.1,0-0.2-0.1-0.2-0.2
			c-0.2-0.8-0.6-1.5-0.9-2.3c0,0,0-0.1,0-0.1c-0.2-0.5-0.4-0.6-0.9-0.3c0,0.1,0.1,0.2,0.2,0.3c0.4,0.5,0.8,1.1,0.9,1.8
			c0.1,0.6,0.1,1.3-0.2,1.9c-0.2,0.5-0.6,0.8-1.1,1c-0.9,0.3-1.7,0.2-2.4-0.5c-0.6-0.6-0.9-1.4-1.1-2.3c-0.1-0.4-0.1-0.8,0-1.2
			c0.1-0.3,0-0.4-0.3-0.4c-0.4-0.1-0.8-0.2-1.1-0.5c-0.6-0.4-0.8-1.1-0.6-1.8c0.2-0.8,0.8-1.4,1.6-1.8c0.1-0.1,0.3-0.1,0.4-0.1
			c0.2,0,0.4,0.2,0.4,0.4c0,0.3-0.1,0.5-0.2,0.7c-0.2,0.2-0.4,0.4-0.6,0.5c-0.2,0.2-0.4,0.3-0.5,0.5c-0.3,0.4-0.3,0.7,0,1
			C-109,35.9-108.6,36.2-108.2,36.4z"/>
		<path class="st0" d="M-112,21.5c0,0.2,0.1,0.3,0.2,0.5c0.2,0.4,0.4,0.9,0.5,1.4c0.3,1.1,0.8,2.2,1.5,3.1c0.2,0.2,0.4,0.4,0.5,0.6
			c0.2,0.3,0.2,0.4-0.1,0.6c-0.1,0.1-0.2,0.2-0.2,0.3c-0.5,1.4-1,2.7-1.5,4.1c-0.2,0.5-0.4,1-0.6,1.5c-0.1,0-0.2,0-0.3-0.1
			c0.7-2,1.4-3.9,2.2-5.9c-0.1-0.1-0.3-0.2-0.4-0.4c-0.1,0.2-0.3,0.1-0.4,0c0.2-0.2,0.1-0.3-0.1-0.5c-0.7-0.7-1.2-1.6-1.6-2.5
			c-0.2-0.5-0.3-0.5-0.7-0.1c-0.2,0.3-0.5,0.5-0.7,0.8c-0.6,0.7-0.9,1.6-1,2.5c-0.1,0.9,0,1.8,0.1,2.7c0.1,0.5,0.1,1.1,0.2,1.6
			c-0.1,0-0.2-0.1-0.2-0.2c-0.2-0.3-0.4-0.6-0.6-0.9c0-0.1-0.1-0.1-0.1-0.2c-0.2-0.2-0.4-0.3-0.7-0.3c-0.3,0-0.5,0.2-0.6,0.5
			c-0.1,0.3-0.1,0.7-0.2,1c0,0.1,0,0.2,0,0.3c0,0,0,0,0,0c0-0.4-0.1-0.9-0.1-1.3c-0.1-1.1-0.2-2.2-0.2-3.3c0-2.6,1-4.6,3.3-5.9
			c0.2-0.1,0.5-0.2,0.7-0.3c0.4-0.1,0.7-0.1,0.9,0.3c0,0,0,0.1,0.1,0.1c-0.1-0.4-0.1-0.8,0.2-1.1c0.2-0.2,0.4-0.3,0.6-0.3
			c0.5-0.1,1,0.2,1.1,0.6c0.2,0.5,0,1-0.4,1.3C-110.9,22.2-111.4,22.1-112,21.5z"/>
		<path class="st0" d="M-95.3,28.4c0.3,0.3,0.4,0.7,0.5,1.1c0.1,1.2-0.2,2.3-0.8,3.4c-0.3,0.6-0.7,1.1-1.1,1.6c-0.4,0.5-0.7,1-1,1.6
			c-0.2,0.4-0.4,0.8-0.4,1.2c-0.1,0.9,0.5,1.6,1.3,1.7c0.8,0.1,1.5-0.2,2-0.9c0.1-0.1,0.2-0.3,0.3-0.4c0.1,0.2,0,0.4,0,0.7
			c-0.2,0.8-0.7,1.4-1.4,1.9c-0.7,0.4-1.4,0.6-2.2,0.7c-0.9,0.1-1.7,0.1-2.6,0c-0.3,0-0.3-0.1-0.4-0.4c-0.1-0.9-0.1-1.8,0.2-2.7
			c0.3-1,0.8-1.9,1.5-2.7c0.6-0.7,1.2-1.4,1.8-2c0.5-0.5,1-1.1,1.4-1.7c0.6-0.8,0.9-1.7,0.9-2.7C-95.4,28.6-95.4,28.5-95.3,28.4
			C-95.4,28.4-95.3,28.4-95.3,28.4z"/>
		<path class="st0" d="M-97.8,50.1c0.2-0.6,0.4-1.1,0.6-1.6c0.1,0,0.2,0.1,0.2,0.1c1.2,0.9,2.4,1.8,3.5,2.9c1.2,1.2,2.1,2.7,2.6,4.4
			c0.3,1.2,0.3,2.4-0.1,3.6c-0.3,0.8-0.8,1.4-1.5,1.8c-0.1,0-0.2,0.1-0.3,0.1c0-0.3,0-0.5,0-0.8c0.1-1.5-0.2-2.8-0.7-4.2
			c-0.5-1.6-1.4-3-2.5-4.3C-96.6,51.4-97.2,50.7-97.8,50.1z"/>
		<path class="st0" d="M-128.4,47.9c-0.2-0.7-0.2-1.4,0.1-2c0.4-1.1,1.1-1.9,2-2.6c1-0.7,2.1-1.1,3.2-1.3c1.5-0.3,2.9-0.3,4.5-0.2
			c0.3,0.8,0.7,1.6,1,2.5c-0.1,0.1-0.2,0.1-0.3,0.1c-1,0-2.1,0-3.1,0.2c-1.3,0.1-2.5,0.4-3.7,0.9c-0.8,0.3-1.5,0.8-2.1,1.3
			c-0.4,0.4-0.8,0.7-1.3,1.1C-128.2,47.8-128.3,47.8-128.4,47.9z"/>
		<path class="st0" d="M-118.2,38c0.3-0.1,0.6,0,0.8,0.1c0.4,0.1,0.9,0.3,1.3,0.5c1.5,0.6,2.9-0.7,3.2-1.7c0.2-0.6,0.1-1.2,0-1.8
			c-0.2-0.8-0.4-1.7-0.6-2.5c-0.1-0.2-0.2-0.4,0-0.7c0.1,0.1,0.1,0.2,0.2,0.3c0.9,1.8,1.7,3.7,2.4,5.6c0.4,1.1,1.1,2.1,2.1,2.8
			c0.3,0.2,0.6,0.4,1,0.5c0.1,0,0.2,0.1,0.3,0.1c0,0.1-0.1,0.1-0.2,0.1c-3.6,0.7-6.7-0.2-9.6-2.4c-0.3-0.2-0.6-0.5-0.8-0.8
			C-118.1,38.1-118.2,38.1-118.2,38z"/>
		<path class="st0" d="M-142.5,105.4c0.9,0,1.8,0,2.7,0c0,1.2,0,2.3,0,3.5c0,1.2,0,2.3,0,3.5c0.6,0,1.1,0,1.6,0c0,0.6,0,1.2,0,1.8
			c-1.4,0-2.9,0-4.3,0C-142.5,111.2-142.5,108.3-142.5,105.4z"/>
		<path class="st0" d="M-106.1,26.2c-1.1-0.9-1.9-2.1-2.4-3.5c-0.7-1.8-0.9-3.6-0.6-5.6c0.2,0.1,0.3,0.3,0.3,0.4
			c0.1,0.3,0.2,0.7,0.3,1.1c0,0.2,0.1,0.3,0.2,0.5c0.3,1,1.4,1.3,2.2,1c0.4-0.1,0.7-0.4,1-0.7c0.3-0.3,0.6-0.7,0.8-1.1
			c0.3-0.5,0.7-1,1-1.6c0.1-0.1,0.2-0.3,0.3-0.3c0,0.1,0,0.2-0.1,0.3c-0.7,1.7-1.5,3.4-2.4,5.1c-0.4,0.8-0.7,1.7-0.8,2.7
			c0,0.5,0,0.9,0.1,1.3C-106,26-106,26.1-106.1,26.2z"/>
		<path class="st0" d="M-106,11.1c0.1,0.1,0.2,0.2,0.2,0.2c0.9,1.3,1.4,2.7,1.5,4.3c0,0.7-0.1,1.3-0.3,1.9c-0.3,0.7-0.7,1.2-1.4,1.5
			c-0.7,0.3-1.2,0.2-1.6-0.4c-0.7-0.9-0.7-2-0.1-3c0.2-0.2,0.3-0.5,0.5-0.7c0.6-0.7,1-1.5,1.2-2.4C-106,12.1-106,11.6-106,11.1z"/>
		<path class="st0" d="M-109.5,78.4c1.9,0.7,3.8,1.6,5.8,2.1c0,0.4-0.1,0.7-0.1,1.1c0,0.1,0,0.3,0,0.4c0,0.4-0.3,0.7-0.7,0.7
			c-0.5,0-0.9,0-1.4,0c-0.9,0-1.7,0-2.6-0.1c-0.4,0-0.7-0.2-0.8-0.6c-0.1-1.1-0.2-2.2-0.3-3.3C-109.6,78.6-109.6,78.5-109.5,78.4z"
			/>
		<path class="st0" d="M-105,32.1c-0.3,0-0.5-0.1-0.7-0.3c-0.2-0.3-0.1-0.6,0.2-0.7c0.5-0.2,0.9-0.3,1.4-0.4
			c0.4-0.1,0.8-0.2,1.1-0.3c0.8-0.3,1.4-0.9,1.7-1.7c0.1-0.1,0.1-0.3,0-0.4c0,0,0-0.1-0.1-0.1c-0.6-0.6,0.1-2,1.1-2.1
			c0.4,0,0.7,0.1,0.9,0.5c0.4,0.9-0.1,2-1.1,2.1c-0.2,0-0.3,0.1-0.3,0.3c-0.4,1.1-1.2,2-2.3,2.6c-0.5,0.3-1,0.5-1.6,0.6
			C-104.7,32.1-104.8,32.1-105,32.1z"/>
		<path class="st0" d="M-103.9,26.3c-0.7-0.7-0.5-2.1,0.2-2.7c0.3-0.3,0.6-0.4,0.9-0.6c0.3-0.1,0.6-0.3,0.9-0.4
			c0.1-0.1,0.3-0.2,0.4-0.3c0.2-0.4,0.1-0.8-0.3-0.9c-0.2,0-0.3-0.1-0.5,0c-0.1,0-0.3,0-0.4,0.1c0-0.1,0.1-0.2,0.1-0.3
			c0.4-0.4,0.8-0.5,1.4-0.4c0.5,0.1,0.9,0.4,1,1c0.1,0.3,0,0.6-0.1,0.9c-0.2,0.3-0.4,0.6-0.6,0.8c-0.3,0.3-0.7,0.5-1,0.8
			c-0.3,0.2-0.5,0.4-0.8,0.6c-0.4,0.3-0.7,0.7-0.9,1.2C-103.8,26.1-103.8,26.2-103.9,26.3z"/>
		<path class="st0" d="M-96.5,28.1c0.1-0.7-0.2-1.2-0.6-1.8c-0.2-0.3-0.4-0.6-0.7-0.8c-0.6-0.7-1.1-1.4-1.4-2.3
			c-0.2-0.5-0.4-1.1-0.4-1.7c0.1,0,0.1,0,0.1,0.1c0.3,0.8,0.9,1.4,1.6,2c0.3,0.3,0.6,0.5,0.9,0.8c0.4,0.4,0.8,0.8,1,1.3
			c0.2,0.5,0.3,1.1,0.2,1.6C-95.9,27.7-96.1,28-96.5,28.1z"/>
		<path class="st0" d="M-116.6,36.1c-0.4,0-0.8-0.1-1.1-0.3c-0.4-0.3-0.5-0.7-0.4-1.1c0-0.1,0.1-0.2,0.2-0.3
			c0.3-0.5,0.7-0.8,1.2-1.1c0.2-0.1,0.5-0.2,0.8-0.1c0.3,0.1,0.4,0.3,0.3,0.6c-0.1,0.2-0.2,0.4-0.3,0.5c-0.2,0.2-0.4,0.5-0.5,0.7
			C-116.7,35.4-116.7,35.7-116.6,36.1z"/>
		<path class="st0" d="M-101.3,34c0-0.3,0.1-0.5,0.2-0.7c0.2-0.3,0.4-0.6,0.6-0.9c0.2-0.3,0.4-0.5,0.6-0.7c0.5-0.6,0.9-1.3,0.9-2.1
			c0.1,0,0.1,0.1,0.2,0.1c0.3,0.4,0.4,0.9,0.4,1.4c0,0.6-0.2,1.1-0.7,1.5c-0.1,0.1-0.3,0.2-0.4,0.3C-100.1,33.2-100.7,33.5-101.3,34
			z"/>
		<path class="st0" d="M-106.9,29.2c0.5,0,1.1,0.4,1.1,1.1c0,0.6-0.5,1.1-1.1,1.1c-0.7,0-1.3-0.6-1.3-1.2
			C-108.2,29.7-107.7,29.2-106.9,29.2z"/>
		<path class="st0" d="M-114.7,38.2c-0.6,0-1-0.5-1-1c0-0.6,0.5-1.1,1.1-1.1c0.6,0,1,0.5,1,1.1C-113.6,37.7-114.1,38.2-114.7,38.2z"
			/>
		<path class="st0" d="M-97.7,37.6c0-0.6,0.4-1,1-1c0.6,0,1.1,0.4,1.1,1c0,0.6-0.4,1.1-1,1.1C-97.2,38.6-97.7,38.2-97.7,37.6z"/>
		<path class="st0" d="M-112.9,26.5c0.6,0.1,0.9,0.7,0.8,1.2c0,0.2-0.1,0.3-0.2,0.5c-0.1,0.1-0.2,0.3-0.2,0.4
			c-0.1,0.1,0,0.2,0.1,0.3c0.1,0.1,0.3,0.1,0.4,0c0.1-0.1,0.2-0.2,0.3-0.2c0.1,0.1,0,0.2,0,0.2c-0.1,0.3-0.4,0.6-0.7,0.6
			c-0.3,0-0.6-0.2-0.7-0.5c-0.1-0.3,0-0.5,0-0.7c0.1-0.3,0.1-0.5,0.2-0.8C-112.9,27.3-112.8,26.9-112.9,26.5
			C-112.9,26.6-112.9,26.6-112.9,26.5z"/>
		<path class="st0" d="M-101.8,17.4c0.4,0.1,0.8,0.3,1,0.6c0.2,0.3,0.1,0.6,0,0.9c-0.2,0.3-0.4,0.5-0.7,0.6
			c-0.1,0.1-0.2,0.1-0.3,0.1c-0.2,0-0.4,0-0.5-0.2c-0.1-0.2,0-0.3,0.1-0.5c0.1-0.1,0.1-0.2,0.2-0.3
			C-101.8,18.3-101.6,17.9-101.8,17.4z"/>
		<path class="st0" d="M-103.7,27c0.2,0.2,0.3,0.4,0.4,0.6c0.1,0.3,0,0.6-0.3,0.7c-0.2,0.2-0.5,0.2-0.8,0.2c-0.1,0-0.2-0.1-0.3-0.2
			c-0.1-0.2-0.1-0.3,0-0.5c0.1-0.1,0.2-0.1,0.3-0.2C-104.1,27.6-103.8,27.4-103.7,27z"/>
		<path class="st0" d="M-98.6,27.6c0.3,0,0.5,0.2,0.5,0.4c0,0.3-0.2,0.5-0.5,0.5c-0.2,0-0.5-0.2-0.5-0.5
			C-99.2,27.8-98.9,27.6-98.6,27.6z"/>
		<path class="st1" d="M-91.5,53.5c0.1,0,0.2,0.1,0.2,0.2c0,0-0.1,0-0.1,0C-91.5,53.6-91.5,53.6-91.5,53.5
			C-91.5,53.5-91.5,53.5-91.5,53.5z"/>
		<path class="st0" d="M-112.4,67.3C-112.3,67.3-112.3,67.3-112.4,67.3c0.1,0.1,0.1,0.1,0.1,0.1C-112.3,67.3-112.3,67.3-112.4,67.3
			C-112.4,67.3-112.4,67.3-112.4,67.3z"/>
		<path class="st0" d="M-112.3,67.4C-112.3,67.4-112.2,67.4-112.3,67.4C-112.2,67.4-112.2,67.4-112.3,67.4
			C-112.2,67.4-112.2,67.4-112.3,67.4C-112.3,67.4-112.3,67.4-112.3,67.4z"/>
		<path class="st0" d="M-112.4,67.3C-112.4,67.3-112.4,67.3-112.4,67.3C-112.4,67.3-112.5,67.3-112.4,67.3
			C-112.5,67.3-112.5,67.3-112.4,67.3C-112.4,67.3-112.4,67.3-112.4,67.3C-112.4,67.3-112.4,67.3-112.4,67.3z"/>
		<path class="st1" d="M-91.6,53.4C-91.5,53.4-91.5,53.4-91.6,53.4C-91.5,53.5-91.5,53.5-91.6,53.4C-91.6,53.5-91.6,53.4-91.6,53.4
			L-91.6,53.4z"/>
		<path class="st2" d="M-79.1,76.1C-79.1,76.1-79,76.1-79.1,76.1C-79,76.1-79,76.1-79.1,76.1C-79,76.1-79,76.1-79.1,76.1
			C-79.1,76.1-79.1,76.1-79.1,76.1z"/>
		<path class="st1" d="M-91.6,53.4C-91.6,53.4-91.6,53.4-91.6,53.4C-91.6,53.4-91.6,53.4-91.6,53.4C-91.6,53.4-91.6,53.4-91.6,53.4z
			"/>
		<polygon class="st0" points="-83.7,52.8 -83.7,52.8 -83.7,52.8 		"/>
		<path class="st0" d="M-91.3,53.7c0,0,0.1,0.1,0,0.1C-91.3,53.8-91.3,53.8-91.3,53.7C-91.3,53.7-91.3,53.7-91.3,53.7z"/>
		<path class="st0" d="M-91.4,53.7c0,0,0.1,0,0.1,0c0,0,0,0,0,0C-91.3,53.7-91.3,53.7-91.4,53.7C-91.4,53.7-91.4,53.7-91.4,53.7z"/>
		<path class="st3" d="M-103.2,107.7L-103.2,107.7L-103.2,107.7c-0.1-0.1-0.1-0.1,0-0.2C-103.2,107.6-103.2,107.6-103.2,107.7z"/>
	</g>
</g>
<g id="Capa_3">
	<g>
		<g>
			<path class="st0" d="M22.9,54.3c-0.5,0.1-1,0.2-1.7,0c1-1.7,1.4-3.6,2.4-5.2c1.2-1.9,2.4-3.7,3.9-5.4c2.4-2.5,5.1-4.6,8.3-6
				c2.6-1.2,5.3-2,8-2.5c3.6-0.7,7.2-1,10.9-0.8c0.2,0,0.4,0,0.8,0.1c-0.5,0.3-0.7,0.4-1,0.5c-1.6,0.8-1.8,2.1-0.4,3.3
				c2.2,1.9,4.8,2,7.5,1.8c3.4-0.2,6.6-1.5,9.5-3.3c0.3-0.2,0.5-0.4,0.9-0.4c0.2,0.5-0.3,0.8-0.5,1.2c-1.1,2.1-0.4,3.9,1.8,4.7
				c2.8,1,5.6,1.1,8.4-0.4c2.6-1.3,5.3-2.5,7.9-3.8c3.3-1.6,6.6-3.3,9.9-4.9c0.7-0.4,1.5-0.7,2.4-1c-0.2,0.7-0.4,1.3-0.6,2
				c1.1,0,1.8-0.7,2.6-1c4-1.9,8-3.9,12-5.9c0.5-0.2,1-0.5,1.1-1.2c0.1,0,0.3,0,0.4,0c-0.1,1.3-1.1,2-1.7,2.9
				c-0.5,0.7-1,1.4-1.5,2.4c1.6-0.5,3-1,4.5-1.3c0.4-0.1,0.9-0.3,1.3,0.1c-0.1,0.4-0.4,0.4-0.7,0.5c-2,0.8-3.9,1.9-5.7,3.3
				c-0.8,0.6-1.6,1.4-2.7,1.8c0.4-1.2,1.4-1.8,1.6-2.9c-8,3.8-14.9,9-22.2,13.9c2.4-0.4,4.7-1.5,7.4-1.7c-0.6,0.3-0.9,0.4-1.3,0.6
				c-3.9,1.7-7.9,3.2-12,4.3c-0.7,0.5-1.4,0.4-2.2,0.4c0-0.1,0-0.1,0-0.2c-0.2-0.4-0.5-0.3-0.8-0.2c-1.5,0.1-3,0.2-4.5,0.1
				c1-0.1,2-0.3,3-0.4c2.1-0.2,4.1-0.5,5.9-1.5c2.9-1.6,5.4-3.8,8.3-5.6c3.6-2.3,7.2-4.8,10.8-7.3c0.7-0.5,1.4-1,2-1.5
				c-2,0.2-3.6,1.1-5.3,1.9c-0.7,0.3-1.4,0.5-1.9-0.4c-1.2,0.6-2.1,1.5-3.1,2.2c-3.4,2.2-6.6,4.8-10.7,5.8c-1.9,0.5-2.4,0.5-3.5-1
				c-0.4,0.4-0.9,0.8-1.4,1.2c-1.1,1-2,1-3.1,0c-0.2-0.2-0.4-0.3-0.8-0.2c-2.3,0.9-4.6,1.7-6.8,2.7c-0.7,0.3-1.3,0.4-2,0.4
				c0.2-0.5,0.4-0.8,0.6-1.2c0.2-0.6,0.9-1.3,0.2-1.9c-0.6-0.5-1.3-0.1-1.9,0.2c-2.7,1.2-5.5,2.2-8.3,2.9c-3.3,0.8-6.7,1.5-10.2,1.5
				c-2.1,0-4.2,0-6.4-0.2c-3.7-0.3-7.3,0.3-10.8,1.4c-0.3,0.1-0.5,0.3-0.9,0.1c3.4-3.4,7.7-4.8,12.1-5.9c2.4-0.6,5-0.7,7.6-0.8
				c1.7-0.1,3.5-0.1,5.2-0.1c1.1,0,1.3-0.4,1-1.4c-0.3-1-1.1-1.1-1.9-1.2c-1.9-0.1-3.8,0.1-5.8-0.2c-1.5-0.2-2-1-1.2-2.3
				c0.4-0.6,1.1-0.9,1.3-1.7c-1,0.2-1.8,0.3-2.7,0.4c-4.9,0.8-9.2,2.9-13.1,5.8c-2.6,1.9-4.8,4-6.9,6.5c-1.3,1.6-2.6,3.2-3.8,4.8
				c-0.2,0.3-0.6,0.5-0.3,0.9C22.2,54.4,22.6,54.3,22.9,54.3z"/>
			<path class="st0" d="M20.6,56.6c0.4-0.2,0.9-0.4,1.4-0.4c7.9,0,15.8,0,23.6,0c0.2,0,0.5,0,0.7,0.1c0.1,0.4-0.2,0.4-0.4,0.5
				c-1.4,0.7-3,1.1-4.5,1.1c-4.6,0-8.8,4-9.7,8.5c-0.8,4.2-0.9,8.5-0.5,12.8c0.4,4.6,1.3,9.1,2.2,13.6c0.4,1.7,0.9,3.4,1.3,5.2
				c0.1,0.4,0.3,0.9,0.1,1.5c-1.2-1.7-2.1-3.5-3-5.3c-1.4-2.6-2.7-5.2-3.8-7.9c-2.7-7.2-5.5-14.4-6.8-22c-0.1-0.8,0.2-1.6-0.5-2.3
				C20.6,60.2,20.6,58.4,20.6,56.6z"/>
			<g>
				<path class="st0" d="M48.6,48.9h-0.5c-2,0-4,0-6-0.2c-0.6-0.1-1.2-0.1-1.8-0.1c-2.7,0-5.5,0.5-8.7,1.4c0,0-0.1,0-0.1,0
					c-0.2,0.1-0.4,0.2-0.8,0.2c-0.3,0-0.5-0.1-0.8-0.2c-0.2-0.1-0.4-0.4-0.4-0.6c0-0.3,0.1-0.5,0.2-0.7c3.5-3.6,7.9-5,12.5-6.2
					c2.4-0.6,5-0.8,7.8-0.8c0.8,0,1.6-0.1,2.4-0.1c0.9,0,1.9,0,2.8-0.1c0.1,0,0.2,0,0.3,0c0-0.1-0.1-0.2-0.1-0.3
					c-0.1-0.3-0.3-0.5-1.1-0.6c-0.6,0-1.3,0-1.9,0c-1.3,0-2.6,0-3.9-0.2c-1.3-0.2-1.9-0.8-2.1-1.3c-0.2-0.5-0.4-1.3,0.3-2.4
					c0-0.1,0.1-0.1,0.1-0.1c-0.2,0-0.4,0.1-0.6,0.1c-4.5,0.8-8.7,2.6-12.8,5.6c-2.4,1.8-4.7,3.9-6.8,6.3c-1.1,1.3-2.4,2.9-3.6,4.6
					c0,0,0.1,0,0.1,0h0c7.4-0.4,17.1-1.3,26.5-4.1c0.2-0.1,0.4-0.1,0.5-0.2c0.2-0.1,0.4-0.2,0.6-0.3c-0.7,0.1-1.4,0.1-2.2,0.1
					L48.6,48.9z"/>
				<path class="st0" d="M99.4,36.5c-0.4,0.2-0.8,0.5-1.1,0.8c-0.4,0.3-0.9,0.7-1.3,1c-0.8,0.5-1.6,1-2.4,1.6
					c-2.6,1.7-5.3,3.5-8.5,4.4c-0.8,0.2-1.4,0.3-1.9,0.3c-0.8,0-1.4-0.3-1.9-0.9c-0.2,0.2-0.4,0.4-0.7,0.6c-0.7,0.7-1.4,1-2.1,1
					s-1.4-0.3-2.1-1c-0.6,0.2-1.3,0.5-1.9,0.7c-1.6,0.6-3.2,1.2-4.8,1.9c-0.8,0.4-1.5,0.5-2.3,0.5c0,0,0,0-0.1,0
					c-0.3,0-0.5-0.1-0.7-0.4c-0.2-0.3-0.2-0.6-0.1-0.9c0.1-0.2,0.2-0.3,0.2-0.4c0.1-0.2,0.2-0.5,0.3-0.7c0.1-0.2,0.2-0.3,0.2-0.5
					c0.1-0.1,0.2-0.3,0.2-0.4l0,0c0,0,0,0-0.1,0c-0.2,0-0.4,0.1-0.7,0.2c-0.1,0-0.1,0.1-0.2,0.1c-2.9,1.3-5.7,2.2-8.5,2.9
					c-1.9,0.5-4.2,1-6.6,1.3c0.2,0.1,0.5,0.1,0.7,0.3c1.3,0.5,2.6,0.5,4,0.6c0.6,0,1.3,0.1,1.9,0.1c1.6,0.2,3.3,0.3,5.6,0.3
					c0.9,0,1.8,0,2.7,0h0.4c2.1,0,4.3-0.2,6.3-0.4c0.9-0.1,1.9-0.2,2.8-0.2c0.3-0.1,0.6-0.1,0.9-0.1c0.7-0.1,1.4-0.2,2.1-0.3
					c1.9-0.2,3.9-0.5,5.6-1.4c1.7-0.9,3.3-2.1,4.8-3.2c1.1-0.8,2.2-1.6,3.4-2.4c2.6-1.6,5.2-3.4,7.7-5.2c-0.2,0.1-0.5,0.1-0.7,0.1
					C100.3,36.9,99.8,36.8,99.4,36.5z"/>
				<g>
					<path class="st0" d="M48.6,48.9h-0.5c-2,0-4,0-6-0.2c-0.6-0.1-1.2-0.1-1.8-0.1c-2.7,0-5.5,0.5-8.7,1.4c0,0-0.1,0-0.1,0
						c-0.2,0.1-0.4,0.2-0.8,0.2c-0.3,0-0.5-0.1-0.8-0.2c-0.2-0.1-0.4-0.4-0.4-0.6c0-0.3,0.1-0.5,0.2-0.7c3.5-3.6,7.9-5,12.5-6.2
						c2.4-0.6,5-0.8,7.8-0.8c0.8,0,1.6-0.1,2.4-0.1c0.9,0,1.9,0,2.8-0.1c0.1,0,0.2,0,0.3,0c0-0.1-0.1-0.2-0.1-0.3
						c-0.1-0.3-0.3-0.5-1.1-0.6c-0.6,0-1.3,0-1.9,0c-1.3,0-2.6,0-3.9-0.2c-1.3-0.2-1.9-0.8-2.1-1.3c-0.2-0.5-0.4-1.3,0.3-2.4
						c0-0.1,0.1-0.1,0.1-0.1c-0.2,0-0.4,0.1-0.6,0.1c-4.5,0.8-8.7,2.6-12.8,5.6c-2.4,1.8-4.7,3.9-6.8,6.3c-1.1,1.3-2.4,2.9-3.6,4.6
						c0,0,0.1,0,0.1,0h0c7.4-0.4,17.1-1.3,26.5-4.1c0.2-0.1,0.4-0.1,0.5-0.2c0.2-0.1,0.4-0.2,0.6-0.3c-0.7,0.1-1.4,0.1-2.2,0.1
						L48.6,48.9z"/>
					<path class="st0" d="M100.6,36.9c-0.3,0-0.8-0.1-1.2-0.4c-0.4,0.2-0.8,0.5-1.1,0.8c-0.4,0.3-0.9,0.7-1.3,1
						c-0.8,0.5-1.6,1-2.4,1.6c-2.6,1.7-5.3,3.5-8.5,4.4c-0.8,0.2-1.4,0.3-1.9,0.3c-0.8,0-1.4-0.3-1.9-0.9c-0.2,0.2-0.4,0.4-0.7,0.6
						c-0.7,0.7-1.4,1-2.1,1s-1.4-0.3-2.1-1c-0.6,0.2-1.3,0.5-1.9,0.7c-1.6,0.6-3.2,1.2-4.8,1.9c-0.8,0.4-1.5,0.5-2.3,0.5
						c0,0,0,0-0.1,0c-0.3,0-0.5-0.1-0.7-0.4c-0.2-0.3-0.2-0.6-0.1-0.9c0.1-0.2,0.2-0.3,0.2-0.4c0.1-0.2,0.2-0.5,0.3-0.7
						c0.1-0.2,0.2-0.3,0.2-0.5c0.1-0.1,0.2-0.3,0.2-0.4l0,0c0,0,0,0-0.1,0c-0.2,0-0.4,0.1-0.7,0.2c-0.1,0-0.1,0.1-0.2,0.1
						c-2.9,1.3-5.7,2.2-8.5,2.9c-1.9,0.5-4.2,1-6.6,1.3c0.2,0.1,0.5,0.1,0.7,0.3c1.3,0.5,2.6,0.5,4,0.6c0.6,0,1.3,0.1,1.9,0.1
						c1.6,0.2,3.3,0.3,5.6,0.3c0.9,0,1.8,0,2.7,0h0.4c2.1,0,4.3-0.2,6.3-0.4c0.9-0.1,1.9-0.2,2.8-0.2c0.3-0.1,0.6-0.1,0.9-0.1
						c0.7-0.1,1.4-0.2,2.1-0.3c1.9-0.2,3.9-0.5,5.6-1.4c1.7-0.9,3.3-2.1,4.8-3.2c1.1-0.8,2.2-1.6,3.4-2.4c2.6-1.6,5.2-3.4,7.7-5.2
						C101.1,36.9,100.9,36.9,100.6,36.9z"/>
				</g>
			</g>
			<path class="st0" d="M100.3,70.5c-1,0-2,0-3.2,0c1.6-3,3.9-4.7,7.1-5.3c0.9-0.2,1.8-0.2,2.7-0.2c4,0,7.9,0,11.9,0
				c0.7,0,1.3,0,1.9,0.2c2.7,0.6,4.1,2.8,3.1,5.4c-1.6,4.3-3.3,8.7-5.4,12.7c-0.6,1.2-1.6,2-2.9,2.4c-1.3,0.5-2.7,0.7-4.1,0.8
				c-4.7,0-9.4,0-14.1,0.1c-2.2,0-3.2-1-2.9-3.2c0.3-2.3,1.4-4.3,2-6.5c0.7-2.4,1.5-4.8,4.1-6.1C100.4,70.6,100.3,70.5,100.3,70.5z
				 M107.4,81.1L107.4,81.1c0.8,0,1.6,0,2.4,0c2.4,0.1,4-1.1,4.9-3.3c0.7-1.7,1.1-3.6,1.6-5.4c0.3-1.3-0.2-2-1.6-2
				c-2.1-0.1-4.1-0.1-6.2,0c-1.7,0.1-2.9,1-3.5,2.6c-0.5,1.3-1,2.6-1.5,3.9c-0.3,0.9-0.6,1.7-0.6,2.7c0,1,0.4,1.5,1.5,1.5
				C105.4,81.1,106.4,81.1,107.4,81.1z"/>
			<path class="st0" d="M72.4,70.4c-1.3,0-2.3,0-3.4,0c0.7-1.8,1.3-3.5,1.9-5.2c0.1-0.4,0.4-0.3,0.7-0.3c6.7,0,13.3-0.1,20,0.1
				c3.2,0.1,4.7,2.3,3.7,5.3c-1.2,3.9-3.5,6.7-8,7.6c2.1,1.3,1.5,3,0.9,4.7c-0.4,1.3-0.8,2.5-1.2,3.8c-1.9,0-3.9,0-5.8,0
				c0.4-1.1,0.8-2.2,1-3.4c0.4-1.6-0.1-2.2-1.7-2.2c-2.2,0-4.3,0-6.5,0c-0.6,1.7-1.2,3.4-1.8,5c-0.2,0.4-0.3,0.7-0.9,0.7
				c-2.1,0-4.2,0-6.5,0c0.5-1.5,1-2.8,1.5-4.2c0.9-2.5,1.8-5,2.6-7.6c0.4-1.2,0.9-2.3,2-3C71.4,71.4,71.8,71,72.4,70.4z M75.9,75.6
				c1.9,0,3.6,0,5.4,0c1.1,0,2.1,0.1,3.2-0.2c1.5-0.4,2.7-1.1,3.2-2.7c0.5-1.6-0.1-2.4-1.7-2.4c-2.4-0.1-4.8,0-7.2,0
				c-0.3,0-0.6-0.1-0.8,0.3C77.2,72.2,76.6,73.9,75.9,75.6z"/>
			<path class="st0" d="M66.1,72.8c-2.4,0-4.8,0-7.2,0c0.3-2-0.1-2.5-2.2-2.5c-1.6,0-3.3,0-4.9,0c-2.3,0-3.5,0.8-4.3,2.9
				c-0.7,1.9-1.6,3.6-2,5.6c-0.3,1.6,0.2,2.2,1.9,2.2c1.5,0,3.1,0,4.6,0c2.4,0,3.2-0.7,4-2.9c2,0,3.9,0,6,0
				c-1.3,3.4-2.4,6.7-6.3,7.8c-1,0.3-2.1,0.5-3.2,0.5c-4.2,0-8.5,0-12.7,0c-2.2,0-3.3-1.2-2.8-3.3c0.8-3.4,2.2-6.7,3.3-10
				c0.1-0.3,0.4-0.5,0.6-0.7c0.7-0.6,1.4-1.1,2.1-1.8c-1.1-0.3-2.1-0.1-3.2-0.2c1.6-2.9,3.9-4.6,7-5.2c0.9-0.2,1.8-0.3,2.7-0.3
				c4,0,8,0,12,0c0.8,0,1.5,0.1,2.2,0.3c1.9,0.5,2.9,1.7,3,3.6C66.7,70.2,66.5,71.4,66.1,72.8z"/>
			<path class="st0" d="M153.7,72.8c-2.4,0-4.8,0-7.2,0c0.1-2.2-0.2-2.5-2.4-2.5c-1.7,0-3.4,0-5.1,0c-1.9,0-3.3,0.9-3.9,2.7
				c-0.7,1.7-1.5,3.4-1.9,5.2c-0.1,0.5-0.2,1-0.2,1.5c0,0.8,0.4,1.3,1.3,1.3c2.1,0,4.2,0.1,6.3-0.1c1.7-0.1,2.6-1.2,2.8-2.8
				c2,0,4,0,6.1,0c-0.8,1.9-1.4,3.8-2.6,5.4c-1.7,2.1-4,2.8-6.5,2.9c-4.4,0.1-8.8,0.1-13.1,0.1c-2.1,0-2.9-0.9-2.8-3
				c0.1-0.7,0.2-1.3,0.4-2c0.9-2.6,1.8-5.2,2.7-7.9c0.2-0.5,0.5-0.9,0.9-1.3c0.7-0.5,1.3-1.1,2.2-1.9c-1.3,0-2.2,0-3.4,0
				c1.6-2.9,4-4.7,7.1-5.3c1.1-0.2,2.1-0.2,3.2-0.2c3.8,0,7.6,0,11.3,0c0.7,0,1.3,0,1.9,0.2c2.2,0.5,3.3,1.9,3.4,4.1
				C154.3,70.4,154,71.6,153.7,72.8z"/>
			<path class="st0" d="M125.1,30.1c-0.3,0.1-0.6,0.2-0.9,0.2c-0.3,0-0.5-0.1-0.8-0.2c-0.9,0.3-1.9,0.6-3,0.8
				c-0.3,0.3-0.6,0.4-0.8,0.5c0,0-0.1,0-0.1,0.1c-1.9,0.8-3.7,1.8-5.4,3.2c-0.2,0.1-0.3,0.3-0.5,0.4c-0.6,0.5-1.4,1.1-2.3,1.5
				c-0.1,0.1-0.2,0.1-0.3,0.1c-0.2,0-0.4-0.1-0.6-0.2c-0.2-0.2-0.3-0.6-0.3-0.9c0.1-0.2,0.2-0.5,0.3-0.7c-5.3,2.8-10.2,6.2-15,9.5
				c-0.2,0.1-0.4,0.3-0.5,0.4c0.9-0.2,1.8-0.4,2.8-0.5c0,0,0.1,0,0.1,0c0.4,0,0.7,0.3,0.8,0.6c0.1,0.4-0.1,0.8-0.5,1
				c-0.2,0.1-0.4,0.2-0.5,0.3c-0.3,0.1-0.5,0.3-0.8,0.4c-1.5,0.7-2.9,1.2-4.4,1.8c0.6-0.2,1.2-0.3,1.7-0.5c0.1,0,0.2,0,0.2,0
				c0.2,0,0.5,0.1,0.7,0.3c0.2,0.3,0.3,0.6,0.1,0.9c-1.4,3.2-3.8,5.3-6.3,7.2c0.6-0.1,1.2-0.2,1.8-0.4c0.3-0.1,0.6-0.1,0.9-0.2
				c0.3-0.4,0.8-0.5,0.9-0.5c0,0,0.1,0,0.1,0c2.9-0.9,5.2-1.8,7.1-2.9c2.9-1.6,5.1-3.4,6.9-5.6c1.9-2.3,4.1-4.6,7-6.1
				c-0.4,0.1-0.7,0.2-1.1,0.2c-0.1,0-0.1,0-0.1,0c-0.2,0-0.5-0.1-0.7-0.3c-0.2-0.2-0.3-0.5-0.2-0.8c0.6-1.9,2.9-3.6,5.1-3.8
				c0.2,0,0.4,0,0.6,0c2.8,0,5.2,1.1,7.2,2.3c-0.6-1.3-1-2.7-0.8-4.2c0.2-1.7,1.2-3.1,2.9-3.9c0.1-0.1,0.3-0.1,0.4-0.2
				C126.2,29.8,125.6,29.9,125.1,30.1z"/>
			<path class="st0" d="M92.1,56.4c0.1-0.4,0.4-0.4,0.7-0.5c2.5-0.8,5-1.7,7.3-2.9c2.7-1.5,5.1-3.3,7.1-5.7c2.2-2.6,4.6-5,7.8-6.4
				c1.4-0.6,2.8-0.8,4.6-0.9c-2.6-1.6-4.9-0.4-7.3,0.1c0.5-1.6,2.5-3.1,4.4-3.2c2.9-0.2,5.4,1,7.9,2.4c0.5,0.3,0.9,0.7,1.5,0.7
				c0.3-0.5-0.1-0.8-0.3-1.1c-0.8-1.5-1.5-3-1.3-4.8c0.2-1.6,1.1-2.6,2.4-3.2c1-0.5,2.2-0.9,3.3-1.1c-0.1-0.4-0.3-0.5-0.5-0.5
				c-1.6-0.1-3.3-0.4-4.9,0.2c-0.4,0.2-0.9,0.2-1.3-0.2c6.3-2.3,12.7-2.1,19.2-0.4c-2.3,0-4.5,0-6.7,0.7c-3.3,1-5.9,2.8-6.7,6.4
				c-0.5,2.4,0.2,4.6,2,6.3c0.5,0.5,0.9,1,1.1,1.4c-2.9-0.5-6.1-0.7-9.4-0.5c-3.8,0.3-7.4,1.3-10.9,2.7c-1.7,0.7-3.3,1.7-4.6,3.1
				c-2.6,2.6-2.8,3.8-1.5,7.2c-0.8,0-1.6-0.1-2.4-0.1c-3.2-0.1-6.5,0-9.7,0.3C93.2,56.4,92.6,56.4,92.1,56.4z"/>
			<path class="st0" d="M84.3,50c0.1,0.5,0.3,0.7,0.8,0.6c0.4,0.3,0.8,0.3,1.2,0.2c1.7-0.1,3.3-0.2,5-0.7c0.4-0.1,0.8-0.2,1.4,0
				c-3.3,4.4-7.6,6.8-12.9,7.7c-5.3,0.8-10.2-0.1-14.9-2.2c-0.2-0.4,0.1-0.6,0.3-0.8c0.1-0.1,0.2-0.1,0.4-0.2c0.9,0.4,1.8,0.2,2.7,0
				c0.2,0,0.5-0.1,0.7-0.1c1.1-0.3,2.2-0.5,3.4-0.8c2.3-0.5,4.5-1.5,6.7-2.2c1.1-0.3,2-1,3.2-1.1C82.9,50.4,83.7,50.5,84.3,50z"/>
			<path class="st0" d="M82.2,50.4c-1.2,0-2.1,0.7-3.2,1.1c-2.3,0.7-4.4,1.6-6.7,2.2c-2.4,0.7-3.5,0.7-3.4,0.8
				c-0.2,0-0.5,0.1-0.7,0.1c-1.4,0.4-1.8,0.3-2.7,0c-0.1,0.1-0.2,0.1-0.4,0.2c-2.7-0.2-5.3,0.5-8.1,0.5c-2.4,0-4.9,0.2-7.3,0.3
				c-1.1,0-2.1-0.4-3.2-0.4c2.6-1.1,5.2-2.3,6.1-5.3c2,0.8,4.1,0.6,6.2,0.8c2.9,0.3,5.8,0.3,8.7,0.2c3.1-0.1,6.2-0.4,9.2-0.7
				c1.5,0.1,3,0.1,4.5-0.1c0.3,0.1,0.5,0.1,0.8,0.2C82.1,50.3,82.2,50.3,82.2,50.4z"/>
			<path class="st0" d="M135.5,30.4c3.2-0.9,6.2-1,9,0.1c1.9,0.7,3.4,2,5,3.1c1.3,0.9,2.6,1.6,4,2.1c0.3,0.1,0.7,0.2,0.5,0.7
				c-0.1,0.4-0.4,0.3-0.7,0.4c-2.9,0.5-5.6,0-8.2-1.3c-1.2-0.6-2.1-1.5-3.3-2.2C140.1,32,137.9,31.2,135.5,30.4z"/>
			<path class="st0" d="M74,41.1c3.4-1.1,6-3.5,8.9-5.4c2.6-1.7,5.4-1.6,8.3-0.5c-1.1,0.9-2.3,0.9-3.4,1.5c-1.9,1.1-3.7,2.4-5.5,3.6
				c-1.1,0.7-2.4,1.3-3.7,1.5c-1.4,0.2-2.8,0.2-4.2-0.2C74.2,41.6,74.1,41.5,74,41.1z"/>
			<path class="st0" d="M119.9,49.2c-2.2-1.4-4.6-2.2-7.2-2.2c1.5-2.5,9.8-3.4,14.4-1.5c-1.3,0-2.4-0.1-3.4,0
				C121,45.8,120.4,46.2,119.9,49.2z"/>
			<path class="st0" d="M106.1,53c-0.5-1,0.2-1.4,0.5-1.9c1.7-2.7,4.3-3.9,7.5-3c0.8,0.2,1.7,0.4,2.6,0.6c0.4,0.1,0.7,0.2,1.1,0.8
				C113.4,49.2,109.5,50.2,106.1,53z"/>
			<path class="st0" d="M156.8,33.9c-3,0.5-5.6-0.1-7.9-2.1c-0.9-0.8-2.1-1.3-3.1-2.1c2.6-0.2,5.1-0.2,7.1,1.8
				C154,32.7,155.3,33.5,156.8,33.9z"/>
			<path class="st0" d="M130.4,36.2c0.3-2.3,1.2-4.1,3.5-4.8c2.1-0.7,3.8,0.3,5.3,1.7C135.6,32.5,132.7,33.4,130.4,36.2z"/>
			<path class="st0" d="M82.1,50.2c-0.3-0.1-0.5-0.1-0.8-0.2C81.6,50,81.9,49.8,82.1,50.2z"/>
		</g>
	</g>
</g>
</svg>
