<?xml version="1.0" encoding="UTF-8"?>
<svg id="Capa_3" data-name="Capa 3" xmlns="http://www.w3.org/2000/svg" viewBox="0 0 177.4 125.4">
  <defs>
    <style>
      .cls-1 {
        fill: #fff;
        stroke-width: 0px;
      }
    </style>
  </defs>
  <path class="cls-1" d="M24.29,54.43c-.51.1-1.02.18-1.71,0,1-1.63,1.33-3.55,2.35-5.1,1.17-1.81,2.35-3.65,3.83-5.26,2.32-2.47,5-4.49,8.09-5.92,2.53-1.15,5.15-1.99,7.86-2.47,3.52-.64,7.07-.94,10.67-.82.18,0,.38.03.79.08-.46.26-.71.41-.97.54-1.58.77-1.76,2.04-.41,3.19,2.14,1.84,4.75,1.96,7.37,1.76,3.37-.23,6.43-1.48,9.31-3.19.26-.15.48-.36.84-.36.15.54-.31.82-.51,1.2-1.05,2.09-.43,3.83,1.76,4.59,2.76.94,5.46,1.05,8.19-.36,2.53-1.3,5.15-2.45,7.71-3.7,3.21-1.58,6.43-3.24,9.64-4.82.71-.36,1.48-.64,2.37-1.02-.2.71-.38,1.28-.56,1.94,1.05,0,1.79-.64,2.55-1,3.93-1.86,7.81-3.83,11.71-5.79.46-.23,1-.51,1.07-1.15h.41c-.05,1.25-1.1,1.91-1.68,2.83-.46.71-.97,1.38-1.43,2.35,1.58-.54,2.96-1.02,4.41-1.25.43-.08.87-.28,1.28.08-.1.36-.43.43-.71.54-1.99.82-3.8,1.89-5.54,3.21-.77.59-1.53,1.33-2.6,1.79.36-1.17,1.38-1.73,1.58-2.88-7.81,3.67-14.62,8.85-21.71,13.65,2.35-.43,4.57-1.43,7.22-1.63-.59.28-.92.43-1.25.59-3.83,1.66-7.73,3.09-11.76,4.21-.64.51-1.38.38-2.12.38,0-.05,0-.1-.03-.15-.2-.41-.51-.28-.79-.15-1.45.13-2.91.15-4.39.08,1-.13,1.99-.26,2.99-.38,2.02-.23,4.01-.48,5.82-1.48,2.86-1.58,5.33-3.7,8.09-5.43,3.57-2.27,7.04-4.75,10.54-7.14.69-.46,1.33-1,1.99-1.48-1.91.23-3.55,1.1-5.23,1.86-.71.33-1.38.51-1.86-.41-1.17.56-2.02,1.51-3.06,2.17-3.37,2.12-6.48,4.67-10.46,5.72-1.89.48-2.32.54-3.39-.94-.43.38-.89.74-1.33,1.15-1.1,1-1.99,1-3.06,0-.23-.2-.43-.33-.74-.2-2.25.87-4.52,1.66-6.68,2.65-.66.31-1.22.38-1.96.43.23-.46.41-.79.56-1.15.23-.59.84-1.22.2-1.81-.56-.54-1.28-.1-1.86.15-2.65,1.17-5.36,2.12-8.16,2.83-3.27.82-6.58,1.43-9.98,1.43-2.09,0-4.16,0-6.25-.18-3.6-.28-7.14.31-10.59,1.33-.26.08-.54.33-.89.1,3.29-3.37,7.58-4.67,11.84-5.79,2.37-.61,4.92-.71,7.45-.79,1.71-.05,3.42-.08,5.1-.13,1.05-.03,1.28-.36.94-1.38-.31-.94-1.07-1.12-1.89-1.15-1.89-.05-3.75.05-5.64-.18-1.48-.18-1.94-1.02-1.17-2.27.36-.59,1.05-.89,1.25-1.71-.94.15-1.79.26-2.65.41-4.77.79-9.01,2.81-12.86,5.64-2.5,1.84-4.75,3.95-6.79,6.33-1.3,1.53-2.58,3.09-3.67,4.75-.18.28-.56.51-.31.92.18.33.56.23.89.18Z"/>
  <path class="cls-1" d="M22.02,56.73c.43-.2.84-.41,1.38-.41,7.71.03,15.44,0,23.14,0,.23,0,.46.03.69.05.1.41-.2.43-.41.54-1.4.64-2.91,1.05-4.44,1.05-4.49.03-8.62,3.95-9.49,8.32-.82,4.16-.89,8.32-.51,12.5.41,4.49,1.22,8.9,2.14,13.32.36,1.71.84,3.37,1.25,5.05.1.43.33.89.08,1.48-1.15-1.71-2.04-3.44-2.96-5.15-1.38-2.53-2.68-5.08-3.67-7.76-2.63-7.04-5.36-14.06-6.66-21.51-.13-.74.15-1.61-.51-2.22-.03-1.76-.03-3.52-.03-5.26Z"/>
  <g>
    <path class="cls-1" d="M49.47,49.2h-.46c-1.91,0-3.9-.03-5.87-.18-.59-.05-1.17-.08-1.76-.08-2.63,0-5.41.46-8.55,1.38-.03,0-.05.03-.08.03-.18.08-.41.2-.74.2-.26,0-.51-.08-.74-.23-.2-.13-.36-.36-.38-.61s.05-.51.23-.69c3.42-3.5,7.73-4.85,12.22-6.02,2.4-.61,4.87-.74,7.63-.82.79-.03,1.58-.05,2.37-.05.89-.03,1.84-.03,2.73-.08.1,0,.18,0,.26-.03-.03-.08-.05-.15-.08-.26-.1-.33-.26-.54-1.12-.59-.61-.03-1.25-.03-1.86-.03-1.25,0-2.55,0-3.85-.18-1.3-.15-1.86-.77-2.09-1.22-.23-.46-.36-1.22.31-2.32.03-.05.05-.1.1-.13-.2.03-.41.08-.61.1-4.36.74-8.47,2.53-12.5,5.49-2.37,1.73-4.59,3.8-6.63,6.17-1.1,1.28-2.37,2.81-3.5,4.49.03,0,.05,0,.1.03h.03c7.27-.41,16.76-1.25,25.97-4.03.15-.05.36-.13.54-.23.2-.1.41-.18.61-.26-.69.05-1.4.08-2.12.08l-.15.05Z"/>
    <path class="cls-1" d="M99.2,37.03c-.38.23-.74.54-1.1.82-.41.33-.84.66-1.3.97-.79.48-1.56,1.02-2.32,1.53-2.55,1.71-5.18,3.47-8.37,4.29-.74.2-1.33.33-1.84.33-.79,0-1.35-.31-1.89-.89-.23.2-.43.38-.66.56-.71.64-1.4.97-2.09.97s-1.38-.31-2.09-.97c-.61.23-1.22.48-1.84.69-1.56.59-3.16,1.2-4.69,1.89-.79.36-1.48.46-2.27.51h-.05c-.28,0-.54-.13-.69-.38-.15-.26-.18-.56-.05-.84.08-.15.15-.31.2-.43.13-.23.23-.46.31-.64s.15-.33.23-.51c.05-.13.15-.31.18-.41h0s-.03-.03-.05-.03c-.15,0-.43.13-.66.23-.08.03-.13.05-.2.1-2.83,1.25-5.54,2.19-8.32,2.88-1.84.46-4.08.97-6.51,1.25.23.05.46.13.69.26,1.22.48,2.55.54,3.93.61.61.03,1.25.05,1.89.13,1.56.18,3.21.26,5.43.26.89,0,1.79,0,2.65-.03h.36c2.07-.03,4.18-.23,6.2-.41.89-.08,1.81-.15,2.73-.23.31-.05.59-.08.89-.13.69-.1,1.38-.18,2.07-.26,1.89-.23,3.83-.46,5.51-1.38,1.63-.89,3.19-2.02,4.69-3.09,1.1-.79,2.19-1.58,3.37-2.32,2.55-1.61,5.08-3.37,7.53-5.08-.23.08-.48.13-.71.13-.33.05-.77-.03-1.15-.38Z"/>
    <g>
      <path class="cls-1" d="M49.47,49.2h-.46c-1.91,0-3.9-.03-5.87-.18-.59-.05-1.17-.08-1.76-.08-2.63,0-5.41.46-8.55,1.38-.03,0-.05.03-.08.03-.18.08-.41.2-.74.2-.26,0-.51-.08-.74-.23-.2-.13-.36-.36-.38-.61s.05-.51.23-.69c3.42-3.5,7.73-4.85,12.22-6.02,2.4-.61,4.87-.74,7.63-.82.79-.03,1.58-.05,2.37-.05.89-.03,1.84-.03,2.73-.08.1,0,.18,0,.26-.03-.03-.08-.05-.15-.08-.26-.1-.33-.26-.54-1.12-.59-.61-.03-1.25-.03-1.86-.03-1.25,0-2.55,0-3.85-.18-1.3-.15-1.86-.77-2.09-1.22-.23-.46-.36-1.22.31-2.32.03-.05.05-.1.1-.13-.2.03-.41.08-.61.1-4.36.74-8.47,2.53-12.5,5.49-2.37,1.73-4.59,3.8-6.63,6.17-1.1,1.28-2.37,2.81-3.5,4.49.03,0,.05,0,.1.03h.03c7.27-.41,16.76-1.25,25.97-4.03.15-.05.36-.13.54-.23.2-.1.41-.18.61-.26-.69.05-1.4.08-2.12.08l-.15.05Z"/>
      <path class="cls-1" d="M100.35,37.47c-.33,0-.77-.1-1.15-.43-.38.23-.74.54-1.1.82-.41.33-.84.66-1.3.97-.79.48-1.56,1.02-2.32,1.53-2.55,1.71-5.18,3.47-8.37,4.29-.74.2-1.33.33-1.84.33-.79,0-1.35-.31-1.89-.89-.23.2-.43.38-.66.56-.71.64-1.4.97-2.09.97s-1.38-.31-2.09-.97c-.61.23-1.22.48-1.84.69-1.56.59-3.16,1.2-4.69,1.89-.79.36-1.48.46-2.27.51h-.05c-.28,0-.54-.13-.69-.38-.15-.26-.18-.56-.05-.84.08-.15.15-.31.2-.43.13-.23.23-.46.31-.64s.15-.33.23-.51c.05-.13.15-.31.18-.41h0s-.03-.03-.05-.03c-.15,0-.43.13-.66.23-.08.03-.13.05-.2.1-2.83,1.25-5.54,2.19-8.32,2.88-1.84.46-4.08.97-6.51,1.25.23.05.46.13.69.26,1.22.48,2.55.54,3.93.61.61.03,1.25.05,1.89.13,1.56.18,3.21.26,5.43.26.89,0,1.79,0,2.65-.03h.36c2.07-.03,4.18-.23,6.2-.41.89-.08,1.81-.15,2.73-.23.31-.05.59-.08.89-.13.69-.1,1.38-.18,2.07-.26,1.89-.23,3.83-.46,5.51-1.38,1.63-.89,3.19-2.02,4.69-3.09,1.1-.79,2.19-1.58,3.37-2.32,2.55-1.61,5.08-3.37,7.53-5.08-.23.13-.46.18-.71.18Z"/>
    </g>
  </g>
  <path class="cls-1" d="M100.04,70.3h-3.09c1.61-2.91,3.85-4.62,6.97-5.2.87-.15,1.73-.23,2.6-.23h11.61c.64,0,1.25.03,1.86.18,2.65.61,3.98,2.7,3.01,5.28-1.61,4.24-3.21,8.47-5.33,12.48-.61,1.17-1.58,1.94-2.81,2.4-1.28.48-2.63.71-3.98.74-4.59.03-9.21.03-13.83.05-2.17,0-3.11-.97-2.81-3.14.28-2.22,1.33-4.24,1.96-6.38.71-2.37,1.43-4.75,3.98-5.94-.05-.08-.1-.15-.15-.23ZM107.01,80.69h0c.79,0,1.61-.03,2.4,0,2.4.1,3.95-1.05,4.82-3.24.69-1.71,1.1-3.52,1.56-5.31.33-1.25-.23-1.94-1.56-1.96-2.02-.05-4.06-.05-6.07,0-1.71.05-2.86.97-3.47,2.55-.51,1.25-1.02,2.53-1.51,3.78-.31.84-.61,1.71-.59,2.63.03,1.02.43,1.45,1.45,1.51,1,.08,1.96.05,2.96.05Z"/>
  <path class="cls-1" d="M72.74,70.25h-3.34c.64-1.76,1.28-3.39,1.86-5.05.13-.36.41-.31.69-.31,6.53,0,13.04-.05,19.57.05,3.09.05,4.57,2.22,3.62,5.15-1.2,3.78-3.44,6.58-7.81,7.48,2.02,1.28,1.45,2.91.89,4.57-.41,1.22-.77,2.45-1.15,3.75h-5.72c.36-1.12.74-2.19,1.02-3.29.38-1.58-.1-2.17-1.68-2.17h-6.35c-.61,1.68-1.2,3.29-1.76,4.87-.15.43-.33.71-.87.69-2.07-.03-4.11,0-6.33,0,.51-1.43,1-2.78,1.45-4.16.87-2.47,1.73-4.92,2.53-7.4.38-1.2.92-2.22,1.99-2.93.41-.31.77-.69,1.38-1.25ZM76.13,75.36h5.26c1.05,0,2.09.05,3.11-.18,1.48-.36,2.6-1.1,3.09-2.63.46-1.53-.05-2.32-1.63-2.35-2.37-.05-4.75-.03-7.09,0-.26,0-.59-.1-.74.26-.64,1.56-1.28,3.16-1.99,4.9Z"/>
  <path class="cls-1" d="M66.62,72.6h-7.07c.26-1.99-.13-2.42-2.17-2.42h-4.82c-2.27,0-3.42.77-4.24,2.86-.69,1.81-1.61,3.57-1.91,5.51-.26,1.61.23,2.14,1.81,2.14h4.49c2.35-.03,3.16-.64,3.88-2.88h5.89c-1.25,3.29-2.35,6.56-6.17,7.68-1.02.28-2.04.46-3.09.46-4.16,0-8.29.03-12.45.03-2.17,0-3.24-1.15-2.78-3.27.74-3.37,2.14-6.56,3.19-9.82.1-.31.38-.48.61-.69.66-.56,1.33-1.12,2.09-1.79-1.07-.26-2.07-.05-3.16-.18,1.56-2.83,3.78-4.52,6.84-5.1.87-.18,1.73-.26,2.6-.26h11.74c.74,0,1.45.08,2.17.26,1.81.46,2.86,1.71,2.99,3.57.13,1.3-.08,2.55-.43,3.9Z"/>
  <path class="cls-1" d="M152.37,72.6h-7.07c.13-2.12-.18-2.42-2.32-2.42h-5.03c-1.89,0-3.19.92-3.85,2.68-.64,1.68-1.45,3.32-1.84,5.1-.1.48-.18.97-.15,1.45.03.77.41,1.28,1.22,1.28,2.07,0,4.11.05,6.17-.08,1.63-.1,2.53-1.15,2.78-2.78h5.97c-.74,1.89-1.35,3.75-2.58,5.28-1.63,2.04-3.9,2.78-6.38,2.81-4.29.08-8.57.05-12.86.05-2.02,0-2.86-.92-2.73-2.93.05-.66.2-1.3.43-1.94.87-2.58,1.76-5.13,2.63-7.71.18-.51.46-.92.87-1.25.66-.54,1.3-1.12,2.14-1.84h-3.34c1.61-2.88,3.88-4.59,6.97-5.18,1.05-.2,2.07-.23,3.11-.23h11.1c.64,0,1.25.03,1.86.18,2.17.48,3.27,1.81,3.34,4.06.08,1.12-.23,2.25-.46,3.47Z"/>
  <path class="cls-1" d="M124.31,30.81c-.31.1-.59.15-.84.15-.28,0-.54-.05-.79-.15-.87.33-1.81.59-2.91.77-.26.31-.61.43-.82.51-.03.03-.08.03-.1.05-1.86.77-3.6,1.79-5.33,3.09-.18.13-.33.26-.51.41-.61.51-1.33,1.07-2.27,1.48-.1.05-.23.08-.33.08-.2,0-.41-.08-.56-.2-.23-.23-.33-.56-.26-.87.08-.23.15-.46.26-.66-5.15,2.7-9.98,6.05-14.67,9.29-.18.13-.36.26-.54.36.87-.2,1.76-.38,2.76-.46h.08c.38,0,.71.26.82.61.1.38-.1.79-.46.97-.2.1-.38.18-.54.26-.28.13-.51.26-.77.36-1.45.64-2.88,1.2-4.29,1.73.56-.15,1.15-.31,1.71-.46.08-.03.15-.03.23-.03.23,0,.46.1.64.28.2.26.26.59.13.89-1.4,3.09-3.7,5.2-6.15,7.04.61-.13,1.2-.23,1.79-.36.31-.05.59-.1.89-.18.28-.38.74-.48.92-.51.03,0,.08-.03.1-.03,2.88-.87,5.08-1.76,6.97-2.81,2.81-1.56,5-3.34,6.76-5.43,1.89-2.25,4.01-4.49,6.86-6-.36.08-.71.18-1.1.23h-.13c-.23,0-.46-.1-.64-.28-.2-.23-.26-.51-.18-.79.56-1.89,2.86-3.57,5-3.7.18,0,.38-.03.56-.03,2.76,0,5.1,1.1,7.09,2.22-.59-1.28-1.02-2.6-.82-4.16.2-1.71,1.2-3.04,2.86-3.83.13-.05.26-.13.38-.18-.69.03-1.28.13-1.81.33Z"/>
  <path class="cls-1" d="M92.06,56.5c.05-.41.41-.41.71-.48,2.47-.74,4.92-1.63,7.14-2.88,2.6-1.45,5.03-3.27,6.99-5.61,2.14-2.55,4.47-4.92,7.65-6.28,1.35-.56,2.78-.77,4.47-.89-2.53-1.58-4.82-.36-7.12.05.48-1.56,2.45-3.01,4.26-3.09,2.88-.15,5.33,1.02,7.73,2.4.46.26.89.64,1.43.71.33-.48-.1-.74-.28-1.05-.79-1.48-1.51-2.99-1.28-4.75.18-1.53,1.05-2.53,2.37-3.16,1.02-.48,2.12-.84,3.24-1.05-.05-.41-.26-.51-.51-.54-1.61-.13-3.24-.41-4.82.15-.43.15-.89.18-1.28-.15,6.2-2.25,12.45-2.07,18.75-.41-2.22.03-4.44.03-6.58.69-3.21,1-5.82,2.73-6.58,6.28-.51,2.37.15,4.47,1.94,6.17.46.46.84,1.02,1.12,1.38-2.86-.54-6-.66-9.19-.46-3.73.26-7.27,1.25-10.67,2.68-1.63.69-3.21,1.68-4.52,3.01-2.5,2.55-2.78,3.75-1.48,7.04-.82-.03-1.61-.08-2.4-.1-3.16-.08-6.35-.03-9.52.33-.56.03-1.1,0-1.61,0Z"/>
  <path class="cls-1" d="M84.43,50.25c.08.46.33.64.79.56.36.26.77.26,1.2.23,1.63-.08,3.27-.23,4.85-.71.36-.1.74-.2,1.35,0-3.27,4.29-7.45,6.68-12.6,7.5-5.15.82-10-.13-14.62-2.17-.15-.43.13-.59.26-.82.13-.05.23-.13.36-.18.87.43,1.76.18,2.63-.03.23-.03.46-.08.69-.1,1.1-.26,2.19-.48,3.29-.74,2.27-.51,4.39-1.45,6.61-2.12,1.05-.31,1.96-1.02,3.09-1.05.71,0,1.48.13,2.12-.38Z"/>
  <path class="cls-1" d="M82.31,50.63c-1.15,0-2.04.71-3.09,1.05-2.22.66-4.34,1.61-6.61,2.12-2.32.69-3.44.66-3.29.74-.23.03-.46.08-.69.1-1.33.41-1.79.33-2.63.03-.13.05-.23.13-.36.18-2.65-.15-5.23.54-7.88.51-2.37-.03-4.77.2-7.17.26-1.05.03-2.04-.36-3.14-.36,2.55-1.12,5.13-2.22,6-5.23,1.96.79,4.06.59,6.1.82,2.83.31,5.69.26,8.55.23,3.01-.05,6.02-.41,9.03-.64,1.45.08,2.93.05,4.39-.08.26.05.54.1.79.15-.03.03,0,.08,0,.13Z"/>
  <path class="cls-1" d="M134.51,31.06c3.16-.87,6.02-1.02,8.85.08,1.81.71,3.32,1.94,4.9,3.04,1.22.87,2.58,1.53,3.95,2.09.28.13.64.18.54.64-.08.41-.41.31-.66.36-2.81.46-5.43,0-7.99-1.3-1.17-.59-2.09-1.48-3.19-2.14-1.94-1.2-4.03-1.96-6.4-2.76Z"/>
  <path class="cls-1" d="M74.35,41.52c3.32-1.07,5.87-3.44,8.73-5.28,2.53-1.63,5.26-1.53,8.14-.51-1.05.84-2.3.92-3.32,1.51-1.86,1.07-3.6,2.32-5.38,3.52-1.07.71-2.32,1.3-3.62,1.51-1.38.2-2.76.15-4.13-.18-.2-.08-.38-.13-.41-.56Z"/>
  <path class="cls-1" d="M119.28,49.48c-2.19-1.38-4.49-2.17-7.02-2.17,1.45-2.47,9.57-3.34,14.11-1.45-1.3,0-2.32-.1-3.32.03-2.76.31-3.29.69-3.78,3.6Z"/>
  <path class="cls-1" d="M105.78,53.23c-.54-.94.23-1.4.54-1.86,1.63-2.65,4.18-3.8,7.35-2.96.82.23,1.66.41,2.5.59.38.08.71.18,1.05.77-4.29-.26-8.11.66-11.43,3.47Z"/>
  <path class="cls-1" d="M155.38,34.53c-2.91.48-5.49-.05-7.76-2.04-.89-.79-2.04-1.3-3.04-2.04,2.53-.18,5-.18,6.94,1.79,1.1,1.1,2.37,1.84,3.85,2.3Z"/>
  <path class="cls-1" d="M129.51,36.73c.28-2.25,1.2-4.03,3.39-4.75,2.04-.66,3.67.31,5.18,1.66-3.42-.51-6.33.33-8.57,3.09Z"/>
  <path class="cls-1" d="M82.28,50.48c-.26-.05-.54-.1-.79-.15.28-.1.59-.26.79.15Z"/>
</svg>