<?xml version="1.0" encoding="UTF-8"?>
<svg id="Capa_11" data-name="Capa 11" xmlns="http://www.w3.org/2000/svg" viewBox="0 0 177.4 125.4">
  <defs>
    <style>
      .cls-1 {
        fill: #fff;
        stroke-width: 0px;
      }
    </style>
  </defs>
  <g>
    <path class="cls-1" d="M24.13,69.78v-10.24c0-1.43-.14-2.41-.41-2.93-.41-.79-1.18-1.21-2.29-1.27-.51-.03-.77-.19-.77-.49s.2-.46.61-.46c.08,0,.21,0,.38.01.81.06,1.58.09,2.33.09.61,0,2.1-.06,4.46-.18,1.01-.05,1.89-.08,2.63-.08,3.38,0,6.05.76,8,2.28,2.23,1.73,3.34,4.03,3.34,6.88,0,1.93-.53,3.77-1.59,5.52-1.12,1.86-2.61,3.23-4.48,4.11-1.4.66-2.92.99-4.56.99-.84,0-1.92-.05-3.24-.14-.98-.08-1.76-.11-2.33-.11-1.09,0-2.14.06-3.15.17-.28.04-.52.06-.73.06-.34,0-.68-.11-.68-.39,0-.11.05-.22.14-.3.03-.02.41-.34.92-.5.91-.31,1.43-1.18,1.42-3.03ZM23.49,55.4c-.28-.13-.19.17-.12.23.15.12.79.56.94.84.17.35.19.88.21,1.39.01.24.02.68.02,1.32v11.03c0,.62-.07,1.15-.25,1.58-.27.67-.8.87-.73,1.08.02.06.12.04.21,0,.06-.02.18-.1.2-.11.39-.26.66-.52.87-.81.2-.28.33-.75.38-1.19,0-.07.09-.46.09-1.13v-11.36c0-.84-.15-1.51-.48-1.97-.33-.46-1.19-.85-1.33-.91ZM27.5,57.28v12.33c0,1.09.2,1.88.6,2.36.57.68,1.41.78,3.03.77,1.49-.01,3.8-.54,5.1-1.88,1.6-1.65,2.52-3.79,2.52-6.38,0-1.33-.19-2.6-.65-3.83-.46-1.22-1.1-2.24-1.92-3.06-1.64-1.63-3.6-2.15-6.19-2.15-.96,0-1.55.17-1.93.54-.32.31-.57.65-.57,1.29ZM34.01,55.29c-.75-.26-1.11,0-.39.23,1.41.45,2.59,1.25,3.62,2.57,1.39,1.77,2.02,4.06,2.02,6.53,0,1.98-.54,3.65-1.45,5.1-.33.52-1.04,1.42-1.93,2.01-.19.13-.12.32.11.19,1.14-.62,1.87-1.42,2.28-2,1.08-1.51,1.74-3.25,1.74-5.36,0-2.91-.86-5.37-2.67-7.21-1.07-1.08-1.93-1.58-3.32-2.07Z"/>
    <path class="cls-1" d="M47.49,71.09v-7.57c0-.68-.13-1.15-.37-1.4-.19-.2-1.31-.38-1.63-.49-.1-.03-.36-.09-.76-.17-.27-.06-.4-.17-.4-.32,0-.21.13-.31.38-.31.05,0,.13,0,.23,0,.84.09,3.09.15,3.93.15.6,0,2.68-.04,3.62-.13.09,0,.17-.01.24-.01.27,0,.4.1.4.31,0,.11-.05.2-.16.25-.03.01-.15.04-.36.08-.38.06-1.18.23-1.33.5-.14.24-.43.6-.43,1.07v7.67c.02.84.16,1.4.28,1.69.24.6,1.71.93,2.63,1,.27.03.41.12.41.29,0,.2-.14.3-.42.3-.15,0-.37-.02-.64-.05-.72-.09-2.99-.13-3.76-.13-.58,0-2.68.03-3.51.11-.08,0-.16,0-.25,0-.32,0-.48-.1-.48-.29,0-.09.04-.16.11-.21.02-.02.16-.06.43-.12.66-.17,1.86-.89,1.85-2.21ZM47.15,61.51c-.12-.03-.62,0,.08.24.29.1.48.37.57.53.13.23.2.59.2,1.09v7.83c0,.48-.12.92-.24,1.14-.14.25-.39.51-.65.71-.11.08-.13.27,0,.22.38-.14.91-.38,1.25-.86.11-.16.24-.62.25-1.26v-7.67c.02-.96-.64-1.74-1.46-1.96Z"/>
  </g>
  <g>
    <g>
      <path class="cls-1" d="M58.67,56.37c0-1.31,0-1.73-1.6-1.73v-.29h5.3c5.03,0,6.03,3.39,6.03,5.34,0,2.56-1.44,5.34-6.2,5.34h-5.13v-.29c1.6,0,1.6-.42,1.6-1.73v-6.64ZM61.37,63.68c0,.6.31.74.9.74,2.7,0,3.14-2.61,3.14-4.64,0-3.74-1.68-4.81-3.34-4.81h-.7v8.71Z"/>
      <path class="cls-1" d="M73.56,63.02c0,1.31,0,1.73,1.6,1.73v.29h-5.89v-.29c1.6,0,1.6-.42,1.6-1.73v-6.64c0-1.31,0-1.73-1.6-1.73v-.29h5.89v.29c-1.6,0-1.6.42-1.6,1.73v6.64Z"/>
      <path class="cls-1" d="M78.55,61.98l-.39.85c-.17.39-.32.71-.32,1.02,0,.77.65.84,1.49.89v.29h-3.75v-.29c1.15-.08,1.65-1.4,2.05-2.26l3.92-8.35h.17l4.13,8.92c.32.69.73,1.69,1.68,1.69v.29h-5.45v-.29c.48,0,1.32,0,1.32-.52,0-.27-.07-.39-.17-.63l-.75-1.61h-3.94ZM80.55,57.74l-1.71,3.66h3.4l-1.68-3.66Z"/>
      <path class="cls-1" d="M98.7,54.36h4.58v.29c-1.6,0-1.6.42-1.6,1.73v6.64c0,1.31,0,1.73,1.6,1.73v.29h-5.89v-.29c1.6,0,1.6-.42,1.6-1.73v-7.69l-.03.03-4.26,9.68h-.2l-4.35-9.56-.03-.03v7.98c0,.89.46,1.32,1.6,1.32v.29h-3.82v-.29c1.14,0,1.6-.44,1.6-1.32v-7.05c0-1.31,0-1.73-1.6-1.73v-.29h4.6l3.17,7.05,3.04-7.05Z"/>
      <path class="cls-1" d="M104.17,59.69c0-3.31,2.55-5.58,5.98-5.58s5.98,2.27,5.98,5.58-2.55,5.58-5.98,5.58-5.98-2.27-5.98-5.58ZM113.13,59.69c0-1.89-.37-4.97-2.99-4.97s-2.99,3.08-2.99,4.97.37,4.97,2.99,4.97,2.99-3.08,2.99-4.97Z"/>
      <path class="cls-1" d="M126.39,60.9h.03v-4.93c0-.89-.46-1.32-1.6-1.32v-.29h3.82v.29c-1.14,0-1.6.44-1.6,1.32v9.3h-.27l-7.57-8.85h-.03v7c0,.89.46,1.32,1.6,1.32v.29h-3.82v-.29c1.14,0,1.6-.44,1.6-1.32v-7.79c-.54-.66-.81-.98-1.63-.98v-.29h3.97l5.5,6.55Z"/>
      <path class="cls-1" d="M130.77,56.37c0-1.31,0-1.73-1.6-1.73v-.29h5.3c5.03,0,6.03,3.39,6.03,5.34,0,2.56-1.44,5.34-6.2,5.34h-5.13v-.29c1.6,0,1.6-.42,1.6-1.73v-6.64ZM133.47,63.68c0,.6.31.74.9.74,2.7,0,3.14-2.61,3.14-4.64,0-3.74-1.68-4.81-3.34-4.81h-.7v8.71Z"/>
      <path class="cls-1" d="M149.07,57.66h-.31c-.19-1.44-1.55-2.93-3.16-2.93-.93,0-1.88.44-1.88,1.42,0,2.18,6.08,2.27,6.08,5.84,0,2.02-1.85,3.29-3.85,3.29-.88,0-1.44-.16-2.22-.48-.17-.06-.44-.14-.63-.14-.39,0-.73.31-.85.63h-.31v-4.03h.31c.25,1.73,1.68,3.48,3.63,3.48.97,0,2.04-.55,2.04-1.56,0-2.47-5.99-2.37-5.99-5.98,0-1.81,1.63-3.06,3.45-3.06.81,0,1.34.14,2.05.48.24.11.49.24.76.24.46,0,.49-.39.58-.73h.31v3.55Z"/>
    </g>
    <g>
      <path class="cls-1" d="M60.02,72.57c0,.86,0,1.14,1.05,1.14v.19h-3.88v-.19c1.05,0,1.05-.28,1.05-1.14v-4.38c0-.86,0-1.14-1.05-1.14v-.19h3.88v.19c-1.05,0-1.05.28-1.05,1.14v4.38Z"/>
      <path class="cls-1" d="M67.67,71.17h.02v-3.25c0-.58-.3-.87-1.05-.87v-.19h2.52v.19c-.75,0-1.05.29-1.05.87v6.14h-.18l-4.99-5.84h-.02v4.62c0,.59.3.87,1.05.87v.19h-2.52v-.19c.75,0,1.05-.29,1.05-.87v-5.14c-.36-.44-.54-.65-1.07-.65v-.19h2.62l3.63,4.32Z"/>
      <path class="cls-1" d="M73.82,67.26v5.31c0,.86,0,1.14,1.05,1.14v.19h-3.88v-.19c1.05,0,1.05-.28,1.05-1.14v-5.31h-.6c-.85,0-1.32.26-1.62,1.5h-.2v-1.9h6.64v1.9h-.2c-.3-1.24-.77-1.5-1.62-1.5h-.6Z"/>
      <path class="cls-1" d="M79.59,70.13c1.29,0,1.4-.7,1.58-1.67h.2v3.72h-.2c-.18-.97-.29-1.67-1.58-1.67v1.89c0,.89,0,1.08.77,1.08,1.05,0,2.37,0,2.93-1.83h.2l-.34,2.23h-6.4v-.19c1.05,0,1.05-.28,1.05-1.14v-4.38c0-.86,0-1.14-1.05-1.14v-.19h6.2v2.08h-.2c-.32-1.57-1.09-1.68-2.55-1.68h-.62v2.87Z"/>
      <path class="cls-1" d="M86.74,72.57c0,.86,0,1.14,1.05,1.14v.19h-3.83v-.19c1.05,0,1.05-.28,1.05-1.14v-4.38c0-.86,0-1.14-1.05-1.14v-.19h4.1c1.68,0,2.78.62,2.78,1.98,0,.91-.76,1.56-1.68,1.73l1.91,2.53c.29.39.45.61.88.61v.19h-2.33l-2.38-3.21h-.5v1.88ZM86.74,70.32h.54c1.32,0,1.72-.62,1.72-1.48,0-1.12-.52-1.58-1.54-1.58h-.72v3.06Z"/>
      <path class="cls-1" d="M97.98,71.17h.02v-3.25c0-.58-.3-.87-1.05-.87v-.19h2.52v.19c-.75,0-1.05.29-1.05.87v6.14h-.18l-4.99-5.84h-.02v4.62c0,.59.3.87,1.05.87v.19h-2.52v-.19c.75,0,1.05-.29,1.05-.87v-5.14c-.36-.44-.54-.65-1.07-.65v-.19h2.62l3.63,4.32Z"/>
      <path class="cls-1" d="M101.41,71.89l-.26.56c-.11.26-.21.47-.21.67,0,.51.43.55.98.58v.19h-2.47v-.19c.76-.05,1.09-.92,1.35-1.49l2.59-5.51h.11l2.72,5.88c.21.46.48,1.12,1.11,1.12v.19h-3.59v-.19c.31,0,.87,0,.87-.34,0-.18-.04-.26-.11-.41l-.49-1.06h-2.6ZM102.73,69.09l-1.13,2.41h2.24l-1.11-2.41Z"/>
      <path class="cls-1" d="M111.25,67.26v5.31c0,.86,0,1.14,1.05,1.14v.19h-3.88v-.19c1.05,0,1.05-.28,1.05-1.14v-5.31h-.6c-.85,0-1.32.26-1.62,1.5h-.2v-1.9h6.64v1.9h-.2c-.3-1.24-.77-1.5-1.62-1.5h-.61Z"/>
      <path class="cls-1" d="M117.12,72.57c0,.86,0,1.14,1.05,1.14v.19h-3.88v-.19c1.05,0,1.05-.28,1.05-1.14v-4.38c0-.86,0-1.14-1.05-1.14v-.19h3.88v.19c-1.05,0-1.05.28-1.05,1.14v4.38Z"/>
      <path class="cls-1" d="M118.67,70.38c0-2.18,1.68-3.68,3.94-3.68s3.94,1.5,3.94,3.68-1.68,3.68-3.94,3.68-3.94-1.5-3.94-3.68ZM124.58,70.38c0-1.24-.25-3.28-1.97-3.28s-1.97,2.03-1.97,3.28.25,3.27,1.97,3.27,1.97-2.03,1.97-3.27Z"/>
      <path class="cls-1" d="M133.19,71.17h.02v-3.25c0-.58-.3-.87-1.05-.87v-.19h2.52v.19c-.75,0-1.05.29-1.05.87v6.14h-.18l-4.99-5.84h-.02v4.62c0,.59.3.87,1.05.87v.19h-2.52v-.19c.75,0,1.05-.29,1.05-.87v-5.14c-.36-.44-.54-.65-1.07-.65v-.19h2.62l3.63,4.32Z"/>
      <path class="cls-1" d="M136.54,71.89l-.26.56c-.11.26-.21.47-.21.67,0,.51.43.55.99.58v.19h-2.47v-.19c.76-.05,1.09-.92,1.35-1.49l2.59-5.51h.11l2.72,5.88c.21.46.48,1.12,1.11,1.12v.19h-3.59v-.19c.31,0,.87,0,.87-.34,0-.18-.04-.26-.11-.41l-.49-1.06h-2.6ZM137.86,69.09l-1.13,2.41h2.24l-1.11-2.41Z"/>
      <path class="cls-1" d="M149.36,73.9h-6.58v-.19c1.05,0,1.05-.28,1.05-1.14v-4.38c0-.86,0-1.14-1.05-1.14v-.19h3.96v.19c-1.13,0-1.13.28-1.13,1.14v4.23c0,1.07.08,1.07,1.25,1.07,1.47,0,1.91-.23,2.55-2.06h.22l-.28,2.47Z"/>
    </g>
    <path class="cls-1" d="M151.81,56.63c0-1.36,1.11-2.48,2.47-2.48s2.46,1.12,2.46,2.48-1.1,2.49-2.46,2.49-2.47-1.11-2.47-2.49ZM156.38,56.63c0-1.16-.91-2.14-2.1-2.14s-2.11.98-2.11,2.14.91,2.15,2.11,2.15,2.1-.94,2.1-2.15ZM155.5,58.02h-.45l-.83-1.26h-.58v1.26h-.39v-2.78h1.26c.24,0,.49.01.7.14.22.12.32.37.32.6,0,.55-.4.77-.91.78l.87,1.26ZM154.14,56.47c.71,0,.99-.06.99-.5,0-.39-.39-.44-.71-.44h-.79v.94h.51Z"/>
  </g>
  <path class="cls-1" d="M54.15,52.35l-2.03-.75-3.12-.26-3.31.3-1.8.72-1.73,1.74v.75l6.89,5.16,6.65-5.2v-.81s-1.55-1.66-1.55-1.66ZM54.04,52.64l1.05,1.48-.96-.46-.84-1.03.76.02ZM46.11,53.32l2.4.2-1.6.82-.8-1.02ZM48.73,55.88l-2.05-.04.21-1.23,1.84,1.27ZM46.6,54.41l-2.11.87-.51-1.3,1.76-.67.86,1.09ZM46.66,54.67l-.2,1.13-1.78-.26,1.97-.87ZM46.52,56.34l1.23,1.89-2.81-2.24,1.58.35ZM46.82,56.32l2.05.07-.51,2.17-1.54-2.24ZM47.13,54.49l1.89-.87,1.83.87-1.82,1.32-1.91-1.32ZM51.03,54.69l.16,1.13-1.8.06,1.64-1.19ZM51.03,54.28l-1.48-.76,2.23-.2-.74.96ZM51.34,54.41l.82-1.13,1.68.44-.31,1.52-2.19-.83ZM53.26,55.45l-1.76.33-.19-1.11,1.95.78ZM53.59,53.43l-1.25-.35.68-.41.57.76ZM45.79,52.99l-.7-.51.75-.61,3.17-.25,2.95.27.84.57-.79.55-2.98.31-3.25-.34ZM45.55,53.1l-1.29.46.61-.87.68.41ZM43.97,52.62h.64s-.99,1.26-.99,1.26l-.82.23,1.17-1.49ZM42.48,54.51l1-.38-.58.8-.43-.42ZM43.77,54.16l.4,1.22-1.07-.36.68-.85ZM43.48,55.55l.8.24.81.96-1.61-1.2ZM48.34,59.21l-2.28-1.81-.05-.29,2.4,1.94-.07.15ZM49.06,59.59l-.53-.76.49-1.93.49,1.98-.45.7ZM49.18,56.4l1.93-.09-1.42,2.24-.51-2.15ZM51.84,57.49l-2.19,1.72.14-.35,2.07-1.61-.03.24ZM50.29,58.2l1.19-1.95,1.62-.3-2.81,2.24ZM53.15,56.39l.79-.76.43-.07-1.22.83ZM53.78,55.3l.27-1.32.66.98-.94.33ZM54.95,54.89l-.54-.82.93.47-.39.35Z"/>
</svg>