<?xml version="1.0" encoding="UTF-8"?>
<svg id="Capa_1" data-name="Capa 1" xmlns="http://www.w3.org/2000/svg" viewBox="0 0 177.4 125.4">
  <defs>
    <style>
      .cls-1 {
        fill: #fff;
        stroke-width: 0px;
      }
    </style>
  </defs>
  <path class="cls-1" d="M21.41,67.3c6.17-2.76,12.62-4.33,19.17-5.53,6.54-1.2,13.13-1.97,19.86-1.69-.75-.77-1.58-1.34-2.47-1.82-2.1-1.14-4.37-1.8-6.71-2.23-4.85-.89-9.72-.83-14.6-.19-4.07.54-8.02,1.51-11.82,3.07-.09.04-.17.08-.32.03.58-.25,1.12-.5,1.67-.72.55-.23,1.11-.44,1.67-.65.57-.21,1.15-.41,1.74-.59,5.24-1.62,10.61-2.39,16.1-2.34,3.61.03,7.18.43,10.63,1.55,1.81.58,3.53,1.35,5.01,2.58.44.37.86.76,1.18,1.24.18.26.4.35.68.4.79.12,1.57.31,2.3.64.07.03.15.07.22.1,1.67.84,1.13,2.12.09,2.9.13-.43.02-.8-.28-1.11-.54-.55-1.23-.79-2.01-.99.08.6.15,1.15.07,1.7-.23,1.67-1.12,2.99-2.26,4.16-1.95,1.99-4.32,3.34-6.83,4.49-1.52.69-3.09,1.26-4.69,1.72,2.07-.74,4.1-1.58,6-2.68,1.9-1.1,3.67-2.37,4.99-4.16.72-.98,1.21-2.06,1.27-3.3.04-.77-.14-1.5-.46-2.2-.08-.17-.22-.17-.36-.19-1.43-.19-2.86-.27-4.3-.29-4.32-.05-8.62.3-12.91.85-5.26.68-10.46,1.66-15.58,3.05-2.22.6-4.41,1.29-6.55,2.15-.13.05-.26.13-.49.03Z"/>
  <path class="cls-1" d="M137.94,64.94c2.99,4.02,7.24,5.2,11.9,5.48.07.1.05.2.02.31-.02.02-.04.05-.06.05-3.64.02-7.14-.56-10.25-2.6-.92-.6-1.72-1.34-2.38-2.23-.4-.55-.89-.91-1.63-.74-.2.05-.42,0-.66,0-.07,1.34.06,2.63.08,3.97-.49-.08-.94-.1-1.45,0,.12-2.64.17-5.24,0-7.84q-.7-.1-.65-.42c.55-.05,1.11,0,1.66,0,1.13.01,2.26,0,3.4.03.52.01,1.03.14,1.49.4,1,.54,1.18,1.74.38,2.55-.5.5-1.15.74-1.87,1.01ZM135.01,61.46c-.13.62-.18,2.84-.08,3.25.14.01.28.03.43.04.97.03,1.92-.02,2.79-.51.46-.26.79-.63.82-1.19.03-.67-.37-1.16-1.16-1.42-.91-.3-1.84-.19-2.79-.16Z"/>
  <path class="cls-1" d="M84.23,69.22c1.91,1.02,3.69,2.05,5.87,2.01-.09.26-.25.23-.36.24-1.31.14-2.6.11-3.82-.49-.66-.32-1.35-.57-2-.89-.91-.45-1.84-.76-2.88-.83-.97-.07-1.85-.47-2.63-1.06-2.13-1.6-2.12-4.38.02-5.96.92-.68,1.98-1.03,3.11-1.14,1.65-.16,3.25.02,4.69.92,1.15.72,1.91,1.71,1.93,3.11.02,1.63-.89,2.69-2.24,3.45-.49.28-1.02.45-1.68.64ZM82.48,68.96c.19,0,.37,0,.56,0,2.03-.1,3.35-1.27,3.57-3.28.2-1.81-.54-3.64-2.88-4.12-.79-.16-1.59-.17-2.38-.02-1.35.25-2.39.93-2.8,2.29-.44,1.45-.33,2.85.75,4.02.85.91,1.99,1.12,3.18,1.11Z"/>
  <path class="cls-1" d="M150.15,69.19c-1.11,0-2.25-.19-3.31-.77-1.35-.75-2.05-1.91-2.03-3.45.02-1.58.77-2.77,2.2-3.43,2.15-.99,4.35-.98,6.49,0,1.47.67,2.21,1.89,2.21,3.5,0,1.59-.77,2.75-2.19,3.47-1.03.52-2.14.69-3.37.69ZM149.82,68.72c2.91,0,4.36-1.29,4.44-3.6.06-1.87-.86-3.18-2.57-3.64-.29-.08-.6-.14-.9-.16-1.34-.08-2.64.07-3.6,1.12-1.09,1.19-1.08,2.62-.65,4.08.17.57.53,1.04,1.01,1.4.8.6,1.73.79,2.28.8Z"/>
  <path class="cls-1" d="M110.68,67.65c-.59.63-1.31,1.02-2.11,1.24-1.77.5-3.51.51-5.1-.58-1.45-1-2.09-2.4-1.77-4.14.31-1.68,1.45-2.6,3.06-2.98,1.41-.33,2.83-.34,4.21.18,1.36.51,2.24,1.83,2.25,3.36h-7.81c-.37,1.7.88,3.56,2.6,3.9,1.65.33,3.12-.04,4.34-1.26.06.04.12.08.17.12.05.04.09.09.15.16ZM103.43,64.31h6.39c.11-1.18-.59-2.29-1.68-2.69-.66-.24-1.34-.29-2.04-.17-1.42.25-2.65,1.54-2.67,2.86Z"/>
  <path class="cls-1" d="M98.66,61.32c.37.04.7.09,1.05,0,.09.28-.01.55-.04.82-.11,1.32-.15,2.65-.21,3.98-.06,1.38-.82,2.29-2.09,2.74-1.69.6-3.41.56-5.1,0-1.23-.41-1.88-1.38-1.84-2.78.04-1.57.1-3.13-.03-4.76.51.03.99.1,1.51-.01-.04.72-.08,1.39-.12,2.06-.05.96-.1,1.91,0,2.87.16,1.4.79,2.08,2.19,2.35.87.17,1.75.18,2.62-.04,1.22-.3,1.93-1.11,2.03-2.41.11-1.46.07-2.92.01-4.38,0-.13,0-.26,0-.43Z"/>
  <path class="cls-1" d="M119.73,62.61c-.23.06-.26-.11-.34-.2-.85-1.05-2.19-1.41-3.33-.88-.48.22-.82.55-.85,1.11-.03.55.29.89.73,1.14.47.27.98.4,1.49.55.55.16,1.1.3,1.62.55,1.28.6,1.52,1.95.55,2.98-.58.6-1.31.89-2.12,1.03-.98.17-1.96.15-2.93-.1-.6-.16-1.05-.44-1.04-1.15,0-.19-.12-.38-.06-.58.2-.08.25.11.35.19,1.03.93,2.2,1.43,3.62,1.15.54-.11,1-.35,1.3-.84.36-.59.23-1.25-.34-1.65-.47-.32-1.01-.47-1.55-.63-.62-.19-1.26-.35-1.84-.66-.63-.33-1.05-.81-1.07-1.56-.02-.78.38-1.32,1.03-1.67,1.23-.65,2.53-.71,3.84-.31,1.16.35.93.07.95,1.3,0,.08-.02.16-.03.24Z"/>
  <path class="cls-1" d="M125.69,68.97c.19-2.48.19-4.9.08-7.37-1.18-.05-2.33.04-3.5.09v-.74c2.83.06,5.67.07,8.53,0v.74c-1.16-.06-2.31-.12-3.51-.1-.09,2.47-.11,4.9.08,7.38-.55-.03-1.08-.04-1.67,0Z"/>
  <path class="cls-1" d="M71.5,54.27v18.4c-.14.04-.21,0-.21-.12,0-.09,0-.19,0-.28,0-5.86,0-11.72,0-17.59,0-.14-.14-.39.21-.41Z"/>
  <path class="cls-1" d="M87.52,55.44c-.25,0-.46,0-.67,0-.1,0-.19-.02-.19-.15,0-.14.09-.14.19-.14.34,0,.69,0,1.03,0,.03.75-.37,1.27-1.05,1.41-.79.16-1.56-.22-1.84-.92-.27-.66,0-1.44.61-1.81.66-.4,1.58-.25,2.1.33-.12.28-.26.15-.42.04-.81-.55-1.79-.24-2.03.63-.16.6.27,1.25.92,1.41.66.16,1.22-.15,1.36-.81Z"/>
  <path class="cls-1" d="M145.26,56.59c-.84,0-1.5-.66-1.49-1.49,0-.84.66-1.49,1.5-1.49.84,0,1.5.66,1.5,1.49,0,.82-.67,1.49-1.51,1.49ZM146.42,55.1c0-.67-.49-1.17-1.14-1.17-.66,0-1.2.52-1.2,1.18,0,.64.52,1.17,1.16,1.17.67,0,1.18-.5,1.18-1.18Z"/>
  <path class="cls-1" d="M100.51,53.7c.34,0,.68-.02,1,0,.47.03.73.27.76.67.03.43-.18.7-.64.82-.08.02-.15.04-.27.06.31.41.61.79.91,1.19-.26.17-.38.01-.5-.15-.28-.36-.56-.72-.87-1.11-.28.44.13,1-.26,1.34-.04,0-.09-.02-.13-.03v-2.79ZM100.81,54.92c.4-.06.81.14,1.07-.25.1-.15.11-.35-.02-.48-.29-.3-.67-.21-1.05-.21v.94Z"/>
  <path class="cls-1" d="M115.23,53.73c0,.61,0,1.23,0,1.85,0,.33.11.57.45.67.42.12.78-.14.8-.63.02-.56.02-1.12,0-1.67,0-.2.04-.31.29-.23,0,.69.03,1.37-.01,2.06-.03.53-.44.83-.96.81-.53-.03-.87-.34-.9-.88-.03-.6,0-1.2-.01-1.79,0-.21.1-.25.32-.18Z"/>
  <path class="cls-1" d="M129.86,55.25c-.12.42.08.85-.13,1.24-.01.03-.12,0-.2,0v-2.79c.41-.02.81-.05,1.21.03.37.08.55.35.55.73,0,.36-.18.61-.54.69-.28.06-.58.07-.89.1ZM129.84,54.9c.39-.03.79.14,1.07-.23.11-.15.11-.35-.02-.48-.29-.31-.67-.21-1.05-.21v.93Z"/>
</svg>