<?xml version="1.0" encoding="utf-8"?>
<!-- Generator: Adobe Illustrator 28.3.0, SVG Export Plug-In . SVG Version: 6.00 Build 0)  -->
<svg version="1.1" id="Capa_1" xmlns="http://www.w3.org/2000/svg" xmlns:xlink="http://www.w3.org/1999/xlink" x="0px" y="0px"
	 viewBox="0 0 177.4 125.4" style="enable-background:new 0 0 177.4 125.4;" xml:space="preserve">
<style type="text/css">
	.st0{fill:#FFFFFF;}
</style>
<g>
	<path class="st0" d="M4.1,67.1c7.8-3.5,15.9-5.5,24.1-7c8.2-1.5,16.5-2.5,25-2.1c-0.9-1-2-1.7-3.1-2.3c-2.6-1.4-5.5-2.3-8.5-2.8
		c-6.1-1.1-12.2-1-18.4-0.2c-5.1,0.7-10.1,1.9-14.9,3.9c-0.1,0-0.2,0.1-0.4,0c0.7-0.3,1.4-0.6,2.1-0.9c0.7-0.3,1.4-0.6,2.1-0.8
		c0.7-0.3,1.5-0.5,2.2-0.7c6.6-2,13.4-3,20.3-2.9c4.5,0,9,0.5,13.4,1.9c2.3,0.7,4.4,1.7,6.3,3.2c0.6,0.5,1.1,1,1.5,1.6
		c0.2,0.3,0.5,0.4,0.9,0.5c1,0.2,2,0.4,2.9,0.8c0.1,0,0.2,0.1,0.3,0.1C62,60.4,61.3,62,60,63c0.2-0.5,0-1-0.4-1.4
		c-0.7-0.7-1.6-1-2.5-1.2c0.1,0.8,0.2,1.4,0.1,2.1c-0.3,2.1-1.4,3.8-2.9,5.2c-2.5,2.5-5.4,4.2-8.6,5.7c-1.9,0.9-3.9,1.6-5.9,2.2
		c2.6-0.9,5.2-2,7.6-3.4c2.4-1.4,4.6-3,6.3-5.2c0.9-1.2,1.5-2.6,1.6-4.2c0-1-0.2-1.9-0.6-2.8c-0.1-0.2-0.3-0.2-0.5-0.2
		c-1.8-0.2-3.6-0.3-5.4-0.4c-5.4-0.1-10.9,0.4-16.3,1.1C26,61.4,19.4,62.6,13,64.3C10.2,65.1,7.4,66,4.7,67
		C4.6,67.1,4.4,67.2,4.1,67.1z"/>
	<path class="st0" d="M150.9,64.1c3.8,5.1,9.1,6.6,15,6.9c0.1,0.1,0.1,0.3,0,0.4c0,0-0.1,0.1-0.1,0.1c-4.6,0-9-0.7-12.9-3.3
		c-1.2-0.8-2.2-1.7-3-2.8c-0.5-0.7-1.1-1.1-2.1-0.9c-0.3,0.1-0.5,0-0.8,0c-0.1,1.7,0.1,3.3,0.1,5c-0.6-0.1-1.2-0.1-1.8,0
		c0.2-3.3,0.2-6.6,0-9.9c-0.9-0.1-0.9-0.1-0.8-0.5c0.7-0.1,1.4,0,2.1,0c1.4,0,2.9,0,4.3,0c0.7,0,1.3,0.2,1.9,0.5
		c1.3,0.7,1.5,2.2,0.5,3.2C152.6,63.5,151.8,63.8,150.9,64.1z M147.2,59.7c-0.2,0.8-0.2,3.6-0.1,4.1c0.2,0,0.4,0,0.5,0
		c1.2,0,2.4,0,3.5-0.6c0.6-0.3,1-0.8,1-1.5c0-0.8-0.5-1.5-1.5-1.8C149.6,59.6,148.4,59.7,147.2,59.7z"/>
	<path class="st0" d="M83.2,69.5c2.4,1.3,4.7,2.6,7.4,2.5c-0.1,0.3-0.3,0.3-0.5,0.3c-1.7,0.2-3.3,0.1-4.8-0.6
		c-0.8-0.4-1.7-0.7-2.5-1.1c-1.2-0.6-2.3-1-3.6-1.1c-1.2-0.1-2.3-0.6-3.3-1.3c-2.7-2-2.7-5.5,0-7.5c1.2-0.9,2.5-1.3,3.9-1.4
		c2.1-0.2,4.1,0,5.9,1.2c1.4,0.9,2.4,2.2,2.4,3.9c0,2.1-1.1,3.4-2.8,4.4C84.7,69,84.1,69.3,83.2,69.5z M81,69.2c0.2,0,0.5,0,0.7,0
		c2.6-0.1,4.2-1.6,4.5-4.1c0.3-2.3-0.7-4.6-3.6-5.2c-1-0.2-2-0.2-3,0c-1.7,0.3-3,1.2-3.5,2.9c-0.6,1.8-0.4,3.6,0.9,5.1
		C78.1,68.9,79.5,69.2,81,69.2z"/>
	<path class="st0" d="M166.3,69.5c-1.4,0-2.8-0.2-4.2-1c-1.7-0.9-2.6-2.4-2.6-4.4c0-2,1-3.5,2.8-4.3c2.7-1.2,5.5-1.2,8.2,0
		c1.8,0.8,2.8,2.4,2.8,4.4c0,2-1,3.5-2.8,4.4C169.2,69.3,167.8,69.5,166.3,69.5z M165.9,68.9c3.7,0,5.5-1.6,5.6-4.5
		c0.1-2.3-1.1-4-3.2-4.6c-0.4-0.1-0.8-0.2-1.1-0.2c-1.7-0.1-3.3,0.1-4.5,1.4c-1.4,1.5-1.4,3.3-0.8,5.1c0.2,0.7,0.7,1.3,1.3,1.8
		C164,68.6,165.2,68.9,165.9,68.9z"/>
	<path class="st0" d="M116.6,67.5c-0.7,0.8-1.6,1.3-2.7,1.6c-2.2,0.6-4.4,0.6-6.4-0.7c-1.8-1.3-2.6-3-2.2-5.2
		c0.4-2.1,1.8-3.3,3.9-3.8c1.8-0.4,3.6-0.4,5.3,0.2c1.7,0.6,2.8,2.3,2.8,4.2c-3.3,0-6.6,0-9.8,0c-0.5,2.1,1.1,4.5,3.3,4.9
		c2.1,0.4,3.9-0.1,5.5-1.6c0.1,0.1,0.1,0.1,0.2,0.1C116.4,67.4,116.5,67.4,116.6,67.5z M107.4,63.3c2.7,0,5.4,0,8.1,0
		c0.1-1.5-0.7-2.9-2.1-3.4c-0.8-0.3-1.7-0.4-2.6-0.2C109,60,107.5,61.7,107.4,63.3z"/>
	<path class="st0" d="M101.4,59.6c0.5,0.1,0.9,0.1,1.3,0c0.1,0.4,0,0.7,0,1c-0.1,1.7-0.2,3.3-0.3,5c-0.1,1.7-1,2.9-2.6,3.4
		c-2.1,0.8-4.3,0.7-6.4,0c-1.5-0.5-2.4-1.7-2.3-3.5c0.1-2,0.1-3.9,0-6c0.6,0,1.2,0.1,1.9,0c-0.1,0.9-0.1,1.7-0.1,2.6
		c-0.1,1.2-0.1,2.4,0,3.6c0.2,1.8,1,2.6,2.8,3c1.1,0.2,2.2,0.2,3.3,0c1.5-0.4,2.4-1.4,2.6-3c0.1-1.8,0.1-3.7,0-5.5
		C101.4,59.9,101.4,59.8,101.4,59.6z"/>
	<path class="st0" d="M128,61.2c-0.3,0.1-0.3-0.1-0.4-0.3c-1.1-1.3-2.8-1.8-4.2-1.1c-0.6,0.3-1,0.7-1.1,1.4c0,0.7,0.4,1.1,0.9,1.4
		c0.6,0.3,1.2,0.5,1.9,0.7c0.7,0.2,1.4,0.4,2,0.7c1.6,0.8,1.9,2.5,0.7,3.8c-0.7,0.8-1.7,1.1-2.7,1.3c-1.2,0.2-2.5,0.2-3.7-0.1
		c-0.8-0.2-1.3-0.6-1.3-1.5c0-0.2-0.1-0.5-0.1-0.7c0.3-0.1,0.3,0.1,0.4,0.2c1.3,1.2,2.8,1.8,4.6,1.5c0.7-0.1,1.3-0.4,1.6-1.1
		c0.5-0.7,0.3-1.6-0.4-2.1c-0.6-0.4-1.3-0.6-1.9-0.8c-0.8-0.2-1.6-0.4-2.3-0.8c-0.8-0.4-1.3-1-1.3-2c0-1,0.5-1.7,1.3-2.1
		c1.5-0.8,3.2-0.9,4.8-0.4c1.5,0.4,1.2,0.1,1.2,1.6C128,61,128,61.1,128,61.2z"/>
	<path class="st0" d="M135.5,69.2c0.2-3.1,0.2-6.2,0.1-9.3c-1.5-0.1-2.9,0-4.4,0.1c0-0.3,0-0.6,0-0.9c3.6,0.1,7.1,0.1,10.7,0
		c0,0.3,0,0.6,0,0.9c-1.5-0.1-2.9-0.2-4.4-0.1c-0.1,3.1-0.1,6.2,0.1,9.3C136.9,69.1,136.2,69.1,135.5,69.2z"/>
	<path class="st0" d="M67.2,50.7c0,7.7,0,15.5,0,23.2c-0.2,0.1-0.3,0-0.3-0.2c0-0.1,0-0.2,0-0.4c0-7.4,0-14.8,0-22.2
		C66.9,51,66.8,50.7,67.2,50.7z"/>
	<path class="st0" d="M87.4,52.1c-0.3,0-0.6,0-0.8,0c-0.1,0-0.2,0-0.2-0.2c0-0.2,0.1-0.2,0.2-0.2c0.4,0,0.9,0,1.3,0
		c0,0.9-0.5,1.6-1.3,1.8c-1,0.2-2-0.3-2.3-1.2c-0.3-0.8,0-1.8,0.8-2.3c0.8-0.5,2-0.3,2.7,0.4c-0.1,0.4-0.3,0.2-0.5,0.1
		c-1-0.7-2.3-0.3-2.6,0.8c-0.2,0.8,0.3,1.6,1.2,1.8C86.5,53.4,87.2,53,87.4,52.1z"/>
	<path class="st0" d="M160.1,53.6c-1.1,0-1.9-0.8-1.9-1.9c0-1.1,0.8-1.9,1.9-1.9c1.1,0,1.9,0.8,1.9,1.9
		C162,52.7,161.2,53.6,160.1,53.6z M161.6,51.7c0-0.8-0.6-1.5-1.4-1.5c-0.8,0-1.5,0.7-1.5,1.5c0,0.8,0.7,1.5,1.5,1.5
		C160.9,53.2,161.6,52.6,161.6,51.7z"/>
	<path class="st0" d="M103.7,49.9c0.4,0,0.9,0,1.3,0c0.6,0,0.9,0.3,1,0.8c0,0.5-0.2,0.9-0.8,1c-0.1,0-0.2,0-0.3,0.1
		c0.4,0.5,0.8,1,1.1,1.5c-0.3,0.2-0.5,0-0.6-0.2c-0.4-0.5-0.7-0.9-1.1-1.4c-0.4,0.5,0.2,1.3-0.3,1.7c-0.1,0-0.1,0-0.2,0
		C103.7,52.3,103.7,51.1,103.7,49.9z M104.1,51.5c0.5-0.1,1,0.2,1.3-0.3c0.1-0.2,0.1-0.4,0-0.6c-0.4-0.4-0.8-0.3-1.3-0.3
		C104.1,50.7,104.1,51.1,104.1,51.5z"/>
	<path class="st0" d="M122.3,50c0,0.8,0,1.6,0,2.3c0,0.4,0.1,0.7,0.6,0.8c0.5,0.2,1-0.2,1-0.8c0-0.7,0-1.4,0-2.1
		c0-0.3,0.1-0.4,0.4-0.3c0,0.9,0,1.7,0,2.6c0,0.7-0.6,1.1-1.2,1c-0.7,0-1.1-0.4-1.1-1.1c0-0.8,0-1.5,0-2.3
		C121.9,49.9,122,49.9,122.3,50z"/>
	<path class="st0" d="M140.7,51.9c-0.2,0.5,0.1,1.1-0.2,1.6c0,0-0.2,0-0.3,0c0-1.2,0-2.3,0-3.5c0.5,0,1-0.1,1.5,0
		c0.5,0.1,0.7,0.4,0.7,0.9c0,0.5-0.2,0.8-0.7,0.9C141.5,51.8,141.1,51.9,140.7,51.9z M140.7,51.5c0.5,0,1,0.2,1.3-0.3
		c0.1-0.2,0.1-0.4,0-0.6c-0.4-0.4-0.8-0.3-1.3-0.3C140.7,50.7,140.7,51.1,140.7,51.5z"/>
</g>
</svg>
