<?xml version="1.0" encoding="UTF-8"?>
<svg id="Capa_7" data-name="Capa 7" xmlns="http://www.w3.org/2000/svg" viewBox="0 0 177.4 125.4">
  <defs>
    <style>
      .cls-1 {
        fill: #fff;
        stroke-width: 0px;
      }
    </style>
  </defs>
  <g>
    <path class="cls-1" d="M38.1,45.62c-.31,5.79,4.35,10.91,9.08,11.59v-11.59h-9.08Z"/>
    <g>
      <path class="cls-1" d="M47.15,57.66c-4.64,0-8.98-.59-12.73-1.61,2.55,6.24,7.3,10.43,12.74,10.43v-8.82s-.01,0-.02,0Z"/>
      <path class="cls-1" d="M34.43,56.05c-1.25-3.07-1.97-6.63-1.98-10.43h-10.77c0,4.46,5.13,8.35,12.75,10.43Z"/>
    </g>
    <g>
      <path class="cls-1" d="M21.7,63.28c4.64,0,8.98.59,12.73,1.61-2.55-6.24-7.3-10.43-12.74-10.43v8.82s.01,0,.02,0Z"/>
      <path class="cls-1" d="M34.43,64.89c1.25,3.07,1.97,6.63,1.98,10.43h10.77c0-4.46-5.13-8.35-12.75-10.43Z"/>
    </g>
    <path class="cls-1" d="M30.76,75.32c.31-5.79-4.35-10.91-9.08-11.59v11.59h9.08Z"/>
  </g>
  <g>
    <polygon class="cls-1" points="68.43 65.46 58.56 65.46 58.56 57.66 56.25 57.66 56.25 75.33 58.56 75.33 58.56 67.56 68.43 67.56 68.43 75.33 70.74 75.33 70.74 57.66 68.43 57.66 68.43 65.46"/>
    <path class="cls-1" d="M79.59,61.27c-4.19,0-6.8,2.74-6.8,7.15s2.54,7.23,6.8,7.23,6.8-2.7,6.8-7.23-2.6-7.15-6.8-7.15ZM79.59,63.26c2.91,0,4.57,1.87,4.57,5.13s-1.68,5.27-4.6,5.27-4.55-1.87-4.55-5.27,1.67-5.13,4.57-5.13Z"/>
    <path class="cls-1" d="M93.63,67.47h0c-3.07-.49-3.49-1.46-3.49-2.34,0-1.69,1.57-2.04,2.89-2.04,1.92,0,2.9.78,3.36,2.71l.02.1,2.07-.49-.03-.11c-.72-2.83-2.33-4.04-5.4-4.04s-5.08,1.48-5.08,3.95c0,2.22,1.49,3.47,4.83,4.03,2.98.5,3.89,1.06,3.89,2.4,0,1.45-1.05,2.19-3.12,2.19-3.06,0-3.89-1.71-4.26-3.2l-.02-.1-2.07.42.02.11c.48,2.15,1.62,4.62,6.3,4.62,3.45,0,5.34-1.45,5.34-4.09,0-2.28-1.58-3.51-5.27-4.12Z"/>
    <path class="cls-1" d="M107.89,61.27c-3.15,0-4.48,2.1-5.04,3.91v-3.59h-2.22v18.19h2.22v-8c.76,2.46,2.64,3.87,5.19,3.87,3.45,0,5.43-2.62,5.43-7.17s-1.98-7.2-5.58-7.2ZM111.25,68.47c0,3.49-1.33,5.19-4.05,5.19s-4.34-1.87-4.34-4.66v-1.02c0-2.88,1.66-4.66,4.34-4.66s4.05,1.64,4.05,5.16Z"/>
    <rect class="cls-1" x="115.24" y="56.67" width="2.69" height="2.25"/>
    <rect class="cls-1" x="115.48" y="61.59" width="2.19" height="13.74"/>
    <path class="cls-1" d="M135.66,61.27c-4.16,0-6.74,2.77-6.74,7.23s2.54,7.15,6.8,7.15c3.24,0,5.25-1.48,5.98-4.39l.03-.1-1.98-.58-.03.1c-.43,1.5-1.25,3.03-4,3.03s-4.36-1.63-4.57-4.58h10.57v-.1c.07-.53.07-1.12.07-1.44,0-3.96-2.29-6.33-6.13-6.33ZM135.6,63.14c2.61,0,3.95,1.39,4.1,4.23h-8.52c.31-2.77,1.84-4.23,4.42-4.23Z"/>
    <path class="cls-1" d="M151.04,61.27c-2.41,0-4.31,1.42-5.08,3.81h-.05v-3.49h-2.19v13.74h2.22v-7.9c0-2.46,1.77-4.11,4.4-4.11,2.09,0,3.15,1.18,3.15,3.5v8.51h2.22v-8.95c0-3.3-1.66-5.11-4.67-5.11Z"/>
    <path class="cls-1" d="M127.88,72.94c-.76.22-1.36.34-2.12.34-1.51,0-2.19-.76-2.19-2.45v-7.6h4.6v-1.93h-6.26c1.14-.73,1.82-1.93,1.82-3.26v-1.2h-2.35v4.46h-2.21v1.93h2.21v7.75c0,2.79,1.47,4.38,4.03,4.38,1.21,0,1.98-.17,2.83-.44l.09-.03-.33-1.98-.12.03Z"/>
  </g>
</svg>