<?xml version="1.0" encoding="UTF-8"?>
<svg id="Capa_2" data-name="Capa 2" xmlns="http://www.w3.org/2000/svg" viewBox="0 0 177.4 125.4">
  <defs>
    <style>
      .cls-1 {
        fill: #024eff;
      }

      .cls-1, .cls-2, .cls-3, .cls-4 {
        stroke-width: 0px;
      }

      .cls-2 {
        fill: #fef574;
      }

      .cls-3 {
        fill: #fff;
      }

      .cls-4 {
        fill: #9d9d9d;
      }
    </style>
  </defs>
  <path class="cls-3" d="M94.45,64.01c-2.62,0-5.09-.65-7.53-1.48-.07-.39-.14-.76-.21-1.13-.39-2.04-.96-4.02-1.69-5.96-1.14-3.01-2.24-6.02-3.47-8.99-.1-.24-.2-.47-.3-.71-.1-.24-.08-.41.06-.55.16-.15.34-.14.53-.06,1.42.6,2.88,1.04,4.38,1.36,1.09.23,2.19.39,3.3.48.78.06,1.56.11,2.35.09,1.8-.05,3.56-.36,5.28-.87.56-.17,1.11-.36,1.66-.57.08-.03.17-.07.26-.07.28,0,.48.28.4.55-.02.06-.05.12-.09.18-1.53,2.83-2.6,5.84-3.32,8.97-.52,2.27-.96,4.55-1.33,6.84-.1.63-.18,1.25-.28,1.92Z"/>
  <path class="cls-3" d="M110.32,95.32h-2.86c-.55-3.17-1.09-6.32-1.64-9.47h-.06v9.48h-4.01v-14.84h5.95c.43,2.25.75,4.53,1.21,6.78.34-2.26.69-4.51,1.04-6.78h5.98v14.83h-4.01v-9.64s-.04,0-.06,0c-.51,3.21-1.03,6.43-1.54,9.65Z"/>
  <path class="cls-3" d="M112.05,73.26c.02.07-.04.1-.07.14-1.12,1.23-2.36,2.31-3.83,3.1-.95.51-1.97.79-3.04.91-.8.09-1.61.11-2.42.12-.59,0-1.19.01-1.78,0-1.5-.05-2.97-.24-4.44-.53-3.13-.61-6.1-1.67-8.93-3.13-1.52-.78-3.06-1.51-4.55-2.35-1.9-1.06-3.67-2.31-5.2-3.88-1.17-1.2-2.23-2.5-3.27-3.82-.71-.91-1.29-1.9-1.74-2.95-.29-.67-.56-1.35-.83-2.04-.19-.49-.34-1-.42-1.52-.15-.92-.13-1.84.03-2.77.1.05.12.15.16.22,1.28,2.38,2.82,4.58,4.7,6.53,2.66,2.77,5.64,5.11,8.99,7,3.55,2,7.27,3.59,11.16,4.78,1.37.42,2.77.69,4.18.88,1.72.23,3.45.29,5.19.23,1.03-.04,2.06-.16,3.08-.31.79-.12,1.58-.26,2.36-.42.23-.05.45-.16.68-.2h0Z"/>
  <path class="cls-3" d="M80.81,71.9c-.08.03-.12.01-.15,0-3.37-1.18-6.52-2.78-9.34-5-2.29-1.81-4.22-3.94-5.66-6.49-.68-1.2-1.32-2.42-1.77-3.73-.32-.94-.54-1.91-.56-2.9-.04-1.71.47-3.24,1.54-4.57,1.46-1.83,3.37-3.01,5.62-3.63.82-.23,1.66-.35,2.51-.41.86-.06,1.71-.11,2.57-.07,1.01.04,2.01.08,3.01.21.6.08,1.2.13,1.78.27.14.03.28.06.42.13-.05.09-.11.05-.16.06-.69,0-1.39.05-2.07.12-1.19.12-2.34.41-3.45.86-.79.32-1.57.67-2.24,1.2-1.46,1.15-2.56,2.56-3.16,4.34-.54,1.62-.49,3.23.03,4.84.38,1.18.92,2.29,1.51,3.38,1.37,2.53,3.06,4.83,4.99,6.97,1.37,1.52,2.85,2.94,4.4,4.27.06.05.11.1.18.16Z"/>
  <path class="cls-3" d="M80.06,80.5c.06-.04.12-.02.17-.02,1.71,0,3.42-.02,5.12.02.81.02,1.62.06,2.42.19.38.06.76.16,1.12.31,1.11.48,1.7,1.31,1.76,2.52.03.51.06,1.02.06,1.53,0,2.26,0,4.52,0,6.78,0,.5-.04,1.01-.14,1.5-.13.62-.46,1.1-1.02,1.42-.52.3-1.09.43-1.67.49-.67.07-1.35.09-2.03.09-1.83,0-3.66,0-5.5,0-.09,0-.18,0-.28,0v-14.83ZM84.66,92.78c.27.02.52-.01.76-.06.32-.07.52-.26.57-.6.06-.33.1-.65.1-.98,0-2.23,0-4.46,0-6.69,0-.26-.01-.51-.05-.77-.03-.23-.14-.41-.35-.51-.33-.15-.68-.15-1.03-.14v9.75Z"/>
  <path class="cls-3" d="M71.77,80.49c.84,2.18,1.68,4.35,2.52,6.53.02,0,.03,0,.05,0v-6.52h3.84v14.84h-4.03c-.77-2.18-1.55-4.38-2.34-6.58-.02,0-.03,0-.05,0v6.57h-3.84v-14.83h3.84Z"/>
  <path class="cls-3" d="M108.38,54.94c.41.33.77.71,1.13,1.08,1.46,1.51,2.82,3.1,3.99,4.85.32.48.61.98.88,1.49.5.94.74,1.95.78,3.01.03.84,0,1.68-.21,2.51-.36,1.39-1.16,2.48-2.32,3.32-.94.68-1.99,1.13-3.09,1.47-2,.61-4.05.93-6.15.84-1.61-.07-3.2-.32-4.76-.72-2.85-.73-5.55-1.85-8.1-3.3-.09-.05-.18-.11-.26-.19.29.06.58.11.87.17,1.3.25,2.6.42,3.92.54,1.37.12,2.73.18,4.1.13,1.98-.06,3.93-.31,5.82-.93,1.05-.35,2.05-.79,2.95-1.44,1.47-1.05,2.34-2.48,2.64-4.26.21-1.24.13-2.47-.12-3.69-.27-1.34-.73-2.62-1.37-3.83-.2-.38-.43-.73-.7-1.06h0Z"/>
  <path class="cls-3" d="M100.1,80.49v2.96h-3.05v2.81h2.85v2.83h-2.85v3.25h3.35v2.97h-7.95v-14.83h7.65Z"/>
  <path class="cls-3" d="M66.06,95.33h-4.6v-14.81c.17-.05,4.27-.06,4.6-.02v14.82Z"/>
  <path class="cls-3" d="M104.61,67.24c0,.08-.07.11-.12.15-1.16.97-2.43,1.76-3.92,2.13-.76.19-1.55.25-2.33.26-3.22.05-6.26-.7-9.14-2.1-1.27-.62-2.52-1.26-3.75-1.94-1.81-1.01-3.32-2.38-4.6-4-.03-.03-.05-.07-.08-.1-1.13-1.25-1.88-2.72-2.44-4.3-.3-.86-.35-1.74-.21-2.65.11.06.13.16.17.24.93,1.72,2.09,3.26,3.46,4.65,2.05,2.07,4.42,3.69,7.02,5,1.84.93,3.75,1.7,5.73,2.3,1.38.42,2.79.63,4.24.69,1.06.04,2.11.05,3.17.03.91-.01,1.81-.09,2.69-.37.04-.01.08-.03.12,0Z"/>
  <path class="cls-3" d="M62.35,48.62c-.19-.81-.13-1.56.1-2.31.37-1.15,1.06-2.1,1.95-2.91,1.02-.94,2.23-1.54,3.54-1.98,1.82-.61,3.69-.83,5.61-.72,1.96.11,3.87.51,5.77.98.55.13,1.1.28,1.65.42.06.02.13.02.2.09-.32.58-.35,1.23-.34,1.87-.1.04-.19.02-.27,0-.68-.1-1.36-.17-2.04-.22-.86-.07-1.71-.1-2.57-.09-1.8.02-3.6.13-5.35.59-1.56.4-3.07.94-4.52,1.66-1.1.55-2.08,1.28-3.03,2.05-.22.18-.44.36-.7.57Z"/>
  <path class="cls-3" d="M81.82,48.56c.09.23.18.46.27.69-.04.08-.12.07-.18.08-2.19.46-3.64,1.75-4.38,3.86-.25.72-.26,1.45-.16,2.2.18,1.32.51,2.58,1.12,3.77.48.95,1.09,1.82,1.78,2.64,1.37,1.64,2.95,3.04,4.8,4.12.1.06.2.11.3.17.09.06.2.09.28.19-.2-.04-.36-.12-.52-.2-2.37-1.08-4.63-2.35-6.73-3.9-.84-.62-1.67-1.27-2.38-2.04-.92-.99-1.7-2.08-2.31-3.29-.41-.81-.66-1.66-.63-2.57.05-1.59.67-2.92,1.88-3.97.39-.34.85-.56,1.33-.76,1.04-.43,2.13-.7,3.24-.86.67-.09,1.34-.15,2.02-.15.08,0,.16-.02.27.02Z"/>
  <path class="cls-3" d="M99.12,47.96c.17.11.31.2.44.29,1.84,1.27,3.67,2.55,5.4,3.97,1.13.92,2.17,1.93,3.01,3.13.88,1.26,1.51,2.63,1.82,4.14.29,1.43.15,2.81-.52,4.11-.41.79-1,1.4-1.81,1.81-.07.04-.14.09-.25.08-.04-.09-.02-.19-.01-.28.04-.5.04-1.01.04-1.51,0-1.28-.23-2.53-.65-3.73-.18-.52-.36-1.04-.55-1.56-.32-.85-.79-1.63-1.3-2.38-1.14-1.69-2.49-3.2-3.97-4.6-.68-.65-1.39-1.27-2.12-1.86-.04-.04-.09-.08-.14-.13.18-.49.39-.97.63-1.48Z"/>
  <path class="cls-3" d="M102.45,55.7c.08-.02.12.04.16.08,1.09,1.14,2.12,2.33,2.93,3.7.27.46.52.94.63,1.47.16.84.18,1.69-.04,2.53-.23.87-.74,1.54-1.46,2.05-.56.4-1.18.66-1.82.87-1.36.43-2.75.61-4.17.51-1.16-.08-2.3-.32-3.41-.68-1.42-.45-2.78-1.04-4.07-1.79-.06-.03-.12-.05-.18-.14.3.06.59.11.87.16.73.13,1.47.23,2.21.28.71.05,1.41.1,2.12.08,1.28-.04,2.55-.17,3.77-.58.64-.22,1.26-.49,1.81-.89.99-.72,1.53-1.7,1.68-2.91.14-1.13-.07-2.22-.43-3.28-.15-.44-.33-.86-.55-1.27-.03-.06-.1-.12-.05-.2Z"/>
  <path class="cls-3" d="M97.31,103.2v-6.82c.04-.06.1-.04.16-.04.78,0,1.55,0,2.33,0,.38,0,.76.03,1.13.12.66.16,1.06.58,1.16,1.26.05.31.06.62.02.94-.05.34-.21.58-.54.7-.14.05-.27.09-.45.15.18.06.32.1.45.15.37.14.61.41.66.79.09.62.1,1.25-.02,1.87-.09.44-.37.7-.81.8-.33.07-.67.09-1.01.09-.96,0-1.93,0-2.89,0-.06,0-.12.02-.18-.03ZM99.45,102.03c.1,0,.17,0,.25,0,.31-.03.4-.12.42-.43.02-.29.02-.58,0-.86-.02-.54-.09-.6-.64-.59-.01,0-.03.02-.04.03v1.86ZM99.45,97.55c0,.51,0,1.01,0,1.5.13.02.23.02.33,0,.24-.04.31-.11.33-.35.02-.19.03-.38.02-.57-.02-.51-.14-.61-.68-.58Z"/>
  <path class="cls-3" d="M71.97,99.79c0,.62,0,1.24-.04,1.85-.04.63-.34,1.09-.88,1.39-.34.19-.7.28-1.08.32-.54.05-1.07.03-1.59-.14-.34-.11-.65-.28-.9-.55-.25-.27-.39-.59-.41-.96-.07-1.27-.07-2.54,0-3.81.03-.58.32-1.01.8-1.31.39-.24.82-.34,1.27-.37.57-.05,1.14,0,1.68.22.69.29,1.09.79,1.12,1.57.03.59.03,1.19.03,1.78ZM69.84,99.92c0-.66,0-1.2,0-1.75,0-.18-.01-.36-.04-.54-.02-.18-.11-.25-.28-.25-.18,0-.28.07-.32.25-.03.15-.04.31-.04.47,0,1.11,0,2.23,0,3.34,0,.17,0,.33.03.49.03.21.09.27.28.27.2,0,.29-.07.32-.26,0-.06.01-.11.02-.17.05-.65,0-1.3.02-1.84Z"/>
  <path class="cls-3" d="M104.23,99.8c0-.62.01-1.21.04-1.81.03-.73.39-1.22,1.04-1.52.55-.25,1.13-.3,1.72-.26.39.03.77.1,1.12.27.49.24.84.61.96,1.16.05.22.06.44.06.66.02.98.02,1.96,0,2.94,0,.22-.02.45-.06.66-.1.5-.4.86-.84,1.11-.34.2-.72.29-1.11.33-.53.05-1.05.03-1.57-.13-.19-.06-.37-.14-.54-.24-.48-.31-.76-.75-.79-1.33-.04-.63-.05-1.25-.04-1.85ZM106.39,99.81s0,0-.01,0c0,.52,0,1.04,0,1.56,0,.19,0,.38.03.57.02.2.1.26.29.26.19,0,.27-.06.31-.25.03-.17.04-.34.04-.52,0-1.13,0-2.26,0-3.39,0-.14,0-.28-.04-.42-.04-.19-.11-.24-.28-.24-.18,0-.28.08-.31.25-.01.07-.02.15-.02.22,0,.65,0,1.3,0,1.96Z"/>
  <path class="cls-3" d="M95.68,103.22h-2.18c-.04-.41-.08-.81-.12-1.21h-.75c-.04.4-.09.8-.13,1.21h-2.21c.36-2.29.72-4.57,1.08-6.86h3.09c.4,2.28.81,4.56,1.22,6.86ZM93.02,98.13s0-.1-.01-.14c-.03.04-.05.09-.03.14-.01.04-.03.08-.04.12-.09.56-.17,1.12-.25,1.68-.04.27-.08.55-.09.84.24.02.47.02.71,0-.12-.89-.21-1.76-.3-2.64Z"/>
  <path class="cls-3" d="M88.74,99.34h-2.11c-.04-.09-.02-.17-.02-.25,0-.39,0-.78,0-1.16,0-.07,0-.15-.01-.22-.03-.24-.11-.32-.32-.33-.25-.01-.36.07-.4.3-.02.16-.03.33-.03.49,0,1.16,0,2.31,0,3.47,0,.1,0,.2.03.29.04.2.13.27.35.26.21,0,.28-.06.34-.25.03-.1.03-.2.03-.29,0-.31,0-.61,0-.92,0-.08,0-.16,0-.26h2.14c0,.58.02,1.14-.15,1.7-.09.29-.28.5-.52.67-.39.29-.82.44-1.3.5-.63.07-1.25.04-1.86-.17-.17-.06-.33-.14-.49-.24-.31-.2-.51-.49-.6-.84-.1-.37-.12-.75-.12-1.13,0-.97-.01-1.93.01-2.9.02-.82.43-1.34,1.17-1.64.53-.21,1.09-.26,1.65-.22.32.02.64.07.94.18.69.25,1.15.68,1.22,1.46.05.49.03.98.04,1.49Z"/>
  <path class="cls-3" d="M111.13,100.77h1.96c.05.17.02.35.02.52,0,.21,0,.41.02.62.02.14.07.26.23.29.17.03.33.03.45-.13.05-.07.07-.15.09-.23.03-.22.01-.45-.03-.66-.03-.17-.13-.3-.27-.4-.27-.18-.55-.34-.82-.5-.29-.17-.58-.34-.88-.51-.49-.29-.75-.73-.81-1.29-.04-.35-.02-.71.05-1.06.08-.4.32-.68.67-.87.41-.22.85-.3,1.31-.33.54-.03,1.07.02,1.59.18.15.05.29.11.43.19.32.17.52.43.58.79.06.34.08.69.05,1.05h-1.96c-.03-.12,0-.24-.01-.36,0-.13,0-.26-.02-.39-.03-.19-.09-.25-.23-.28-.18-.03-.32.03-.4.18-.17.31-.04.85.25,1.04.14.1.3.18.45.26.44.23.87.47,1.29.74.52.34.76.82.8,1.43.03.38.03.76-.04,1.13-.07.37-.27.63-.59.81-.38.22-.8.34-1.24.38-.54.05-1.07.03-1.59-.12-.1-.03-.2-.07-.3-.11-.63-.24-.95-.7-1-1.37-.02-.32-.04-.64-.02-.99Z"/>
  <path class="cls-3" d="M73.91,100.77h1.95c.06.08.03.17.03.26,0,.28-.02.56.02.84.04.25.11.32.32.33.24.01.39-.09.43-.31.05-.29.04-.57-.06-.85-.04-.12-.14-.2-.24-.27-.24-.17-.5-.31-.76-.46-.32-.18-.64-.37-.96-.56-.52-.31-.76-.79-.79-1.38-.01-.3-.01-.61.05-.91.07-.37.26-.65.58-.85.26-.16.55-.26.85-.32.66-.12,1.31-.1,1.96.06.1.02.19.06.28.09.6.2.92.6.95,1.24,0,.25.03.49.02.75h-1.97c-.05-.09-.02-.18-.03-.27,0-.16,0-.33-.02-.49-.02-.18-.08-.25-.23-.28-.17-.03-.3.03-.38.16-.18.29-.08.83.2,1.04.13.1.28.18.43.25.44.22.87.47,1.29.73.59.36.85.9.87,1.57.01.33.02.66-.04.99-.07.4-.27.68-.62.87-.38.21-.79.33-1.22.37-.55.05-1.09.03-1.62-.13-.11-.03-.22-.07-.32-.12-.57-.24-.89-.65-.95-1.27-.03-.35-.03-.69-.04-1.06Z"/>
  <path class="cls-3" d="M89.09,42c.12-.03.15-.11.2-.18.15-.23.35-.38.6-.5.52-.24.99-.56,1.5-.82.5-.26,1.02-.46,1.58-.54.49-.07.72.05.94.49.06.12.12.24.15.37.17.71.32,1.43.37,2.17,0,.11.02.23-.03.32-.09.03-.11-.04-.15-.08-.11-.13-.25-.16-.4-.11-.15.05-.22.16-.24.32-.01.11-.02.21-.02.32,0,.1-.01.2-.08.28-.11,0-.12-.09-.14-.17-.18-.62-.44-1.21-.71-1.79-.01-.02-.02-.05-.03-.07-.18-.39-.33-.44-.71-.22-.01.1.07.14.12.2.35.43.61.9.73,1.44.11.5.06.99-.12,1.46-.15.4-.46.65-.85.78-.72.24-1.37.12-1.91-.43-.49-.49-.74-1.1-.85-1.78-.05-.33-.07-.65.03-.98.07-.22,0-.29-.22-.34-.32-.07-.61-.19-.87-.39-.46-.35-.64-.87-.48-1.43.19-.66.65-1.1,1.22-1.43.1-.06.2-.06.31-.05.18.02.3.14.32.32.02.2-.06.37-.18.53-.13.16-.29.29-.45.43-.14.12-.28.23-.39.38-.21.28-.22.53-.02.82.2.3.49.5.8.69Z"/>
  <path class="cls-3" d="M86.08,30.24c.03.16.08.27.14.37.18.34.29.7.38,1.07.23.89.61,1.7,1.19,2.42.13.17.28.32.42.48.19.21.18.33-.06.47-.11.06-.14.16-.17.26-.4,1.08-.79,2.17-1.19,3.25-.15.41-.3.82-.45,1.22-.1.03-.17,0-.26-.08.57-1.54,1.14-3.1,1.71-4.65-.1-.1-.2-.19-.31-.29-.11.12-.22.12-.33-.03.15-.15.08-.27-.05-.41-.52-.59-.94-1.25-1.27-1.97-.18-.4-.26-.41-.56-.08-.19.22-.38.43-.57.65-.47.57-.69,1.22-.75,1.95-.06.72,0,1.43.08,2.15.05.42.04.84.18,1.26-.09-.01-.12-.07-.15-.12-.15-.24-.3-.47-.45-.71-.04-.06-.07-.11-.11-.17-.13-.17-.31-.25-.52-.22-.22.03-.37.16-.45.38-.09.25-.11.51-.14.78,0,.07-.01.15-.02.22h-.02c-.03-.35-.08-.71-.1-1.06-.06-.86-.15-1.73-.14-2.59.02-2.02.82-3.62,2.59-4.68.18-.11.37-.19.56-.26.34-.12.51-.06.72.24.02.03.02.06.1.07-.09-.32-.07-.62.15-.87.13-.15.29-.24.49-.27.38-.07.76.13.91.49.15.37.03.78-.29,1.01-.38.26-.76.18-1.23-.27Z"/>
  <path class="cls-3" d="M99.25,35.68c.23.25.34.55.37.89.07.96-.17,1.85-.62,2.68-.25.46-.56.87-.86,1.3-.28.4-.56.79-.78,1.23-.15.3-.28.6-.33.93-.1.68.36,1.3,1.04,1.38.65.07,1.18-.15,1.56-.7.07-.11.13-.23.24-.34.05.18.02.35-.02.51-.15.66-.55,1.14-1.11,1.49-.54.34-1.14.51-1.77.59-.68.09-1.37.05-2.05.02-.23,0-.28-.05-.31-.3-.12-.73-.05-1.44.14-2.16.21-.81.63-1.5,1.15-2.14.45-.56.96-1.07,1.45-1.59.41-.43.8-.88,1.13-1.37.44-.65.68-1.37.71-2.16,0-.08.01-.16.02-.24.02,0,.03-.01.05-.02Z"/>
  <path class="cls-3" d="M97.27,52.78c.15-.43.3-.85.44-1.26.1,0,.14.05.19.09.95.7,1.89,1.41,2.72,2.26.96.98,1.67,2.1,2.03,3.43.26.97.27,1.92-.12,2.86-.25.6-.63,1.08-1.2,1.4-.07.04-.13.1-.23.08,0-.21,0-.41,0-.61.06-1.15-.16-2.24-.52-3.33-.42-1.27-1.11-2.37-1.94-3.39-.43-.53-.89-1.02-1.38-1.52Z"/>
  <path class="cls-3" d="M73.18,51.03c-.15-.55-.12-1.08.07-1.59.3-.84.84-1.51,1.57-2.02.77-.54,1.62-.87,2.54-1.06,1.15-.25,2.32-.27,3.52-.16.26.64.52,1.29.78,1.93-.08.07-.16.06-.24.06-.81,0-1.62.03-2.42.12-1,.11-1.98.33-2.92.7-.61.24-1.15.6-1.66,1.02-.34.28-.66.57-1,.85-.06.05-.11.13-.22.15Z"/>
  <path class="cls-3" d="M81.25,43.22c.23-.05.44.02.64.09.35.12.7.23,1.05.36,1.2.45,2.31-.52,2.52-1.38.12-.47.1-.93.01-1.4-.13-.66-.33-1.31-.5-1.96-.04-.17-.12-.35-.01-.53.09.05.1.14.14.21.73,1.43,1.35,2.92,1.89,4.43.32.9.84,1.66,1.63,2.22.24.17.49.3.76.4.08.03.17.05.23.12-.03.08-.1.08-.15.08-2.8.52-5.31-.13-7.55-1.88-.23-.18-.43-.38-.61-.61-.03-.04-.06-.07-.06-.15Z"/>
  <path class="cls-3" d="M62.05,96.36h2.12v5.49h1.28v1.38h-3.41v-6.87Z"/>
  <path class="cls-3" d="M90.79,33.94c-.9-.74-1.52-1.68-1.91-2.76-.52-1.42-.71-2.87-.44-4.4.16.1.2.22.24.34.09.28.16.55.24.83.04.13.08.25.12.38.25.78,1.09,1.03,1.7.82.32-.11.58-.3.81-.54.24-.25.44-.54.63-.83.26-.41.52-.82.78-1.24.06-.1.12-.21.26-.25.03.11-.03.18-.07.26-.55,1.36-1.19,2.68-1.88,3.98-.35.66-.56,1.35-.61,2.1-.02.36,0,.71.1,1.05.02.08.04.16.02.26Z"/>
  <path class="cls-3" d="M90.81,22.02c.11.05.14.13.19.19.71,1.03,1.13,2.15,1.17,3.41.01.52-.06,1.03-.27,1.52-.22.52-.58.91-1.08,1.18-.52.28-.95.17-1.29-.31-.52-.74-.55-1.57-.06-2.34.12-.19.26-.36.41-.53.47-.55.8-1.17.91-1.89.06-.4.08-.8.03-1.23Z"/>
  <path class="cls-3" d="M88.05,75.08c1.51.58,3,1.22,4.58,1.65.01.28-.06.56-.06.84,0,.1-.02.2-.03.3-.03.32-.24.51-.55.52-.36,0-.73,0-1.09-.01-.68-.01-1.35-.03-2.03-.05-.34,0-.57-.19-.6-.51-.09-.85-.16-1.71-.25-2.56,0-.05-.02-.1.02-.17Z"/>
  <path class="cls-3" d="M91.64,38.6c-.2.02-.39-.06-.52-.26-.15-.23-.07-.48.19-.59.36-.14.74-.21,1.12-.3.31-.07.61-.14.9-.25.65-.24,1.08-.71,1.38-1.32.05-.11.05-.2-.01-.3-.02-.04-.04-.08-.07-.1-.47-.47.09-1.6.83-1.68.3-.03.59.11.72.38.34.69-.09,1.59-.9,1.64-.17.01-.22.1-.27.23-.35.88-.95,1.56-1.78,2.02-.39.22-.8.4-1.24.49-.11.02-.21.03-.35.04Z"/>
  <path class="cls-3" d="M92.51,34.03c-.55-.57-.39-1.67.12-2.16.21-.2.45-.35.72-.47.23-.1.45-.2.68-.3.11-.05.21-.13.28-.24.17-.28.05-.6-.27-.69-.12-.04-.24-.05-.37-.03-.11.02-.22.04-.34.06-.02-.11.05-.17.1-.23.29-.33.66-.41,1.08-.32.42.09.71.33.82.76.06.25,0,.49-.1.72-.12.25-.3.45-.5.64-.25.23-.53.42-.8.62-.2.15-.41.31-.61.46-.33.25-.57.57-.71.96-.02.07-.04.15-.1.21Z"/>
  <path class="cls-3" d="M98.31,35.42c.06-.55-.17-.97-.44-1.38-.15-.23-.34-.45-.52-.66-.46-.54-.88-1.11-1.13-1.78-.16-.43-.29-.86-.31-1.32.04-.01.06.02.07.05.27.63.71,1.12,1.23,1.56.24.21.49.41.73.63.33.31.62.64.8,1.05.19.42.26.85.12,1.3-.08.26-.22.48-.55.56Z"/>
  <path class="cls-3" d="M82.49,41.77c-.34,0-.62-.08-.87-.25-.32-.21-.43-.54-.3-.91.03-.08.07-.17.12-.24.25-.37.57-.65.97-.86.19-.1.39-.12.6-.08.26.06.35.23.25.48-.06.15-.16.29-.26.42-.15.18-.29.36-.41.56-.16.27-.23.55-.1.88Z"/>
  <path class="cls-3" d="M94.57,40.11c-.02-.22.06-.38.13-.53.12-.26.29-.5.47-.72.16-.2.33-.39.49-.58.41-.48.72-1,.71-1.68.08.01.1.07.12.12.2.35.33.71.35,1.12.02.49-.17.88-.55,1.18-.1.08-.2.15-.3.21-.48.27-.99.47-1.42.88Z"/>
  <path class="cls-3" d="M90.08,36.3c.4-.04.84.32.85.9,0,.45-.41.88-.84.88-.52,0-1.02-.45-1.01-.92.01-.45.42-.88.99-.85Z"/>
  <path class="cls-3" d="M83.99,43.36c-.44,0-.81-.37-.82-.8,0-.45.4-.83.87-.83.44,0,.8.39.8.84,0,.41-.41.79-.86.79Z"/>
  <path class="cls-3" d="M97.37,42.93c0-.44.34-.78.8-.79.48-.01.84.32.85.77,0,.46-.35.83-.82.83-.44,0-.82-.37-.83-.81Z"/>
  <path class="cls-3" d="M85.37,34.2c.44.1.71.54.6.97-.03.14-.09.26-.16.38-.06.11-.12.22-.17.33-.05.1-.03.2.05.27.09.09.2.09.3.03.08-.05.15-.12.24-.19.04.06.03.12.02.18-.05.24-.31.44-.58.45-.27,0-.44-.13-.52-.4-.06-.2-.01-.39.03-.58.05-.21.12-.41.18-.62.08-.25.11-.5.01-.75,0-.02,0-.05,0-.07Z"/>
  <path class="cls-3" d="M94.17,27.03c.33.09.59.21.75.49.13.23.11.46-.03.68-.13.21-.3.37-.52.48-.07.04-.15.06-.24.06-.16,0-.3-.03-.39-.17-.08-.13-.02-.26.04-.37.05-.09.11-.16.17-.24.19-.27.34-.54.2-.93Z"/>
  <path class="cls-3" d="M92.63,34.57c.16.14.26.28.31.45.06.23,0,.45-.2.59-.19.13-.4.18-.63.16-.1,0-.19-.05-.26-.13-.11-.13-.1-.25.02-.37.07-.07.17-.11.26-.15.24-.11.45-.25.51-.56Z"/>
  <path class="cls-3" d="M96.63,35.07c.22,0,.36.12.36.34,0,.22-.18.41-.4.41-.2,0-.37-.18-.37-.39,0-.21.17-.36.41-.36Z"/>
  <path class="cls-2" d="M102.25,55.42c.07.03.12.07.15.15-.03,0-.06,0-.09.01-.05-.03-.08-.08-.09-.13.01-.01.02-.02.03-.03Z"/>
  <path class="cls-3" d="M85.81,66.32s.05.04.08.06c0,0,0,0,0,0l-.08-.07s0,0,0,0Z"/>
  <path class="cls-3" d="M85.89,66.38s.02.01.03.02c0,0,0,0,.01-.01-.01,0-.02,0-.04,0,0,0,0,0,0,0Z"/>
  <path class="cls-3" d="M85.81,66.32s-.03,0-.05,0c0,0-.02,0-.02,0,0-.02,0-.03.02-.01.01,0,.03.01.04.02,0,0,0,0,0,0Z"/>
  <path class="cls-2" d="M102.2,55.38s.04.03.06.04c0,.01-.02.02-.03.03-.01-.02-.03-.04-.04-.06h.01Z"/>
  <path class="cls-1" d="M112.04,73.26s.01-.02.02-.03c0,0,.01.02.02.02-.01,0-.02,0-.03,0h0Z"/>
  <path class="cls-2" d="M102.18,55.39s-.04-.02-.01-.04c0,0,.02.02.03.03,0,0-.01.01-.01.01Z"/>
  <polygon class="cls-3" points="108.38 54.94 108.37 54.93 108.38 54.94 108.38 54.94"/>
  <path class="cls-3" d="M102.42,55.6s.06.05.02.08c-.04.03-.05,0-.07-.03.02-.02.03-.03.05-.05Z"/>
  <path class="cls-3" d="M102.31,55.58s.06,0,.09-.01c.01,0,.02.02.02.03-.02.02-.03.03-.05.05-.02-.02-.04-.05-.06-.07Z"/>
  <path class="cls-4" d="M93.02,98.13h-.02s-.02,0-.02,0c-.02-.05,0-.1.03-.14.02.05.03.09.01.14Z"/>
</svg>