<?xml version="1.0" encoding="utf-8"?>
<!-- Generator: Adobe Illustrator 28.3.0, SVG Export Plug-In . SVG Version: 6.00 Build 0)  -->
<svg version="1.1" xmlns="http://www.w3.org/2000/svg" xmlns:xlink="http://www.w3.org/1999/xlink" x="0px" y="0px"
	 viewBox="0 0 177.4 125.4" style="enable-background:new 0 0 177.4 125.4;" xml:space="preserve">
<style type="text/css">
	.st0{fill:#FFFFFF;}
	.st1{fill:#FEF574;}
	.st2{fill:#024EFF;}
	.st3{fill:#9D9D9D;}
</style>
<g id="Capa_1">
</g>
<g id="Capa_2">
	<g>
		<path class="st0" d="M96,64.4c-3.3,0-6.5-0.8-9.6-1.9c-0.1-0.5-0.2-1-0.3-1.4c-0.5-2.6-1.2-5.1-2.1-7.6c-1.4-3.8-2.8-7.6-4.4-11.4
			c-0.1-0.3-0.3-0.6-0.4-0.9c-0.1-0.3-0.1-0.5,0.1-0.7c0.2-0.2,0.4-0.2,0.7-0.1c1.8,0.8,3.7,1.3,5.6,1.7c1.4,0.3,2.8,0.5,4.2,0.6
			c1,0.1,2,0.1,3,0.1c2.3-0.1,4.5-0.5,6.7-1.1c0.7-0.2,1.4-0.5,2.1-0.7c0.1,0,0.2-0.1,0.3-0.1c0.4,0,0.6,0.4,0.5,0.7
			c0,0.1-0.1,0.2-0.1,0.2c-1.9,3.6-3.3,7.4-4.2,11.4c-0.7,2.9-1.2,5.8-1.7,8.7C96.2,62.7,96.1,63.5,96,64.4z"/>
		<path class="st0" d="M116.1,104.1c-1.2,0-2.4,0-3.6,0c-0.7-4-1.4-8-2.1-12c0,0,0,0-0.1,0c0,4,0,8,0,12c-1.7,0-3.4,0-5.1,0
			c0-6.3,0-12.6,0-18.8c2.5,0,5,0,7.6,0c0.5,2.9,1,5.7,1.5,8.6c0.4-2.9,0.9-5.7,1.3-8.6c2.5,0,5.1,0,7.6,0c0,6.3,0,12.5,0,18.8
			c-1.7,0-3.4,0-5.1,0c0-4.1,0-8.2,0-12.2c0,0-0.1,0-0.1,0C117.5,95.9,116.8,100,116.1,104.1z"/>
		<path class="st0" d="M118.3,76.1c0,0.1,0,0.1-0.1,0.2c-1.4,1.6-3,2.9-4.9,3.9c-1.2,0.6-2.5,1-3.9,1.2c-1,0.1-2,0.1-3.1,0.2
			c-0.8,0-1.5,0-2.3,0c-1.9-0.1-3.8-0.3-5.6-0.7c-4-0.8-7.7-2.1-11.3-4c-1.9-1-3.9-1.9-5.8-3C79,72.6,76.8,71,74.8,69
			c-1.5-1.5-2.8-3.2-4.1-4.8c-0.9-1.2-1.6-2.4-2.2-3.7c-0.4-0.9-0.7-1.7-1.1-2.6c-0.2-0.6-0.4-1.3-0.5-1.9c-0.2-1.2-0.2-2.3,0-3.5
			c0.1,0.1,0.2,0.2,0.2,0.3c1.6,3,3.6,5.8,6,8.3c3.4,3.5,7.2,6.5,11.4,8.9c4.5,2.5,9.2,4.6,14.2,6.1c1.7,0.5,3.5,0.9,5.3,1.1
			c2.2,0.3,4.4,0.4,6.6,0.3c1.3,0,2.6-0.2,3.9-0.4c1-0.1,2-0.3,3-0.5C117.8,76.3,118,76.2,118.3,76.1L118.3,76.1z"/>
		<path class="st0" d="M78.7,74.4c-0.1,0-0.1,0-0.2,0c-4.3-1.5-8.3-3.5-11.9-6.3c-2.9-2.3-5.4-5-7.2-8.2c-0.9-1.5-1.7-3.1-2.2-4.7
			c-0.4-1.2-0.7-2.4-0.7-3.7c-0.1-2.2,0.6-4.1,2-5.8c1.9-2.3,4.3-3.8,7.1-4.6c1-0.3,2.1-0.4,3.2-0.5c1.1-0.1,2.2-0.1,3.3-0.1
			c1.3,0,2.6,0.1,3.8,0.3c0.8,0.1,1.5,0.2,2.3,0.3c0.2,0,0.4,0.1,0.5,0.2c-0.1,0.1-0.1,0.1-0.2,0.1c-0.9,0-1.8,0.1-2.6,0.2
			c-1.5,0.2-3,0.5-4.4,1.1c-1,0.4-2,0.9-2.8,1.5c-1.9,1.5-3.3,3.2-4,5.5c-0.7,2.1-0.6,4.1,0,6.1c0.5,1.5,1.2,2.9,1.9,4.3
			c1.7,3.2,3.9,6.1,6.3,8.8c1.7,1.9,3.6,3.7,5.6,5.4C78.5,74.2,78.6,74.3,78.7,74.4z"/>
		<path class="st0" d="M77.7,85.3c0.1,0,0.1,0,0.2,0c2.2,0,4.3,0,6.5,0c1,0,2.1,0.1,3.1,0.2c0.5,0.1,1,0.2,1.4,0.4
			c1.4,0.6,2.2,1.7,2.2,3.2c0,0.6,0.1,1.3,0.1,1.9c0,2.9,0,5.7,0,8.6c0,0.6-0.1,1.3-0.2,1.9c-0.2,0.8-0.6,1.4-1.3,1.8
			c-0.7,0.4-1.4,0.5-2.1,0.6c-0.9,0.1-1.7,0.1-2.6,0.1c-2.3,0-4.7,0-7,0c-0.1,0-0.2,0-0.4,0C77.7,97.8,77.7,91.6,77.7,85.3z
			 M83.6,100.9c0.3,0,0.7,0,1-0.1c0.4-0.1,0.7-0.3,0.7-0.8c0.1-0.4,0.1-0.8,0.1-1.2c0-2.8,0-5.7,0-8.5c0-0.3,0-0.6-0.1-1
			c0-0.3-0.2-0.5-0.4-0.6c-0.4-0.2-0.9-0.2-1.3-0.2C83.6,92.6,83.6,96.8,83.6,100.9z"/>
		<path class="st0" d="M67.2,85.3c1.1,2.8,2.1,5.5,3.2,8.3c0,0,0,0,0.1,0c0-2.8,0-5.5,0-8.3c1.6,0,3.2,0,4.9,0c0,6.3,0,12.5,0,18.8
			c-1.7,0-3.4,0-5.1,0c-1-2.8-2-5.6-3-8.3c0,0,0,0-0.1,0c0,2.8,0,5.5,0,8.3c-1.6,0-3.3,0-4.9,0c0-6.3,0-12.5,0-18.8
			C64,85.3,65.6,85.3,67.2,85.3z"/>
		<path class="st0" d="M113.7,52.8c0.5,0.4,1,0.9,1.4,1.4c1.8,1.9,3.6,3.9,5.1,6.2c0.4,0.6,0.8,1.2,1.1,1.9c0.6,1.2,0.9,2.5,1,3.8
			c0,1.1,0,2.1-0.3,3.2c-0.5,1.8-1.5,3.2-2.9,4.2c-1.2,0.9-2.5,1.4-3.9,1.9c-2.5,0.8-5.1,1.2-7.8,1.1c-2-0.1-4.1-0.4-6-0.9
			c-3.6-0.9-7-2.3-10.3-4.2c-0.1-0.1-0.2-0.1-0.3-0.2c0.4,0.1,0.7,0.1,1.1,0.2c1.6,0.3,3.3,0.5,5,0.7c1.7,0.2,3.5,0.2,5.2,0.2
			c2.5-0.1,5-0.4,7.4-1.2c1.3-0.4,2.6-1,3.7-1.8c1.9-1.3,3-3.1,3.4-5.4c0.3-1.6,0.2-3.1-0.1-4.7c-0.3-1.7-0.9-3.3-1.7-4.9
			C114.3,53.7,114,53.3,113.7,52.8L113.7,52.8z"/>
		<path class="st0" d="M103.2,85.3c0,1.3,0,2.5,0,3.8c-1.3,0-2.6,0-3.9,0c0,1.2,0,2.4,0,3.6c1.2,0,2.4,0,3.6,0c0,1.2,0,2.4,0,3.6
			c-1.2,0-2.4,0-3.6,0c0,1.4,0,2.7,0,4.1c1.4,0,2.8,0,4.3,0c0,1.3,0,2.5,0,3.8c-3.4,0-6.7,0-10.1,0c0-6.3,0-12.5,0-18.8
			C96.7,85.3,99.9,85.3,103.2,85.3z"/>
		<path class="st0" d="M60,104.1c-2,0-3.9,0-5.8,0c0-6.3,0-12.5,0-18.8c0.2-0.1,5.4-0.1,5.8,0C60,91.6,60,97.8,60,104.1z"/>
		<path class="st0" d="M108.9,68.5c0,0.1-0.1,0.1-0.1,0.2c-1.5,1.2-3.1,2.2-5,2.7c-1,0.2-2,0.3-3,0.3c-4.1,0.1-7.9-0.9-11.6-2.7
			c-1.6-0.8-3.2-1.6-4.8-2.5c-2.3-1.3-4.2-3-5.8-5.1c0,0-0.1-0.1-0.1-0.1c-1.4-1.6-2.4-3.4-3.1-5.5c-0.4-1.1-0.4-2.2-0.3-3.4
			c0.1,0.1,0.2,0.2,0.2,0.3c1.2,2.2,2.6,4.1,4.4,5.9c2.6,2.6,5.6,4.7,8.9,6.4c2.3,1.2,4.8,2.2,7.3,2.9c1.8,0.5,3.5,0.8,5.4,0.9
			c1.3,0.1,2.7,0.1,4,0c1.2,0,2.3-0.1,3.4-0.5C108.8,68.5,108.9,68.4,108.9,68.5z"/>
		<path class="st0" d="M55.2,44.8c-0.2-1-0.2-2,0.1-2.9c0.5-1.5,1.4-2.7,2.5-3.7c1.3-1.2,2.8-2,4.5-2.5c2.3-0.8,4.7-1.1,7.1-0.9
			c2.5,0.1,4.9,0.7,7.3,1.2c0.7,0.2,1.4,0.4,2.1,0.5c0.1,0,0.2,0,0.3,0.1c-0.4,0.7-0.4,1.6-0.4,2.4c-0.1,0.1-0.2,0-0.3,0
			c-0.9-0.1-1.7-0.2-2.6-0.3c-1.1-0.1-2.2-0.1-3.3-0.1c-2.3,0-4.6,0.2-6.8,0.7c-2,0.5-3.9,1.2-5.7,2.1c-1.4,0.7-2.6,1.6-3.8,2.6
			C55.8,44.3,55.6,44.6,55.2,44.8z"/>
		<path class="st0" d="M80,44.8c0.1,0.3,0.2,0.6,0.3,0.9c-0.1,0.1-0.2,0.1-0.2,0.1c-2.8,0.6-4.6,2.2-5.6,4.9
			c-0.3,0.9-0.3,1.8-0.2,2.8c0.2,1.7,0.6,3.3,1.4,4.8c0.6,1.2,1.4,2.3,2.3,3.4c1.7,2.1,3.7,3.9,6.1,5.2c0.1,0.1,0.3,0.1,0.4,0.2
			c0.1,0.1,0.2,0.1,0.4,0.2c-0.2,0-0.5-0.2-0.7-0.2c-3-1.4-5.9-3-8.5-5c-1.1-0.8-2.1-1.6-3-2.6c-1.2-1.3-2.2-2.6-2.9-4.2
			c-0.5-1-0.8-2.1-0.8-3.3c0.1-2,0.8-3.7,2.4-5c0.5-0.4,1.1-0.7,1.7-1c1.3-0.5,2.7-0.9,4.1-1.1c0.9-0.1,1.7-0.2,2.6-0.2
			C79.7,44.7,79.8,44.7,80,44.8z"/>
		<path class="st0" d="M101.9,44c0.2,0.1,0.4,0.2,0.6,0.4c2.3,1.6,4.7,3.2,6.9,5c1.4,1.2,2.7,2.5,3.8,4c1.1,1.6,1.9,3.3,2.3,5.3
			c0.4,1.8,0.2,3.6-0.7,5.2c-0.5,1-1.3,1.8-2.3,2.3c-0.1,0-0.2,0.1-0.3,0.1c-0.1-0.1,0-0.2,0-0.4c0-0.6,0.1-1.3,0-1.9
			c0-1.6-0.3-3.2-0.8-4.7c-0.2-0.7-0.5-1.3-0.7-2c-0.4-1.1-1-2.1-1.6-3c-1.4-2.1-3.2-4.1-5-5.8c-0.9-0.8-1.8-1.6-2.7-2.4
			c-0.1,0-0.1-0.1-0.2-0.2C101.4,45.2,101.6,44.6,101.9,44z"/>
		<path class="st0" d="M106.2,53.8c0.1,0,0.2,0.1,0.2,0.1c1.4,1.4,2.7,3,3.7,4.7c0.3,0.6,0.7,1.2,0.8,1.9c0.2,1.1,0.2,2.1,0,3.2
			c-0.3,1.1-0.9,2-1.9,2.6c-0.7,0.5-1.5,0.8-2.3,1.1c-1.7,0.5-3.5,0.8-5.3,0.7c-1.5-0.1-2.9-0.4-4.3-0.9c-1.8-0.6-3.5-1.3-5.2-2.3
			c-0.1,0-0.2-0.1-0.2-0.2c0.4,0.1,0.7,0.1,1.1,0.2c0.9,0.2,1.9,0.3,2.8,0.4c0.9,0.1,1.8,0.1,2.7,0.1c1.6,0,3.2-0.2,4.8-0.7
			c0.8-0.3,1.6-0.6,2.3-1.1c1.3-0.9,1.9-2.2,2.1-3.7c0.2-1.4-0.1-2.8-0.5-4.2c-0.2-0.6-0.4-1.1-0.7-1.6
			C106.2,54,106.1,53.9,106.2,53.8z"/>
		<path class="st0" d="M99.6,114.1c0-2.9,0-5.8,0-8.7c0.1-0.1,0.1,0,0.2,0c1,0,2,0,3,0c0.5,0,1,0,1.4,0.2c0.8,0.2,1.3,0.7,1.5,1.6
			c0.1,0.4,0.1,0.8,0,1.2c-0.1,0.4-0.3,0.7-0.7,0.9c-0.2,0.1-0.3,0.1-0.6,0.2c0.2,0.1,0.4,0.1,0.6,0.2c0.5,0.2,0.8,0.5,0.8,1
			c0.1,0.8,0.1,1.6,0,2.4c-0.1,0.6-0.5,0.9-1,1c-0.4,0.1-0.8,0.1-1.3,0.1c-1.2,0-2.5,0-3.7,0C99.8,114.2,99.7,114.2,99.6,114.1z
			 M102.3,112.6c0.1,0,0.2,0,0.3,0c0.4,0,0.5-0.2,0.5-0.6c0-0.4,0-0.7,0-1.1c0-0.7-0.1-0.8-0.8-0.7c0,0,0,0-0.1,0
			C102.3,111.1,102.3,111.8,102.3,112.6z M102.3,106.9c0,0.6,0,1.3,0,1.9c0.2,0,0.3,0,0.4,0c0.3,0,0.4-0.1,0.4-0.4
			c0-0.2,0-0.5,0-0.7C103.2,107,103,106.9,102.3,106.9z"/>
		<path class="st0" d="M67.5,109.8c0,0.8,0,1.6,0,2.4c-0.1,0.8-0.4,1.4-1.1,1.8c-0.4,0.2-0.9,0.4-1.4,0.4c-0.7,0.1-1.4,0-2-0.2
			c-0.4-0.1-0.8-0.4-1.1-0.7c-0.3-0.3-0.5-0.7-0.5-1.2c-0.1-1.6-0.1-3.2,0-4.8c0-0.7,0.4-1.3,1-1.7c0.5-0.3,1-0.4,1.6-0.5
			c0.7-0.1,1.4,0,2.1,0.3c0.9,0.4,1.4,1,1.4,2C67.5,108.3,67.5,109,67.5,109.8z M64.8,110c0-0.8,0-1.5,0-2.2c0-0.2,0-0.5,0-0.7
			c0-0.2-0.1-0.3-0.4-0.3c-0.2,0-0.4,0.1-0.4,0.3c0,0.2-0.1,0.4-0.1,0.6c0,1.4,0,2.8,0,4.2c0,0.2,0,0.4,0,0.6c0,0.3,0.1,0.3,0.4,0.3
			c0.3,0,0.4-0.1,0.4-0.3c0-0.1,0-0.1,0-0.2C64.8,111.5,64.7,110.6,64.8,110z"/>
		<path class="st0" d="M108.4,109.8c0-0.8,0-1.5,0-2.3c0-0.9,0.5-1.6,1.3-1.9c0.7-0.3,1.4-0.4,2.2-0.3c0.5,0,1,0.1,1.4,0.3
			c0.6,0.3,1.1,0.8,1.2,1.5c0.1,0.3,0.1,0.6,0.1,0.8c0,1.2,0,2.5,0,3.7c0,0.3,0,0.6-0.1,0.8c-0.1,0.6-0.5,1.1-1.1,1.4
			c-0.4,0.2-0.9,0.4-1.4,0.4c-0.7,0.1-1.3,0-2-0.2c-0.2-0.1-0.5-0.2-0.7-0.3c-0.6-0.4-1-0.9-1-1.7
			C108.4,111.4,108.4,110.6,108.4,109.8z M111.2,109.8C111.1,109.8,111.1,109.8,111.2,109.8c0,0.7,0,1.3,0,2c0,0.2,0,0.5,0,0.7
			c0,0.3,0.1,0.3,0.4,0.3c0.2,0,0.3-0.1,0.4-0.3c0-0.2,0.1-0.4,0.1-0.7c0-1.4,0-2.9,0-4.3c0-0.2,0-0.4,0-0.5
			c-0.1-0.2-0.1-0.3-0.4-0.3c-0.2,0-0.4,0.1-0.4,0.3c0,0.1,0,0.2,0,0.3C111.2,108.2,111.2,109,111.2,109.8z"/>
		<path class="st0" d="M97.6,114.1c-0.9,0-1.9,0-2.8,0c-0.1-0.5-0.1-1-0.2-1.5c-0.3,0-0.6,0-1,0c-0.1,0.5-0.1,1-0.2,1.5
			c-0.9,0-1.8,0-2.8,0c0.5-2.9,0.9-5.8,1.4-8.7c1.3,0,2.6,0,3.9,0C96.5,108.3,97,111.2,97.6,114.1z M94.2,107.7c0-0.1,0-0.1,0-0.2
			C94.1,107.6,94.1,107.6,94.2,107.7c-0.1,0-0.1,0.1-0.1,0.1c-0.1,0.7-0.2,1.4-0.3,2.1c0,0.3-0.1,0.7-0.1,1.1c0.3,0,0.6,0,0.9,0
			C94.4,109.9,94.3,108.8,94.2,107.7z"/>
		<path class="st0" d="M88.7,109.2c-0.9,0-1.8,0-2.7,0c-0.1-0.1,0-0.2,0-0.3c0-0.5,0-1,0-1.5c0-0.1,0-0.2,0-0.3
			c0-0.3-0.1-0.4-0.4-0.4c-0.3,0-0.5,0.1-0.5,0.4c0,0.2,0,0.4,0,0.6c0,1.5,0,2.9,0,4.4c0,0.1,0,0.3,0,0.4c0.1,0.3,0.2,0.3,0.4,0.3
			c0.3,0,0.4-0.1,0.4-0.3c0-0.1,0-0.2,0-0.4c0-0.4,0-0.8,0-1.2c0-0.1,0-0.2,0-0.3c0.9,0,1.8,0,2.7,0c0,0.7,0,1.5-0.2,2.2
			c-0.1,0.4-0.4,0.6-0.7,0.9c-0.5,0.4-1,0.6-1.7,0.6c-0.8,0.1-1.6,0.1-2.4-0.2c-0.2-0.1-0.4-0.2-0.6-0.3c-0.4-0.3-0.6-0.6-0.8-1.1
			c-0.1-0.5-0.2-1-0.2-1.4c0-1.2,0-2.5,0-3.7c0-1,0.5-1.7,1.5-2.1c0.7-0.3,1.4-0.3,2.1-0.3c0.4,0,0.8,0.1,1.2,0.2
			c0.9,0.3,1.5,0.9,1.6,1.9C88.8,108,88.7,108.6,88.7,109.2z"/>
		<path class="st0" d="M117.2,111c0.8,0,1.7,0,2.5,0c0.1,0.2,0,0.4,0,0.7c0,0.3,0,0.5,0,0.8c0,0.2,0.1,0.3,0.3,0.4
			c0.2,0,0.4,0,0.6-0.2c0.1-0.1,0.1-0.2,0.1-0.3c0-0.3,0-0.6,0-0.8c0-0.2-0.2-0.4-0.3-0.5c-0.3-0.2-0.7-0.4-1-0.6
			c-0.4-0.2-0.7-0.4-1.1-0.6c-0.6-0.4-1-0.9-1-1.6c0-0.4,0-0.9,0.1-1.3c0.1-0.5,0.4-0.9,0.9-1.1c0.5-0.3,1.1-0.4,1.7-0.4
			c0.7,0,1.4,0,2,0.2c0.2,0.1,0.4,0.1,0.5,0.2c0.4,0.2,0.7,0.5,0.7,1c0.1,0.4,0.1,0.9,0.1,1.3c-0.8,0-1.7,0-2.5,0c0-0.2,0-0.3,0-0.5
			c0-0.2,0-0.3,0-0.5c0-0.2-0.1-0.3-0.3-0.4c-0.2,0-0.4,0-0.5,0.2c-0.2,0.4-0.1,1.1,0.3,1.3c0.2,0.1,0.4,0.2,0.6,0.3
			c0.6,0.3,1.1,0.6,1.6,0.9c0.7,0.4,1,1,1,1.8c0,0.5,0,1-0.1,1.4c-0.1,0.5-0.3,0.8-0.7,1c-0.5,0.3-1,0.4-1.6,0.5
			c-0.7,0.1-1.4,0-2-0.2c-0.1,0-0.3-0.1-0.4-0.1c-0.8-0.3-1.2-0.9-1.3-1.7C117.2,111.9,117.1,111.5,117.2,111z"/>
		<path class="st0" d="M69.9,111c0.8,0,1.7,0,2.5,0c0.1,0.1,0,0.2,0,0.3c0,0.4,0,0.7,0,1.1c0,0.3,0.1,0.4,0.4,0.4
			c0.3,0,0.5-0.1,0.5-0.4c0.1-0.4,0-0.7-0.1-1.1c-0.1-0.2-0.2-0.3-0.3-0.3c-0.3-0.2-0.6-0.4-1-0.6c-0.4-0.2-0.8-0.5-1.2-0.7
			c-0.7-0.4-1-1-1-1.7c0-0.4,0-0.8,0.1-1.2c0.1-0.5,0.3-0.8,0.7-1.1c0.3-0.2,0.7-0.3,1.1-0.4c0.8-0.2,1.7-0.1,2.5,0.1
			c0.1,0,0.2,0.1,0.4,0.1c0.8,0.3,1.2,0.8,1.2,1.6c0,0.3,0,0.6,0,0.9c-0.8,0-1.7,0-2.5,0c-0.1-0.1,0-0.2,0-0.3c0-0.2,0-0.4,0-0.6
			c0-0.2-0.1-0.3-0.3-0.3c-0.2,0-0.4,0-0.5,0.2c-0.2,0.4-0.1,1.1,0.2,1.3c0.2,0.1,0.4,0.2,0.5,0.3c0.6,0.3,1.1,0.6,1.6,0.9
			c0.7,0.5,1.1,1.1,1.1,2c0,0.4,0,0.8,0,1.3c-0.1,0.5-0.3,0.9-0.8,1.1c-0.5,0.3-1,0.4-1.5,0.5c-0.7,0.1-1.4,0-2.1-0.2
			c-0.1,0-0.3-0.1-0.4-0.2c-0.7-0.3-1.1-0.8-1.2-1.6C69.9,111.9,69.9,111.5,69.9,111z"/>
		<path class="st0" d="M89.2,36.4c0.2,0,0.2-0.1,0.2-0.2c0.2-0.3,0.4-0.5,0.8-0.6c0.7-0.3,1.3-0.7,1.9-1c0.6-0.3,1.3-0.6,2-0.7
			c0.6-0.1,0.9,0.1,1.2,0.6c0.1,0.1,0.1,0.3,0.2,0.5c0.2,0.9,0.4,1.8,0.5,2.8c0,0.1,0,0.3,0,0.4c-0.1,0-0.1,0-0.2-0.1
			c-0.1-0.2-0.3-0.2-0.5-0.1c-0.2,0.1-0.3,0.2-0.3,0.4c0,0.1,0,0.3,0,0.4c0,0.1,0,0.3-0.1,0.4c-0.1,0-0.2-0.1-0.2-0.2
			c-0.2-0.8-0.6-1.5-0.9-2.3c0,0,0-0.1,0-0.1c-0.2-0.5-0.4-0.6-0.9-0.3c0,0.1,0.1,0.2,0.2,0.3c0.4,0.5,0.8,1.1,0.9,1.8
			c0.1,0.6,0.1,1.3-0.2,1.9c-0.2,0.5-0.6,0.8-1.1,1c-0.9,0.3-1.7,0.2-2.4-0.5c-0.6-0.6-0.9-1.4-1.1-2.3c-0.1-0.4-0.1-0.8,0-1.2
			c0.1-0.3,0-0.4-0.3-0.4c-0.4-0.1-0.8-0.2-1.1-0.5c-0.6-0.4-0.8-1.1-0.6-1.8c0.2-0.8,0.8-1.4,1.6-1.8c0.1-0.1,0.3-0.1,0.4-0.1
			c0.2,0,0.4,0.2,0.4,0.4c0,0.3-0.1,0.5-0.2,0.7c-0.2,0.2-0.4,0.4-0.6,0.5c-0.2,0.2-0.4,0.3-0.5,0.5c-0.3,0.4-0.3,0.7,0,1
			C88.4,35.9,88.8,36.2,89.2,36.4z"/>
		<path class="st0" d="M85.4,21.5c0,0.2,0.1,0.3,0.2,0.5c0.2,0.4,0.4,0.9,0.5,1.4c0.3,1.1,0.8,2.2,1.5,3.1c0.2,0.2,0.4,0.4,0.5,0.6
			c0.2,0.3,0.2,0.4-0.1,0.6c-0.1,0.1-0.2,0.2-0.2,0.3c-0.5,1.4-1,2.7-1.5,4.1c-0.2,0.5-0.4,1-0.6,1.5c-0.1,0-0.2,0-0.3-0.1
			c0.7-2,1.4-3.9,2.2-5.9c-0.1-0.1-0.3-0.2-0.4-0.4c-0.1,0.2-0.3,0.1-0.4,0c0.2-0.2,0.1-0.3-0.1-0.5c-0.7-0.7-1.2-1.6-1.6-2.5
			c-0.2-0.5-0.3-0.5-0.7-0.1c-0.2,0.3-0.5,0.5-0.7,0.8c-0.6,0.7-0.9,1.6-1,2.5c-0.1,0.9,0,1.8,0.1,2.7c0.1,0.5,0.1,1.1,0.2,1.6
			c-0.1,0-0.2-0.1-0.2-0.2c-0.2-0.3-0.4-0.6-0.6-0.9c0-0.1-0.1-0.1-0.1-0.2c-0.2-0.2-0.4-0.3-0.7-0.3c-0.3,0-0.5,0.2-0.6,0.5
			c-0.1,0.3-0.1,0.7-0.2,1c0,0.1,0,0.2,0,0.3c0,0,0,0,0,0c0-0.4-0.1-0.9-0.1-1.3c-0.1-1.1-0.2-2.2-0.2-3.3c0-2.6,1-4.6,3.3-5.9
			c0.2-0.1,0.5-0.2,0.7-0.3c0.4-0.1,0.7-0.1,0.9,0.3c0,0,0,0.1,0.1,0.1c-0.1-0.4-0.1-0.8,0.2-1.1c0.2-0.2,0.4-0.3,0.6-0.3
			c0.5-0.1,1,0.2,1.1,0.6c0.2,0.5,0,1-0.4,1.3C86.5,22.2,86,22.1,85.4,21.5z"/>
		<path class="st0" d="M102.1,28.4c0.3,0.3,0.4,0.7,0.5,1.1c0.1,1.2-0.2,2.3-0.8,3.4c-0.3,0.6-0.7,1.1-1.1,1.6c-0.4,0.5-0.7,1-1,1.6
			c-0.2,0.4-0.4,0.8-0.4,1.2c-0.1,0.9,0.5,1.6,1.3,1.7c0.8,0.1,1.5-0.2,2-0.9c0.1-0.1,0.2-0.3,0.3-0.4c0.1,0.2,0,0.4,0,0.7
			c-0.2,0.8-0.7,1.4-1.4,1.9c-0.7,0.4-1.4,0.6-2.2,0.7c-0.9,0.1-1.7,0.1-2.6,0c-0.3,0-0.3-0.1-0.4-0.4c-0.1-0.9-0.1-1.8,0.2-2.7
			c0.3-1,0.8-1.9,1.5-2.7c0.6-0.7,1.2-1.4,1.8-2c0.5-0.5,1-1.1,1.4-1.7c0.6-0.8,0.9-1.7,0.9-2.7C102,28.6,102,28.5,102.1,28.4
			C102,28.4,102.1,28.4,102.1,28.4z"/>
		<path class="st0" d="M99.6,50.1c0.2-0.6,0.4-1.1,0.6-1.6c0.1,0,0.2,0.1,0.2,0.1c1.2,0.9,2.4,1.8,3.5,2.9c1.2,1.2,2.1,2.7,2.6,4.4
			c0.3,1.2,0.3,2.4-0.1,3.6c-0.3,0.8-0.8,1.4-1.5,1.8c-0.1,0-0.2,0.1-0.3,0.1c0-0.3,0-0.5,0-0.8c0.1-1.5-0.2-2.8-0.7-4.2
			c-0.5-1.6-1.4-3-2.5-4.3C100.8,51.4,100.2,50.7,99.6,50.1z"/>
		<path class="st0" d="M69,47.9c-0.2-0.7-0.2-1.4,0.1-2c0.4-1.1,1.1-1.9,2-2.6c1-0.7,2.1-1.1,3.2-1.3c1.5-0.3,2.9-0.3,4.5-0.2
			c0.3,0.8,0.7,1.6,1,2.5c-0.1,0.1-0.2,0.1-0.3,0.1c-1,0-2.1,0-3.1,0.2c-1.3,0.1-2.5,0.4-3.7,0.9c-0.8,0.3-1.5,0.8-2.1,1.3
			c-0.4,0.4-0.8,0.7-1.3,1.1C69.2,47.8,69.1,47.8,69,47.9z"/>
		<path class="st0" d="M79.2,38c0.3-0.1,0.6,0,0.8,0.1c0.4,0.1,0.9,0.3,1.3,0.5c1.5,0.6,2.9-0.7,3.2-1.7c0.2-0.6,0.1-1.2,0-1.8
			c-0.2-0.8-0.4-1.7-0.6-2.5c-0.1-0.2-0.2-0.4,0-0.7c0.1,0.1,0.1,0.2,0.2,0.3c0.9,1.8,1.7,3.7,2.4,5.6c0.4,1.1,1.1,2.1,2.1,2.8
			c0.3,0.2,0.6,0.4,1,0.5c0.1,0,0.2,0.1,0.3,0.1c0,0.1-0.1,0.1-0.2,0.1c-3.6,0.7-6.7-0.2-9.6-2.4c-0.3-0.2-0.6-0.5-0.8-0.8
			C79.3,38.1,79.2,38.1,79.2,38z"/>
		<path class="st0" d="M54.9,105.4c0.9,0,1.8,0,2.7,0c0,1.2,0,2.3,0,3.5c0,1.2,0,2.3,0,3.5c0.6,0,1.1,0,1.6,0c0,0.6,0,1.2,0,1.8
			c-1.4,0-2.9,0-4.3,0C54.9,111.2,54.9,108.3,54.9,105.4z"/>
		<path class="st0" d="M91.3,26.2c-1.1-0.9-1.9-2.1-2.4-3.5c-0.7-1.8-0.9-3.6-0.6-5.6c0.2,0.1,0.3,0.3,0.3,0.4
			c0.1,0.3,0.2,0.7,0.3,1.1c0,0.2,0.1,0.3,0.2,0.5c0.3,1,1.4,1.3,2.2,1c0.4-0.1,0.7-0.4,1-0.7c0.3-0.3,0.6-0.7,0.8-1.1
			c0.3-0.5,0.7-1,1-1.6c0.1-0.1,0.2-0.3,0.3-0.3c0,0.1,0,0.2-0.1,0.3c-0.7,1.7-1.5,3.4-2.4,5.1c-0.4,0.8-0.7,1.7-0.8,2.7
			c0,0.5,0,0.9,0.1,1.3C91.4,26,91.4,26.1,91.3,26.2z"/>
		<path class="st0" d="M91.4,11.1c0.1,0.1,0.2,0.2,0.2,0.2c0.9,1.3,1.4,2.7,1.5,4.3c0,0.7-0.1,1.3-0.3,1.9c-0.3,0.7-0.7,1.2-1.4,1.5
			c-0.7,0.3-1.2,0.2-1.6-0.4c-0.7-0.9-0.7-2-0.1-3c0.2-0.2,0.3-0.5,0.5-0.7c0.6-0.7,1-1.5,1.2-2.4C91.4,12.1,91.4,11.6,91.4,11.1z"
			/>
		<path class="st0" d="M87.9,78.4c1.9,0.7,3.8,1.6,5.8,2.1c0,0.4-0.1,0.7-0.1,1.1c0,0.1,0,0.3,0,0.4c0,0.4-0.3,0.7-0.7,0.7
			c-0.5,0-0.9,0-1.4,0c-0.9,0-1.7,0-2.6-0.1c-0.4,0-0.7-0.2-0.8-0.6c-0.1-1.1-0.2-2.2-0.3-3.3C87.8,78.6,87.8,78.5,87.9,78.4z"/>
		<path class="st0" d="M92.4,32.1c-0.3,0-0.5-0.1-0.7-0.3c-0.2-0.3-0.1-0.6,0.2-0.7c0.5-0.2,0.9-0.3,1.4-0.4
			c0.4-0.1,0.8-0.2,1.1-0.3c0.8-0.3,1.4-0.9,1.7-1.7c0.1-0.1,0.1-0.3,0-0.4c0,0,0-0.1-0.1-0.1c-0.6-0.6,0.1-2,1.1-2.1
			c0.4,0,0.7,0.1,0.9,0.5c0.4,0.9-0.1,2-1.1,2.1c-0.2,0-0.3,0.1-0.3,0.3c-0.4,1.1-1.2,2-2.3,2.6c-0.5,0.3-1,0.5-1.6,0.6
			C92.7,32.1,92.6,32.1,92.4,32.1z"/>
		<path class="st0" d="M93.5,26.3c-0.7-0.7-0.5-2.1,0.2-2.7c0.3-0.3,0.6-0.4,0.9-0.6c0.3-0.1,0.6-0.3,0.9-0.4
			c0.1-0.1,0.3-0.2,0.4-0.3c0.2-0.4,0.1-0.8-0.3-0.9c-0.2,0-0.3-0.1-0.5,0c-0.1,0-0.3,0-0.4,0.1c0-0.1,0.1-0.2,0.1-0.3
			c0.4-0.4,0.8-0.5,1.4-0.4c0.5,0.1,0.9,0.4,1,1c0.1,0.3,0,0.6-0.1,0.9c-0.2,0.3-0.4,0.6-0.6,0.8c-0.3,0.3-0.7,0.5-1,0.8
			c-0.3,0.2-0.5,0.4-0.8,0.6c-0.4,0.3-0.7,0.7-0.9,1.2C93.6,26.1,93.6,26.2,93.5,26.3z"/>
		<path class="st0" d="M100.9,28.1c0.1-0.7-0.2-1.2-0.6-1.8c-0.2-0.3-0.4-0.6-0.7-0.8c-0.6-0.7-1.1-1.4-1.4-2.3
			c-0.2-0.5-0.4-1.1-0.4-1.7c0.1,0,0.1,0,0.1,0.1c0.3,0.8,0.9,1.4,1.6,2c0.3,0.3,0.6,0.5,0.9,0.8c0.4,0.4,0.8,0.8,1,1.3
			c0.2,0.5,0.3,1.1,0.2,1.6C101.5,27.7,101.3,28,100.9,28.1z"/>
		<path class="st0" d="M80.8,36.1c-0.4,0-0.8-0.1-1.1-0.3c-0.4-0.3-0.5-0.7-0.4-1.1c0-0.1,0.1-0.2,0.2-0.3c0.3-0.5,0.7-0.8,1.2-1.1
			c0.2-0.1,0.5-0.2,0.8-0.1c0.3,0.1,0.4,0.3,0.3,0.6c-0.1,0.2-0.2,0.4-0.3,0.5c-0.2,0.2-0.4,0.5-0.5,0.7
			C80.7,35.4,80.7,35.7,80.8,36.1z"/>
		<path class="st0" d="M96.1,34c0-0.3,0.1-0.5,0.2-0.7c0.2-0.3,0.4-0.6,0.6-0.9c0.2-0.3,0.4-0.5,0.6-0.7c0.5-0.6,0.9-1.3,0.9-2.1
			c0.1,0,0.1,0.1,0.2,0.1c0.3,0.4,0.4,0.9,0.4,1.4c0,0.6-0.2,1.1-0.7,1.5c-0.1,0.1-0.3,0.2-0.4,0.3C97.3,33.2,96.7,33.5,96.1,34z"/>
		<path class="st0" d="M90.5,29.2c0.5,0,1.1,0.4,1.1,1.1c0,0.6-0.5,1.1-1.1,1.1c-0.7,0-1.3-0.6-1.3-1.2
			C89.2,29.7,89.7,29.2,90.5,29.2z"/>
		<path class="st0" d="M82.7,38.2c-0.6,0-1-0.5-1-1c0-0.6,0.5-1.1,1.1-1.1c0.6,0,1,0.5,1,1.1C83.8,37.7,83.3,38.2,82.7,38.2z"/>
		<path class="st0" d="M99.7,37.6c0-0.6,0.4-1,1-1c0.6,0,1.1,0.4,1.1,1c0,0.6-0.4,1.1-1,1.1C100.2,38.6,99.7,38.2,99.7,37.6z"/>
		<path class="st0" d="M84.5,26.5c0.6,0.1,0.9,0.7,0.8,1.2c0,0.2-0.1,0.3-0.2,0.5c-0.1,0.1-0.2,0.3-0.2,0.4c-0.1,0.1,0,0.2,0.1,0.3
			c0.1,0.1,0.3,0.1,0.4,0c0.1-0.1,0.2-0.2,0.3-0.2c0.1,0.1,0,0.2,0,0.2c-0.1,0.3-0.4,0.6-0.7,0.6c-0.3,0-0.6-0.2-0.7-0.5
			c-0.1-0.3,0-0.5,0-0.7c0.1-0.3,0.1-0.5,0.2-0.8C84.5,27.3,84.6,26.9,84.5,26.5C84.5,26.6,84.5,26.6,84.5,26.5z"/>
		<path class="st0" d="M95.6,17.4c0.4,0.1,0.8,0.3,1,0.6c0.2,0.3,0.1,0.6,0,0.9c-0.2,0.3-0.4,0.5-0.7,0.6c-0.1,0.1-0.2,0.1-0.3,0.1
			c-0.2,0-0.4,0-0.5-0.2c-0.1-0.2,0-0.3,0.1-0.5c0.1-0.1,0.1-0.2,0.2-0.3C95.6,18.3,95.8,17.9,95.6,17.4z"/>
		<path class="st0" d="M93.7,27c0.2,0.2,0.3,0.4,0.4,0.6c0.1,0.3,0,0.6-0.3,0.7c-0.2,0.2-0.5,0.2-0.8,0.2c-0.1,0-0.2-0.1-0.3-0.2
			c-0.1-0.2-0.1-0.3,0-0.5c0.1-0.1,0.2-0.1,0.3-0.2C93.3,27.6,93.6,27.4,93.7,27z"/>
		<path class="st0" d="M98.8,27.6c0.3,0,0.5,0.2,0.5,0.4c0,0.3-0.2,0.5-0.5,0.5c-0.2,0-0.5-0.2-0.5-0.5
			C98.2,27.8,98.5,27.6,98.8,27.6z"/>
		<path class="st1" d="M105.9,53.5c0.1,0,0.2,0.1,0.2,0.2c0,0-0.1,0-0.1,0C105.9,53.6,105.9,53.6,105.9,53.5
			C105.9,53.5,105.9,53.5,105.9,53.5z"/>
		<path class="st0" d="M85,67.3C85.1,67.3,85.1,67.3,85,67.3c0.1,0.1,0.1,0.1,0.1,0.1C85.1,67.3,85.1,67.3,85,67.3
			C85,67.3,85,67.3,85,67.3z"/>
		<path class="st0" d="M85.1,67.4C85.1,67.4,85.2,67.4,85.1,67.4C85.2,67.4,85.2,67.4,85.1,67.4C85.2,67.4,85.2,67.4,85.1,67.4
			C85.1,67.4,85.1,67.4,85.1,67.4z"/>
		<path class="st0" d="M85,67.3C85,67.3,85,67.3,85,67.3C85,67.3,84.9,67.3,85,67.3C84.9,67.3,84.9,67.3,85,67.3
			C85,67.3,85,67.3,85,67.3C85,67.3,85,67.3,85,67.3z"/>
		<path class="st1" d="M105.8,53.4C105.9,53.4,105.9,53.4,105.8,53.4C105.9,53.5,105.9,53.5,105.8,53.4
			C105.8,53.5,105.8,53.4,105.8,53.4L105.8,53.4z"/>
		<path class="st2" d="M118.3,76.1C118.3,76.1,118.4,76.1,118.3,76.1C118.4,76.1,118.4,76.1,118.3,76.1
			C118.4,76.1,118.4,76.1,118.3,76.1C118.3,76.1,118.3,76.1,118.3,76.1z"/>
		<path class="st1" d="M105.8,53.4C105.8,53.4,105.8,53.4,105.8,53.4C105.8,53.4,105.8,53.4,105.8,53.4
			C105.8,53.4,105.8,53.4,105.8,53.4z"/>
		<polygon class="st0" points="113.7,52.8 113.7,52.8 113.7,52.8 		"/>
		<path class="st0" d="M106.1,53.7c0,0,0.1,0.1,0,0.1C106.1,53.8,106.1,53.8,106.1,53.7C106.1,53.7,106.1,53.7,106.1,53.7z"/>
		<path class="st0" d="M106,53.7c0,0,0.1,0,0.1,0c0,0,0,0,0,0C106.1,53.7,106.1,53.7,106,53.7C106,53.7,106,53.7,106,53.7z"/>
		<path class="st3" d="M94.2,107.7L94.2,107.7L94.2,107.7c-0.1-0.1-0.1-0.1,0-0.2C94.2,107.6,94.2,107.6,94.2,107.7z"/>
	</g>
</g>
</svg>
