<?xml version="1.0" encoding="utf-8"?>
<!-- Generator: Adobe Illustrator 28.3.0, SVG Export Plug-In . SVG Version: 6.00 Build 0)  -->
<svg version="1.1" xmlns="http://www.w3.org/2000/svg" xmlns:xlink="http://www.w3.org/1999/xlink" x="0px" y="0px"
	 viewBox="0 0 177.4 125.4" style="enable-background:new 0 0 177.4 125.4;" xml:space="preserve">
<style type="text/css">
	.st0{fill:#FFFFFF;}
	.st1{opacity:0.5;fill:none;stroke:#BBBCC2;stroke-width:0.3055;stroke-miterlimit:10;}
	.st2{opacity:0.7;}
	.st3{fill-rule:evenodd;clip-rule:evenodd;fill:#FFFFFF;}
	.st4{opacity:0.48;fill:#FFFFFF;enable-background:new    ;}
	.st5{opacity:0.66;fill:#FFFFFF;enable-background:new    ;}
	.st6{opacity:0.74;fill:#FFFFFF;enable-background:new    ;}
</style>
<g id="Capa_1">
</g>
<g id="Capa_2">
</g>
<g id="Capa_3">
	<g>
		<g>
			<g>
				<path class="st0" d="M65.6,97.4V91h0.9v5.6h3v0.8H65.6z"/>
				<path class="st0" d="M69.6,94.2c0-0.4,0.1-0.8,0.3-1.2c0.2-0.4,0.4-0.8,0.7-1.1c0.3-0.3,0.7-0.6,1.1-0.7
					c0.4-0.2,0.8-0.2,1.3-0.2c0.5,0,0.9,0.1,1.3,0.2c0.4,0.2,0.8,0.4,1.1,0.7c0.3,0.3,0.6,0.7,0.7,1.1c0.2,0.4,0.3,0.8,0.3,1.3
					c0,0.4-0.1,0.9-0.3,1.3c-0.2,0.4-0.4,0.8-0.7,1.1c-0.3,0.3-0.7,0.6-1.1,0.7c-0.4,0.2-0.8,0.2-1.3,0.2c-0.5,0-0.9-0.1-1.3-0.3
					c-0.4-0.2-0.8-0.4-1.1-0.7c-0.3-0.3-0.6-0.7-0.7-1.1C69.7,95.1,69.6,94.7,69.6,94.2z M70.6,94.2c0,0.3,0.1,0.6,0.2,0.9
					c0.1,0.3,0.3,0.6,0.5,0.8c0.2,0.2,0.5,0.4,0.8,0.5c0.3,0.1,0.6,0.2,0.9,0.2c0.3,0,0.6-0.1,0.9-0.2c0.3-0.1,0.6-0.3,0.8-0.5
					c0.2-0.2,0.4-0.5,0.5-0.8c0.1-0.3,0.2-0.6,0.2-0.9c0-0.3-0.1-0.6-0.2-0.9c-0.1-0.3-0.3-0.6-0.5-0.8c-0.2-0.2-0.5-0.4-0.8-0.5
					c-0.3-0.1-0.6-0.2-0.9-0.2c-0.3,0-0.6,0.1-0.9,0.2c-0.3,0.1-0.6,0.3-0.8,0.5c-0.2,0.2-0.4,0.5-0.5,0.8
					C70.6,93.6,70.6,93.9,70.6,94.2z"/>
				<path class="st0" d="M77.1,96.9v-1.2c0.3,0.3,0.6,0.6,0.8,0.7c0.3,0.1,0.5,0.2,0.8,0.2c0.3,0,0.6-0.1,0.7-0.2
					c0.2-0.1,0.3-0.3,0.3-0.6c0-0.2-0.1-0.4-0.2-0.5c-0.1-0.2-0.4-0.4-0.9-0.7c-0.7-0.5-1.2-0.8-1.4-1.1c-0.2-0.3-0.3-0.6-0.3-0.9
					c0-0.5,0.2-0.9,0.5-1.2c0.4-0.3,0.8-0.5,1.4-0.5c0.2,0,0.5,0,0.7,0.1c0.2,0.1,0.5,0.2,0.7,0.3v1c-0.3-0.2-0.5-0.4-0.8-0.5
					c-0.2-0.1-0.5-0.2-0.7-0.2c-0.3,0-0.5,0.1-0.7,0.2c-0.2,0.1-0.3,0.3-0.3,0.5c0,0.3,0.4,0.7,1.1,1.2l0.1,0.1c0.6,0.4,1,0.7,1.2,1
					c0.2,0.3,0.3,0.7,0.3,1.1c0,0.5-0.2,0.9-0.5,1.2c-0.4,0.3-0.8,0.5-1.4,0.5c-0.3,0-0.7,0-0.9-0.1C77.6,97.3,77.4,97.1,77.1,96.9z
					"/>
			</g>
			<g>
				<path class="st0" d="M89.5,95.9v1c-0.4,0.2-0.8,0.3-1.1,0.4c-0.4,0.1-0.8,0.2-1.2,0.2c-0.4,0-0.7,0-1-0.1
					c-0.3-0.1-0.6-0.2-0.9-0.4c-0.5-0.3-0.8-0.7-1.1-1.2c-0.3-0.5-0.4-1-0.4-1.6c0-0.4,0.1-0.8,0.3-1.2c0.2-0.4,0.4-0.8,0.7-1.1
					c0.3-0.3,0.7-0.6,1.1-0.7c0.4-0.2,0.9-0.2,1.4-0.2c0.4,0,0.7,0,1.1,0.1c0.4,0.1,0.7,0.2,1.1,0.4v1c-0.4-0.2-0.8-0.4-1.1-0.5
					s-0.7-0.2-1-0.2c-0.7,0-1.4,0.2-1.8,0.7c-0.5,0.5-0.7,1-0.7,1.7c0,0.7,0.2,1.3,0.7,1.7c0.5,0.5,1.1,0.7,1.8,0.7
					c0.4,0,0.7-0.1,1.1-0.2C88.7,96.3,89.1,96.2,89.5,95.9z"/>
			</g>
			<g>
				<path class="st0" d="M90.4,97.4l2.8-6.4h0.7l2.8,6.4h-0.9l-0.8-1.9h-2.7l-0.8,1.9H90.4z M92.5,94.7h2l-1-2.3L92.5,94.7z"/>
			</g>
			<g>
				<path class="st0" d="M97.3,97.4V91h1.9c0.6,0,1.1,0.1,1.5,0.4c0.3,0.3,0.5,0.7,0.5,1.2c0,0.3-0.1,0.6-0.2,0.8s-0.4,0.4-0.7,0.5
					c0.5,0.1,0.8,0.3,1.1,0.6c0.3,0.3,0.4,0.6,0.4,1.1c0,0.5-0.2,1-0.6,1.3c-0.4,0.3-0.9,0.5-1.6,0.5H97.3z M98.2,93.8h0.6
					c0.5,0,0.8-0.1,1-0.3c0.2-0.2,0.3-0.4,0.3-0.8c0-0.3-0.1-0.5-0.3-0.7c-0.2-0.1-0.5-0.2-0.9-0.2h-0.9V93.8z M98.2,94.6v2h1.2
					c0.4,0,0.8-0.1,1-0.2c0.2-0.2,0.3-0.4,0.3-0.7c0-0.3-0.1-0.6-0.3-0.8c-0.2-0.2-0.6-0.2-1.1-0.2H98.2z"/>
			</g>
			<g>
				<path class="st0" d="M102.4,94.2c0-0.4,0.1-0.8,0.3-1.2c0.2-0.4,0.4-0.8,0.7-1.1c0.3-0.3,0.7-0.6,1.1-0.7
					c0.4-0.2,0.8-0.2,1.3-0.2c0.5,0,0.9,0.1,1.3,0.2c0.4,0.2,0.8,0.4,1.1,0.7c0.3,0.3,0.6,0.7,0.7,1.1c0.2,0.4,0.3,0.8,0.3,1.3
					c0,0.4-0.1,0.9-0.3,1.3c-0.2,0.4-0.4,0.8-0.7,1.1c-0.3,0.3-0.7,0.6-1.1,0.7c-0.4,0.2-0.8,0.2-1.3,0.2c-0.5,0-0.9-0.1-1.3-0.3
					c-0.4-0.2-0.8-0.4-1.1-0.7c-0.3-0.3-0.6-0.7-0.7-1.1C102.5,95.1,102.4,94.7,102.4,94.2z M103.4,94.2c0,0.3,0.1,0.6,0.2,0.9
					c0.1,0.3,0.3,0.6,0.5,0.8c0.2,0.2,0.5,0.4,0.8,0.5c0.3,0.1,0.6,0.2,0.9,0.2c0.3,0,0.6-0.1,0.9-0.2c0.3-0.1,0.6-0.3,0.8-0.5
					c0.2-0.2,0.4-0.5,0.5-0.8c0.1-0.3,0.2-0.6,0.2-0.9c0-0.3-0.1-0.6-0.2-0.9c-0.1-0.3-0.3-0.6-0.5-0.8c-0.2-0.2-0.5-0.4-0.8-0.5
					c-0.3-0.1-0.6-0.2-0.9-0.2c-0.3,0-0.6,0.1-0.9,0.2c-0.3,0.1-0.6,0.3-0.8,0.5c-0.2,0.2-0.4,0.5-0.5,0.8
					C103.4,93.6,103.4,93.9,103.4,94.2z"/>
				<path class="st0" d="M109.9,96.9v-1.2c0.3,0.3,0.6,0.6,0.8,0.7c0.3,0.1,0.5,0.2,0.8,0.2c0.3,0,0.6-0.1,0.7-0.2
					c0.2-0.1,0.3-0.3,0.3-0.6c0-0.2-0.1-0.4-0.2-0.5c-0.1-0.2-0.4-0.4-0.9-0.7c-0.7-0.5-1.2-0.8-1.4-1.1c-0.2-0.3-0.3-0.6-0.3-0.9
					c0-0.5,0.2-0.9,0.5-1.2c0.4-0.3,0.8-0.5,1.4-0.5c0.2,0,0.5,0,0.7,0.1s0.5,0.2,0.7,0.3v1c-0.3-0.2-0.5-0.4-0.8-0.5
					c-0.2-0.1-0.5-0.2-0.7-0.2c-0.3,0-0.5,0.1-0.7,0.2c-0.2,0.1-0.3,0.3-0.3,0.5c0,0.3,0.4,0.7,1.1,1.2l0.1,0.1c0.6,0.4,1,0.7,1.2,1
					c0.2,0.3,0.3,0.7,0.3,1.1c0,0.5-0.2,0.9-0.5,1.2c-0.4,0.3-0.8,0.5-1.4,0.5c-0.3,0-0.7,0-0.9-0.1
					C110.4,97.3,110.1,97.1,109.9,96.9z"/>
			</g>
			<g>
				<path class="st0" d="M65.7,103.4v-3.9h2v0.4h-1.5v1.3h1.4v0.4h-1.4v1.4h1.5v0.4H65.7z"/>
				<path class="st0" d="M70.7,99.2v3.7c0,0.1,0,0.1,0,0.3c0,0.1,0,0.2,0,0.3h-0.5l0-0.4h0c-0.2,0.3-0.5,0.5-0.8,0.5
					c-0.4,0-0.7-0.2-0.9-0.5c-0.1-0.3-0.2-0.6-0.2-1c0-0.4,0.1-0.7,0.2-1c0.2-0.3,0.5-0.5,0.9-0.5c0.3,0,0.6,0.1,0.8,0.4h0v-1.8
					H70.7z M70.2,102c0-0.7-0.2-1.1-0.7-1.1c-0.5,0-0.7,0.4-0.7,1.1c0,0.7,0.2,1.1,0.7,1.1C70,103,70.2,102.7,70.2,102z"/>
				<path class="st0" d="M73.6,100.5v2.3c0,0.1,0,0.2,0,0.3c0,0.1,0,0.3,0,0.3h-0.5l0-0.4h0c-0.2,0.3-0.4,0.5-0.8,0.5
					c-0.6,0-0.9-0.3-0.9-0.9v-2h0.5v1.9c0,0.4,0.2,0.7,0.5,0.7c0.4,0,0.7-0.3,0.7-0.8v-1.7H73.6z"/>
				<path class="st0" d="M76.2,100.6l0,0.4c-0.2-0.1-0.4-0.1-0.6-0.1c-0.6,0-0.9,0.4-0.9,1.1c0,0.3,0.1,0.5,0.2,0.7
					c0.2,0.2,0.4,0.3,0.7,0.3c0.2,0,0.4-0.1,0.6-0.2l0,0.4c-0.2,0.1-0.4,0.1-0.7,0.1c-0.5,0-0.8-0.1-1-0.4c-0.2-0.3-0.3-0.6-0.3-1
					c0-0.4,0.1-0.8,0.3-1.1c0.2-0.3,0.6-0.4,1.1-0.4C75.8,100.5,76,100.5,76.2,100.6z"/>
				<path class="st0" d="M76.8,101.2l-0.1-0.4c0.3-0.2,0.6-0.2,0.9-0.2c0.3,0,0.6,0.1,0.8,0.3c0.2,0.2,0.3,0.4,0.3,0.7v1.5
					c0,0.2,0,0.3,0,0.4h-0.5l0-0.4h0c-0.2,0.3-0.5,0.4-0.9,0.4c-0.3,0-0.5-0.1-0.7-0.2c-0.2-0.1-0.2-0.4-0.2-0.6c0-0.6,0.5-1,1.5-1
					h0.3v-0.1c0-0.2,0-0.4-0.1-0.5c-0.1-0.1-0.3-0.2-0.5-0.2C77.3,100.9,77,101,76.8,101.2z M78.3,102.3V102c-0.1,0-0.2,0-0.4,0
					c-0.2,0-0.4,0-0.6,0.1c-0.2,0.1-0.3,0.3-0.3,0.5c0,0.3,0.2,0.5,0.5,0.5c0.2,0,0.4-0.1,0.5-0.2C78.2,102.7,78.3,102.5,78.3,102.3
					z"/>
				<path class="st0" d="M81.3,100.6l0,0.4c-0.2-0.1-0.4-0.1-0.6-0.1c-0.6,0-0.9,0.4-0.9,1.1c0,0.3,0.1,0.5,0.2,0.7
					c0.2,0.2,0.4,0.3,0.7,0.3c0.2,0,0.4-0.1,0.6-0.2l0,0.4c-0.2,0.1-0.4,0.1-0.7,0.1c-0.5,0-0.8-0.1-1-0.4c-0.2-0.3-0.3-0.6-0.3-1
					c0-0.4,0.1-0.8,0.3-1.1c0.2-0.3,0.6-0.4,1.1-0.4C81,100.5,81.2,100.5,81.3,100.6z"/>
				<path class="st0" d="M81.9,99.3h0.6v0.6h-0.6V99.3z M81.9,103.4v-2.9h0.5v2.9H81.9z"/>
				<path class="st0" d="M83,102c0-0.4,0.1-0.8,0.3-1c0.2-0.3,0.5-0.5,1-0.5c0.4,0,0.8,0.2,1,0.5c0.2,0.3,0.3,0.6,0.3,1
					c0,0.4-0.1,0.8-0.3,1c-0.2,0.3-0.5,0.5-1,0.5c-0.4,0-0.8-0.2-1-0.5C83.1,102.7,83,102.4,83,102z M83.5,102
					c0,0.7,0.2,1.1,0.7,1.1c0.5,0,0.7-0.4,0.7-1.1c0-0.7-0.2-1.1-0.7-1.1C83.8,100.9,83.5,101.2,83.5,102z M84,100.1l0.4-0.8H85
					l-0.6,0.8H84z"/>
				<path class="st0" d="M86.1,103.4v-2.3c0-0.1,0-0.2,0-0.3c0-0.1,0-0.3,0-0.3h0.5l0,0.4c0.2-0.3,0.4-0.5,0.8-0.5
					c0.6,0,0.9,0.3,0.9,0.9v2h-0.5v-1.9c0-0.4-0.2-0.7-0.5-0.7c-0.4,0-0.7,0.3-0.7,0.8v1.7H86.1z"/>
				<path class="st0" d="M90.4,104.6V101c0-0.1,0-0.1,0-0.3c0-0.1,0-0.2,0-0.3h0.5l0,0.4c0.2-0.3,0.5-0.5,0.8-0.5
					c0.4,0,0.7,0.2,0.9,0.5c0.1,0.3,0.2,0.6,0.2,1c0,0.4-0.1,0.7-0.2,1c-0.2,0.3-0.5,0.5-0.9,0.5c-0.3,0-0.6-0.1-0.8-0.4h0v1.6H90.4
					z M90.9,102c0,0.7,0.2,1.1,0.7,1.1c0.5,0,0.7-0.4,0.7-1.1c0-0.7-0.2-1.1-0.7-1.1C91.2,100.9,90.9,101.2,90.9,102z"/>
				<path class="st0" d="M93.6,101.2l-0.1-0.4c0.3-0.2,0.6-0.2,0.9-0.2c0.3,0,0.6,0.1,0.8,0.3s0.3,0.4,0.3,0.7v1.5
					c0,0.2,0,0.3,0,0.4h-0.5l0-0.4h0c-0.2,0.3-0.5,0.4-0.9,0.4c-0.3,0-0.5-0.1-0.7-0.2c-0.2-0.1-0.2-0.4-0.2-0.6c0-0.6,0.5-1,1.5-1
					H95v-0.1c0-0.2,0-0.4-0.1-0.5c-0.1-0.1-0.3-0.2-0.5-0.2C94,100.9,93.8,101,93.6,101.2z M95,102.3V102c-0.1,0-0.2,0-0.4,0
					c-0.2,0-0.4,0-0.6,0.1c-0.2,0.1-0.3,0.3-0.3,0.5c0,0.3,0.2,0.5,0.5,0.5c0.2,0,0.4-0.1,0.5-0.2C95,102.7,95,102.5,95,102.3z"/>
				<path class="st0" d="M96.2,103.4v-2.3c0-0.1,0-0.2,0-0.3c0-0.1,0-0.3,0-0.3h0.5l0,0.5c0.2-0.3,0.5-0.5,0.9-0.5v0.5
					c-0.1,0-0.1,0-0.2,0c-0.2,0-0.4,0.1-0.5,0.3c-0.1,0.2-0.1,0.4-0.1,0.6v1.5H96.2z"/>
				<path class="st0" d="M98.2,101.2l-0.1-0.4c0.3-0.2,0.6-0.2,0.9-0.2c0.3,0,0.6,0.1,0.8,0.3c0.2,0.2,0.3,0.4,0.3,0.7v1.5
					c0,0.2,0,0.3,0,0.4h-0.5l0-0.4h0c-0.2,0.3-0.5,0.4-0.9,0.4c-0.3,0-0.5-0.1-0.7-0.2c-0.2-0.1-0.2-0.4-0.2-0.6c0-0.6,0.5-1,1.5-1
					h0.3v-0.1c0-0.2,0-0.4-0.1-0.5c-0.1-0.1-0.3-0.2-0.5-0.2C98.7,100.9,98.4,101,98.2,101.2z M99.6,102.3V102c-0.1,0-0.2,0-0.4,0
					c-0.2,0-0.4,0-0.6,0.1c-0.2,0.1-0.3,0.3-0.3,0.5c0,0.3,0.2,0.5,0.5,0.5c0.2,0,0.4-0.1,0.5-0.2C99.6,102.7,99.6,102.5,99.6,102.3
					z"/>
				<path class="st0" d="M102.9,103.4l-1-2.9h0.6l0.7,2.4h0l0.7-2.4h0.5l-0.9,2.9H102.9z"/>
				<path class="st0" d="M104.7,102c0-0.4,0.1-0.8,0.3-1c0.2-0.3,0.5-0.5,1-0.5c0.4,0,0.8,0.2,1,0.5c0.2,0.3,0.3,0.6,0.3,1
					c0,0.4-0.1,0.8-0.3,1c-0.2,0.3-0.5,0.5-1,0.5c-0.4,0-0.8-0.2-1-0.5C104.8,102.7,104.7,102.4,104.7,102z M105.2,102
					c0,0.7,0.2,1.1,0.7,1.1c0.5,0,0.7-0.4,0.7-1.1c0-0.7-0.2-1.1-0.7-1.1C105.5,100.9,105.2,101.2,105.2,102z"/>
				<path class="st0" d="M107.8,103.4v-4.2h0.5v4.2H107.8z"/>
				<path class="st0" d="M109.3,101.2l-0.1-0.4c0.3-0.2,0.6-0.2,0.9-0.2c0.3,0,0.6,0.1,0.8,0.3s0.3,0.4,0.3,0.7v1.5
					c0,0.2,0,0.3,0,0.4h-0.5l0-0.4h0c-0.2,0.3-0.5,0.4-0.9,0.4c-0.3,0-0.5-0.1-0.7-0.2c-0.2-0.1-0.2-0.4-0.2-0.6c0-0.6,0.5-1,1.5-1
					h0.3v-0.1c0-0.2,0-0.4-0.1-0.5c-0.1-0.1-0.3-0.2-0.5-0.2C109.8,100.9,109.5,101,109.3,101.2z M110.7,102.3V102
					c-0.1,0-0.2,0-0.4,0c-0.2,0-0.4,0-0.6,0.1c-0.2,0.1-0.3,0.3-0.3,0.5c0,0.3,0.2,0.5,0.5,0.5c0.2,0,0.4-0.1,0.5-0.2
					C110.7,102.7,110.7,102.5,110.7,102.3z"/>
				<path class="st0" d="M111.9,103.4v-2.3c0-0.1,0-0.2,0-0.3c0-0.1,0-0.3,0-0.3h0.5l0,0.5c0.2-0.3,0.5-0.5,0.9-0.5v0.5
					c-0.1,0-0.1,0-0.2,0c-0.2,0-0.4,0.1-0.5,0.3c-0.1,0.2-0.1,0.4-0.1,0.6v1.5H111.9z"/>
			</g>
			<path class="st3" d="M107.2,70.1c0,0,1.1,0.9,2,2.5c0.5,0.9,0.5,1.7,0.5,1.8c0,0-0.2,0.1-0.4,0.3c-0.2,0.2-0.2,0.2-0.3,0.3
				c0,0-0.2-1.5-0.9-2.9C107.4,70.5,107.2,70.1,107.2,70.1"/>
			<path class="st3" d="M108.6,76.1c0,0,0.9-0.6,1.7-0.5c0,0,1.1-0.7,2.2-1c0,0,2.1-0.3,2.7-0.4c0.6,0,0.8-0.1,0.9-0.1
				c0,0-0.9-0.1-1.5-0.3c-0.6-0.1-1.4-0.3-1.9-0.3c-0.5,0-1.4,0.2-2,0.4C110.7,74.1,109.5,74.7,108.6,76.1"/>
			<path class="st3" d="M100.8,72.7c0,0,2.4-1.3,2.5-1.3c0,0,1.6,0.7,2.6,1.4c0,0,1.1,0.9,1.4,1.2c0,0,0.6,0.8,0.8,1.4
				c0,0,0.3,0.9,0.3,1.1l-1.1-0.6c0,0-0.6-1.3-1.9-1.8c0,0-1.7-0.6-2.3-0.7C103.1,73.5,100.9,73,100.8,72.7"/>
			<path class="st3" d="M108.5,76.6c0,0,0.7-0.7,2.3-0.7c0,0,1.5,0.2,2.5,0.7l1.8,0.8l1,3.1c0,0-0.9-0.4-2-1.3c0,0-2-1.6-2.1-1.7
				c0,0-0.8-0.6-1.6-0.5c-0.2,0-0.2,0-0.3,0c-0.3,0.1-0.5,0.1-0.5,0.1L108.5,76.6z"/>
			<path class="st0" d="M105.8,75c-0.1-0.1-0.2-0.1-0.2-0.1c-0.7-0.5-1-0.5-2.4-0.8c-1.7-0.4-2.7-0.9-2.7-0.9l-0.2-0.1l0.1-0.2
				c0,0,0.1,0,0.2,0.1c0.1,0.1,0.3,0.1,0.6,0.2c0.5,0.2,1.2,0.4,2,0.6c1.4,0.3,1.6,0.4,2.4,0.8c0,0,0.3,0.2,0.6,0.4
				c0.3,0.3,0.6,0.7,0.7,1.1l-0.2,0.1C106.7,75.8,106.1,75.2,105.8,75 M100.5,73.1L100.5,73.1L100.5,73.1L100.5,73.1z"/>
			<path class="st0" d="M115.8,81c-0.1-0.1-0.3-0.2-0.5-0.3c-0.4-0.3-0.9-0.6-1.2-0.9c-0.7-0.6-1-0.8-2.1-1.7
				c-0.4-0.3-0.8-0.4-1.2-0.4c-0.5,0-0.9,0.1-0.9,0.1c0,0,0,0,0,0l-0.1-0.2c0,0,0.4-0.1,1-0.1c0.4,0,0.8,0.1,1.3,0.5
				c1.1,0.9,1.4,1.1,2.1,1.7c0.5,0.4,1.3,1,1.7,1.2c0.1,0.1,0.3,0.1,0.3,0.1l0,0.2C116,81.1,115.9,81.1,115.8,81"/>
			<path class="st0" d="M115.8,81.2c-0.5-0.3-1.4-0.8-1.9-1.2c-0.7-0.6-1-0.9-2.1-1.7c-0.4-0.3-0.9-0.5-1.3-0.5
				c-0.5,0-0.9,0.1-1,0.2l-2.7-1.4l0,0c-0.1-0.4-0.5-0.8-0.7-1.1c-0.3-0.3-0.6-0.4-0.6-0.4c-0.8-0.5-1.1-0.5-2.4-0.8
				c-0.9-0.2-1.6-0.5-2-0.6c-0.2-0.1-0.4-0.2-0.6-0.2c0,0-0.1,0-0.1-0.1l-0.1,0.2c0,0,1.1,0.5,2.8,0.9c1.4,0.3,1.6,0.4,2.4,0.8
				c0,0,0.1,0,0.2,0.1c0.3,0.2,0.9,0.7,1.1,1.3l2.9,1.6c0,0,0,0,0,0c0.1,0,0.4-0.2,0.9-0.2c0.4,0,0.8,0.1,1.2,0.4
				c1.1,0.9,1.4,1.1,2.1,1.7c0.4,0.3,0.9,0.6,1.4,0.9c0.2,0.1,0.5,0.3,0.6,0.3c0.2,0.1,0.3,0.1,0.4,0.2l0-0.2
				C116.1,81.4,115.9,81.3,115.8,81.2"/>
			<polygon class="st0" points="66.4,75.1 65.4,75.1 65.4,87.8 72.4,87.8 72.4,87 66.4,87 			"/>
			<rect x="74.2" y="75.1" class="st0" width="1.1" height="12.8"/>
			<path class="st0" d="M84.5,74.9c-1,0-1.9,0.2-2.7,0.5c-0.8,0.3-1.6,0.8-2.2,1.4c-0.6,0.6-1.1,1.3-1.4,2.1
				c-0.3,0.8-0.5,1.6-0.5,2.5c0,1.1,0.3,2.2,0.8,3.2c0.5,1,1.2,1.8,2.2,2.4c0.6,0.4,1.2,0.7,1.8,0.9c0.7,0.2,1.4,0.3,2.1,0.3
				c0.7,0,1.5-0.1,2.2-0.3c0.7-0.2,1.5-0.5,2.3-0.9v-1.1c-0.9,0.5-1.7,0.8-2.4,1c-0.7,0.2-1.4,0.3-2.1,0.3c-0.8,0-1.6-0.1-2.3-0.4
				c-0.7-0.3-1.3-0.7-1.8-1.2c-0.5-0.5-0.9-1.2-1.2-1.9c-0.3-0.7-0.4-1.4-0.4-2.2c0-1,0.2-1.9,0.7-2.7c0.4-0.8,1.1-1.5,1.8-2
				c0.5-0.3,1-0.5,1.5-0.7c0.5-0.2,1.1-0.2,1.7-0.2c0.7,0,1.4,0.1,2.1,0.3c0.7,0.2,1.5,0.6,2.4,1V76c-0.8-0.4-1.6-0.7-2.3-0.9
				C85.9,74.9,85.2,74.9,84.5,74.9"/>
			<polygon class="st0" points="92.1,81.8 97.8,81.8 97.8,81 92.1,81 92.1,75.9 98,75.9 98,75.1 91,75.1 91,87.8 98.1,87.8 98.1,87 
				92.1,87 			"/>
			<path class="st0" d="M111.8,81.4c0,0.8-0.1,1.5-0.4,2.2c-0.3,0.7-0.7,1.3-1.2,1.8c-0.5,0.5-1.1,1-1.8,1.2
				c-0.7,0.3-1.4,0.4-2.2,0.4c-0.7,0-1.4-0.1-2.1-0.4c-0.7-0.3-1.3-0.7-1.8-1.2c-0.5-0.5-0.9-1.2-1.2-1.9c-0.3-0.7-0.4-1.4-0.4-2.2
				c0-0.8,0.1-1.5,0.4-2.2c0.3-0.7,0.7-1.3,1.2-1.8c0.4-0.4,0.8-0.7,1.3-1l-1-0.5c-0.4,0.2-0.7,0.5-1.1,0.8
				c-0.6,0.6-1.1,1.3-1.5,2.1c-0.3,0.8-0.5,1.6-0.5,2.5c0,0.9,0.2,1.8,0.5,2.6c0.3,0.8,0.8,1.5,1.5,2.2c0.6,0.6,1.3,1.1,2.2,1.4
				c0.8,0.3,1.7,0.5,2.6,0.5c1.1,0,2.2-0.3,3.2-0.8c1-0.5,1.8-1.2,2.4-2.2c0.4-0.5,0.7-1.1,0.9-1.8c0.2-0.6,0.3-1.3,0.3-1.9
				c0-0.2,0-0.4,0-0.6l-1.2-0.6C111.8,80.7,111.8,81.1,111.8,81.4"/>
		</g>
		<g>
			<path class="st0" d="M98.1,31.1c-6,1.4-12.6,3.4-16.3,10.1c0,0-5.4,6.8-2.9,19c2.7,3.7,4.9,6.6,8.8,8.9
				c1.7-12.6,4.3-23.3,15-34.4c-5.6,9.2-8.9,13.2-11.5,35.4c6.4-3.2,10.8-8.3,14.3-14.4c3.6-6.3,4.7-14.6,4.9-24.4
				c0-0.7,0-0.4,0-1.1C108.8,30.1,103.6,29.9,98.1,31.1"/>
			<path class="st0" d="M81.1,40.5c3.7-6.7,10.3-9.8,16.3-11.2c5.5-1.3,11.6-1.1,13.1-0.4c-0.9-0.5-1.5-0.6-2.9-0.9
				c-1-0.2-2.5-0.6-3.4-0.7c-5.6-1-9.8-3.1-13.7-5.3c-0.3,0-0.5,0-0.8,0c-2.6,1.5-5.7,2.8-8.9,3.9c-3.2,1-6.6,1.4-10.1,2.2
				c0,0-0.1,0-0.1,0c0,0.9,0,1.7,0,2.6c0,8.8,1.2,16,3.8,22.1c1.1,2.5,2.4,4.8,4,6.9c0-0.1-0.1-0.3-0.1-0.4
				C75.7,47.3,81.1,40.5,81.1,40.5"/>
		</g>
	</g>
</g>
<g id="Capa_4">
</g>
<g id="Capa_5">
</g>
<g id="Capa_6">
</g>
<g id="Capa_7">
</g>
<g id="Capa_8">
</g>
<g id="Capa_9">
</g>
<g id="Capa_10">
</g>
<g id="Capa_11">
</g>
<g id="Capa_12">
</g>
<g id="Capa_13">
</g>
<g id="Capa_14">
</g>
<g id="Capa_15">
</g>
<g id="Capa_16">
</g>
</svg>
