<?xml version="1.0" encoding="UTF-8"?>
<svg id="Capa_8" data-name="Capa 8" xmlns="http://www.w3.org/2000/svg" viewBox="0 0 177.4 125.4">
  <defs>
    <style>
      .cls-1 {
        fill: #fff;
        stroke-width: 0px;
      }
    </style>
  </defs>
  <path class="cls-1" d="M76.41,53.95s-.05.02-.07.03c.06.13.12.26.17.39.1.23.22.45.3.68.11.33-.06.56-.41.54-.24,0-.49-.06-.73-.1-.61-.09-1.2-.3-1.8-.46-.57-.16-1.13-.37-1.68-.58-.43-.17-.85-.37-1.28-.56-.92-.4-1.83-.83-2.62-1.46-.48-.38-.96-.76-1.44-1.13-1.06-.84-2.26-1.42-3.51-1.89-.67-.25-1.34-.47-2.01-.73-1.14-.44-2.28-.54-3.41.02-.19.1-.4.17-.6.26-1.2.5-2.36,1.07-3.4,1.86-.4.3-.8.58-1.18.9-.26.21-.5.45-.72.69-.23.25-.42.25-.57-.05-.11-.22-.17-.47-.25-.7-.17-.51-.13-.67.28-1.04.08-.07.15-.14.24-.19.55-.3,1.09-.62,1.65-.89,1.19-.57,2.4-1.11,3.6-1.68.66-.32,1.3-.65,2-.87.12-.04.24-.1.31-.13.08-.19.12-.36.21-.48.3-.43.6-.87.95-1.26.76-.85,1.62-1.6,2.32-2.5.04-.06.11-.1.15-.16.16-.19.34-.36.49-.56.69-.91,1.51-1.67,2.44-2.31.95-.65,1.9-1.3,2.85-1.94.7-.47,1.46-.78,2.26-1.02.48-.15.97-.27,1.39-.6.33-.26.61-.15.71.28.09.38.12.78.18,1.17.01.07.03.15.06.26.12-.1.21-.17.29-.25.56-.55,1.12-1.11,1.69-1.65.24-.23.51-.46.8-.58.59-.24,1.2-.44,1.82-.6,1.31-.32,2.64-.3,3.98-.11,1.54.23,3.01.77,4.57.87.21.01.47.14.61.3.24.29.54.38.87.43.32.04.64.06.96.07,1.39.04,2.75-.13,4.11-.43,1.22-.27,2.46-.44,3.71-.45.96,0,1.92,0,2.85.29.5.15,1.01.27,1.52.39.87.2,1.71.47,2.47.95.51.32.95.7,1.15,1.34.13-.04.26-.07.37-.12.31-.16.63-.13.92.03.24.13.48.28.69.46.45.39.94.68,1.53.8.6.12,1.19.24,1.79.35.8.14,1.61.25,2.4.42.48.1.93.33,1.41.45,1.18.3,2.23.8,3.05,1.75.5.58.53.81-.04,1.35-.24.22-.49.44-.73.66.21,0,.39-.05.56-.12.7-.28,1.4-.57,2.1-.85.22-.09.42-.06.62.07,1.01.67,1.96,1.41,2.79,2.3.97,1.05,1.62,2.32,2.31,3.55.43.78.94,1.47,1.53,2.12.09.1.18.19.25.3.16.25.1.48-.16.63-.1.06-.21.09-.32.13-1.12.36-2.24.74-3.37,1.07-.5.15-1.02.23-1.53.3-.88.13-1.77.1-2.65.05-.86-.05-1.7-.21-2.45-.69-.34-.22-.7-.41-1.05-.61-.29.63-.39.71-1.15.83-.07.01-.14.03-.22.03-.91.08-1.83.12-2.73.27-.81.14-1.38-.16-1.86-.76-.06-.07-.11-.13-.17-.2-.06-.06-.13-.12-.21-.2-.03.96-.44.97-.95,1.03-.08,0-.17-.01-.26-.02-.35-.05-.69-.1-1.04-.14-1.04-.11-2.08-.23-3.12-.32-.4-.03-.81.03-1.21.04-1.54.02-3.08.02-4.61.04-1.12.02-2.23.1-3.35.08-2.35-.03-4.27-1.06-5.94-2.66-.08-.07-.16-.14-.32-.28.06.3.09.49.13.69.1.54.14,1.07.04,1.61-.11.61-.41.98-1.01,1.19-1.31.44-2.66.63-4.02.72-1.46.09-2.93.1-4.39.17-.48.02-.89-.1-1.26-.38-.21-.15-.41-.32-.62-.48M81.48,45.31c-.21-.18-.44-.35-.64-.56-.19-.2-.38-.23-.65-.08.95.89,1.88,1.76,2.82,2.63-.01.02-.03.03-.04.05-.07-.05-.14-.09-.2-.14-.88-.78-1.77-1.55-2.65-2.35-.22-.2-.43-.27-.73-.1,1.33,1.19,2.65,2.37,3.96,3.55-.01.02-.03.04-.04.06-.1-.07-.2-.13-.29-.2-1.22-1.02-2.43-2.04-3.64-3.07-.47-.4-.65-.44-1.29-.21.03.03.05.07.08.1,1.52.97,2.83,2.18,4.13,3.42,1.33,1.27,2.51,2.67,3.72,4.06.28.32.57.58,1,.66.04-.11.09-.19.12-.29.04-.17.07-.34.1-.51-.6-.6-1.18-1.18-1.76-1.76.02-.02.04-.05.06-.07.57.49,1.1,1.03,1.64,1.57.07-.4.06-.41-.19-.65-.32-.3-.63-.6-.95-.91-.07-.07-.12-.15-.13-.28.38.34.76.68,1.14,1.03.03-.02.06-.04.09-.06-.09-.41-.18-.81-.28-1.22-.02-.09-.12-.16-.2-.22-.85-.62-1.51-1.4-2.1-2.26-.45-.65-1.03-1.19-1.62-1.71-.41-.35-.82-.7-1.22-1.06-.33-.29-.33-.3-.83-.17.2.25.39.49.59.74h0ZM76.13,48.85c-.11-.09-.23-.16-.33-.26-.87-.88-1.73-1.77-2.6-2.66-.13-.13-.27-.26-.42-.4-.18.04-.36.09-.57.14.81.93,1.6,1.84,2.39,2.75-.02.02-.04.04-.06.07-.09-.09-.18-.17-.27-.27-.69-.77-1.39-1.54-2.08-2.31-.15-.17-.3-.27-.57-.08,1.29,1.39,2.56,2.79,3.74,4.27-.11-.1-.22-.2-.33-.31-1.14-1.21-2.29-2.41-3.41-3.64-.26-.29-.5-.36-.85-.16.08.09.15.18.24.24,1.29,1.04,2.23,2.36,3.02,3.81.41.74.87,1.45,1.34,2.16.16.25.41.45.63.65.25.23.51.43.77.65.21.18.43.35.65.52.24.18.51.27.82.23.29-.04.58-.04.94-.06-.91-.88-1.81-1.68-2.48-2.68.05.04.09.08.14.12.8.8,1.61,1.6,2.41,2.41.16.16.32.23.59.13-.78-.79-1.54-1.56-2.3-2.33.02-.02.04-.04.05-.06.15.13.3.25.44.39.61.59,1.22,1.17,1.81,1.77.23.23.47.33.8.21-.29-.22-.57-.42-.83-.64-.25-.21-.48-.45-.72-.68.02-.02.04-.04.06-.06.06.05.13.1.19.15.48.38.96.76,1.44,1.14.06.05.15.11.22.11.43-.02.86-.05,1.39-.08-.19-.13-.3-.22-.42-.29-.83-.46-1.47-1.13-2.07-1.85-1.04-1.26-2.09-2.51-3.14-3.75-.84-1-1.86-1.8-2.86-2.63-.26-.21-.51-.13-.82-.07.08.1.13.18.19.25.9.96,1.8,1.91,2.69,2.87.07.07.1.17.16.25h0ZM88.71,38.69c.08-.11.15-.24.25-.34.42-.43.84-.85,1.26-1.28.09-.09.17-.19.28-.32-.4-.06-.71-.03-.99.26-.38.4-.79.78-1.19,1.16-.08.08-.16.14-.3.15.48-.5.96-.99,1.51-1.57-.52.02-.91-.07-1.35.22-1,.69-1.93,1.46-2.8,2.3-.44.42-.81.92-1.23,1.37-.92,1-1.85,1.99-2.77,2.99-.04.04-.07.09-.14.16.48.04.86,0,1.22-.33.4-.37.87-.66,1.31-.99.02.02.04.05.05.07-.43.36-.87.73-1.3,1.09.36.08.68.1.97-.13.42-.32.85-.62,1.28-.92.07-.05.14-.08.26-.06-.44.34-.87.68-1.37,1.08.32.05.53,0,.72-.15.46-.34.91-.67,1.37-1.01.08-.06.15-.12.23-.18.02.02.04.05.05.07-.47.38-.94.77-1.41,1.15.31.09.32.1.56-.08.37-.28.74-.57,1.11-.86.09-.07.18-.12.32-.12-.39.34-.77.67-1.23,1.07.63,0,1.15-.03,1.65-.34,1.04-.63,1.96-1.41,2.86-2.22.72-.66,1.41-1.36,2.12-2.03.57-.54,1.13-1.1,1.72-1.62.48-.42,1.02-.78,1.53-1.16.06-.04.11-.08.17-.13,0,0,0-.03,0-.08-.32.04-.65.07-.97.12-.7.13-1.4.28-2.1.4-.24.04-.42.15-.6.32-1.12,1.05-2.25,2.08-3.37,3.12-.08.07-.17.14-.26.21-.02-.02-.04-.05-.06-.07,1.17-1.12,2.34-2.24,3.58-3.43-.51.04-.88.06-1.2.43-.45.53-.98,1-1.48,1.49-.07.07-.16.11-.24.17h0M77.42,43.73c-.12.16-.24.32-.37.51.25.09.4-.04.54-.18.64-.66,1.27-1.33,1.91-1.99.07-.08.15-.15.26-.2-.57.83-1.29,1.52-1.99,2.28.28.08.45-.04.61-.18.85-.74,1.59-1.58,2.26-2.49.08-.11.17-.23.28-.32,0,.22-.13.4-.26.56-.55.68-1.12,1.35-1.68,2.02-.09.11-.19.21-.36.38.46-.05.82-.12,1.17-.11.67.02,1.15-.28,1.57-.77,1.07-1.23,2.16-2.46,3.24-3.68.04-.04.08-.09.1-.14.54-1.04,1.08-2.07,1.62-3.11.05-.09.08-.18.15-.33-.56-.07-1.09-.1-1.61-.2-.51-.1-1.01-.25-1.51-.38-.89.8-1.72,1.63-2.41,2.61-.89,1.27-1.83,2.5-2.75,3.75-.67.91-1.37,1.79-2.21,2.54-.04.03-.07.08-.11.14.69.13,1.1-.25,1.46-.74.02.02.05.04.07.06M84.13,53.88c-1.14-1-2.18-2.03-3.11-3.17.09.09.19.17.28.26.91.86,1.82,1.72,2.71,2.6.3.29.6.39,1.02.17-.3-.27-.58-.52-.86-.78-.28-.26-.55-.52-.83-.78-.28-.27-.55-.54-.82-.81.02-.02.04-.04.06-.06.15.13.3.25.45.38.61.56,1.22,1.13,1.84,1.68.49.44.52.44,1.24.13-.25-.21-.48-.4-.71-.59l.04-.06c.07.03.14.06.26.12-.06-.11-.1-.18-.15-.24-2.06-2.39-4.18-4.71-6.64-6.69-.33-.26-.67-.51-1.02-.75-.57-.41-.6-.42-1.37-.21.55.59,1.23,1.01,1.71,1.64-.56-.45-1.14-.89-1.68-1.36-.28-.24-.54-.29-.93-.15,1.07.88,2.11,1.74,3.15,2.59-.22-.04-.41-.16-.58-.29-.87-.66-1.74-1.32-2.58-2.01-.29-.24-.57-.31-.91-.25-.15.03-.3.05-.52.09.11.1.15.16.21.2,1.49,1.07,2.73,2.39,3.87,3.82.7.88,1.44,1.72,2.17,2.57.47.55.98,1.04,1.6,1.41.3.18.58.39.86.6.14.11.27.16.45.02-1.43-1.22-2.75-2.54-3.8-4.11.07.08.14.15.2.23,1.14,1.33,2.35,2.58,3.7,3.71.26.22.26.21.68.1M78.64,37.79c.67-.92,1.35-1.84,2.07-2.84-.46,0-.81,0-1.17.02-.07,0-.15.07-.21.13-.32.36-.63.73-.94,1.1-.19.22-.38.44-.55.68-1.32,1.85-2.56,3.74-3.7,5.7-.2.75-.79,1.27-1.17,1.91-.06.1-.11.19-.19.34.38,0,.65-.07.87-.36.69-.87,1.4-1.72,2.1-2.58.02-.03.06-.05.11-.05-.55,1.04-1.36,1.89-2.14,2.85.35.02.58-.07.79-.28.81-.81,1.49-1.72,2.15-2.65.29-.41.55-.82.83-1.24.1-.15.21-.3.34-.42-.83,1.6-1.84,3.07-3.07,4.44.36.05.63.01.85-.24.61-.69,1.24-1.36,1.81-2.07.47-.58.87-1.21,1.32-1.81.51-.69,1.04-1.37,1.56-2.06.27-.36.54-.73.83-1.07.42-.49.85-.96,1.29-1.43.16-.17.33-.33.55-.55-.76-.12-1.45-.23-2.09-.34-.74.99-1.45,1.93-2.16,2.88-.03-.02-.06-.04-.09-.06M100.35,52.68c-.68-.52-1.26-.98-1.85-1.43-.39-.29-.71-.64-.98-1.05-.08-.12-.15-.25-.24-.36-1.19-1.47-2.07-3.14-3.04-4.75-.13-.21-.27-.42-.41-.62-.09-.12-.19-.21-.39-.12.22.4.43.78.65,1.16-.02.01-.05.03-.07.04-.21-.35-.42-.69-.64-1.04-.13-.21-.13-.2-.48-.23.34.58.65,1.12.97,1.67-.02.01-.03.02-.05.04-.14-.19-.28-.38-.41-.58-.18-.27-.38-.52-.52-.81-.17-.35-.42-.45-.82-.36.51.97,1.1,1.88,1.59,2.86-.09-.12-.2-.22-.28-.35-.47-.74-.94-1.47-1.4-2.22-.24-.39-.23-.4-.8-.34.69,1.23,1.46,2.39,2.17,3.6-.1-.11-.2-.21-.3-.32-.76-.92-1.43-1.92-2-2.97-.16-.3-.34-.44-.67-.41-.15.01-.31,0-.47-.01.01.06,0,.08.02.08,1.12,1.3,1.94,2.8,2.89,4.22.6.9,1.25,1.76,1.94,2.59.56.68,1.3,1.16,2.04,1.63.07.04.16.07.24.08.24,0,.49,0,.82,0-1.01-1.19-1.85-2.42-2.61-3.7.13.16.26.31.38.47.72.93,1.45,1.86,2.16,2.81.25.34.54.49.96.46.5-.04,1.01-.03,1.61-.04M78.79,35.03c-.42.1-.84.18-1.26.29-.08.02-.16.12-.22.19-.87,1.19-1.73,2.39-2.59,3.59-.38.53-.71,1.09-1.1,1.62.93-1.87,2.21-3.5,3.41-5.2-.51.11-.97.3-1.35.68-.69.69-1.37,1.41-2.12,2.02-.58.46-.96,1.03-1.33,1.65-.7,1.2-1.41,2.4-2.17,3.56-.44.68-.99,1.3-1.49,1.95-.05.07-.11.13-.17.21.39.08.64-.09.85-.39.21-.31.46-.6.72-.87-.16.42-.47.76-.73,1.16.32.03.51-.04.67-.28.25-.39.54-.76.81-1.14.04-.06.1-.12.21-.13-.28.47-.55.94-.84,1.43.27.06.44-.04.58-.25.54-.78,1.09-1.56,1.64-2.33.04-.06.08-.11.15-.16-.06.34-.28.6-.45.88-.18.29-.37.56-.56.84-.2.28-.4.56-.61.86.26.07.33-.1.42-.23.76-1.14,1.52-2.29,2.28-3.43.06-.09.13-.19.24-.27-.04.1-.06.21-.11.3-.65,1.04-1.3,2.08-1.95,3.12-.08.12-.16.24-.25.39.4.02.66-.09.9-.38.81-.99,1.42-2.11,2.05-3.22.94-1.67,2.04-3.24,3.13-4.82.29-.42.65-.79.98-1.18.1-.12.21-.24.31-.36-.02-.03-.03-.06-.05-.1M89.49,46.5c-.35-.42-.7-.85-1.06-1.27-.23-.28-.49-.54-.71-.83-.2-.26-.41-.39-.77-.27.03.16.16.26.25.37.72.86,1.44,1.72,2.16,2.58.09.11.16.23.19.39-.08-.07-.16-.14-.23-.22-.87-.98-1.75-1.96-2.62-2.94-.11-.13-.22-.21-.41-.18-.28.04-.57.04-.88.06.04.06.05.11.08.13,1.4,1.08,2.46,2.47,3.47,3.91.46.66.9,1.33,1.37,1.98.75,1.02,1.67,1.86,2.8,2.46.13.07.29.09.49.07-.08-.07-.15-.15-.23-.21-1.09-.84-2.03-1.83-2.82-2.97-.18-.25-.36-.51-.4-.83,1,1.48,2.25,2.71,3.63,3.81.33.26.22.29.85.24-.11-.13-.2-.23-.29-.33-.81-.9-1.62-1.8-2.42-2.7-.16-.18-.29-.4-.39-.64.03.03.06.05.08.08.85,1.09,1.85,2.06,2.79,3.07.38.41.76.64,1.31.5.08-.02.17-.01.26-.02.03,0,.05-.02.11-.06-.13-.1-.24-.18-.35-.26-.74-.53-1.37-1.15-1.93-1.88-1.11-1.45-2.06-3-3.05-4.54-.36-.55-.78-1.06-1.15-1.6-.19-.27-.41-.39-.73-.35-.08.01-.17,0-.3,0,.06.3.28.49.42.71.14.21.3.42.39.68-.12-.14-.26-.27-.37-.42-.16-.2-.34-.41-.47-.63-.17-.28-.38-.43-.76-.28.58.78,1.24,1.49,1.67,2.39M74.53,54.66c-.65-1.03-1.26-1.99-1.86-2.95.02-.01.04-.03.06-.04.08.11.15.21.23.32.55.83,1.1,1.65,1.64,2.48.17.26.37.39.73.38-.46-.77-.91-1.51-1.36-2.25.02-.01.03-.02.05-.03.06.08.12.15.18.23.39.6.77,1.2,1.16,1.8.28.43.28.43.88.48-.03-.1-.05-.2-.09-.28-.27-.55-.6-1.08-.8-1.65-.24-.67-.71-1.19-1.04-1.8-.24-.45-.52-.88-.75-1.33-.74-1.45-1.77-2.67-2.95-3.76-.34-.31-.64-.12-1.03-.08.76,1.07,1.48,2.1,2.21,3.12-.02.02-.04.03-.06.05-.04-.05-.09-.09-.13-.14-.68-.93-1.36-1.86-2.03-2.79-.17-.24-.17-.24-.52-.13.75,1.11,1.59,2.14,2.21,3.33-.07-.09-.14-.17-.2-.26-.71-.96-1.42-1.92-2.13-2.89-.11-.14-.21-.22-.4-.18-.18.04-.37.05-.6.09.07.1.12.19.17.26.8.99,1.53,2.02,2.1,3.16.44.89.94,1.75,1.41,2.62.27.49.64.9,1.07,1.26.11.09.24.17.33.29.36.5.91.58,1.54.7M64.51,46.12c.29.1.48.02.64-.19.23-.31.46-.6.7-.9.07-.09.15-.17.26-.23-.05.24-.2.42-.33.61-.12.19-.25.37-.33.59.55-.6,1.03-1.25,1.56-1.87.02.18-.11.29-.19.43-.1.16-.21.32-.32.47-.1.14-.21.28-.31.42-.1.14-.2.28-.31.42.3.11.46-.03.61-.24.61-.8,1.24-1.59,1.86-2.39.04-.05.09-.1.16-.12-.44.87-1.07,1.61-1.63,2.4.28-.12.42-.39.61-.6.21-.22.4-.46.6-.7.2-.24.39-.48.58-.71.19-.24.39-.48.57-.72.19-.24.37-.48.58-.69-.27.69-.71,1.28-1.17,1.86-.46.58-.94,1.15-1.43,1.74.42.09.76.01,1.02-.35.35-.47.75-.9,1.06-1.39.65-1.01,1.27-2.03,1.88-3.06.29-.49.47-1.03.56-1.61.06-.39.2-.76.3-1.14.12-.45.25-.9.39-1.4-.55.19-1.03.35-1.49.51-.54,1.07-1.27,2.01-1.94,2.99.47-1.01,1.17-1.89,1.71-2.91-.4.09-.68.26-.92.54-1.34,1.5-2.42,3.19-3.33,4.98-.21.4-.39.82-.59,1.23-.31.64-.69,1.22-1.15,1.75-.07.08-.14.17-.22.28M87.52,43.38c.53.05.97,0,1.4-.3.78-.56,1.59-1.07,2.39-1.6.06-.04.12-.07.19-.08-.79.7-1.63,1.32-2.59,1.95.29.06.45-.02.61-.11,1.19-.67,2.36-1.38,3.44-2.23.04-.03.09-.06.15-.07-.92.98-2.09,1.63-3.16,2.44.45-.22.92-.43,1.36-.67,1.61-.89,3.06-2.01,4.44-3.24,1.07-.95,2.17-1.86,3.26-2.77.18-.16.4-.28.65-.46-.19-.07-.32-.12-.45-.16-.75-.21-1.52-.23-2.29-.21-.11,0-.22.06-.32.11-1.33.58-2.42,1.49-3.44,2.5-.54.53-1.08,1.06-1.62,1.6-1.21,1.19-2.48,2.3-3.92,3.21-.02.01-.04.04-.1.1M90.89,43.43c.11.02.16.03.2.04.45.08.82-.01,1.23-.31,1.2-.89,2.47-1.69,3.73-2.5-1.19,1.05-2.5,1.93-3.84,2.83.34.14.61.08.9-.08,1.65-.91,3.21-1.95,4.66-3.15.08-.06.15-.12.27-.22-.24.45-.88,1.04-2.13,1.92-.78.55-1.6,1.06-2.42,1.6.15.12.3.04.43,0,.64-.2,1.26-.46,1.81-.84.67-.46,1.33-.95,1.96-1.46.81-.65,1.58-1.34,2.38-2,.68-.55,1.37-1.09,2.06-1.62.21-.16.45-.27.69-.42-.05-.04-.1-.11-.17-.13-.62-.2-1.24-.4-1.86-.6-.23-.07-.44-.03-.62.1-.63.44-1.29.85-1.88,1.34-1.1.91-2.15,1.88-3.24,2.8-1.19,1.02-2.51,1.85-3.91,2.53-.06.03-.12.07-.25.15M105.83,52.91c-.07-.11-.09-.16-.13-.21-1.09-1.34-1.93-2.84-2.93-4.24-.39-.54-.68-1.16-1.02-1.73-.27-.45-.56-.89-.82-1.34-.15-.27-.35-.41-.66-.41-.13,0-.25-.03-.46-.06.47,1.06,1.03,2,1.41,3.03-.11-.2-.23-.4-.34-.6-.38-.71-.77-1.41-1.13-2.12-.15-.29-.32-.48-.72-.41.41.85.97,1.61,1.35,2.48-.03-.03-.07-.05-.09-.08-.03-.03-.06-.07-.08-.1-.41-.66-.82-1.31-1.21-1.97-.25-.41-.24-.42-.76-.43-.06.19.09.3.17.42.67,1.06,1.35,2.11,2.03,3.16.08.12.14.24.17.41-.06-.08-.14-.15-.19-.23-.81-1.19-1.63-2.38-2.43-3.58-.13-.2-.26-.29-.53-.24.05.09.08.18.13.26.37.59.74,1.19,1.12,1.77.47.71.94,1.41,1.43,2.09.61.85,1.24,1.69,1.88,2.52.39.52.92.88,1.44,1.26.07.05.16.08.24.09.69.09,1.38.17,2.14.26M72.05,53.78c-.57-.62-.94-1.33-1.33-2.03-.36-.64-.68-1.29-1-1.95-.53-1.08-1.23-2.05-1.93-3.02-.22-.3-.46-.47-.84-.34-.11.03-.23.03-.41.05.32.48.61.92.89,1.36.28.45.56.91.78,1.41-.05-.06-.11-.12-.15-.18-.5-.73-1-1.47-1.51-2.2-.26-.37-.26-.37-.79-.24.18.39.46.7.69,1.04.24.35.48.69.72,1.04.24.34.46.69.7,1.04-.03.02-.05.04-.08.05-.77-1.04-1.55-2.09-2.33-3.14-.28.07-.56.13-.85.21,0,.04,0,.09.03.11.72.71,1.19,1.58,1.6,2.49.32.71.79,1.29,1.4,1.76.25.2.51.39.76.59.77.64,1.64,1.1,2.55,1.49.37.16.74.32,1.12.47M95.2,44.41c-.34-.02-.65-.05-1.02-.07.34.54.67,1.01.95,1.51.83,1.51,1.85,2.9,2.83,4.31.1.14.2.29.33.4.8.67,1.57,1.39,2.46,1.95.08.05.18.09.29.1-1.01-1.19-2.06-2.33-2.89-3.66.1.11.19.21.29.32.88.99,1.76,1.99,2.65,2.96.46.5.26.42,1.1.37-.24-.37-.58-.61-.86-.91-.3-.32-.61-.63-.9-.95-.28-.31-.55-.63-.77-1,.06.05.13.1.18.16.83.84,1.65,1.69,2.47,2.53.12.13.24.25.48.15-.09-.07-.16-.14-.24-.19-.68-.49-1.18-1.16-1.69-1.82-1.31-1.7-2.51-3.47-3.57-5.34-.05-.09-.12-.17-.16-.26-.15-.35-.41-.47-.83-.41.26.75.71,1.39.99,2.12-.07-.08-.14-.15-.19-.24-.29-.5-.62-.99-.86-1.52-.16-.35-.34-.51-.75-.44.08.36.32.63.51.93.2.32.43.63.64.94.21.29.42.58.6.89-.82-.83-1.47-1.79-2.09-2.82M63.1,46.17c.31-.23.51-.57.74-.87.25-.31.47-.63.7-.95.22-.31.42-.63.63-.95.21-.32.43-.65.66-.96-.1.47-.35.87-.6,1.27-.25.4-.5.79-.77,1.17-.28.39-.57.77-.87,1.18.29.12.5.06.7-.17.52-.64.98-1.31,1.31-2.07.68-1.58,1.51-3.07,2.49-4.48.22-.31.44-.62.72-1-.16.09-.26.14-.34.19-.81.55-1.62,1.08-2.42,1.64-.83.58-1.54,1.29-2.18,2.07-.64.77-1.31,1.53-2.02,2.24-.67.67-1.3,1.37-1.84,2.16.38.08.78-.05,1.03-.31.18-.2.38-.39.63-.52-.16.21-.32.42-.51.66.39.05.66-.01.87-.36.29-.47.64-.9,1.01-1.32,0,.21-.13.35-.23.51-.1.16-.22.31-.32.47-.12.17-.23.33-.36.51.4.04.45.03.64-.23.44-.62.86-1.25,1.3-1.88.06-.09.12-.18.22-.26-.11.42-.35.78-.57,1.14-.22.36-.46.7-.7,1.05.03.03.07.05.1.08M101.19,45.11c1.07,1.67,2.1,3.26,3.11,4.86.5.79.96,1.6,1.54,2.33.12.15.23.3.36.44.38.41.9.35,1.38.36.16,0,.21-.16.19-.29-.06-.31-.11-.63-.21-.94-.29-.85-.75-1.61-1.19-2.38-.52-.93-1.04-1.86-1.54-2.8-.15-.28-.25-.59-.38-.93-.17-.04-.38-.08-.66-.14.45,1.12.99,2.12,1.55,3.12-.09-.11-.19-.22-.27-.33-.54-.73-.98-1.52-1.32-2.36-.19-.46-.47-.62-.97-.59.69,1.36,1.53,2.62,2.19,3.98-.11-.14-.22-.28-.32-.43-.7-1.13-1.39-2.26-2.07-3.39-.12-.19-.24-.31-.46-.34-.28-.04-.57-.1-.92-.17M82.01,44.55c.17.14.33.28.5.41.98.74,1.85,1.6,2.64,2.53.33.39.67.76,1.1,1.05.43.29.82.64,1.28.93-.26-.39-.53-.78-.79-1.18.87.89,1.53,1.96,2.6,2.65-.5-.64-1-1.28-1.49-1.92.02-.02.04-.03.06-.05.5.59,1,1.17,1.5,1.76.2.23.4.46.6.69.56.63,1.28.91,2.11,1.05-.05-.05-.1-.1-.16-.14-.86-.57-1.55-1.31-2.15-2.15-.81-1.12-1.6-2.26-2.43-3.37-.59-.78-1.25-1.5-1.97-2.16-.42-.39-.86-.5-1.44-.3.7.86,1.5,1.61,2.1,2.53-.62-.65-1.25-1.29-1.87-1.94-.14-.15-.28-.3-.4-.46-.12-.15-.25-.17-.46-.07.85.94,1.74,1.81,2.43,2.87-.06-.05-.13-.1-.18-.16-.79-.82-1.58-1.63-2.36-2.46-.19-.2-.37-.3-.65-.24-.17.04-.34.03-.51.05,0,.03-.02.06-.03.09M96.81,43.91c.14-.07.29-.12.4-.21.74-.56,1.48-1.13,2.22-1.7.11-.09.22-.17.35-.23-.59.87-1.44,1.45-2.29,2.16.16,0,.26.03.33,0,.19-.08.37-.17.54-.28.7-.43,1.33-.93,1.92-1.51.36-.36.7-.75,1.09-1.07.97-.79,1.71-1.79,2.46-2.77.04-.05.07-.09.1-.14.01-.02.02-.06.03-.12-.15-.15-.3-.31-.46-.48-.46.1-.84.28-1.19.56-1.14.93-2.28,1.86-3.43,2.78-.66.53-1.32,1.05-1.99,1.57-.56.42-1.15.79-1.81,1.05-.09.04-.18.09-.27.2.45.04.9.09,1.35.11.11,0,.24-.1.34-.17.68-.46,1.35-.92,2.02-1.37.05-.03.09-.06.16-.06-.58.6-1.28,1.07-1.94,1.58.02.04.04.08.05.11M101.8,42.48c-.68.56-1.35,1.11-2.03,1.67.02.03.04.06.06.09.4-.18.74-.46,1.1-.7.37-.24.73-.48,1.09-.73.37-.25.73-.52,1.12-.76-.15.26-.38.43-.6.61-.22.19-.46.36-.69.53-.25.18-.49.36-.74.54-.23.17-.47.33-.79.55.3,0,.48-.08.64-.18.83-.52,1.65-1.03,2.47-1.57.42-.28.83-.59,1.23-.91.84-.68,1.74-1.26,2.74-1.79-.21-.12-.39-.23-.6-.35-.7.47-1.41.95-2.12,1.43.55-.63,1.29-1.01,1.9-1.55-.13-.21-.27-.13-.39-.05-.31.2-.6.41-.91.61-.15.1-.31.21-.48.28.4-.47.92-.81,1.44-1.14-.63-.62-.92-.54-1.75,0-1.25.82-2.3,1.88-3.38,2.9-.76.73-1.52,1.45-2.45,1.96-.02.01-.03.05-.09.12.29.04.54.09.8.1.1,0,.2-.09.29-.16.6-.46,1.2-.92,1.81-1.38.09-.07.18-.12.28-.18.01.02.03.04.04.06M108.52,46.48c.74,1.49,1.47,2.91,2.32,4.27-.03.02-.05.04-.08.06-.1-.13-.2-.25-.29-.38-.86-1.29-1.61-2.64-2.34-4.05-.23-.04-.48-.08-.79-.14.07.14.11.23.15.31.82,1.42,1.63,2.84,2.45,4.25.5.86,1.16,1.57,1.93,2.18.07.06.18.12.27.11.53-.05,1.07-.11,1.6-.18.08,0,.15-.06.24-.09-.02-.06-.03-.11-.05-.14-1.08-1.2-1.86-2.61-2.69-3.98-.33-.55-.67-1.1-1.02-1.64-.29-.44-.3-.44-.92-.47.46.88.91,1.73,1.36,2.59-.02.01-.05.03-.07.04-.07-.1-.15-.19-.21-.29-.42-.72-.85-1.43-1.24-2.16-.13-.24-.29-.34-.62-.29M107.23,43.9c-.55.44-1.1.88-1.67,1.33.24.15.4.07.58-.05.48-.33.98-.64,1.46-.95.07-.05.15-.08.24-.09-.44.47-.99.79-1.52,1.2.29.14.54.15.77-.03.69-.53,1.41-1.04,2.06-1.61,1.05-.92,2.19-1.69,3.47-2.23.23-.1.48-.18.72-.35-.21-.08-.42-.16-.63-.24-.07-.03-.14-.05-.21-.07-1.06-.35-1.05-.31-2.05.14-1.52.69-2.88,1.64-4.21,2.63-.61.45-1.25.85-1.87,1.28-.04.03-.08.07-.2.15.35.08.63.15.91.18.09.01.21-.08.3-.14.57-.38,1.13-.78,1.69-1.16.03-.02.07-.03.11-.04.01.02.03.04.04.06M107.8,39.92c-.37.24-.68.45-.99.66-.63.44-1.27.88-1.89,1.34-1.16.86-2.33,1.71-3.61,2.36-.04.02-.07.05-.1.08.26.11.26.11.45.01.25-.14.5-.28.8-.36-.2.15-.41.3-.64.48.35.15.65.18.97-.02.39-.25.8-.47,1.24-.63-.18.15-.36.3-.55.44-.19.14-.38.27-.6.43.48.19.89.26,1.31-.07.62-.49,1.26-.93,1.89-1.42,1.05-.81,2.11-1.61,3.29-2.22.36-.18.73-.35,1.16-.56-.47-.13-.83-.19-1.22.06-.86.55-1.74,1.05-2.62,1.57-.07.04-.15.07-.27.03.9-.61,1.79-1.22,2.69-1.84-.19-.17-.33-.04-.47.05-.58.39-1.16.78-1.74,1.16-.08.06-.17.11-.27.14.13-.24.35-.37.55-.54.2-.17.41-.33.62-.48.22-.16.44-.31.72-.51-.29-.08-.51-.13-.72-.19M106.57,46.09c.23.54.44,1.02.64,1.49-.03.01-.05.03-.07.04-.16-.29-.33-.58-.49-.87-.08-.15-.16-.31-.24-.47-.09-.19-.23-.29-.49-.21.42,1.05.99,2.03,1.39,3.08-.03.02-.06.03-.09.04-.16-.27-.33-.54-.47-.82-.36-.71-.73-1.43-1.06-2.16-.14-.32-.39-.29-.71-.33.08.18.12.33.19.46.61,1.16,1.26,2.31,1.83,3.49.39.8.96,1.45,1.51,2.13.29.36.62.69.94,1.04.21.23.47.32.78.28.38-.05.77-.09,1.2-.14-.27-.24-.51-.43-.72-.64-.5-.51-.95-1.07-1.3-1.7-.78-1.4-1.58-2.79-2.38-4.19-.1-.18-.18-.4-.48-.52M107.46,45.55c.4.12.8.27,1.22-.09.23-.2.53-.34.8-.5.02.03.04.06.06.08-.28.21-.55.43-.83.64.01.02.02.04.03.06.74-.45,1.47-.91,2.21-1.36.02.03.04.06.06.09-.56.5-1.23.87-1.85,1.36.27.14.5.15.74,0,.62-.41,1.24-.81,1.84-1.24.86-.62,1.7-1.28,2.68-1.72.46-.21.93-.4,1.43-.61-.09-.08-.17-.16-.26-.22-.25-.15-.51-.29-.76-.42-.41-.21-.82-.38-1.24-.02-1.64.55-3.04,1.5-4.34,2.63-.56.48-1.18.9-1.78,1.34M114.88,47.61c.27.56.64.94.77,1.45-.38-.5-.77-1.01-1.16-1.51-.01-.01-.05,0-.15,0,.41.87.89,1.68,1.23,2.56-.08-.11-.17-.22-.24-.33-.39-.67-.8-1.33-1.16-2.01-.16-.3-.35-.44-.73-.39.05.1.1.18.14.26.31.54.65,1.07.94,1.63.73,1.41,1.6,2.71,2.77,3.8.12.11.26.21.39.32.02-.02.04-.04.06-.06-.17-.27-.35-.55-.52-.82.02-.01.04-.03.06-.04.2.25.41.5.61.76.13.17.28.23.52.16-.32-.45-.63-.87-.94-1.3.03-.02.06-.04.09-.07.3.37.61.73.89,1.12.16.22.32.34.61.32.34-.03.69-.01,1.06-.08-.1-.07-.19-.15-.3-.21-.55-.32-1.02-.72-1.42-1.21-.71-.87-1.42-1.74-2.11-2.62-.21-.26-.36-.56-.55-.84-.18-.26-.38-.52-.57-.77-.04-.05-.13-.05-.29-.11M121.11,53.36c-.31-.43-.57-.77-.82-1.12.42.28.69.69,1.03,1.07.34-.08.69-.17,1.1-.27-.11-.1-.18-.16-.25-.22-.34-.28-.71-.52-1.01-.83-.79-.84-1.57-1.68-2.18-2.67-.12-.2-.27-.38-.39-.58-.12-.2-.3-.31-.6-.33.16.3.29.56.42.82-.02.01-.04.03-.06.04-.17-.25-.34-.5-.5-.75-.1-.17-.21-.31-.47-.27.34.65.68,1.28,1.02,1.92-.02.01-.05.03-.07.04-.24-.4-.48-.8-.72-1.2-.06-.1-.14-.19-.18-.3-.27-.75-.92-.77-1.63-.88.28.41.5.76.76,1.09.74.94,1.49,1.87,2.23,2.81.52.67,1.24,1.1,1.91,1.57.08.05.2.03.39.06M118.07,45.27c.56-.24,1.11-.49,1.67-.73-.16-.25-.16-.25-.41-.15-.34.15-.68.3-1.05.39.35-.19.7-.38,1.06-.57-.2-.25-.41-.29-.67-.18-.49.21-.98.43-1.49.62-.72.26-1.46.5-2.19.74-.46.15-.9.3-1.32.56-.3.19-.65.32-1.03.49.29.15.58.13.84.22.31.1.56,0,.82-.14.3-.17.62-.32.93-.47.18-.09.37-.15.59-.16-.5.28-1.01.56-1.54.86.14.16.27.08.39.03.67-.29,1.33-.58,2-.87.08-.03.16-.06.25-.07-.54.51-1.26.72-1.93,1.09.31.15.57.17.84.06.66-.27,1.32-.53,1.98-.81.4-.17.8-.34,1.2-.51.54-.22,1.09-.39,1.69-.35.01-.03.02-.06.03-.08-.25-.2-.5-.41-.77-.63-.63.24-1.26.49-1.89.74,0-.03-.01-.05-.02-.08M112.65,47.24c.24.47.49.94.73,1.41-.02.02-.04.03-.07.04-.07-.09-.14-.17-.2-.27-.23-.35-.46-.71-.69-1.06-.21-.32-.21-.32-.73-.33.28.49.54.95.81,1.42.27.47.53.93.73,1.45-.11-.13-.24-.25-.33-.39-.49-.74-.99-1.48-1.45-2.24-.19-.33-.4-.51-.78-.48.13.36,2.96,5.07,3.35,5.54-.09-.79-.42-1.43-.64-2.12.26-.06.33.11.42.22.46.54.93,1.08,1.39,1.63.39.47.87.81,1.53,1.05-.1-.13-.15-.2-.21-.26-1.11-1.03-1.82-2.33-2.5-3.66-.32-.64-.72-1.23-1.09-1.85-.05-.07-.14-.12-.21-.18-.02.02-.05.04-.07.05M123.64,51.62c.23.28.45.56.71.87.36-.13.73-.27,1.21-.44-1.21-.51-2.01-1.5-3.22-1.95.1.2.18.35.26.51-.02.02-.03.03-.05.05-.13-.15-.28-.29-.38-.46-.21-.36-.55-.5-.99-.64.25.47.47.88.7,1.3-.02.01-.05.03-.07.04-.18-.26-.37-.52-.55-.79-.11-.16-.22-.31-.31-.47-.15-.26-.36-.4-.68-.43.48.76.95,1.5,1.42,2.24-.03.03-.06.05-.09.08-.09-.1-.19-.2-.28-.31-.52-.68-1.04-1.37-1.55-2.06-.15-.2-.32-.32-.57-.33.35.83,2.62,3.3,3.72,4.05.25-.06.5-.12.78-.19-.2-.35-.39-.69-.58-1.02.02,0,.03-.02.05-.03.26.33.52.65.78.97,0,.01.08-.02.17-.06-.18-.29-.35-.57-.51-.85l.05-.07M116.68,43.07c-.16-.16-.29-.29-.44-.44-.54.14-1.05.33-1.53.6-.69.37-1.36.78-2.01,1.21-.77.51-1.52,1.05-2.3,1.59.17.09.33.1.51-.02.24-.17.5-.33.8-.42-.21.17-.41.34-.64.53.18.14.31.06.44-.02.34-.2.67-.41,1-.62.08-.05.16-.1.24-.15.02.03.04.05.06.08-.34.28-.69.55-1.11.89.15-.02.23,0,.29-.03.44-.19.93-.31,1.31-.59,1.08-.78,2.27-1.41,3.21-2.38.05-.05.09-.11.18-.22M120.26,47.1c.48-.35,1.09-.42,1.61-.69-.05-.18-.17-.21-.31-.17-.25.07-.5.14-.76.2-.07.02-.15.02-.25-.03.31-.13.63-.25,1-.41-.13-.14-.24-.27-.35-.39-.71.08-1.39.19-2.04.46-.84.35-1.7.67-2.55,1.01-.07.03-.12.07-.22.12.36.16.66.25,1.01.02.25-.17.55-.26.87-.32-.27.18-.53.36-.83.56.59.33.98-.18,1.49-.25-.14.27-.43.31-.64.51.28.16.54.23.83.15.31-.08.62-.16.93-.24.77-.19,1.55-.37,2.35-.57-.01-.21-.16-.32-.29-.43-.33.08-.64.14-.94.23-.29.08-.58.19-.87.29-.01-.03-.02-.05-.04-.08M121.84,49.11c.12.03.26.12.36.09.41-.12.82-.27,1.27-.42-.25-.46-.47-.86-.71-1.29-1,.24-1.98.48-3.03.73.13.07.2.13.28.16.35.14.71.26,1.05.41.23.1.43.1.66.01.3-.11.61-.19.91-.28.06-.02.13,0,.22.06-.34.14-.69.29-1.03.43v.1M63.71,47.09c.47.68.92,1.32,1.37,1.96.09.13.2.26.24.41.1.32.35.44.69.58-.09-.2-.13-.35-.2-.48-.35-.64-.7-1.27-1.07-1.9-.1-.17-.24-.33-.38-.47-.19-.2-.25-.31-.64-.1M122.47,49.34c.06.06.08.1.12.12.62.36,1.24.73,1.92,1.12-.33-.59-.63-1.15-.95-1.72-.39.17-.73.32-1.09.48M65.26,49.6c-.56-.86-1.19-1.67-1.84-2.47-.14.03-.27.06-.42.1.19.24.37.45.54.67.26.33.53.66.75,1.02.23.38.54.59.97.68M63.25,48.75c-.37-.44-.73-.87-1.1-1.32-.17.04-.33.08-.53.13.28.34.51.66.78.93.22.22.53.24.85.26M62.44,47.36c.38.5.75.97,1.11,1.44.16.2.16.2.61.29-.01-.05,0-.09-.03-.12-.42-.52-.83-1.05-1.25-1.57-.12-.15-.25-.18-.43-.04M62.02,48.31c-.21-.22-.42-.44-.65-.68-.33.08-.68.16-1.11.27.35.09.63.15.9.23.27.08.54.18.81.27.02-.03.03-.05.04-.08M90.85,38.95c-.57.51-1.14,1.03-1.7,1.54.02.02.04.05.06.07.61-.47,1.17-.99,1.73-1.51-.03-.03-.06-.07-.09-.1M88.71,38.69l-.37.27c.19,0,.3-.11.36-.27h0ZM81.67,40.95c1.32-1.05,2.43-2.31,3.63-3.48-.02-.02-.04-.05-.05-.07-.07.05-.16.09-.22.15-.41.4-.81.8-1.21,1.2-.67.67-1.33,1.35-1.99,2.03-.05.06-.1.11-.16.17M84.07,35.92c-.77.46-1.27,1.19-1.83,1.85.68-.55,1.21-1.25,1.83-1.85M84.2,37.6c-.33.19-1.42,1.36-1.81,1.94.33-.16,1.66-1.59,1.81-1.94M83.33,36.22c-.37.2-.63.52-.91.86.24-.09.53-.34.91-.86M76.13,48.85c.08.11.17.23.25.34.02-.02.04-.04.06-.06-.11-.09-.21-.18-.32-.27h0ZM81.96,35.73c-.31.09-1.16.95-1.69,1.69.36-.16,1.45-1.26,1.69-1.69M79.85,35.21c-.53.69-.97,1.44-1.42,2.18.41-.38,1.35-1.83,1.42-2.18M78.53,37.97l-.33.46s.04.03.06.05c.12-.15.23-.3.35-.46-.03-.02-.05-.04-.08-.06M98.82,52.5c-.2-.34-1.57-1.83-2.31-2.5.18.49,1.9,2.36,2.31,2.5M75.97,36.11c-.94,1.12-1.65,2.4-2.47,3.7.27-.22,2.36-3.33,2.47-3.7M70.78,37.9c-.35.78-.7,1.57-1.05,2.35.03.01.06.03.09.04.38-.77.85-1.5,1.1-2.34-.05-.02-.09-.04-.14-.06M94.45,39.41c1.22-.97,2.39-1.9,3.57-2.83,0-.01,0-.03-.02-.04-.14.07-.3.12-.43.21-1.09.75-2.09,1.62-3.06,2.52-.02.02-.02.05-.06.13M95.19,38.13c.62-.51,1.24-1.02,1.92-1.59-.44.12-1.49.98-1.92,1.59M81.84,45.68c.09.11.18.23.26.34.02-.02.04-.04.07-.07-.11-.09-.22-.18-.34-.27h0ZM81.84,45.68c-.12-.12-.24-.25-.35-.37h0c.12.13.24.26.35.38h0ZM100.66,37.15c-.59.42-1.17.84-1.76,1.26.02.03.04.06.06.09.61-.39,1.25-.73,1.77-1.25-.02-.03-.05-.07-.07-.1M102.15,49.87c.48.96,1.1,1.82,1.81,2.62.03-.02.05-.04.08-.06-.63-.85-1.26-1.71-1.88-2.56M103.09,50.58c.24.52.56.97,1.02,1.31-.28-.49-.66-.89-1.02-1.31M107.03,52.74c-.37-.64-.74-1.29-1.11-1.93-.03.02-.06.03-.08.05.33.67.69,1.32,1.08,1.96.04-.02.07-.05.11-.07M106.34,51.26c.21.38.42.76.63,1.15.04-.3-.15-.67-.63-1.15M111.69,51.15c.33.53.67,1.06,1,1.58.03-.02.06-.04.08-.05-.27-.57-.66-1.07-1.01-1.58-.03.02-.06.04-.08.05M112.12,51.11c.23.49.48.96.86,1.34-.16-.53-.53-.92-.86-1.34M111.6,41.24c-.5.3-1,.6-1.58.94.38-.06,1.21-.53,1.58-.94M110.04,41.87c.06-.03.13-.05.19-.08.29-.18.59-.37.86-.58-.41.11-.74.36-1.05.66M113.83,42.11c-.72.34-1.28.78-1.88,1.25.38-.11,1.63-.93,1.88-1.25M114.46,42.22c-.68.28-1.28.7-1.85,1.17.63-.36,1.27-.72,1.9-1.09-.02-.03-.04-.06-.05-.09M115.4,43.38c-.65.19-1.17.58-1.68,1,.6-.26,1.15-.61,1.68-1"/>
  <g>
    <path class="cls-1" d="M21.7,66.51h.95s-.02,8.61-.02,8.61h3.91s0,.86,0,.86h-4.86s.02-9.47.02-9.47ZM31.02,66.53v5.9c-.01.69.09,1.32.31,1.71.57,1.06,1.51,1.17,1.95,1.17s1.38-.1,1.96-1.16c.22-.4.32-1.02.32-1.71v-5.9s.96,0,.96,0v5.9c-.01.79-.14,1.47-.37,1.97-.65,1.42-1.99,1.76-2.87,1.76s-2.21-.35-2.86-1.77c-.23-.5-.36-1.18-.35-1.97v-5.9s.96,0,.96,0ZM43.36,71.18l-3.02-4.63h1.11s2.51,3.79,2.51,3.79l2.5-3.78h1.1s-3.05,4.63-3.05,4.63l3.23,4.84h-1.13s-2.65-4.05-2.65-4.05l-2.71,4.04h-1.11s3.22-4.83,3.22-4.83ZM52.3,66.56v5.9c-.01.69.09,1.32.31,1.71.57,1.06,1.51,1.17,1.95,1.17s1.38-.1,1.96-1.16c.22-.4.32-1.02.32-1.71v-5.9s.96,0,.96,0v5.9c-.01.79-.14,1.47-.37,1.97-.65,1.42-1.99,1.76-2.87,1.76s-2.21-.35-2.86-1.77c-.23-.5-.36-1.18-.35-1.97v-5.9s.96,0,.96,0ZM62.23,66.58h2.4c1.27,0,1.89.16,2.33.37,1.06.5,1.69,1.54,1.68,2.7,0,1.37-.99,2.76-2.82,2.87l2.67,3.53h-1.19s-3.2-4.29-3.2-4.29c1.2,0,1.61,0,2.03-.14,1.04-.29,1.56-1.16,1.56-2,0-.74-.42-1.51-1.03-1.82-.56-.3-1.05-.36-1.84-.36h-1.65s-.02,8.6-.02,8.6h-.95s.02-9.46.02-9.46ZM74.69,72.91l-3.28-6.31h1.05s2.69,5.31,2.69,5.31l2.78-5.3h1.04s-3.34,6.3-3.34,6.3v3.16s-.95,0-.95,0v-3.16ZM100.86,67.51h-2.17s0-.86,0-.86h5.28s0,.87,0,.87h-2.16s-.02,8.6-.02,8.6h-.95s.02-8.61.02-8.61ZM107.52,66.66h5.18s0,.87,0,.87h-4.23s0,3.39,0,3.39h4.09s0,.86,0,.86h-4.09s0,3.48,0,3.48h4.23s0,.86,0,.86h-5.18s.02-9.47.02-9.47ZM117.08,66.68h.95s-.02,8.61-.02,8.61h3.91s0,.86,0,.86h-4.86s.02-9.47.02-9.47ZM125.47,66.69h.95s-.02,9.46-.02,9.46h-.95s.02-9.46.02-9.46ZM130.84,66.7h5.18s0,.87,0,.87h-4.23s0,3.39,0,3.39h4.09s0,.86,0,.86h-4.09s0,3.48,0,3.48h4.23s0,.86,0,.86h-5.18s.02-9.47.02-9.47ZM140.26,66.72h2.4c1.27,0,1.89.16,2.33.37,1.06.5,1.69,1.54,1.68,2.7,0,1.37-.99,2.76-2.82,2.87l2.67,3.53h-1.19s-3.2-4.29-3.2-4.29c1.2,0,1.61,0,2.03-.14,1.04-.29,1.56-1.16,1.56-2,0-.74-.42-1.51-1.03-1.82-.56-.3-1.05-.36-1.84-.36h-1.65s-.02,8.6-.02,8.6h-.95s.02-9.46.02-9.46ZM150.9,73.55c.05,1.19.8,1.96,1.97,1.96,1,0,1.91-.76,1.91-1.88,0-1.46-1.47-1.83-2.11-2.02-.86-.26-2.45-.62-2.45-2.5,0-1.47,1.17-2.54,2.66-2.54,1.55,0,2.62,1.19,2.62,2.58h-.95c0-.96-.78-1.72-1.67-1.72-1.09,0-1.71.83-1.72,1.65,0,1.15,1.01,1.42,2.25,1.78,2.33.63,2.31,2.46,2.31,2.74,0,1.46-1.18,2.77-2.86,2.77-1.23,0-2.88-.73-2.91-2.82h.95ZM92.38,66.46h0s0,0,0,0l-4.04,9.63h1.16s2.88-7.21,2.88-7.21l2.86,7.22h1.16s-4.01-9.64-4.01-9.64Z"/>
    <g>
      <path class="cls-1" d="M46.55,89.81h-2.43l-.48,1.12h-.93l2.19-4.86h.89l2.19,4.86h-.94l-.49-1.12ZM46.25,89.1l-.92-2.12-.91,2.12h1.82Z"/>
      <path class="cls-1" d="M54.26,90.42l.31-.7c.39.31,1.01.53,1.6.53.76,0,1.08-.27,1.08-.63,0-1.05-2.89-.36-2.89-2.17,0-.78.62-1.45,1.96-1.45.58,0,1.19.15,1.62.43l-.28.7c-.44-.26-.92-.38-1.34-.38-.75,0-1.05.29-1.05.66,0,1.03,2.88.36,2.88,2.14,0,.78-.63,1.44-1.96,1.44-.76,0-1.51-.24-1.92-.58Z"/>
      <path class="cls-1" d="M62.03,86.84h-1.61v-.76h4.12v.76h-1.61v4.09h-.9v-4.09Z"/>
      <path class="cls-1" d="M66.89,88.5c0-1.44,1.11-2.5,2.62-2.5s2.62,1.05,2.62,2.5-1.11,2.5-2.62,2.5-2.62-1.06-2.62-2.5ZM71.21,88.5c0-.99-.73-1.71-1.71-1.71s-1.71.71-1.71,1.71.73,1.71,1.71,1.71,1.71-.71,1.71-1.71Z"/>
      <path class="cls-1" d="M78.34,90.93l-.99-1.42c-.06,0-.12,0-.19,0h-1.1v1.42h-.9v-4.86h2c1.28,0,2.07.65,2.07,1.73,0,.74-.37,1.28-1.03,1.53l1.12,1.6h-.97ZM77.12,86.84h-1.05v1.94h1.05c.79,0,1.2-.36,1.2-.97s-.41-.96-1.2-.96Z"/>
      <path class="cls-1" d="M84.34,89.22v1.71h-.9v-1.7l-1.91-3.16h.96l1.42,2.37,1.44-2.37h.89l-1.9,3.14Z"/>
      <path class="cls-1" d="M93.89,86.84h-1.61v-.76h4.12v.76h-1.61v4.09h-.9v-4.09Z"/>
      <path class="cls-1" d="M98.75,88.5c0-1.44,1.11-2.5,2.62-2.5s2.62,1.05,2.62,2.5-1.11,2.5-2.62,2.5-2.62-1.06-2.62-2.5ZM103.07,88.5c0-.99-.73-1.71-1.71-1.71s-1.71.71-1.71,1.71.73,1.71,1.71,1.71,1.71-.71,1.71-1.71Z"/>
      <path class="cls-1" d="M112,86.84h-1.61v-.76h4.12v.76h-1.61v4.09h-.9v-4.09Z"/>
      <path class="cls-1" d="M120.92,90.17v.76h-3.64v-4.86h3.55v.76h-2.64v1.26h2.35v.74h-2.35v1.34h2.74Z"/>
      <path class="cls-1" d="M124.01,86.07h.9v4.09h2.54v.76h-3.44v-4.86Z"/>
      <path class="cls-1" d="M130.24,86.07h.9v4.09h2.54v.76h-3.44v-4.86Z"/>
    </g>
  </g>
</svg>