<?xml version="1.0" encoding="UTF-8"?>
<svg id="Capa_8" data-name="Capa 8" xmlns="http://www.w3.org/2000/svg" viewBox="0 0 177.4 125.4">
  <defs>
    <style>
      .cls-1 {
        fill: #fff;
        stroke-width: 0px;
      }
    </style>
  </defs>
  <path class="cls-1" d="M25.63,97.96c0-.55.49-.93,1-.93.96.01,1.46.6,1.62,1.28h.06l-.09-1.48c-.12.09-.29.16-.41.16-.35,0-.6-.22-1.12-.22-.87,0-1.62.49-1.62,1.37,0,1.7,2.77,2.08,2.77,3.76,0,.71-.35,1.33-1.12,1.33-.99,0-1.24-.38-1.56-1.27h-.07l.1,1.48c.12-.09.24-.1.37-.1.35,0,.77.15,1.12.15,1,0,1.77-.68,1.77-1.7,0-1.99-2.82-2.29-2.82-3.84ZM45.99,97.58v3.61c-.01,1.52-.87,1.93-1.78,1.93-.84,0-1.56-.49-1.56-1.65v-3.86c0-.35.16-.55.4-.77h-1.55c.25.22.4.41.4.77v3.86c0,1.39,1.08,2.04,2.27,2.04,1.3,0,2.12-.8,2.12-2.43v-3.5c0-.44.15-.63.3-.74h-.87c.13.1.28.3.28.74ZM63.17,99.79c.72-.21,1.11-.86,1.11-1.56.01-1.08-1.09-1.39-1.99-1.39h-2.55c.31.3.37.5.37.94v4.72c0,.44-.18.65-.47.94h2.83c1.4,0,2.24-.53,2.21-1.77-.01-1-.69-1.74-1.5-1.89ZM60.84,97.53c0-.37.19-.55.56-.55h.84c.71,0,1.45.3,1.45,1.31,0,.91-.86,1.42-1.76,1.42h-1.09v-2.18ZM62.46,103.35h-1.06c-.37,0-.56-.19-.56-.55v-2.89h1.09c1.18,0,2.12.6,2.14,1.76.01,1.09-.68,1.68-1.61,1.68ZM80.54,96.84h-.66c.1.1.18.22.16.34l-1.93,5.49c-.09.28-.18.56-.38.78h.75c-.09-.1-.16-.24-.13-.37l.65-1.87h2.4l.62,1.74c.06.18-.01.37-.18.5h1.22c-.19-.22-.28-.5-.38-.78l-2.14-5.83ZM79.06,100.99l1.11-3.17,1.14,3.17h-2.24ZM96.67,97.96c0-.55.49-.93,1-.93.96.01,1.46.6,1.62,1.28h.06l-.09-1.48c-.12.09-.29.16-.41.16-.35,0-.6-.22-1.12-.22-.87,0-1.62.49-1.62,1.37,0,1.7,2.77,2.08,2.77,3.76,0,.71-.35,1.33-1.12,1.33-.99,0-1.24-.38-1.56-1.27h-.07l.1,1.48c.12-.09.24-.1.37-.1.35,0,.77.15,1.12.15,1,0,1.77-.68,1.77-1.7,0-1.99-2.82-2.29-2.82-3.84ZM112.65,96.84l-.12,1.49h.04c.19-.86.37-1.31.97-1.31h.41c.35,0,.55.18.55.55v4.94c0,.44-.18.65-.49.94h1.71c-.3-.3-.49-.5-.49-.94v-4.94c0-.37.18-.55.55-.55h.43c.49,0,.78.5.96,1.31h.03l-.12-1.49h-4.44ZM133.08,96.84h-.66c.1.1.18.22.16.34l-1.93,5.49c-.09.28-.18.56-.38.78h.75c-.09-.1-.16-.24-.13-.37l.65-1.87h2.4l.62,1.74c.06.18-.01.37-.18.5h1.22c-.19-.22-.28-.5-.38-.78l-2.14-5.83ZM131.6,100.99l1.11-3.17,1.14,3.17h-2.24ZM149.21,97.96c0-.55.49-.93,1-.93.96.01,1.46.6,1.62,1.28h.06l-.09-1.48c-.12.09-.29.16-.41.16-.35,0-.6-.22-1.12-.22-.87,0-1.62.49-1.62,1.37,0,1.7,2.77,2.08,2.77,3.76,0,.71-.35,1.33-1.12,1.33-.99,0-1.24-.38-1.56-1.27h-.07l.1,1.48c.12-.09.24-.1.37-.1.35,0,.77.15,1.12.15,1,0,1.77-.68,1.77-1.7,0-1.99-2.82-2.29-2.82-3.84Z"/>
  <path class="cls-1" d="M59.8,65.9c-5.07,0-9.53,4.33-9.53,9.92s4.46,9.92,9.53,9.92,9.66-4.24,9.66-9.92-4.42-9.92-9.66-9.92ZM59.89,84.95c-4.72,0-7.58-3.68-7.58-9.14s2.86-9.09,7.58-9.09c4.33,0,7.53,3.94,7.53,9.09s-3.2,9.14-7.53,9.14ZM44.47,66.12h-3.29l-5.54,11.95-8.49-11.95h-2.94c.43.3.87.87.87,2.16v15.07c0,1.3-.43,1.86-.87,2.16h2.6c-.43-.3-.87-.87-.87-2.16v-14.38l9.09,12.77,6.06-13.03v14.55c0,1.08-.39,1.65-1.13,2.25h4.5c-.74-.61-1.17-1.13-1.17-2.16v-15.07c0-1.04.43-1.56,1.17-2.16ZM122.1,65.9c-5.07,0-9.53,4.33-9.53,9.92s4.46,9.92,9.53,9.92,9.66-4.24,9.66-9.92-4.42-9.92-9.66-9.92ZM122.19,84.95c-4.72,0-7.58-3.68-7.58-9.14s2.86-9.09,7.58-9.09c4.33,0,7.53,3.94,7.53,9.09s-3.2,9.14-7.53,9.14ZM152.02,83.27v-14.89c0-1.08.43-1.65,1.17-2.25h-4.5c.74.61,1.17,1.17,1.17,2.25v11.95l-7.19-10.22c-.78-1.08-1.26-2.21-1.26-3.55v-.43h-3.29c.74.61,1.17,1.17,1.17,2.25v14.89c0,1.08-.43,1.65-1.17,2.25h4.46c-.69-.61-1.17-1.17-1.17-2.25v-13.12l6.93,9.92c.91,1.34,1.52,2.73,1.52,4.37v1.08h3.33c-.74-.61-1.17-1.17-1.17-2.25ZM91.49,88.12c-.35,0-.65-.09-.95-.26-3.94-2.04-4.5-8.7-8.88-10.43h.26c3.07,0,5.41-2.55,5.41-6.02.04-3.72-2.47-5.28-4.89-5.28h-6.8c.91.87,1.08,1.47,1.08,2.77v13.86c0,1.3-.52,1.91-1.43,2.77h5.85c-.87-.87-2.25-1.47-2.25-2.77v-5.33h.17c.78,0,1.26.09,1.65.35,3.29,2.12,4.33,11.21,9.79,11.17,1.17,0,2.25-.56,2.86-1.82l-.09-.04c-.61.74-1.21,1.04-1.78,1.04ZM78.89,76.9v-8.7c0-1.04.48-1.56,2.64-1.6,3.12,0,4.16,1.73,4.16,4.81,0,3.25-1.82,5.5-4.33,5.5h-2.47ZM93.96,66.12l-.35,4.37h.13c.56-2.51,1.08-3.85,2.86-3.85h1.21c1.04,0,1.6.52,1.6,1.6v14.5c0,1.3-.52,1.91-1.43,2.77h5.02c-.87-.87-1.43-1.47-1.43-2.77v-14.5c0-1.08.52-1.6,1.6-1.6h1.26c1.43,0,2.29,1.47,2.81,3.85h.09l-.35-4.37h-13.03Z"/>
  <path class="cls-1" d="M91.23,23.94l.09.27.08.24.08.19.11.29.19.19.22.08.19-.13.11-.22.22-.29.21-.22h-.05l.22-.14.13-.02h.41l.22.1.3.11.28.05.16-.11.03-.22.1-.22.2-.05.93.08v-.11l-.17-.05-.32-.16-.22-.16-.19-.22-.25-.19-.27-.24-.22-.22-.27-.19-.25-.19-.19-.13-.33-.13-.22-.05-.44.05-.33.1-.31.19-.22.14-.22.29-.11.3-.06.27.03.33.11.38ZM92.24,22.67l.28-.16.19-.05.27.03.06.19v.11l-.03.14v.22l-.05.14-.05.14-.12.13-.13.06-.13-.03-.15-.24-.19-.16-.08-.27.13-.22ZM83.25,43.49c0,.14.19.26.32.26.35,0,.57-.72.57-1.11h-.3c-.22,0-.6.59-.6.86ZM94.69,24.66l-.09-.08-.32.24-.14.27-.05.16.02.21.05.18.08.11.08-.03.22-.13.24-.16.09-.1.02-.27-.02-.11-.09-.19-.1-.11ZM83.25,40.39v.92c.19.03.35,0,.54,0,0-.36.54-.47.54-.86,0-.32-.35-.41-.6-.52l-.05.02c-.27.09-.4.23-.43.44ZM120.46,36l-.08-.27-.21-.27-.22-.16-.22-.13-.29-.08h-.27l-.17.05-.13.06-.16.16-.16.16-.13.11-.09.03-.08-.06-.11-.13-.08-.05h-.13l-.3-.03h-.22l-.27.03-.11-.06-.13-.05-.09-.1-.07-.38v-.16l-.02-.19v-.14l-.05-.16-.16-.05-.11-.16-.05-.16.05-.13.05-.14.08-.18.08-.14.16-.29.2-.19.08-.16.13-.14h.08l.1.11.11.16.25.3.17.24.16.24.19.27.25.27.21.17.14.13.13.08.03-.16v-.22l-.08-.18-.19-.32-.16-.27-.22-.32-.33-.43-.27-.24-.25-.32-.22-.19-.13-.05-.14-.03-.13.24-.2.1-.43-.29-.14-.21-.13-.19-.17-.18-.03-.14.06-.05.11-.03h.19l.16.03.08-.06-.03-.1-.1-.16-.11-.21-.19-.27-.29-.24-.08-.13-.03-.33.03-.32.02-.21.03-.22.03-.13v-.19l-.03-.11v-.21l-.11.11-.11.1-.14.19-.08.03-.03-.27-.03-.16v-.19l-.35.43-.25.37-.19.29-.11.19-.11.13-.08.11-.22.16-.25.15-.19.02-.08.08-.3.05h-.22l-.6.05-.73.05-.71.08-.49.14-.27.1-.19.08-.22.16-.24.13-.3.03-1.03.3-.93.21-.57.24-.54.19-.55.24-.55.34-.68.37-.62.27-.88.37-.99.4-.62.24-.53-.03-.5.05-.46.08-.38.16-.27.05-1.13-.32-.15-.32-.22-.18-.32-.06-.27.06-.1-.03-.2-.35-.16-.32-.19-.32-.14-.16-.24-.29-.33-.35-.27-.32-.33-.45-.19-.67-.19-.48-.19-.76-.22-.93-.11-.38-.1-.51-.09-.4-.05-.4-.08-.29-.13-.11h-.14l-.14.16-.24.13-.33-.06-.22-.24-.19-.11-.19-.08h-.25l-.14.08-.14.22-.16.32-.24.48-.1.32-.11.32-.08.43-.05.64-.05.72-.03.3.08.6.03.37.11.32.19.43.21.45.24.72.14.53.05.38-.03,1.12.03.22-.29.24h-.33l-.22-.08-.19-.08-.27-.03-.35.05-.6-.05-.57-.11-1.13-.24-.89-.19-.71-.13-.93-.21-.87-.14-.62-.16-.57-.03h-.39l-1.41.35-1.09.32-.9.26-.54.27-.71.37-.51.24-.57.29-.63.21-.52.24-.46.27-.38.24-.44.35-.38.4-.32.51-.28.48-.24.51-.22.64-.13.68-.17,1.05-.14,1.34-.11,1.13-.05,1.2.05,1.3.08.83.06.21.08.4.05.43v.35l.06.3.11.23.14.3.17.22.16.21.21-.18.22-.3.16-.4.22-.77.27-1.73.14-.64.43-1.55.19-1.08.11-.58v-.48l-.03-.26.08-.46.1-.43.14-.43.05-.2h.16l.03.18.13.6.11.58.08.61.11.6.16.42.27.47.25.33.41.92.3.82.27.9.03.49v.98l.03.49-.06.21-.19.4-1.25,2.32-.06,5.45v.18l-.06.16-.11.35-.05.21-.11.19v.21l.06.32.08.24.19.18.27.24.19.16.14.22.06.24v.32l.03.43.02.32.08.27.3.19.33.08h.6l.35-.03.3.03.16-.08.02-.16.03-.3-.08-.29-.17-.27-.25-.22-.3-.21-.27-.48-.19-.62-.11-.56-.08-.57-.02-1.74.08-.43.17-.66.19-.57.13-.56.06-.39.05-.27.14-.17v-.35s.08-.13.08-.13l.09-.37.28-.44.32-.51.37-.5.27-.31.23-.36.28-.27.09-.18.19-.09.23.26.04.6v.4l-.04.32-.28.6v.49l.14.59.18.68.32.77.32.77.23.64.19.68.09.73.09.64.24.7.32.59.32.13.27.23.1.32-.1.41v.37l.19.36.42.18.33-.04.37.04-.18-.31v-.46l.28-.09.14.23.09.19.14.14v.17l.46.14.04-.23-.08-.37-.13-.42-.36-.38-.46-.35-.32-.35-.28-.56-.14-.72-.16-.78-.27-.88-.17-.56-.24-.83-.08-.4-.08-.4v-.34l.14-.41.49-2.25.19-.64.08-.6.22-.65.38-.55.27-.58.27-.66.35-1.16.22-.7.24-.5.32-.44.27-.28.27-.22.35-.06.2.09.3.17.24.17.31.27.17.14.51.2.68.28,2.12.82,1.17.34.51.06h1.36l1.25.03h.84l.78.11.72.12.52.15.32.17.25.39.23.55.07,1.26.03,1.9-.08,1.01-.13.64-.06.78-.04.34.1.73.13.56.02.94-.1.86-.15.29-.11.43-.2.43-.05.35.08.27.19.32.26.24.18.23.22.19.06.19-.06.24-.16.13v.27l.05.32.08.29.23.14.25.08.34.13.45.06.26-.03.42.03.13-.3v-.42l-.24-.44-.31-.37-.31-.3-.22-.22-.14-.21-.08-.21.03-.41-.09-.18-.14-.38.08-.37.11-.57.05-.42.12-.46.06-.24.11-.42.09-.22.15-.18.15-.14.23.05.09.3v.4l-.09.49-.05.32v.4l-.03.88.05.83.12.4.24.34.38.33.11.22-.03.45.05.37.22.43.32.27.23.02.34-.02.39.02.24-.02.08-.05-.02-.38-.08-.31-.1-.36-.15-.21-.17-.15-.26-.27-.18-.17-.2-.32-.11-.24.02-.3v-.4l-.08-.56-.05-.56-.05-.56-.05-.59v-1.25l.08-.29.2-.43.2-.38.03-2.69.08-.3.05-.1.08-.46.02-.48.07-.6.17-.56.14-.49.27-.39.31-.22.39-.33.37-.3.34-.2.29-.28.36-.39.32-.41.32-.5.28-.57.37-.71.47-.99.38-.63.17-.37.19-.66.13-.54.17-.46.38-.58.22-.32.22-.29.22-.35.27-.29.17-.29.22-.24.24-.11h.81l.63-.03.43-.08.49-.11.52-.16.38-.13.43-.08h.47l.35-.03.3-.08.22-.08.37.02.31.17.21.19.18.13-.02-.03.17.13.21.16.38.21.44.11.49.03.36-.06.32-.08v-.03l.28-.11.24-.21.11-.16.08-.26.03-.38-.03-.35ZM77.65,38l-.06.13c-.16,0-.19.29-.43.29h-.33v-.42c0-.27.38-.73.57-.77h.32l.08.37c0,.05-.16.4-.16.4ZM84.39,58.74c.19,0,.19.32.38.32.05,0,.19.43.19.46,0,.11.02.16-.08.16-.33,0-.66-.24-.66-.64,0-.11.06-.29.16-.29ZM103.69,59.91l.08-.29c.29.21.52.45.63.83v.13h-.45c-.13,0-.57-.13-.57-.38,0-.05.2-.27.3-.3ZM115.11,30.76l.22.51c.19.4.44.56.44.96v.19h-.24c-.62-.08-.93-.62-.93-1.21,0-.24.28-.42.52-.45ZM114.16,32.31l.32.08c.62.29.38.8.87,1.28.06.05.31.16.31.29,0,.19.05.35-.14.35-.39,0-.87-.08-1.12-.43-.08-.11-.21-.3-.37-.3-.19,0-.81.13-.81-.16,0-.53.73-.67.95-1.12ZM104.82,33.38c0,.14-.42.27-.62.27s-.33-.16-.33-.27c0-.02.95-.67.95,0ZM97.16,33.91l1.68.43v.21s-.14.24-.23.32c-.1.11-.21.38-.59.38-.49,0-1.19-.51-1.19-.96,0-.19.14-.35.33-.38ZM92.38,28.07l.43.11.05.05c.11.05.3.11.3.32,0,.29-.13,1.37-.6,1.37-.24,0-.24-.6-.3-.76-.05-.13-.13-.16-.22-.32-.02-.08-.08-.13-.08-.22,0-.24.16-.45.41-.56ZM92.22,32.52c.55,0,.65.49.95.78.43.43.76.64,1.41.96.66.32,1.3.42,2.18.75.03,0,.29.21.29.21.22,0,.38.48.38.64,0,.8-.3,1.17-.57,1.74-.03.08-.16.19-.3.19-.35,0-.38-.51-.65-.69-.35-.24-.76-.21-1.08-.53-.25-.24-.33-.48-.68-.64-.68-.32-1.17-.27-1.74-.83-.32-.32-.22-.59-.49-.96v-1.07c0-.27-.03-.54.3-.54ZM96.4,38.48s-.06.51-.33.51c-.16,0-.4-.46-.46-.78v-.27h.19c.16,0,.46.21.51.32.03.08.09.22.09.22ZM78.74,60.48s.3.18.3.23c0,.22-.08.52-.36.52-.25,0-.65-.27-.65-.46,0-.11.22-.39.43-.39.14,0,.22.08.33.16l-.05-.05ZM78.49,59.96l-.03.08c-.08.03-.13,0-.22,0-.52,0-.73-.72-.73-1.17v-.19h.25c.41.16.68.88.73,1.27ZM77.71,52.85c-.24,0-.28-.34-.28-.58,0-.57.16-.91.55-1.03l.32.08-.06.03c.16.08.3.24.3.45,0,.51-.43,1.03-.84,1.03ZM96.45,41.17l-1.41-.3c-.41.06-.6.3-1.09.3-.57,0-.81-.22-1.31-.38h-.79v.52c.06.39.16.86.43,1.06.08.11.6.47.92.47.41,0,.46-.38.88-.38.38,0,.77.16.77.69,0,.44-.91.98-1.53.98s-1.17-.04-1.61-.26c-.14-.2-.14-.42-.24-.63-.22-.48-.44-.45-.82-.8-.32-.34-.62-.43-.95-.72-.17-.17-.76-.71-.96-.71-.11,0-.35.23-.46.23-.23,0-.2-.44-.31-.52-.05-.03-.21-.09-.21,0,0,.4.33.66.33,1.07,0,.23-.22.4-.52.4-.65,0-.87-.12-1.33.36-.16.13-.41.5-.6.5-.16,0-.3-.03-.39-.23l.39-1.81v-.55l-.14-.75c0-1.25,1.09-1.35,1.09-2.67,0-.16-.14-.31-.25-.4-.19.27-.38.69-.74.93-.49.65-.86,1.05-1.96,1.05v.13c0,.24.22.46.46.49h.54c.38.18.71.83.71,1.5s-.54.99-.65,1.61c-.05.3-.08.52-.19.86-.32.83-.63,1.74-1.77,1.93h-.54c-.33.17-.65.42-.9.72-.08.14-.24.31-.24.65,0,.27.16.44.16.75,0,.93-1.36.75-1.36,1.71,0,.31-.08.8-.25.97-.08.09-.41.09-.49.29-.03.1-.19.43-.41.43s-.33-.25-.33-.5c0-1.16.57-1.94,1.36-2.49.38-.38.41-.36.6-.92v-.63c-.22-.63-.73-1.09-.73-1.83,0-.47.06-.9-.22-1.27-.25-.34-.54-.58-.54-1.26l-.27-.98.16-.86c-.16-.52-.68-.66-.68-1.41,0-1.18.78-1.74,1.38-2.33.54-.53.7-.72,1.6-1.07h.65l1.77-.32c.3.03.41.24.76.29h1.42c.24.11.79.35.84.75.03.3.14.54.35.75.14.13.24.26.44.26.27,0,.3-.03.43-.32l-.3-.86c0-.32.02-.51.41-.56.86.13.91,1.34,1.08,2.3l-.24.65v.96h.24c.79-.24.98-.99,1.28-1.88,0-.24.13-1.04.3-1.04.65,0,1.42,1.37,1.42,2,0,.37-.27.4-.27.77,0,.27.08.61.4.61.11,0,.19-.07.25-.21l.08-.32v-1.18c.08-.48.19-.66.39-1.06.03-.08.08-.21.16-.21.57,0,1.46,1.12,1.77,1.53.33.42.46.99,1.09,1.29.06.03.46.06.46.29s-.25.38-.34.61h-.05v.14h.21c.14-.06.27-.08.38-.29.14.13.33.21.33.38,0,.31-.03.66-.33.75ZM97.05,41.88l.17-1.18c0-.48-.49-.51-.49-1.09,0-.44.32-.6.32-1.16,0-.1,0-.37.06-.42.06-.05.14-.08.22-.08.41,0,.5.37,1.01.37v.65c0,.38.05.65-.17.97-.11.16-.28.14-.28.4,0,.54.55.62.55,1.29,0,.83-.52,1.21-.52,2.1h-.21c-.3,0-.66-1.35-.66-1.84ZM97.52,45.93c-.3,0-.32-.36-.38-.72l.11-.53c-.03-.31-.08-.77.27-.77.29,0,.54.25.69.47,0,0,.32.69.32.77,0,.31-.69.78-1.01.78ZM99.55,40.1v.52c-.05.19-.19.58-.32.58-.27,0-.41-.21-.55-.46v-.64c.03-.25.11-.68.11-1.08,0-.51-.03-.8-.21-1.17-.16-.35-1.21.03-1.21-.51,0-.5.16-1.47.7-1.47.62,0,1.67.8,1.98,1.23.08.1.16.18.16.32s.05.3.05.43c0,.88-.88,1.25-.71,2.25ZM99.92,40.67c0-.11.02-.52.23-.52.08,0,.14-.02.23,0l.03.04c0,.18.06.48-.18.48h-.31ZM103.07,52.38c-.06.11-.16.42-.38.42-.07,0-.17-.04-.25-.07,0,0,.01.01.02.01l-.05-.02s.02,0,.03,0c-.05-.03-.13-.11-.13-.27,0-.21.24-.41.46-.41h.3v.33ZM102.77,50.24h-.22c0-.62-.03-1.01-.34-1.45-.25-.31-.4-.51-.4-1.14,0-1.08-.06-1.66.5-2.38.07-.14.24-.31.43-.31.22,0,.7.56.76.68.03.07.03.2.11.2,0,0,.03.39.03.55,0,.17-.03.34,0,.54.05.39.18.61.18,1.09,0,.88-.55,2.06-1.06,2.22ZM105.78,41.74c-.06,0-.33.03-.38.03-.29,0-.08-.46-.38-.46-.14,0-.28.37-.28.59,0,.79,1.04.73,1.04,1.43,0,.45-.65,1.05-.99,1.31-.1.09-.19.17-.31.17-.36,0-.47-.42-.71-.66-.16-.14-.47-.39-.84-.51h-.31c-.02.42.09,1-.4,1-.58,0-.71-.77-1.29-.77-.21,0-.32.22-.53.22-.2,0-.38-.13-.38-.33s.08-.38.26-.45h.23v-.16l-.23-.55c0-.26.2-.51.51-.51.48,0,.64.58.98.75l.28-.06-.17-.98-.38-1.44c0-.29.18-.21.55-.32v-.23l-.14-.52c0-.22.08-.32.2-.54l-.18-.53v-.21l.22-.11.54.35c.11,0,.27-.05.27-.16,0-.19-.13-.35-.13-.54v-.32h.19c.55.16.6.61.81,1.15.21.53.92,1.09,1.73,1.09v.32l-.03-.05c0,.2-.11.36-.11.54,0,.46.39.72.39,1.18,0,.2-.06.11-.06.29ZM105.75,38.78c-.11,0-.22-.28-.22-.28l.06-.42c.05-.21.39-.77.68-.83.47-.08.95,0,.95.37,0,.59-1.11,1.15-1.47,1.15ZM108.74,39.96c-.32.64-.54,1.1-.64,1.87v.79l-1.34,2.05c-.16-.03-.45-.15-.36-.25.15-.14.25-.52.31-.86.16-.89.38-1.36.51-2.25.18-1.04,1.1-2.67,1.88-2.81,0,.14.08.25.08.38,0,.52-.29.79-.44,1.07ZM109.68,37.18c-.22,0-.33.08-.6,0v-.27c.33-.98.76-1.52,1.33-2.08.59-.59,1.17-.77,1.57-1.57v-.21h-.16c-.6.08-1.41.8-1.74,1.23-.4.53-.68.69-1.09,1.09-.38.38-.41.91-.67,1.28-.11.38-.42.67-.79.67-.52,0-.84-.32-1.36-.32l.11-1.28c-.05-.16-.29-.37-.4-.4h-1.42c-.39-.18-.5-.51-.5-.88,0-.69.79-.83,1.29-.9l.76.18c.19-.08.19-.16.24-.26v-.53c.08-.48.1-.75.52-.75.63,0,.57.75,1.17.75.79,0,.27-1.66,1.06-1.66.63,0,.41.8.96.8.62,0,.76-.75,1.38-.75.41,0,.46.35.76.35.44,0,.49-.88,1.06-.88.68,0,.87.38.95.96l-.05.4c-.22.65-.76.89-1.2,1.2-.65.48-1.06,1.02-1.46,1.55-.33.43-.92.32-.87,1.18l-.09.48c-.11.22-.46.65-.75.65ZM114.65,36.56c-.11,0-.39.13-.54.16h-.68l-.87.29h-.54c-.41.05-.92,0-1.31.13-.13.05-.19.21-.32.21-.09,0-.06-.1-.06-.18,0-.51.76-1.21,1.09-1.45.33-.24.87-.72,1.3-.93.08-.03.2-.19.32-.19.44,0,.55.85,1.31.85.39,0,.71-.16.98.11.05.05.49.48.49.48.03,0,.08.11.08.13,0,.43-.79.38-1.25.38ZM81.7,42.56h-.13v.44h.19c.11-.06.22-.26.22-.26,0,0-.17-.19-.28-.19Z"/>
</svg>