<?xml version="1.0" encoding="utf-8"?>
<!-- Generator: Adobe Illustrator 28.3.0, SVG Export Plug-In . SVG Version: 6.00 Build 0)  -->
<svg version="1.1" xmlns="http://www.w3.org/2000/svg" xmlns:xlink="http://www.w3.org/1999/xlink" x="0px" y="0px"
	 viewBox="0 0 177.4 125.4" style="enable-background:new 0 0 177.4 125.4;" xml:space="preserve">
<style type="text/css">
	.st0{fill:#FFFFFF;}
	.st1{fill:#FEF574;}
	.st2{fill:#024EFF;}
	.st3{fill:#9D9D9D;}
	.st4{clip-path:url(#SVGID_00000003818805438895263880000011281266406787361937_);}
	.st5{fill-rule:evenodd;clip-rule:evenodd;fill:#FFFFFF;}
</style>
<g id="Capa_1">
</g>
<g id="Capa_2">
</g>
<g id="Capa_3">
</g>
<g id="Capa_4">
</g>
<g id="Capa_5">
</g>
<g id="Capa_6">
	<g>
		<path class="st0" d="M16.4,41.8c0.9,0.6,1.9,0.3,2.8,0.3c8.1,0,16.2,0,24.4,0c0.9,0,1.7,0,2.6,0c8.2,0.1,11.4,3.1,9.6,12.9
			c-0.6,3.4-3.1,5.2-7.6,5.3c-7.5,0.2-15.1,0.1-22.6,0.1c-1,0-2.1,0-3.2,0c-0.7,1.9-0.3,3.6-0.3,5.3c-0.1,4.2-1.2,5.4-5.5,5.5
			C16.4,61.5,16.4,51.7,16.4,41.8z M22.1,56.3c7.4,0,14.5,0,21.7,0c1.2,0,2.5-0.2,3.7-0.4c3.2-0.5,3.1-3,3.1-5.3
			c0-2.3-1.1-4-3.5-4.1c-8.3-0.1-16.6,0-25,0C22.1,49.8,22.1,52.9,22.1,56.3z"/>
		<path class="st0" d="M16.5,82.3c0-0.1,0.1-0.1,0.1-0.2c1.4-1.6,3.5-2.3,5.6-2.2c2.7,0.1,5.3,0,8,0c-0.1,1.8-1.1,1.7-2.1,1.7
			c-1.4,0-2.7,0-4.1,0c-0.6,0-1.2,0-1.8,0c-0.6,0-1.3-0.1-1.9,0.1c-1.9,0.7-2.2,2.8-2.1,4.5c0.1,1,0.2,1.9,0.2,2.9
			c0,0.8,0,1.7,0.7,2.3c0.4,0.4,1,0.6,1.6,0.7c1.2,0.2,2.5,0,3.8,0c1.4,0,2.7,0,4.1,0c2.3,0,3.5-0.8,3-3.6c-2,0-4.1,0-6.3,0
			c1-2,2.6-2.3,8.2-1.5c0.8,5.2-0.4,6.7-5.6,6.7c-1.9,0-3.9-0.1-5.8,0c-2.1,0.1-4-0.5-5.4-2.2c-0.1-0.1-0.1-0.2-0.2-0.3
			c0-0.1,0-0.2,0-0.3c0-0.6,0-1.3,0-1.9c0-0.8,0-1.6,0-2.4c0-0.8,0-1.6,0-2.4C16.4,83.9,16.2,82.8,16.5,82.3z"/>
		<path class="st0" d="M132.6,31.5c3,4.3,2.8,3.2,0,7c-1.6,2.2-3.2,4.4-4.8,6.5c-0.6,0.8-1.2,1.9-2.6,1.1c-1.1-0.7-0.7-1.6-0.3-2.5
			c1.8-4,3.5-8.1,5.3-12.1C131,31.5,131.8,31.5,132.6,31.5z"/>
		<path class="st0" d="M70,46.6c0-1.5,0-2.7,0-4.2c3.4,0,6.8,0,10.1,0c7.5,0,14.9,0,22.4,0c1.9,0,3.8,0,4.5,2.3
			c0.6,2.1-0.8,3.4-2.4,4.5c-7.9,5.4-15.8,10.8-23.7,16.2c-0.8,0.5-1.5,1-2.9,2c10.9,0,21,0,31,0c0.5,1.4,0.3,2.5,0.2,3.7
			c-0.9,0.8-2.1,0.5-3.1,0.5c-10.5,0-20.9,0-31.4,0c-1.8,0-3.8,0.2-4.5-2.1c-0.7-2.3,0.9-3.5,2.6-4.6c8.6-5.9,17.1-11.8,26.3-18.1
			C89,46.6,79.6,46.6,70,46.6z"/>
		<path class="st0" d="M113.1,71c6.3-8.7,12.4-17.3,18.7-25.7c3.2-4.2,7.4-4.4,10.6-0.2c6.3,8.4,12.4,16.9,18.6,25.4
			c0.1,0.1,0,0.3,0,0.6c-3.6,0.8-6.8,0.5-8.5-3.4c-1-2.2-2.7-2.7-5.1-2.7c-6.9,0.2-13.7,0.2-20.6,0c-2.2-0.1-3.8,0.5-4.6,2.5
			C120.5,71.6,117.3,72,113.1,71z M127,60.7c7.1,0,13.7,0,20.6,0c-3.5-4.8-6.7-9.2-10.4-14.2C133.6,51.5,130.4,56,127,60.7z"/>
		<path class="st0" d="M60.3,71.2c0-9.7,0-19.2,0-28.8c4.1-0.2,5.5,1,5.5,4.7c0,7.9,0,15.9,0,24C64,71.2,62.3,71.2,60.3,71.2z"/>
		<path class="st0" d="M52.1,93.9c-0.1,0-0.2,0-0.3,0c-9,0.4-8.9-0.7-8.6-10.1c0.1-2.4,1.6-3.7,4-3.7c3.2-0.1,6.4-0.1,9.6,0
			c2.3,0.1,3.8,1.3,3.9,3.8c0,0.3,0.1,0.6,0.1,0.9C61,93.9,60.4,94.1,52.1,93.9z M52,81.6c-1.3,0-2.7,0-4,0c-0.8,0-1.6,0.2-2.2,0.7
			c-0.7,0.7-0.6,1.6-0.6,2.5c0,1-0.1,1.9-0.2,2.9c-0.1,1.7,0.3,3.4,1.9,4.4c0.5,0.3,1.3,0.2,2,0.2c2.1,0,4.2-0.1,6.4,0
			c2.7,0.1,3.8-1,3.8-3.7C58.9,81.6,59,81.6,52,81.6z"/>
		<path class="st0" d="M91.6,80.1c5.2,0,10,0,14.8,0c0.1,0-0.5,1.3-0.7,1.4c-0.5,0.3-1,0.3-1.5,0.2c-1.9,0-3.8,0-5.7,0
			c-1.2,0-2.3,0-3.5,0c-0.5,0-1.1-0.2-1.3,0.4c-0.2,0.5-0.2,1-0.2,1.5c0,0.6,0.1,1.3,0,1.9c0,0.4,1.6,0.2,2,0.2c0.8,0,1.5,0,2.3,0
			c0.8,0,1.5,0,2.3,0c0.4,0,0.8,0,1.1,0c0.1,0,1,0.1,1,0c-2.4,3-5.7,0.9-8.7,2.1c0,1.4,0,2.9,0,4.5c0,0.7,0,1.4-0.9,1.4
			c-1,0-1-0.7-1-1.4C91.6,88.4,91.6,84.4,91.6,80.1z"/>
		<path class="st0" d="M71.9,80.1c0.4,0.3,0.7,2.2,0.7,2.6c0.1,1,0.1,2.1,0.1,3.1c0,1.1-0.1,2.1-0.1,3.2c0,0.3,0.1,3.2,0.3,3.2
			c3.4,0,6.8,0,10.3,0c-0.9,1.8-5.6,2.2-12.5,1.4c-0.1,0,0-6.6,0-7.2c0-1.2,0-2.5,0-3.7c0-0.6,0-1.2,0-1.9c0-0.3-0.1-0.4,0.2-0.6
			c0.2-0.1,0.6-0.1,0.8-0.1C71.8,80,71.8,80.1,71.9,80.1z"/>
	</g>
</g>
</svg>
