<?xml version="1.0" encoding="UTF-8"?>
<svg id="Capa_6" data-name="Capa 6" xmlns="http://www.w3.org/2000/svg" viewBox="0 0 177.4 125.4">
  <defs>
    <style>
      .cls-1 {
        fill: #fff;
        stroke-width: 0px;
      }
    </style>
  </defs>
  <path class="cls-1" d="M21.54,43.32c.82.57,1.74.3,2.62.3,7.55.02,15.1.01,22.65.01.81,0,1.62.01,2.43.02,7.62.11,10.56,2.9,8.9,11.99-.58,3.19-2.91,4.79-7.1,4.89-7.01.16-14.02.1-21.03.13-.97,0-1.95,0-2.99,0-.61,1.73-.29,3.34-.32,4.91-.07,3.91-1.14,5.01-5.15,5.13v-27.38ZM26.76,56.75c6.85,0,13.48.02,20.12-.02,1.16,0,2.32-.17,3.47-.33,3-.43,2.89-2.76,2.9-4.91.01-2.14-.98-3.76-3.29-3.78-7.71-.09-15.42-.03-23.21-.03v9.07Z"/>
  <path class="cls-1" d="M21.56,80.91c.03-.07.08-.14.14-.2,1.34-1.53,3.22-2.11,5.21-2,2.46.13,4.94.03,7.44.03-.08,1.63-.99,1.59-1.92,1.58-1.28-.02-2.55-.03-3.83-.03-.57,0-1.14.04-1.71,0s-1.21-.1-1.78.11c-1.76.62-2.08,2.61-1.93,4.23.08.89.16,1.77.16,2.67,0,.78.02,1.61.64,2.18.4.37.93.56,1.47.64,1.13.16,2.37.02,3.51.02,1.25,0,2.51,0,3.76.03,2.13.03,3.28-.78,2.76-3.31h-5.84c.89-1.88,2.41-2.12,7.59-1.41.72,4.87-.4,6.22-5.18,6.23-1.79,0-3.59-.1-5.38.03-1.95.13-3.71-.51-5-2-.07-.08-.13-.16-.16-.25-.03-.1-.03-.2-.02-.3.02-.6.04-1.19.04-1.78v-4.46c0-.54-.18-1.47.02-1.99Z"/>
  <path class="cls-1" d="M129.49,33.66c2.83,4.04,2.58,2.93.04,6.55-1.44,2.05-2.93,4.07-4.44,6.08-.58.77-1.14,1.78-2.37,1.03-1.04-.64-.65-1.52-.29-2.36,1.63-3.76,3.26-7.53,4.89-11.29.72,0,1.44,0,2.16,0Z"/>
  <path class="cls-1" d="M71.28,47.71v-3.95c3.18,0,6.3,0,9.41,0,6.93,0,13.85.02,20.78-.01,1.79,0,3.57.04,4.17,2.09.59,1.99-.74,3.17-2.21,4.17-7.32,5.02-14.65,10.03-21.98,15.05-.7.48-1.39.97-2.7,1.9h28.82c.45,1.29.25,2.34.21,3.39-.88.7-1.91.45-2.86.45-9.72.02-19.43.02-29.15.01-1.71,0-3.58.22-4.21-1.96-.63-2.18.87-3.24,2.4-4.29,7.97-5.48,15.93-10.98,24.45-16.86h-27.14Z"/>
  <path class="cls-1" d="M111.42,70.43c5.89-8.11,11.54-16.04,17.35-23.85,2.94-3.95,6.92-4.05,9.86-.17,5.88,7.77,11.53,15.7,17.27,23.58.08.11,0,.32,0,.54-3.35.73-6.28.46-7.89-3.17-.92-2.08-2.55-2.54-4.77-2.49-6.37.16-12.75.15-19.12,0-2.05-.05-3.51.42-4.3,2.31-1.58,3.8-4.56,4.16-8.4,3.24ZM124.25,60.85h19.17c-3.24-4.42-6.27-8.55-9.64-13.16-3.34,4.61-6.34,8.75-9.53,13.16Z"/>
  <path class="cls-1" d="M62.32,70.6v-26.72c3.8-.22,5.11.91,5.11,4.4.01,7.39,0,14.77,0,22.33h-5.12Z"/>
  <path class="cls-1" d="M54.67,91.67c-.09,0-.18,0-.27,0-8.36.34-8.31-.68-7.97-9.42.09-2.2,1.52-3.4,3.71-3.46,2.96-.08,5.93-.09,8.88.01,2.17.07,3.5,1.23,3.64,3.5.02.27.05.53.06.8.28,8.57-.36,8.76-8.06,8.57ZM54.58,80.3c-1.25,0-2.51.01-3.76,0-.71-.01-1.48.15-2.02.65-.66.62-.6,1.46-.59,2.3,0,.89-.14,1.78-.19,2.67-.09,1.62.25,3.17,1.73,4.05.48.29,1.23.18,1.85.19,1.97.02,3.94-.06,5.91.03,2.51.12,3.5-.93,3.49-3.48-.02-6.42.07-6.42-6.42-6.4Z"/>
  <path class="cls-1" d="M91.39,78.89h13.78c.12,0-.48,1.17-.63,1.29-.43.32-.93.23-1.43.22-1.77-.04-3.55-.02-5.31-.02h-3.24c-.5,0-.98-.18-1.16.35-.16.44-.18.94-.18,1.4,0,.6.06,1.21,0,1.8-.04.36,1.5.2,1.82.2h5.31c.13,0,.89.09.97,0-2.22,2.75-5.34.87-8.08,1.94,0,1.33,0,2.73,0,4.14,0,.63.04,1.31-.88,1.34-.93.03-.95-.64-.95-1.28,0-3.73,0-7.46,0-11.4Z"/>
  <path class="cls-1" d="M73.04,78.86c.42.27.61,2.05.64,2.4.1.95.08,1.91.05,2.87-.03.99-.1,1.97-.1,2.96,0,.27.09,2.98.32,2.98h9.61c-.81,1.67-5.24,2.07-11.59,1.28-.12-.02,0-6.12,0-6.69v-3.44c0-.57,0-1.15,0-1.72,0-.3-.06-.4.16-.54.17-.11.57-.1.78-.14.05,0,.1,0,.14.03Z"/>
</svg>