<?xml version="1.0" encoding="UTF-8"?>
<svg id="Capa_9" data-name="Capa 9" xmlns="http://www.w3.org/2000/svg" viewBox="0 0 177.4 125.4">
  <defs>
    <style>
      .cls-1 {
        fill: #fff;
        stroke-width: 0px;
      }
    </style>
  </defs>
  <path class="cls-1" d="M100.54,45.08c-1.14-.03-2.39.02-3.73.16-2.26.17-4.75.52-7.46,1.04-1.17.23-2.4.49-3.69.79-1.14.26-2.37.57-3.69.93-2.31.59-4.75,1.28-7.31,2.06-.99.33-2.21.72-3.65,1.17l-3.65,1.17c-2.53.82-4.98,1.55-7.34,2.2-2.56.72-5.03,1.34-7.42,1.87-2.63.59-5.12,1.05-7.46,1.38-2.74.37-5.26.55-7.57.56-2.91.04-5.44-.21-7.58-.75l-.22-.1-.22-.05-.49-.14c-.15-.06-.45-.18-.9-.34-.77-.32-1.38-.61-1.83-.87-.13-.06-.41-.24-.86-.53-.05-.03-.1-.06-.15-.1-.05-.03-.1-.07-.15-.12-.05-.05-.09-.09-.11-.12-.2-.16-.34-.27-.41-.34l-.41-.34-.37-.43c-.07-.06-.2-.21-.37-.43l-.34-.43-.34-.48c-.03-.06-.11-.24-.26-.53-.05-.1-.14-.29-.26-.58-.13-.29-.2-.47-.23-.53l-.19-.58-.15-.63c-.03-.1-.06-.31-.11-.63l-.08-.29c-.03-.13-.04-.24-.04-.34-.15-1.52-.07-3.18.24-4.99.02-.19.12-.27.3-.22.17.05.24.17.19.36-.27,1.71-.31,3.29-.13,4.74,0,.07.01.16.04.29l.04.29c.05.26.1.44.15.53l.11.58.19.53s.1.19.23.48c.13.26.2.42.23.48.02.03.07.1.13.22.06.11.11.2.13.27l.3.43.34.39c.15.23.25.35.3.39l.37.39.37.34c.07.06.2.16.37.29.02.03.09.08.19.14.1.06.17.11.22.14.45.29.72.47.82.53,1.02.55,2.19.98,3.51,1.29,2.12.51,4.59.73,7.43.65,2.26-.04,4.75-.26,7.46-.66,4.4-.66,9.32-1.76,14.76-3.29,2.34-.65,4.77-1.4,7.31-2.25l3.65-1.17c1.44-.49,2.66-.88,3.65-1.17,2.58-.78,5.04-1.49,7.38-2.11,1.32-.33,2.55-.62,3.69-.88,1.32-.33,2.56-.59,3.73-.79,2.78-.56,5.29-.92,7.53-1.09,1.39-.13,2.66-.19,3.81-.16h.23c.83,0,1.74.07,2.72.2.98.13,1.89.39,2.74.76.85.38,1.55.9,2.11,1.57.56.67.84,1.55.84,2.64,0,.1-.2.48-.59,1.14-.39.65-.91,1.5-1.57,2.54-.65,1.04-1.39,2.23-2.21,3.54-.82,1.32-1.66,2.68-2.53,4.07-.86,1.4-1.7,2.79-2.53,4.19-.82,1.4-1.56,2.69-2.21,3.88-.65,1.19-1.17,2.23-1.57,3.13-.39.9-.59,1.55-.59,1.94,0,.18.04.3.12.35.63-.03,1.4-.5,2.33-1.43.93-.93,1.99-2.15,3.19-3.66,1.2-1.51,2.52-3.22,3.95-5.13,1.44-1.9,2.98-3.86,4.62-5.85,1.64-2,3.37-3.95,5.19-5.87,1.81-1.92,3.7-3.62,5.66-5.11,1.96-1.49,3.97-2.69,6.03-3.6,2.06-.91,4.15-1.37,6.26-1.37.44,0,.88.03,1.31.08.43.05.87.12,1.31.2l-.04.86c-.44-.08-.87-.14-1.29-.2-.42-.05-.85-.08-1.29-.08-2.11,0-4.18.46-6.2,1.39-2.02.93-3.98,2.15-5.87,3.68-1.89,1.53-3.73,3.26-5.52,5.21-1.79,1.94-3.5,3.93-5.13,5.95-1.63,2.02-3.19,4.01-4.68,5.95-1.49,1.94-2.89,3.68-4.21,5.21-1.32,1.53-2.54,2.75-3.68,3.68-1.14.93-2.17,1.39-3.11,1.39-1.36,0-2.04-.65-2.04-1.96,0-.73.19-1.61.57-2.64.38-1.03.88-2.14,1.51-3.33.63-1.19,1.33-2.43,2.11-3.72.78-1.29,1.59-2.57,2.43-3.84.84-1.27,1.64-2.48,2.43-3.64.78-1.16,1.49-2.21,2.11-3.15s1.13-1.73,1.51-2.37c.38-.64.59-1.06.57-1.27-.1-1.1-.57-1.8-.86-2.26-.93-1.5-4.15-1.71-4.15-1.71Z"/>
  <g>
    <path class="cls-1" d="M107.22,73.35c0,.27.08.52.23.76.16.24.38.36.68.36s.69-.12,1.14-.36c.45-.24.91-.52,1.38-.84.47-.33.91-.66,1.32-.99s.74-.6.98-.79l.27.2c-.34.3-.73.64-1.17,1.03-.44.39-.9.76-1.4,1.11s-1,.64-1.51.89c-.51.24-1,.37-1.48.37-.3,0-.58-.03-.86-.09s-.51-.16-.72-.29-.37-.31-.49-.53c-.12-.22-.18-.5-.18-.84s.07-.67.21-.98c.14-.31.31-.59.52-.84.24-.28.48-.59.73-.93s.5-.68.76-1.01c.25-.33.51-.66.79-.97.27-.31.55-.59.83-.82h2.04c-.65.58-1.28,1.26-1.88,2.04-.6.79-1.17,1.51-1.72,2.18-.33.4-.49.85-.49,1.36ZM110.47,65.64c0-.3.11-.54.32-.73.21-.19.46-.29.74-.29s.53.1.76.29c.22.19.33.44.33.73s-.11.54-.33.73-.47.29-.76.29-.53-.1-.74-.29c-.22-.19-.32-.44-.32-.73Z"/>
    <path class="cls-1" d="M116.71,70.52c-.36.25-.74.56-1.14.92-.41.36-.81.75-1.2,1.16-.39.41-.77.82-1.12,1.24-.36.42-.67.81-.93,1.17-.15.07-.34.11-.58.11-.09,0-.2,0-.32-.02-.13-.02-.24-.04-.36-.09-.11-.04-.21-.11-.29-.19-.08-.08-.12-.18-.12-.3,0-.03.12-.21.36-.54.24-.33.55-.76.94-1.29.39-.53.84-1.13,1.34-1.8.5-.67,1.03-1.36,1.58-2.07.55-.7,1.09-1.4,1.62-2.1.53-.7,1.02-1.33,1.47-1.91s.83-1.07,1.14-1.47c.32-.4.54-.66.66-.78l2-.02c-.53.62-1.05,1.26-1.56,1.91-.5.65-1,1.3-1.5,1.95-.5.65-1,1.3-1.5,1.94-.5.64-1.03,1.27-1.58,1.88.27-.27.61-.58,1.04-.93.43-.36.89-.69,1.38-1,.49-.31.98-.58,1.47-.8s.93-.33,1.31-.33c.46,0,.77.16.93.49s.24.69.24,1.09c0,.37-.09.67-.28.89s-.41.4-.67.55c-.27.14-.56.26-.88.36s-.62.21-.88.35c-.27.13-.49.3-.67.51-.18.21-.28.49-.28.85,0,.21.03.44.08.69.05.25.13.49.24.71s.25.41.42.57c.17.16.38.23.63.23.37,0,.79-.11,1.24-.33s.92-.49,1.38-.8c.46-.31.89-.64,1.3-.98.41-.34.75-.62,1.03-.84l.27.2c-.34.3-.73.64-1.18,1.03-.44.39-.91.76-1.4,1.11s-.99.64-1.51.88c-.52.24-1.01.36-1.47.36-.49,0-.89-.17-1.22-.5-.32-.33-.58-.74-.79-1.22-.2-.48-.36-.98-.46-1.5s-.17-.96-.2-1.33ZM117.36,70.1c.16-.01.44-.06.82-.13.38-.07.77-.17,1.16-.3.39-.13.74-.28,1.04-.46.3-.18.45-.39.45-.62,0-.18-.07-.29-.21-.32-.14-.04-.28-.06-.43-.06-.28,0-.56.06-.83.18-.27.12-.53.27-.78.46-.24.19-.47.39-.69.61-.21.22-.4.44-.54.64Z"/>
    <path class="cls-1" d="M125.69,73.35c0,.27.08.52.23.76.16.24.38.36.68.36s.69-.12,1.14-.36c.45-.24.91-.52,1.38-.84.47-.33.91-.66,1.32-.99s.74-.6.98-.79l.27.2c-.34.3-.73.64-1.17,1.03-.44.39-.9.76-1.4,1.11s-1,.64-1.51.89c-.51.24-1,.37-1.48.37-.3,0-.58-.03-.86-.09s-.51-.16-.72-.29-.37-.31-.49-.53c-.12-.22-.18-.5-.18-.84s.07-.67.21-.98c.14-.31.31-.59.52-.84.24-.28.48-.59.73-.93s.5-.68.76-1.01c.25-.33.51-.66.79-.97.27-.31.55-.59.83-.82h2.04c-.65.58-1.28,1.26-1.88,2.04-.6.79-1.17,1.51-1.72,2.18-.33.4-.49.85-.49,1.36ZM128.93,65.64c0-.3.11-.54.32-.73.21-.19.46-.29.74-.29s.53.1.76.29c.22.19.33.44.33.73s-.11.54-.33.73-.47.29-.76.29-.53-.1-.74-.29c-.22-.19-.32-.44-.32-.73Z"/>
    <path class="cls-1" d="M135.24,70.37c.28-.24.64-.53,1.09-.87s.91-.67,1.4-.98c.49-.31.97-.58,1.46-.8.48-.22.91-.33,1.3-.33s.67.13.82.4c.15.27.22.58.22.93v.27c-.22.25-.51.57-.87.97-.36.39-.7.81-1.03,1.24s-.62.87-.86,1.29-.36.79-.36,1.1c0,.34.1.57.3.68.2.11.46.17.77.17.4,0,.83-.11,1.3-.32.47-.21.93-.48,1.38-.79.45-.31.88-.63,1.29-.97.41-.33.76-.63,1.06-.88l.27.2c-.34.31-.76.67-1.24,1.09-.49.41-1.01.82-1.56,1.2-.55.39-1.1.71-1.67.98-.56.27-1.07.4-1.53.4-.61,0-1.08-.17-1.41-.5s-.5-.8-.5-1.41c0-.43.13-.9.4-1.41s.59-1.02.96-1.53c.37-.51.76-1,1.17-1.46.41-.46.75-.84,1.03-1.16-.71.15-1.48.46-2.3.94-.82.48-1.6,1.06-2.32,1.73-.73.67-1.36,1.4-1.89,2.18-.53.78-.87,1.54-1.02,2.28-.41-.1-.74-.3-.98-.6-.24-.3-.36-.66-.36-1.09,0-.28.05-.55.14-.81.1-.26.22-.5.38-.73.16-.23.33-.45.51-.67.18-.21.37-.43.54-.63l-1.47,1.22-.27-.2c.16-.15.39-.36.67-.63.28-.27.59-.56.93-.87.34-.3.7-.61,1.07-.93.37-.32.73-.61,1.08-.87.35-.26.68-.47.99-.63.31-.16.57-.24.78-.24.1,0,.19.03.27.08.07.05.11.13.11.23,0,.12-.09.3-.27.56-.18.25-.38.52-.61.81-.23.29-.46.56-.69.82-.23.26-.39.44-.48.54Z"/>
    <path class="cls-1" d="M155.95,71.68c-.34.31-.73.66-1.18,1.06-.44.39-.91.76-1.4,1.11s-.99.64-1.51.88-1.01.36-1.49.36c-.27,0-.53-.02-.79-.07-.26-.04-.49-.13-.69-.26-.2-.13-.37-.29-.5-.49-.13-.2-.21-.46-.22-.77-.16.16-.36.34-.59.54-.23.2-.47.39-.72.57-.25.18-.51.33-.78.46-.27.13-.53.19-.78.19-.43,0-.78-.12-1.06-.37-.27-.24-.41-.59-.41-1.03,0-.38.08-.82.23-1.3.16-.48.37-.97.64-1.46.27-.49.59-.96.96-1.42.36-.46.75-.87,1.16-1.23.41-.36.83-.65,1.26-.87.43-.21.85-.32,1.27-.32.56,0,.97.11,1.21.32s.37.61.37,1.17v.29c.12-.15.25-.31.4-.5.15-.18.31-.36.48-.51.17-.16.36-.29.56-.4.2-.11.4-.17.61-.17h1.42c-.36.31-.7.65-1.04,1.02-.34.37-.68.76-1.01,1.15-.33.4-.66.8-.98,1.2-.32.4-.63.78-.92,1.15-.33.4-.49.85-.49,1.35,0,.25.07.5.22.74.15.24.37.37.67.37.33,0,.71-.12,1.17-.36.45-.24.91-.51,1.38-.83.47-.32.91-.64,1.32-.98.41-.33.74-.6.98-.81l.27.2ZM148.19,72.93c.04-.28.14-.56.3-.83s.33-.54.53-.79c.2-.25.41-.49.62-.73s.41-.46.59-.69c.04-.12.08-.24.11-.37s.04-.25.04-.39c0-.22-.07-.44-.2-.65-.13-.21-.33-.32-.58-.32-.41,0-.86.2-1.34.59-.48.39-.93.86-1.34,1.41-.41.55-.76,1.11-1.04,1.69-.28.58-.42,1.07-.42,1.45,0,.25.08.45.24.6.16.15.37.22.62.22.16,0,.33-.04.51-.12.18-.08.35-.18.51-.31s.31-.25.46-.39c.14-.13.27-.26.39-.38Z"/>
  </g>
  <g>
    <path class="cls-1" d="M74.41,63.87c-.11.33-.17.68-.17,1.05,0,.5.1.93.31,1.28.21.35.59.53,1.14.53.31,0,.65-.09,1.03-.28.38-.18.76-.41,1.14-.66.38-.26.74-.53,1.08-.81.34-.28.62-.52.86-.7l.22.17c-.28.26-.63.56-1.03.9-.41.34-.84.68-1.29,1-.45.32-.92.59-1.38.81s-.89.33-1.27.33-.68-.06-.94-.19c-.26-.13-.47-.31-.65-.53-.17-.23-.3-.49-.38-.78-.08-.3-.12-.61-.12-.94,0-.42.09-.9.29-1.44.19-.54.45-1.1.77-1.67s.7-1.13,1.13-1.69c.42-.55.87-1.05,1.35-1.48.47-.43.95-.78,1.44-1.04.49-.26.96-.4,1.41-.4.22,0,.42.05.6.16.18.1.27.29.27.54,0,.21-.12.48-.35.81s-.53.69-.9,1.07-.78.77-1.24,1.17c-.46.4-.9.78-1.33,1.14-.43.36-.82.69-1.18.99s-.63.52-.81.66ZM74.45,63.52c.16-.15.4-.36.73-.64.33-.28.69-.58,1.08-.92.39-.34.8-.69,1.21-1.07.41-.38.78-.74,1.12-1.08.33-.34.61-.65.82-.93.21-.28.32-.49.32-.65,0-.07-.03-.13-.08-.17s-.11-.06-.18-.06c-.26,0-.55.1-.88.31s-.66.48-1.01.81c-.34.33-.69.7-1.03,1.12-.34.41-.66.82-.94,1.23-.28.41-.53.79-.74,1.15-.21.36-.35.66-.42.89Z"/>
    <path class="cls-1" d="M89.31,64.44c-.28.26-.61.55-.98.88-.37.33-.76.63-1.16.92s-.82.53-1.25.73c-.43.2-.84.3-1.24.3-.22,0-.44-.02-.65-.06-.22-.04-.41-.11-.57-.21-.17-.1-.3-.24-.41-.41-.11-.17-.17-.38-.18-.64-.14.14-.3.29-.49.45-.19.17-.39.32-.6.47-.21.15-.42.27-.65.38-.22.1-.44.16-.65.16-.36,0-.65-.1-.88-.3s-.34-.49-.34-.86c0-.32.06-.68.19-1.08.13-.4.31-.8.53-1.21s.49-.8.79-1.18.62-.72.96-1.02c.34-.3.69-.54,1.04-.72.36-.18.71-.27,1.05-.27.47,0,.8.09,1.01.27s.3.5.3.97v.24c.1-.12.21-.26.33-.42.12-.15.25-.3.4-.42.14-.13.3-.24.46-.33.17-.09.33-.14.51-.14h1.18c-.3.26-.58.54-.87.85-.28.31-.56.63-.84.96s-.55.66-.81,1c-.26.33-.52.65-.77.96-.27.33-.41.71-.41,1.12,0,.21.06.41.18.62.12.2.31.3.55.3.27,0,.59-.1.97-.3s.76-.43,1.14-.69c.39-.26.75-.53,1.1-.81.34-.28.61-.5.81-.67l.22.17ZM82.88,65.48c.04-.23.12-.46.25-.69.13-.23.28-.44.44-.65.17-.21.34-.41.52-.61.18-.2.34-.39.49-.57.04-.1.07-.2.09-.3.02-.1.04-.21.04-.32,0-.18-.06-.36-.17-.54s-.27-.27-.48-.27c-.34,0-.72.16-1.12.49s-.77.71-1.12,1.17c-.34.45-.63.92-.87,1.41-.23.48-.35.88-.35,1.2,0,.21.07.37.2.5.14.12.31.18.52.18.14,0,.28-.03.42-.1.15-.07.29-.15.42-.26s.26-.21.38-.32c.12-.11.22-.21.32-.31Z"/>
  </g>
  <g>
    <path class="cls-1" d="M142.57,82.7c.33.33.72.5,1.17.5.61,0,1.09-.22,1.43-.66v.71c-.37.33-.85.49-1.43.49-.62,0-1.15-.22-1.58-.65-.43-.44-.65-.98-.65-1.64s.22-1.21.65-1.64c.43-.44.96-.65,1.58-.65.59,0,1.06.16,1.43.49v.71c-.35-.44-.83-.66-1.43-.66-.45,0-.84.17-1.17.5s-.49.75-.49,1.26.16.92.49,1.26Z"/>
    <path class="cls-1" d="M146.16,83.68h-.61l2.07-4.69,2.07,4.69h-.61l-.57-1.34h-1.8l-.57,1.34ZM148.31,81.83l-.68-1.61-.68,1.61h1.36Z"/>
    <path class="cls-1" d="M150.78,83.68h-.54v-4.46h2.29v.51h-1.75v1.27h1.69v.51h-1.69v2.17Z"/>
    <path class="cls-1" d="M153.97,83.17h2.01v.51h-2.55v-4.46h2.55v.51h-2.01v1.27h1.88v.51h-1.88v1.66ZM154.39,78.77l-.29-.19.96-1.02.48.25-1.15.96Z"/>
  </g>
</svg>