<?xml version="1.0" encoding="utf-8"?>
<!-- Generator: Adobe Illustrator 28.3.0, SVG Export Plug-In . SVG Version: 6.00 Build 0)  -->
<svg version="1.1" id="Capa_1" xmlns="http://www.w3.org/2000/svg" xmlns:xlink="http://www.w3.org/1999/xlink" x="0px" y="0px"
	 viewBox="0 0 522.7 292" style="enable-background:new 0 0 522.7 292;" xml:space="preserve">
<style type="text/css">
	.st0{fill:#FFFFFF;}
</style>
<g>
	<path class="st0" d="M8.9,113.6c-2,0.4-4,0.7-6.7,0c3.9-6.4,5.2-13.9,9.2-20c4.6-7.1,9.2-14.3,15-20.6c9.1-9.7,19.6-17.6,31.7-23.2
		c9.9-4.5,20.2-7.8,30.8-9.7c13.8-2.5,27.7-3.7,41.8-3.2c0.7,0,1.5,0.1,3.1,0.3c-1.8,1-2.8,1.6-3.8,2.1c-6.2,3-6.9,8-1.6,12.5
		c8.4,7.2,18.6,7.7,28.9,6.9c13.2-0.9,25.2-5.8,36.5-12.5c1-0.6,1.9-1.4,3.3-1.4c0.6,2.1-1.2,3.2-2,4.7c-4.1,8.2-1.7,15,6.9,18
		c10.8,3.7,21.4,4.1,32.1-1.4c9.9-5.1,20.2-9.6,30.2-14.5c12.6-6.2,25.2-12.7,37.8-18.9c2.8-1.4,5.8-2.5,9.3-4
		c-0.8,2.8-1.5,5-2.2,7.6c4.1,0,7-2.5,10-3.9c15.4-7.3,30.6-15,45.9-22.7c1.8-0.9,3.9-2,4.2-4.5c0.5,0,1.1,0,1.6,0
		c-0.2,4.9-4.3,7.5-6.6,11.1c-1.8,2.8-3.8,5.4-5.6,9.2c6.2-2.1,11.6-4,17.3-4.9c1.7-0.3,3.4-1.1,5,0.3c-0.4,1.4-1.7,1.7-2.8,2.1
		c-7.8,3.2-14.9,7.4-21.7,12.6c-3,2.3-6,5.2-10.2,7c1.4-4.6,5.4-6.8,6.2-11.3c-30.6,14.4-57.3,34.7-85.1,53.5
		c9.2-1.7,17.9-5.6,28.3-6.4c-2.3,1.1-3.6,1.7-4.9,2.3c-15,6.5-30.3,12.1-46.1,16.5c-2.5,2-5.4,1.5-8.3,1.5c0-0.2,0-0.4-0.1-0.6
		c-0.8-1.6-2-1.1-3.1-0.6c-5.7,0.5-11.4,0.6-17.2,0.3c3.9-0.5,7.8-1,11.7-1.5c7.9-0.9,15.7-1.9,22.8-5.8
		c11.2-6.2,20.9-14.5,31.7-21.3c14-8.9,27.6-18.6,41.3-28c2.7-1.8,5.2-3.9,7.8-5.8c-7.5,0.9-13.9,4.3-20.5,7.3
		c-2.8,1.3-5.4,2-7.3-1.6c-4.6,2.2-7.9,5.9-12,8.5c-13.2,8.3-25.4,18.3-41,22.4c-7.4,1.9-9.1,2.1-13.3-3.7c-1.7,1.5-3.5,2.9-5.2,4.5
		c-4.3,3.9-7.8,3.9-12,0c-0.9-0.8-1.7-1.3-2.9-0.8c-8.8,3.4-17.7,6.5-26.2,10.4c-2.6,1.2-4.8,1.5-7.7,1.7c0.9-1.8,1.6-3.1,2.2-4.5
		c0.9-2.3,3.3-4.8,0.8-7.1c-2.2-2.1-5-0.4-7.3,0.6c-10.4,4.6-21,8.3-32,11.1c-12.8,3.2-25.8,5.6-39.1,5.6c-8.2,0-16.3,0-24.5-0.7
		c-14.1-1.1-28,1.2-41.5,5.2c-1,0.3-2.1,1.3-3.5,0.4c12.9-13.2,29.7-18.3,46.4-22.7c9.3-2.4,19.3-2.8,29.2-3.1
		c6.7-0.2,13.4-0.3,20-0.5c4.1-0.1,5-1.4,3.7-5.4c-1.2-3.7-4.2-4.4-7.4-4.5c-7.4-0.2-14.7,0.2-22.1-0.7c-5.8-0.7-7.6-4-4.6-8.9
		c1.4-2.3,4.1-3.5,4.9-6.7c-3.7,0.6-7,1-10.4,1.6c-18.7,3.1-35.3,11-50.4,22.1c-9.8,7.2-18.6,15.5-26.6,24.8
		c-5.1,6-10.1,12.1-14.4,18.6c-0.7,1.1-2.2,2-1.2,3.6C6.1,114.2,7.6,113.8,8.9,113.6z"/>
	<path class="st0" d="M0,122.6c1.7-0.8,3.3-1.6,5.4-1.6c30.2,0.1,60.5,0,90.7,0c0.9,0,1.8,0.1,2.7,0.2c0.4,1.6-0.8,1.7-1.6,2.1
		c-5.5,2.5-11.4,4.1-17.4,4.1C62.2,127.5,46,142.9,42.6,160c-3.2,16.3-3.5,32.6-2,49c1.6,17.6,4.8,34.9,8.4,52.2
		c1.4,6.7,3.3,13.2,4.9,19.8c0.4,1.7,1.3,3.5,0.3,5.8c-4.5-6.7-8-13.5-11.6-20.2c-5.4-9.9-10.5-19.9-14.4-30.4
		c-10.3-27.6-21-55.1-26.1-84.3c-0.5-2.9,0.6-6.3-2-8.7C0,136.3,0,129.4,0,122.6z"/>
	<g>
		<path class="st0" d="M107.6,93.1l-1.8,0c-7.5,0-15.3-0.1-23-0.7c-2.3-0.2-4.6-0.3-6.9-0.3c-10.3,0-21.2,1.8-33.5,5.4
			c-0.1,0-0.2,0.1-0.3,0.1c-0.7,0.3-1.6,0.8-2.9,0.8c-1,0-2-0.3-2.9-0.9c-0.8-0.5-1.4-1.4-1.5-2.4c-0.1-1,0.2-2,0.9-2.7
			c13.4-13.7,30.3-19,47.9-23.6c9.4-2.4,19.1-2.9,29.9-3.2c3.1-0.1,6.2-0.2,9.3-0.2c3.5-0.1,7.2-0.1,10.7-0.3c0.4,0,0.7,0,1-0.1
			c-0.1-0.3-0.2-0.6-0.3-1c-0.4-1.3-1-2.1-4.4-2.3c-2.4-0.1-4.9-0.1-7.3-0.1c-4.9,0-10,0-15.1-0.7c-5.1-0.6-7.3-3-8.2-4.8
			c-0.9-1.8-1.4-4.8,1.2-9.1c0.1-0.2,0.2-0.4,0.4-0.5c-0.8,0.1-1.6,0.3-2.4,0.4c-17.1,2.9-33.2,9.9-49,21.5
			c-9.3,6.8-18,14.9-26,24.2c-4.3,5-9.3,11-13.7,17.6c0.1,0,0.2,0,0.4,0.1c0,0,0.1,0,0.1,0c28.5-1.6,65.7-4.9,101.8-15.8
			c0.6-0.2,1.4-0.5,2.1-0.9c0.8-0.4,1.6-0.7,2.4-1c-2.7,0.2-5.5,0.3-8.3,0.3L107.6,93.1z"/>
		<path class="st0" d="M302.5,45.4c-1.5,0.9-2.9,2.1-4.3,3.2c-1.6,1.3-3.3,2.6-5.1,3.8c-3.1,1.9-6.1,4-9.1,6
			c-10,6.7-20.3,13.6-32.8,16.8c-2.9,0.8-5.2,1.3-7.2,1.3c-3.1,0-5.3-1.2-7.4-3.5c-0.9,0.8-1.7,1.5-2.6,2.2
			c-2.8,2.5-5.5,3.8-8.2,3.8c-2.7,0-5.4-1.2-8.2-3.8c-2.4,0.9-4.8,1.9-7.2,2.7c-6.1,2.3-12.4,4.7-18.4,7.4c-3.1,1.4-5.8,1.8-8.9,2
			c-0.1,0-0.1,0-0.2,0c-1.1,0-2.1-0.5-2.7-1.5c-0.6-1-0.7-2.2-0.2-3.3c0.3-0.6,0.6-1.2,0.8-1.7c0.5-0.9,0.9-1.8,1.2-2.5
			c0.3-0.7,0.6-1.3,0.9-2c0.2-0.5,0.6-1.2,0.7-1.6c0,0,0,0,0,0c-0.1-0.1-0.1-0.1-0.2-0.1c-0.6,0-1.7,0.5-2.6,0.9
			c-0.3,0.1-0.5,0.2-0.8,0.4c-11.1,4.9-21.7,8.6-32.6,11.3c-7.2,1.8-16,3.8-25.5,4.9c0.9,0.2,1.8,0.5,2.7,1c4.8,1.9,10,2.1,15.4,2.4
			c2.4,0.1,4.9,0.2,7.4,0.5c6.1,0.7,12.6,1,21.3,1c3.5,0,7,0,10.4-0.1l1.4,0c8.1-0.1,16.4-0.9,24.3-1.6c3.5-0.3,7.1-0.6,10.7-0.9
			c1.2-0.2,2.3-0.3,3.5-0.5c2.7-0.4,5.4-0.7,8.1-1c7.4-0.9,15-1.8,21.6-5.4c6.4-3.5,12.5-7.9,18.4-12.1c4.3-3.1,8.6-6.2,13.2-9.1
			c10-6.3,19.9-13.2,29.5-19.9c-0.9,0.3-1.9,0.5-2.8,0.5C305.7,47.1,304,46.8,302.5,45.4z"/>
		<g>
			<path class="st0" d="M107.6,93.1l-1.8,0c-7.5,0-15.3-0.1-23-0.7c-2.3-0.2-4.6-0.3-6.9-0.3c-10.3,0-21.2,1.8-33.5,5.4
				c-0.1,0-0.2,0.1-0.3,0.1c-0.7,0.3-1.6,0.8-2.9,0.8c-1,0-2-0.3-2.9-0.9c-0.8-0.5-1.4-1.4-1.5-2.4c-0.1-1,0.2-2,0.9-2.7
				c13.4-13.7,30.3-19,47.9-23.6c9.4-2.4,19.1-2.9,29.9-3.2c3.1-0.1,6.2-0.2,9.3-0.2c3.5-0.1,7.2-0.1,10.7-0.3c0.4,0,0.7,0,1-0.1
				c-0.1-0.3-0.2-0.6-0.3-1c-0.4-1.3-1-2.1-4.4-2.3c-2.4-0.1-4.9-0.1-7.3-0.1c-4.9,0-10,0-15.1-0.7c-5.1-0.6-7.3-3-8.2-4.8
				c-0.9-1.8-1.4-4.8,1.2-9.1c0.1-0.2,0.2-0.4,0.4-0.5c-0.8,0.1-1.6,0.3-2.4,0.4c-17.1,2.9-33.2,9.9-49,21.5
				c-9.3,6.8-18,14.9-26,24.2c-4.3,5-9.3,11-13.7,17.6c0.1,0,0.2,0,0.4,0.1c0,0,0.1,0,0.1,0c28.5-1.6,65.7-4.9,101.8-15.8
				c0.6-0.2,1.4-0.5,2.1-0.9c0.8-0.4,1.6-0.7,2.4-1c-2.7,0.2-5.5,0.3-8.3,0.3L107.6,93.1z"/>
			<path class="st0" d="M307,47.1c-1.3,0-3-0.4-4.5-1.7c-1.5,0.9-2.9,2.1-4.3,3.2c-1.6,1.3-3.3,2.6-5.1,3.8c-3.1,1.9-6.1,4-9.1,6
				c-10,6.7-20.3,13.6-32.8,16.8c-2.9,0.8-5.2,1.3-7.2,1.3c-3.1,0-5.3-1.2-7.4-3.5c-0.9,0.8-1.7,1.5-2.6,2.2
				c-2.8,2.5-5.5,3.8-8.2,3.8c-2.7,0-5.4-1.2-8.2-3.8c-2.4,0.9-4.8,1.9-7.2,2.7c-6.1,2.3-12.4,4.7-18.4,7.4c-3.1,1.4-5.8,1.8-8.9,2
				c-0.1,0-0.1,0-0.2,0c-1.1,0-2.1-0.5-2.7-1.5c-0.6-1-0.7-2.2-0.2-3.3c0.3-0.6,0.6-1.2,0.8-1.7c0.5-0.9,0.9-1.8,1.2-2.5
				c0.3-0.7,0.6-1.3,0.9-2c0.2-0.5,0.6-1.2,0.7-1.6c0,0,0,0,0,0c-0.1-0.1-0.1-0.1-0.2-0.1c-0.6,0-1.7,0.5-2.6,0.9
				c-0.3,0.1-0.5,0.2-0.8,0.4c-11.1,4.9-21.7,8.6-32.6,11.3c-7.2,1.8-16,3.8-25.5,4.9c0.9,0.2,1.8,0.5,2.7,1
				c4.8,1.9,10,2.1,15.4,2.4c2.4,0.1,4.9,0.2,7.4,0.5c6.1,0.7,12.6,1,21.3,1c3.5,0,7,0,10.4-0.1l1.4,0c8.1-0.1,16.4-0.9,24.3-1.6
				c3.5-0.3,7.1-0.6,10.7-0.9c1.2-0.2,2.3-0.3,3.5-0.5c2.7-0.4,5.4-0.7,8.1-1c7.4-0.9,15-1.8,21.6-5.4c6.4-3.5,12.5-7.9,18.4-12.1
				c4.3-3.1,8.6-6.2,13.2-9.1c10-6.3,19.9-13.2,29.5-19.9C308.9,46.9,308,47.1,307,47.1z"/>
		</g>
	</g>
	<path class="st0" d="M305.8,175.8c-3.8,0-7.7,0-12.1,0c6.3-11.4,15.1-18.1,27.3-20.4c3.4-0.6,6.8-0.9,10.2-0.9
		c15.2,0,30.4,0,45.5,0c2.5,0,4.9,0.1,7.3,0.7c10.4,2.4,15.6,10.6,11.8,20.7c-6.3,16.6-12.6,33.2-20.9,48.9c-2.4,4.6-6.2,7.6-11,9.4
		c-5,1.9-10.3,2.8-15.6,2.9c-18,0.1-36.1,0.1-54.2,0.2c-8.5,0-12.2-3.8-11-12.3c1.1-8.7,5.2-16.6,7.7-25c2.8-9.3,5.6-18.6,15.6-23.3
		C306.2,176.4,306,176.1,305.8,175.8z M333.1,216.5C333.1,216.5,333.1,216.5,333.1,216.5c3.1,0,6.3-0.1,9.4,0
		c9.4,0.4,15.5-4.1,18.9-12.7c2.7-6.7,4.3-13.8,6.1-20.8c1.3-4.9-0.9-7.6-6.1-7.7c-7.9-0.2-15.9-0.2-23.8,0
		c-6.7,0.2-11.2,3.8-13.6,10c-2,4.9-4,9.9-5.9,14.8c-1.2,3.3-2.4,6.7-2.3,10.3c0.1,4,1.7,5.7,5.7,5.9
		C325.4,216.6,329.2,216.5,333.1,216.5z"/>
	<path class="st0" d="M198.8,175.6c-5,0-8.8,0-13.1,0c2.5-6.9,5-13.3,7.3-19.8c0.5-1.4,1.6-1.2,2.7-1.2c25.6,0,51.1-0.2,76.7,0.2
		c12.1,0.2,17.9,8.7,14.2,20.2c-4.7,14.8-13.5,25.8-30.6,29.3c7.9,5,5.7,11.4,3.5,17.9c-1.6,4.8-3,9.6-4.5,14.7
		c-7.4,0-14.9,0-22.4,0c1.4-4.4,2.9-8.6,4-12.9c1.5-6.2-0.4-8.5-6.6-8.5c-8.3,0-16.6,0-24.9,0c-2.4,6.6-4.7,12.9-6.9,19.1
		c-0.6,1.7-1.3,2.8-3.4,2.7c-8.1-0.1-16.1,0-24.8,0c2-5.6,3.9-10.9,5.7-16.3c3.4-9.7,6.8-19.3,9.9-29c1.5-4.7,3.6-8.7,7.8-11.5
		C195,179.3,196.4,177.8,198.8,175.6z M212.1,195.6c7.3,0,13.9,0,20.6,0c4.1,0,8.2,0.2,12.2-0.7c5.8-1.4,10.2-4.3,12.1-10.3
		c1.8-6-0.2-9.1-6.4-9.2c-9.3-0.2-18.6-0.1-27.8,0c-1,0-2.3-0.4-2.9,1C217.4,182.5,214.9,188.8,212.1,195.6z"/>
	<path class="st0" d="M174.8,184.8c-9.4,0-18.5,0-27.7,0c1-7.8-0.5-9.5-8.5-9.5c-6.3,0-12.6,0-18.9,0c-8.9,0-13.4,3-16.6,11.2
		c-2.7,7.1-6.3,14-7.5,21.6c-1,6.3,0.9,8.4,7.1,8.4c5.9,0,11.8,0,17.6,0c9.2-0.1,12.4-2.5,15.2-11.3c7.5,0,15.1,0,23.1,0
		c-4.9,12.9-9.2,25.7-24.2,30.1c-4,1.1-8,1.8-12.1,1.8c-16.3,0-32.5,0.1-48.8,0.1c-8.5,0-12.7-4.5-10.9-12.8
		c2.9-13.2,8.4-25.7,12.5-38.5c0.4-1.2,1.5-1.9,2.4-2.7c2.6-2.2,5.2-4.4,8.2-7c-4.2-1-8.1-0.2-12.4-0.7c6.1-11.1,14.8-17.7,26.8-20
		c3.4-0.7,6.8-1,10.2-1c15.3,0,30.6,0,46,0c2.9,0,5.7,0.3,8.5,1c7.1,1.8,11.2,6.7,11.7,14C177,174.6,176.2,179.5,174.8,184.8z"/>
	<path class="st0" d="M510.9,184.8c-9.4,0-18.5,0-27.7,0c0.5-8.3-0.7-9.5-9.1-9.5c-6.6,0-13.1,0-19.7,0c-7.4,0-12.5,3.6-15.1,10.5
		c-2.5,6.6-5.7,13-7.2,20c-0.4,1.9-0.7,3.8-0.6,5.7c0.1,3,1.6,5,4.8,5c8.1,0,16.1,0.2,24.2-0.3c6.4-0.4,9.9-4.5,10.9-10.9
		c7.8,0,15.4,0,23.4,0c-2.9,7.4-5.3,14.7-10.1,20.7c-6.4,8-15.3,10.9-25,11c-16.8,0.3-33.6,0.2-50.4,0.2c-7.9,0-11.2-3.6-10.7-11.5
		c0.2-2.6,0.8-5.1,1.7-7.6c3.4-10.1,6.9-20.1,10.3-30.2c0.7-2,1.8-3.6,3.4-4.9c2.6-2.1,5.1-4.4,8.4-7.2c-4.8,0-8.6,0-13.1,0
		c6.3-11.3,15.2-18,27.3-20.3c4.1-0.8,8.1-0.9,12.2-0.9c14.5,0,29,0,43.5,0c2.5,0,4.9,0.1,7.3,0.7c8.5,1.9,12.8,7.1,13.1,15.9
		C513,175.6,511.8,180,510.9,184.8z"/>
	<path class="st0" d="M400.9,21c-1.2,0.4-2.3,0.6-3.3,0.6c-1.1,0-2.1-0.2-3.1-0.6c-3.4,1.3-7.1,2.3-11.4,3c-1,1.2-2.4,1.7-3.2,2
		c-0.1,0.1-0.3,0.1-0.4,0.2c-7.3,3-14.1,7-20.9,12.1c-0.7,0.5-1.3,1-2,1.6c-2.4,2-5.2,4.2-8.9,5.8c-0.4,0.2-0.9,0.3-1.3,0.3
		c-0.8,0-1.6-0.3-2.2-0.8c-0.9-0.9-1.3-2.2-1-3.4c0.3-0.9,0.6-1.8,1-2.6c-20.2,10.6-39.1,23.7-57.5,36.4c-0.7,0.5-1.4,1-2.1,1.4
		c3.4-0.8,6.9-1.5,10.8-1.8c0.1,0,0.2,0,0.3,0c1.5,0,2.8,1,3.2,2.4c0.4,1.5-0.4,3.1-1.8,3.8c-0.8,0.4-1.5,0.7-2.1,1
		c-1.1,0.5-2,1-3,1.4c-5.7,2.5-11.3,4.7-16.8,6.8c2.2-0.6,4.5-1.2,6.7-1.8c0.3-0.1,0.6-0.1,0.9-0.1c0.9,0,1.8,0.4,2.5,1.1
		c0.8,1,1,2.3,0.5,3.5c-5.5,12.1-14.5,20.4-24.1,27.6c2.4-0.5,4.7-0.9,7-1.4c1.2-0.2,2.3-0.4,3.5-0.7c1.1-1.5,2.9-1.9,3.6-2
		c0.1,0,0.3-0.1,0.4-0.1c11.3-3.4,19.9-6.9,27.3-11c11-6.1,19.6-13.1,26.5-21.3c7.4-8.8,15.7-17.6,26.9-23.5
		c-1.4,0.3-2.8,0.7-4.3,0.9c-0.2,0-0.4,0-0.5,0c-0.9,0-1.8-0.4-2.5-1.1c-0.8-0.9-1-2-0.7-3.1c2.2-7.4,11.2-14,19.6-14.5
		c0.7,0,1.5-0.1,2.2-0.1c10.8,0,20,4.3,27.8,8.7c-2.3-5-4-10.2-3.2-16.3c0.8-6.7,4.7-11.9,11.2-15c0.5-0.2,1-0.5,1.5-0.7
		C405.3,19.8,403,20.2,400.9,21z"/>
	<path class="st0" d="M274.5,121.7c0.2-1.6,1.6-1.6,2.8-1.9c9.7-2.9,19.3-6.4,28-11.3c10.2-5.7,19.7-12.8,27.4-22
		c8.4-10,17.5-19.3,30-24.6c5.3-2.2,10.9-3,17.5-3.5c-9.9-6.2-18.9-1.4-27.9,0.2c1.9-6.1,9.6-11.8,16.7-12.1
		c11.3-0.6,20.9,4,30.3,9.4c1.8,1,3.5,2.5,5.6,2.8c1.3-1.9-0.4-2.9-1.1-4.1c-3.1-5.8-5.9-11.7-5-18.6c0.7-6,4.1-9.9,9.3-12.4
		c4-1.9,8.3-3.3,12.7-4.1c-0.2-1.6-1-2-2-2.1c-6.3-0.5-12.7-1.6-18.9,0.6c-1.7,0.6-3.5,0.7-5-0.6c24.3-8.8,48.8-8.1,73.5-1.6
		c-8.7,0.1-17.4,0.1-25.8,2.7c-12.6,3.9-22.8,10.7-25.8,24.6c-2,9.3,0.6,17.5,7.6,24.2c1.8,1.8,3.3,4,4.4,5.4
		c-11.2-2.1-23.5-2.6-36-1.8c-14.6,1-28.5,4.9-41.8,10.5c-6.4,2.7-12.6,6.6-17.7,11.8c-9.8,10-10.9,14.7-5.8,27.6
		c-3.2-0.1-6.3-0.3-9.4-0.4c-12.4-0.3-24.9-0.1-37.3,1.3C278.6,121.8,276.5,121.7,274.5,121.7z"/>
	<path class="st0" d="M244.6,97.2c0.3,1.8,1.3,2.5,3.1,2.2c1.4,1,3,1,4.7,0.9c6.4-0.3,12.8-0.9,19-2.8c1.4-0.4,2.9-0.8,5.3,0
		c-12.8,16.8-29.2,26.2-49.4,29.4c-20.2,3.2-39.2-0.5-57.3-8.5c-0.6-1.7,0.5-2.3,1-3.2c0.5-0.2,0.9-0.5,1.4-0.7
		c3.4,1.7,6.9,0.7,10.3-0.1c0.9-0.1,1.8-0.3,2.7-0.4c4.3-1,8.6-1.9,12.9-2.9c8.9-2,17.2-5.7,25.9-8.3c4.1-1.2,7.7-4,12.1-4.1
		C239.1,98.7,242.1,99.2,244.6,97.2z"/>
	<path class="st0" d="M236.3,98.7c-4.5,0-8,2.8-12.1,4.1c-8.7,2.6-17,6.3-25.9,8.3c-9.1,2.7-13.5,2.6-12.9,2.9
		c-0.9,0.1-1.8,0.3-2.7,0.4c-5.2,1.6-7,1.3-10.3,0.1c-0.5,0.2-0.9,0.5-1.4,0.7c-10.4-0.6-20.5,2.1-30.9,2c-9.3-0.1-18.7,0.8-28.1,1
		c-4.1,0.1-8-1.4-12.3-1.4c10-4.4,20.1-8.7,23.5-20.5c7.7,3.1,15.9,2.3,23.9,3.2c11.1,1.2,22.3,1,33.5,0.9
		c11.8-0.2,23.6-1.6,35.4-2.5c5.7,0.3,11.5,0.2,17.2-0.3c1,0.2,2.1,0.4,3.1,0.6C236.2,98.3,236.3,98.5,236.3,98.7z"/>
	<path class="st0" d="M440.9,22c12.4-3.4,23.6-4,34.7,0.3c7.1,2.8,13,7.6,19.2,11.9c4.8,3.4,10.1,6,15.5,8.2
		c1.1,0.5,2.5,0.7,2.1,2.5c-0.3,1.6-1.6,1.2-2.6,1.4c-11,1.8-21.3,0-31.3-5.1c-4.6-2.3-8.2-5.8-12.5-8.4
		C458.4,28.1,450.2,25.1,440.9,22z"/>
	<path class="st0" d="M205.1,63c13-4.2,23-13.5,34.2-20.7c9.9-6.4,20.6-6,31.9-2c-4.1,3.3-9,3.6-13,5.9c-7.3,4.2-14.1,9.1-21.1,13.8
		c-4.2,2.8-9.1,5.1-14.2,5.9c-5.4,0.8-10.8,0.6-16.2-0.7C205.9,64.9,205.2,64.7,205.1,63z"/>
	<path class="st0" d="M381.2,94.2c-8.6-5.4-17.6-8.5-27.5-8.5c5.7-9.7,37.5-13.1,55.3-5.7c-5.1,0-9.1-0.4-13,0.1
		C385.2,81.3,383.1,82.8,381.2,94.2z"/>
	<path class="st0" d="M328.3,108.9c-2.1-3.7,0.9-5.5,2.1-7.3c6.4-10.4,16.4-14.9,28.8-11.6c3.2,0.9,6.5,1.6,9.8,2.3
		c1.5,0.3,2.8,0.7,4.1,3C356.3,94.3,341.3,97.9,328.3,108.9z"/>
	<path class="st0" d="M522.7,35.6c-11.4,1.9-21.5-0.2-30.4-8c-3.5-3.1-8-5.1-11.9-8c9.9-0.7,19.6-0.7,27.2,7
		C511.9,30.9,516.9,33.8,522.7,35.6z"/>
	<path class="st0" d="M421.3,44.2c1.1-8.8,4.7-15.8,13.3-18.6c8-2.6,14.4,1.2,20.3,6.5C441.5,30.1,430.1,33.4,421.3,44.2z"/>
	<path class="st0" d="M236.2,98.1c-1-0.2-2.1-0.4-3.1-0.6C234.2,97.1,235.4,96.5,236.2,98.1z"/>
</g>
</svg>
