<?xml version="1.0" encoding="utf-8"?>
<!-- Generator: Adobe Illustrator 28.3.0, SVG Export Plug-In . SVG Version: 6.00 Build 0)  -->
<svg version="1.1" id="Capa_1" xmlns="http://www.w3.org/2000/svg" xmlns:xlink="http://www.w3.org/1999/xlink" x="0px" y="0px"
	 viewBox="0 0 405.3 602.7" style="enable-background:new 0 0 405.3 602.7;" xml:space="preserve">
<style type="text/css">
	.st0{fill:#FFFFFF;}
</style>
<g>
	<path class="st0" d="M244.1,310.6c-3.3-0.1-6.5-0.1-9.6-0.4c-14.8-1.3-29.1-5-43.1-9.8c-1.4-0.5-1.9-1.2-2.1-2.6
		c-2.3-13.3-5.1-26.5-9.7-39.1c-9.8-27-19.8-53.9-30.9-80.4c-0.2-0.4-0.3-0.8-0.5-1.2c-0.6-2.2,1.4-4.3,3.6-3.7
		c0.5,0.1,0.9,0.3,1.3,0.5c13.4,5.6,27.3,9.3,41.6,11.5c9.7,1.5,19.4,2.3,29.1,2.3c6.8,0,13.6-0.7,20.4-1.8
		c11-1.8,21.6-4.7,31.9-8.8c1.2-0.5,2.3-0.6,3.4,0.2c1.3,0.9,1.6,2.4,0.8,4c-1.3,2.6-2.7,5.1-3.9,7.7c-8.9,17.7-15.3,36.4-19.9,55.7
		c-3.7,15.7-6.8,31.5-9.4,47.3c-0.9,5.7-1.7,11.4-2.6,17C244.4,309.5,244.3,309.9,244.1,310.6z"/>
	<path class="st0" d="M297.4,430.3c14.3,0,28.6,0,43.1,0c3.1,16.2,5.4,32.5,8.5,48.7c0.1,0,0.1,0,0.2,0c0.1,0,0.1,0,0.1-0.1
		c0.1-0.1,0.1-0.2,0.1-0.3c2.5-16,4.9-32.1,7.4-48.1c0,0,0.1-0.1,0.2-0.2c14.3,0,28.6,0,43,0c0.4,1.3,0.5,105.3,0.1,107.6
		c-9.6,0-19.2,0-29,0c0-11.8,0-23.5,0-35.3c0-11.7,0-23.4,0-35c-0.1,0-0.2,0-0.4,0c-3.7,23.4-7.5,46.8-11.2,70.1
		c-1.3,0.4-17.5,0.5-20.8,0.2c-3.9-22.8-7.9-45.7-11.9-68.6c-0.1,0-0.2,0-0.3,0c0,22.8,0,45.7,0,68.6c-9.8,0-19.4,0-29,0
		C297.1,536.6,297,432.2,297.4,430.3z"/>
	<path class="st0" d="M78.4,242.8c0.5,0.9,0.8,1.5,1.2,2.1c8.9,16.4,19.5,31.6,32.4,45.1c18.8,19.7,39.7,36.7,63.4,50.3
		c23.1,13.3,47.3,24.2,72.5,32.8c10.4,3.6,20.9,6.6,31.7,8.5c5.5,1,11.1,1.7,16.7,2.3c9.7,1.2,19.5,1.3,29.2,1
		c5.6-0.2,11.2-0.8,16.8-1.3c7.8-0.8,15.5-2.1,23.2-3.7c2-0.4,3.9-1,6-1.5c-0.3,0.4-0.5,0.7-0.8,1c-7.8,8.4-16.3,15.8-26.4,21.4
		c-6.4,3.5-13.2,5.6-20.4,6.6c-7.7,1.1-15.5,1.1-23.3,1.2c-4.5,0-9,0.1-13.5-0.2c-5.4-0.4-10.7-1-16.1-1.7c-9-1.1-17.8-3-26.6-5.3
		c-15.9-4.1-31.3-9.8-46-17.2c-11.7-5.9-23.4-11.8-35-17.9c-11.6-6.1-22.5-13.4-32.4-22.1c-7.4-6.6-14.1-13.8-20.4-21.4
		c-3.9-4.6-7.7-9.4-11.4-14.1c-5-6.3-9-13.3-12.1-20.7c-2.1-4.8-4-9.7-6-14.6c-2.8-7-4-14.3-3.8-21.8c0.1-2.4,0.3-4.9,0.5-7.3
		C78,243.8,78.2,243.5,78.4,242.8z"/>
	<path class="st0" d="M139.8,538c0-36,0-71.8,0-107.7c0.5-0.1,1-0.1,1.4-0.1c13.9,0.1,27.8,0.2,41.7,0.4c5.3,0.1,10.5,0.5,15.7,1.7
		c2.7,0.7,5.4,1.5,7.9,2.9c6,3.5,9.6,8.5,10.1,15.6c0.3,5.2,0.6,10.4,0.7,15.6c0.1,14,0.1,27.9,0,41.9c0,4.8-0.2,9.6-1,14.3
		c-0.9,5.5-3.8,9.4-8.8,11.9c-4.1,2-8.5,2.8-13,3.1c-4.5,0.3-9,0.4-13.5,0.4c-13,0.1-26,0-39,0C141.3,538,140.6,538,139.8,538z
		 M173.3,519.6c1.7-0.2,3.3-0.2,4.9-0.5c3.4-0.6,4.5-1.8,4.9-5.2c0.4-2.8,0.6-5.6,0.6-8.4c0.1-15.1,0-30.3,0-45.4
		c0-2-0.1-3.9-0.3-5.9c-0.1-1.7-0.7-3.3-2.3-4.2c-2.5-1.3-5.1-1.3-7.8-1.1C173.3,472.5,173.3,495.9,173.3,519.6z"/>
	<path class="st0" d="M97,537.9c-5.6-15.8-11.3-31.7-16.9-47.6c-0.1,0-0.2,0-0.4,0.1c0,15.8,0,31.6,0,47.4
		c-1.5,0.4-24.6,0.5-27.8,0.2c-0.4-1.3-0.5-105.4-0.1-107.6c9.2,0,18.4,0,27.8,0c6,15.7,12.1,31.4,18.2,47.2
		c0.5-2.2,0.4-4.5,0.4-6.7c0-2.2,0-4.4,0-6.6c0-2.3,0-4.6,0-6.8c0-2.2,0-4.4,0-6.6c0-2.3,0-4.6,0-6.8c0-2.2,0-4.4,0-6.6
		c0-2.3,0-4.5,0-6.9c9.4,0,18.5,0,27.9,0c0,35.8,0,71.6,0,107.4C125,538.1,99.7,538.2,97,537.9z"/>
	<path class="st0" d="M214.6,349.3c2.9,0.5,5.6,1.1,8.3,1.6c7.9,1.4,15.8,2.5,23.8,3.3c9.8,0.9,19.7,1.4,29.6,1.2
		c12.3-0.3,24.5-1.5,36.5-4.5c8.6-2.2,16.9-5.2,24.7-9.7c9.5-5.5,16.7-13.1,20.9-23.4c2.3-5.7,3.5-11.7,3.8-17.8
		c0.5-11.9-1.8-23.3-5.9-34.5c-2.4-6.7-5.3-13.1-9.3-19.1c0.2,0.1,0.4,0.3,0.6,0.4c14,13.7,26.9,28.3,37.4,44.9
		c1.1,1.8,2.2,3.7,3.2,5.6c3.3,6.1,5.6,12.4,6.1,19.4c0.5,6.8,0.6,13.6-0.8,20.4c-2,9.4-6.8,17.2-14.1,23.4
		c-6.1,5.2-13.2,8.7-20.7,11.4c-8.8,3.2-17.8,5.2-27,6.6c-8.8,1.3-17.7,1.5-26.5,0.9c-13-0.8-25.6-3.4-38.1-7.1
		c-17.8-5.3-34.7-12.5-50.8-21.6c-0.5-0.3-0.9-0.5-1.4-0.8C214.8,349.7,214.8,349.6,214.6,349.3z"/>
	<path class="st0" d="M229.7,430.3c18.6,0,37,0,55.5,0c0,7.2,0,14.2,0,21.5c-7.4,0-14.6,0-22,0c0,6.9,0,13.5,0,20.4
		c6.9,0,13.7,0,20.8,0c0,6.9,0,13.6,0,20.5c-7,0-13.8,0-20.6,0c-0.4,1.5-0.6,20.8-0.2,23.6c2,0.2,4,0.1,6,0.1c2,0,4.1,0,6.1,0
		c2,0,4,0,5.9,0c2,0,4.1,0,6.2,0c0,7.2,0,14.3,0,21.5c-19.3,0-38.5,0-57.8,0C229.7,502,229.7,466.2,229.7,430.3z"/>
	<path class="st0" d="M38.3,538c-11.2,0-22.2,0-33.4,0c0-35.9,0-71.7,0-107.6c11,0,22,0,33,0c0,0,0.1,0.1,0.1,0.1
		c0,0,0.1,0.1,0.1,0.1c0,35,0.1,70,0.1,105.1C38.3,536.3,38.3,537,38.3,538z"/>
	<path class="st0" d="M125.4,243.5c0.2,0.4,0.4,0.6,0.5,0.9c8.3,15.8,19.6,29.3,32.8,41.3c12.3,11.2,26.1,20.2,40.8,27.9
		c14.1,7.4,28.7,13.4,43.9,18.1c8.9,2.7,18.1,4.4,27.5,4.9c10.9,0.6,21.9,0.8,32.9,0.2c4.4-0.2,8.7-1.1,12.9-2.3
		c0.3-0.1,0.6-0.1,1.1-0.3c-0.3,0.4-0.3,0.7-0.5,0.8c-10,8.4-20.9,14.8-34,16.7c-5.6,0.8-11.3,0.9-17,0.8
		c-16.1-0.3-31.6-3.7-46.6-9.2c-7.9-2.9-15.4-6.6-22.8-10.5c-6.1-3.1-12.1-6.3-18.1-9.6c-12.7-7-23.4-16.4-32.4-27.7
		c-2.5-3.1-5-6.2-7.5-9.4c-2.6-3.4-4.8-7-6.6-10.9c-2-4.5-3.9-9-5.6-13.6c-2.1-5.7-2.4-11.7-1.5-17.7
		C125.1,243.9,125.2,243.8,125.4,243.5z"/>
	<path class="st0" d="M147.8,152.3c-2.2,4.4-2.6,9-2.5,13.8c-1.9-0.2-3.6-0.4-5.3-0.6c-12.3-1.6-24.6-2.1-36.9-1.7
		c-12,0.5-23.9,1.6-35.5,5c-8.3,2.4-16.4,5.3-24.3,8.7c-8.7,3.8-16.6,9-24,14.9c-2.5,2-5,4-7.7,6.2c-0.2-0.6-0.4-1.1-0.4-1.6
		c-1.2-7.7,0.3-14.9,4-21.7c4.8-8.8,11.6-15.8,20.2-21c8-4.9,16.7-8.1,25.7-10.2c11-2.6,22.2-3.2,33.5-2.5
		c12.8,0.9,25.2,3.4,37.6,6.4c4.5,1.1,9,2.3,13.6,3.4C146.4,151.8,147,152,147.8,152.3z"/>
	<path class="st0" d="M152.5,198.4c0.7,1.8,1.4,3.4,2.1,5.3c-0.5,0.1-0.8,0.2-1.1,0.3c-16.6,2.9-29.7,15.7-33.1,32.2
		c-0.8,3.7-0.7,7.4-0.2,11.1c1,7,2.3,13.9,4.8,20.6c3.3,8.6,8,16.5,13.7,23.7c10.8,13.7,23.6,25.3,38.9,33.9
		c0.3,0.2,0.6,0.4,0.8,0.8c-0.3-0.1-0.6-0.2-0.9-0.3c-20.3-9-39.3-20.2-56.6-34c-11.4-9.1-20.3-20.3-27-33.2
		c-3.4-6.5-5.2-13.5-4.5-20.8c1.4-13.5,7.5-24.2,20-30.5c6.5-3.3,13.5-5.2,20.6-6.6c6.9-1.4,13.8-2,20.9-2.2
		C151.4,198.4,151.9,198.4,152.5,198.4z"/>
	<path class="st0" d="M337.2,321c0-0.6-0.1-1.1-0.1-1.5c0.6-6.4,0.5-12.8-0.1-19.2c-0.4-4.7-1.3-9.4-2.8-13.9
		c-2.1-6.2-4-12.4-6.5-18.5c-2.8-7-7-13.3-11.5-19.5c-9.6-13.3-20.8-25-33.1-35.8c-2.6-2.3-5.3-4.5-7.9-6.7
		c-1.2-1.1-1.3-1.1-0.7-2.6c1.2-2.8,2.4-5.6,3.7-8.6c0.8,0.5,1.4,0.8,2,1.2c9.2,6.5,18.4,13,27.5,19.6c7.2,5.2,14.1,10.7,20.6,16.8
		c7,6.6,13.2,13.8,18,22.2c4.6,8.1,8,16.6,9.4,25.8c1.5,9.7,0.2,19.1-4.5,27.9c-2.8,5.2-6.8,9.3-12,12c-0.4,0.2-0.9,0.4-1.3,0.6
		C337.8,320.9,337.6,320.9,337.2,321z"/>
	<path class="st0" d="M265.1,595.3c0-16.7,0-33.2,0-49.8c0.5,0,0.9-0.1,1.3-0.1c5.7,0,11.4,0,17.1,0.1c2,0,3.9,0.2,5.9,0.4
		c5.5,0.7,9.8,3.6,10.4,10.2c0.2,2.2,0.1,4.5-0.1,6.8c-0.2,2.1-1.5,3.5-3.4,4.2c-1.1,0.4-2.2,0.8-3.5,1.2c0.9,0.3,1.5,0.5,2.2,0.7
		c3.7,1.1,5.8,3.5,6.1,7.3c0.3,3.9,0.4,7.8-0.2,11.6c-0.7,4-2.9,6.2-6.9,6.7c-2.8,0.4-5.7,0.6-8.6,0.6c-6.2,0.1-12.4,0-18.7,0
		C266.1,595.4,265.7,595.4,265.1,595.3z M280.6,586.8c0.6,0,0.9,0,1.3-0.1c3-0.4,3.5-0.9,3.6-4c0.1-2,0-4.1,0-6.1
		c0-0.7-0.1-1.5-0.3-2.1c-0.2-0.5-0.7-1.1-1.2-1.2c-1-0.3-2.2-0.4-3.4-0.5C280.6,577.6,280.6,582.1,280.6,586.8z M280.7,554.1
		c0,3.7,0,7.2,0,10.8c1,0,1.9,0.1,2.8,0c0.8-0.1,1.5-0.5,1.7-1.3c0.5-2.5,0.7-5.1,0.1-7.6c-0.2-0.9-0.9-1.6-1.9-1.7
		C282.5,554.1,281.6,554.1,280.7,554.1z"/>
	<path class="st0" d="M351.3,570.2c-0.1,4.2-0.2,8.1-0.3,12c-0.2,7.4-3.6,11.6-10.8,13.4c-5.2,1.3-10.3,1.2-15.4-0.4
		c-2.4-0.8-4.5-2-6.2-3.9c-1.6-1.8-2.8-3.9-2.9-6.4c-0.2-2.9-0.3-5.7-0.3-8.6c0-5.3,0-10.7,0-16c0-1.6,0.1-3.2,0.4-4.8
		c0.5-3.6,2.6-6.3,5.6-8.2c2.5-1.6,5.4-2.4,8.3-2.7c4-0.4,7.9-0.3,11.7,1c2.3,0.7,4.3,1.8,6,3.5c2.3,2.2,3.4,5,3.5,8.2
		C351.1,561.6,351.2,566.1,351.3,570.2z M335.6,570.3C335.6,570.3,335.6,570.3,335.6,570.3c0.1-4.1,0.1-8.1,0.1-12.2
		c0-1.1,0-2.3-0.2-3.4c-0.2-1.3-0.9-1.8-2.1-1.8c-1.1,0-1.9,0.5-2.2,1.7c-0.2,1-0.3,2-0.3,3c0,8.4,0,16.8,0,25.1
		c0,1.1,0.1,2.3,0.3,3.4c0.2,1.3,0.8,1.8,2,1.8c1.2,0,1.9-0.5,2.2-1.7c0.2-0.7,0.2-1.4,0.2-2.1C335.6,579.5,335.6,574.9,335.6,570.3
		z"/>
	<path class="st0" d="M45.5,570.4c0-3.8-0.1-7.7,0-11.5c0.2-7.8,3.7-12.1,11.4-13.9c4.9-1.1,9.8-1,14.6,0.5c2.1,0.7,4.1,1.7,5.7,3.2
		c2,1.9,3.4,4.2,3.6,7c0.1,1.9,0.3,3.8,0.3,5.7c0,6.5,0,13.1,0,19.6c0,1.1-0.1,2.3-0.2,3.4c-0.4,4.5-2.8,7.5-6.7,9.6
		c-2.7,1.5-5.7,2.1-8.8,2.2c-3.6,0.2-7.1,0-10.5-1.2c-2.3-0.7-4.3-1.9-6-3.6c-2.3-2.3-3.3-5.2-3.4-8.4c-0.1-4.3-0.2-8.5-0.3-12.8
		C45.3,570.4,45.4,570.4,45.5,570.4z M60.9,570.5C60.9,570.5,60.9,570.5,60.9,570.5c0,4.5,0,9.1,0,13.6c0,0.7,0.1,1.4,0.2,2.1
		c0.3,1.2,0.8,1.6,2,1.6c1.2,0,1.9-0.4,2.1-1.5c0.2-0.8,0.3-1.7,0.3-2.5c0-9.1,0-18.2,0-27.3c0-0.7-0.1-1.4-0.2-2.1
		c-0.3-1.2-0.9-1.6-2-1.7c-1.1,0-1.9,0.5-2.1,1.5c-0.2,1-0.3,2-0.3,3C60.9,561.8,60.9,566.2,60.9,570.5z"/>
	<path class="st0" d="M244.4,545.6c2.9,16.6,5.9,33.1,8.8,49.7c-5.3,0-10.4,0-15.8,0c-0.3-2.8-0.6-5.7-0.9-8.7c-1.8,0-3.6,0-5.5,0
		c-0.3,2.9-0.6,5.7-1,8.8c-5.3,0.1-10.5,0-16,0c2.6-16.7,5.3-33.2,7.9-49.8C229.4,545.6,236.8,545.6,244.4,545.6z M236,577.5
		c-0.7-6.5-1.5-12.9-2.2-19.2c-1.3,6.4-2.4,12.7-3,19.2C232.7,577.5,234.2,577.5,236,577.5z"/>
	<path class="st0" d="M203,567.1c-5.4,0-10.4,0-15.6,0c0-0.7,0-1.3,0-1.9c-0.1-3.3-0.1-6.6-0.2-9.9c-0.1-2-1.3-2.8-3.3-2.3
		c-1,0.2-1.6,0.8-1.7,1.8c-0.1,0.9-0.3,1.9-0.3,2.9c0,8.6,0,17.1,0,25.7c0,0.8,0.1,1.7,0.3,2.5c0.3,1.6,1,2.1,2.6,2.1
		c1.5,0,2.3-0.6,2.5-2.3c0.2-1.5,0.2-3.1,0.3-4.7c0-1.8,0-3.6,0-5.3c1.3-0.4,13.1-0.5,15.4-0.1c0,0.4,0.1,0.9,0.1,1.4
		c-0.2,3-0.3,6-0.6,8.9c-0.3,2.9-1.9,5.1-4.3,6.8c-2.6,1.9-5.6,3.1-8.7,3.5c-4.1,0.5-8.2,0.5-12.3-0.6c-0.5-0.1-0.9-0.3-1.4-0.4
		c-5.3-1.7-8.4-5.1-8.9-10.7c-0.1-0.8-0.3-1.7-0.3-2.5c-0.1-8.8-0.5-17.6,0.3-26.4c0.3-3.7,2.5-6.2,5.6-8.2c2.6-1.6,5.5-2.5,8.5-2.8
		c3.8-0.4,7.5-0.3,11.2,0.7c1.3,0.4,2.6,0.9,3.9,1.4c3.9,1.8,6.3,4.9,6.7,9.3C202.8,559.6,202.8,563.2,203,567.1z"/>
	<path class="st0" d="M95.4,577.6c4.8,0,9.4,0,14.3,0c0,1,0,1.8,0,2.7c0,1.7,0,3.5,0.1,5.2c0.1,1.5,0.7,2.2,1.9,2.4
		c1.5,0.3,2.8-0.3,3.3-1.6c0.8-2,0.4-4.1,0-6.2c-0.3-1.5-1.5-2.4-2.7-3.2c-2.5-1.5-5-2.9-7.4-4.3c-1.3-0.8-2.6-1.5-3.9-2.3
		c-3.7-2.1-5.7-5.4-6.1-9.6c-0.3-2.6-0.1-5.1,0.4-7.7c0.6-2.6,2.1-4.5,4.3-5.9c2.3-1.4,4.9-2.2,7.6-2.5c4.4-0.5,8.9-0.5,13.2,0.9
		c1.5,0.5,2.9,1.1,4.3,1.8c2,1.1,3.2,2.8,3.7,5.1c0.6,2.6,0.5,5.2,0.5,8.1c-4.8,0-9.4,0-14.4,0c0-0.8,0-1.4,0-2.1
		c0-1.2,0-2.4-0.1-3.6c-0.1-1.3-0.6-1.8-1.7-2c-1.1-0.2-2.2,0.2-2.8,1.2c-1.2,2-0.5,6,1.3,7.4c1,0.8,2.2,1.4,3.4,2
		c3,1.7,6.1,3.4,9.1,5.1c4,2.4,6.1,5.9,6.4,10.6c0.2,2.9,0.2,5.7-0.3,8.6c-0.5,2.4-1.9,4.2-4,5.5c-2.3,1.4-4.9,2.3-7.6,2.7
		c-4.2,0.6-8.5,0.6-12.7-0.5c-0.3-0.1-0.7-0.2-1-0.3c-6.3-2-8.8-5.1-9.1-11.8C95.3,581.6,95.4,579.7,95.4,577.6z"/>
	<path class="st0" d="M365.4,577.5c4.8,0,9.5,0,14.2,0c0,0.6,0.1,1.1,0.1,1.6c0,2,0,4,0.1,5.9c0.1,2,0.8,2.8,2.5,2.9
		c1.7,0.1,2.8-0.8,3.1-2.6c0.3-1.9,0.3-3.9-0.5-5.7c-0.3-0.8-1-1.7-1.8-2.2c-1.9-1.3-4-2.5-6-3.7c-2.2-1.3-4.5-2.6-6.7-3.9
		c-3.5-2.1-5.3-5.3-5.5-9.3c-0.1-2.4,0.1-4.9,0.4-7.3c0.4-2.9,2.2-5,4.7-6.4c2.2-1.2,4.5-1.9,7-2.2c4.6-0.5,9.1-0.5,13.5,0.9
		c1.1,0.3,2.2,0.8,3.3,1.3c2.6,1.2,4.2,3.3,4.6,6.2c0.4,2.4,0.5,4.9,0.4,7.4c-4.8,0-9.4,0-14.3,0c0-0.6-0.1-1.2-0.1-1.7
		c0-1.3,0-2.5-0.1-3.8c-0.1-1.3-0.6-1.8-1.6-2c-1.1-0.3-2.2,0.2-2.8,1.1c-1.2,2-0.6,6,1.2,7.4c1.1,0.8,2.3,1.4,3.5,2.1
		c2.9,1.7,5.8,3.3,8.8,4.9c4.3,2.5,6.5,6.3,6.6,11.2c0.1,2.4,0,4.9-0.3,7.3c-0.3,3-1.9,5.1-4.5,6.5c-2.3,1.3-4.8,2.1-7.4,2.5
		c-4.2,0.6-8.5,0.6-12.6-0.6c-1.9-0.6-3.7-1.4-5.4-2.4c-2.1-1.2-3.3-3.1-3.9-5.4C365.2,584.4,365.3,581,365.4,577.5z"/>
	<path class="st0" d="M225.6,149.6c0.5,0.7,1,1.3,1.5,1.9c3.3,4.2,5.5,8.9,5.2,14.4c-0.1,2.1-0.6,4.2-1.3,6.1
		c-1.5,3.8-4.7,5.6-8.6,6.2c-4.5,0.7-8.4-0.6-11.5-4c-4.5-5-6.5-10.9-6.1-17.6c0-0.8,0.3-1.5,0.5-2.3c0.3-1.5-0.1-1.9-1.5-2.3
		c-1.9-0.6-3.8-1.2-5.5-2.2c-4.5-2.6-6-7.2-4.2-12.1c1.6-4.2,4.6-7,8.5-9.2c0.5-0.3,1-0.4,1.5-0.5c1.9-0.2,3.3,1.2,3,3.1
		c-0.2,1.3-0.7,2.4-1.6,3.3c-1,1-2.1,1.9-3.1,2.9c-0.9,0.9-1.9,1.8-2.8,2.8c-1.4,1.7-1.4,3.5-0.3,5.3c1.3,2.3,3.4,3.8,5.6,5.2
		c0.6,0.4,1.1,0.2,1.6-0.4c0.3-0.5,0.6-1.1,1-1.5c0.9-0.8,1.7-1.7,2.7-2.3c4.1-2.3,8.1-4.6,12.3-6.7c3.8-2,7.9-3.5,12.3-3.8
		c2.4-0.2,4,0.8,5,2.7c0.9,1.7,1.7,3.6,2.1,5.5c0.9,4.3,1.5,8.7,2.2,13.1c0.2,1,0.3,2.1-0.4,3.2c-0.4-0.4-0.6-0.7-0.9-1
		c-0.8-0.8-1.7-1.1-2.8-0.7c-1.1,0.4-1.7,1.2-1.8,2.4c-0.1,1.2-0.2,2.4-0.4,3.6c0,0.2-0.2,0.4-0.3,0.6c-0.8,0-0.9-0.6-1-1.1
		c-1.7-4.3-3.4-8.7-5.1-13c-0.1-0.3-0.2-0.5-0.4-0.8C229.6,148,228.3,147.7,225.6,149.6z"/>
	<path class="st0" d="M169.5,123.8c-0.4-0.6-0.8-1.1-1.2-1.7c-1.1-1.7-2.1-3.4-3.1-5c-0.9-1.4-2.3-2.1-4-1.9c-1.8,0.2-3,1.3-3.4,3
		c-0.5,2.1-0.8,4.2-1.2,6.3c-0.2-1.6-0.5-3.3-0.6-5c-0.4-7-1.1-14-1.2-21c-0.2-11,3.7-20.5,11.5-28.3c2.9-2.9,6.2-5.1,9.9-6.7
		c0.7-0.3,1.4-0.6,2.2-0.8c1.7-0.4,3,0.1,4,1.6c0.2,0.2,0.3,0.5,0.5,0.8c1.5,3.5,3.3,6.9,4.2,10.7c1.9,8.1,5.8,15.3,11.6,21.3
		c0.2,0.3,0.5,0.5,0.7,0.8c0.7,1,0.6,1.9-0.5,2.4c-1.1,0.6-1.5,1.5-1.8,2.5c-3.7,10.2-7.5,20.3-11.2,30.5c-0.2,0.6-0.4,1.1-0.7,1.7
		c-0.5-0.2-1-0.3-1.6-0.5c0.2-0.7,0.4-1.4,0.6-2c3.6-9.9,7.3-19.8,10.9-29.6c0.1-0.2,0.1-0.5,0.2-0.7c0.6-1.1,0.6-2-0.6-2.8
		c-0.4-0.2-0.7-0.6-1.1-1c-0.8,0.7-1.5,0.9-2.3-0.2c1.1-1.1,0.5-2-0.4-3c-3.8-4.3-6.9-9.2-9.3-14.5c-1.2-2.7-1.9-2.8-3.9-0.6
		c-1.2,1.4-2.5,2.8-3.7,4.2c-4,4.5-5.9,9.9-6.2,15.9c-0.2,4.6-0.1,9.1,0.5,13.6c0.4,2.7,0.6,5.5,0.9,8.2c0.1,0.5,0.2,1,0.3,1.6
		C169.7,123.6,169.6,123.7,169.5,123.8z"/>
	<path class="st0" d="M278.9,105c1.7,1.6,2.3,3.4,2.7,5.3c0.7,3.5,0.2,6.9-0.5,10.3c-1.1,5-3,9.7-6,13.9c-2,2.8-4,5.7-5.9,8.6
		c-2.1,3-4,6.1-5.3,9.6c-0.4,1.1-0.8,2.3-0.9,3.5c-0.7,5.1,2.9,10.7,10.2,10.1c3.9-0.3,6.9-2.2,9-5.5c0.4-0.6,0.8-1.3,1.4-2.2
		c0.3,1.8,0,3.1-0.4,4.5c-1.2,4.3-3.9,7.5-7.6,9.9c-3.6,2.3-7.7,3.5-11.9,4.2c-5.4,0.9-10.8,0.4-16.1,0.3c-1.3,0-1.9-0.5-2-1.9
		c-0.2-2.8-0.5-5.6-0.3-8.4c0.6-8.4,3.7-15.8,9.1-22.2c3.3-3.9,6.8-7.7,10.3-11.5c3-3.3,6.1-6.6,8.7-10.3c3.5-5.1,5.3-10.7,5.5-16.8
		C278.8,106,278.8,105.7,278.9,105z"/>
	<path class="st0" d="M268.1,220c0.3,0.2,0.6,0.2,0.8,0.4c7.1,5.2,14.1,10.5,20.3,16.8c7.1,7.3,12.3,15.7,14.8,25.7
		c1.7,6.6,1.6,13.2-0.9,19.6c-1.8,4.6-4.8,8.3-9.2,10.6c-0.4,0.2-0.7,0.3-1.3,0.5c0-0.7,0-1.1,0-1.6c0.6-8.8-0.5-17.2-3.1-25.7
		c-3.6-11.4-10-21-17.8-29.9c-1.9-2.1-3.8-4.2-5.8-6.2c-0.8-0.8-1-1.4-0.6-2.5C266.3,225.2,267.2,222.6,268.1,220z"/>
	<path class="st0" d="M90.3,216c-0.2-0.6-0.4-0.9-0.4-1.2c-0.6-4.7,0.1-9.2,2.4-13.4c3.8-6.9,9.5-11.6,16.5-14.8
		c5.7-2.5,11.6-4.1,17.8-4.8c5.9-0.7,11.8-0.7,17.7-0.3c0.7,0.1,1.3,0.3,1.5,1c1.6,4.1,3.2,8.1,4.8,12.2c0,0.1,0,0.2,0,0.5
		c-0.2,0.1-0.5,0.2-0.8,0.2c-2.7,0.1-5.4,0.2-8.1,0.3c-9.1,0.3-18,1.5-26.7,4.2c-7.3,2.2-13.4,6.2-19.1,11.1
		C94.2,212.6,92.4,214.2,90.3,216z"/>
	<path class="st0" d="M209,178.8c-2.4,0.4-4.8,0.8-7.2,1.1c-12.7,1.4-24.6-1.2-36.1-6.6c-5.7-2.7-10.8-6.2-15.2-10.6
		c-0.7-0.7-1.4-1.6-2.2-2.6c1.6-0.4,2.9-0.1,4.1,0.3c2.7,0.9,5.3,1.8,8,2.8c9,3.4,17.6-3.6,19-11.1c0.6-3.4,0.4-6.7-0.4-10
		c-1.1-4.6-2.4-9.2-3.5-13.7c-0.2-0.9-0.3-1.9-0.4-3.3c1,0.6,1.2,1.3,1.5,1.9c4.6,9.1,8.6,18.6,12.2,28.2c0.7,1.9,1.4,3.8,2.1,5.7
		c2.3,5.6,5.8,10.3,10.8,13.8c1.7,1.2,3.7,2,5.5,3c0.6,0.3,1.2,0.5,1.8,0.7C209.1,178.4,209,178.6,209,178.8z"/>
	<path class="st0" d="M9.2,545.5c5.1,0,10.1,0,15.4,0c0,13.3,0,26.5,0,39.8c3.2,0,6.2,0,9.3,0c0,3.4,0,6.6,0,9.8
		c-1.3,0.3-22.3,0.4-24.5,0.1C9,593.9,8.9,548.8,9.2,545.5z"/>
	<path class="st0" d="M200.7,40.6c1.2,0.9,1.5,1.9,1.8,2.9c0.9,2.8,1.6,5.6,2.6,8.4c1.2,3.6,3.9,5.5,7.5,6.2
		c2.4,0.4,4.8-0.1,6.9-1.3c2.1-1.2,3.9-2.8,5.3-4.8c1.9-2.6,3.6-5.2,5.3-7.9c1.2-1.8,2.3-3.7,3.4-5.5c0.4-0.6,1-1.2,1.4-1.8
		c0.1,0.1,0.3,0.1,0.4,0.2c-0.2,0.6-0.4,1.1-0.6,1.7c-4.1,10-8.7,19.7-13.8,29.2c-3,5.7-4.5,11.7-4.2,18.1c0.1,1.4,0.4,2.7,0.6,4.1
		c0.1,0.7,0.3,1.4,0.3,2.1c-6.7-5.5-11.1-12.4-14-20.4C200.2,61.9,198.7,51.6,200.7,40.6z"/>
	<path class="st0" d="M218.1,6.2c0.4,0.3,0.5,0.4,0.6,0.5c5.8,8.2,9.1,17.2,8.9,27.3c-0.1,2.9-0.6,5.8-1.7,8.6c-1.6,4-4.3,7-8.1,9
		c-3.7,1.9-6.7,1.2-9.1-2.2c-3.8-5.3-4-11.5-0.5-17c0.9-1.4,1.9-2.6,2.9-3.9c3.1-3.7,5.4-7.7,6.4-12.5c0.6-2.7,0.6-5.5,0.6-8.2
		C218.1,7.4,218.1,7,218.1,6.2z"/>
	<path class="st0" d="M197.7,391c11.2,4.3,21.9,8.9,33.3,12c0,0.5,0,0.9,0,1.4c-0.2,2.1-0.3,4.3-0.5,6.4c-0.2,2.6-1.8,4.1-4.3,4.1
		c-7.4-0.1-14.8-0.3-22.3-0.5c-2.7-0.1-4.1-1.4-4.4-4.2c-0.4-4.3-0.8-8.7-1.2-13.1C198.1,395.3,197.9,393.3,197.7,391z"/>
	<path class="st0" d="M257.6,97.6c0,4.7-2.9,8-7.5,8.5c-0.9,0.1-1.5,0.4-1.7,1.3c0,0.1,0,0.1-0.1,0.2c-3.7,9.3-10.8,14.9-20.1,17.9
		c-1.3,0.4-2.7,0.6-4,0.7c-1.3,0.1-2.6-0.2-3.6-1.2c-1.7-1.8-1.2-4.2,1.1-4.9c2.8-0.9,5.8-1.5,8.7-2.3c2-0.5,4.1-1.1,6-1.8
		c4.6-1.7,7.6-5,9.7-9.3c0.5-1,0.4-1.9-0.2-2.7c-1.1-1.5-1.8-3.1-1.4-5c0.5-2.2,1.4-4.1,3.1-5.6c0.7-0.6,1.5-1.2,2.4-1.5
		c3.5-1.4,6.8,0.5,7.4,4.2C257.6,96.7,257.6,97.2,257.6,97.6z"/>
	<path class="st0" d="M230.2,93.2c-2.6-3.3-2.9-6.8-2-10.4c0.9-3.6,3.2-6.1,6.4-7.8c1.9-1,3.9-1.8,5.9-2.7c0.6-0.3,1.3-0.6,1.8-1.1
		c1.1-1,1.8-2.2,1.3-3.7c-0.5-1.6-1.6-2.6-3.3-2.6c-1.4-0.1-2.7,0.1-4.4,0.2c0.5-0.7,0.8-1.4,1.3-1.9c2.5-2.5,7.3-2.7,10.4-0.5
		c2.9,2,3.7,5.7,2.1,9.1c-0.9,1.9-2.2,3.5-3.9,4.9c-1.7,1.4-3.5,2.7-5.2,4.1c-1.7,1.3-3.3,2.5-5,3.8c-2.3,1.7-4,4-4.9,6.7
		C230.8,91.9,230.6,92.4,230.2,93.2z"/>
	<path class="st0" d="M255.3,66.3c0.6,1.1,1.2,2.2,1.8,3.3c2,3.3,4.7,5.9,7.6,8.3c2,1.8,4.1,3.5,6,5.4c1.9,1.8,3.5,3.9,4.6,6.4
		c1.2,2.7,2,5.6,1.2,8.5c-0.3,1.1-0.8,2.1-1.3,3.1c-0.5,0.9-1.4,1.6-2.5,1.7c-0.1-0.1-0.2-0.2-0.2-0.2c0.2-4.4-1.9-7.9-4.4-11.3
		c-1.5-2-3.2-3.9-4.8-5.8c-3.7-4.6-6.4-9.7-7.6-15.5c-0.3-1.3-0.5-2.6-0.7-3.9C255.1,66.3,255.2,66.3,255.3,66.3z"/>
	<path class="st0" d="M157.3,149.2c-2.2-0.1-4.1-0.6-5.7-1.6c-2.7-1.6-3.5-4.2-2.4-7.1c0.2-0.4,0.4-0.9,0.6-1.3
		c1.8-2.7,4.2-4.9,7.2-6.3c1.3-0.6,2.6-0.9,4-0.6c2.1,0.5,2.8,1.7,1.8,3.7c-0.4,0.9-1,1.7-1.6,2.6c-0.6,0.9-1.4,1.7-2,2.5
		C157.6,143.5,156.3,146,157.3,149.2z"/>
	<path class="st0" d="M245.1,137.1c0.3-2.2,0.9-3.7,1.8-5.1c1.1-1.7,2.3-3.3,3.6-4.9c1-1.3,2.1-2.5,3.1-3.7
		c2.8-3.3,4.7-6.9,4.8-11.7c0.5,0.7,0.8,1,1,1.4c1.4,2.6,2.2,5.3,2.2,8.2c0,2.9-1,5.3-3.1,7.2c-1.2,1.1-2.5,2-3.9,2.8
		C251.3,133,248,134.4,245.1,137.1z"/>
	<path class="st0" d="M212.6,109.6c3.4,0,6.1,2.8,6.1,6.4c0,3.3-2.9,6.4-6,6.4c-3.7,0-7.2-3.1-7.2-6.6
		C205.4,112.4,208.6,109.6,212.6,109.6z"/>
	<path class="st0" d="M189,68.5c-3.3,0-5.9-2.6-5.8-6c0-3.3,2.7-5.9,6-5.8c3.3,0,5.9,2.7,5.8,6C195,66.1,192.4,68.6,189,68.5z"/>
	<path class="st0" d="M162.6,155.1c0-3.2,2.8-5.9,6.2-5.9c3.2,0,5.6,2.6,5.8,5.9c0.1,3.3-3.5,5.7-6,5.8
		C165.4,160.9,162.6,158.2,162.6,155.1z"/>
	<path class="st0" d="M271.5,163.4c-3.2,0-5.9-2.7-5.9-5.8c0-3.1,2.6-5.7,5.9-5.7c3.4,0,5.9,2.4,5.9,5.6
		C277.4,161,274.9,163.5,271.5,163.4z"/>
	<path class="st0" d="M178.6,94.6c2.2,0.4,3.9,2.3,4.2,4.7c0.2,1.5-0.1,2.9-0.8,4.1c-0.5,0.8-1,1.7-1.4,2.5
		c-0.6,1.2-0.5,2.2,0.2,2.8c0.8,0.6,1.6,0.6,2.8-0.3c0.3-0.2,0.6-0.5,1.1-0.9c0,0.6,0.1,0.9,0,1.2c-0.4,1.8-2.5,3.3-4.5,3.2
		c-1.9-0.1-3.3-1.5-3.4-3.5c-0.1-1.2,0.1-2.5,0.4-3.7c0.3-1.5,0.9-3,1.3-4.5c0.5-1.6,0.7-3.3,0.1-4.9
		C178.5,95.1,178.6,94.8,178.6,94.6z"/>
	<path class="st0" d="M242.5,42.7c0.4,0,0.6,0,0.8,0c2.3,0.7,4.2,1.9,4.8,4.3c0.6,2.5-0.7,4.4-2.5,5.9c-0.8,0.7-1.8,1.2-2.8,1.6
		c-0.5,0.2-1.2,0.2-1.7,0c-1.7-0.4-2.3-1.6-1.6-3.2c0.2-0.5,0.6-1,0.9-1.5c0.4-0.5,0.8-1.1,1.1-1.6
		C242.5,46.6,243.2,44.9,242.5,42.7z"/>
	<path class="st0" d="M231.1,97.2c1.2,1,1.9,2,2.2,3.3c0.3,1.1,0.1,2.2-0.6,3.2c-1.2,1.5-4.4,2.5-6.2,1.8c-0.8-0.3-1.4-0.9-1.6-1.8
		c-0.2-0.9,0.4-1.4,1.1-1.9c0.6-0.4,1.3-0.7,1.9-1C229.4,100.2,230.7,99.2,231.1,97.2z"/>
	<path class="st0" d="M262.7,103.2c-0.1,1.6-1.3,2.8-2.9,2.8c-1.5,0-2.6-1.3-2.6-2.8c0.1-1.5,1.4-2.6,3.1-2.5
		C261.8,100.7,262.7,101.7,262.7,103.2z"/>
</g>
</svg>
