<?xml version="1.0" encoding="utf-8"?>
<!-- Generator: Adobe Illustrator 28.3.0, SVG Export Plug-In . SVG Version: 6.00 Build 0)  -->
<svg version="1.1" id="Capa_1" xmlns="http://www.w3.org/2000/svg" xmlns:xlink="http://www.w3.org/1999/xlink" x="0px" y="0px"
	 viewBox="0 0 177.4 125.4" style="enable-background:new 0 0 177.4 125.4;" xml:space="preserve">
<style type="text/css">
	.st0{fill:#FFFFFF;}
</style>
<g>
	<g transform="translate(0.000000,740.000000) scale(0.100000,-0.100000)">
		<path class="st0" d="M883.3,7212c-10.8-0.8-14.6-3-22.4-12.5c-3.8-4.5-5.2-5.4-11.2-6.5c-8.3-1.7-12.1-4-12.1-7.9
			c0-3,4.6-5.4,10.6-5.4c5.5,0,6.7-1.7,6.4-8.6c-0.2-9.5,2.1-26.3,4.2-28.6c1.9-2.3,1.1-2.7-3.1-2.3c-1,0.1-2.3-0.2-3-0.8
			c-0.8-0.7-6.2-2-12.1-3.1c-7.7-1.3-11.1-2.4-11.9-3.9c-1.8-3.2-25.8-26.1-33.8-32.3c-4-3-7.3-6.4-7.3-7.5c0-1.2-1.3-3.6-2.9-5.5
			c-5-6-9-15.4-9-21c0-3,1.3-9.3,3-14.3c3.7-11.3,14.5-34.5,19.8-42c2.1-3.1,5.5-8.9,7.4-12.9c1.9-4,5.7-9.8,8.6-12.7
			s6.2-7.6,7.6-10.4c2.4-4.5,2.4-5.1,0.6-13.5c-2.4-10.8-1.8-20.8,2.6-46.9c3.1-18,3.2-21.7,3.7-66.4l0.6-47.4l-4.6-4.4
			c-20.1-19.3-24.2-23.5-24.8-25.2c-0.7-2.3-5.8-4.8-14.5-7c-5.7-1.5-9.2-6-8.3-10.7c0.4-1.7,0.1-4.9-0.7-7
			c-1.2-3.3-1.1-4.5,0.7-7.6c3.1-5.4,2.6-13.5-1.2-21.4l-3.3-6.8l-9.8-0.1c-10.7,0-10.6,0-11.2,8.3c-0.2,2.3-0.7,4.8-1.2,5.4
			c-0.5,0.7-1.2,7.4-1.5,14.9c-0.5,7.5-1.1,15.1-1.4,17c-0.5,2.4-0.2,3.2,1.2,3.2c1.1,0,1.9,0.8,1.9,2c0,1.8,0.1,1.8,2.1,0
			c3.3-3.1,5-2.4,5.1,1.9c0,2,0.4,3.1,0.7,2.4c0.2-0.8,1.3-1.5,2.3-1.5c2.7,0,2,6-1.3,10.2c-2.5,3.2-2.6,3.7-0.7,3.2
			c1.3-0.4,2.5,0.2,2.9,1.3c0.8,1.9-2,5.5-4.3,5.5c-0.8,0-0.5,0.6,0.7,1.3c2.5,1.4,2.6,4.5,0.2,5.4c-1,0.5-1.8,1.5-1.8,2.5
			s-0.8,1.5-2,1.3s-2.7,0.4-3.5,1.3c-1.2,1.4-1.8,1.5-3.2,0.4c-1.3-1.2-2-1.1-3.2,0.4c-2.3,2.7-4.8,2.1-4.8-1c0-2.4-0.5-2.7-3.6-2.3
			c-3.2,0.5-3.6,0.1-3.6-2.5c0-1.7,1-3.7,2.1-4.3c1.8-1.2,1.8-1.2-0.5-1.3c-2.7,0-5.2-2.1-5.2-4.3c0-1.1,1.3-1.3,4.3-0.8l4.4,0.7
			l-3.2-4.6c-5-7.5-3.6-10.6,2.3-4.4c2.4,2.6,3,2.9,3,1.2c0-1.1-1.1-3.1-2.5-4.5c-3.5-3.5-0.8-11.4,2.9-8.3c1.4,1.1,1.9,0.7,2.4-2.1
			c0.4-1.9,1.5-4.3,2.6-5.2c1.4-1.4,1.8-4.8,1.8-15c0-7.4-0.5-13.3-1.2-13.8c-0.6-0.4-1.2-2.9-1.2-5.4c0-8.5,0.2-8.3-16.2-8.3h-14.6
			l-1.2,4.5c-3.5,13.7-3.9,18.6-3.6,39.3c0.4,15,1,22,2,23.1c0.7,0.7,1.4,2.6,1.4,4.2s0.7,2.9,1.8,2.9c2.9,0.2,3.5,0.5,5.1,1.4
			c2.3,1.5,1.7,6.5-1,8.2c-2.7,1.8-3.2,4.5-0.6,4.5c1,0,1.8-0.5,1.8-1.2c0-1.5,4.5-3.8,5.2-2.5c0.4,0.6-1,3.3-3,6.1l-3.7,5.1l4-0.8
			c2.3-0.4,4.4-0.4,4.9,0.1c1.2,1.1-2.7,5.1-5,5.1c-1.7,0.1-1.5,0.4,0.2,1.8c3.3,2.4,1.5,7-2.3,6.2c-2.3-0.4-3.1,0.1-3.6,2.3
			c-0.8,3.3-1.4,3.5-5,1c-1.4-1-2.6-1.2-2.6-0.6c0,0.7-0.8,1.3-1.8,1.3c-1.1,0-1.8-1.1-1.8-2.5c0-2.1-0.2-2.4-1.9-1
			c-1.5,1.3-2.3,1-4.8-1.9c-3.5-4-3.6-5.4-0.4-6.2c2.4-0.6,2.3-0.7-0.4-2c-1.7-0.8-2.9-2.6-3.1-4.8c-0.2-2.1,0-3.1,0.8-2.5
			c1.7,1,1.7-0.1,0.1-2.9c-1.7-3.2-2.6-9.6-1.3-9.6c0.6,0,1.9,1.2,3,2.7c2,2.6,2,2.5,1.3-1.8c-0.7-4.9,0.6-6.4,3.9-4.6
			c1.8,1,2.5,0.7,3.7-1.4c1.5-3,1.8-5.5,1.5-16.8c-0.2-7.1-0.5-8-2-6.7c-1.3,1.1-1.4,1.9-0.5,3.1c1.5,1.9,0.5,4-2.1,4
			c-1.7,0-1.7,0.2,0.2,2.4c2,2.3,2,2.4-1.3,3.6c-1.9,0.7-3.5,1.2-3.6,1c0-0.2-1.1,0.5-2.3,1.4c-1.4,1.2-2.4,1.3-2.6,0.5
			c-0.2-0.7-1.8-1.1-3.3-0.7c-2.1,0.4-3,0-3-1.3c0-1-1.1-2-2.5-2.4c-1.9-0.5-2.3-1.3-1.7-3.2c0.5-1.3,0.1-3.2-0.6-4.2
			c-1.8-2.1-0.4-4.5,2.4-3.8c1.9,0.5,2,0.2,1-2.3c-1.8-3.8-0.4-5,2.6-2.3c1.3,1.2,2.4,1.5,2.4,0.8s-0.5-1.7-1.2-2
			c-1.7-1.1-1.4-4.9,0.4-6.4c1.2-0.8,2-0.8,2.9,0c1,1,1.5,0.5,2.1-1.4c0.5-1.5,1.7-3.5,2.5-4.3c2.9-3,7.1-19.6,6.7-26.2l-0.5-6.3
			h-14.2h-14.2v-61.9c0-54.3,0.2-61.9,1.8-61.9c1,0,94.8,0,208.4,0s207.4,0,208.4,0c1.5,0,1.8,7.6,1.8,61.8v61.7l-3,5.2
			c-4.5,8.1-15.6,17.9-26.4,23.5c-2.7,1.3-6,3-7.1,3.7c-1.2,0.6-5.7,2.1-10,3.6c-10.4,3.1-24.5,10-29.4,14l-3.8,3.3l-14.2,77.4
			c-13.5,73.8-14,77.5-12.3,81c1,2,2.3,7.4,2.7,11.9c0.5,4.6,1.3,10,1.7,11.9c0.7,3.1,0,4.6-4,9.5c-2.6,3.2-5.1,7.4-5.6,9.4
			c-0.4,2-1.4,5.8-2.3,8.5c-0.8,2.6-2.1,12.9-3,22.6c-1.3,18.3-3.2,28.8-6.4,36.6c-1.1,2.4-2.6,8.9-3.5,14.5
			c-1.4,8.5-1.4,10.4-0.1,11.7s1,5.6-2.5,25.4c-5,28.1-7.6,37.7-12.4,44.3c-4.5,6.3-9.4,9.2-20.8,12.3c-5.1,1.3-10.8,3.2-12.7,4.2
			c-1.8,1-4,1.8-5,1.8c-2.1,0-6.8,5-6.8,7.4c0,1.1,0.8,3.9,1.9,6.4c1.4,3.3,2,8.7,2.1,18.9c0.1,13.6,0,14.5-3.2,19.9
			c-1.8,3.1-5,6.8-7.1,8.2c-2,1.4-4.8,3.7-6,4.9c-1.2,1.2-2.5,2-3,1.9C893.3,7212.8,888.6,7212.3,883.3,7212z M876.9,7209.1
			c0-0.2-2.4-2.1-5.4-4.4c-5.7-4.3-6.5-6-3.2-6.1c1.4,0,1.2-0.4-1-1.2l-3-1.3l3.6-1.5c3.6-1.7,3.5-1.7-1.8-1c-3,0.4-5.6,0.8-5.8,1.2
			c-0.8,0.6,8.3,9.9,12.4,12.4C876.4,7209.5,876.9,7209.7,876.9,7209.1z M892.9,7208.4c0.4-0.5-0.5-2-1.9-3.2c-1.3-1.3-4.5-4.9-7-8
			c-5-6.2-6.2-5.2-2.1,1.5c2.9,4.6,8.2,10.7,9.5,10.7C891.8,7209.5,892.5,7209,892.9,7208.4z M855.2,7189.7
			c-1.1-1.1-14.5-3.9-15.2-3.2c-1.5,1.4,4.6,3.9,10,3.9C853.2,7190.4,855.6,7190.1,855.2,7189.7z M867.3,7181.6
			c-0.2-0.2-3.1-0.7-6.4-1.1c-3.8-0.5-5.1-0.4-3.6,0.4C859.5,7181.9,868.3,7182.6,867.3,7181.6z M888.1,7149.7
			c-7.7-9.4-7.6-9.3-15.2-9l-7.3,0.2l6.7,0.4c6.1,0.5,7.1,1,11.8,5.7C889.6,7152.7,891.9,7154.1,888.1,7149.7z M898.9,7137.3
			c-1.3-1-3.1-2.6-3.9-3.8c-1.5-1.9-1.7-1.9-1.2,0.4c0.2,1.3,1.7,3,3.3,3.8C901.1,7139.7,901.9,7139.6,898.9,7137.3z M838.1,7132.2
			c0.4-0.5-1.2-1.9-3.5-3.2c-3.8-2-4.2-2.6-4.9-10.2c-0.8-8.2-2.4-10.7-3.1-4.9c-0.4,3.1-0.4,3.1-3.8-1.8c-4.5-6.5-5.1-5.7-1.2,1.4
			l3.2,5.7l-11.5-9c-6.4-5-11.8-9-12.1-9c-0.5,0,11.5,11.5,20.7,19.5c2.7,2.5,5.7,6,6.5,7.6c0.7,1.8,2.7,3.5,4.4,3.9
			C837.1,7133.4,837.4,7133.4,838.1,7132.2z M792.1,7080.3c4.8-9.6,4.8-10.5,0.2-4.6c-3.5,4.2-3.7,4.3-4.4,1.9
			c-0.8-3.5-2.5-3.3-3,0.1c-0.4,2.4-0.6,2.3-3.1-1.5l-2.9-4.2l0.8,3.6c0.8,3.8,6,12.5,7.5,12.5C787.8,7088,790,7084.6,792.1,7080.3z
			 M830.1,7067.9c2.1-6.9,2.1-40.4,0-45.5c-0.8-2.3-2-6.1-2.5-8.5c-0.7-3.9-1.2-4.5-4.2-4.5c-4.2,0-6.4,2.5-9.5,10.4
			c-3.1,8.1-8.1,27.6-9,36.4c-0.7,5.1-0.5,6.8,0.7,6.8c0.8,0,2.4,0.8,3.6,1.9c2,1.8,15.6,7.4,18.3,7.5
			C828.2,7072.6,829.4,7070.4,830.1,7067.9z M960.2,7053.5c-1.7-1.3-3.9-2.6-5.2-3.1c-1.7-0.6-2-1.4-1.4-4.2
			c0.4-1.9,1.1-5.2,1.4-7.3l0.8-3.9l-3.3,3l-3.3,3l0.8-4.4c0.4-2.5,1.1-6.5,1.4-8.9c1.3-7.5-0.4-3.9-3.5,7.7
			c-3.9,14.3-3.5,15.6,6.4,18.2c4.2,1.2,7.9,2,8.2,2.1C963,7055.8,961.9,7054.8,960.2,7053.5z M915.6,7050.1c3-0.6,4-1.2,3-1.7
			c-2.4-1-27.7-4.4-31.9-4.3c-2.9,0-3,0.1-0.8,1.1c1.5,0.7-1.7,1-8.9,0.6c-8.9-0.5-10.7-0.4-8.3,0.7
			C877,7050.3,904.2,7052.3,915.6,7050.1z M948.2,7024.1c1.5-9.4,4.3-19.3,8-29.1c7.4-20,8.9-27.7,8-41.1c-0.4-6-0.4-12.7,0.1-15
			c0.8-4.8,8.3-14,11.2-14c1.7,0,4.4-12,17.4-78.6c8.5-43.3,15-78.9,14.8-79.3c-0.4-0.2-1.9-0.1-3.5,0.5c-6,2.3-10,0.5-14.2-6.4
			c-3.6-6-6-7.4-6-3.3c0,3.9-4.8,0.6-8-5.6c-3.1-5.8-8.7-12.1-12.7-14.2c-1.9-1-4.3-3.5-5.2-5.6c-2-4.3-5-5.2-5-1.8
			c0,5.8-5.5,2.5-6.7-4c-0.4-2.3-1.2-4.4-1.8-4.8c-0.6-0.4-1.1-2.3-1.1-4.3c0-5.2-3-8.1-8.6-8.1c-4.3,0-4.5,0.2-4.5,3.6
			c0,2.1-2.1,7.1-5.4,12.4c-3,4.9-5.4,9.2-5.4,9.6c0,0.4-1.8,2.5-3.8,4.6c-3.9,3.8-9.3,6.3-9.3,4.2c0-0.6-1.2-1.7-2.7-2.4
			c-4.4-2-6.9-10-5.7-17.7c2.3-13.9-1.9-20-4.5-6.7c-1.2,6.1-2.1,8.1-5.1,10.2c-3.9,3-5.7,1.9-5.7-3.2c0-3.8-1.4-3.5-4,1
			c-1.9,3.2-2,4.5-0.8,10.6c1.1,5,1.1,12.3,0.1,27c-0.6,11-1.5,21.1-1.9,22.5c-0.5,1.8,0.7,4,4.2,8c2.6,3.1,5.6,7.1,6.8,9
			c1.1,1.8,3.5,4.3,5.2,5.4c1.8,1.1,3.7,3.3,4.2,5.1c0.5,1.9,1.8,4.3,3.1,5.5c1.2,1.2,2.3,3,2.3,4.2c0,1.1,1.9,5.7,4.2,10.1
			c4.3,8.5,14.6,39.5,17.7,53.2c1,4.3,2.3,13.3,3,20.2c0.7,6.9,2.4,16.5,3.7,21.4c2.6,10.1,3.5,37.3,1.1,38.8
			c-1.8,1.1-0.5,6.8,2.4,11c1.8,2.5,2.4,6,2.9,16c0.6,13.8,6.8,49.4,8.2,46.9C945.5,7039.1,946.9,7032.1,948.2,7024.1z
			 M831.7,6987.9c0-0.7-0.5-0.8-1.2-0.5c-0.6,0.4-1.2,1.3-1.2,1.9c0,0.7,0.6,0.8,1.2,0.5C831.2,6989.4,831.7,6988.5,831.7,6987.9z
			 M826.9,6981.1c0-1.8-0.2-1.8-1.2-0.2c-1.5,2.4-1.5,3.9,0,3C826.4,6983.5,826.9,6982.2,826.9,6981.1z M707.5,6740.3
			c-0.1-7.1-0.6-13-1-13s-2.3,4.4-4.4,9.6c-3.1,8.2-3.3,10-2,11.3c0.8,1,2.5,1.3,3.7,0.8c1.7-0.6,1.9-0.2,1.4,2.3
			c-0.4,2.1-0.1,3,1,2.5C707.2,6753.5,707.6,6749.8,707.5,6740.3z M840.1,6728.8c2.1-4.3,4-10.5,4.4-13.7l0.6-5.7H827
			c-14.6,0-18,0.4-18,1.7c0,1.1,0.8,1.4,2.5,1.1c2.5-0.7,2.5-0.4,2,7.3c-0.4,6.4-0.1,7.9,1.2,7.3c1-0.4,3.7-1,6.1-1.3
			c4.3-0.7,4.8-0.4,9.5,5.4c2.9,3.3,5.2,6.1,5.5,6.1S838,6733.2,840.1,6728.8z M812.3,6717.5c-0.4-0.8-0.6-0.2-0.6,1.4
			s0.2,2.3,0.6,1.5C812.5,6719.7,812.5,6718.2,812.3,6717.5z M963.2,6717.8c0.5-0.7,0.5-2.9,0-4.8c-0.7-3.3-1.2-3.6-6.1-3.6
			c-4.4,0-5.2,0.4-5.2,2.4C951.9,6716.8,961,6721.4,963.2,6717.8z M807.4,6709.7c-1.4-1.3-2,0.8-1.1,4l1,3.5l0.4-3.3
			C807.8,6711.9,807.7,6710.1,807.4,6709.7z M875.4,6688.1c11.5-5.2,13-24.1,2.6-32.9c-2.7-2.3-5-3-9.2-3
			c-11.3,0-17.6,7.7-16.7,20.4c0.6,8.1,3.2,12.5,9.4,15.6C866.7,6691,869.2,6690.8,875.4,6688.1z M1022.2,6687
			c7-5.1,9.2-16.8,4.8-25.8c-2.9-6-7.7-8.9-14.6-8.9c-13,0-20.2,15-13.8,28.3C1002.9,6689.7,1014.3,6692.7,1022.2,6687z
			 M848.3,6684.4c0-5.6-3.2-6.9-3.8-1.4c-0.4,2.9-0.8,3.2-4.5,3.2h-4.2l-0.4-15l-0.4-15.1l3.1-0.7c5.6-1.4,3-3.1-4.8-3.1
			c-7.5,0-10.1,1.4-5.4,3c2.3,0.7,2.4,1.8,2.4,16.2v15.4h-3.7c-2.9,0-3.8-0.7-4.8-3.6c-1.8-5-3.5-4.4-3.5,1.2v4.8h14.9h14.9V6684.4z
			 M913.9,6686c3.8-3.8,3.6-9.5-0.6-13.1c-3.1-2.6-3.2-3.1-1.5-4.9c1-1.1,2.4-4.3,3.1-7c0.8-3.2,2.3-5.2,3.7-5.7
			c3.8-1.2,2.7-3-1.8-3c-4.6,0-5.4,1.1-7.7,10.5c-1,3.8-2.1,5.4-4.4,6.3c-5.1,1.9-6.3,0.6-6.3-6.5c0-5.8,0.2-6.4,3-7.1
			c5.6-1.4,3-3.1-4.8-3.1c-7.5,0-10.1,1.4-5.4,3c2.3,0.7,2.4,1.8,2.4,16.2c0,14.5-0.1,15.4-2.4,15.4c-1.3,0-2.4,0.6-2.4,1.3
			c0,0.8,3.7,1.2,11.3,0.8C909.8,6688.6,911.8,6688.2,913.9,6686z M941.8,6676l9.5-13.2l0.4,10.5c0.4,12,0,13.6-3.3,13.6
			c-1.3,0-2.4,0.6-2.4,1.2c0,0.7,3,1.2,6.5,1.2c6.4,0,8.8-1.5,4.2-2.7c-2.3-0.6-2.4-1.7-2.4-17.4c0-9.3-0.4-16.8-1-16.8
			c-0.5,0-5.4,6.2-10.8,13.7c-5.5,7.5-10.4,14-11,14.4c-0.6,0.4-1.1-5-1.1-11.9c0-11.9,0.1-12.5,2.6-12.9c1.4-0.2,2.7-1.1,3.1-1.8
			c0.4-1.1-1.4-1.5-6.2-1.5c-6.7,0-8.8,1.5-4.3,3c2.3,0.7,2.4,1.8,2.4,16.2c0,14.5-0.1,15.4-2.4,15.4c-1.3,0-2.4,0.6-2.4,1.2
			c0,0.7,2,1.2,4.5,1.2C932.1,6689.2,932.6,6688.7,941.8,6676z M990,6684.4c0-5.6-1.7-6.2-3.5-1.2c-1.1,3.3-1.5,3.6-7.1,3.6h-6.1
			v-7.1v-7.1h4.2c3.3,0,4.2,0.5,4.2,2.4c0,1.3,0.6,2.4,1.2,2.4c0.7,0,1.2-2.6,1.2-6c0-3.2-0.5-6-1.2-6c-0.6,0-1.2,1.1-1.2,2.4
			c0,1.9-0.8,2.4-4.2,2.4h-4.2v-7.1v-7.1h7c6.8,0,7,0.1,7.7,3.6c1.1,5.5,3.1,4.3,3.1-1.8v-5.4h-14.3c-8.6,0-14.3,0.5-14.3,1.2
			c0,0.6,1.3,1.4,3,1.9l3.1,0.7l-0.4,15.1c-0.4,14.5-0.5,15-3,15.4c-1.5,0.2-2.7,1-2.7,1.5s6.1,1.1,13.7,1.1H990V6684.4z
			 M732.8,6672v-15.8l3.6-0.7c7-1.4,3.7-3.2-6-3.2s-13,1.8-6,3.2l3.6,0.7v13.5v13.6h-3.6c-4.8,0-4.5,2,0.4,3.5
			C733.2,6689.1,732.8,6689.7,732.8,6672z M765.9,6675.4c1.4-1.7,2.6-4.5,2.6-6.5v-3.5h-8.9c-9.9,0-10.8-0.8-6.4-6.4
			c2.9-3.7,8.6-4.2,12-1.1c1.2,1.1,2.5,1.5,3.1,1.1c0.5-0.5-0.7-2.3-2.5-3.8c-7.4-6.4-18.2-2.3-19.5,7.5
			C744.5,6676.1,757.7,6684.7,765.9,6675.4z M781.7,6675.8c0-2.4,0.1-2.3,3,0.7c1.5,1.7,3.6,3.1,4.4,3.1c2.9,0,4.9-2.1,4-4.2
			c-0.6-1.5-1.7-1.9-4.3-1.3c-3.1,0.6-3.8,0.1-5.4-2.9c-1-1.9-1.8-6.1-1.8-9.4c0-4.9,0.5-6.1,2.4-6.7c4.5-1.4,2.4-3-4.2-3
			c-6.2,0-8.6,1.3-4.9,2.7c3.8,1.4,3.8,18.7,0,18.7c-2.7,0-1.9,2.1,1.5,4C780.5,6679.8,781.7,6679.3,781.7,6675.8z M800.1,6655.8
			c0-2.1-0.7-3.1-2.7-3.3c-1.5-0.2-3,0.4-3.3,1.4c-1.2,3.1,0.5,5.7,3.3,5.2C799.4,6658.9,800.1,6658,800.1,6655.8z M884.4,6637.9
			c4-1.1,4.4-1.5,4.4-5.2c0-5.2-2.5-5.5-4.4-0.6c-1.2,3.1-1.9,3.6-6,3.6c-5.6,0-9.6-2.6-11.8-7.9c-4.8-11.2,1.3-24.3,11.3-24.3
			c5,0,6.1,1.2,6.1,7.3c0,5.5-0.2,5.8-3,5.8c-1.7,0-3,0.6-3,1.2c0,0.7,3.2,1.2,7.1,1.2c7.6,0,8.2-0.4,5.4-3.1
			c-1.1-1.1-1.8-4-1.8-7.1c0-4.6-0.4-5.5-3.1-6.4c-1.7-0.7-5.6-1.2-8.7-1.2c-13.5,0-21.8,13.7-16.3,26.7
			C864.5,6636.9,873.7,6640.8,884.4,6637.9z M920.4,6636.8c6.4-3.1,9.2-8,9.3-16.4c0.1-11.7-6.3-19.3-16.2-19.3
			c-10.4,0-16.3,6.8-16.3,18.6c0,8.6,3.1,14.2,9.5,17.4C912,6639.8,914.3,6639.8,920.4,6636.8z M801.4,6636.1
			c7.7-3.7,11.2-16.9,6.5-25.5c-3.5-6.4-8.5-8.7-20.6-9.3c-7.7-0.4-10.5-0.1-10.5,1c0,0.7,1.1,1.7,2.4,2c2.3,0.6,2.4,1.7,2.4,15.5
			s-0.1,14.9-2.4,15.5c-5.5,1.4-1.7,2.7,7.9,2.7C794,6638,798.7,6637.4,801.4,6636.1z M840.5,6636.1c0.4-1.1,0.7-3.2,0.7-4.8
			c0-4.2-3.2-3.6-4.2,0.7c-0.8,3.6-1,3.7-6.9,3.3l-6.2-0.4l-0.4-6.8l-0.4-6.9h4.3c3.3,0,4.2,0.5,4.2,2.4c0,1.3,0.8,2.4,1.8,2.4
			c1.3,0,1.8-1.4,1.8-6s-0.5-6-1.8-6c-1,0-1.8,1.1-1.8,2.4c0,1.9-0.8,2.4-4.2,2.4h-4.2v-7.1v-7.1h7c6.9,0,7.1,0.1,7.9,3.6
			c1.1,5.1,4.8,4.9,3.7-0.1c-0.4-2-0.7-4.5-0.7-5.4c0-1.3-2.9-1.7-13.7-1.7c-9.2,0-13.7,0.5-13.7,1.3c0,0.7,1.1,1.5,2.4,1.9
			c2.3,0.6,2.4,1.7,2.4,15.5s-0.1,14.9-2.4,15.5c-6,1.5-1.3,2.7,10.6,2.7C837.5,6638,839.9,6637.6,840.5,6636.1z M948.3,6636.9
			c0-0.6-1.1-1.3-2.4-1.7c-2.3-0.6-2.4-1.7-2.4-15.6v-15h6.4c6.1,0,6.4,0.1,7.1,3.6c0.4,2.1,1.4,3.6,2.5,3.6c1.9,0,2.1-1.3,1.1-7
			l-0.7-3.7h-13c-8.6,0-13,0.5-13,1.3c0,0.7,1.1,1.5,2.4,1.9c2.3,0.6,2.4,1.7,2.4,15.5s-0.1,14.9-2.4,15.5c-4.8,1.3-2.1,2.7,4.8,2.7
			C945.1,6638,948.3,6637.5,948.3,6636.9z M992.4,6633.2c0-5.8-2.9-6.5-4-1.1c-0.7,3.5-0.8,3.6-6.9,3.2l-6.3-0.4v-6.5v-6.5l3.9-0.4
			c3.2-0.4,4.2,0.1,4.6,2c1.2,4.8,2.7,2.5,2.7-4c0-6.4-1.8-9.2-2.6-3.8c-0.2,2.1-1.1,2.6-4.5,2.6h-4.2l-0.4-6.7
			c-0.4-6.3-0.1-6.8,2.7-7.5c5.6-1.4,3-3.1-4.8-3.1c-7.5,0-10.1,1.4-5.4,3c2.3,0.7,2.4,1.8,2.4,16.2c0,14.5-0.1,15.4-2.4,15.4
			c-1.3,0-2.4,0.6-2.4,1.2c0,0.7,5.4,1.2,13.7,1.2h13.7V6633.2z"/>
		<path class="st0" d="M862.4,6684.8c-3.3-3.9-4.5-7.3-4.5-13.5c0-14.4,8.7-21.3,16.7-13.3c6.1,6.1,6,20.5-0.1,26.6
			C871.5,6687.4,864.9,6687.5,862.4,6684.8z"/>
		<path class="st0" d="M1006.1,6683.7c-5.6-6.1-5.4-19.8,0.6-25.7c3.7-3.7,5.5-4,10-2c6.1,2.9,8.7,15.5,5,24.3
			C1018.7,6687.4,1011.1,6689.1,1006.1,6683.7z"/>
		<path class="st0" d="M899.2,6686c-0.5-0.4-0.8-3.6-0.8-7.1v-6.3h4.5c7.9,0,11.8,8.3,6,12.4C906.1,6686.8,900.6,6687.4,899.2,6686z
			"/>
		<path class="st0" d="M755.7,6676c-2.9-1.1-5.4-5.8-3.8-7.4c0.5-0.6,3.2-0.8,6.1-0.6c4.6,0.4,5.2,0.7,5.2,3.2
			C763.2,6674.9,759.3,6677.4,755.7,6676z"/>
		<path class="st0" d="M906.9,6632.9c-6.4-6.8-5.1-24.3,2.1-28.2c8.5-4.5,17,6.4,14.9,19.3C922.1,6634.2,912.7,6639.1,906.9,6632.9z
			"/>
		<path class="st0" d="M786.4,6620.1v-15.5h5.1c8,0,12.7,5.6,12.7,15.2c0,9.2-5.7,15.7-13.9,15.7h-3.9V6620.1z"/>
		<path class="st0" d="M786.1,6578.6c-5.5-1.2-10-4.3-13.7-9.6c-3.8-5.7-5.2-12-4.9-22.9l0.2-9.6l-7.1-2.6c-9.4-3.3-17.3-8-21-12.4
			l-2.9-3.5l-0.8,9.4c-1.4,16.9-8,28.9-19,34.8c-4.3,2.1-7.4,2.6-23.6,3c-10.4,0.2-18.8,0-18.8-0.6c0-0.5,1.1-1.7,2.4-2.5
			c2.3-1.4,2.4-2.7,2.4-40.7c0-38-0.1-39.3-2.4-40.7c-1.3-0.8-2.4-1.9-2.4-2.4c0-1.8,33.9-1.1,39.2,0.8c6.5,2.3,12.4,6.8,15,11.8
			l2.3,4.2l3.5-7.1c3.8-8,8.8-12,18.2-14.9c7.9-2.4,23.5-2.1,31.1,0.6l6.2,2.1l4.5-5.6c5.8-7.1,13.3-13.2,19.6-15.7
			c7.1-2.9,18.5-2.7,23.2,0.2c4.4,2.6,8.1,7.6,6.9,9.5c-1.4,2.3-3.6,1.2-5.4-2.7c-3.7-7.9-12.6-8.6-21.7-1.7c-5,3.8-16.3,19-16.4,22
			c0,0.8,1.5,3.6,3.6,6c1.9,2.4,5,7.6,6.8,11.5c2.9,6.1,3.3,8.7,3.3,17.4v10.2l4.5,2.6l4.4,2.6v-25.8c0-24.6-0.1-25.7-2.4-26.3
			c-6.8-1.8-0.1-2.7,19-2.7c22.9,0,27.3,0.8,33.2,6.3c6.9,6.4,9.3,19.6,5,28.8c-2.4,5.4-8.3,11-12.7,12c-3.7,1-3.6,1.8,0.7,4.3
			c8.3,4.8,11.3,18.9,5.6,27.1c-5.2,8-8.5,8.9-32,9.3c-11.7,0.2-21.2,0-21.2-0.6c0-0.5,1.1-1.7,2.4-2.5c2.1-1.3,2.5-2.5,2.1-10
			l-0.4-8.6l-5.8-4.4c-3.2-2.4-11.7-7.1-18.8-10.5c-14.5-6.7-13.8-6.9-15.7,3.7l-0.8,4.3l6.3,2c16.5,5.5,23.6,12.6,23.6,24.2
			C811.4,6574,799.9,6581.3,786.1,6578.6z M795.3,6575.4c5.5-2.1,7-14.4,2.7-22c-2.6-4.8-9.3-10-14.5-11.3c-2.6-0.6-3-0.2-3.7,3.6
			c-0.5,2.3-0.6,8.6-0.4,13.9c0.4,9.2,0.6,9.8,4.3,13.1C787.5,6575.9,791.3,6576.9,795.3,6575.4z M705.7,6561.9
			c9.4-3.6,15.1-16.5,16.1-36.4c1-21.4-4-38-13.1-43.6c-5.2-3.1-14.5-3.1-16.3,0c-0.7,1.5-1.2,16.9-1.2,41.7v39.4h5.8
			C700.2,6563,704.1,6562.5,705.7,6561.9z M855.9,6559.4c5.7-6.8,6.7-18,2.4-26.4c-2.7-5.2-6.2-6.9-14.4-6.9h-7.5v18.5v18.5h8.2
			C852.4,6563,853.1,6562.7,855.9,6559.4z M770.8,6521.9l1.5-7.1l-4.2-6.2c-5.4-7.9-6.2-13-3.8-21.3c2.4-8.5,4.8-8,4.3,0.8
			c-0.2,5.1,0.4,7.3,2.5,10.5c2.9,4.3,5.7,6.1,5.7,3.7c0-0.7,2.3-6,5-11.7c2.9-5.7,5.2-10.7,5.5-11.2c0.6-1.3-7.6-4.4-13.9-5.2
			c-7.1-1-17.6,1.9-21.2,5.7c-8.3,8.9-8.2,26.4,0.1,39.2c3.8,5.6,15.1,13.7,16.3,11.4C769,6529.8,770.1,6525.8,770.8,6521.9z
			 M860.2,6520.5c8.1-9,8-28.7-0.1-37.4c-3.2-3.5-3.6-3.6-13.2-3.2l-9.9,0.4l-0.4,22.5l-0.2,22.4l10.2-0.4
			C856.4,6524.3,857,6524.2,860.2,6520.5z M811.2,6514.5c-0.6-9.8-3.6-17.3-9.6-24.8l-2.9-3.5l-2.5,4.6c-4.8,9.5-8.6,21.9-7,22.9
			c3.5,2.3,19.4,9.8,21,9.8C811.4,6523.7,811.7,6521.8,811.2,6514.5z"/>
		<path class="st0" d="M1251.5,6565c-1.4-1.1-2-2.7-1.7-5c0.2-2.9,1-3.7,3.7-3.9c6-0.7,8.9,4.5,4.9,8.6
			C1256.1,6566.9,1254.2,6567,1251.5,6565z M1254.9,6557.6c0.6,0,1.5,1.7,1.9,3.6c0.6,3,0.8,3.2,1.7,1.4c1.1-2.5-1.2-5.6-4.4-5.6
			c-2.6,0-3.9,2.7-2.6,5.7c0.7,1.7,1,1.3,1.5-1.5C1253.4,6559.3,1254.3,6557.6,1254.9,6557.6z"/>
		<path class="st0" d="M513.8,6564.4c0-0.5,1.1-1.5,2.4-2.4c2.3-1.4,2.4-2.7,2.4-40.7c0-38-0.1-39.3-2.4-40.7
			c-1.3-0.8-2.4-1.9-2.4-2.4c0-0.6,12.3-1,27.4-1h27.4l0.5,2.7c1.1,4.9,1.5,19.9,0.7,19.9c-0.5,0-1.4-2.1-2.3-4.8
			c-1.7-5.5-6.2-11.3-11-13.7c-2.1-1.2-6.9-1.8-13.5-1.8c-8.8,0-10.4,0.4-11.4,2.3c-0.7,1.4-1.2,16.1-1.2,39.4v37l3,3
			c1.7,1.7,3,3.2,3,3.5c0,0.4-5.1,0.6-11.3,0.6C518.9,6565.4,513.8,6565,513.8,6564.4z"/>
		<path class="st0" d="M568.5,6565c0-0.2-4.5-15.7-10.1-34.3c-8.7-29.1-10.6-34.2-13.5-36.4l-3.2-2.7h6.4c6.4,0,6.4,0,4.3,2.4
			c-2,2.3-2,2.9-0.5,8.1l1.8,5.6l14.4,0.4l14.5,0.4l3.8-12.3c2-6.8,3.9-12.6,4.2-13.1c0.2-0.4-0.4-1.5-1.3-2.5
			c-1-1.1-1.8-2.1-1.8-2.5c0-0.4,5.1-0.7,11.3-0.7c6.8,0,11.3,0.5,11.3,1.2s-0.7,1.2-1.5,1.2c-1,0-2.5,1-3.6,2.1
			c-1,1.1-7.3,20.4-14,42.9l-12.1,40.7h-5.1C570.9,6565.4,568.5,6565.1,568.5,6565z M575.4,6533.2c3.5-11.4,6.2-21.5,6.2-22.3
			c0-1.2-3.5-1.5-13-1.5c-7.3,0-13.3,0.4-13.6,1c-0.7,1.3,12.7,45.5,13.6,44.5C569,6554.4,572.1,6544.6,575.4,6533.2z"/>
		<path class="st0" d="M613.8,6564.4c0-0.5,1.1-1.5,2.4-2.4c2.3-1.4,2.4-2.7,2.4-40.7c0-38-0.1-39.3-2.4-40.7
			c-3.8-2.4-2.9-3.3,3.6-3.3c6.5,0,7.1,0.5,3.6,3.3c-2.4,1.9-2.4,3.1-2.1,37.4l0.4,35.5l16.9-37.9l16.9-37.7l4.9-0.4l4.8-0.4v41.1
			c0,39.6,0.1,41.3,2.4,43.6c1.3,1.3,2.4,2.6,2.4,3c0,0.4-2.6,0.6-6,0.6c-3.2,0-6-0.2-6-0.6c0-0.2,1.3-1.8,3-3.5l3-3v-32.9
			c0-18.1-0.5-32.6-1.1-32.3c-0.5,0.4-8.1,16.8-16.9,36.4l-16,35.7h-8C617.3,6565.4,613.8,6565,613.8,6564.4z"/>
		<path class="st0" d="M884,6564.4c0-0.5,1.1-1.5,2.3-2.3c2.1-1.4,2.4-3.3,2.7-34.5c0.4-28.8,0.6-33.6,2.4-36.9
			c8-14.4,33.8-18,44.6-6.2c5.8,6.4,6.3,9.5,6.3,43.9c0,30.8,0.1,32.1,2.4,33.6c3.8,2.4,2.9,3.3-3.6,3.3c-3.2,0-6-0.2-6-0.6
			c0-0.2,1.3-1.8,3-3.5l3-3v-27.3c0-15-0.5-30.2-1.2-33.7c-2.7-14.9-19.9-21.6-31.1-12.1c-6.7,5.7-7,7.9-7,43.2
			c0,30.8,0.1,32.1,2.4,33.6c1.3,0.8,2.4,1.9,2.4,2.4c0,0.6-5.1,1-11.3,1S884,6565,884,6564.4z"/>
		<path class="st0" d="M950.7,6564.2c0-0.6,0.5-1.2,1.1-1.2c0.6,0,2-0.8,3-1.9c1.7-1.5,1.9-6.8,1.9-39.3c0-37.6-0.5-42.1-4.2-42.1
			c-1,0-1.8-0.5-1.8-1.2s4.5-1.2,11.3-1.2c6.2,0,11.3,0.4,11.3,1c0,0.5-1.1,1.5-2.4,2.4c-2.3,1.4-2.4,2.7-2.4,40.7
			c0,38,0.1,39.3,2.4,40.7c1.3,0.8,2.4,1.9,2.4,2.4c0,0.6-5.1,1-11.3,1C955.2,6565.4,950.7,6564.9,950.7,6564.2z"/>
		<path class="st0" d="M978.1,6564.4c0-0.5,1.1-1.5,2.4-2.4c2.3-1.4,2.4-2.7,2.4-40.7c0-38-0.1-39.3-2.4-40.7
			c-1.3-0.8-2.4-1.9-2.4-2.4c0-0.6,12-1,26.7-1h26.6l1,10.8c0.7,10.4,0.2,14.5-1.3,9.9c-2.3-7.3-5-11.8-8.7-14.5
			c-3.6-2.7-5.5-3.2-14.3-3.7c-8.7-0.4-10.4-0.1-11.7,1.8c-1.2,1.7-1.5,10.5-1.5,39.9c0,32.7,0.2,38.1,1.9,39.6c1,1.1,2.4,1.9,3,1.9
			c0.6,0,1.1,0.6,1.1,1.2c0,0.7-4.5,1.2-11.3,1.2C983.2,6565.4,978.1,6565,978.1,6564.4z"/>
		<path class="st0" d="M1035.3,6564.5c0-0.5,1.1-1.7,2.4-2.5c2.3-1.4,2.4-2.7,2.4-40.7c0-38-0.1-39.3-2.4-40.7
			c-1.3-0.8-2.4-1.9-2.4-2.4c0-0.6,7.7-1,17.1-1c18.6,0,23.8,1.1,31,6.5c16.4,12.5,18.5,54.4,3.3,71.1c-7.7,8.6-11.4,9.8-32.6,10.2
			C1043.7,6565.4,1035.3,6565.1,1035.3,6564.5z M1066.4,6561.9c9.4-3.6,15.1-16.5,16.1-36.4c1-21.4-4-38-13.1-43.6
			c-5.2-3.1-14.5-3.1-16.3,0c-0.7,1.5-1.2,16.9-1.2,41.7v39.4h5.8C1061,6563,1064.9,6562.5,1066.4,6561.9z"/>
		<path class="st0" d="M1101.9,6564.4c0-0.5,1.1-1.5,2.4-2.4c2.3-1.4,2.4-2.7,2.4-40.7c0-38-0.1-39.3-2.4-40.7
			c-1.3-0.8-2.4-1.9-2.4-2.4c0-0.6,5.1-1,11.3-1c6.8,0,11.3,0.5,11.3,1.2s-0.8,1.2-1.8,1.2s-2.3,1.1-3,2.3
			c-1.3,2.5-1.7,72.4-0.5,77.2c0.4,1.4,1.8,3,3,3.3c5.4,1.8,1.4,3-9,3C1107,6565.4,1101.9,6565,1101.9,6564.4z"/>
		<path class="st0" d="M1128.1,6564.2c0-0.6,0.5-1.2,1.1-1.2c0.6,0,2-0.8,3-1.9c1.7-1.5,1.9-6.8,1.9-39.3c0-37.6-0.5-42.1-4.2-42.1
			c-1,0-1.8-0.5-1.8-1.2c0-0.6,2.7-1.2,6-1.2c6.4,0,7.4,1,3.6,3.3c-2.3,1.4-2.4,2.7-2.4,37.5c0,23.3,0.5,35.4,1.2,34.2
			c0.6-1,8.5-18.2,17.5-38.3l16.3-36.7h4.5h4.5v39.6c0,21.7,0.4,40.7,0.7,42.1c0.4,1.4,1.8,3,3,3.3c4.4,1.4,2.1,3-4.3,3
			c-3.6,0-6.5-0.5-6.5-1.2c0-0.6,0.8-1.2,1.8-1.2c1,0,2.3-1.1,3-2.3c1.4-2.9,1.7-69.1,0.2-67.3c-0.6,0.6-7.3,15.1-15,32.4
			c-7.6,17.3-14.8,33.2-15.8,35.5c-2,4-2,4-10.1,4C1131.6,6565.4,1128.1,6564.9,1128.1,6564.2z"/>
		<path class="st0" d="M1215.9,6564.2c-6.1-1.5-12.7-5.1-16-8.6c-7.6-8.2-11.4-25.4-9.6-43.6c1.4-15.1,7.7-26.2,17.9-31.3
			c6.1-3.1,18.2-4.2,24.2-2.3c3.5,1.2,4.8,1.2,5.1,0.1c0.5-1.4,16.9-1.9,16.9-0.4c0,0.5-1.1,1.5-2.4,2.4c-2.3,1.3-2.4,2.7-2.4,19.3
			c0,16.5,0.1,18,2.4,19.3c1.3,0.8,2.4,1.9,2.4,2.4c0,0.6-5.1,1-11.3,1c-6.8,0-11.3-0.5-11.3-1.2c0-0.6,0.5-1.2,1.1-1.2s2-0.8,3-1.9
			c1.5-1.4,1.9-4.9,1.9-18.2c0-18.8-0.1-19.2-9.4-20.1c-15-1.4-24.2,13.6-24.4,39.6c-0.2,25.5,7.4,41.3,20.6,43.1
			c9,1.2,17.6-5.7,18.8-15.1c1.2-8.7,2.7-4.9,2.7,6.5c0,6.2-0.4,11.3-0.7,11.3s-1.7-1.2-2.7-2.5c-1.9-2.4-2.3-2.5-5.7-0.6
			C1232.1,6564.6,1221.7,6565.6,1215.9,6564.2z"/>
		<path class="st0" d="M675.9,6416.3l0.4-48l3.3-6.3c4.3-8.1,11.2-14.8,19.6-18.9l6.8-3.3l70.6-0.4l70.5-0.4v4.8v4.8l-68.7,0.4
			l-68.8,0.4l-5.6,2.7c-3,1.5-7.6,5.1-10.4,8c-8.1,8.8-8.5,11.5-8.5,61v43.2h-4.8h-4.9L675.9,6416.3z"/>
		<path class="st0" d="M1086.4,6420.9c0-49.4-0.4-52.1-8.5-61c-2.7-2.9-7.4-6.4-10.4-8l-5.6-2.7l-69.3-0.4l-69.4-0.4v-4.8v-4.8
			l71.2,0.4l71.1,0.4l6.8,3.3c8.5,4.2,15.4,10.8,19.6,18.9l3.3,6.3l0.4,48l0.4,47.9h-4.9h-4.8V6420.9z"/>
		<path class="st0" d="M759.4,6435.1c-2.9-2.5-3.1-3.2-2.1-6.2c0.8-2.4,3-4.3,6.9-6.3c5.6-2.7,7-5.4,4.2-8.2c-2.4-2.4-7.9-1.8-8.7,1
			c-1.1,3.3-3,3-3-0.5c0-3.2,1.9-4.3,7.9-4.3c9,0,11.7,9,4,13.9c-8.6,5.5-9,6-7.6,8.3c1.9,3.2,7.1,3.5,8,0.5
			c0.8-3.5,3.2-3.1,3.2,0.4c0,1.9-0.8,3.1-2.6,3.6C764.7,6438.4,762.8,6438.1,759.4,6435.1z"/>
		<path class="st0" d="M854.8,6433.9c-3.3-3.3-4-5-4-8.9c0-8.6,4.9-14.4,11.9-14.4c11.1,0,16,16.3,7.1,24.2
			C864.6,6439.3,859.9,6439,854.8,6433.9z M867.4,6433.2c3-3,3.3-13.6,0.5-17.6c-2-3-7.7-3.6-9.9-1c-2.6,3.2-3.7,9.3-2.5,14
			C857.4,6435.6,862.9,6437.7,867.4,6433.2z"/>
		<path class="st0" d="M980.5,6434.7c-6.8-6.1-6-18.7,1.3-22.4c9-4.8,17.7,1.2,17.7,12C999.5,6435.9,988.5,6441.9,980.5,6434.7z
			 M991.2,6434.4c3.1-1.7,5-9.2,3.6-14.2c-1.5-5.5-3.3-7.3-7.3-7.3c-5.1,0-7.5,4.4-6.8,12.7C981.4,6434.4,985.2,6437.6,991.2,6434.4
			z"/>
		<path class="st0" d="M1054.5,6436.5c-6.3-3.1-4-10.8,4.4-14.6c5-2.1,6.2-4.8,3.5-7.5c-2.4-2.4-7.9-1.8-8.7,1c-1.1,3.3-3,3-3-0.5
			c0-3.2,1.9-4.3,7.9-4.3c4.8,0,8.8,3.5,8.8,7.5c0,3.1-2.4,5.6-7.6,8.1c-4.8,2.3-6.4,5.1-4.4,7.5c2.4,2.9,7.3,2.5,7.3-0.5
			c0-1.3,0.8-2.4,1.8-2.4c2.6,0,2.1,4.4-0.5,6C1061.1,6438.3,1058.1,6438.2,1054.5,6436.5z"/>
		<path class="st0" d="M708.2,6435.9c1.8-0.5,2-2,2-11.8c0-9.2-0.4-11.2-1.8-11.2c-1,0-1.8-0.5-1.8-1.2c0-0.6,2-1.2,4.5-1.2
			c13.9,0,19.3,3.8,19.3,13.7c0,4.9-0.6,6.8-3,9.4c-2.6,2.9-3.6,3.1-12.1,3C710.2,6436.5,707,6436.3,708.2,6435.9z M720.7,6434.9
			c5.4-1.5,7.7-10.6,4.4-17c-1.8-3.7-3.9-4.9-8.5-4.9c-2.9,0-2.9,0.2-2.9,10.5C713.8,6436.1,714,6436.5,720.7,6434.9z"/>
		<path class="st0" d="M734.1,6435.9c2.5-0.6,3.5-3.9,3.5-11.7c0-7.6-1.1-11.3-3.1-11.3c-1,0-1.7-0.5-1.7-1.2s4.2-1.2,10.1-1.2h10.1
			v3.6c0,2-0.5,3.6-1.2,3.6c-0.6,0-1.2-1.1-1.2-2.5c0-2.1-0.6-2.4-5-2c-5.1,0.4-5.1,0.4-5.1,5.1c0,3.7,0.5,4.9,2.1,5.1
			c1.2,0.2,3-0.6,3.8-1.8c1.5-1.9,1.7-1.7,1.7,2.6s-0.1,4.5-1.7,2.6c-0.8-1.2-2.6-2-3.8-1.8c-1.7,0.2-2.1,1.4-2.1,5.1
			c0,4.6,0.1,4.8,4.4,5.1c3.5,0.4,4.5-0.1,5.1-2c1.1-3.5,3-3.1,3,0.5c0,3-0.1,3-10.4,2.9C736.9,6436.5,733.1,6436.3,734.1,6435.9z"
			/>
		<path class="st0" d="M781.7,6425.8c-2.1-6.1-4.6-11.7-5.5-12.4c-2.6-2.1-2-2.9,2.5-2.9c2.3,0,4.2,0.6,4.2,1.2
			c0,0.7-0.8,1.2-1.7,1.2c-1.4,0-1.5,0.7-0.6,3.6c1.1,3,1.9,3.6,5.4,3.6c3.3,0,4.3-0.6,5.2-3.1c1.5-3.9,1.5-4-0.6-4
			c-1,0-1.8-0.5-1.8-1.2c0-0.6,2.4-1.2,5.4-1.2c3,0,5.4,0.6,5.4,1.2c0,0.7-0.7,1.2-1.5,1.2s-3.2,5-5.5,11.9
			c-2.3,6.9-4.5,11.9-5.4,11.9C786.2,6436.8,783.9,6432,781.7,6425.8z M788.8,6423.4c0-1.5-1-2.1-3-2.1c-3.5,0-3.5,0-1.5,6.3
			l1.4,4.8l1.5-3.5C788,6427,788.7,6424.5,788.8,6423.4z"/>
		<path class="st0" d="M802.3,6435.9c1.8-0.5,2-2,2-11.8c0-9.2-0.4-11.2-1.8-11.2c-1,0-1.8-0.5-1.8-1.2c0-0.6,2.4-1.2,5.4-1.2
			c5.2,0,7.1,1.4,3.6,2.9c-2,0.7-2.5,8.5-0.6,9.6c2.3,1.3,5.4-1.5,7.1-6.8c1.3-3.7,2.6-5.2,4.5-5.5c1.4-0.2,2.6,0.1,2.6,0.8
			s-0.5,1.3-1.2,1.3c-0.6,0-1.7,2.1-2.4,4.8c-0.7,2.6-1.9,4.8-2.6,4.8s-0.2,1.2,1.2,2.7c3.3,3.5,3.5,8.7,0.4,10.4
			c-1.3,0.6-6,1.1-10.5,1.1C803.8,6436.5,801.1,6436.3,802.3,6435.9z M815.1,6434.4c3.3-1.8,3-6.9-0.6-8.6c-4.4-1.9-6.7-0.5-6.7,4.2
			C807.8,6435.7,810,6437,815.1,6434.4z"/>
		<path class="st0" d="M827,6435.9c2.5-0.6,3.5-3.9,3.5-11.7c0-7.6-1.1-11.3-3.1-11.3c-1,0-1.7-0.5-1.7-1.2c0-0.6,2.7-1.2,6-1.2
			c6,0,8,1.5,3.6,2.7c-1.8,0.5-2.4,1.7-2.4,4.8c0,2.4,0.5,4.6,1.2,5c2.3,1.4,5.7-1.8,7.4-6.8c1.4-4.2,2.4-5.2,4.9-5.5
			c1.8-0.2,3.2,0.1,3.2,0.8s-0.7,1.3-1.5,1.3c-0.7,0-2.4,2.5-3.5,5.5c-1.7,4.9-1.8,5.8-0.2,7.3c2.5,2.5,2.1,8.3-0.6,9.9
			c-1.3,0.6-6,1.1-10.5,1.1C828.8,6436.5,825.9,6436.3,827,6435.9z M840.1,6434.4c3.3-1.8,3-6.9-0.6-8.6c-4.4-1.9-6.7-0.5-6.7,4.2
			C832.8,6435.7,835,6437,840.1,6434.4z"/>
		<path class="st0" d="M878.4,6435.9c1.8-0.5,2-2,2-11.8c0-9.2-0.4-11.2-1.8-11.2c-1,0-1.8-0.5-1.8-1.2s3.9-1.2,9.4-1.2h9.4l0.7,3.8
			c0.4,2,0.5,3.9,0.2,4.3c-1.1,1.1-3.1-1.2-3.1-3.5c0-1.9-0.8-2.3-4.8-2.3H884v10.7c0,8.8,0.4,10.8,2.1,11.8c1.5,1,0.6,1.2-3.9,1.2
			C879,6436.5,877.3,6436.3,878.4,6435.9z"/>
		<path class="st0" d="M901.1,6435.5c1.7-1,2-3,2-11.8c0-8.7-0.4-10.7-1.8-10.7c-1,0-1.8-0.5-1.8-1.2s3.9-1.2,9.5-1.2h9.5v4.2
			c0,4.6-2,5.7-2.6,1.5c-0.2-2.3-1.2-2.9-4.8-3.1l-4.5-0.4v11.3c0,9.8,0.2,11.3,2.1,11.8c1.1,0.4-0.6,0.6-3.9,0.7
			C900.4,6436.6,899.4,6436.4,901.1,6435.5z"/>
		<path class="st0" d="M928.1,6424.9c-2.3-6.5-4.9-11.9-5.6-11.9c-0.8,0-1.5-0.5-1.5-1.2c0-0.6,2.1-1.2,4.8-1.2s4.8,0.6,4.8,1.2
			c0,0.7-0.8,1.2-1.8,1.2c-2.1,0-2.3,1.7-0.6,4.9c2.5,4.6,10.7,1.9,10.7-3.6c0-0.7-0.8-1.3-1.8-1.3c-1,0-1.8-0.5-1.8-1.2
			c0-0.6,2.4-1.2,5.4-1.2c5,0,7.3,1.5,3.9,2.6c-0.7,0.2-3.1,5.6-5.1,11.8c-2.3,6.5-4.5,11.3-5.5,11.5
			C932.7,6436.8,931,6433.3,928.1,6424.9z M934.5,6428c0.4-1.5,1.1-3.7,1.4-4.8c0.6-1.5-0.1-1.9-3.1-1.9c-3,0-3.7,0.4-3.1,1.9
			c0.4,1.1,1.1,3.2,1.4,4.8s1.2,2.9,1.7,2.9S934.2,6429.5,934.5,6428z"/>
		<path class="st0" d="M949.9,6435.5c1.7-1,2-3,2-11.3c0-7.9-0.4-10.2-1.8-10.7c-1-0.5-1.8-1.3-1.8-2c0-1.8,15.2-0.1,18.6,2.1
			c3.9,2.6,6,9.9,4,15.4c-2,6.3-5,7.9-14.9,7.9C949.9,6436.6,948.2,6436.4,949.9,6435.5z M965.4,6431.9c3.2-3.9,2.7-12.4-1-16
			c-1.5-1.7-4.3-3-6-3h-3v11.4v11.5l3.9-0.8C961.4,6434.7,964.2,6433.2,965.4,6431.9z"/>
		<path class="st0" d="M1003.5,6435.9c1.8-0.5,2-2,2-11.8c0-9.2-0.4-11.2-1.8-11.2c-1,0-1.8-0.5-1.8-1.2c0-0.6,2.4-1.2,5.4-1.2
			c5.2,0,7.1,1.4,3.6,2.9c-2,0.7-2.5,8.5-0.6,9.6c2.3,1.3,5.4-1.5,7.1-6.8c1.3-3.7,2.6-5.2,4.5-5.5c2.5-0.4,3.8,1.4,1.7,2.4
			c-0.5,0.2-2,2.6-3.5,5.4c-2.4,4.9-2.4,5.1-0.2,7c2.7,2.5,2.9,6.8,0.4,9.3c-1.3,1.4-4,1.9-10.4,1.8
			C1005.1,6436.5,1002.3,6436.3,1003.5,6435.9z M1016.3,6434.4c4.6-2.5,1.4-9.5-4.4-9.5c-2.5,0-2.9,0.5-2.9,4.5
			C1009.1,6435.7,1011.1,6437.1,1016.3,6434.4z"/>
		<path class="st0" d="M1028.5,6435.9c1.8-0.5,2-2,2-11.8c0-9.2-0.4-11.2-1.8-11.2c-1,0-1.8-0.5-1.8-1.2s4.2-1.2,10.1-1.2h10.1v3.6
			c0,2-0.5,3.6-1.2,3.6c-0.6,0-1.2-1.1-1.2-2.5c0-2.1-0.6-2.4-5-2c-5.1,0.4-5.1,0.4-5.1,5.1c0,3.7,0.5,4.9,2.1,5.1
			c1.2,0.2,3-0.6,3.8-1.8c1.5-1.9,1.7-1.8,1.8,2.4c0,2.4-0.5,4.4-1.2,4.4c-0.6,0-1.2-0.8-1.2-1.9c0-1.2-0.8-1.7-2.6-1.4
			c-2.4,0.4-2.7,1.1-2.7,5.1c0,4.6,0.1,4.8,4.3,5.1c3.6,0.2,4.4-0.1,5-2c0.8-3.5,3.2-3.1,3.2,0.5c0,3-0.1,3-10.4,2.9
			C1031,6436.5,1027.3,6436.3,1028.5,6435.9z"/>
		<path class="st0" d="M815.5,6398.2c-3.3-3.3-4-5-4-8.9c0-6.2,2.5-11.2,6.5-13c9-4.2,17.3,2,17.3,12.9c0,4-0.7,5.7-4,9
			C825.7,6403.7,820.9,6403.7,815.5,6398.2z M828.1,6397.5c3.3-3.3,3.6-12.7,0.5-17.5c-3.7-5.8-11.8-2.3-12.4,5.6
			c-0.7,9,1.9,14.3,7.1,14.3C824.6,6399.9,826.8,6398.8,828.1,6397.5z"/>
		<path class="st0" d="M841.2,6399.9c-4.4-4.4-2.5-9.4,4.9-13.1c5.4-2.9,6.8-5.1,4.6-7.7c-2.3-2.7-8-2.3-8.9,0.6c-1.1,3.3-3,3-3-0.5
			c0-3.2,1.9-4.3,7.9-4.3c4.8,0,8.8,3.5,8.8,7.5c0,3.1-2.4,5.6-7.6,8.1c-4.8,2.3-6.4,5.1-4.4,7.5c2.4,2.9,7.3,2.5,7.3-0.5
			c0-1.3,0.8-2.4,1.8-2.4c2.6,0,2.1,4.4-0.5,6C848.3,6403,843.8,6402.5,841.2,6399.9z"/>
		<path class="st0" d="M873.7,6399.9c-4.3-2.6-7.1-9.8-5.8-14.9c1.4-5.6,7-10.1,12.4-10.1c6.7,0,8.6,1,8.6,4.3c0,3.5-1.9,3.8-3,0.5
			c-1.2-3.7-8.1-3.2-11.2,0.7c-3.7,4.6-3.5,12.7,0.5,16.5c3.6,3.7,8.9,3.9,9.8,0.6c0.8-3.1,3.9-3.1,3.9,0
			C888.8,6402.4,880.1,6403.8,873.7,6399.9z"/>
		<path class="st0" d="M946,6398.8c-6.3-6.2-6.2-15.6,0.1-20.8c8.2-7,18.9-1,18.9,10.6C965,6400.3,953.6,6406.5,946,6398.8z
			 M958.7,6396.6c4.8-7.1,1.3-19.4-5.5-19.4c-1.9,0-4,0.8-4.9,1.8c-1.8,2.1-2.9,10.2-1.9,14.2
			C948.2,6400.2,955.1,6402.1,958.7,6396.6z"/>
		<path class="st0" d="M971.6,6399.3c-4.9-4.8-3.2-9,4.9-12.5c4.2-1.8,5.2-2.9,5.2-5.2c0-4.6-8.7-6.3-9.9-1.9
			c-0.8,3.3-3.2,3-3.2-0.5c0-3.2,1.9-4.3,7.9-4.3c9,0,11.7,9,4,13.9c-8.6,5.5-9,6-7.6,8.3c1.9,3.2,7.1,3.5,8,0.5
			c0.8-3.5,3.2-3.1,3.2,0.4C984.1,6403.1,976.1,6403.9,971.6,6399.3z"/>
		<path class="st0" d="M790.3,6400.2c1.8-0.5,2-2,2-11.7c0-9.6-0.2-11.2-2-11.7c-1.2-0.4,2.3-0.6,7.6-0.7c9.6-0.1,9.9,0,10.6,2.9
			c0.5,1.7,0.5,3.3,0.1,3.7c-1.2,1.2-3.2-0.8-3.2-3.2c0-1.9-0.8-2.3-4.8-2.3h-4.8v10.7c0,8.8,0.4,10.8,2.1,11.8
			c1.5,1,0.6,1.2-3.9,1.2C790.9,6400.8,789.2,6400.6,790.3,6400.2z"/>
		<path class="st0" d="M900.8,6398.4c-0.5-1.5-2.4-6.9-4.2-11.9c-2-5.6-4-9.4-5.2-9.6c-1.1-0.4,0.4-0.6,3.3-0.6c3,0,4.4,0.2,3.3,0.6
			c-2.5,0.6-2.5,0.5-1,4.4c1,2.5,1.9,3.1,5.2,3.1c3.5,0,4.3-0.6,5.2-3.5c1.1-3,1-3.7-0.7-4c-1.1-0.4,0.7-0.6,3.9-0.6
			c3.3,0,5,0.2,3.9,0.6c-1.4,0.4-3.3,4.4-6,12.4C905,6401.2,902.7,6403.7,900.8,6398.4z M905.4,6387.1c0.1-0.8-1.2-1.5-2.9-1.5
			c-3.3,0-3.7,1.3-1.5,7.3l1.3,3.9l1.5-4C904.6,6390.5,905.4,6387.8,905.4,6387.1z"/>
		<path class="st0" d="M918.9,6400.2c1.8-0.5,2-2,2-11.7c0-9.6-0.2-11.2-2-11.7c-1.2-0.4,1.7-0.6,6.3-0.7c5.2-0.1,9.2,0.5,10.5,1.4
			c2.9,2.1,2.9,8,0,10c-1.7,1.2-1.8,1.9-0.7,3c1.8,1.8,1.8,7.3,0,9c-0.8,0.8-4.8,1.4-9.8,1.3
			C920.6,6400.8,917.7,6400.6,918.9,6400.2z M931.7,6398.2c0.7-1,1.2-3,1-4.5c-0.2-2.1-1.2-2.9-4.2-3.1c-3.8-0.4-3.9-0.2-3.9,4.4
			c0,4.3,0.4,4.9,2.9,4.9C928.9,6399.9,930.8,6399,931.7,6398.2z M931.8,6386.8c5-2.7,1.7-9.5-4.8-9.5c-2.1,0-2.5,0.7-2.5,5.4
			c0,4.6,0.4,5.4,2.5,5.4C928.3,6387.9,930.5,6387.4,931.8,6386.8z"/>
		<path class="st0" d="M853.9,6352.5c-1.2-1.2-2-2.9-2-3.6c0-2,4.4-1.8,5.2,0.4c1.1,2.9,4.3,2.1,4.3-1c0-1.7-1.9-4.6-4.8-7.4
			c-6.7-6.5-6.3-7.7,2.4-7.7c5.6,0,7.1,0.4,7.1,1.8c0,1.2-1.2,1.8-3.7,1.8h-3.7l3.7,4.2c3.8,4.4,4.5,7.5,2.5,11.4
			C863.3,6355.3,856.5,6355.4,853.9,6352.5z"/>
		<path class="st0" d="M870.6,6352.5c-1.4-1.5-2-4.3-2-8.8c0-7.6,2.3-10.5,8.1-10.5c4.6,0,6.2,2.6,6.2,10.7c0,3.3-0.6,7.1-1.2,8.5
			C880,6355.3,873.2,6355.4,870.6,6352.5z M877.9,6349.6c2.1-2.1,1.8-9.9-0.5-11.8c-3.8-3.1-6.9,5.5-4,11
			C874.8,6351.4,875.8,6351.6,877.9,6349.6z"/>
		<path class="st0" d="M887.3,6352.5c-1.2-1.2-2-2.9-2-3.6c0-2,4.4-1.8,5.2,0.4c1.1,2.9,4.3,2.1,4.3-1c0-1.7-1.9-4.6-4.8-7.4
			c-6.7-6.5-6.3-7.7,2.4-7.7c5.6,0,7.1,0.4,7.1,1.8c0,1.2-1.2,1.8-3.7,1.8h-3.7l3.7,4.2c3.8,4.4,4.5,7.5,2.5,11.4
			C896.7,6355.3,889.9,6355.4,887.3,6352.5z"/>
		<path class="st0" d="M906.1,6348.4c-5.5-8.2-5.5-10.5,0.1-10.5c3.2,0,4.4-0.6,4.9-2.4c0.8-3.2,3.6-3,4.2,0.2
			c0.2,1.5,0.2,6.3,0,10.8c-0.5,6.8-0.8,8-2.7,8C911.2,6354.6,908.7,6352.1,906.1,6348.4z M911.1,6341.9c-0.4-0.4-1.5-0.4-2.5-0.1
			c-1.8,0.4-1.8,0.7,0.1,3.3l2.1,3l0.4-2.7C911.4,6343.8,911.3,6342.2,911.1,6341.9z"/>
	</g>
</g>
</svg>
